<?xml version="1.0" encoding="UTF-8" standalone="no"?>
<!DOCTYPE svg PUBLIC "-//W3C//DTD SVG 1.1//EN"
 "http://www.w3.org/Graphics/SVG/1.1/DTD/svg11.dtd">
<!-- Generated by graphviz version 2.40.1 (20161225.0304)
 -->
<!-- Title: oneDegreeRelationshipsDiagram Pages: 1 -->
<svg width="412pt" height="237pt"
 viewBox="0.00 0.00 412.00 237.20" xmlns="http://www.w3.org/2000/svg" xmlns:xlink="http://www.w3.org/1999/xlink">
<g id="graph0" class="graph" transform="scale(1 1) rotate(0) translate(4 233.2)">
<title>oneDegreeRelationshipsDiagram</title>
<polygon fill="#ffffff" stroke="transparent" points="-4,4 -4,-233.2 408,-233.2 408,4 -4,4"/>
<text text-anchor="middle" x="72.4936" y="-7.3" font-family="Helvetica,sans-Serif" font-size="11.00" fill="#000000">Generated by SchemaSpy</text>
<!-- act_id_membership -->
<g id="node1" class="node">
<title>act_id_membership</title>
<g id="a_node1"><a xlink:href="../../tables/act_id_membership.html" xlink:title="act_id_membership" target="_top">
<polygon fill="#ffffff" stroke="transparent" points="181,-95.7 181,-185.7 396,-185.7 396,-95.7 181,-95.7"/>
<polygon fill="#f5f5f5" stroke="transparent" points="183.5,-160.7 183.5,-183.7 394.5,-183.7 394.5,-160.7 183.5,-160.7"/>
<polygon fill="none" stroke="#000000" points="183.5,-160.7 183.5,-183.7 394.5,-183.7 394.5,-160.7 183.5,-160.7"/>
<text text-anchor="start" x="188.5" y="-169.3" font-family="Helvetica,sans-Serif" font-weight="bold" font-size="11.00" fill="#000000">act_id_membership</text>
<text text-anchor="start" x="359.5437" y="-168.8" font-family="Helvetica,sans-Serif" font-size="11.00" fill="#000000">[table]</text>
<polygon fill="none" stroke="#000000" points="183.5,-138.7 183.5,-160.7 333.5,-160.7 333.5,-138.7 183.5,-138.7"/>
<image xlink:href="../../images/primaryKeys.png" width="11px" height="12px" preserveAspectRatio="xMinYMin meet" x="188.5" y="-155.7"/>
<text text-anchor="start" x="203.5" y="-145.8" font-family="Helvetica,sans-Serif" font-size="11.00" fill="#000000">user_id_</text>
<polygon fill="none" stroke="#000000" points="333.5,-138.7 333.5,-160.7 394.5,-160.7 394.5,-138.7 333.5,-138.7"/>
<text text-anchor="start" x="336.494" y="-146.4" font-family="Helvetica,sans-Serif" font-size="11.00" fill="#000000">varchar[64]</text>
<polygon fill="none" stroke="#000000" points="183.5,-116.7 183.5,-138.7 333.5,-138.7 333.5,-116.7 183.5,-116.7"/>
<image xlink:href="../../images/primaryKeys.png" width="11px" height="12px" preserveAspectRatio="xMinYMin meet" x="188.5" y="-133.7"/>
<text text-anchor="start" x="203.5" y="-123.8" font-family="Helvetica,sans-Serif" font-size="11.00" fill="#000000">group_id_</text>
<polygon fill="none" stroke="#000000" points="333.5,-116.7 333.5,-138.7 394.5,-138.7 394.5,-116.7 333.5,-116.7"/>
<text text-anchor="start" x="336.494" y="-124.4" font-family="Helvetica,sans-Serif" font-size="11.00" fill="#000000">varchar[64]</text>
<polygon fill="#ffffff" stroke="transparent" points="183.5,-97.7 183.5,-116.7 262.5,-116.7 262.5,-97.7 183.5,-97.7"/>
<polygon fill="none" stroke="#000000" points="183.5,-97.7 183.5,-116.7 262.5,-116.7 262.5,-97.7 183.5,-97.7"/>
<text text-anchor="start" x="186.5" y="-103.8" font-family="Helvetica,sans-Serif" font-size="11.00" fill="#000000">&lt; 2</text>
<polygon fill="#ffffff" stroke="transparent" points="262.5,-97.7 262.5,-116.7 333.5,-116.7 333.5,-97.7 262.5,-97.7"/>
<polygon fill="none" stroke="#000000" points="262.5,-97.7 262.5,-116.7 333.5,-116.7 333.5,-97.7 262.5,-97.7"/>
<text text-anchor="start" x="324.3862" y="-103.8" font-family="Helvetica,sans-Serif" font-size="11.00" fill="#000000"> &#160;</text>
<polygon fill="#ffffff" stroke="transparent" points="333.5,-97.7 333.5,-116.7 394.5,-116.7 394.5,-97.7 333.5,-97.7"/>
<polygon fill="none" stroke="#000000" points="333.5,-97.7 333.5,-116.7 394.5,-116.7 394.5,-97.7 333.5,-97.7"/>
<text text-anchor="start" x="375.9053" y="-103.8" font-family="Helvetica,sans-Serif" font-size="11.00" fill="#000000">0 &gt;</text>
<polygon fill="none" stroke="#000000" stroke-width="2" points="182,-96.7 182,-184.7 395,-184.7 395,-96.7 182,-96.7"/>
</a>
</g>
</g>
<!-- act_id_group -->
<g id="node2" class="node">
<title>act_id_group</title>
<g id="a_node2"><a xlink:href="../../tables/act_id_group.html" xlink:title="act_id_group" target="_top">
<polygon fill="#ffffff" stroke="transparent" points="8,-38.2 8,-121.2 132,-121.2 132,-38.2 8,-38.2"/>
<polygon fill="#f5f5f5" stroke="transparent" points="8,-97.7 8,-120.7 132,-120.7 132,-97.7 8,-97.7"/>
<polygon fill="none" stroke="#000000" points="8,-97.7 8,-120.7 132,-120.7 132,-97.7 8,-97.7"/>
<text text-anchor="start" x="13" y="-106.3" font-family="Helvetica,sans-Serif" font-weight="bold" font-size="11.00" fill="#000000">act_id_group</text>
<text text-anchor="start" x="97.5219" y="-105.8" font-family="Helvetica,sans-Serif" font-size="11.00" fill="#000000">[table]</text>
<polygon fill="none" stroke="#000000" points="8,-75.7 8,-97.7 132,-97.7 132,-75.7 8,-75.7"/>
<image xlink:href="../../images/primaryKeys.png" width="11px" height="12px" preserveAspectRatio="xMinYMin meet" x="13" y="-92.7"/>
<text text-anchor="start" x="37" y="-82.8" font-family="Helvetica,sans-Serif" font-size="11.00" fill="#000000">id_</text>
<polygon fill="none" stroke="#000000" points="8,-56.7 8,-75.7 132,-75.7 132,-56.7 8,-56.7"/>
<text text-anchor="start" x="11" y="-62.8" font-family="Helvetica,sans-Serif" font-size="11.00" fill="#000000">...</text>
<polygon fill="#ffffff" stroke="transparent" points="8,-37.7 8,-56.7 59,-56.7 59,-37.7 8,-37.7"/>
<polygon fill="none" stroke="#000000" points="8,-37.7 8,-56.7 59,-56.7 59,-37.7 8,-37.7"/>
<text text-anchor="start" x="11" y="-43.8" font-family="Helvetica,sans-Serif" font-size="11.00" fill="#000000"> &#160;</text>
<polygon fill="#ffffff" stroke="transparent" points="59,-37.7 59,-56.7 91,-56.7 91,-37.7 59,-37.7"/>
<polygon fill="none" stroke="#000000" points="59,-37.7 59,-56.7 91,-56.7 91,-37.7 59,-37.7"/>
<text text-anchor="start" x="81.8862" y="-43.8" font-family="Helvetica,sans-Serif" font-size="11.00" fill="#000000"> &#160;</text>
<polygon fill="#ffffff" stroke="transparent" points="91,-37.7 91,-56.7 132,-56.7 132,-37.7 91,-37.7"/>
<polygon fill="none" stroke="#000000" points="91,-37.7 91,-56.7 132,-56.7 132,-37.7 91,-37.7"/>
<text text-anchor="start" x="113.4053" y="-43.8" font-family="Helvetica,sans-Serif" font-size="11.00" fill="#000000">2 &gt;</text>
</a>
</g>
</g>
<!-- act_id_membership&#45;&gt;act_id_group -->
<g id="edge1" class="edge">
<title>act_id_membership:w&#45;&gt;act_id_group:e</title>
<path fill="none" stroke="#000000" d="M169.5533,-123.3123C155.596,-112.7354 155.3139,-86.7 132,-86.7"/>
<polygon fill="#000000" stroke="#000000" points="175.8687,-125.2991 182.4196,-131.1341 179.6844,-126.4996 183.5,-127.7 183.5,-127.7 183.5,-127.7 179.6844,-126.4996 184.5804,-124.2659 175.8687,-125.2991 175.8687,-125.2991"/>
<ellipse fill="none" stroke="#000000" cx="172.8162" cy="-124.3388" rx="3.2" ry="3.2"/>
</g>
<!-- act_id_user -->
<g id="node3" class="node">
<title>act_id_user</title>
<g id="a_node3"><a xlink:href="../../tables/act_id_user.html" xlink:title="act_id_user" target="_top">
<polygon fill="#ffffff" stroke="transparent" points="9.5,-142.2 9.5,-225.2 130.5,-225.2 130.5,-142.2 9.5,-142.2"/>
<polygon fill="#f5f5f5" stroke="transparent" points="10,-201.7 10,-224.7 131,-224.7 131,-201.7 10,-201.7"/>
<polygon fill="none" stroke="#000000" points="10,-201.7 10,-224.7 131,-224.7 131,-201.7 10,-201.7"/>
<text text-anchor="start" x="15" y="-210.3" font-family="Helvetica,sans-Serif" font-weight="bold" font-size="11.00" fill="#000000">act_id_user</text>
<text text-anchor="start" x="96.0437" y="-209.8" font-family="Helvetica,sans-Serif" font-size="11.00" fill="#000000">[table]</text>
<polygon fill="none" stroke="#000000" points="10,-179.7 10,-201.7 131,-201.7 131,-179.7 10,-179.7"/>
<image xlink:href="../../images/primaryKeys.png" width="11px" height="12px" preserveAspectRatio="xMinYMin meet" x="15" y="-196.7"/>
<text text-anchor="start" x="30" y="-186.8" font-family="Helvetica,sans-Serif" font-size="11.00" fill="#000000">id_</text>
<polygon fill="none" stroke="#000000" points="10,-160.7 10,-179.7 131,-179.7 131,-160.7 10,-160.7"/>
<text text-anchor="start" x="13" y="-166.8" font-family="Helvetica,sans-Serif" font-size="11.00" fill="#000000">...</text>
<polygon fill="#ffffff" stroke="transparent" points="10,-141.7 10,-160.7 60,-160.7 60,-141.7 10,-141.7"/>
<polygon fill="none" stroke="#000000" points="10,-141.7 10,-160.7 60,-160.7 60,-141.7 10,-141.7"/>
<text text-anchor="start" x="13" y="-147.8" font-family="Helvetica,sans-Serif" font-size="11.00" fill="#000000"> &#160;</text>
<polygon fill="#ffffff" stroke="transparent" points="60,-141.7 60,-160.7 91,-160.7 91,-141.7 60,-141.7"/>
<polygon fill="none" stroke="#000000" points="60,-141.7 60,-160.7 91,-160.7 91,-141.7 60,-141.7"/>
<text text-anchor="start" x="81.8862" y="-147.8" font-family="Helvetica,sans-Serif" font-size="11.00" fill="#000000"> &#160;</text>
<polygon fill="#ffffff" stroke="transparent" points="91,-141.7 91,-160.7 131,-160.7 131,-141.7 91,-141.7"/>
<polygon fill="none" stroke="#000000" points="91,-141.7 91,-160.7 131,-160.7 131,-141.7 91,-141.7"/>
<text text-anchor="start" x="112.4053" y="-147.8" font-family="Helvetica,sans-Serif" font-size="11.00" fill="#000000">2 &gt;</text>
</a>
</g>
</g>
<!-- act_id_membership&#45;&gt;act_id_user -->
<g id="edge2" class="edge">
<title>act_id_membership:w&#45;&gt;act_id_user:e</title>
<path fill="none" stroke="#000000" d="M169.3456,-154.0877C155.1224,-164.6646 154.592,-190.7 131,-190.7"/>
<polygon fill="#000000" stroke="#000000" points="175.8587,-152.0688 184.5659,-153.1386 179.6794,-150.8844 183.5,-149.7 183.5,-149.7 183.5,-149.7 179.6794,-150.8844 182.4341,-146.2614 175.8587,-152.0688 175.8587,-152.0688"/>
<ellipse fill="none" stroke="#000000" cx="172.8022" cy="-153.0163" rx="3.2" ry="3.2"/>
</g>
</g>
</svg>
