<?xml version="1.0" encoding="UTF-8" standalone="no"?>
<!DOCTYPE svg PUBLIC "-//W3C//DTD SVG 1.1//EN"
 "http://www.w3.org/Graphics/SVG/1.1/DTD/svg11.dtd">
<!-- Generated by graphviz version 2.40.1 (20161225.0304)
 -->
<!-- Title: oneDegreeRelationshipsDiagram Pages: 1 -->
<svg width="462pt" height="561pt"
 viewBox="0.00 0.00 462.00 560.70" xmlns="http://www.w3.org/2000/svg" xmlns:xlink="http://www.w3.org/1999/xlink">
<g id="graph0" class="graph" transform="scale(1 1) rotate(0) translate(4 556.7)">
<title>oneDegreeRelationshipsDiagram</title>
<polygon fill="#ffffff" stroke="transparent" points="-4,4 -4,-556.7 458,-556.7 458,4 -4,4"/>
<text text-anchor="middle" x="72.4936" y="-7.3" font-family="Helvetica,sans-Serif" font-size="11.00" fill="#000000">Generated by SchemaSpy</text>
<!-- act_ru_ext_task -->
<g id="node1" class="node">
<title>act_ru_ext_task</title>
<g id="a_node1"><a xlink:href="../../tables/act_ru_ext_task.html" xlink:title="act_ru_ext_task" target="_top">
<polygon fill="#ffffff" stroke="transparent" points="211,-84.7 211,-548.7 446,-548.7 446,-84.7 211,-84.7"/>
<polygon fill="#f5f5f5" stroke="transparent" points="213.5,-523.7 213.5,-546.7 444.5,-546.7 444.5,-523.7 213.5,-523.7"/>
<polygon fill="none" stroke="#000000" points="213.5,-523.7 213.5,-546.7 444.5,-546.7 444.5,-523.7 213.5,-523.7"/>
<text text-anchor="start" x="218.5" y="-532.3" font-family="Helvetica,sans-Serif" font-weight="bold" font-size="11.00" fill="#000000">act_ru_ext_task</text>
<text text-anchor="start" x="409.5437" y="-531.8" font-family="Helvetica,sans-Serif" font-size="11.00" fill="#000000">[table]</text>
<polygon fill="none" stroke="#000000" points="213.5,-501.7 213.5,-523.7 360.5,-523.7 360.5,-501.7 213.5,-501.7"/>
<image xlink:href="../../images/primaryKeys.png" width="11px" height="12px" preserveAspectRatio="xMinYMin meet" x="218.5" y="-518.7"/>
<text text-anchor="start" x="233.5" y="-508.8" font-family="Helvetica,sans-Serif" font-size="11.00" fill="#000000">id_</text>
<polygon fill="none" stroke="#000000" points="360.5,-501.7 360.5,-523.7 444.5,-523.7 444.5,-501.7 360.5,-501.7"/>
<text text-anchor="start" x="363.5" y="-509.4" font-family="Helvetica,sans-Serif" font-size="11.00" fill="#000000">varchar[64]</text>
<polygon fill="none" stroke="#000000" points="213.5,-479.7 213.5,-501.7 360.5,-501.7 360.5,-479.7 213.5,-479.7"/>
<text text-anchor="start" x="233.5" y="-486.8" font-family="Helvetica,sans-Serif" font-size="11.00" fill="#000000">rev_</text>
<polygon fill="none" stroke="#000000" points="360.5,-479.7 360.5,-501.7 444.5,-501.7 444.5,-479.7 360.5,-479.7"/>
<text text-anchor="start" x="363.5" y="-487.4" font-family="Helvetica,sans-Serif" font-size="11.00" fill="#000000">int4[10]</text>
<polygon fill="none" stroke="#000000" points="213.5,-457.7 213.5,-479.7 360.5,-479.7 360.5,-457.7 213.5,-457.7"/>
<text text-anchor="start" x="233.5" y="-464.8" font-family="Helvetica,sans-Serif" font-size="11.00" fill="#000000">worker_id_</text>
<polygon fill="none" stroke="#000000" points="360.5,-457.7 360.5,-479.7 444.5,-479.7 444.5,-457.7 360.5,-457.7"/>
<text text-anchor="start" x="363.5" y="-465.4" font-family="Helvetica,sans-Serif" font-size="11.00" fill="#000000">varchar[255]</text>
<polygon fill="#ffffff" stroke="transparent" points="213.5,-435.7 213.5,-457.7 360.5,-457.7 360.5,-435.7 213.5,-435.7"/>
<polygon fill="none" stroke="#000000" points="213.5,-435.7 213.5,-457.7 360.5,-457.7 360.5,-435.7 213.5,-435.7"/>
<text text-anchor="start" x="233.5" y="-442.8" font-family="Helvetica,sans-Serif" font-size="11.00" fill="#000000">topic_name_</text>
<polygon fill="none" stroke="#000000" points="360.5,-435.7 360.5,-457.7 444.5,-457.7 444.5,-435.7 360.5,-435.7"/>
<text text-anchor="start" x="363.5" y="-443.4" font-family="Helvetica,sans-Serif" font-size="11.00" fill="#000000">varchar[255]</text>
<polygon fill="none" stroke="#000000" points="213.5,-413.7 213.5,-435.7 360.5,-435.7 360.5,-413.7 213.5,-413.7"/>
<text text-anchor="start" x="233.5" y="-420.8" font-family="Helvetica,sans-Serif" font-size="11.00" fill="#000000">retries_</text>
<polygon fill="none" stroke="#000000" points="360.5,-413.7 360.5,-435.7 444.5,-435.7 444.5,-413.7 360.5,-413.7"/>
<text text-anchor="start" x="363.5" y="-421.4" font-family="Helvetica,sans-Serif" font-size="11.00" fill="#000000">int4[10]</text>
<polygon fill="none" stroke="#000000" points="213.5,-391.7 213.5,-413.7 360.5,-413.7 360.5,-391.7 213.5,-391.7"/>
<text text-anchor="start" x="233.5" y="-398.8" font-family="Helvetica,sans-Serif" font-size="11.00" fill="#000000">error_msg_</text>
<polygon fill="none" stroke="#000000" points="360.5,-391.7 360.5,-413.7 444.5,-413.7 444.5,-391.7 360.5,-391.7"/>
<text text-anchor="start" x="363.5" y="-399.4" font-family="Helvetica,sans-Serif" font-size="11.00" fill="#000000">varchar[4000]</text>
<polygon fill="#ffffff" stroke="transparent" points="213.5,-369.7 213.5,-391.7 360.5,-391.7 360.5,-369.7 213.5,-369.7"/>
<polygon fill="none" stroke="#000000" points="213.5,-369.7 213.5,-391.7 360.5,-391.7 360.5,-369.7 213.5,-369.7"/>
<image xlink:href="../../images/foreignKeys.png" width="11px" height="12px" preserveAspectRatio="xMinYMin meet" x="218.5" y="-386.7"/>
<text text-anchor="start" x="233.5" y="-376.8" font-family="Helvetica,sans-Serif" font-size="11.00" fill="#000000">error_details_id_</text>
<polygon fill="none" stroke="#000000" points="360.5,-369.7 360.5,-391.7 444.5,-391.7 444.5,-369.7 360.5,-369.7"/>
<text text-anchor="start" x="363.5" y="-377.4" font-family="Helvetica,sans-Serif" font-size="11.00" fill="#000000">varchar[64]</text>
<polygon fill="none" stroke="#000000" points="213.5,-347.7 213.5,-369.7 360.5,-369.7 360.5,-347.7 213.5,-347.7"/>
<text text-anchor="start" x="233.5" y="-354.8" font-family="Helvetica,sans-Serif" font-size="11.00" fill="#000000">lock_exp_time_</text>
<polygon fill="none" stroke="#000000" points="360.5,-347.7 360.5,-369.7 444.5,-369.7 444.5,-347.7 360.5,-347.7"/>
<text text-anchor="start" x="363.3807" y="-355.4" font-family="Helvetica,sans-Serif" font-size="11.00" fill="#000000">timestamp[29,6]</text>
<polygon fill="none" stroke="#000000" points="213.5,-325.7 213.5,-347.7 360.5,-347.7 360.5,-325.7 213.5,-325.7"/>
<text text-anchor="start" x="233.5" y="-332.8" font-family="Helvetica,sans-Serif" font-size="11.00" fill="#000000">create_time_</text>
<polygon fill="none" stroke="#000000" points="360.5,-325.7 360.5,-347.7 444.5,-347.7 444.5,-325.7 360.5,-325.7"/>
<text text-anchor="start" x="363.3807" y="-333.4" font-family="Helvetica,sans-Serif" font-size="11.00" fill="#000000">timestamp[29,6]</text>
<polygon fill="none" stroke="#000000" points="213.5,-303.7 213.5,-325.7 360.5,-325.7 360.5,-303.7 213.5,-303.7"/>
<text text-anchor="start" x="233.5" y="-310.8" font-family="Helvetica,sans-Serif" font-size="11.00" fill="#000000">suspension_state_</text>
<polygon fill="none" stroke="#000000" points="360.5,-303.7 360.5,-325.7 444.5,-325.7 444.5,-303.7 360.5,-303.7"/>
<text text-anchor="start" x="363.5" y="-311.4" font-family="Helvetica,sans-Serif" font-size="11.00" fill="#000000">int4[10]</text>
<polygon fill="#ffffff" stroke="transparent" points="213.5,-281.7 213.5,-303.7 360.5,-303.7 360.5,-281.7 213.5,-281.7"/>
<polygon fill="none" stroke="#000000" points="213.5,-281.7 213.5,-303.7 360.5,-303.7 360.5,-281.7 213.5,-281.7"/>
<image xlink:href="../../images/foreignKeys.png" width="11px" height="12px" preserveAspectRatio="xMinYMin meet" x="218.5" y="-298.7"/>
<text text-anchor="start" x="233.5" y="-288.8" font-family="Helvetica,sans-Serif" font-size="11.00" fill="#000000">execution_id_</text>
<polygon fill="none" stroke="#000000" points="360.5,-281.7 360.5,-303.7 444.5,-303.7 444.5,-281.7 360.5,-281.7"/>
<text text-anchor="start" x="363.5" y="-289.4" font-family="Helvetica,sans-Serif" font-size="11.00" fill="#000000">varchar[64]</text>
<polygon fill="none" stroke="#000000" points="213.5,-259.7 213.5,-281.7 360.5,-281.7 360.5,-259.7 213.5,-259.7"/>
<text text-anchor="start" x="233.5" y="-266.8" font-family="Helvetica,sans-Serif" font-size="11.00" fill="#000000">proc_inst_id_</text>
<polygon fill="none" stroke="#000000" points="360.5,-259.7 360.5,-281.7 444.5,-281.7 444.5,-259.7 360.5,-259.7"/>
<text text-anchor="start" x="363.5" y="-267.4" font-family="Helvetica,sans-Serif" font-size="11.00" fill="#000000">varchar[64]</text>
<polygon fill="none" stroke="#000000" points="213.5,-237.7 213.5,-259.7 360.5,-259.7 360.5,-237.7 213.5,-237.7"/>
<text text-anchor="start" x="233.5" y="-244.8" font-family="Helvetica,sans-Serif" font-size="11.00" fill="#000000">proc_def_id_</text>
<polygon fill="none" stroke="#000000" points="360.5,-237.7 360.5,-259.7 444.5,-259.7 444.5,-237.7 360.5,-237.7"/>
<text text-anchor="start" x="363.5" y="-245.4" font-family="Helvetica,sans-Serif" font-size="11.00" fill="#000000">varchar[64]</text>
<polygon fill="none" stroke="#000000" points="213.5,-215.7 213.5,-237.7 360.5,-237.7 360.5,-215.7 213.5,-215.7"/>
<text text-anchor="start" x="233.5" y="-222.8" font-family="Helvetica,sans-Serif" font-size="11.00" fill="#000000">proc_def_key_</text>
<polygon fill="none" stroke="#000000" points="360.5,-215.7 360.5,-237.7 444.5,-237.7 444.5,-215.7 360.5,-215.7"/>
<text text-anchor="start" x="363.5" y="-223.4" font-family="Helvetica,sans-Serif" font-size="11.00" fill="#000000">varchar[255]</text>
<polygon fill="none" stroke="#000000" points="213.5,-193.7 213.5,-215.7 360.5,-215.7 360.5,-193.7 213.5,-193.7"/>
<text text-anchor="start" x="233.5" y="-200.8" font-family="Helvetica,sans-Serif" font-size="11.00" fill="#000000">act_id_</text>
<polygon fill="none" stroke="#000000" points="360.5,-193.7 360.5,-215.7 444.5,-215.7 444.5,-193.7 360.5,-193.7"/>
<text text-anchor="start" x="363.5" y="-201.4" font-family="Helvetica,sans-Serif" font-size="11.00" fill="#000000">varchar[255]</text>
<polygon fill="none" stroke="#000000" points="213.5,-171.7 213.5,-193.7 360.5,-193.7 360.5,-171.7 213.5,-171.7"/>
<text text-anchor="start" x="233.5" y="-178.8" font-family="Helvetica,sans-Serif" font-size="11.00" fill="#000000">act_inst_id_</text>
<polygon fill="none" stroke="#000000" points="360.5,-171.7 360.5,-193.7 444.5,-193.7 444.5,-171.7 360.5,-171.7"/>
<text text-anchor="start" x="363.5" y="-179.4" font-family="Helvetica,sans-Serif" font-size="11.00" fill="#000000">varchar[64]</text>
<polygon fill="#ffffff" stroke="transparent" points="213.5,-149.7 213.5,-171.7 360.5,-171.7 360.5,-149.7 213.5,-149.7"/>
<polygon fill="none" stroke="#000000" points="213.5,-149.7 213.5,-171.7 360.5,-171.7 360.5,-149.7 213.5,-149.7"/>
<text text-anchor="start" x="233.5" y="-156.8" font-family="Helvetica,sans-Serif" font-size="11.00" fill="#000000">tenant_id_</text>
<polygon fill="none" stroke="#000000" points="360.5,-149.7 360.5,-171.7 444.5,-171.7 444.5,-149.7 360.5,-149.7"/>
<text text-anchor="start" x="363.5" y="-157.4" font-family="Helvetica,sans-Serif" font-size="11.00" fill="#000000">varchar[64]</text>
<polygon fill="#ffffff" stroke="transparent" points="213.5,-127.7 213.5,-149.7 360.5,-149.7 360.5,-127.7 213.5,-127.7"/>
<polygon fill="none" stroke="#000000" points="213.5,-127.7 213.5,-149.7 360.5,-149.7 360.5,-127.7 213.5,-127.7"/>
<text text-anchor="start" x="233.5" y="-134.8" font-family="Helvetica,sans-Serif" font-size="11.00" fill="#000000">priority_</text>
<polygon fill="none" stroke="#000000" points="360.5,-127.7 360.5,-149.7 444.5,-149.7 444.5,-127.7 360.5,-127.7"/>
<text text-anchor="start" x="363.5" y="-135.4" font-family="Helvetica,sans-Serif" font-size="11.00" fill="#000000">int8[19]</text>
<polygon fill="none" stroke="#000000" points="213.5,-105.7 213.5,-127.7 360.5,-127.7 360.5,-105.7 213.5,-105.7"/>
<text text-anchor="start" x="233.5" y="-112.8" font-family="Helvetica,sans-Serif" font-size="11.00" fill="#000000">last_failure_log_id_</text>
<polygon fill="none" stroke="#000000" points="360.5,-105.7 360.5,-127.7 444.5,-127.7 444.5,-105.7 360.5,-105.7"/>
<text text-anchor="start" x="363.5" y="-113.4" font-family="Helvetica,sans-Serif" font-size="11.00" fill="#000000">varchar[64]</text>
<polygon fill="#ffffff" stroke="transparent" points="213.5,-86.7 213.5,-105.7 291.5,-105.7 291.5,-86.7 213.5,-86.7"/>
<polygon fill="none" stroke="#000000" points="213.5,-86.7 213.5,-105.7 291.5,-105.7 291.5,-86.7 213.5,-86.7"/>
<text text-anchor="start" x="216.5" y="-92.8" font-family="Helvetica,sans-Serif" font-size="11.00" fill="#000000">&lt; 2</text>
<polygon fill="#ffffff" stroke="transparent" points="291.5,-86.7 291.5,-105.7 360.5,-105.7 360.5,-86.7 291.5,-86.7"/>
<polygon fill="none" stroke="#000000" points="291.5,-86.7 291.5,-105.7 360.5,-105.7 360.5,-86.7 291.5,-86.7"/>
<text text-anchor="start" x="351.3862" y="-92.8" font-family="Helvetica,sans-Serif" font-size="11.00" fill="#000000"> &#160;</text>
<polygon fill="#ffffff" stroke="transparent" points="360.5,-86.7 360.5,-105.7 444.5,-105.7 444.5,-86.7 360.5,-86.7"/>
<polygon fill="none" stroke="#000000" points="360.5,-86.7 360.5,-105.7 444.5,-105.7 444.5,-86.7 360.5,-86.7"/>
<text text-anchor="start" x="425.9053" y="-92.8" font-family="Helvetica,sans-Serif" font-size="11.00" fill="#000000">0 &gt;</text>
<polygon fill="none" stroke="#000000" stroke-width="2" points="212,-85.7 212,-547.7 445,-547.7 445,-85.7 212,-85.7"/>
</a>
</g>
</g>
<!-- act_ge_bytearray -->
<g id="node2" class="node">
<title>act_ge_bytearray</title>
<g id="a_node2"><a xlink:href="../../tables/act_ge_bytearray.html" xlink:title="act_ge_bytearray" target="_top">
<polygon fill="#ffffff" stroke="transparent" points="8,-296.2 8,-467.2 162,-467.2 162,-296.2 8,-296.2"/>
<polygon fill="#f5f5f5" stroke="transparent" points="8,-443.7 8,-466.7 162,-466.7 162,-443.7 8,-443.7"/>
<polygon fill="none" stroke="#000000" points="8,-443.7 8,-466.7 162,-466.7 162,-443.7 8,-443.7"/>
<text text-anchor="start" x="13" y="-452.3" font-family="Helvetica,sans-Serif" font-weight="bold" font-size="11.00" fill="#000000">act_ge_bytearray</text>
<text text-anchor="start" x="127.5219" y="-451.8" font-family="Helvetica,sans-Serif" font-size="11.00" fill="#000000">[table]</text>
<polygon fill="none" stroke="#000000" points="8,-421.7 8,-443.7 162,-443.7 162,-421.7 8,-421.7"/>
<image xlink:href="../../images/primaryKeys.png" width="11px" height="12px" preserveAspectRatio="xMinYMin meet" x="13" y="-438.7"/>
<text text-anchor="start" x="35" y="-428.8" font-family="Helvetica,sans-Serif" font-size="11.00" fill="#000000">id_</text>
<polygon fill="#ffffff" stroke="transparent" points="8,-399.7 8,-421.7 162,-421.7 162,-399.7 8,-399.7"/>
<polygon fill="none" stroke="#000000" points="8,-399.7 8,-421.7 162,-421.7 162,-399.7 8,-399.7"/>
<text text-anchor="start" x="35" y="-406.8" font-family="Helvetica,sans-Serif" font-size="11.00" fill="#000000">name_</text>
<polygon fill="#ffffff" stroke="transparent" points="8,-377.7 8,-399.7 162,-399.7 162,-377.7 8,-377.7"/>
<polygon fill="none" stroke="#000000" points="8,-377.7 8,-399.7 162,-399.7 162,-377.7 8,-377.7"/>
<image xlink:href="../../images/foreignKeys.png" width="11px" height="12px" preserveAspectRatio="xMinYMin meet" x="13" y="-394.7"/>
<text text-anchor="start" x="35" y="-384.8" font-family="Helvetica,sans-Serif" font-size="11.00" fill="#000000">deployment_id_</text>
<polygon fill="#ffffff" stroke="transparent" points="8,-355.7 8,-377.7 162,-377.7 162,-355.7 8,-355.7"/>
<polygon fill="none" stroke="#000000" points="8,-355.7 8,-377.7 162,-377.7 162,-355.7 8,-355.7"/>
<text text-anchor="start" x="35" y="-362.8" font-family="Helvetica,sans-Serif" font-size="11.00" fill="#000000">root_proc_inst_id_</text>
<polygon fill="#ffffff" stroke="transparent" points="8,-333.7 8,-355.7 162,-355.7 162,-333.7 8,-333.7"/>
<polygon fill="none" stroke="#000000" points="8,-333.7 8,-355.7 162,-355.7 162,-333.7 8,-333.7"/>
<text text-anchor="start" x="35" y="-340.8" font-family="Helvetica,sans-Serif" font-size="11.00" fill="#000000">removal_time_</text>
<polygon fill="none" stroke="#000000" points="8,-314.7 8,-333.7 162,-333.7 162,-314.7 8,-314.7"/>
<text text-anchor="start" x="11" y="-320.8" font-family="Helvetica,sans-Serif" font-size="11.00" fill="#000000">...</text>
<polygon fill="#ffffff" stroke="transparent" points="8,-295.7 8,-314.7 79,-314.7 79,-295.7 8,-295.7"/>
<polygon fill="none" stroke="#000000" points="8,-295.7 8,-314.7 79,-314.7 79,-295.7 8,-295.7"/>
<text text-anchor="start" x="11" y="-301.8" font-family="Helvetica,sans-Serif" font-size="11.00" fill="#000000">&lt; 1</text>
<polygon fill="#ffffff" stroke="transparent" points="79,-295.7 79,-314.7 116,-314.7 116,-295.7 79,-295.7"/>
<polygon fill="none" stroke="#000000" points="79,-295.7 79,-314.7 116,-314.7 116,-295.7 79,-295.7"/>
<text text-anchor="start" x="106.8862" y="-301.8" font-family="Helvetica,sans-Serif" font-size="11.00" fill="#000000"> &#160;</text>
<polygon fill="#ffffff" stroke="transparent" points="116,-295.7 116,-314.7 162,-314.7 162,-295.7 116,-295.7"/>
<polygon fill="none" stroke="#000000" points="116,-295.7 116,-314.7 162,-314.7 162,-295.7 116,-295.7"/>
<text text-anchor="start" x="143.4053" y="-301.8" font-family="Helvetica,sans-Serif" font-size="11.00" fill="#000000">3 &gt;</text>
</a>
</g>
</g>
<!-- act_ru_ext_task&#45;&gt;act_ge_bytearray -->
<g id="edge1" class="edge">
<title>act_ru_ext_task:w&#45;&gt;act_ge_bytearray:e</title>
<path fill="none" stroke="#000000" d="M199.4561,-385.4988C184.4356,-398.3719 188.4284,-432.7 162,-432.7"/>
<polygon fill="#000000" stroke="#000000" points="205.9297,-383.2868 214.6641,-384.1066 209.7149,-381.9934 213.5,-380.7 213.5,-380.7 213.5,-380.7 209.7149,-381.9934 212.3359,-377.2934 205.9297,-383.2868 205.9297,-383.2868"/>
<ellipse fill="none" stroke="#000000" cx="202.9016" cy="-384.3215" rx="3.2" ry="3.2"/>
</g>
<!-- act_ru_execution -->
<g id="node3" class="node">
<title>act_ru_execution</title>
<g id="a_node3"><a xlink:href="../../tables/act_ru_execution.html" xlink:title="act_ru_execution" target="_top">
<polygon fill="#ffffff" stroke="transparent" points="9,-38.2 9,-275.2 161,-275.2 161,-38.2 9,-38.2"/>
<polygon fill="#f5f5f5" stroke="transparent" points="9,-251.7 9,-274.7 161,-274.7 161,-251.7 9,-251.7"/>
<polygon fill="none" stroke="#000000" points="9,-251.7 9,-274.7 161,-274.7 161,-251.7 9,-251.7"/>
<text text-anchor="start" x="14" y="-260.3" font-family="Helvetica,sans-Serif" font-weight="bold" font-size="11.00" fill="#000000">act_ru_execution</text>
<text text-anchor="start" x="126.5219" y="-259.8" font-family="Helvetica,sans-Serif" font-size="11.00" fill="#000000">[table]</text>
<polygon fill="none" stroke="#000000" points="9,-229.7 9,-251.7 161,-251.7 161,-229.7 9,-229.7"/>
<image xlink:href="../../images/primaryKeys.png" width="11px" height="12px" preserveAspectRatio="xMinYMin meet" x="14" y="-246.7"/>
<text text-anchor="start" x="31" y="-236.8" font-family="Helvetica,sans-Serif" font-size="11.00" fill="#000000">id_</text>
<polygon fill="#ffffff" stroke="transparent" points="9,-207.7 9,-229.7 161,-229.7 161,-207.7 9,-207.7"/>
<polygon fill="none" stroke="#000000" points="9,-207.7 9,-229.7 161,-229.7 161,-207.7 9,-207.7"/>
<text text-anchor="start" x="31" y="-214.8" font-family="Helvetica,sans-Serif" font-size="11.00" fill="#000000">root_proc_inst_id_</text>
<polygon fill="#ffffff" stroke="transparent" points="9,-185.7 9,-207.7 161,-207.7 161,-185.7 9,-185.7"/>
<polygon fill="none" stroke="#000000" points="9,-185.7 9,-207.7 161,-207.7 161,-185.7 9,-185.7"/>
<image xlink:href="../../images/foreignKeys.png" width="11px" height="12px" preserveAspectRatio="xMinYMin meet" x="14" y="-202.7"/>
<text text-anchor="start" x="31" y="-192.8" font-family="Helvetica,sans-Serif" font-size="11.00" fill="#000000">proc_inst_id_</text>
<polygon fill="#ffffff" stroke="transparent" points="9,-163.7 9,-185.7 161,-185.7 161,-163.7 9,-163.7"/>
<polygon fill="none" stroke="#000000" points="9,-163.7 9,-185.7 161,-185.7 161,-163.7 9,-163.7"/>
<text text-anchor="start" x="31" y="-170.8" font-family="Helvetica,sans-Serif" font-size="11.00" fill="#000000">business_key_</text>
<polygon fill="#ffffff" stroke="transparent" points="9,-141.7 9,-163.7 161,-163.7 161,-141.7 9,-141.7"/>
<polygon fill="none" stroke="#000000" points="9,-141.7 9,-163.7 161,-163.7 161,-141.7 9,-141.7"/>
<image xlink:href="../../images/foreignKeys.png" width="11px" height="12px" preserveAspectRatio="xMinYMin meet" x="14" y="-158.7"/>
<text text-anchor="start" x="31" y="-148.8" font-family="Helvetica,sans-Serif" font-size="11.00" fill="#000000">parent_id_</text>
<polygon fill="#ffffff" stroke="transparent" points="9,-119.7 9,-141.7 161,-141.7 161,-119.7 9,-119.7"/>
<polygon fill="none" stroke="#000000" points="9,-119.7 9,-141.7 161,-141.7 161,-119.7 9,-119.7"/>
<image xlink:href="../../images/foreignKeys.png" width="11px" height="12px" preserveAspectRatio="xMinYMin meet" x="14" y="-136.7"/>
<text text-anchor="start" x="31" y="-126.8" font-family="Helvetica,sans-Serif" font-size="11.00" fill="#000000">proc_def_id_</text>
<polygon fill="#ffffff" stroke="transparent" points="9,-97.7 9,-119.7 161,-119.7 161,-97.7 9,-97.7"/>
<polygon fill="none" stroke="#000000" points="9,-97.7 9,-119.7 161,-119.7 161,-97.7 9,-97.7"/>
<image xlink:href="../../images/foreignKeys.png" width="11px" height="12px" preserveAspectRatio="xMinYMin meet" x="14" y="-114.7"/>
<text text-anchor="start" x="31" y="-104.8" font-family="Helvetica,sans-Serif" font-size="11.00" fill="#000000">super_exec_</text>
<polygon fill="#ffffff" stroke="transparent" points="9,-75.7 9,-97.7 161,-97.7 161,-75.7 9,-75.7"/>
<polygon fill="none" stroke="#000000" points="9,-75.7 9,-97.7 161,-97.7 161,-75.7 9,-75.7"/>
<text text-anchor="start" x="31" y="-82.8" font-family="Helvetica,sans-Serif" font-size="11.00" fill="#000000">tenant_id_</text>
<polygon fill="none" stroke="#000000" points="9,-56.7 9,-75.7 161,-75.7 161,-56.7 9,-56.7"/>
<text text-anchor="start" x="12" y="-62.8" font-family="Helvetica,sans-Serif" font-size="11.00" fill="#000000">...</text>
<polygon fill="#ffffff" stroke="transparent" points="9,-37.7 9,-56.7 76,-56.7 76,-37.7 9,-37.7"/>
<polygon fill="none" stroke="#000000" points="9,-37.7 9,-56.7 76,-56.7 76,-37.7 9,-37.7"/>
<text text-anchor="start" x="12" y="-43.8" font-family="Helvetica,sans-Serif" font-size="11.00" fill="#000000">&lt; 4</text>
<polygon fill="#ffffff" stroke="transparent" points="76,-37.7 76,-56.7 111,-56.7 111,-37.7 76,-37.7"/>
<polygon fill="none" stroke="#000000" points="76,-37.7 76,-56.7 111,-56.7 111,-37.7 76,-37.7"/>
<text text-anchor="start" x="101.8862" y="-43.8" font-family="Helvetica,sans-Serif" font-size="11.00" fill="#000000"> &#160;</text>
<polygon fill="#ffffff" stroke="transparent" points="111,-37.7 111,-56.7 161,-56.7 161,-37.7 111,-37.7"/>
<polygon fill="none" stroke="#000000" points="111,-37.7 111,-56.7 161,-56.7 161,-37.7 111,-37.7"/>
<text text-anchor="start" x="136.2904" y="-43.8" font-family="Helvetica,sans-Serif" font-size="11.00" fill="#000000">11 &gt;</text>
</a>
</g>
</g>
<!-- act_ru_ext_task&#45;&gt;act_ru_execution -->
<g id="edge2" class="edge">
<title>act_ru_ext_task:w&#45;&gt;act_ru_execution:e</title>
<path fill="none" stroke="#000000" d="M199.7204,-288.2665C183.9101,-275.6915 187.9403,-240.7 161,-240.7"/>
<polygon fill="#000000" stroke="#000000" points="205.8845,-290.2497 212.3974,-296.127 209.6922,-291.4749 213.5,-292.7 213.5,-292.7 213.5,-292.7 209.6922,-291.4749 214.6026,-289.273 205.8845,-290.2497 205.8845,-290.2497"/>
<ellipse fill="none" stroke="#000000" cx="202.8383" cy="-289.2696" rx="3.2" ry="3.2"/>
</g>
</g>
</svg>
