<?xml version="1.0" encoding="UTF-8" standalone="no"?>
<!DOCTYPE svg PUBLIC "-//W3C//DTD SVG 1.1//EN"
 "http://www.w3.org/Graphics/SVG/1.1/DTD/svg11.dtd">
<!-- Generated by graphviz version 2.40.1 (20161225.0304)
 -->
<!-- Title: oneDegreeRelationshipsDiagramImplied Pages: 1 -->
<svg width="426pt" height="221pt"
 viewBox="0.00 0.00 426.00 221.20" xmlns="http://www.w3.org/2000/svg" xmlns:xlink="http://www.w3.org/1999/xlink">
<g id="graph0" class="graph" transform="scale(1 1) rotate(0) translate(4 217.2)">
<title>oneDegreeRelationshipsDiagramImplied</title>
<polygon fill="#ffffff" stroke="transparent" points="-4,4 -4,-217.2 422,-217.2 422,4 -4,4"/>
<text text-anchor="middle" x="72.4936" y="-7.3" font-family="Helvetica,sans-Serif" font-size="11.00" fill="#000000">Generated by SchemaSpy</text>
<!-- act_ru_meter_log -->
<g id="node1" class="node">
<title>act_ru_meter_log</title>
<g id="a_node1"><a xlink:href="../../tables/act_ru_meter_log.html" xlink:title="act_ru_meter_log" target="_top">
<polygon fill="#ffffff" stroke="transparent" points="257,-38.2 257,-209.2 410,-209.2 410,-38.2 257,-38.2"/>
<polygon fill="#f5f5f5" stroke="transparent" points="257.5,-185.7 257.5,-208.7 410.5,-208.7 410.5,-185.7 257.5,-185.7"/>
<polygon fill="none" stroke="#000000" points="257.5,-185.7 257.5,-208.7 410.5,-208.7 410.5,-185.7 257.5,-185.7"/>
<text text-anchor="start" x="262.5" y="-194.3" font-family="Helvetica,sans-Serif" font-weight="bold" font-size="11.00" fill="#000000">act_ru_meter_log</text>
<text text-anchor="start" x="376.0219" y="-193.8" font-family="Helvetica,sans-Serif" font-size="11.00" fill="#000000">[table]</text>
<polygon fill="none" stroke="#000000" points="257.5,-163.7 257.5,-185.7 410.5,-185.7 410.5,-163.7 257.5,-163.7"/>
<image xlink:href="../../images/primaryKeys.png" width="11px" height="12px" preserveAspectRatio="xMinYMin meet" x="262.5" y="-180.7"/>
<text text-anchor="start" x="286.5" y="-170.8" font-family="Helvetica,sans-Serif" font-size="11.00" fill="#000000">id_</text>
<polygon fill="#ffffff" stroke="transparent" points="257.5,-141.7 257.5,-163.7 410.5,-163.7 410.5,-141.7 257.5,-141.7"/>
<polygon fill="none" stroke="#000000" points="257.5,-141.7 257.5,-163.7 410.5,-163.7 410.5,-141.7 257.5,-141.7"/>
<image xlink:href="../../images/foreignKeys.png" width="11px" height="12px" preserveAspectRatio="xMinYMin meet" x="262.5" y="-158.7"/>
<text text-anchor="start" x="286.5" y="-148.8" font-family="Helvetica,sans-Serif" font-size="11.00" fill="#000000">name_</text>
<polygon fill="#ffffff" stroke="transparent" points="257.5,-119.7 257.5,-141.7 410.5,-141.7 410.5,-119.7 257.5,-119.7"/>
<polygon fill="none" stroke="#000000" points="257.5,-119.7 257.5,-141.7 410.5,-141.7 410.5,-119.7 257.5,-119.7"/>
<text text-anchor="start" x="286.5" y="-126.8" font-family="Helvetica,sans-Serif" font-size="11.00" fill="#000000">reporter_</text>
<polygon fill="#ffffff" stroke="transparent" points="257.5,-97.7 257.5,-119.7 410.5,-119.7 410.5,-97.7 257.5,-97.7"/>
<polygon fill="none" stroke="#000000" points="257.5,-97.7 257.5,-119.7 410.5,-119.7 410.5,-97.7 257.5,-97.7"/>
<text text-anchor="start" x="286.5" y="-104.8" font-family="Helvetica,sans-Serif" font-size="11.00" fill="#000000">timestamp_</text>
<polygon fill="#ffffff" stroke="transparent" points="257.5,-75.7 257.5,-97.7 410.5,-97.7 410.5,-75.7 257.5,-75.7"/>
<polygon fill="none" stroke="#000000" points="257.5,-75.7 257.5,-97.7 410.5,-97.7 410.5,-75.7 257.5,-75.7"/>
<text text-anchor="start" x="286.5" y="-82.8" font-family="Helvetica,sans-Serif" font-size="11.00" fill="#000000">milliseconds_</text>
<polygon fill="none" stroke="#000000" points="257.5,-56.7 257.5,-75.7 410.5,-75.7 410.5,-56.7 257.5,-56.7"/>
<text text-anchor="start" x="260.5" y="-62.8" font-family="Helvetica,sans-Serif" font-size="11.00" fill="#000000">...</text>
<polygon fill="#ffffff" stroke="transparent" points="257.5,-37.7 257.5,-56.7 332.5,-56.7 332.5,-37.7 257.5,-37.7"/>
<polygon fill="none" stroke="#000000" points="257.5,-37.7 257.5,-56.7 332.5,-56.7 332.5,-37.7 257.5,-37.7"/>
<text text-anchor="start" x="260.5" y="-43.8" font-family="Helvetica,sans-Serif" font-size="11.00" fill="#000000">&lt; 1</text>
<polygon fill="#ffffff" stroke="transparent" points="332.5,-37.7 332.5,-56.7 371.5,-56.7 371.5,-37.7 332.5,-37.7"/>
<polygon fill="none" stroke="#000000" points="332.5,-37.7 332.5,-56.7 371.5,-56.7 371.5,-37.7 332.5,-37.7"/>
<text text-anchor="start" x="362.3862" y="-43.8" font-family="Helvetica,sans-Serif" font-size="11.00" fill="#000000"> &#160;</text>
<polygon fill="#ffffff" stroke="transparent" points="371.5,-37.7 371.5,-56.7 410.5,-56.7 410.5,-37.7 371.5,-37.7"/>
<polygon fill="none" stroke="#000000" points="371.5,-37.7 371.5,-56.7 410.5,-56.7 410.5,-37.7 371.5,-37.7"/>
<text text-anchor="start" x="401.3862" y="-43.8" font-family="Helvetica,sans-Serif" font-size="11.00" fill="#000000"> &#160;</text>
</a>
</g>
</g>
<!-- act_ge_property -->
<g id="node2" class="node">
<title>act_ge_property</title>
<g id="a_node2"><a xlink:href="../../tables/act_ge_property.html" xlink:title="act_ge_property" target="_top">
<polygon fill="#ffffff" stroke="transparent" points="8,-76.7 8,-188.7 208,-188.7 208,-76.7 8,-76.7"/>
<polygon fill="#f5f5f5" stroke="transparent" points="10,-163.7 10,-186.7 206,-186.7 206,-163.7 10,-163.7"/>
<polygon fill="none" stroke="#000000" points="10,-163.7 10,-186.7 206,-186.7 206,-163.7 10,-163.7"/>
<text text-anchor="start" x="15" y="-172.3" font-family="Helvetica,sans-Serif" font-weight="bold" font-size="11.00" fill="#000000">act_ge_property</text>
<text text-anchor="start" x="171.0437" y="-171.8" font-family="Helvetica,sans-Serif" font-size="11.00" fill="#000000">[table]</text>
<polygon fill="none" stroke="#000000" points="10,-141.7 10,-163.7 139,-163.7 139,-141.7 10,-141.7"/>
<image xlink:href="../../images/primaryKeys.png" width="11px" height="12px" preserveAspectRatio="xMinYMin meet" x="15" y="-158.7"/>
<text text-anchor="start" x="30" y="-148.8" font-family="Helvetica,sans-Serif" font-size="11.00" fill="#000000">name_</text>
<polygon fill="none" stroke="#000000" points="139,-141.7 139,-163.7 206,-163.7 206,-141.7 139,-141.7"/>
<text text-anchor="start" x="142" y="-149.4" font-family="Helvetica,sans-Serif" font-size="11.00" fill="#000000">varchar[64]</text>
<polygon fill="none" stroke="#000000" points="10,-119.7 10,-141.7 139,-141.7 139,-119.7 10,-119.7"/>
<text text-anchor="start" x="30" y="-126.8" font-family="Helvetica,sans-Serif" font-size="11.00" fill="#000000">value_</text>
<polygon fill="none" stroke="#000000" points="139,-119.7 139,-141.7 206,-141.7 206,-119.7 139,-119.7"/>
<text text-anchor="start" x="141.9365" y="-127.4" font-family="Helvetica,sans-Serif" font-size="11.00" fill="#000000">varchar[300]</text>
<polygon fill="none" stroke="#000000" points="10,-97.7 10,-119.7 139,-119.7 139,-97.7 10,-97.7"/>
<text text-anchor="start" x="30" y="-104.8" font-family="Helvetica,sans-Serif" font-size="11.00" fill="#000000">rev_</text>
<polygon fill="none" stroke="#000000" points="139,-97.7 139,-119.7 206,-119.7 206,-97.7 139,-97.7"/>
<text text-anchor="start" x="142" y="-105.4" font-family="Helvetica,sans-Serif" font-size="11.00" fill="#000000">int4[10]</text>
<polygon fill="#ffffff" stroke="transparent" points="10,-78.7 10,-97.7 79,-97.7 79,-78.7 10,-78.7"/>
<polygon fill="none" stroke="#000000" points="10,-78.7 10,-97.7 79,-97.7 79,-78.7 10,-78.7"/>
<text text-anchor="start" x="13" y="-84.8" font-family="Helvetica,sans-Serif" font-size="11.00" fill="#000000">&lt; 0</text>
<polygon fill="#ffffff" stroke="transparent" points="79,-78.7 79,-97.7 139,-97.7 139,-78.7 79,-78.7"/>
<polygon fill="none" stroke="#000000" points="79,-78.7 79,-97.7 139,-97.7 139,-78.7 79,-78.7"/>
<text text-anchor="start" x="129.8862" y="-84.8" font-family="Helvetica,sans-Serif" font-size="11.00" fill="#000000"> &#160;</text>
<polygon fill="#ffffff" stroke="transparent" points="139,-78.7 139,-97.7 206,-97.7 206,-78.7 139,-78.7"/>
<polygon fill="none" stroke="#000000" points="139,-78.7 139,-97.7 206,-97.7 206,-78.7 139,-78.7"/>
<text text-anchor="start" x="187.4053" y="-84.8" font-family="Helvetica,sans-Serif" font-size="11.00" fill="#000000">1 &gt;</text>
<polygon fill="none" stroke="#000000" stroke-width="2" points="9,-77.7 9,-187.7 207,-187.7 207,-77.7 9,-77.7"/>
</a>
</g>
</g>
<!-- act_ru_meter_log&#45;&gt;act_ge_property -->
<g id="edge1" class="edge">
<title>act_ru_meter_log:w&#45;&gt;act_ge_property:e</title>
<path fill="none" stroke="#000000" stroke-dasharray="5,2" d="M243.0156,-152.7C230.6771,-152.7 223.1667,-152.7 206,-152.7"/>
<polygon fill="#000000" stroke="#000000" points="249.5,-152.7001 257.5,-156.3 253.5,-152.7 257.5,-152.7 257.5,-152.7 257.5,-152.7 253.5,-152.7 257.5,-149.1 249.5,-152.7001 249.5,-152.7001"/>
<ellipse fill="none" stroke="#000000" cx="246.3" cy="-152.7001" rx="3.2" ry="3.2"/>
</g>
</g>
</svg>
