<?xml version="1.0" encoding="UTF-8" standalone="no"?>
<!DOCTYPE svg PUBLIC "-//W3C//DTD SVG 1.1//EN"
 "http://www.w3.org/Graphics/SVG/1.1/DTD/svg11.dtd">
<!-- Generated by graphviz version 2.40.1 (20161225.0304)
 -->
<!-- Title: oneDegreeRelationshipsDiagram Pages: 1 -->
<svg width="707pt" height="480pt"
 viewBox="0.00 0.00 707.00 479.70" xmlns="http://www.w3.org/2000/svg" xmlns:xlink="http://www.w3.org/1999/xlink">
<g id="graph0" class="graph" transform="scale(1 1) rotate(0) translate(4 475.7)">
<title>oneDegreeRelationshipsDiagram</title>
<polygon fill="#ffffff" stroke="transparent" points="-4,4 -4,-475.7 703,-475.7 703,4 -4,4"/>
<text text-anchor="middle" x="72.4936" y="-7.3" font-family="Helvetica,sans-Serif" font-size="11.00" fill="#000000">Generated by SchemaSpy</text>
<!-- act_ru_case_execution -->
<g id="node1" class="node">
<title>act_ru_case_execution</title>
<g id="a_node1"><a xlink:href="../../tables/act_ru_case_execution.html" xlink:title="act_ru_case_execution" target="_top">
<polygon fill="#ffffff" stroke="transparent" points="305,-267.7 305,-460.7 494,-460.7 494,-267.7 305,-267.7"/>
<polygon fill="#f5f5f5" stroke="transparent" points="305.5,-437.2 305.5,-460.2 494.5,-460.2 494.5,-437.2 305.5,-437.2"/>
<polygon fill="none" stroke="#000000" points="305.5,-437.2 305.5,-460.2 494.5,-460.2 494.5,-437.2 305.5,-437.2"/>
<text text-anchor="start" x="310.5" y="-445.8" font-family="Helvetica,sans-Serif" font-weight="bold" font-size="11.00" fill="#000000">act_ru_case_execution</text>
<text text-anchor="start" x="460.0219" y="-445.3" font-family="Helvetica,sans-Serif" font-size="11.00" fill="#000000">[table]</text>
<polygon fill="none" stroke="#000000" points="305.5,-415.2 305.5,-437.2 494.5,-437.2 494.5,-415.2 305.5,-415.2"/>
<image xlink:href="../../images/primaryKeys.png" width="11px" height="12px" preserveAspectRatio="xMinYMin meet" x="310.5" y="-432.2"/>
<text text-anchor="start" x="334.5" y="-422.3" font-family="Helvetica,sans-Serif" font-size="11.00" fill="#000000">id_</text>
<polygon fill="#ffffff" stroke="transparent" points="305.5,-393.2 305.5,-415.2 494.5,-415.2 494.5,-393.2 305.5,-393.2"/>
<polygon fill="none" stroke="#000000" points="305.5,-393.2 305.5,-415.2 494.5,-415.2 494.5,-393.2 305.5,-393.2"/>
<image xlink:href="../../images/foreignKeys.png" width="11px" height="12px" preserveAspectRatio="xMinYMin meet" x="310.5" y="-410.2"/>
<text text-anchor="start" x="334.5" y="-400.3" font-family="Helvetica,sans-Serif" font-size="11.00" fill="#000000">case_inst_id_</text>
<polygon fill="#ffffff" stroke="transparent" points="305.5,-371.2 305.5,-393.2 494.5,-393.2 494.5,-371.2 305.5,-371.2"/>
<polygon fill="none" stroke="#000000" points="305.5,-371.2 305.5,-393.2 494.5,-393.2 494.5,-371.2 305.5,-371.2"/>
<text text-anchor="start" x="334.5" y="-378.3" font-family="Helvetica,sans-Serif" font-size="11.00" fill="#000000">business_key_</text>
<polygon fill="#ffffff" stroke="transparent" points="305.5,-349.2 305.5,-371.2 494.5,-371.2 494.5,-349.2 305.5,-349.2"/>
<polygon fill="none" stroke="#000000" points="305.5,-349.2 305.5,-371.2 494.5,-371.2 494.5,-349.2 305.5,-349.2"/>
<image xlink:href="../../images/foreignKeys.png" width="11px" height="12px" preserveAspectRatio="xMinYMin meet" x="310.5" y="-366.2"/>
<text text-anchor="start" x="334.5" y="-356.3" font-family="Helvetica,sans-Serif" font-size="11.00" fill="#000000">parent_id_</text>
<polygon fill="#ffffff" stroke="transparent" points="305.5,-327.2 305.5,-349.2 494.5,-349.2 494.5,-327.2 305.5,-327.2"/>
<polygon fill="none" stroke="#000000" points="305.5,-327.2 305.5,-349.2 494.5,-349.2 494.5,-327.2 305.5,-327.2"/>
<image xlink:href="../../images/foreignKeys.png" width="11px" height="12px" preserveAspectRatio="xMinYMin meet" x="310.5" y="-344.2"/>
<text text-anchor="start" x="334.5" y="-334.3" font-family="Helvetica,sans-Serif" font-size="11.00" fill="#000000">case_def_id_</text>
<polygon fill="#ffffff" stroke="transparent" points="305.5,-305.2 305.5,-327.2 494.5,-327.2 494.5,-305.2 305.5,-305.2"/>
<polygon fill="none" stroke="#000000" points="305.5,-305.2 305.5,-327.2 494.5,-327.2 494.5,-305.2 305.5,-305.2"/>
<text text-anchor="start" x="334.5" y="-312.3" font-family="Helvetica,sans-Serif" font-size="11.00" fill="#000000">tenant_id_</text>
<polygon fill="none" stroke="#000000" points="305.5,-286.2 305.5,-305.2 494.5,-305.2 494.5,-286.2 305.5,-286.2"/>
<text text-anchor="start" x="308.5" y="-292.3" font-family="Helvetica,sans-Serif" font-size="11.00" fill="#000000">...</text>
<polygon fill="#ffffff" stroke="transparent" points="305.5,-267.2 305.5,-286.2 393.5,-286.2 393.5,-267.2 305.5,-267.2"/>
<polygon fill="none" stroke="#000000" points="305.5,-267.2 305.5,-286.2 393.5,-286.2 393.5,-267.2 305.5,-267.2"/>
<text text-anchor="start" x="308.5" y="-273.3" font-family="Helvetica,sans-Serif" font-size="11.00" fill="#000000">&lt; 3</text>
<polygon fill="#ffffff" stroke="transparent" points="393.5,-267.2 393.5,-286.2 439.5,-286.2 439.5,-267.2 393.5,-267.2"/>
<polygon fill="none" stroke="#000000" points="393.5,-267.2 393.5,-286.2 439.5,-286.2 439.5,-267.2 393.5,-267.2"/>
<text text-anchor="start" x="430.3862" y="-273.3" font-family="Helvetica,sans-Serif" font-size="11.00" fill="#000000"> &#160;</text>
<polygon fill="#ffffff" stroke="transparent" points="439.5,-267.2 439.5,-286.2 494.5,-286.2 494.5,-267.2 439.5,-267.2"/>
<polygon fill="none" stroke="#000000" points="439.5,-267.2 439.5,-286.2 494.5,-286.2 494.5,-267.2 439.5,-267.2"/>
<text text-anchor="start" x="475.9053" y="-273.3" font-family="Helvetica,sans-Serif" font-size="11.00" fill="#000000">7 &gt;</text>
</a>
</g>
</g>
<!-- act_re_case_def -->
<g id="node2" class="node">
<title>act_re_case_def</title>
<g id="a_node2"><a xlink:href="../../tables/act_re_case_def.html" xlink:title="act_re_case_def" target="_top">
<polygon fill="#ffffff" stroke="transparent" points="8,-38.2 8,-326.2 256,-326.2 256,-38.2 8,-38.2"/>
<polygon fill="#f5f5f5" stroke="transparent" points="10,-301.2 10,-324.2 254,-324.2 254,-301.2 10,-301.2"/>
<polygon fill="none" stroke="#000000" points="10,-301.2 10,-324.2 254,-324.2 254,-301.2 10,-301.2"/>
<text text-anchor="start" x="15" y="-309.8" font-family="Helvetica,sans-Serif" font-weight="bold" font-size="11.00" fill="#000000">act_re_case_def</text>
<text text-anchor="start" x="219.0437" y="-309.3" font-family="Helvetica,sans-Serif" font-size="11.00" fill="#000000">[table]</text>
<polygon fill="none" stroke="#000000" points="10,-279.2 10,-301.2 181,-301.2 181,-279.2 10,-279.2"/>
<image xlink:href="../../images/primaryKeys.png" width="11px" height="12px" preserveAspectRatio="xMinYMin meet" x="15" y="-296.2"/>
<text text-anchor="start" x="30" y="-286.3" font-family="Helvetica,sans-Serif" font-size="11.00" fill="#000000">id_</text>
<polygon fill="none" stroke="#000000" points="181,-279.2 181,-301.2 254,-301.2 254,-279.2 181,-279.2"/>
<text text-anchor="start" x="184" y="-286.9" font-family="Helvetica,sans-Serif" font-size="11.00" fill="#000000">varchar[64]</text>
<polygon fill="none" stroke="#000000" points="10,-257.2 10,-279.2 181,-279.2 181,-257.2 10,-257.2"/>
<text text-anchor="start" x="30" y="-264.3" font-family="Helvetica,sans-Serif" font-size="11.00" fill="#000000">rev_</text>
<polygon fill="none" stroke="#000000" points="181,-257.2 181,-279.2 254,-279.2 254,-257.2 181,-257.2"/>
<text text-anchor="start" x="184" y="-264.9" font-family="Helvetica,sans-Serif" font-size="11.00" fill="#000000">int4[10]</text>
<polygon fill="none" stroke="#000000" points="10,-235.2 10,-257.2 181,-257.2 181,-235.2 10,-235.2"/>
<text text-anchor="start" x="30" y="-242.3" font-family="Helvetica,sans-Serif" font-size="11.00" fill="#000000">category_</text>
<polygon fill="none" stroke="#000000" points="181,-235.2 181,-257.2 254,-257.2 254,-235.2 181,-235.2"/>
<text text-anchor="start" x="184" y="-242.9" font-family="Helvetica,sans-Serif" font-size="11.00" fill="#000000">varchar[255]</text>
<polygon fill="none" stroke="#000000" points="10,-213.2 10,-235.2 181,-235.2 181,-213.2 10,-213.2"/>
<text text-anchor="start" x="30" y="-220.3" font-family="Helvetica,sans-Serif" font-size="11.00" fill="#000000">name_</text>
<polygon fill="none" stroke="#000000" points="181,-213.2 181,-235.2 254,-235.2 254,-213.2 181,-213.2"/>
<text text-anchor="start" x="184" y="-220.9" font-family="Helvetica,sans-Serif" font-size="11.00" fill="#000000">varchar[255]</text>
<polygon fill="none" stroke="#000000" points="10,-191.2 10,-213.2 181,-213.2 181,-191.2 10,-191.2"/>
<text text-anchor="start" x="30" y="-198.3" font-family="Helvetica,sans-Serif" font-size="11.00" fill="#000000">key_</text>
<polygon fill="none" stroke="#000000" points="181,-191.2 181,-213.2 254,-213.2 254,-191.2 181,-191.2"/>
<text text-anchor="start" x="184" y="-198.9" font-family="Helvetica,sans-Serif" font-size="11.00" fill="#000000">varchar[255]</text>
<polygon fill="none" stroke="#000000" points="10,-169.2 10,-191.2 181,-191.2 181,-169.2 10,-169.2"/>
<text text-anchor="start" x="30" y="-176.3" font-family="Helvetica,sans-Serif" font-size="11.00" fill="#000000">version_</text>
<polygon fill="none" stroke="#000000" points="181,-169.2 181,-191.2 254,-191.2 254,-169.2 181,-169.2"/>
<text text-anchor="start" x="184" y="-176.9" font-family="Helvetica,sans-Serif" font-size="11.00" fill="#000000">int4[10]</text>
<polygon fill="none" stroke="#000000" points="10,-147.2 10,-169.2 181,-169.2 181,-147.2 10,-147.2"/>
<text text-anchor="start" x="30" y="-154.3" font-family="Helvetica,sans-Serif" font-size="11.00" fill="#000000">deployment_id_</text>
<polygon fill="none" stroke="#000000" points="181,-147.2 181,-169.2 254,-169.2 254,-147.2 181,-147.2"/>
<text text-anchor="start" x="184" y="-154.9" font-family="Helvetica,sans-Serif" font-size="11.00" fill="#000000">varchar[64]</text>
<polygon fill="none" stroke="#000000" points="10,-125.2 10,-147.2 181,-147.2 181,-125.2 10,-125.2"/>
<text text-anchor="start" x="30" y="-132.3" font-family="Helvetica,sans-Serif" font-size="11.00" fill="#000000">resource_name_</text>
<polygon fill="none" stroke="#000000" points="181,-125.2 181,-147.2 254,-147.2 254,-125.2 181,-125.2"/>
<text text-anchor="start" x="183.8791" y="-132.9" font-family="Helvetica,sans-Serif" font-size="11.00" fill="#000000">varchar[4000]</text>
<polygon fill="none" stroke="#000000" points="10,-103.2 10,-125.2 181,-125.2 181,-103.2 10,-103.2"/>
<text text-anchor="start" x="30" y="-110.3" font-family="Helvetica,sans-Serif" font-size="11.00" fill="#000000">dgrm_resource_name_</text>
<polygon fill="none" stroke="#000000" points="181,-103.2 181,-125.2 254,-125.2 254,-103.2 181,-103.2"/>
<text text-anchor="start" x="183.8791" y="-110.9" font-family="Helvetica,sans-Serif" font-size="11.00" fill="#000000">varchar[4000]</text>
<polygon fill="#ffffff" stroke="transparent" points="10,-81.2 10,-103.2 181,-103.2 181,-81.2 10,-81.2"/>
<polygon fill="none" stroke="#000000" points="10,-81.2 10,-103.2 181,-103.2 181,-81.2 10,-81.2"/>
<text text-anchor="start" x="30" y="-88.3" font-family="Helvetica,sans-Serif" font-size="11.00" fill="#000000">tenant_id_</text>
<polygon fill="none" stroke="#000000" points="181,-81.2 181,-103.2 254,-103.2 254,-81.2 181,-81.2"/>
<text text-anchor="start" x="184" y="-88.9" font-family="Helvetica,sans-Serif" font-size="11.00" fill="#000000">varchar[64]</text>
<polygon fill="none" stroke="#000000" points="10,-59.2 10,-81.2 181,-81.2 181,-59.2 10,-59.2"/>
<text text-anchor="start" x="30" y="-66.3" font-family="Helvetica,sans-Serif" font-size="11.00" fill="#000000">history_ttl_</text>
<polygon fill="none" stroke="#000000" points="181,-59.2 181,-81.2 254,-81.2 254,-59.2 181,-59.2"/>
<text text-anchor="start" x="184" y="-66.9" font-family="Helvetica,sans-Serif" font-size="11.00" fill="#000000">int4[10]</text>
<polygon fill="#ffffff" stroke="transparent" points="10,-40.2 10,-59.2 100,-59.2 100,-40.2 10,-40.2"/>
<polygon fill="none" stroke="#000000" points="10,-40.2 10,-59.2 100,-59.2 100,-40.2 10,-40.2"/>
<text text-anchor="start" x="13" y="-46.3" font-family="Helvetica,sans-Serif" font-size="11.00" fill="#000000">&lt; 0</text>
<polygon fill="#ffffff" stroke="transparent" points="100,-40.2 100,-59.2 181,-59.2 181,-40.2 100,-40.2"/>
<polygon fill="none" stroke="#000000" points="100,-40.2 100,-59.2 181,-59.2 181,-40.2 100,-40.2"/>
<text text-anchor="start" x="171.8862" y="-46.3" font-family="Helvetica,sans-Serif" font-size="11.00" fill="#000000"> &#160;</text>
<polygon fill="#ffffff" stroke="transparent" points="181,-40.2 181,-59.2 254,-59.2 254,-40.2 181,-40.2"/>
<polygon fill="none" stroke="#000000" points="181,-40.2 181,-59.2 254,-59.2 254,-40.2 181,-40.2"/>
<text text-anchor="start" x="235.4053" y="-46.3" font-family="Helvetica,sans-Serif" font-size="11.00" fill="#000000">2 &gt;</text>
<polygon fill="none" stroke="#000000" stroke-width="2" points="9,-39.2 9,-325.2 255,-325.2 255,-39.2 9,-39.2"/>
</a>
</g>
</g>
<!-- act_ru_case_execution&#45;&gt;act_re_case_def -->
<g id="edge1" class="edge">
<title>act_ru_case_execution:w&#45;&gt;act_re_case_def:e</title>
<path fill="none" stroke="#000000" d="M291.3838,-333.4221C276.9221,-321.2811 279.178,-290.2 254,-290.2"/>
<polygon fill="#000000" stroke="#000000" points="297.9223,-335.6351 304.3458,-341.61 301.7111,-336.9176 305.5,-338.2 305.5,-338.2 305.5,-338.2 301.7111,-336.9176 306.6542,-334.79 297.9223,-335.6351 297.9223,-335.6351"/>
<ellipse fill="none" stroke="#000000" cx="294.8912" cy="-334.6092" rx="3.2" ry="3.2"/>
</g>
<!-- act_ru_task -->
<g id="node3" class="node">
<title>act_ru_task</title>
<g id="a_node3"><a xlink:href="../../tables/act_ru_task.html" xlink:title="act_ru_task" target="_top">
<polygon fill="#ffffff" stroke="transparent" points="543,-164.7 543,-467.7 691,-467.7 691,-164.7 543,-164.7"/>
<polygon fill="#f5f5f5" stroke="transparent" points="543,-444.2 543,-467.2 691,-467.2 691,-444.2 543,-444.2"/>
<polygon fill="none" stroke="#000000" points="543,-444.2 543,-467.2 691,-467.2 691,-444.2 543,-444.2"/>
<text text-anchor="start" x="548" y="-452.8" font-family="Helvetica,sans-Serif" font-weight="bold" font-size="11.00" fill="#000000">act_ru_task</text>
<text text-anchor="start" x="656.0437" y="-452.3" font-family="Helvetica,sans-Serif" font-size="11.00" fill="#000000">[table]</text>
<polygon fill="none" stroke="#000000" points="543,-422.2 543,-444.2 691,-444.2 691,-422.2 543,-422.2"/>
<image xlink:href="../../images/primaryKeys.png" width="11px" height="12px" preserveAspectRatio="xMinYMin meet" x="548" y="-439.2"/>
<text text-anchor="start" x="563" y="-429.3" font-family="Helvetica,sans-Serif" font-size="11.00" fill="#000000">id_</text>
<polygon fill="#ffffff" stroke="transparent" points="543,-400.2 543,-422.2 691,-422.2 691,-400.2 543,-400.2"/>
<polygon fill="none" stroke="#000000" points="543,-400.2 543,-422.2 691,-422.2 691,-400.2 543,-400.2"/>
<image xlink:href="../../images/foreignKeys.png" width="11px" height="12px" preserveAspectRatio="xMinYMin meet" x="548" y="-417.2"/>
<text text-anchor="start" x="563" y="-407.3" font-family="Helvetica,sans-Serif" font-size="11.00" fill="#000000">execution_id_</text>
<polygon fill="#ffffff" stroke="transparent" points="543,-378.2 543,-400.2 691,-400.2 691,-378.2 543,-378.2"/>
<polygon fill="none" stroke="#000000" points="543,-378.2 543,-400.2 691,-400.2 691,-378.2 543,-378.2"/>
<image xlink:href="../../images/foreignKeys.png" width="11px" height="12px" preserveAspectRatio="xMinYMin meet" x="548" y="-395.2"/>
<text text-anchor="start" x="563" y="-385.3" font-family="Helvetica,sans-Serif" font-size="11.00" fill="#000000">proc_inst_id_</text>
<polygon fill="#ffffff" stroke="transparent" points="543,-356.2 543,-378.2 691,-378.2 691,-356.2 543,-356.2"/>
<polygon fill="none" stroke="#000000" points="543,-356.2 543,-378.2 691,-378.2 691,-356.2 543,-356.2"/>
<image xlink:href="../../images/foreignKeys.png" width="11px" height="12px" preserveAspectRatio="xMinYMin meet" x="548" y="-373.2"/>
<text text-anchor="start" x="563" y="-363.3" font-family="Helvetica,sans-Serif" font-size="11.00" fill="#000000">proc_def_id_</text>
<polygon fill="#ffffff" stroke="transparent" points="543,-334.2 543,-356.2 691,-356.2 691,-334.2 543,-334.2"/>
<polygon fill="none" stroke="#000000" points="543,-334.2 543,-356.2 691,-356.2 691,-334.2 543,-334.2"/>
<image xlink:href="../../images/foreignKeys.png" width="11px" height="12px" preserveAspectRatio="xMinYMin meet" x="548" y="-351.2"/>
<text text-anchor="start" x="563" y="-341.3" font-family="Helvetica,sans-Serif" font-size="11.00" fill="#000000">case_execution_id_</text>
<polygon fill="#ffffff" stroke="transparent" points="543,-312.2 543,-334.2 691,-334.2 691,-312.2 543,-312.2"/>
<polygon fill="none" stroke="#000000" points="543,-312.2 543,-334.2 691,-334.2 691,-312.2 543,-312.2"/>
<image xlink:href="../../images/foreignKeys.png" width="11px" height="12px" preserveAspectRatio="xMinYMin meet" x="548" y="-329.2"/>
<text text-anchor="start" x="563" y="-319.3" font-family="Helvetica,sans-Serif" font-size="11.00" fill="#000000">case_def_id_</text>
<polygon fill="#ffffff" stroke="transparent" points="543,-290.2 543,-312.2 691,-312.2 691,-290.2 543,-290.2"/>
<polygon fill="none" stroke="#000000" points="543,-290.2 543,-312.2 691,-312.2 691,-290.2 543,-290.2"/>
<text text-anchor="start" x="563" y="-297.3" font-family="Helvetica,sans-Serif" font-size="11.00" fill="#000000">owner_</text>
<polygon fill="#ffffff" stroke="transparent" points="543,-268.2 543,-290.2 691,-290.2 691,-268.2 543,-268.2"/>
<polygon fill="none" stroke="#000000" points="543,-268.2 543,-290.2 691,-290.2 691,-268.2 543,-268.2"/>
<text text-anchor="start" x="563" y="-275.3" font-family="Helvetica,sans-Serif" font-size="11.00" fill="#000000">assignee_</text>
<polygon fill="#ffffff" stroke="transparent" points="543,-246.2 543,-268.2 691,-268.2 691,-246.2 543,-246.2"/>
<polygon fill="none" stroke="#000000" points="543,-246.2 543,-268.2 691,-268.2 691,-246.2 543,-246.2"/>
<text text-anchor="start" x="563" y="-253.3" font-family="Helvetica,sans-Serif" font-size="11.00" fill="#000000">create_time_</text>
<polygon fill="#ffffff" stroke="transparent" points="543,-224.2 543,-246.2 691,-246.2 691,-224.2 543,-224.2"/>
<polygon fill="none" stroke="#000000" points="543,-224.2 543,-246.2 691,-246.2 691,-224.2 543,-224.2"/>
<text text-anchor="start" x="563" y="-231.3" font-family="Helvetica,sans-Serif" font-size="11.00" fill="#000000">last_updated_</text>
<polygon fill="#ffffff" stroke="transparent" points="543,-202.2 543,-224.2 691,-224.2 691,-202.2 543,-202.2"/>
<polygon fill="none" stroke="#000000" points="543,-202.2 543,-224.2 691,-224.2 691,-202.2 543,-202.2"/>
<text text-anchor="start" x="563" y="-209.3" font-family="Helvetica,sans-Serif" font-size="11.00" fill="#000000">tenant_id_</text>
<polygon fill="none" stroke="#000000" points="543,-183.2 543,-202.2 691,-202.2 691,-183.2 543,-183.2"/>
<text text-anchor="start" x="546" y="-189.3" font-family="Helvetica,sans-Serif" font-size="11.00" fill="#000000">...</text>
<polygon fill="#ffffff" stroke="transparent" points="543,-164.2 543,-183.2 611,-183.2 611,-164.2 543,-164.2"/>
<polygon fill="none" stroke="#000000" points="543,-164.2 543,-183.2 611,-183.2 611,-164.2 543,-164.2"/>
<text text-anchor="start" x="546" y="-170.3" font-family="Helvetica,sans-Serif" font-size="11.00" fill="#000000">&lt; 5</text>
<polygon fill="#ffffff" stroke="transparent" points="611,-164.2 611,-183.2 646,-183.2 646,-164.2 611,-164.2"/>
<polygon fill="none" stroke="#000000" points="611,-164.2 611,-183.2 646,-183.2 646,-164.2 611,-164.2"/>
<text text-anchor="start" x="636.8862" y="-170.3" font-family="Helvetica,sans-Serif" font-size="11.00" fill="#000000"> &#160;</text>
<polygon fill="#ffffff" stroke="transparent" points="646,-164.2 646,-183.2 691,-183.2 691,-164.2 646,-164.2"/>
<polygon fill="none" stroke="#000000" points="646,-164.2 646,-183.2 691,-183.2 691,-164.2 646,-164.2"/>
<text text-anchor="start" x="672.4053" y="-170.3" font-family="Helvetica,sans-Serif" font-size="11.00" fill="#000000">1 &gt;</text>
</a>
</g>
</g>
<!-- act_ru_task&#45;&gt;act_ru_case_execution -->
<g id="edge3" class="edge">
<title>act_ru_task:w&#45;&gt;act_ru_case_execution:e</title>
<path fill="none" stroke="#000000" d="M529.1884,-349.787C509.6622,-366.922 530.3955,-426.2 494.5,-426.2"/>
<polygon fill="#000000" stroke="#000000" points="535.4078,-347.7215 544.1347,-348.6165 539.2039,-346.4608 543,-345.2 543,-345.2 543,-345.2 539.2039,-346.4608 541.8653,-341.7835 535.4078,-347.7215 535.4078,-347.7215"/>
<ellipse fill="none" stroke="#000000" cx="532.3709" cy="-348.7301" rx="3.2" ry="3.2"/>
</g>
<!-- act_ru_task&#45;&gt;act_re_case_def -->
<g id="edge2" class="edge">
<title>act_ru_task:w&#45;&gt;act_re_case_def:e</title>
<path fill="none" stroke="#000000" d="M528.9794,-318.5472C515.4652,-305.8834 526.5218,-270.8349 502,-257.2 422.3707,-212.9235 383.2748,-227.9102 297,-257.2 274.1884,-264.9444 278.0904,-290.2 254,-290.2"/>
<polygon fill="#000000" stroke="#000000" points="535.4072,-320.6803 541.8661,-326.6168 539.2036,-321.9401 543,-323.2 543,-323.2 543,-323.2 539.2036,-321.9401 544.1339,-319.7832 535.4072,-320.6803 535.4072,-320.6803"/>
<ellipse fill="none" stroke="#000000" cx="532.37" cy="-319.6724" rx="3.2" ry="3.2"/>
</g>
</g>
</svg>
