<?xml version="1.0" encoding="UTF-8" standalone="no"?>
<!DOCTYPE svg PUBLIC "-//W3C//DTD SVG 1.1//EN"
 "http://www.w3.org/Graphics/SVG/1.1/DTD/svg11.dtd">
<!-- Generated by graphviz version 2.40.1 (20161225.0304)
 -->
<!-- Title: oneDegreeRelationshipsDiagram Pages: 1 -->
<svg width="470pt" height="377pt"
 viewBox="0.00 0.00 470.00 376.70" xmlns="http://www.w3.org/2000/svg" xmlns:xlink="http://www.w3.org/1999/xlink">
<g id="graph0" class="graph" transform="scale(1 1) rotate(0) translate(4 372.7)">
<title>oneDegreeRelationshipsDiagram</title>
<polygon fill="#ffffff" stroke="transparent" points="-4,4 -4,-372.7 466,-372.7 466,4 -4,4"/>
<text text-anchor="middle" x="72.4936" y="-7.3" font-family="Helvetica,sans-Serif" font-size="11.00" fill="#000000">Generated by SchemaSpy</text>
<!-- act_ru_event_subscr -->
<g id="node1" class="node">
<title>act_ru_event_subscr</title>
<g id="a_node1"><a xlink:href="../../tables/act_ru_event_subscr.html" xlink:title="act_ru_event_subscr" target="_top">
<polygon fill="#ffffff" stroke="transparent" points="209,-98.7 209,-364.7 454,-364.7 454,-98.7 209,-98.7"/>
<polygon fill="#f5f5f5" stroke="transparent" points="211.5,-339.7 211.5,-362.7 452.5,-362.7 452.5,-339.7 211.5,-339.7"/>
<polygon fill="none" stroke="#000000" points="211.5,-339.7 211.5,-362.7 452.5,-362.7 452.5,-339.7 211.5,-339.7"/>
<text text-anchor="start" x="216.5" y="-348.3" font-family="Helvetica,sans-Serif" font-weight="bold" font-size="11.00" fill="#000000">act_ru_event_subscr</text>
<text text-anchor="start" x="417.5437" y="-347.8" font-family="Helvetica,sans-Serif" font-size="11.00" fill="#000000">[table]</text>
<polygon fill="none" stroke="#000000" points="211.5,-317.7 211.5,-339.7 368.5,-339.7 368.5,-317.7 211.5,-317.7"/>
<image xlink:href="../../images/primaryKeys.png" width="11px" height="12px" preserveAspectRatio="xMinYMin meet" x="216.5" y="-334.7"/>
<text text-anchor="start" x="231.5" y="-324.8" font-family="Helvetica,sans-Serif" font-size="11.00" fill="#000000">id_</text>
<polygon fill="none" stroke="#000000" points="368.5,-317.7 368.5,-339.7 452.5,-339.7 452.5,-317.7 368.5,-317.7"/>
<text text-anchor="start" x="371.5" y="-325.4" font-family="Helvetica,sans-Serif" font-size="11.00" fill="#000000">varchar[64]</text>
<polygon fill="none" stroke="#000000" points="211.5,-295.7 211.5,-317.7 368.5,-317.7 368.5,-295.7 211.5,-295.7"/>
<text text-anchor="start" x="231.5" y="-302.8" font-family="Helvetica,sans-Serif" font-size="11.00" fill="#000000">rev_</text>
<polygon fill="none" stroke="#000000" points="368.5,-295.7 368.5,-317.7 452.5,-317.7 452.5,-295.7 368.5,-295.7"/>
<text text-anchor="start" x="371.5" y="-303.4" font-family="Helvetica,sans-Serif" font-size="11.00" fill="#000000">int4[10]</text>
<polygon fill="none" stroke="#000000" points="211.5,-273.7 211.5,-295.7 368.5,-295.7 368.5,-273.7 211.5,-273.7"/>
<text text-anchor="start" x="231.5" y="-280.8" font-family="Helvetica,sans-Serif" font-size="11.00" fill="#000000">event_type_</text>
<polygon fill="none" stroke="#000000" points="368.5,-273.7 368.5,-295.7 452.5,-295.7 452.5,-273.7 368.5,-273.7"/>
<text text-anchor="start" x="371.5" y="-281.4" font-family="Helvetica,sans-Serif" font-size="11.00" fill="#000000">varchar[255]</text>
<polygon fill="#ffffff" stroke="transparent" points="211.5,-251.7 211.5,-273.7 368.5,-273.7 368.5,-251.7 211.5,-251.7"/>
<polygon fill="none" stroke="#000000" points="211.5,-251.7 211.5,-273.7 368.5,-273.7 368.5,-251.7 211.5,-251.7"/>
<text text-anchor="start" x="231.5" y="-258.8" font-family="Helvetica,sans-Serif" font-size="11.00" fill="#000000">event_name_</text>
<polygon fill="none" stroke="#000000" points="368.5,-251.7 368.5,-273.7 452.5,-273.7 452.5,-251.7 368.5,-251.7"/>
<text text-anchor="start" x="371.5" y="-259.4" font-family="Helvetica,sans-Serif" font-size="11.00" fill="#000000">varchar[255]</text>
<polygon fill="#ffffff" stroke="transparent" points="211.5,-229.7 211.5,-251.7 368.5,-251.7 368.5,-229.7 211.5,-229.7"/>
<polygon fill="none" stroke="#000000" points="211.5,-229.7 211.5,-251.7 368.5,-251.7 368.5,-229.7 211.5,-229.7"/>
<image xlink:href="../../images/foreignKeys.png" width="11px" height="12px" preserveAspectRatio="xMinYMin meet" x="216.5" y="-246.7"/>
<text text-anchor="start" x="231.5" y="-236.8" font-family="Helvetica,sans-Serif" font-size="11.00" fill="#000000">execution_id_</text>
<polygon fill="none" stroke="#000000" points="368.5,-229.7 368.5,-251.7 452.5,-251.7 452.5,-229.7 368.5,-229.7"/>
<text text-anchor="start" x="371.5" y="-237.4" font-family="Helvetica,sans-Serif" font-size="11.00" fill="#000000">varchar[64]</text>
<polygon fill="none" stroke="#000000" points="211.5,-207.7 211.5,-229.7 368.5,-229.7 368.5,-207.7 211.5,-207.7"/>
<text text-anchor="start" x="231.5" y="-214.8" font-family="Helvetica,sans-Serif" font-size="11.00" fill="#000000">proc_inst_id_</text>
<polygon fill="none" stroke="#000000" points="368.5,-207.7 368.5,-229.7 452.5,-229.7 452.5,-207.7 368.5,-207.7"/>
<text text-anchor="start" x="371.5" y="-215.4" font-family="Helvetica,sans-Serif" font-size="11.00" fill="#000000">varchar[64]</text>
<polygon fill="none" stroke="#000000" points="211.5,-185.7 211.5,-207.7 368.5,-207.7 368.5,-185.7 211.5,-185.7"/>
<text text-anchor="start" x="231.5" y="-192.8" font-family="Helvetica,sans-Serif" font-size="11.00" fill="#000000">activity_id_</text>
<polygon fill="none" stroke="#000000" points="368.5,-185.7 368.5,-207.7 452.5,-207.7 452.5,-185.7 368.5,-185.7"/>
<text text-anchor="start" x="371.5" y="-193.4" font-family="Helvetica,sans-Serif" font-size="11.00" fill="#000000">varchar[255]</text>
<polygon fill="#ffffff" stroke="transparent" points="211.5,-163.7 211.5,-185.7 368.5,-185.7 368.5,-163.7 211.5,-163.7"/>
<polygon fill="none" stroke="#000000" points="211.5,-163.7 211.5,-185.7 368.5,-185.7 368.5,-163.7 211.5,-163.7"/>
<text text-anchor="start" x="231.5" y="-170.8" font-family="Helvetica,sans-Serif" font-size="11.00" fill="#000000">configuration_</text>
<polygon fill="none" stroke="#000000" points="368.5,-163.7 368.5,-185.7 452.5,-185.7 452.5,-163.7 368.5,-163.7"/>
<text text-anchor="start" x="371.5" y="-171.4" font-family="Helvetica,sans-Serif" font-size="11.00" fill="#000000">varchar[255]</text>
<polygon fill="none" stroke="#000000" points="211.5,-141.7 211.5,-163.7 368.5,-163.7 368.5,-141.7 211.5,-141.7"/>
<text text-anchor="start" x="231.5" y="-148.8" font-family="Helvetica,sans-Serif" font-size="11.00" fill="#000000">created_</text>
<polygon fill="none" stroke="#000000" points="368.5,-141.7 368.5,-163.7 452.5,-163.7 452.5,-141.7 368.5,-141.7"/>
<text text-anchor="start" x="371.3807" y="-149.4" font-family="Helvetica,sans-Serif" font-size="11.00" fill="#000000">timestamp[29,6]</text>
<polygon fill="#ffffff" stroke="transparent" points="211.5,-119.7 211.5,-141.7 368.5,-141.7 368.5,-119.7 211.5,-119.7"/>
<polygon fill="none" stroke="#000000" points="211.5,-119.7 211.5,-141.7 368.5,-141.7 368.5,-119.7 211.5,-119.7"/>
<text text-anchor="start" x="231.5" y="-126.8" font-family="Helvetica,sans-Serif" font-size="11.00" fill="#000000">tenant_id_</text>
<polygon fill="none" stroke="#000000" points="368.5,-119.7 368.5,-141.7 452.5,-141.7 452.5,-119.7 368.5,-119.7"/>
<text text-anchor="start" x="371.5" y="-127.4" font-family="Helvetica,sans-Serif" font-size="11.00" fill="#000000">varchar[64]</text>
<polygon fill="#ffffff" stroke="transparent" points="211.5,-100.7 211.5,-119.7 294.5,-119.7 294.5,-100.7 211.5,-100.7"/>
<polygon fill="none" stroke="#000000" points="211.5,-100.7 211.5,-119.7 294.5,-119.7 294.5,-100.7 211.5,-100.7"/>
<text text-anchor="start" x="214.5" y="-106.8" font-family="Helvetica,sans-Serif" font-size="11.00" fill="#000000">&lt; 1</text>
<polygon fill="#ffffff" stroke="transparent" points="294.5,-100.7 294.5,-119.7 368.5,-119.7 368.5,-100.7 294.5,-100.7"/>
<polygon fill="none" stroke="#000000" points="294.5,-100.7 294.5,-119.7 368.5,-119.7 368.5,-100.7 294.5,-100.7"/>
<text text-anchor="start" x="359.3862" y="-106.8" font-family="Helvetica,sans-Serif" font-size="11.00" fill="#000000"> &#160;</text>
<polygon fill="#ffffff" stroke="transparent" points="368.5,-100.7 368.5,-119.7 452.5,-119.7 452.5,-100.7 368.5,-100.7"/>
<polygon fill="none" stroke="#000000" points="368.5,-100.7 368.5,-119.7 452.5,-119.7 452.5,-100.7 368.5,-100.7"/>
<text text-anchor="start" x="433.9053" y="-106.8" font-family="Helvetica,sans-Serif" font-size="11.00" fill="#000000">0 &gt;</text>
<polygon fill="none" stroke="#000000" stroke-width="2" points="210,-99.7 210,-363.7 453,-363.7 453,-99.7 210,-99.7"/>
</a>
</g>
</g>
<!-- act_ru_execution -->
<g id="node2" class="node">
<title>act_ru_execution</title>
<g id="a_node2"><a xlink:href="../../tables/act_ru_execution.html" xlink:title="act_ru_execution" target="_top">
<polygon fill="#ffffff" stroke="transparent" points="8,-38.2 8,-275.2 160,-275.2 160,-38.2 8,-38.2"/>
<polygon fill="#f5f5f5" stroke="transparent" points="8,-251.7 8,-274.7 160,-274.7 160,-251.7 8,-251.7"/>
<polygon fill="none" stroke="#000000" points="8,-251.7 8,-274.7 160,-274.7 160,-251.7 8,-251.7"/>
<text text-anchor="start" x="13" y="-260.3" font-family="Helvetica,sans-Serif" font-weight="bold" font-size="11.00" fill="#000000">act_ru_execution</text>
<text text-anchor="start" x="125.5219" y="-259.8" font-family="Helvetica,sans-Serif" font-size="11.00" fill="#000000">[table]</text>
<polygon fill="none" stroke="#000000" points="8,-229.7 8,-251.7 160,-251.7 160,-229.7 8,-229.7"/>
<image xlink:href="../../images/primaryKeys.png" width="11px" height="12px" preserveAspectRatio="xMinYMin meet" x="13" y="-246.7"/>
<text text-anchor="start" x="30" y="-236.8" font-family="Helvetica,sans-Serif" font-size="11.00" fill="#000000">id_</text>
<polygon fill="#ffffff" stroke="transparent" points="8,-207.7 8,-229.7 160,-229.7 160,-207.7 8,-207.7"/>
<polygon fill="none" stroke="#000000" points="8,-207.7 8,-229.7 160,-229.7 160,-207.7 8,-207.7"/>
<text text-anchor="start" x="30" y="-214.8" font-family="Helvetica,sans-Serif" font-size="11.00" fill="#000000">root_proc_inst_id_</text>
<polygon fill="#ffffff" stroke="transparent" points="8,-185.7 8,-207.7 160,-207.7 160,-185.7 8,-185.7"/>
<polygon fill="none" stroke="#000000" points="8,-185.7 8,-207.7 160,-207.7 160,-185.7 8,-185.7"/>
<image xlink:href="../../images/foreignKeys.png" width="11px" height="12px" preserveAspectRatio="xMinYMin meet" x="13" y="-202.7"/>
<text text-anchor="start" x="30" y="-192.8" font-family="Helvetica,sans-Serif" font-size="11.00" fill="#000000">proc_inst_id_</text>
<polygon fill="#ffffff" stroke="transparent" points="8,-163.7 8,-185.7 160,-185.7 160,-163.7 8,-163.7"/>
<polygon fill="none" stroke="#000000" points="8,-163.7 8,-185.7 160,-185.7 160,-163.7 8,-163.7"/>
<text text-anchor="start" x="30" y="-170.8" font-family="Helvetica,sans-Serif" font-size="11.00" fill="#000000">business_key_</text>
<polygon fill="#ffffff" stroke="transparent" points="8,-141.7 8,-163.7 160,-163.7 160,-141.7 8,-141.7"/>
<polygon fill="none" stroke="#000000" points="8,-141.7 8,-163.7 160,-163.7 160,-141.7 8,-141.7"/>
<image xlink:href="../../images/foreignKeys.png" width="11px" height="12px" preserveAspectRatio="xMinYMin meet" x="13" y="-158.7"/>
<text text-anchor="start" x="30" y="-148.8" font-family="Helvetica,sans-Serif" font-size="11.00" fill="#000000">parent_id_</text>
<polygon fill="#ffffff" stroke="transparent" points="8,-119.7 8,-141.7 160,-141.7 160,-119.7 8,-119.7"/>
<polygon fill="none" stroke="#000000" points="8,-119.7 8,-141.7 160,-141.7 160,-119.7 8,-119.7"/>
<image xlink:href="../../images/foreignKeys.png" width="11px" height="12px" preserveAspectRatio="xMinYMin meet" x="13" y="-136.7"/>
<text text-anchor="start" x="30" y="-126.8" font-family="Helvetica,sans-Serif" font-size="11.00" fill="#000000">proc_def_id_</text>
<polygon fill="#ffffff" stroke="transparent" points="8,-97.7 8,-119.7 160,-119.7 160,-97.7 8,-97.7"/>
<polygon fill="none" stroke="#000000" points="8,-97.7 8,-119.7 160,-119.7 160,-97.7 8,-97.7"/>
<image xlink:href="../../images/foreignKeys.png" width="11px" height="12px" preserveAspectRatio="xMinYMin meet" x="13" y="-114.7"/>
<text text-anchor="start" x="30" y="-104.8" font-family="Helvetica,sans-Serif" font-size="11.00" fill="#000000">super_exec_</text>
<polygon fill="#ffffff" stroke="transparent" points="8,-75.7 8,-97.7 160,-97.7 160,-75.7 8,-75.7"/>
<polygon fill="none" stroke="#000000" points="8,-75.7 8,-97.7 160,-97.7 160,-75.7 8,-75.7"/>
<text text-anchor="start" x="30" y="-82.8" font-family="Helvetica,sans-Serif" font-size="11.00" fill="#000000">tenant_id_</text>
<polygon fill="none" stroke="#000000" points="8,-56.7 8,-75.7 160,-75.7 160,-56.7 8,-56.7"/>
<text text-anchor="start" x="11" y="-62.8" font-family="Helvetica,sans-Serif" font-size="11.00" fill="#000000">...</text>
<polygon fill="#ffffff" stroke="transparent" points="8,-37.7 8,-56.7 75,-56.7 75,-37.7 8,-37.7"/>
<polygon fill="none" stroke="#000000" points="8,-37.7 8,-56.7 75,-56.7 75,-37.7 8,-37.7"/>
<text text-anchor="start" x="11" y="-43.8" font-family="Helvetica,sans-Serif" font-size="11.00" fill="#000000">&lt; 4</text>
<polygon fill="#ffffff" stroke="transparent" points="75,-37.7 75,-56.7 110,-56.7 110,-37.7 75,-37.7"/>
<polygon fill="none" stroke="#000000" points="75,-37.7 75,-56.7 110,-56.7 110,-37.7 75,-37.7"/>
<text text-anchor="start" x="100.8862" y="-43.8" font-family="Helvetica,sans-Serif" font-size="11.00" fill="#000000"> &#160;</text>
<polygon fill="#ffffff" stroke="transparent" points="110,-37.7 110,-56.7 160,-56.7 160,-37.7 110,-37.7"/>
<polygon fill="none" stroke="#000000" points="110,-37.7 110,-56.7 160,-56.7 160,-37.7 110,-37.7"/>
<text text-anchor="start" x="135.2904" y="-43.8" font-family="Helvetica,sans-Serif" font-size="11.00" fill="#000000">11 &gt;</text>
</a>
</g>
</g>
<!-- act_ru_event_subscr&#45;&gt;act_ru_execution -->
<g id="edge1" class="edge">
<title>act_ru_event_subscr:w&#45;&gt;act_ru_execution:e</title>
<path fill="none" stroke="#000000" d="M197.0156,-240.7C184.6771,-240.7 177.1667,-240.7 160,-240.7"/>
<polygon fill="#000000" stroke="#000000" points="203.5,-240.7001 211.5,-244.3 207.5,-240.7 211.5,-240.7 211.5,-240.7 211.5,-240.7 207.5,-240.7 211.5,-237.1 203.5,-240.7001 203.5,-240.7001"/>
<ellipse fill="none" stroke="#000000" cx="200.3" cy="-240.7001" rx="3.2" ry="3.2"/>
</g>
</g>
</svg>
