<?xml version="1.0" encoding="UTF-8" standalone="no"?>
<!DOCTYPE svg PUBLIC "-//W3C//DTD SVG 1.1//EN"
 "http://www.w3.org/Graphics/SVG/1.1/DTD/svg11.dtd">
<!-- Generated by graphviz version 2.40.1 (20161225.0304)
 -->
<!-- Title: twoDegreesRelationshipsDiagram Pages: 1 -->
<svg width="441pt" height="355pt"
 viewBox="0.00 0.00 441.00 355.20" xmlns="http://www.w3.org/2000/svg" xmlns:xlink="http://www.w3.org/1999/xlink">
<g id="graph0" class="graph" transform="scale(1 1) rotate(0) translate(4 351.2)">
<title>twoDegreesRelationshipsDiagram</title>
<polygon fill="#ffffff" stroke="transparent" points="-4,4 -4,-351.2 437,-351.2 437,4 -4,4"/>
<text text-anchor="middle" x="72.4936" y="-7.3" font-family="Helvetica,sans-Serif" font-size="11.00" fill="#000000">Generated by SchemaSpy</text>
<!-- act_id_membership -->
<g id="node1" class="node">
<title>act_id_membership</title>
<g id="a_node1"><a xlink:href="../../tables/act_id_membership.html" xlink:title="act_id_membership" target="_top">
<polygon fill="#ffffff" stroke="transparent" points="245.5,-106.2 245.5,-192.2 413.5,-192.2 413.5,-106.2 245.5,-106.2"/>
<polygon fill="#f5f5f5" stroke="transparent" points="245.5,-169.2 245.5,-192.2 413.5,-192.2 413.5,-169.2 245.5,-169.2"/>
<polygon fill="none" stroke="#000000" points="245.5,-169.2 245.5,-192.2 413.5,-192.2 413.5,-169.2 245.5,-169.2"/>
<text text-anchor="start" x="250.5" y="-177.8" font-family="Helvetica,sans-Serif" font-weight="bold" font-size="11.00" fill="#000000">act_id_membership</text>
<text text-anchor="start" x="379.0219" y="-177.3" font-family="Helvetica,sans-Serif" font-size="11.00" fill="#000000">[table]</text>
<polygon fill="none" stroke="#000000" points="245.5,-147.2 245.5,-169.2 413.5,-169.2 413.5,-147.2 245.5,-147.2"/>
<image xlink:href="../../images/primaryKeys.png" width="11px" height="12px" preserveAspectRatio="xMinYMin meet" x="250.5" y="-164.2"/>
<text text-anchor="start" x="274.5" y="-154.3" font-family="Helvetica,sans-Serif" font-size="11.00" fill="#000000">user_id_</text>
<polygon fill="none" stroke="#000000" points="245.5,-125.2 245.5,-147.2 413.5,-147.2 413.5,-125.2 245.5,-125.2"/>
<image xlink:href="../../images/primaryKeys.png" width="11px" height="12px" preserveAspectRatio="xMinYMin meet" x="250.5" y="-142.2"/>
<text text-anchor="start" x="274.5" y="-132.3" font-family="Helvetica,sans-Serif" font-size="11.00" fill="#000000">group_id_</text>
<polygon fill="#ffffff" stroke="transparent" points="245.5,-106.2 245.5,-125.2 327.5,-125.2 327.5,-106.2 245.5,-106.2"/>
<polygon fill="none" stroke="#000000" points="245.5,-106.2 245.5,-125.2 327.5,-125.2 327.5,-106.2 245.5,-106.2"/>
<text text-anchor="start" x="248.5" y="-112.3" font-family="Helvetica,sans-Serif" font-size="11.00" fill="#000000">&lt; 2</text>
<polygon fill="#ffffff" stroke="transparent" points="327.5,-106.2 327.5,-125.2 370.5,-125.2 370.5,-106.2 327.5,-106.2"/>
<polygon fill="none" stroke="#000000" points="327.5,-106.2 327.5,-125.2 370.5,-125.2 370.5,-106.2 327.5,-106.2"/>
<text text-anchor="start" x="361.3862" y="-112.3" font-family="Helvetica,sans-Serif" font-size="11.00" fill="#000000"> &#160;</text>
<polygon fill="#ffffff" stroke="transparent" points="370.5,-106.2 370.5,-125.2 413.5,-125.2 413.5,-106.2 370.5,-106.2"/>
<polygon fill="none" stroke="#000000" points="370.5,-106.2 370.5,-125.2 413.5,-125.2 413.5,-106.2 370.5,-106.2"/>
<text text-anchor="start" x="404.3862" y="-112.3" font-family="Helvetica,sans-Serif" font-size="11.00" fill="#000000"> &#160;</text>
</a>
</g>
</g>
<!-- act_id_group -->
<g id="node2" class="node">
<title>act_id_group</title>
<g id="a_node2"><a xlink:href="../../tables/act_id_group.html" xlink:title="act_id_group" target="_top">
<polygon fill="#ffffff" stroke="transparent" points="8,-38.2 8,-172.2 185,-172.2 185,-38.2 8,-38.2"/>
<polygon fill="#f5f5f5" stroke="transparent" points="10.5,-147.2 10.5,-170.2 183.5,-170.2 183.5,-147.2 10.5,-147.2"/>
<polygon fill="none" stroke="#000000" points="10.5,-147.2 10.5,-170.2 183.5,-170.2 183.5,-147.2 10.5,-147.2"/>
<text text-anchor="start" x="15.5" y="-155.8" font-family="Helvetica,sans-Serif" font-weight="bold" font-size="11.00" fill="#000000">act_id_group</text>
<text text-anchor="start" x="148.5437" y="-155.3" font-family="Helvetica,sans-Serif" font-size="11.00" fill="#000000">[table]</text>
<polygon fill="none" stroke="#000000" points="10.5,-125.2 10.5,-147.2 116.5,-147.2 116.5,-125.2 10.5,-125.2"/>
<image xlink:href="../../images/primaryKeys.png" width="11px" height="12px" preserveAspectRatio="xMinYMin meet" x="15.5" y="-142.2"/>
<text text-anchor="start" x="30.5" y="-132.3" font-family="Helvetica,sans-Serif" font-size="11.00" fill="#000000">id_</text>
<polygon fill="none" stroke="#000000" points="116.5,-125.2 116.5,-147.2 183.5,-147.2 183.5,-125.2 116.5,-125.2"/>
<text text-anchor="start" x="119.5" y="-132.9" font-family="Helvetica,sans-Serif" font-size="11.00" fill="#000000">varchar[64]</text>
<polygon fill="none" stroke="#000000" points="10.5,-103.2 10.5,-125.2 116.5,-125.2 116.5,-103.2 10.5,-103.2"/>
<text text-anchor="start" x="30.5" y="-110.3" font-family="Helvetica,sans-Serif" font-size="11.00" fill="#000000">rev_</text>
<polygon fill="none" stroke="#000000" points="116.5,-103.2 116.5,-125.2 183.5,-125.2 183.5,-103.2 116.5,-103.2"/>
<text text-anchor="start" x="119.5" y="-110.9" font-family="Helvetica,sans-Serif" font-size="11.00" fill="#000000">int4[10]</text>
<polygon fill="none" stroke="#000000" points="10.5,-81.2 10.5,-103.2 116.5,-103.2 116.5,-81.2 10.5,-81.2"/>
<text text-anchor="start" x="30.5" y="-88.3" font-family="Helvetica,sans-Serif" font-size="11.00" fill="#000000">name_</text>
<polygon fill="none" stroke="#000000" points="116.5,-81.2 116.5,-103.2 183.5,-103.2 183.5,-81.2 116.5,-81.2"/>
<text text-anchor="start" x="119.4365" y="-88.9" font-family="Helvetica,sans-Serif" font-size="11.00" fill="#000000">varchar[255]</text>
<polygon fill="none" stroke="#000000" points="10.5,-59.2 10.5,-81.2 116.5,-81.2 116.5,-59.2 10.5,-59.2"/>
<text text-anchor="start" x="30.5" y="-66.3" font-family="Helvetica,sans-Serif" font-size="11.00" fill="#000000">type_</text>
<polygon fill="none" stroke="#000000" points="116.5,-59.2 116.5,-81.2 183.5,-81.2 183.5,-59.2 116.5,-59.2"/>
<text text-anchor="start" x="119.4365" y="-66.9" font-family="Helvetica,sans-Serif" font-size="11.00" fill="#000000">varchar[255]</text>
<polygon fill="#ffffff" stroke="transparent" points="10.5,-40.2 10.5,-59.2 67.5,-59.2 67.5,-40.2 10.5,-40.2"/>
<polygon fill="none" stroke="#000000" points="10.5,-40.2 10.5,-59.2 67.5,-59.2 67.5,-40.2 10.5,-40.2"/>
<text text-anchor="start" x="13.5" y="-46.3" font-family="Helvetica,sans-Serif" font-size="11.00" fill="#000000">&lt; 0</text>
<polygon fill="#ffffff" stroke="transparent" points="67.5,-40.2 67.5,-59.2 116.5,-59.2 116.5,-40.2 67.5,-40.2"/>
<polygon fill="none" stroke="#000000" points="67.5,-40.2 67.5,-59.2 116.5,-59.2 116.5,-40.2 67.5,-40.2"/>
<text text-anchor="start" x="107.3862" y="-46.3" font-family="Helvetica,sans-Serif" font-size="11.00" fill="#000000"> &#160;</text>
<polygon fill="#ffffff" stroke="transparent" points="116.5,-40.2 116.5,-59.2 183.5,-59.2 183.5,-40.2 116.5,-40.2"/>
<polygon fill="none" stroke="#000000" points="116.5,-40.2 116.5,-59.2 183.5,-59.2 183.5,-40.2 116.5,-40.2"/>
<text text-anchor="start" x="164.9053" y="-46.3" font-family="Helvetica,sans-Serif" font-size="11.00" fill="#000000">2 &gt;</text>
<polygon fill="none" stroke="#000000" stroke-width="2" points="9,-39.2 9,-171.2 184,-171.2 184,-39.2 9,-39.2"/>
</a>
</g>
</g>
<!-- act_id_membership&#45;&gt;act_id_group -->
<g id="edge1" class="edge">
<title>act_id_membership:w&#45;&gt;act_id_group:e</title>
<path fill="none" stroke="#000000" d="M230.92,-136.2C214.2931,-136.2 205.4583,-136.2 183.5,-136.2"/>
<polygon fill="#000000" stroke="#000000" points="237.5,-136.2001 245.5,-139.8 241.5,-136.2 245.5,-136.2 245.5,-136.2 245.5,-136.2 241.5,-136.2 245.5,-132.6 237.5,-136.2001 237.5,-136.2001"/>
<ellipse fill="none" stroke="#000000" cx="234.3" cy="-136.2001" rx="3.2" ry="3.2"/>
</g>
<!-- act_id_user -->
<g id="node3" class="node">
<title>act_id_user</title>
<g id="a_node3"><a xlink:href="../../tables/act_id_user.html" xlink:title="act_id_user" target="_top">
<polygon fill="#ffffff" stroke="transparent" points="39.5,-193.7 39.5,-254.7 153.5,-254.7 153.5,-193.7 39.5,-193.7"/>
<polygon fill="#f5f5f5" stroke="transparent" points="39.5,-231.2 39.5,-254.2 153.5,-254.2 153.5,-231.2 39.5,-231.2"/>
<polygon fill="none" stroke="#000000" points="39.5,-231.2 39.5,-254.2 153.5,-254.2 153.5,-231.2 39.5,-231.2"/>
<text text-anchor="start" x="44.5" y="-239.8" font-family="Helvetica,sans-Serif" font-weight="bold" font-size="11.00" fill="#000000">act_id_user</text>
<text text-anchor="start" x="119.0219" y="-239.3" font-family="Helvetica,sans-Serif" font-size="11.00" fill="#000000">[table]</text>
<polygon fill="none" stroke="#000000" points="39.5,-212.2 39.5,-231.2 153.5,-231.2 153.5,-212.2 39.5,-212.2"/>
<text text-anchor="start" x="42.5" y="-218.3" font-family="Helvetica,sans-Serif" font-size="11.00" fill="#000000">...</text>
<polygon fill="#ffffff" stroke="transparent" points="39.5,-193.2 39.5,-212.2 85.5,-212.2 85.5,-193.2 39.5,-193.2"/>
<polygon fill="none" stroke="#000000" points="39.5,-193.2 39.5,-212.2 85.5,-212.2 85.5,-193.2 39.5,-193.2"/>
<text text-anchor="start" x="42.5" y="-199.3" font-family="Helvetica,sans-Serif" font-size="11.00" fill="#000000"> &#160;</text>
<polygon fill="#ffffff" stroke="transparent" points="85.5,-193.2 85.5,-212.2 114.5,-212.2 114.5,-193.2 85.5,-193.2"/>
<polygon fill="none" stroke="#000000" points="85.5,-193.2 85.5,-212.2 114.5,-212.2 114.5,-193.2 85.5,-193.2"/>
<text text-anchor="start" x="105.3862" y="-199.3" font-family="Helvetica,sans-Serif" font-size="11.00" fill="#000000"> &#160;</text>
<polygon fill="#ffffff" stroke="transparent" points="114.5,-193.2 114.5,-212.2 153.5,-212.2 153.5,-193.2 114.5,-193.2"/>
<polygon fill="none" stroke="#000000" points="114.5,-193.2 114.5,-212.2 153.5,-212.2 153.5,-193.2 114.5,-193.2"/>
<text text-anchor="start" x="134.9053" y="-199.3" font-family="Helvetica,sans-Serif" font-size="11.00" fill="#000000">2 &gt;</text>
</a>
</g>
</g>
<!-- act_id_membership&#45;&gt;act_id_user -->
<g id="edge2" class="edge">
<title>act_id_membership:w&#45;&gt;act_id_user:e</title>
<path fill="none" stroke="#000000" d="M231.1246,-160.2961C196.8212,-171.2276 197.6367,-221.2 153.5,-221.2"/>
<polygon fill="#000000" stroke="#000000" points="237.5837,-159.3543 246.0195,-161.7623 241.5419,-158.7772 245.5,-158.2 245.5,-158.2 245.5,-158.2 241.5419,-158.7772 244.9805,-154.6377 237.5837,-159.3543 237.5837,-159.3543"/>
<ellipse fill="none" stroke="#000000" cx="234.4172" cy="-159.8161" rx="3.2" ry="3.2"/>
</g>
<!-- act_id_tenant_member -->
<g id="node4" class="node">
<title>act_id_tenant_member</title>
<g id="a_node4"><a xlink:href="../../tables/act_id_tenant_member.html" xlink:title="act_id_tenant_member" target="_top">
<polygon fill="#ffffff" stroke="transparent" points="234,-213.2 234,-343.2 425,-343.2 425,-213.2 234,-213.2"/>
<polygon fill="#f5f5f5" stroke="transparent" points="234.5,-320.2 234.5,-343.2 425.5,-343.2 425.5,-320.2 234.5,-320.2"/>
<polygon fill="none" stroke="#000000" points="234.5,-320.2 234.5,-343.2 425.5,-343.2 425.5,-320.2 234.5,-320.2"/>
<text text-anchor="start" x="239.5" y="-328.8" font-family="Helvetica,sans-Serif" font-weight="bold" font-size="11.00" fill="#000000">act_id_tenant_member</text>
<text text-anchor="start" x="391.0219" y="-328.3" font-family="Helvetica,sans-Serif" font-size="11.00" fill="#000000">[table]</text>
<polygon fill="none" stroke="#000000" points="234.5,-298.2 234.5,-320.2 425.5,-320.2 425.5,-298.2 234.5,-298.2"/>
<image xlink:href="../../images/primaryKeys.png" width="11px" height="12px" preserveAspectRatio="xMinYMin meet" x="239.5" y="-315.2"/>
<text text-anchor="start" x="263.5" y="-305.3" font-family="Helvetica,sans-Serif" font-size="11.00" fill="#000000">id_</text>
<polygon fill="#ffffff" stroke="transparent" points="234.5,-276.2 234.5,-298.2 425.5,-298.2 425.5,-276.2 234.5,-276.2"/>
<polygon fill="none" stroke="#000000" points="234.5,-276.2 234.5,-298.2 425.5,-298.2 425.5,-276.2 234.5,-276.2"/>
<image xlink:href="../../images/foreignKeys.png" width="11px" height="12px" preserveAspectRatio="xMinYMin meet" x="239.5" y="-293.2"/>
<text text-anchor="start" x="263.5" y="-283.3" font-family="Helvetica,sans-Serif" font-size="11.00" fill="#000000">tenant_id_</text>
<polygon fill="#ffffff" stroke="transparent" points="234.5,-254.2 234.5,-276.2 425.5,-276.2 425.5,-254.2 234.5,-254.2"/>
<polygon fill="none" stroke="#000000" points="234.5,-254.2 234.5,-276.2 425.5,-276.2 425.5,-254.2 234.5,-254.2"/>
<image xlink:href="../../images/foreignKeys.png" width="11px" height="12px" preserveAspectRatio="xMinYMin meet" x="239.5" y="-271.2"/>
<text text-anchor="start" x="263.5" y="-261.3" font-family="Helvetica,sans-Serif" font-size="11.00" fill="#000000">user_id_</text>
<polygon fill="#ffffff" stroke="transparent" points="234.5,-232.2 234.5,-254.2 425.5,-254.2 425.5,-232.2 234.5,-232.2"/>
<polygon fill="none" stroke="#000000" points="234.5,-232.2 234.5,-254.2 425.5,-254.2 425.5,-232.2 234.5,-232.2"/>
<image xlink:href="../../images/foreignKeys.png" width="11px" height="12px" preserveAspectRatio="xMinYMin meet" x="239.5" y="-249.2"/>
<text text-anchor="start" x="263.5" y="-239.3" font-family="Helvetica,sans-Serif" font-size="11.00" fill="#000000">group_id_</text>
<polygon fill="#ffffff" stroke="transparent" points="234.5,-213.2 234.5,-232.2 328.5,-232.2 328.5,-213.2 234.5,-213.2"/>
<polygon fill="none" stroke="#000000" points="234.5,-213.2 234.5,-232.2 328.5,-232.2 328.5,-213.2 234.5,-213.2"/>
<text text-anchor="start" x="237.5" y="-219.3" font-family="Helvetica,sans-Serif" font-size="11.00" fill="#000000">&lt; 3</text>
<polygon fill="#ffffff" stroke="transparent" points="328.5,-213.2 328.5,-232.2 376.5,-232.2 376.5,-213.2 328.5,-213.2"/>
<polygon fill="none" stroke="#000000" points="328.5,-213.2 328.5,-232.2 376.5,-232.2 376.5,-213.2 328.5,-213.2"/>
<text text-anchor="start" x="367.3862" y="-219.3" font-family="Helvetica,sans-Serif" font-size="11.00" fill="#000000"> &#160;</text>
<polygon fill="#ffffff" stroke="transparent" points="376.5,-213.2 376.5,-232.2 425.5,-232.2 425.5,-213.2 376.5,-213.2"/>
<polygon fill="none" stroke="#000000" points="376.5,-213.2 376.5,-232.2 425.5,-232.2 425.5,-213.2 376.5,-213.2"/>
<text text-anchor="start" x="416.3862" y="-219.3" font-family="Helvetica,sans-Serif" font-size="11.00" fill="#000000"> &#160;</text>
</a>
</g>
</g>
<!-- act_id_tenant_member&#45;&gt;act_id_group -->
<g id="edge3" class="edge">
<title>act_id_tenant_member:w&#45;&gt;act_id_group:e</title>
<path fill="none" stroke="#000000" d="M220.4064,-239.3918C192.7616,-220.3309 230.2134,-136.2 183.5,-136.2"/>
<polygon fill="#000000" stroke="#000000" points="226.777,-241.1131 233.5609,-246.6754 230.6385,-242.1566 234.5,-243.2 234.5,-243.2 234.5,-243.2 230.6385,-242.1566 235.4391,-239.7246 226.777,-241.1131 226.777,-241.1131"/>
<ellipse fill="none" stroke="#000000" cx="223.6878" cy="-240.2784" rx="3.2" ry="3.2"/>
</g>
<!-- act_id_tenant_member&#45;&gt;act_id_user -->
<g id="edge5" class="edge">
<title>act_id_tenant_member:w&#45;&gt;act_id_user:e</title>
<path fill="none" stroke="#000000" d="M220.1978,-263.0778C193.0412,-254.2886 189.0274,-221.2 153.5,-221.2"/>
<polygon fill="#000000" stroke="#000000" points="226.5866,-264.0257 233.9716,-268.761 230.5433,-264.6129 234.5,-265.2 234.5,-265.2 234.5,-265.2 230.5433,-264.6129 235.0284,-261.639 226.5866,-264.0257 226.5866,-264.0257"/>
<ellipse fill="none" stroke="#000000" cx="223.4213" cy="-263.556" rx="3.2" ry="3.2"/>
</g>
<!-- act_id_tenant -->
<g id="node5" class="node">
<title>act_id_tenant</title>
<g id="a_node5"><a xlink:href="../../tables/act_id_tenant.html" xlink:title="act_id_tenant" target="_top">
<polygon fill="#ffffff" stroke="transparent" points="32,-275.7 32,-336.7 161,-336.7 161,-275.7 32,-275.7"/>
<polygon fill="#f5f5f5" stroke="transparent" points="32.5,-313.2 32.5,-336.2 161.5,-336.2 161.5,-313.2 32.5,-313.2"/>
<polygon fill="none" stroke="#000000" points="32.5,-313.2 32.5,-336.2 161.5,-336.2 161.5,-313.2 32.5,-313.2"/>
<text text-anchor="start" x="37.5" y="-321.8" font-family="Helvetica,sans-Serif" font-weight="bold" font-size="11.00" fill="#000000">act_id_tenant</text>
<text text-anchor="start" x="127.0219" y="-321.3" font-family="Helvetica,sans-Serif" font-size="11.00" fill="#000000">[table]</text>
<polygon fill="none" stroke="#000000" points="32.5,-294.2 32.5,-313.2 161.5,-313.2 161.5,-294.2 32.5,-294.2"/>
<text text-anchor="start" x="35.5" y="-300.3" font-family="Helvetica,sans-Serif" font-size="11.00" fill="#000000">...</text>
<polygon fill="#ffffff" stroke="transparent" points="32.5,-275.2 32.5,-294.2 86.5,-294.2 86.5,-275.2 32.5,-275.2"/>
<polygon fill="none" stroke="#000000" points="32.5,-275.2 32.5,-294.2 86.5,-294.2 86.5,-275.2 32.5,-275.2"/>
<text text-anchor="start" x="35.5" y="-281.3" font-family="Helvetica,sans-Serif" font-size="11.00" fill="#000000"> &#160;</text>
<polygon fill="#ffffff" stroke="transparent" points="86.5,-275.2 86.5,-294.2 119.5,-294.2 119.5,-275.2 86.5,-275.2"/>
<polygon fill="none" stroke="#000000" points="86.5,-275.2 86.5,-294.2 119.5,-294.2 119.5,-275.2 86.5,-275.2"/>
<text text-anchor="start" x="110.3862" y="-281.3" font-family="Helvetica,sans-Serif" font-size="11.00" fill="#000000"> &#160;</text>
<polygon fill="#ffffff" stroke="transparent" points="119.5,-275.2 119.5,-294.2 161.5,-294.2 161.5,-275.2 119.5,-275.2"/>
<polygon fill="none" stroke="#000000" points="119.5,-275.2 119.5,-294.2 161.5,-294.2 161.5,-275.2 119.5,-275.2"/>
<text text-anchor="start" x="142.9053" y="-281.3" font-family="Helvetica,sans-Serif" font-size="11.00" fill="#000000">1 &gt;</text>
</a>
</g>
</g>
<!-- act_id_tenant_member&#45;&gt;act_id_tenant -->
<g id="edge4" class="edge">
<title>act_id_tenant_member:w&#45;&gt;act_id_tenant:e</title>
<path fill="none" stroke="#000000" d="M220.0683,-288.3507C198.4122,-292.0193 189.2653,-303.2 161.5,-303.2"/>
<polygon fill="#000000" stroke="#000000" points="226.5253,-287.8359 234.7862,-290.7886 230.5127,-287.5179 234.5,-287.2 234.5,-287.2 234.5,-287.2 230.5127,-287.5179 234.2138,-283.6114 226.5253,-287.8359 226.5253,-287.8359"/>
<ellipse fill="none" stroke="#000000" cx="223.3354" cy="-288.0903" rx="3.2" ry="3.2"/>
</g>
</g>
</svg>
