<?xml version="1.0" encoding="UTF-8" standalone="no"?>
<!DOCTYPE svg PUBLIC "-//W3C//DTD SVG 1.1//EN"
 "http://www.w3.org/Graphics/SVG/1.1/DTD/svg11.dtd">
<!-- Generated by graphviz version 2.40.1 (20161225.0304)
 -->
<!-- Title: oneDegreeRelationshipsDiagram Pages: 1 -->
<svg width="441pt" height="287pt"
 viewBox="0.00 0.00 441.00 287.20" xmlns="http://www.w3.org/2000/svg" xmlns:xlink="http://www.w3.org/1999/xlink">
<g id="graph0" class="graph" transform="scale(1 1) rotate(0) translate(4 283.2)">
<title>oneDegreeRelationshipsDiagram</title>
<polygon fill="#ffffff" stroke="transparent" points="-4,4 -4,-283.2 437,-283.2 437,4 -4,4"/>
<text text-anchor="middle" x="72.4936" y="-7.3" font-family="Helvetica,sans-Serif" font-size="11.00" fill="#000000">Generated by SchemaSpy</text>
<!-- act_id_membership -->
<g id="node1" class="node">
<title>act_id_membership</title>
<g id="a_node1"><a xlink:href="../../tables/act_id_membership.html" xlink:title="act_id_membership" target="_top">
<polygon fill="#ffffff" stroke="transparent" points="245.5,-189.2 245.5,-275.2 413.5,-275.2 413.5,-189.2 245.5,-189.2"/>
<polygon fill="#f5f5f5" stroke="transparent" points="245.5,-252.2 245.5,-275.2 413.5,-275.2 413.5,-252.2 245.5,-252.2"/>
<polygon fill="none" stroke="#000000" points="245.5,-252.2 245.5,-275.2 413.5,-275.2 413.5,-252.2 245.5,-252.2"/>
<text text-anchor="start" x="250.5" y="-260.8" font-family="Helvetica,sans-Serif" font-weight="bold" font-size="11.00" fill="#000000">act_id_membership</text>
<text text-anchor="start" x="379.0219" y="-260.3" font-family="Helvetica,sans-Serif" font-size="11.00" fill="#000000">[table]</text>
<polygon fill="none" stroke="#000000" points="245.5,-230.2 245.5,-252.2 413.5,-252.2 413.5,-230.2 245.5,-230.2"/>
<image xlink:href="../../images/primaryKeys.png" width="11px" height="12px" preserveAspectRatio="xMinYMin meet" x="250.5" y="-247.2"/>
<text text-anchor="start" x="274.5" y="-237.3" font-family="Helvetica,sans-Serif" font-size="11.00" fill="#000000">user_id_</text>
<polygon fill="none" stroke="#000000" points="245.5,-208.2 245.5,-230.2 413.5,-230.2 413.5,-208.2 245.5,-208.2"/>
<image xlink:href="../../images/primaryKeys.png" width="11px" height="12px" preserveAspectRatio="xMinYMin meet" x="250.5" y="-225.2"/>
<text text-anchor="start" x="274.5" y="-215.3" font-family="Helvetica,sans-Serif" font-size="11.00" fill="#000000">group_id_</text>
<polygon fill="#ffffff" stroke="transparent" points="245.5,-189.2 245.5,-208.2 327.5,-208.2 327.5,-189.2 245.5,-189.2"/>
<polygon fill="none" stroke="#000000" points="245.5,-189.2 245.5,-208.2 327.5,-208.2 327.5,-189.2 245.5,-189.2"/>
<text text-anchor="start" x="248.5" y="-195.3" font-family="Helvetica,sans-Serif" font-size="11.00" fill="#000000">&lt; 2</text>
<polygon fill="#ffffff" stroke="transparent" points="327.5,-189.2 327.5,-208.2 370.5,-208.2 370.5,-189.2 327.5,-189.2"/>
<polygon fill="none" stroke="#000000" points="327.5,-189.2 327.5,-208.2 370.5,-208.2 370.5,-189.2 327.5,-189.2"/>
<text text-anchor="start" x="361.3862" y="-195.3" font-family="Helvetica,sans-Serif" font-size="11.00" fill="#000000"> &#160;</text>
<polygon fill="#ffffff" stroke="transparent" points="370.5,-189.2 370.5,-208.2 413.5,-208.2 413.5,-189.2 370.5,-189.2"/>
<polygon fill="none" stroke="#000000" points="370.5,-189.2 370.5,-208.2 413.5,-208.2 413.5,-189.2 370.5,-189.2"/>
<text text-anchor="start" x="404.3862" y="-195.3" font-family="Helvetica,sans-Serif" font-size="11.00" fill="#000000"> &#160;</text>
</a>
</g>
</g>
<!-- act_id_group -->
<g id="node2" class="node">
<title>act_id_group</title>
<g id="a_node2"><a xlink:href="../../tables/act_id_group.html" xlink:title="act_id_group" target="_top">
<polygon fill="#ffffff" stroke="transparent" points="8,-45.2 8,-179.2 185,-179.2 185,-45.2 8,-45.2"/>
<polygon fill="#f5f5f5" stroke="transparent" points="10.5,-154.2 10.5,-177.2 183.5,-177.2 183.5,-154.2 10.5,-154.2"/>
<polygon fill="none" stroke="#000000" points="10.5,-154.2 10.5,-177.2 183.5,-177.2 183.5,-154.2 10.5,-154.2"/>
<text text-anchor="start" x="15.5" y="-162.8" font-family="Helvetica,sans-Serif" font-weight="bold" font-size="11.00" fill="#000000">act_id_group</text>
<text text-anchor="start" x="148.5437" y="-162.3" font-family="Helvetica,sans-Serif" font-size="11.00" fill="#000000">[table]</text>
<polygon fill="none" stroke="#000000" points="10.5,-132.2 10.5,-154.2 116.5,-154.2 116.5,-132.2 10.5,-132.2"/>
<image xlink:href="../../images/primaryKeys.png" width="11px" height="12px" preserveAspectRatio="xMinYMin meet" x="15.5" y="-149.2"/>
<text text-anchor="start" x="30.5" y="-139.3" font-family="Helvetica,sans-Serif" font-size="11.00" fill="#000000">id_</text>
<polygon fill="none" stroke="#000000" points="116.5,-132.2 116.5,-154.2 183.5,-154.2 183.5,-132.2 116.5,-132.2"/>
<text text-anchor="start" x="119.5" y="-139.9" font-family="Helvetica,sans-Serif" font-size="11.00" fill="#000000">varchar[64]</text>
<polygon fill="none" stroke="#000000" points="10.5,-110.2 10.5,-132.2 116.5,-132.2 116.5,-110.2 10.5,-110.2"/>
<text text-anchor="start" x="30.5" y="-117.3" font-family="Helvetica,sans-Serif" font-size="11.00" fill="#000000">rev_</text>
<polygon fill="none" stroke="#000000" points="116.5,-110.2 116.5,-132.2 183.5,-132.2 183.5,-110.2 116.5,-110.2"/>
<text text-anchor="start" x="119.5" y="-117.9" font-family="Helvetica,sans-Serif" font-size="11.00" fill="#000000">int4[10]</text>
<polygon fill="none" stroke="#000000" points="10.5,-88.2 10.5,-110.2 116.5,-110.2 116.5,-88.2 10.5,-88.2"/>
<text text-anchor="start" x="30.5" y="-95.3" font-family="Helvetica,sans-Serif" font-size="11.00" fill="#000000">name_</text>
<polygon fill="none" stroke="#000000" points="116.5,-88.2 116.5,-110.2 183.5,-110.2 183.5,-88.2 116.5,-88.2"/>
<text text-anchor="start" x="119.4365" y="-95.9" font-family="Helvetica,sans-Serif" font-size="11.00" fill="#000000">varchar[255]</text>
<polygon fill="none" stroke="#000000" points="10.5,-66.2 10.5,-88.2 116.5,-88.2 116.5,-66.2 10.5,-66.2"/>
<text text-anchor="start" x="30.5" y="-73.3" font-family="Helvetica,sans-Serif" font-size="11.00" fill="#000000">type_</text>
<polygon fill="none" stroke="#000000" points="116.5,-66.2 116.5,-88.2 183.5,-88.2 183.5,-66.2 116.5,-66.2"/>
<text text-anchor="start" x="119.4365" y="-73.9" font-family="Helvetica,sans-Serif" font-size="11.00" fill="#000000">varchar[255]</text>
<polygon fill="#ffffff" stroke="transparent" points="10.5,-47.2 10.5,-66.2 67.5,-66.2 67.5,-47.2 10.5,-47.2"/>
<polygon fill="none" stroke="#000000" points="10.5,-47.2 10.5,-66.2 67.5,-66.2 67.5,-47.2 10.5,-47.2"/>
<text text-anchor="start" x="13.5" y="-53.3" font-family="Helvetica,sans-Serif" font-size="11.00" fill="#000000">&lt; 0</text>
<polygon fill="#ffffff" stroke="transparent" points="67.5,-47.2 67.5,-66.2 116.5,-66.2 116.5,-47.2 67.5,-47.2"/>
<polygon fill="none" stroke="#000000" points="67.5,-47.2 67.5,-66.2 116.5,-66.2 116.5,-47.2 67.5,-47.2"/>
<text text-anchor="start" x="107.3862" y="-53.3" font-family="Helvetica,sans-Serif" font-size="11.00" fill="#000000"> &#160;</text>
<polygon fill="#ffffff" stroke="transparent" points="116.5,-47.2 116.5,-66.2 183.5,-66.2 183.5,-47.2 116.5,-47.2"/>
<polygon fill="none" stroke="#000000" points="116.5,-47.2 116.5,-66.2 183.5,-66.2 183.5,-47.2 116.5,-47.2"/>
<text text-anchor="start" x="164.9053" y="-53.3" font-family="Helvetica,sans-Serif" font-size="11.00" fill="#000000">2 &gt;</text>
<polygon fill="none" stroke="#000000" stroke-width="2" points="9,-46.2 9,-178.2 184,-178.2 184,-46.2 9,-46.2"/>
</a>
</g>
</g>
<!-- act_id_membership&#45;&gt;act_id_group -->
<g id="edge1" class="edge">
<title>act_id_membership:w&#45;&gt;act_id_group:e</title>
<path fill="none" stroke="#000000" d="M231.4486,-215.5344C207.3844,-200.3531 221.3023,-143.2 183.5,-143.2"/>
<polygon fill="#000000" stroke="#000000" points="237.7591,-217.1806 244.5913,-222.6834 241.6295,-218.1903 245.5,-219.2 245.5,-219.2 245.5,-219.2 241.6295,-218.1903 246.4087,-215.7166 237.7591,-217.1806 237.7591,-217.1806"/>
<ellipse fill="none" stroke="#000000" cx="234.6627" cy="-216.3728" rx="3.2" ry="3.2"/>
</g>
<!-- act_id_tenant_member -->
<g id="node3" class="node">
<title>act_id_tenant_member</title>
<g id="a_node3"><a xlink:href="../../tables/act_id_tenant_member.html" xlink:title="act_id_tenant_member" target="_top">
<polygon fill="#ffffff" stroke="transparent" points="234,-38.2 234,-168.2 425,-168.2 425,-38.2 234,-38.2"/>
<polygon fill="#f5f5f5" stroke="transparent" points="234.5,-145.2 234.5,-168.2 425.5,-168.2 425.5,-145.2 234.5,-145.2"/>
<polygon fill="none" stroke="#000000" points="234.5,-145.2 234.5,-168.2 425.5,-168.2 425.5,-145.2 234.5,-145.2"/>
<text text-anchor="start" x="239.5" y="-153.8" font-family="Helvetica,sans-Serif" font-weight="bold" font-size="11.00" fill="#000000">act_id_tenant_member</text>
<text text-anchor="start" x="391.0219" y="-153.3" font-family="Helvetica,sans-Serif" font-size="11.00" fill="#000000">[table]</text>
<polygon fill="none" stroke="#000000" points="234.5,-123.2 234.5,-145.2 425.5,-145.2 425.5,-123.2 234.5,-123.2"/>
<image xlink:href="../../images/primaryKeys.png" width="11px" height="12px" preserveAspectRatio="xMinYMin meet" x="239.5" y="-140.2"/>
<text text-anchor="start" x="263.5" y="-130.3" font-family="Helvetica,sans-Serif" font-size="11.00" fill="#000000">id_</text>
<polygon fill="#ffffff" stroke="transparent" points="234.5,-101.2 234.5,-123.2 425.5,-123.2 425.5,-101.2 234.5,-101.2"/>
<polygon fill="none" stroke="#000000" points="234.5,-101.2 234.5,-123.2 425.5,-123.2 425.5,-101.2 234.5,-101.2"/>
<image xlink:href="../../images/foreignKeys.png" width="11px" height="12px" preserveAspectRatio="xMinYMin meet" x="239.5" y="-118.2"/>
<text text-anchor="start" x="263.5" y="-108.3" font-family="Helvetica,sans-Serif" font-size="11.00" fill="#000000">tenant_id_</text>
<polygon fill="#ffffff" stroke="transparent" points="234.5,-79.2 234.5,-101.2 425.5,-101.2 425.5,-79.2 234.5,-79.2"/>
<polygon fill="none" stroke="#000000" points="234.5,-79.2 234.5,-101.2 425.5,-101.2 425.5,-79.2 234.5,-79.2"/>
<image xlink:href="../../images/foreignKeys.png" width="11px" height="12px" preserveAspectRatio="xMinYMin meet" x="239.5" y="-96.2"/>
<text text-anchor="start" x="263.5" y="-86.3" font-family="Helvetica,sans-Serif" font-size="11.00" fill="#000000">user_id_</text>
<polygon fill="#ffffff" stroke="transparent" points="234.5,-57.2 234.5,-79.2 425.5,-79.2 425.5,-57.2 234.5,-57.2"/>
<polygon fill="none" stroke="#000000" points="234.5,-57.2 234.5,-79.2 425.5,-79.2 425.5,-57.2 234.5,-57.2"/>
<image xlink:href="../../images/foreignKeys.png" width="11px" height="12px" preserveAspectRatio="xMinYMin meet" x="239.5" y="-74.2"/>
<text text-anchor="start" x="263.5" y="-64.3" font-family="Helvetica,sans-Serif" font-size="11.00" fill="#000000">group_id_</text>
<polygon fill="#ffffff" stroke="transparent" points="234.5,-38.2 234.5,-57.2 328.5,-57.2 328.5,-38.2 234.5,-38.2"/>
<polygon fill="none" stroke="#000000" points="234.5,-38.2 234.5,-57.2 328.5,-57.2 328.5,-38.2 234.5,-38.2"/>
<text text-anchor="start" x="237.5" y="-44.3" font-family="Helvetica,sans-Serif" font-size="11.00" fill="#000000">&lt; 3</text>
<polygon fill="#ffffff" stroke="transparent" points="328.5,-38.2 328.5,-57.2 376.5,-57.2 376.5,-38.2 328.5,-38.2"/>
<polygon fill="none" stroke="#000000" points="328.5,-38.2 328.5,-57.2 376.5,-57.2 376.5,-38.2 328.5,-38.2"/>
<text text-anchor="start" x="367.3862" y="-44.3" font-family="Helvetica,sans-Serif" font-size="11.00" fill="#000000"> &#160;</text>
<polygon fill="#ffffff" stroke="transparent" points="376.5,-38.2 376.5,-57.2 425.5,-57.2 425.5,-38.2 376.5,-38.2"/>
<polygon fill="none" stroke="#000000" points="376.5,-38.2 376.5,-57.2 425.5,-57.2 425.5,-38.2 376.5,-38.2"/>
<text text-anchor="start" x="416.3862" y="-44.3" font-family="Helvetica,sans-Serif" font-size="11.00" fill="#000000"> &#160;</text>
</a>
</g>
</g>
<!-- act_id_tenant_member&#45;&gt;act_id_group -->
<g id="edge2" class="edge">
<title>act_id_tenant_member:w&#45;&gt;act_id_group:e</title>
<path fill="none" stroke="#000000" d="M220.7145,-72.667C201.4427,-88.8131 217.8264,-143.2 183.5,-143.2"/>
<polygon fill="#000000" stroke="#000000" points="226.8896,-70.6661 235.6097,-71.6247 230.6948,-69.433 234.5,-68.2 234.5,-68.2 234.5,-68.2 230.6948,-69.433 233.3903,-64.7753 226.8896,-70.6661 226.8896,-70.6661"/>
<ellipse fill="none" stroke="#000000" cx="223.8454" cy="-71.6525" rx="3.2" ry="3.2"/>
</g>
</g>
</svg>
