<?xml version="1.0" encoding="UTF-8" standalone="no"?>
<!DOCTYPE svg PUBLIC "-//W3C//DTD SVG 1.1//EN"
 "http://www.w3.org/Graphics/SVG/1.1/DTD/svg11.dtd">
<!-- Generated by graphviz version 2.40.1 (20161225.0304)
 -->
<!-- Title: twoDegreesRelationshipsDiagram Pages: 1 -->
<svg width="971pt" height="421pt"
 viewBox="0.00 0.00 971.00 420.70" xmlns="http://www.w3.org/2000/svg" xmlns:xlink="http://www.w3.org/1999/xlink">
<g id="graph0" class="graph" transform="scale(1 1) rotate(0) translate(4 416.7)">
<title>twoDegreesRelationshipsDiagram</title>
<polygon fill="#ffffff" stroke="transparent" points="-4,4 -4,-416.7 967,-416.7 967,4 -4,4"/>
<text text-anchor="middle" x="72.4936" y="-7.3" font-family="Helvetica,sans-Serif" font-size="11.00" fill="#000000">Generated by SchemaSpy</text>
<!-- act_ru_case_execution -->
<g id="node1" class="node">
<title>act_ru_case_execution</title>
<g id="a_node1"><a xlink:href="../../tables/act_ru_case_execution.html" xlink:title="act_ru_case_execution" target="_top">
<polygon fill="#ffffff" stroke="transparent" points="305,-239.2 305,-300.2 494,-300.2 494,-239.2 305,-239.2"/>
<polygon fill="#f5f5f5" stroke="transparent" points="305.5,-276.7 305.5,-299.7 494.5,-299.7 494.5,-276.7 305.5,-276.7"/>
<polygon fill="none" stroke="#000000" points="305.5,-276.7 305.5,-299.7 494.5,-299.7 494.5,-276.7 305.5,-276.7"/>
<text text-anchor="start" x="310.5" y="-285.3" font-family="Helvetica,sans-Serif" font-weight="bold" font-size="11.00" fill="#000000">act_ru_case_execution</text>
<text text-anchor="start" x="460.0219" y="-284.8" font-family="Helvetica,sans-Serif" font-size="11.00" fill="#000000">[table]</text>
<polygon fill="none" stroke="#000000" points="305.5,-257.7 305.5,-276.7 494.5,-276.7 494.5,-257.7 305.5,-257.7"/>
<text text-anchor="start" x="308.5" y="-263.8" font-family="Helvetica,sans-Serif" font-size="11.00" fill="#000000">...</text>
<polygon fill="#ffffff" stroke="transparent" points="305.5,-238.7 305.5,-257.7 393.5,-257.7 393.5,-238.7 305.5,-238.7"/>
<polygon fill="none" stroke="#000000" points="305.5,-238.7 305.5,-257.7 393.5,-257.7 393.5,-238.7 305.5,-238.7"/>
<text text-anchor="start" x="308.5" y="-244.8" font-family="Helvetica,sans-Serif" font-size="11.00" fill="#000000">&lt; 3</text>
<polygon fill="#ffffff" stroke="transparent" points="393.5,-238.7 393.5,-257.7 439.5,-257.7 439.5,-238.7 393.5,-238.7"/>
<polygon fill="none" stroke="#000000" points="393.5,-238.7 393.5,-257.7 439.5,-257.7 439.5,-238.7 393.5,-238.7"/>
<text text-anchor="start" x="430.3862" y="-244.8" font-family="Helvetica,sans-Serif" font-size="11.00" fill="#000000"> &#160;</text>
<polygon fill="#ffffff" stroke="transparent" points="439.5,-238.7 439.5,-257.7 494.5,-257.7 494.5,-238.7 439.5,-238.7"/>
<polygon fill="none" stroke="#000000" points="439.5,-238.7 439.5,-257.7 494.5,-257.7 494.5,-238.7 439.5,-238.7"/>
<text text-anchor="start" x="475.9053" y="-244.8" font-family="Helvetica,sans-Serif" font-size="11.00" fill="#000000">7 &gt;</text>
</a>
</g>
</g>
<!-- act_re_case_def -->
<g id="node2" class="node">
<title>act_re_case_def</title>
<g id="a_node2"><a xlink:href="../../tables/act_re_case_def.html" xlink:title="act_re_case_def" target="_top">
<polygon fill="#ffffff" stroke="transparent" points="8,-120.7 8,-408.7 256,-408.7 256,-120.7 8,-120.7"/>
<polygon fill="#f5f5f5" stroke="transparent" points="10,-383.7 10,-406.7 254,-406.7 254,-383.7 10,-383.7"/>
<polygon fill="none" stroke="#000000" points="10,-383.7 10,-406.7 254,-406.7 254,-383.7 10,-383.7"/>
<text text-anchor="start" x="15" y="-392.3" font-family="Helvetica,sans-Serif" font-weight="bold" font-size="11.00" fill="#000000">act_re_case_def</text>
<text text-anchor="start" x="219.0437" y="-391.8" font-family="Helvetica,sans-Serif" font-size="11.00" fill="#000000">[table]</text>
<polygon fill="none" stroke="#000000" points="10,-361.7 10,-383.7 181,-383.7 181,-361.7 10,-361.7"/>
<image xlink:href="../../images/primaryKeys.png" width="11px" height="12px" preserveAspectRatio="xMinYMin meet" x="15" y="-378.7"/>
<text text-anchor="start" x="30" y="-368.8" font-family="Helvetica,sans-Serif" font-size="11.00" fill="#000000">id_</text>
<polygon fill="none" stroke="#000000" points="181,-361.7 181,-383.7 254,-383.7 254,-361.7 181,-361.7"/>
<text text-anchor="start" x="184" y="-369.4" font-family="Helvetica,sans-Serif" font-size="11.00" fill="#000000">varchar[64]</text>
<polygon fill="none" stroke="#000000" points="10,-339.7 10,-361.7 181,-361.7 181,-339.7 10,-339.7"/>
<text text-anchor="start" x="30" y="-346.8" font-family="Helvetica,sans-Serif" font-size="11.00" fill="#000000">rev_</text>
<polygon fill="none" stroke="#000000" points="181,-339.7 181,-361.7 254,-361.7 254,-339.7 181,-339.7"/>
<text text-anchor="start" x="184" y="-347.4" font-family="Helvetica,sans-Serif" font-size="11.00" fill="#000000">int4[10]</text>
<polygon fill="none" stroke="#000000" points="10,-317.7 10,-339.7 181,-339.7 181,-317.7 10,-317.7"/>
<text text-anchor="start" x="30" y="-324.8" font-family="Helvetica,sans-Serif" font-size="11.00" fill="#000000">category_</text>
<polygon fill="none" stroke="#000000" points="181,-317.7 181,-339.7 254,-339.7 254,-317.7 181,-317.7"/>
<text text-anchor="start" x="184" y="-325.4" font-family="Helvetica,sans-Serif" font-size="11.00" fill="#000000">varchar[255]</text>
<polygon fill="none" stroke="#000000" points="10,-295.7 10,-317.7 181,-317.7 181,-295.7 10,-295.7"/>
<text text-anchor="start" x="30" y="-302.8" font-family="Helvetica,sans-Serif" font-size="11.00" fill="#000000">name_</text>
<polygon fill="none" stroke="#000000" points="181,-295.7 181,-317.7 254,-317.7 254,-295.7 181,-295.7"/>
<text text-anchor="start" x="184" y="-303.4" font-family="Helvetica,sans-Serif" font-size="11.00" fill="#000000">varchar[255]</text>
<polygon fill="none" stroke="#000000" points="10,-273.7 10,-295.7 181,-295.7 181,-273.7 10,-273.7"/>
<text text-anchor="start" x="30" y="-280.8" font-family="Helvetica,sans-Serif" font-size="11.00" fill="#000000">key_</text>
<polygon fill="none" stroke="#000000" points="181,-273.7 181,-295.7 254,-295.7 254,-273.7 181,-273.7"/>
<text text-anchor="start" x="184" y="-281.4" font-family="Helvetica,sans-Serif" font-size="11.00" fill="#000000">varchar[255]</text>
<polygon fill="none" stroke="#000000" points="10,-251.7 10,-273.7 181,-273.7 181,-251.7 10,-251.7"/>
<text text-anchor="start" x="30" y="-258.8" font-family="Helvetica,sans-Serif" font-size="11.00" fill="#000000">version_</text>
<polygon fill="none" stroke="#000000" points="181,-251.7 181,-273.7 254,-273.7 254,-251.7 181,-251.7"/>
<text text-anchor="start" x="184" y="-259.4" font-family="Helvetica,sans-Serif" font-size="11.00" fill="#000000">int4[10]</text>
<polygon fill="none" stroke="#000000" points="10,-229.7 10,-251.7 181,-251.7 181,-229.7 10,-229.7"/>
<text text-anchor="start" x="30" y="-236.8" font-family="Helvetica,sans-Serif" font-size="11.00" fill="#000000">deployment_id_</text>
<polygon fill="none" stroke="#000000" points="181,-229.7 181,-251.7 254,-251.7 254,-229.7 181,-229.7"/>
<text text-anchor="start" x="184" y="-237.4" font-family="Helvetica,sans-Serif" font-size="11.00" fill="#000000">varchar[64]</text>
<polygon fill="none" stroke="#000000" points="10,-207.7 10,-229.7 181,-229.7 181,-207.7 10,-207.7"/>
<text text-anchor="start" x="30" y="-214.8" font-family="Helvetica,sans-Serif" font-size="11.00" fill="#000000">resource_name_</text>
<polygon fill="none" stroke="#000000" points="181,-207.7 181,-229.7 254,-229.7 254,-207.7 181,-207.7"/>
<text text-anchor="start" x="183.8791" y="-215.4" font-family="Helvetica,sans-Serif" font-size="11.00" fill="#000000">varchar[4000]</text>
<polygon fill="none" stroke="#000000" points="10,-185.7 10,-207.7 181,-207.7 181,-185.7 10,-185.7"/>
<text text-anchor="start" x="30" y="-192.8" font-family="Helvetica,sans-Serif" font-size="11.00" fill="#000000">dgrm_resource_name_</text>
<polygon fill="none" stroke="#000000" points="181,-185.7 181,-207.7 254,-207.7 254,-185.7 181,-185.7"/>
<text text-anchor="start" x="183.8791" y="-193.4" font-family="Helvetica,sans-Serif" font-size="11.00" fill="#000000">varchar[4000]</text>
<polygon fill="#ffffff" stroke="transparent" points="10,-163.7 10,-185.7 181,-185.7 181,-163.7 10,-163.7"/>
<polygon fill="none" stroke="#000000" points="10,-163.7 10,-185.7 181,-185.7 181,-163.7 10,-163.7"/>
<text text-anchor="start" x="30" y="-170.8" font-family="Helvetica,sans-Serif" font-size="11.00" fill="#000000">tenant_id_</text>
<polygon fill="none" stroke="#000000" points="181,-163.7 181,-185.7 254,-185.7 254,-163.7 181,-163.7"/>
<text text-anchor="start" x="184" y="-171.4" font-family="Helvetica,sans-Serif" font-size="11.00" fill="#000000">varchar[64]</text>
<polygon fill="none" stroke="#000000" points="10,-141.7 10,-163.7 181,-163.7 181,-141.7 10,-141.7"/>
<text text-anchor="start" x="30" y="-148.8" font-family="Helvetica,sans-Serif" font-size="11.00" fill="#000000">history_ttl_</text>
<polygon fill="none" stroke="#000000" points="181,-141.7 181,-163.7 254,-163.7 254,-141.7 181,-141.7"/>
<text text-anchor="start" x="184" y="-149.4" font-family="Helvetica,sans-Serif" font-size="11.00" fill="#000000">int4[10]</text>
<polygon fill="#ffffff" stroke="transparent" points="10,-122.7 10,-141.7 100,-141.7 100,-122.7 10,-122.7"/>
<polygon fill="none" stroke="#000000" points="10,-122.7 10,-141.7 100,-141.7 100,-122.7 10,-122.7"/>
<text text-anchor="start" x="13" y="-128.8" font-family="Helvetica,sans-Serif" font-size="11.00" fill="#000000">&lt; 0</text>
<polygon fill="#ffffff" stroke="transparent" points="100,-122.7 100,-141.7 181,-141.7 181,-122.7 100,-122.7"/>
<polygon fill="none" stroke="#000000" points="100,-122.7 100,-141.7 181,-141.7 181,-122.7 100,-122.7"/>
<text text-anchor="start" x="171.8862" y="-128.8" font-family="Helvetica,sans-Serif" font-size="11.00" fill="#000000"> &#160;</text>
<polygon fill="#ffffff" stroke="transparent" points="181,-122.7 181,-141.7 254,-141.7 254,-122.7 181,-122.7"/>
<polygon fill="none" stroke="#000000" points="181,-122.7 181,-141.7 254,-141.7 254,-122.7 181,-122.7"/>
<text text-anchor="start" x="235.4053" y="-128.8" font-family="Helvetica,sans-Serif" font-size="11.00" fill="#000000">2 &gt;</text>
<polygon fill="none" stroke="#000000" stroke-width="2" points="9,-121.7 9,-407.7 255,-407.7 255,-121.7 9,-121.7"/>
</a>
</g>
</g>
<!-- act_ru_case_execution&#45;&gt;act_re_case_def -->
<g id="edge1" class="edge">
<title>act_ru_case_execution:w&#45;&gt;act_re_case_def:e</title>
<path fill="none" stroke="#000000" d="M362.5743,-315.0811C335.7442,-342.6999 296.7595,-372.7 254,-372.7"/>
<polygon fill="#000000" stroke="#000000" points="367.154,-310.1473 375.2352,-306.7332 369.8754,-307.2157 372.5967,-304.284 372.5967,-304.284 372.5967,-304.284 369.8754,-307.2157 369.9582,-301.8349 367.154,-310.1473 367.154,-310.1473"/>
<ellipse fill="none" stroke="#000000" cx="364.977" cy="-312.4926" rx="3.2" ry="3.2"/>
</g>
<!-- act_ru_case_sentry_part -->
<g id="node3" class="node">
<title>act_ru_case_sentry_part</title>
<g id="a_node3"><a xlink:href="../../tables/act_ru_case_sentry_part.html" xlink:title="act_ru_case_sentry_part" target="_top">
<polygon fill="#ffffff" stroke="transparent" points="543,-254.2 543,-315.2 743,-315.2 743,-254.2 543,-254.2"/>
<polygon fill="#f5f5f5" stroke="transparent" points="543,-291.7 543,-314.7 743,-314.7 743,-291.7 543,-291.7"/>
<polygon fill="none" stroke="#000000" points="543,-291.7 543,-314.7 743,-314.7 743,-291.7 543,-291.7"/>
<text text-anchor="start" x="548" y="-300.3" font-family="Helvetica,sans-Serif" font-weight="bold" font-size="11.00" fill="#000000">act_ru_case_sentry_part</text>
<text text-anchor="start" x="708.5219" y="-299.8" font-family="Helvetica,sans-Serif" font-size="11.00" fill="#000000">[table]</text>
<polygon fill="none" stroke="#000000" points="543,-272.7 543,-291.7 743,-291.7 743,-272.7 543,-272.7"/>
<text text-anchor="start" x="546" y="-278.8" font-family="Helvetica,sans-Serif" font-size="11.00" fill="#000000">...</text>
<polygon fill="#ffffff" stroke="transparent" points="543,-253.7 543,-272.7 641,-272.7 641,-253.7 543,-253.7"/>
<polygon fill="none" stroke="#000000" points="543,-253.7 543,-272.7 641,-272.7 641,-253.7 543,-253.7"/>
<text text-anchor="start" x="546" y="-259.8" font-family="Helvetica,sans-Serif" font-size="11.00" fill="#000000">&lt; 2</text>
<polygon fill="#ffffff" stroke="transparent" points="641,-253.7 641,-272.7 692,-272.7 692,-253.7 641,-253.7"/>
<polygon fill="none" stroke="#000000" points="641,-253.7 641,-272.7 692,-272.7 692,-253.7 641,-253.7"/>
<text text-anchor="start" x="682.8862" y="-259.8" font-family="Helvetica,sans-Serif" font-size="11.00" fill="#000000"> &#160;</text>
<polygon fill="#ffffff" stroke="transparent" points="692,-253.7 692,-272.7 743,-272.7 743,-253.7 692,-253.7"/>
<polygon fill="none" stroke="#000000" points="692,-253.7 692,-272.7 743,-272.7 743,-253.7 692,-253.7"/>
<text text-anchor="start" x="733.8862" y="-259.8" font-family="Helvetica,sans-Serif" font-size="11.00" fill="#000000"> &#160;</text>
</a>
</g>
</g>
<!-- act_ru_case_sentry_part&#45;&gt;act_ru_case_execution -->
<g id="edge2" class="edge">
<title>act_ru_case_sentry_part:w&#45;&gt;act_ru_case_execution:e</title>
<path fill="none" stroke="#000000" d="M528.4965,-280.271C519.772,-279.3744 510.8992,-278.4037 502.0998,-277.4149"/>
<polygon fill="#000000" stroke="#000000" points="535.0385,-280.9155 542.647,-285.2827 539.0193,-281.3078 543,-281.7 543,-281.7 543,-281.7 539.0193,-281.3078 543.353,-278.1173 535.0385,-280.9155 535.0385,-280.9155"/>
<ellipse fill="none" stroke="#000000" cx="531.854" cy="-280.6017" rx="3.2" ry="3.2"/>
</g>
<!-- act_ru_case_sentry_part&#45;&gt;act_ru_case_execution -->
<g id="edge3" class="edge">
<title>act_ru_case_sentry_part:w&#45;&gt;act_ru_case_execution:e</title>
<path fill="none" stroke="#000000" d="M528.4965,-282.9568C519.772,-283.5278 510.8992,-283.7961 502.0998,-283.8175"/>
<polygon fill="#000000" stroke="#000000" points="535.0299,-282.3907 543.3108,-285.2866 539.0149,-282.0453 543,-281.7 543,-281.7 543,-281.7 539.0149,-282.0453 542.6892,-278.1134 535.0299,-282.3907 535.0299,-282.3907"/>
<ellipse fill="none" stroke="#000000" cx="531.8418" cy="-282.667" rx="3.2" ry="3.2"/>
</g>
<!-- act_ru_execution -->
<g id="node4" class="node">
<title>act_ru_execution</title>
<g id="a_node4"><a xlink:href="../../tables/act_ru_execution.html" xlink:title="act_ru_execution" target="_top">
<polygon fill="#ffffff" stroke="transparent" points="323.5,-145.2 323.5,-206.2 475.5,-206.2 475.5,-145.2 323.5,-145.2"/>
<polygon fill="#f5f5f5" stroke="transparent" points="323.5,-182.7 323.5,-205.7 475.5,-205.7 475.5,-182.7 323.5,-182.7"/>
<polygon fill="none" stroke="#000000" points="323.5,-182.7 323.5,-205.7 475.5,-205.7 475.5,-182.7 323.5,-182.7"/>
<text text-anchor="start" x="328.5" y="-191.3" font-family="Helvetica,sans-Serif" font-weight="bold" font-size="11.00" fill="#000000">act_ru_execution</text>
<text text-anchor="start" x="441.0219" y="-190.8" font-family="Helvetica,sans-Serif" font-size="11.00" fill="#000000">[table]</text>
<polygon fill="none" stroke="#000000" points="323.5,-163.7 323.5,-182.7 475.5,-182.7 475.5,-163.7 323.5,-163.7"/>
<text text-anchor="start" x="326.5" y="-169.8" font-family="Helvetica,sans-Serif" font-size="11.00" fill="#000000">...</text>
<polygon fill="#ffffff" stroke="transparent" points="323.5,-144.7 323.5,-163.7 390.5,-163.7 390.5,-144.7 323.5,-144.7"/>
<polygon fill="none" stroke="#000000" points="323.5,-144.7 323.5,-163.7 390.5,-163.7 390.5,-144.7 323.5,-144.7"/>
<text text-anchor="start" x="326.5" y="-150.8" font-family="Helvetica,sans-Serif" font-size="11.00" fill="#000000">&lt; 4</text>
<polygon fill="#ffffff" stroke="transparent" points="390.5,-144.7 390.5,-163.7 425.5,-163.7 425.5,-144.7 390.5,-144.7"/>
<polygon fill="none" stroke="#000000" points="390.5,-144.7 390.5,-163.7 425.5,-163.7 425.5,-144.7 390.5,-144.7"/>
<text text-anchor="start" x="416.3862" y="-150.8" font-family="Helvetica,sans-Serif" font-size="11.00" fill="#000000"> &#160;</text>
<polygon fill="#ffffff" stroke="transparent" points="425.5,-144.7 425.5,-163.7 475.5,-163.7 475.5,-144.7 425.5,-144.7"/>
<polygon fill="none" stroke="#000000" points="425.5,-144.7 425.5,-163.7 475.5,-163.7 475.5,-144.7 425.5,-144.7"/>
<text text-anchor="start" x="450.7904" y="-150.8" font-family="Helvetica,sans-Serif" font-size="11.00" fill="#000000">11 &gt;</text>
</a>
</g>
</g>
<!-- act_re_procdef -->
<g id="node5" class="node">
<title>act_re_procdef</title>
<g id="a_node5"><a xlink:href="../../tables/act_re_procdef.html" xlink:title="act_re_procdef" target="_top">
<polygon fill="#ffffff" stroke="transparent" points="63.5,-38.2 63.5,-99.2 200.5,-99.2 200.5,-38.2 63.5,-38.2"/>
<polygon fill="#f5f5f5" stroke="transparent" points="64,-75.7 64,-98.7 201,-98.7 201,-75.7 64,-75.7"/>
<polygon fill="none" stroke="#000000" points="64,-75.7 64,-98.7 201,-98.7 201,-75.7 64,-75.7"/>
<text text-anchor="start" x="69" y="-84.3" font-family="Helvetica,sans-Serif" font-weight="bold" font-size="11.00" fill="#000000">act_re_procdef</text>
<text text-anchor="start" x="166.5219" y="-83.8" font-family="Helvetica,sans-Serif" font-size="11.00" fill="#000000">[table]</text>
<polygon fill="none" stroke="#000000" points="64,-56.7 64,-75.7 201,-75.7 201,-56.7 64,-56.7"/>
<text text-anchor="start" x="67" y="-62.8" font-family="Helvetica,sans-Serif" font-size="11.00" fill="#000000">...</text>
<polygon fill="#ffffff" stroke="transparent" points="64,-37.7 64,-56.7 122,-56.7 122,-37.7 64,-37.7"/>
<polygon fill="none" stroke="#000000" points="64,-37.7 64,-56.7 122,-56.7 122,-37.7 64,-37.7"/>
<text text-anchor="start" x="67" y="-43.8" font-family="Helvetica,sans-Serif" font-size="11.00" fill="#000000"> &#160;</text>
<polygon fill="#ffffff" stroke="transparent" points="122,-37.7 122,-56.7 157,-56.7 157,-37.7 122,-37.7"/>
<polygon fill="none" stroke="#000000" points="122,-37.7 122,-56.7 157,-56.7 157,-37.7 122,-37.7"/>
<text text-anchor="start" x="147.8862" y="-43.8" font-family="Helvetica,sans-Serif" font-size="11.00" fill="#000000"> &#160;</text>
<polygon fill="#ffffff" stroke="transparent" points="157,-37.7 157,-56.7 201,-56.7 201,-37.7 157,-37.7"/>
<polygon fill="none" stroke="#000000" points="157,-37.7 157,-56.7 201,-56.7 201,-37.7 157,-37.7"/>
<text text-anchor="start" x="182.4053" y="-43.8" font-family="Helvetica,sans-Serif" font-size="11.00" fill="#000000">4 &gt;</text>
</a>
</g>
</g>
<!-- act_ru_execution&#45;&gt;act_re_procdef -->
<g id="edge4" class="edge">
<title>act_ru_execution:w&#45;&gt;act_re_procdef:e</title>
<path fill="none" stroke="#000000" d="M309.1607,-170.3638C286.5907,-161.745 288.8331,-131.1231 264,-109.7 238.1401,-87.3911 235.1529,-65.7 201,-65.7"/>
<polygon fill="#000000" stroke="#000000" points="315.6041,-171.4135 322.9211,-176.2532 319.5521,-172.0568 323.5,-172.7 323.5,-172.7 323.5,-172.7 319.5521,-172.0568 324.0789,-169.1468 315.6041,-171.4135 315.6041,-171.4135"/>
<ellipse fill="none" stroke="#000000" cx="312.4457" cy="-170.899" rx="3.2" ry="3.2"/>
</g>
<!-- act_ru_identitylink -->
<g id="node6" class="node">
<title>act_ru_identitylink</title>
<g id="a_node6"><a xlink:href="../../tables/act_ru_identitylink.html" xlink:title="act_ru_identitylink" target="_top">
<polygon fill="#ffffff" stroke="transparent" points="792,-65.2 792,-126.2 955,-126.2 955,-65.2 792,-65.2"/>
<polygon fill="#f5f5f5" stroke="transparent" points="792.5,-102.7 792.5,-125.7 955.5,-125.7 955.5,-102.7 792.5,-102.7"/>
<polygon fill="none" stroke="#000000" points="792.5,-102.7 792.5,-125.7 955.5,-125.7 955.5,-102.7 792.5,-102.7"/>
<text text-anchor="start" x="797.5" y="-111.3" font-family="Helvetica,sans-Serif" font-weight="bold" font-size="11.00" fill="#000000">act_ru_identitylink</text>
<text text-anchor="start" x="921.0219" y="-110.8" font-family="Helvetica,sans-Serif" font-size="11.00" fill="#000000">[table]</text>
<polygon fill="none" stroke="#000000" points="792.5,-83.7 792.5,-102.7 955.5,-102.7 955.5,-83.7 792.5,-83.7"/>
<text text-anchor="start" x="795.5" y="-89.8" font-family="Helvetica,sans-Serif" font-size="11.00" fill="#000000">...</text>
<polygon fill="#ffffff" stroke="transparent" points="792.5,-64.7 792.5,-83.7 872.5,-83.7 872.5,-64.7 792.5,-64.7"/>
<polygon fill="none" stroke="#000000" points="792.5,-64.7 792.5,-83.7 872.5,-83.7 872.5,-64.7 792.5,-64.7"/>
<text text-anchor="start" x="795.5" y="-70.8" font-family="Helvetica,sans-Serif" font-size="11.00" fill="#000000">&lt; 2</text>
<polygon fill="#ffffff" stroke="transparent" points="872.5,-64.7 872.5,-83.7 913.5,-83.7 913.5,-64.7 872.5,-64.7"/>
<polygon fill="none" stroke="#000000" points="872.5,-64.7 872.5,-83.7 913.5,-83.7 913.5,-64.7 872.5,-64.7"/>
<text text-anchor="start" x="904.3862" y="-70.8" font-family="Helvetica,sans-Serif" font-size="11.00" fill="#000000"> &#160;</text>
<polygon fill="#ffffff" stroke="transparent" points="913.5,-64.7 913.5,-83.7 955.5,-83.7 955.5,-64.7 913.5,-64.7"/>
<polygon fill="none" stroke="#000000" points="913.5,-64.7 913.5,-83.7 955.5,-83.7 955.5,-64.7 913.5,-64.7"/>
<text text-anchor="start" x="946.3862" y="-70.8" font-family="Helvetica,sans-Serif" font-size="11.00" fill="#000000"> &#160;</text>
</a>
</g>
</g>
<!-- act_ru_identitylink&#45;&gt;act_re_procdef -->
<g id="edge5" class="edge">
<title>act_ru_identitylink:w&#45;&gt;act_re_procdef:e</title>
<path fill="none" stroke="#000000" d="M778.1506,-90.3224C769.6726,-87.2046 764.1087,-81.8762 751,-79.7 509.7778,-39.6546 445.5236,-65.7 201,-65.7"/>
<polygon fill="#000000" stroke="#000000" points="784.6076,-91.3922 791.9115,-96.2516 788.5538,-92.0461 792.5,-92.7 792.5,-92.7 792.5,-92.7 788.5538,-92.0461 793.0885,-89.1484 784.6076,-91.3922 784.6076,-91.3922"/>
<ellipse fill="none" stroke="#000000" cx="781.4506" cy="-90.8691" rx="3.2" ry="3.2"/>
</g>
<!-- act_ru_task -->
<g id="node7" class="node">
<title>act_ru_task</title>
<g id="a_node7"><a xlink:href="../../tables/act_ru_task.html" xlink:title="act_ru_task" target="_top">
<polygon fill="#ffffff" stroke="transparent" points="585.5,-90.2 585.5,-151.2 700.5,-151.2 700.5,-90.2 585.5,-90.2"/>
<polygon fill="#f5f5f5" stroke="transparent" points="586,-127.7 586,-150.7 701,-150.7 701,-127.7 586,-127.7"/>
<polygon fill="none" stroke="#000000" points="586,-127.7 586,-150.7 701,-150.7 701,-127.7 586,-127.7"/>
<text text-anchor="start" x="591" y="-136.3" font-family="Helvetica,sans-Serif" font-weight="bold" font-size="11.00" fill="#000000">act_ru_task</text>
<text text-anchor="start" x="666.5219" y="-135.8" font-family="Helvetica,sans-Serif" font-size="11.00" fill="#000000">[table]</text>
<polygon fill="none" stroke="#000000" points="586,-108.7 586,-127.7 701,-127.7 701,-108.7 586,-108.7"/>
<text text-anchor="start" x="589" y="-114.8" font-family="Helvetica,sans-Serif" font-size="11.00" fill="#000000">...</text>
<polygon fill="#ffffff" stroke="transparent" points="586,-89.7 586,-108.7 637,-108.7 637,-89.7 586,-89.7"/>
<polygon fill="none" stroke="#000000" points="586,-89.7 586,-108.7 637,-108.7 637,-89.7 586,-89.7"/>
<text text-anchor="start" x="589" y="-95.8" font-family="Helvetica,sans-Serif" font-size="11.00" fill="#000000">&lt; 5</text>
<polygon fill="#ffffff" stroke="transparent" points="637,-89.7 637,-108.7 664,-108.7 664,-89.7 637,-89.7"/>
<polygon fill="none" stroke="#000000" points="637,-89.7 637,-108.7 664,-108.7 664,-89.7 637,-89.7"/>
<text text-anchor="start" x="654.8862" y="-95.8" font-family="Helvetica,sans-Serif" font-size="11.00" fill="#000000"> &#160;</text>
<polygon fill="#ffffff" stroke="transparent" points="664,-89.7 664,-108.7 701,-108.7 701,-89.7 664,-89.7"/>
<polygon fill="none" stroke="#000000" points="664,-89.7 664,-108.7 701,-108.7 701,-89.7 664,-89.7"/>
<text text-anchor="start" x="682.4053" y="-95.8" font-family="Helvetica,sans-Serif" font-size="11.00" fill="#000000">1 &gt;</text>
</a>
</g>
</g>
<!-- act_ru_identitylink&#45;&gt;act_ru_task -->
<g id="edge6" class="edge">
<title>act_ru_identitylink:w&#45;&gt;act_ru_task:e</title>
<path fill="none" stroke="#000000" d="M778.024,-93.0978C754.5406,-94.3442 730.1897,-98.3655 708.7412,-102.9672"/>
<polygon fill="#000000" stroke="#000000" points="784.503,-92.9198 792.5989,-96.2986 788.5015,-92.8099 792.5,-92.7 792.5,-92.7 792.5,-92.7 788.5015,-92.8099 792.4011,-89.1014 784.503,-92.9198 784.503,-92.9198"/>
<ellipse fill="none" stroke="#000000" cx="781.3042" cy="-93.0078" rx="3.2" ry="3.2"/>
</g>
<!-- act_ru_task&#45;&gt;act_ru_case_execution -->
<g id="edge8" class="edge">
<title>act_ru_task:w&#45;&gt;act_ru_case_execution:e</title>
<path fill="none" stroke="#000000" d="M564.1559,-143.411C553.7177,-148.4249 543.6531,-154.4618 535,-161.7 513.1344,-179.9904 522.7843,-197.1896 502,-216.7 494.7699,-223.4869 486.5036,-229.6308 477.8721,-235.1265"/>
<polygon fill="#000000" stroke="#000000" points="570.1658,-140.7908 578.9379,-140.8936 573.8325,-139.1922 577.4992,-137.5936 577.4992,-137.5936 577.4992,-137.5936 573.8325,-139.1922 576.0605,-134.2936 570.1658,-140.7908 570.1658,-140.7908"/>
<ellipse fill="none" stroke="#000000" cx="567.2325" cy="-142.0697" rx="3.2" ry="3.2"/>
</g>
<!-- act_ru_task&#45;&gt;act_re_case_def -->
<g id="edge7" class="edge">
<title>act_ru_task:w&#45;&gt;act_re_case_def:e</title>
<path fill="none" stroke="#000000" d="M562.9379,-112.8477C473.1994,-105.9081 335.2297,-101.423 297,-134.7 215.9227,-205.2736 361.4903,-372.7 254,-372.7"/>
<polygon fill="#000000" stroke="#000000" points="569.4773,-113.3774 577.1605,-117.6116 573.4643,-113.7004 577.4512,-114.0234 577.4512,-114.0234 577.4512,-114.0234 573.4643,-113.7004 577.7419,-110.4351 569.4773,-113.3774 569.4773,-113.3774"/>
<ellipse fill="none" stroke="#000000" cx="566.2878" cy="-113.119" rx="3.2" ry="3.2"/>
</g>
<!-- act_ru_task&#45;&gt;act_ru_execution -->
<g id="edge9" class="edge">
<title>act_ru_task:w&#45;&gt;act_ru_execution:e</title>
<path fill="none" stroke="#000000" d="M563.3662,-145.8803C529.2172,-157.8144 493.1628,-169.9809 475.5,-172.7"/>
<polygon fill="#000000" stroke="#000000" points="569.7704,-143.634 578.511,-144.3831 573.5449,-142.31 577.3194,-140.986 577.3194,-140.986 577.3194,-140.986 573.5449,-142.31 576.1279,-137.589 569.7704,-143.634 569.7704,-143.634"/>
<ellipse fill="none" stroke="#000000" cx="566.7507" cy="-144.6932" rx="3.2" ry="3.2"/>
</g>
<!-- act_ru_task&#45;&gt;act_ru_execution -->
<g id="edge11" class="edge">
<title>act_ru_task:w&#45;&gt;act_ru_execution:e</title>
<path fill="none" stroke="#000000" d="M563.3662,-155.5448C529.2172,-166.9273 493.1628,-175.8723 475.5,-172.7"/>
<polygon fill="#000000" stroke="#000000" points="569.7576,-153.3378 578.4945,-154.1294 573.5385,-152.0321 577.3194,-150.7265 577.3194,-150.7265 577.3194,-150.7265 573.5385,-152.0321 576.1444,-147.3237 569.7576,-153.3378 569.7576,-153.3378"/>
<ellipse fill="none" stroke="#000000" cx="566.7329" cy="-154.3823" rx="3.2" ry="3.2"/>
</g>
<!-- act_ru_task&#45;&gt;act_re_procdef -->
<g id="edge10" class="edge">
<title>act_ru_task:w&#45;&gt;act_re_procdef:e</title>
<path fill="none" stroke="#000000" d="M562.9963,-110.2255C440.5424,-94.2677 218.8338,-65.7 201,-65.7"/>
<polygon fill="#000000" stroke="#000000" points="569.4844,-111.0716 576.9517,-115.676 573.4508,-111.5889 577.4173,-112.1063 577.4173,-112.1063 577.4173,-112.1063 573.4508,-111.5889 577.8828,-108.5365 569.4844,-111.0716 569.4844,-111.0716"/>
<ellipse fill="none" stroke="#000000" cx="566.3113" cy="-110.6577" rx="3.2" ry="3.2"/>
</g>
<!-- act_ru_variable -->
<g id="node8" class="node">
<title>act_ru_variable</title>
<g id="a_node8"><a xlink:href="../../tables/act_ru_variable.html" xlink:title="act_ru_variable" target="_top">
<polygon fill="#ffffff" stroke="transparent" points="572.5,-172.2 572.5,-233.2 713.5,-233.2 713.5,-172.2 572.5,-172.2"/>
<polygon fill="#f5f5f5" stroke="transparent" points="573,-209.7 573,-232.7 714,-232.7 714,-209.7 573,-209.7"/>
<polygon fill="none" stroke="#000000" points="573,-209.7 573,-232.7 714,-232.7 714,-209.7 573,-209.7"/>
<text text-anchor="start" x="578" y="-218.3" font-family="Helvetica,sans-Serif" font-weight="bold" font-size="11.00" fill="#000000">act_ru_variable</text>
<text text-anchor="start" x="679.5219" y="-217.8" font-family="Helvetica,sans-Serif" font-size="11.00" fill="#000000">[table]</text>
<polygon fill="none" stroke="#000000" points="573,-190.7 573,-209.7 714,-209.7 714,-190.7 573,-190.7"/>
<text text-anchor="start" x="576" y="-196.8" font-family="Helvetica,sans-Serif" font-size="11.00" fill="#000000">...</text>
<polygon fill="#ffffff" stroke="transparent" points="573,-171.7 573,-190.7 642,-190.7 642,-171.7 573,-171.7"/>
<polygon fill="none" stroke="#000000" points="573,-171.7 573,-190.7 642,-190.7 642,-171.7 573,-171.7"/>
<text text-anchor="start" x="576" y="-177.8" font-family="Helvetica,sans-Serif" font-size="11.00" fill="#000000">&lt; 6</text>
<polygon fill="#ffffff" stroke="transparent" points="642,-171.7 642,-190.7 678,-190.7 678,-171.7 642,-171.7"/>
<polygon fill="none" stroke="#000000" points="642,-171.7 642,-190.7 678,-190.7 678,-171.7 642,-171.7"/>
<text text-anchor="start" x="668.8862" y="-177.8" font-family="Helvetica,sans-Serif" font-size="11.00" fill="#000000"> &#160;</text>
<polygon fill="#ffffff" stroke="transparent" points="678,-171.7 678,-190.7 714,-190.7 714,-171.7 678,-171.7"/>
<polygon fill="none" stroke="#000000" points="678,-171.7 678,-190.7 714,-190.7 714,-171.7 678,-171.7"/>
<text text-anchor="start" x="704.8862" y="-177.8" font-family="Helvetica,sans-Serif" font-size="11.00" fill="#000000"> &#160;</text>
</a>
</g>
</g>
<!-- act_ru_variable&#45;&gt;act_ru_case_execution -->
<g id="edge12" class="edge">
<title>act_ru_variable:w&#45;&gt;act_ru_case_execution:e</title>
<path fill="none" stroke="#000000" d="M558.3372,-200C532.6832,-203.4025 493.2422,-219.3314 460.0816,-235.147"/>
<polygon fill="#000000" stroke="#000000" points="565.0017,-199.8637 573.0737,-203.2992 569.0008,-199.7818 573,-199.7 573,-199.7 573,-199.7 569.0008,-199.7818 572.9263,-196.1008 565.0017,-199.8637 565.0017,-199.8637"/>
<ellipse fill="none" stroke="#000000" cx="561.8023" cy="-199.9292" rx="3.2" ry="3.2"/>
</g>
<!-- act_ru_variable&#45;&gt;act_ru_case_execution -->
<g id="edge13" class="edge">
<title>act_ru_variable:w&#45;&gt;act_ru_case_execution:e</title>
<path fill="none" stroke="#000000" d="M558.7964,-203.3116C538.4822,-209.6631 509.3338,-222.3577 481.511,-234.9964"/>
<polygon fill="#000000" stroke="#000000" points="565.2467,-201.6715 573.8872,-203.189 569.1234,-200.6858 573,-199.7 573,-199.7 573,-199.7 569.1234,-200.6858 572.1128,-196.211 565.2467,-201.6715 565.2467,-201.6715"/>
<ellipse fill="none" stroke="#000000" cx="562.1454" cy="-202.4601" rx="3.2" ry="3.2"/>
</g>
<!-- act_ru_variable&#45;&gt;act_ru_execution -->
<g id="edge14" class="edge">
<title>act_ru_variable:w&#45;&gt;act_ru_execution:e</title>
<path fill="none" stroke="#000000" d="M558.6125,-196.8124C525.7477,-187.8251 515.1949,-167.4031 475.5,-172.7"/>
<polygon fill="#000000" stroke="#000000" points="565.1564,-198.1257 572.2916,-203.2296 569.0782,-198.9129 573,-199.7 573,-199.7 573,-199.7 569.0782,-198.9129 573.7084,-196.1704 565.1564,-198.1257 565.1564,-198.1257"/>
<ellipse fill="none" stroke="#000000" cx="562.019" cy="-197.496" rx="3.2" ry="3.2"/>
</g>
<!-- act_ru_variable&#45;&gt;act_ru_execution -->
<g id="edge15" class="edge">
<title>act_ru_variable:w&#45;&gt;act_ru_execution:e</title>
<path fill="none" stroke="#000000" d="M558.6125,-200.8471C525.7477,-200.6465 515.1949,-178.8797 475.5,-172.7"/>
<polygon fill="#000000" stroke="#000000" points="565.0253,-200.3359 573.2861,-203.2886 569.0127,-200.0179 573,-199.7 573,-199.7 573,-199.7 569.0127,-200.0179 572.7139,-196.1114 565.0253,-200.3359 565.0253,-200.3359"/>
<ellipse fill="none" stroke="#000000" cx="561.8354" cy="-200.5902" rx="3.2" ry="3.2"/>
</g>
</g>
</svg>
