<?xml version="1.0" encoding="UTF-8" standalone="no"?>
<!DOCTYPE svg PUBLIC "-//W3C//DTD SVG 1.1//EN"
 "http://www.w3.org/Graphics/SVG/1.1/DTD/svg11.dtd">
<!-- Generated by graphviz version 2.40.1 (20161225.0304)
 -->
<!-- Title: oneDegreeRelationshipsDiagram Pages: 1 -->
<svg width="519pt" height="404pt"
 viewBox="0.00 0.00 519.00 404.20" xmlns="http://www.w3.org/2000/svg" xmlns:xlink="http://www.w3.org/1999/xlink">
<g id="graph0" class="graph" transform="scale(1 1) rotate(0) translate(4 400.2)">
<title>oneDegreeRelationshipsDiagram</title>
<polygon fill="#ffffff" stroke="transparent" points="-4,4 -4,-400.2 515,-400.2 515,4 -4,4"/>
<text text-anchor="middle" x="72.4936" y="-7.3" font-family="Helvetica,sans-Serif" font-size="11.00" fill="#000000">Generated by SchemaSpy</text>
<!-- act_re_decision_def -->
<g id="node1" class="node">
<title>act_re_decision_def</title>
<g id="a_node1"><a xlink:href="../../tables/act_re_decision_def.html" xlink:title="act_re_decision_def" target="_top">
<polygon fill="#ffffff" stroke="transparent" points="255,-38.2 255,-392.2 503,-392.2 503,-38.2 255,-38.2"/>
<polygon fill="#f5f5f5" stroke="transparent" points="257,-367.2 257,-390.2 501,-390.2 501,-367.2 257,-367.2"/>
<polygon fill="none" stroke="#000000" points="257,-367.2 257,-390.2 501,-390.2 501,-367.2 257,-367.2"/>
<text text-anchor="start" x="262" y="-375.8" font-family="Helvetica,sans-Serif" font-weight="bold" font-size="11.00" fill="#000000">act_re_decision_def</text>
<text text-anchor="start" x="466.0437" y="-375.3" font-family="Helvetica,sans-Serif" font-size="11.00" fill="#000000">[table]</text>
<polygon fill="none" stroke="#000000" points="257,-345.2 257,-367.2 428,-367.2 428,-345.2 257,-345.2"/>
<image xlink:href="../../images/primaryKeys.png" width="11px" height="12px" preserveAspectRatio="xMinYMin meet" x="262" y="-362.2"/>
<text text-anchor="start" x="277" y="-352.3" font-family="Helvetica,sans-Serif" font-size="11.00" fill="#000000">id_</text>
<polygon fill="none" stroke="#000000" points="428,-345.2 428,-367.2 501,-367.2 501,-345.2 428,-345.2"/>
<text text-anchor="start" x="431" y="-352.9" font-family="Helvetica,sans-Serif" font-size="11.00" fill="#000000">varchar[64]</text>
<polygon fill="none" stroke="#000000" points="257,-323.2 257,-345.2 428,-345.2 428,-323.2 257,-323.2"/>
<text text-anchor="start" x="277" y="-330.3" font-family="Helvetica,sans-Serif" font-size="11.00" fill="#000000">rev_</text>
<polygon fill="none" stroke="#000000" points="428,-323.2 428,-345.2 501,-345.2 501,-323.2 428,-323.2"/>
<text text-anchor="start" x="431" y="-330.9" font-family="Helvetica,sans-Serif" font-size="11.00" fill="#000000">int4[10]</text>
<polygon fill="none" stroke="#000000" points="257,-301.2 257,-323.2 428,-323.2 428,-301.2 257,-301.2"/>
<text text-anchor="start" x="277" y="-308.3" font-family="Helvetica,sans-Serif" font-size="11.00" fill="#000000">category_</text>
<polygon fill="none" stroke="#000000" points="428,-301.2 428,-323.2 501,-323.2 501,-301.2 428,-301.2"/>
<text text-anchor="start" x="431" y="-308.9" font-family="Helvetica,sans-Serif" font-size="11.00" fill="#000000">varchar[255]</text>
<polygon fill="none" stroke="#000000" points="257,-279.2 257,-301.2 428,-301.2 428,-279.2 257,-279.2"/>
<text text-anchor="start" x="277" y="-286.3" font-family="Helvetica,sans-Serif" font-size="11.00" fill="#000000">name_</text>
<polygon fill="none" stroke="#000000" points="428,-279.2 428,-301.2 501,-301.2 501,-279.2 428,-279.2"/>
<text text-anchor="start" x="431" y="-286.9" font-family="Helvetica,sans-Serif" font-size="11.00" fill="#000000">varchar[255]</text>
<polygon fill="none" stroke="#000000" points="257,-257.2 257,-279.2 428,-279.2 428,-257.2 257,-257.2"/>
<text text-anchor="start" x="277" y="-264.3" font-family="Helvetica,sans-Serif" font-size="11.00" fill="#000000">key_</text>
<polygon fill="none" stroke="#000000" points="428,-257.2 428,-279.2 501,-279.2 501,-257.2 428,-257.2"/>
<text text-anchor="start" x="431" y="-264.9" font-family="Helvetica,sans-Serif" font-size="11.00" fill="#000000">varchar[255]</text>
<polygon fill="none" stroke="#000000" points="257,-235.2 257,-257.2 428,-257.2 428,-235.2 257,-235.2"/>
<text text-anchor="start" x="277" y="-242.3" font-family="Helvetica,sans-Serif" font-size="11.00" fill="#000000">version_</text>
<polygon fill="none" stroke="#000000" points="428,-235.2 428,-257.2 501,-257.2 501,-235.2 428,-235.2"/>
<text text-anchor="start" x="431" y="-242.9" font-family="Helvetica,sans-Serif" font-size="11.00" fill="#000000">int4[10]</text>
<polygon fill="none" stroke="#000000" points="257,-213.2 257,-235.2 428,-235.2 428,-213.2 257,-213.2"/>
<text text-anchor="start" x="277" y="-220.3" font-family="Helvetica,sans-Serif" font-size="11.00" fill="#000000">deployment_id_</text>
<polygon fill="none" stroke="#000000" points="428,-213.2 428,-235.2 501,-235.2 501,-213.2 428,-213.2"/>
<text text-anchor="start" x="431" y="-220.9" font-family="Helvetica,sans-Serif" font-size="11.00" fill="#000000">varchar[64]</text>
<polygon fill="none" stroke="#000000" points="257,-191.2 257,-213.2 428,-213.2 428,-191.2 257,-191.2"/>
<text text-anchor="start" x="277" y="-198.3" font-family="Helvetica,sans-Serif" font-size="11.00" fill="#000000">resource_name_</text>
<polygon fill="none" stroke="#000000" points="428,-191.2 428,-213.2 501,-213.2 501,-191.2 428,-191.2"/>
<text text-anchor="start" x="430.8791" y="-198.9" font-family="Helvetica,sans-Serif" font-size="11.00" fill="#000000">varchar[4000]</text>
<polygon fill="none" stroke="#000000" points="257,-169.2 257,-191.2 428,-191.2 428,-169.2 257,-169.2"/>
<text text-anchor="start" x="277" y="-176.3" font-family="Helvetica,sans-Serif" font-size="11.00" fill="#000000">dgrm_resource_name_</text>
<polygon fill="none" stroke="#000000" points="428,-169.2 428,-191.2 501,-191.2 501,-169.2 428,-169.2"/>
<text text-anchor="start" x="430.8791" y="-176.9" font-family="Helvetica,sans-Serif" font-size="11.00" fill="#000000">varchar[4000]</text>
<polygon fill="#ffffff" stroke="transparent" points="257,-147.2 257,-169.2 428,-169.2 428,-147.2 257,-147.2"/>
<polygon fill="none" stroke="#000000" points="257,-147.2 257,-169.2 428,-169.2 428,-147.2 257,-147.2"/>
<image xlink:href="../../images/foreignKeys.png" width="11px" height="12px" preserveAspectRatio="xMinYMin meet" x="262" y="-164.2"/>
<text text-anchor="start" x="277" y="-154.3" font-family="Helvetica,sans-Serif" font-size="11.00" fill="#000000">dec_req_id_</text>
<polygon fill="none" stroke="#000000" points="428,-147.2 428,-169.2 501,-169.2 501,-147.2 428,-147.2"/>
<text text-anchor="start" x="431" y="-154.9" font-family="Helvetica,sans-Serif" font-size="11.00" fill="#000000">varchar[64]</text>
<polygon fill="none" stroke="#000000" points="257,-125.2 257,-147.2 428,-147.2 428,-125.2 257,-125.2"/>
<text text-anchor="start" x="277" y="-132.3" font-family="Helvetica,sans-Serif" font-size="11.00" fill="#000000">dec_req_key_</text>
<polygon fill="none" stroke="#000000" points="428,-125.2 428,-147.2 501,-147.2 501,-125.2 428,-125.2"/>
<text text-anchor="start" x="431" y="-132.9" font-family="Helvetica,sans-Serif" font-size="11.00" fill="#000000">varchar[255]</text>
<polygon fill="#ffffff" stroke="transparent" points="257,-103.2 257,-125.2 428,-125.2 428,-103.2 257,-103.2"/>
<polygon fill="none" stroke="#000000" points="257,-103.2 257,-125.2 428,-125.2 428,-103.2 257,-103.2"/>
<text text-anchor="start" x="277" y="-110.3" font-family="Helvetica,sans-Serif" font-size="11.00" fill="#000000">tenant_id_</text>
<polygon fill="none" stroke="#000000" points="428,-103.2 428,-125.2 501,-125.2 501,-103.2 428,-103.2"/>
<text text-anchor="start" x="431" y="-110.9" font-family="Helvetica,sans-Serif" font-size="11.00" fill="#000000">varchar[64]</text>
<polygon fill="none" stroke="#000000" points="257,-81.2 257,-103.2 428,-103.2 428,-81.2 257,-81.2"/>
<text text-anchor="start" x="277" y="-88.3" font-family="Helvetica,sans-Serif" font-size="11.00" fill="#000000">history_ttl_</text>
<polygon fill="none" stroke="#000000" points="428,-81.2 428,-103.2 501,-103.2 501,-81.2 428,-81.2"/>
<text text-anchor="start" x="431" y="-88.9" font-family="Helvetica,sans-Serif" font-size="11.00" fill="#000000">int4[10]</text>
<polygon fill="none" stroke="#000000" points="257,-59.2 257,-81.2 428,-81.2 428,-59.2 257,-59.2"/>
<text text-anchor="start" x="277" y="-66.3" font-family="Helvetica,sans-Serif" font-size="11.00" fill="#000000">version_tag_</text>
<polygon fill="none" stroke="#000000" points="428,-59.2 428,-81.2 501,-81.2 501,-59.2 428,-59.2"/>
<text text-anchor="start" x="431" y="-66.9" font-family="Helvetica,sans-Serif" font-size="11.00" fill="#000000">varchar[64]</text>
<polygon fill="#ffffff" stroke="transparent" points="257,-40.2 257,-59.2 347,-59.2 347,-40.2 257,-40.2"/>
<polygon fill="none" stroke="#000000" points="257,-40.2 257,-59.2 347,-59.2 347,-40.2 257,-40.2"/>
<text text-anchor="start" x="260" y="-46.3" font-family="Helvetica,sans-Serif" font-size="11.00" fill="#000000">&lt; 1</text>
<polygon fill="#ffffff" stroke="transparent" points="347,-40.2 347,-59.2 428,-59.2 428,-40.2 347,-40.2"/>
<polygon fill="none" stroke="#000000" points="347,-40.2 347,-59.2 428,-59.2 428,-40.2 347,-40.2"/>
<text text-anchor="start" x="418.8862" y="-46.3" font-family="Helvetica,sans-Serif" font-size="11.00" fill="#000000"> &#160;</text>
<polygon fill="#ffffff" stroke="transparent" points="428,-40.2 428,-59.2 501,-59.2 501,-40.2 428,-40.2"/>
<polygon fill="none" stroke="#000000" points="428,-40.2 428,-59.2 501,-59.2 501,-40.2 428,-40.2"/>
<text text-anchor="start" x="482.4053" y="-46.3" font-family="Helvetica,sans-Serif" font-size="11.00" fill="#000000">0 &gt;</text>
<polygon fill="none" stroke="#000000" stroke-width="2" points="256,-39.2 256,-391.2 502,-391.2 502,-39.2 256,-39.2"/>
</a>
</g>
</g>
<!-- act_re_decision_req_def -->
<g id="node2" class="node">
<title>act_re_decision_req_def</title>
<g id="a_node2"><a xlink:href="../../tables/act_re_decision_req_def.html" xlink:title="act_re_decision_req_def" target="_top">
<polygon fill="#ffffff" stroke="transparent" points="8,-87.7 8,-192.7 206,-192.7 206,-87.7 8,-87.7"/>
<polygon fill="#f5f5f5" stroke="transparent" points="8,-169.2 8,-192.2 206,-192.2 206,-169.2 8,-169.2"/>
<polygon fill="none" stroke="#000000" points="8,-169.2 8,-192.2 206,-192.2 206,-169.2 8,-169.2"/>
<text text-anchor="start" x="13" y="-177.8" font-family="Helvetica,sans-Serif" font-weight="bold" font-size="11.00" fill="#000000">act_re_decision_req_def</text>
<text text-anchor="start" x="171.5219" y="-177.3" font-family="Helvetica,sans-Serif" font-size="11.00" fill="#000000">[table]</text>
<polygon fill="none" stroke="#000000" points="8,-147.2 8,-169.2 206,-169.2 206,-147.2 8,-147.2"/>
<image xlink:href="../../images/primaryKeys.png" width="11px" height="12px" preserveAspectRatio="xMinYMin meet" x="13" y="-164.2"/>
<text text-anchor="start" x="37" y="-154.3" font-family="Helvetica,sans-Serif" font-size="11.00" fill="#000000">id_</text>
<polygon fill="#ffffff" stroke="transparent" points="8,-125.2 8,-147.2 206,-147.2 206,-125.2 8,-125.2"/>
<polygon fill="none" stroke="#000000" points="8,-125.2 8,-147.2 206,-147.2 206,-125.2 8,-125.2"/>
<text text-anchor="start" x="37" y="-132.3" font-family="Helvetica,sans-Serif" font-size="11.00" fill="#000000">tenant_id_</text>
<polygon fill="none" stroke="#000000" points="8,-106.2 8,-125.2 206,-125.2 206,-106.2 8,-106.2"/>
<text text-anchor="start" x="11" y="-112.3" font-family="Helvetica,sans-Serif" font-size="11.00" fill="#000000">...</text>
<polygon fill="#ffffff" stroke="transparent" points="8,-87.2 8,-106.2 96,-106.2 96,-87.2 8,-87.2"/>
<polygon fill="none" stroke="#000000" points="8,-87.2 8,-106.2 96,-106.2 96,-87.2 8,-87.2"/>
<text text-anchor="start" x="11" y="-93.3" font-family="Helvetica,sans-Serif" font-size="11.00" fill="#000000"> &#160;</text>
<polygon fill="#ffffff" stroke="transparent" points="96,-87.2 96,-106.2 146,-106.2 146,-87.2 96,-87.2"/>
<polygon fill="none" stroke="#000000" points="96,-87.2 96,-106.2 146,-106.2 146,-87.2 96,-87.2"/>
<text text-anchor="start" x="136.8862" y="-93.3" font-family="Helvetica,sans-Serif" font-size="11.00" fill="#000000"> &#160;</text>
<polygon fill="#ffffff" stroke="transparent" points="146,-87.2 146,-106.2 206,-106.2 206,-87.2 146,-87.2"/>
<polygon fill="none" stroke="#000000" points="146,-87.2 146,-106.2 206,-106.2 206,-87.2 146,-87.2"/>
<text text-anchor="start" x="187.4053" y="-93.3" font-family="Helvetica,sans-Serif" font-size="11.00" fill="#000000">1 &gt;</text>
</a>
</g>
</g>
<!-- act_re_decision_def&#45;&gt;act_re_decision_req_def -->
<g id="edge1" class="edge">
<title>act_re_decision_def:w&#45;&gt;act_re_decision_req_def:e</title>
<path fill="none" stroke="#000000" d="M242.276,-158.2C230.2815,-158.2 222.8229,-158.2 206,-158.2"/>
<polygon fill="#000000" stroke="#000000" points="249,-158.2001 257,-161.8 253,-158.2 257,-158.2 257,-158.2 257,-158.2 253,-158.2 257,-154.6 249,-158.2001 249,-158.2001"/>
<ellipse fill="none" stroke="#000000" cx="245.8" cy="-158.2001" rx="3.2" ry="3.2"/>
</g>
</g>
</svg>
