<?xml version="1.0" encoding="UTF-8" standalone="no"?>
<!DOCTYPE svg PUBLIC "-//W3C//DTD SVG 1.1//EN"
 "http://www.w3.org/Graphics/SVG/1.1/DTD/svg11.dtd">
<!-- Generated by graphviz version 2.40.1 (20161225.0304)
 -->
<!-- Title: twoDegreesRelationshipsDiagram Pages: 1 -->
<svg width="694pt" height="869pt"
 viewBox="0.00 0.00 694.00 869.20" xmlns="http://www.w3.org/2000/svg" xmlns:xlink="http://www.w3.org/1999/xlink">
<g id="graph0" class="graph" transform="scale(1 1) rotate(0) translate(4 865.2)">
<title>twoDegreesRelationshipsDiagram</title>
<polygon fill="#ffffff" stroke="transparent" points="-4,4 -4,-865.2 690,-865.2 690,4 -4,4"/>
<text text-anchor="middle" x="72.4936" y="-7.3" font-family="Helvetica,sans-Serif" font-size="11.00" fill="#000000">Generated by SchemaSpy</text>
<!-- act_ge_bytearray -->
<g id="node1" class="node">
<title>act_ge_bytearray</title>
<g id="a_node1"><a xlink:href="../../tables/act_ge_bytearray.html" xlink:title="act_ge_bytearray" target="_top">
<polygon fill="#ffffff" stroke="transparent" points="223,-333.7 223,-621.7 468,-621.7 468,-333.7 223,-333.7"/>
<polygon fill="#f5f5f5" stroke="transparent" points="225.5,-596.7 225.5,-619.7 466.5,-619.7 466.5,-596.7 225.5,-596.7"/>
<polygon fill="none" stroke="#000000" points="225.5,-596.7 225.5,-619.7 466.5,-619.7 466.5,-596.7 225.5,-596.7"/>
<text text-anchor="start" x="230.5" y="-605.3" font-family="Helvetica,sans-Serif" font-weight="bold" font-size="11.00" fill="#000000">act_ge_bytearray</text>
<text text-anchor="start" x="431.5437" y="-604.8" font-family="Helvetica,sans-Serif" font-size="11.00" fill="#000000">[table]</text>
<polygon fill="none" stroke="#000000" points="225.5,-574.7 225.5,-596.7 366.5,-596.7 366.5,-574.7 225.5,-574.7"/>
<image xlink:href="../../images/primaryKeys.png" width="11px" height="12px" preserveAspectRatio="xMinYMin meet" x="230.5" y="-591.7"/>
<text text-anchor="start" x="245.5" y="-581.8" font-family="Helvetica,sans-Serif" font-size="11.00" fill="#000000">id_</text>
<polygon fill="none" stroke="#000000" points="366.5,-574.7 366.5,-596.7 466.5,-596.7 466.5,-574.7 366.5,-574.7"/>
<text text-anchor="start" x="369.5" y="-582.4" font-family="Helvetica,sans-Serif" font-size="11.00" fill="#000000">varchar[64]</text>
<polygon fill="none" stroke="#000000" points="225.5,-552.7 225.5,-574.7 366.5,-574.7 366.5,-552.7 225.5,-552.7"/>
<text text-anchor="start" x="245.5" y="-559.8" font-family="Helvetica,sans-Serif" font-size="11.00" fill="#000000">rev_</text>
<polygon fill="none" stroke="#000000" points="366.5,-552.7 366.5,-574.7 466.5,-574.7 466.5,-552.7 366.5,-552.7"/>
<text text-anchor="start" x="369.5" y="-560.4" font-family="Helvetica,sans-Serif" font-size="11.00" fill="#000000">int4[10]</text>
<polygon fill="#ffffff" stroke="transparent" points="225.5,-530.7 225.5,-552.7 366.5,-552.7 366.5,-530.7 225.5,-530.7"/>
<polygon fill="none" stroke="#000000" points="225.5,-530.7 225.5,-552.7 366.5,-552.7 366.5,-530.7 225.5,-530.7"/>
<text text-anchor="start" x="245.5" y="-537.8" font-family="Helvetica,sans-Serif" font-size="11.00" fill="#000000">name_</text>
<polygon fill="none" stroke="#000000" points="366.5,-530.7 366.5,-552.7 466.5,-552.7 466.5,-530.7 366.5,-530.7"/>
<text text-anchor="start" x="369.5" y="-538.4" font-family="Helvetica,sans-Serif" font-size="11.00" fill="#000000">varchar[255]</text>
<polygon fill="#ffffff" stroke="transparent" points="225.5,-508.7 225.5,-530.7 366.5,-530.7 366.5,-508.7 225.5,-508.7"/>
<polygon fill="none" stroke="#000000" points="225.5,-508.7 225.5,-530.7 366.5,-530.7 366.5,-508.7 225.5,-508.7"/>
<image xlink:href="../../images/foreignKeys.png" width="11px" height="12px" preserveAspectRatio="xMinYMin meet" x="230.5" y="-525.7"/>
<text text-anchor="start" x="245.5" y="-515.8" font-family="Helvetica,sans-Serif" font-size="11.00" fill="#000000">deployment_id_</text>
<polygon fill="none" stroke="#000000" points="366.5,-508.7 366.5,-530.7 466.5,-530.7 466.5,-508.7 366.5,-508.7"/>
<text text-anchor="start" x="369.5" y="-516.4" font-family="Helvetica,sans-Serif" font-size="11.00" fill="#000000">varchar[64]</text>
<polygon fill="none" stroke="#000000" points="225.5,-486.7 225.5,-508.7 366.5,-508.7 366.5,-486.7 225.5,-486.7"/>
<text text-anchor="start" x="245.5" y="-493.8" font-family="Helvetica,sans-Serif" font-size="11.00" fill="#000000">bytes_</text>
<polygon fill="none" stroke="#000000" points="366.5,-486.7 366.5,-508.7 466.5,-508.7 466.5,-486.7 366.5,-486.7"/>
<text text-anchor="start" x="369.4178" y="-494.4" font-family="Helvetica,sans-Serif" font-size="11.00" fill="#000000">bytea[2147483647]</text>
<polygon fill="none" stroke="#000000" points="225.5,-464.7 225.5,-486.7 366.5,-486.7 366.5,-464.7 225.5,-464.7"/>
<text text-anchor="start" x="245.5" y="-471.8" font-family="Helvetica,sans-Serif" font-size="11.00" fill="#000000">generated_</text>
<polygon fill="none" stroke="#000000" points="366.5,-464.7 366.5,-486.7 466.5,-486.7 466.5,-464.7 366.5,-464.7"/>
<text text-anchor="start" x="369.5" y="-472.4" font-family="Helvetica,sans-Serif" font-size="11.00" fill="#000000">bool[1]</text>
<polygon fill="none" stroke="#000000" points="225.5,-442.7 225.5,-464.7 366.5,-464.7 366.5,-442.7 225.5,-442.7"/>
<text text-anchor="start" x="245.5" y="-449.8" font-family="Helvetica,sans-Serif" font-size="11.00" fill="#000000">tenant_id_</text>
<polygon fill="none" stroke="#000000" points="366.5,-442.7 366.5,-464.7 466.5,-464.7 466.5,-442.7 366.5,-442.7"/>
<text text-anchor="start" x="369.5" y="-450.4" font-family="Helvetica,sans-Serif" font-size="11.00" fill="#000000">varchar[64]</text>
<polygon fill="none" stroke="#000000" points="225.5,-420.7 225.5,-442.7 366.5,-442.7 366.5,-420.7 225.5,-420.7"/>
<text text-anchor="start" x="245.5" y="-427.8" font-family="Helvetica,sans-Serif" font-size="11.00" fill="#000000">type_</text>
<polygon fill="none" stroke="#000000" points="366.5,-420.7 366.5,-442.7 466.5,-442.7 466.5,-420.7 366.5,-420.7"/>
<text text-anchor="start" x="369.5" y="-428.4" font-family="Helvetica,sans-Serif" font-size="11.00" fill="#000000">int4[10]</text>
<polygon fill="none" stroke="#000000" points="225.5,-398.7 225.5,-420.7 366.5,-420.7 366.5,-398.7 225.5,-398.7"/>
<text text-anchor="start" x="245.5" y="-405.8" font-family="Helvetica,sans-Serif" font-size="11.00" fill="#000000">create_time_</text>
<polygon fill="none" stroke="#000000" points="366.5,-398.7 366.5,-420.7 466.5,-420.7 466.5,-398.7 366.5,-398.7"/>
<text text-anchor="start" x="369.5" y="-406.4" font-family="Helvetica,sans-Serif" font-size="11.00" fill="#000000">timestamp[29,6]</text>
<polygon fill="#ffffff" stroke="transparent" points="225.5,-376.7 225.5,-398.7 366.5,-398.7 366.5,-376.7 225.5,-376.7"/>
<polygon fill="none" stroke="#000000" points="225.5,-376.7 225.5,-398.7 366.5,-398.7 366.5,-376.7 225.5,-376.7"/>
<text text-anchor="start" x="245.5" y="-383.8" font-family="Helvetica,sans-Serif" font-size="11.00" fill="#000000">root_proc_inst_id_</text>
<polygon fill="none" stroke="#000000" points="366.5,-376.7 366.5,-398.7 466.5,-398.7 466.5,-376.7 366.5,-376.7"/>
<text text-anchor="start" x="369.5" y="-384.4" font-family="Helvetica,sans-Serif" font-size="11.00" fill="#000000">varchar[64]</text>
<polygon fill="#ffffff" stroke="transparent" points="225.5,-354.7 225.5,-376.7 366.5,-376.7 366.5,-354.7 225.5,-354.7"/>
<polygon fill="none" stroke="#000000" points="225.5,-354.7 225.5,-376.7 366.5,-376.7 366.5,-354.7 225.5,-354.7"/>
<text text-anchor="start" x="245.5" y="-361.8" font-family="Helvetica,sans-Serif" font-size="11.00" fill="#000000">removal_time_</text>
<polygon fill="none" stroke="#000000" points="366.5,-354.7 366.5,-376.7 466.5,-376.7 466.5,-354.7 366.5,-354.7"/>
<text text-anchor="start" x="369.5" y="-362.4" font-family="Helvetica,sans-Serif" font-size="11.00" fill="#000000">timestamp[29,6]</text>
<polygon fill="#ffffff" stroke="transparent" points="225.5,-335.7 225.5,-354.7 300.5,-354.7 300.5,-335.7 225.5,-335.7"/>
<polygon fill="none" stroke="#000000" points="225.5,-335.7 225.5,-354.7 300.5,-354.7 300.5,-335.7 225.5,-335.7"/>
<text text-anchor="start" x="228.5" y="-341.8" font-family="Helvetica,sans-Serif" font-size="11.00" fill="#000000">&lt; 1</text>
<polygon fill="#ffffff" stroke="transparent" points="300.5,-335.7 300.5,-354.7 366.5,-354.7 366.5,-335.7 300.5,-335.7"/>
<polygon fill="none" stroke="#000000" points="300.5,-335.7 300.5,-354.7 366.5,-354.7 366.5,-335.7 300.5,-335.7"/>
<text text-anchor="start" x="357.3862" y="-341.8" font-family="Helvetica,sans-Serif" font-size="11.00" fill="#000000"> &#160;</text>
<polygon fill="#ffffff" stroke="transparent" points="366.5,-335.7 366.5,-354.7 466.5,-354.7 466.5,-335.7 366.5,-335.7"/>
<polygon fill="none" stroke="#000000" points="366.5,-335.7 366.5,-354.7 466.5,-354.7 466.5,-335.7 366.5,-335.7"/>
<text text-anchor="start" x="447.9053" y="-341.8" font-family="Helvetica,sans-Serif" font-size="11.00" fill="#000000">3 &gt;</text>
<polygon fill="none" stroke="#000000" stroke-width="2" points="224,-334.7 224,-620.7 467,-620.7 467,-334.7 224,-334.7"/>
</a>
</g>
</g>
<!-- act_re_deployment -->
<g id="node2" class="node">
<title>act_re_deployment</title>
<g id="a_node2"><a xlink:href="../../tables/act_re_deployment.html" xlink:title="act_re_deployment" target="_top">
<polygon fill="#ffffff" stroke="transparent" points="8,-427.2 8,-554.2 174,-554.2 174,-427.2 8,-427.2"/>
<polygon fill="#f5f5f5" stroke="transparent" points="8,-530.7 8,-553.7 174,-553.7 174,-530.7 8,-530.7"/>
<polygon fill="none" stroke="#000000" points="8,-530.7 8,-553.7 174,-553.7 174,-530.7 8,-530.7"/>
<text text-anchor="start" x="13" y="-539.3" font-family="Helvetica,sans-Serif" font-weight="bold" font-size="11.00" fill="#000000">act_re_deployment</text>
<text text-anchor="start" x="139.5219" y="-538.8" font-family="Helvetica,sans-Serif" font-size="11.00" fill="#000000">[table]</text>
<polygon fill="none" stroke="#000000" points="8,-508.7 8,-530.7 174,-530.7 174,-508.7 8,-508.7"/>
<image xlink:href="../../images/primaryKeys.png" width="11px" height="12px" preserveAspectRatio="xMinYMin meet" x="13" y="-525.7"/>
<text text-anchor="start" x="37" y="-515.8" font-family="Helvetica,sans-Serif" font-size="11.00" fill="#000000">id_</text>
<polygon fill="#ffffff" stroke="transparent" points="8,-486.7 8,-508.7 174,-508.7 174,-486.7 8,-486.7"/>
<polygon fill="none" stroke="#000000" points="8,-486.7 8,-508.7 174,-508.7 174,-486.7 8,-486.7"/>
<text text-anchor="start" x="37" y="-493.8" font-family="Helvetica,sans-Serif" font-size="11.00" fill="#000000">name_</text>
<polygon fill="#ffffff" stroke="transparent" points="8,-464.7 8,-486.7 174,-486.7 174,-464.7 8,-464.7"/>
<polygon fill="none" stroke="#000000" points="8,-464.7 8,-486.7 174,-486.7 174,-464.7 8,-464.7"/>
<text text-anchor="start" x="37" y="-471.8" font-family="Helvetica,sans-Serif" font-size="11.00" fill="#000000">tenant_id_</text>
<polygon fill="none" stroke="#000000" points="8,-445.7 8,-464.7 174,-464.7 174,-445.7 8,-445.7"/>
<text text-anchor="start" x="11" y="-451.8" font-family="Helvetica,sans-Serif" font-size="11.00" fill="#000000">...</text>
<polygon fill="#ffffff" stroke="transparent" points="8,-426.7 8,-445.7 80,-445.7 80,-426.7 8,-426.7"/>
<polygon fill="none" stroke="#000000" points="8,-426.7 8,-445.7 80,-445.7 80,-426.7 8,-426.7"/>
<text text-anchor="start" x="11" y="-432.8" font-family="Helvetica,sans-Serif" font-size="11.00" fill="#000000"> &#160;</text>
<polygon fill="#ffffff" stroke="transparent" points="80,-426.7 80,-445.7 122,-445.7 122,-426.7 80,-426.7"/>
<polygon fill="none" stroke="#000000" points="80,-426.7 80,-445.7 122,-445.7 122,-426.7 80,-426.7"/>
<text text-anchor="start" x="112.8862" y="-432.8" font-family="Helvetica,sans-Serif" font-size="11.00" fill="#000000"> &#160;</text>
<polygon fill="#ffffff" stroke="transparent" points="122,-426.7 122,-445.7 174,-445.7 174,-426.7 122,-426.7"/>
<polygon fill="none" stroke="#000000" points="122,-426.7 122,-445.7 174,-445.7 174,-426.7 122,-426.7"/>
<text text-anchor="start" x="155.4053" y="-432.8" font-family="Helvetica,sans-Serif" font-size="11.00" fill="#000000">1 &gt;</text>
</a>
</g>
</g>
<!-- act_ge_bytearray&#45;&gt;act_re_deployment -->
<g id="edge1" class="edge">
<title>act_ge_bytearray:w&#45;&gt;act_re_deployment:e</title>
<path fill="none" stroke="#000000" d="M211.0156,-519.7C198.6771,-519.7 191.1667,-519.7 174,-519.7"/>
<polygon fill="#000000" stroke="#000000" points="217.5,-519.7001 225.5,-523.3 221.5,-519.7 225.5,-519.7 225.5,-519.7 225.5,-519.7 221.5,-519.7 225.5,-516.1 217.5,-519.7001 217.5,-519.7001"/>
<ellipse fill="none" stroke="#000000" cx="214.3" cy="-519.7001" rx="3.2" ry="3.2"/>
</g>
<!-- act_ru_ext_task -->
<g id="node3" class="node">
<title>act_ru_ext_task</title>
<g id="a_node3"><a xlink:href="../../tables/act_ru_ext_task.html" xlink:title="act_ru_ext_task" target="_top">
<polygon fill="#ffffff" stroke="transparent" points="524,-384.2 524,-577.2 671,-577.2 671,-384.2 524,-384.2"/>
<polygon fill="#f5f5f5" stroke="transparent" points="524.5,-553.7 524.5,-576.7 671.5,-576.7 671.5,-553.7 524.5,-553.7"/>
<polygon fill="none" stroke="#000000" points="524.5,-553.7 524.5,-576.7 671.5,-576.7 671.5,-553.7 524.5,-553.7"/>
<text text-anchor="start" x="529.5" y="-562.3" font-family="Helvetica,sans-Serif" font-weight="bold" font-size="11.00" fill="#000000">act_ru_ext_task</text>
<text text-anchor="start" x="636.5437" y="-561.8" font-family="Helvetica,sans-Serif" font-size="11.00" fill="#000000">[table]</text>
<polygon fill="none" stroke="#000000" points="524.5,-531.7 524.5,-553.7 671.5,-553.7 671.5,-531.7 524.5,-531.7"/>
<image xlink:href="../../images/primaryKeys.png" width="11px" height="12px" preserveAspectRatio="xMinYMin meet" x="529.5" y="-548.7"/>
<text text-anchor="start" x="544.5" y="-538.8" font-family="Helvetica,sans-Serif" font-size="11.00" fill="#000000">id_</text>
<polygon fill="#ffffff" stroke="transparent" points="524.5,-509.7 524.5,-531.7 671.5,-531.7 671.5,-509.7 524.5,-509.7"/>
<polygon fill="none" stroke="#000000" points="524.5,-509.7 524.5,-531.7 671.5,-531.7 671.5,-509.7 524.5,-509.7"/>
<text text-anchor="start" x="544.5" y="-516.8" font-family="Helvetica,sans-Serif" font-size="11.00" fill="#000000">topic_name_</text>
<polygon fill="#ffffff" stroke="transparent" points="524.5,-487.7 524.5,-509.7 671.5,-509.7 671.5,-487.7 524.5,-487.7"/>
<polygon fill="none" stroke="#000000" points="524.5,-487.7 524.5,-509.7 671.5,-509.7 671.5,-487.7 524.5,-487.7"/>
<image xlink:href="../../images/foreignKeys.png" width="11px" height="12px" preserveAspectRatio="xMinYMin meet" x="529.5" y="-504.7"/>
<text text-anchor="start" x="544.5" y="-494.8" font-family="Helvetica,sans-Serif" font-size="11.00" fill="#000000">error_details_id_</text>
<polygon fill="#ffffff" stroke="transparent" points="524.5,-465.7 524.5,-487.7 671.5,-487.7 671.5,-465.7 524.5,-465.7"/>
<polygon fill="none" stroke="#000000" points="524.5,-465.7 524.5,-487.7 671.5,-487.7 671.5,-465.7 524.5,-465.7"/>
<image xlink:href="../../images/foreignKeys.png" width="11px" height="12px" preserveAspectRatio="xMinYMin meet" x="529.5" y="-482.7"/>
<text text-anchor="start" x="544.5" y="-472.8" font-family="Helvetica,sans-Serif" font-size="11.00" fill="#000000">execution_id_</text>
<polygon fill="#ffffff" stroke="transparent" points="524.5,-443.7 524.5,-465.7 671.5,-465.7 671.5,-443.7 524.5,-443.7"/>
<polygon fill="none" stroke="#000000" points="524.5,-443.7 524.5,-465.7 671.5,-465.7 671.5,-443.7 524.5,-443.7"/>
<text text-anchor="start" x="544.5" y="-450.8" font-family="Helvetica,sans-Serif" font-size="11.00" fill="#000000">tenant_id_</text>
<polygon fill="#ffffff" stroke="transparent" points="524.5,-421.7 524.5,-443.7 671.5,-443.7 671.5,-421.7 524.5,-421.7"/>
<polygon fill="none" stroke="#000000" points="524.5,-421.7 524.5,-443.7 671.5,-443.7 671.5,-421.7 524.5,-421.7"/>
<text text-anchor="start" x="544.5" y="-428.8" font-family="Helvetica,sans-Serif" font-size="11.00" fill="#000000">priority_</text>
<polygon fill="none" stroke="#000000" points="524.5,-402.7 524.5,-421.7 671.5,-421.7 671.5,-402.7 524.5,-402.7"/>
<text text-anchor="start" x="527.5" y="-408.8" font-family="Helvetica,sans-Serif" font-size="11.00" fill="#000000">...</text>
<polygon fill="#ffffff" stroke="transparent" points="524.5,-383.7 524.5,-402.7 596.5,-402.7 596.5,-383.7 524.5,-383.7"/>
<polygon fill="none" stroke="#000000" points="524.5,-383.7 524.5,-402.7 596.5,-402.7 596.5,-383.7 524.5,-383.7"/>
<text text-anchor="start" x="527.5" y="-389.8" font-family="Helvetica,sans-Serif" font-size="11.00" fill="#000000">&lt; 2</text>
<polygon fill="#ffffff" stroke="transparent" points="596.5,-383.7 596.5,-402.7 633.5,-402.7 633.5,-383.7 596.5,-383.7"/>
<polygon fill="none" stroke="#000000" points="596.5,-383.7 596.5,-402.7 633.5,-402.7 633.5,-383.7 596.5,-383.7"/>
<text text-anchor="start" x="624.3862" y="-389.8" font-family="Helvetica,sans-Serif" font-size="11.00" fill="#000000"> &#160;</text>
<polygon fill="#ffffff" stroke="transparent" points="633.5,-383.7 633.5,-402.7 671.5,-402.7 671.5,-383.7 633.5,-383.7"/>
<polygon fill="none" stroke="#000000" points="633.5,-383.7 633.5,-402.7 671.5,-402.7 671.5,-383.7 633.5,-383.7"/>
<text text-anchor="start" x="662.3862" y="-389.8" font-family="Helvetica,sans-Serif" font-size="11.00" fill="#000000"> &#160;</text>
</a>
</g>
</g>
<!-- act_ru_ext_task&#45;&gt;act_ge_bytearray -->
<g id="edge2" class="edge">
<title>act_ru_ext_task:w&#45;&gt;act_ge_bytearray:e</title>
<path fill="none" stroke="#000000" d="M510.5715,-502.4383C485.4921,-519.0906 507.1626,-585.7 466.5,-585.7"/>
<polygon fill="#000000" stroke="#000000" points="516.7734,-500.7738 525.4332,-502.177 520.6367,-499.7369 524.5,-498.7 524.5,-498.7 524.5,-498.7 520.6367,-499.7369 523.5668,-495.223 516.7734,-500.7738 516.7734,-500.7738"/>
<ellipse fill="none" stroke="#000000" cx="513.6828" cy="-501.6033" rx="3.2" ry="3.2"/>
</g>
<!-- act_ru_execution -->
<g id="node4" class="node">
<title>act_ru_execution</title>
<g id="a_node4"><a xlink:href="../../tables/act_ru_execution.html" xlink:title="act_ru_execution" target="_top">
<polygon fill="#ffffff" stroke="transparent" points="269.5,-251.2 269.5,-312.2 421.5,-312.2 421.5,-251.2 269.5,-251.2"/>
<polygon fill="#f5f5f5" stroke="transparent" points="269.5,-288.7 269.5,-311.7 421.5,-311.7 421.5,-288.7 269.5,-288.7"/>
<polygon fill="none" stroke="#000000" points="269.5,-288.7 269.5,-311.7 421.5,-311.7 421.5,-288.7 269.5,-288.7"/>
<text text-anchor="start" x="274.5" y="-297.3" font-family="Helvetica,sans-Serif" font-weight="bold" font-size="11.00" fill="#000000">act_ru_execution</text>
<text text-anchor="start" x="387.0219" y="-296.8" font-family="Helvetica,sans-Serif" font-size="11.00" fill="#000000">[table]</text>
<polygon fill="none" stroke="#000000" points="269.5,-269.7 269.5,-288.7 421.5,-288.7 421.5,-269.7 269.5,-269.7"/>
<text text-anchor="start" x="272.5" y="-275.8" font-family="Helvetica,sans-Serif" font-size="11.00" fill="#000000">...</text>
<polygon fill="#ffffff" stroke="transparent" points="269.5,-250.7 269.5,-269.7 336.5,-269.7 336.5,-250.7 269.5,-250.7"/>
<polygon fill="none" stroke="#000000" points="269.5,-250.7 269.5,-269.7 336.5,-269.7 336.5,-250.7 269.5,-250.7"/>
<text text-anchor="start" x="272.5" y="-256.8" font-family="Helvetica,sans-Serif" font-size="11.00" fill="#000000">&lt; 4</text>
<polygon fill="#ffffff" stroke="transparent" points="336.5,-250.7 336.5,-269.7 371.5,-269.7 371.5,-250.7 336.5,-250.7"/>
<polygon fill="none" stroke="#000000" points="336.5,-250.7 336.5,-269.7 371.5,-269.7 371.5,-250.7 336.5,-250.7"/>
<text text-anchor="start" x="362.3862" y="-256.8" font-family="Helvetica,sans-Serif" font-size="11.00" fill="#000000"> &#160;</text>
<polygon fill="#ffffff" stroke="transparent" points="371.5,-250.7 371.5,-269.7 421.5,-269.7 421.5,-250.7 371.5,-250.7"/>
<polygon fill="none" stroke="#000000" points="371.5,-250.7 371.5,-269.7 421.5,-269.7 421.5,-250.7 371.5,-250.7"/>
<text text-anchor="start" x="396.7904" y="-256.8" font-family="Helvetica,sans-Serif" font-size="11.00" fill="#000000">11 &gt;</text>
</a>
</g>
</g>
<!-- act_ru_ext_task&#45;&gt;act_ru_execution -->
<g id="edge3" class="edge">
<title>act_ru_ext_task:w&#45;&gt;act_ru_execution:e</title>
<path fill="none" stroke="#000000" d="M510.1231,-475.0424C462.3428,-462.2441 512.7935,-378.2054 476,-323.7 458.425,-297.6647 452.912,-278.7 421.5,-278.7"/>
<polygon fill="#000000" stroke="#000000" points="516.5526,-475.7837 524.0876,-480.2763 520.5263,-476.2418 524.5,-476.7 524.5,-476.7 524.5,-476.7 520.5263,-476.2418 524.9124,-473.1237 516.5526,-475.7837 516.5526,-475.7837"/>
<ellipse fill="none" stroke="#000000" cx="513.3737" cy="-475.4171" rx="3.2" ry="3.2"/>
</g>
<!-- act_ru_job -->
<g id="node5" class="node">
<title>act_ru_job</title>
<g id="a_node5"><a xlink:href="../../tables/act_ru_job.html" xlink:title="act_ru_job" target="_top">
<polygon fill="#ffffff" stroke="transparent" points="517,-598.2 517,-857.2 678,-857.2 678,-598.2 517,-598.2"/>
<polygon fill="#f5f5f5" stroke="transparent" points="517.5,-833.7 517.5,-856.7 678.5,-856.7 678.5,-833.7 517.5,-833.7"/>
<polygon fill="none" stroke="#000000" points="517.5,-833.7 517.5,-856.7 678.5,-856.7 678.5,-833.7 517.5,-833.7"/>
<text text-anchor="start" x="522.5" y="-842.3" font-family="Helvetica,sans-Serif" font-weight="bold" font-size="11.00" fill="#000000">act_ru_job</text>
<text text-anchor="start" x="643.5437" y="-841.8" font-family="Helvetica,sans-Serif" font-size="11.00" fill="#000000">[table]</text>
<polygon fill="none" stroke="#000000" points="517.5,-811.7 517.5,-833.7 678.5,-833.7 678.5,-811.7 517.5,-811.7"/>
<image xlink:href="../../images/primaryKeys.png" width="11px" height="12px" preserveAspectRatio="xMinYMin meet" x="522.5" y="-828.7"/>
<text text-anchor="start" x="537.5" y="-818.8" font-family="Helvetica,sans-Serif" font-size="11.00" fill="#000000">id_</text>
<polygon fill="#ffffff" stroke="transparent" points="517.5,-789.7 517.5,-811.7 678.5,-811.7 678.5,-789.7 517.5,-789.7"/>
<polygon fill="none" stroke="#000000" points="517.5,-789.7 517.5,-811.7 678.5,-811.7 678.5,-789.7 517.5,-789.7"/>
<text text-anchor="start" x="537.5" y="-796.8" font-family="Helvetica,sans-Serif" font-size="11.00" fill="#000000">execution_id_</text>
<polygon fill="#ffffff" stroke="transparent" points="517.5,-767.7 517.5,-789.7 678.5,-789.7 678.5,-767.7 517.5,-767.7"/>
<polygon fill="none" stroke="#000000" points="517.5,-767.7 517.5,-789.7 678.5,-789.7 678.5,-767.7 517.5,-767.7"/>
<text text-anchor="start" x="537.5" y="-774.8" font-family="Helvetica,sans-Serif" font-size="11.00" fill="#000000">root_proc_inst_id_</text>
<polygon fill="#ffffff" stroke="transparent" points="517.5,-745.7 517.5,-767.7 678.5,-767.7 678.5,-745.7 517.5,-745.7"/>
<polygon fill="none" stroke="#000000" points="517.5,-745.7 517.5,-767.7 678.5,-767.7 678.5,-745.7 517.5,-745.7"/>
<text text-anchor="start" x="537.5" y="-752.8" font-family="Helvetica,sans-Serif" font-size="11.00" fill="#000000">process_instance_id_</text>
<polygon fill="#ffffff" stroke="transparent" points="517.5,-723.7 517.5,-745.7 678.5,-745.7 678.5,-723.7 517.5,-723.7"/>
<polygon fill="none" stroke="#000000" points="517.5,-723.7 517.5,-745.7 678.5,-745.7 678.5,-723.7 517.5,-723.7"/>
<image xlink:href="../../images/foreignKeys.png" width="11px" height="12px" preserveAspectRatio="xMinYMin meet" x="522.5" y="-740.7"/>
<text text-anchor="start" x="537.5" y="-730.8" font-family="Helvetica,sans-Serif" font-size="11.00" fill="#000000">exception_stack_id_</text>
<polygon fill="#ffffff" stroke="transparent" points="517.5,-701.7 517.5,-723.7 678.5,-723.7 678.5,-701.7 517.5,-701.7"/>
<polygon fill="none" stroke="#000000" points="517.5,-701.7 517.5,-723.7 678.5,-723.7 678.5,-701.7 517.5,-701.7"/>
<text text-anchor="start" x="537.5" y="-708.8" font-family="Helvetica,sans-Serif" font-size="11.00" fill="#000000">handler_type_</text>
<polygon fill="#ffffff" stroke="transparent" points="517.5,-679.7 517.5,-701.7 678.5,-701.7 678.5,-679.7 517.5,-679.7"/>
<polygon fill="none" stroke="#000000" points="517.5,-679.7 517.5,-701.7 678.5,-701.7 678.5,-679.7 517.5,-679.7"/>
<text text-anchor="start" x="537.5" y="-686.8" font-family="Helvetica,sans-Serif" font-size="11.00" fill="#000000">handler_cfg_</text>
<polygon fill="#ffffff" stroke="transparent" points="517.5,-657.7 517.5,-679.7 678.5,-679.7 678.5,-657.7 517.5,-657.7"/>
<polygon fill="none" stroke="#000000" points="517.5,-657.7 517.5,-679.7 678.5,-679.7 678.5,-657.7 517.5,-657.7"/>
<text text-anchor="start" x="537.5" y="-664.8" font-family="Helvetica,sans-Serif" font-size="11.00" fill="#000000">job_def_id_</text>
<polygon fill="#ffffff" stroke="transparent" points="517.5,-635.7 517.5,-657.7 678.5,-657.7 678.5,-635.7 517.5,-635.7"/>
<polygon fill="none" stroke="#000000" points="517.5,-635.7 517.5,-657.7 678.5,-657.7 678.5,-635.7 517.5,-635.7"/>
<text text-anchor="start" x="537.5" y="-642.8" font-family="Helvetica,sans-Serif" font-size="11.00" fill="#000000">tenant_id_</text>
<polygon fill="none" stroke="#000000" points="517.5,-616.7 517.5,-635.7 678.5,-635.7 678.5,-616.7 517.5,-616.7"/>
<text text-anchor="start" x="520.5" y="-622.8" font-family="Helvetica,sans-Serif" font-size="11.00" fill="#000000">...</text>
<polygon fill="#ffffff" stroke="transparent" points="517.5,-597.7 517.5,-616.7 596.5,-616.7 596.5,-597.7 517.5,-597.7"/>
<polygon fill="none" stroke="#000000" points="517.5,-597.7 517.5,-616.7 596.5,-616.7 596.5,-597.7 517.5,-597.7"/>
<text text-anchor="start" x="520.5" y="-603.8" font-family="Helvetica,sans-Serif" font-size="11.00" fill="#000000">&lt; 1</text>
<polygon fill="#ffffff" stroke="transparent" points="596.5,-597.7 596.5,-616.7 637.5,-616.7 637.5,-597.7 596.5,-597.7"/>
<polygon fill="none" stroke="#000000" points="596.5,-597.7 596.5,-616.7 637.5,-616.7 637.5,-597.7 596.5,-597.7"/>
<text text-anchor="start" x="628.3862" y="-603.8" font-family="Helvetica,sans-Serif" font-size="11.00" fill="#000000"> &#160;</text>
<polygon fill="#ffffff" stroke="transparent" points="637.5,-597.7 637.5,-616.7 678.5,-616.7 678.5,-597.7 637.5,-597.7"/>
<polygon fill="none" stroke="#000000" points="637.5,-597.7 637.5,-616.7 678.5,-616.7 678.5,-597.7 637.5,-597.7"/>
<text text-anchor="start" x="669.3862" y="-603.8" font-family="Helvetica,sans-Serif" font-size="11.00" fill="#000000"> &#160;</text>
</a>
</g>
</g>
<!-- act_ru_job&#45;&gt;act_ge_bytearray -->
<g id="edge4" class="edge">
<title>act_ru_job:w&#45;&gt;act_ge_bytearray:e</title>
<path fill="none" stroke="#000000" d="M503.3088,-731.8566C461.0358,-711.2573 530.7523,-585.7 466.5,-585.7"/>
<polygon fill="#000000" stroke="#000000" points="509.6559,-733.1283 516.7927,-738.2298 513.578,-733.9141 517.5,-734.7 517.5,-734.7 517.5,-734.7 513.578,-733.9141 518.2073,-731.1702 509.6559,-733.1283 509.6559,-733.1283"/>
<ellipse fill="none" stroke="#000000" cx="506.5183" cy="-732.4996" rx="3.2" ry="3.2"/>
</g>
<!-- act_ru_variable -->
<g id="node6" class="node">
<title>act_ru_variable</title>
<g id="a_node6"><a xlink:href="../../tables/act_ru_variable.html" xlink:title="act_ru_variable" target="_top">
<polygon fill="#ffffff" stroke="transparent" points="520,-38.2 520,-363.2 675,-363.2 675,-38.2 520,-38.2"/>
<polygon fill="#f5f5f5" stroke="transparent" points="520.5,-339.7 520.5,-362.7 675.5,-362.7 675.5,-339.7 520.5,-339.7"/>
<polygon fill="none" stroke="#000000" points="520.5,-339.7 520.5,-362.7 675.5,-362.7 675.5,-339.7 520.5,-339.7"/>
<text text-anchor="start" x="525.5" y="-348.3" font-family="Helvetica,sans-Serif" font-weight="bold" font-size="11.00" fill="#000000">act_ru_variable</text>
<text text-anchor="start" x="640.5437" y="-347.8" font-family="Helvetica,sans-Serif" font-size="11.00" fill="#000000">[table]</text>
<polygon fill="none" stroke="#000000" points="520.5,-317.7 520.5,-339.7 675.5,-339.7 675.5,-317.7 520.5,-317.7"/>
<image xlink:href="../../images/primaryKeys.png" width="11px" height="12px" preserveAspectRatio="xMinYMin meet" x="525.5" y="-334.7"/>
<text text-anchor="start" x="540.5" y="-324.8" font-family="Helvetica,sans-Serif" font-size="11.00" fill="#000000">id_</text>
<polygon fill="#ffffff" stroke="transparent" points="520.5,-295.7 520.5,-317.7 675.5,-317.7 675.5,-295.7 520.5,-295.7"/>
<polygon fill="none" stroke="#000000" points="520.5,-295.7 520.5,-317.7 675.5,-317.7 675.5,-295.7 520.5,-295.7"/>
<text text-anchor="start" x="540.5" y="-302.8" font-family="Helvetica,sans-Serif" font-size="11.00" fill="#000000">type_</text>
<polygon fill="#ffffff" stroke="transparent" points="520.5,-273.7 520.5,-295.7 675.5,-295.7 675.5,-273.7 520.5,-273.7"/>
<polygon fill="none" stroke="#000000" points="520.5,-273.7 520.5,-295.7 675.5,-295.7 675.5,-273.7 520.5,-273.7"/>
<text text-anchor="start" x="540.5" y="-280.8" font-family="Helvetica,sans-Serif" font-size="11.00" fill="#000000">name_</text>
<polygon fill="#ffffff" stroke="transparent" points="520.5,-251.7 520.5,-273.7 675.5,-273.7 675.5,-251.7 520.5,-251.7"/>
<polygon fill="none" stroke="#000000" points="520.5,-251.7 520.5,-273.7 675.5,-273.7 675.5,-251.7 520.5,-251.7"/>
<image xlink:href="../../images/foreignKeys.png" width="11px" height="12px" preserveAspectRatio="xMinYMin meet" x="525.5" y="-268.7"/>
<text text-anchor="start" x="540.5" y="-258.8" font-family="Helvetica,sans-Serif" font-size="11.00" fill="#000000">execution_id_</text>
<polygon fill="#ffffff" stroke="transparent" points="520.5,-229.7 520.5,-251.7 675.5,-251.7 675.5,-229.7 520.5,-229.7"/>
<polygon fill="none" stroke="#000000" points="520.5,-229.7 520.5,-251.7 675.5,-251.7 675.5,-229.7 520.5,-229.7"/>
<image xlink:href="../../images/foreignKeys.png" width="11px" height="12px" preserveAspectRatio="xMinYMin meet" x="525.5" y="-246.7"/>
<text text-anchor="start" x="540.5" y="-236.8" font-family="Helvetica,sans-Serif" font-size="11.00" fill="#000000">proc_inst_id_</text>
<polygon fill="#ffffff" stroke="transparent" points="520.5,-207.7 520.5,-229.7 675.5,-229.7 675.5,-207.7 520.5,-207.7"/>
<polygon fill="none" stroke="#000000" points="520.5,-207.7 520.5,-229.7 675.5,-229.7 675.5,-207.7 520.5,-207.7"/>
<image xlink:href="../../images/foreignKeys.png" width="11px" height="12px" preserveAspectRatio="xMinYMin meet" x="525.5" y="-224.7"/>
<text text-anchor="start" x="540.5" y="-214.8" font-family="Helvetica,sans-Serif" font-size="11.00" fill="#000000">case_execution_id_</text>
<polygon fill="#ffffff" stroke="transparent" points="520.5,-185.7 520.5,-207.7 675.5,-207.7 675.5,-185.7 520.5,-185.7"/>
<polygon fill="none" stroke="#000000" points="520.5,-185.7 520.5,-207.7 675.5,-207.7 675.5,-185.7 520.5,-185.7"/>
<image xlink:href="../../images/foreignKeys.png" width="11px" height="12px" preserveAspectRatio="xMinYMin meet" x="525.5" y="-202.7"/>
<text text-anchor="start" x="540.5" y="-192.8" font-family="Helvetica,sans-Serif" font-size="11.00" fill="#000000">case_inst_id_</text>
<polygon fill="#ffffff" stroke="transparent" points="520.5,-163.7 520.5,-185.7 675.5,-185.7 675.5,-163.7 520.5,-163.7"/>
<polygon fill="none" stroke="#000000" points="520.5,-163.7 520.5,-185.7 675.5,-185.7 675.5,-163.7 520.5,-163.7"/>
<text text-anchor="start" x="540.5" y="-170.8" font-family="Helvetica,sans-Serif" font-size="11.00" fill="#000000">task_id_</text>
<polygon fill="#ffffff" stroke="transparent" points="520.5,-141.7 520.5,-163.7 675.5,-163.7 675.5,-141.7 520.5,-141.7"/>
<polygon fill="none" stroke="#000000" points="520.5,-141.7 520.5,-163.7 675.5,-163.7 675.5,-141.7 520.5,-141.7"/>
<image xlink:href="../../images/foreignKeys.png" width="11px" height="12px" preserveAspectRatio="xMinYMin meet" x="525.5" y="-158.7"/>
<text text-anchor="start" x="540.5" y="-148.8" font-family="Helvetica,sans-Serif" font-size="11.00" fill="#000000">batch_id_</text>
<polygon fill="#ffffff" stroke="transparent" points="520.5,-119.7 520.5,-141.7 675.5,-141.7 675.5,-119.7 520.5,-119.7"/>
<polygon fill="none" stroke="#000000" points="520.5,-119.7 520.5,-141.7 675.5,-141.7 675.5,-119.7 520.5,-119.7"/>
<image xlink:href="../../images/foreignKeys.png" width="11px" height="12px" preserveAspectRatio="xMinYMin meet" x="525.5" y="-136.7"/>
<text text-anchor="start" x="540.5" y="-126.8" font-family="Helvetica,sans-Serif" font-size="11.00" fill="#000000">bytearray_id_</text>
<polygon fill="#ffffff" stroke="transparent" points="520.5,-97.7 520.5,-119.7 675.5,-119.7 675.5,-97.7 520.5,-97.7"/>
<polygon fill="none" stroke="#000000" points="520.5,-97.7 520.5,-119.7 675.5,-119.7 675.5,-97.7 520.5,-97.7"/>
<text text-anchor="start" x="540.5" y="-104.8" font-family="Helvetica,sans-Serif" font-size="11.00" fill="#000000">var_scope_</text>
<polygon fill="#ffffff" stroke="transparent" points="520.5,-75.7 520.5,-97.7 675.5,-97.7 675.5,-75.7 520.5,-75.7"/>
<polygon fill="none" stroke="#000000" points="520.5,-75.7 520.5,-97.7 675.5,-97.7 675.5,-75.7 520.5,-75.7"/>
<text text-anchor="start" x="540.5" y="-82.8" font-family="Helvetica,sans-Serif" font-size="11.00" fill="#000000">tenant_id_</text>
<polygon fill="none" stroke="#000000" points="520.5,-56.7 520.5,-75.7 675.5,-75.7 675.5,-56.7 520.5,-56.7"/>
<text text-anchor="start" x="523.5" y="-62.8" font-family="Helvetica,sans-Serif" font-size="11.00" fill="#000000">...</text>
<polygon fill="#ffffff" stroke="transparent" points="520.5,-37.7 520.5,-56.7 596.5,-56.7 596.5,-37.7 520.5,-37.7"/>
<polygon fill="none" stroke="#000000" points="520.5,-37.7 520.5,-56.7 596.5,-56.7 596.5,-37.7 520.5,-37.7"/>
<text text-anchor="start" x="523.5" y="-43.8" font-family="Helvetica,sans-Serif" font-size="11.00" fill="#000000">&lt; 6</text>
<polygon fill="#ffffff" stroke="transparent" points="596.5,-37.7 596.5,-56.7 635.5,-56.7 635.5,-37.7 596.5,-37.7"/>
<polygon fill="none" stroke="#000000" points="596.5,-37.7 596.5,-56.7 635.5,-56.7 635.5,-37.7 596.5,-37.7"/>
<text text-anchor="start" x="626.3862" y="-43.8" font-family="Helvetica,sans-Serif" font-size="11.00" fill="#000000"> &#160;</text>
<polygon fill="#ffffff" stroke="transparent" points="635.5,-37.7 635.5,-56.7 675.5,-56.7 675.5,-37.7 635.5,-37.7"/>
<polygon fill="none" stroke="#000000" points="635.5,-37.7 635.5,-56.7 675.5,-56.7 675.5,-37.7 635.5,-37.7"/>
<text text-anchor="start" x="666.3862" y="-43.8" font-family="Helvetica,sans-Serif" font-size="11.00" fill="#000000"> &#160;</text>
</a>
</g>
</g>
<!-- act_ru_variable&#45;&gt;act_ge_bytearray -->
<g id="edge6" class="edge">
<title>act_ru_variable:w&#45;&gt;act_ge_bytearray:e</title>
<path fill="none" stroke="#000000" d="M506.4158,-134.3625C433.7625,-177.423 562.9513,-585.7 466.5,-585.7"/>
<polygon fill="#000000" stroke="#000000" points="512.7575,-132.7134 521.406,-134.1841 516.6287,-131.7067 520.5,-130.7 520.5,-130.7 520.5,-130.7 516.6287,-131.7067 519.594,-127.2159 512.7575,-132.7134 512.7575,-132.7134"/>
<ellipse fill="none" stroke="#000000" cx="509.6605" cy="-133.5188" rx="3.2" ry="3.2"/>
</g>
<!-- act_ru_variable&#45;&gt;act_ru_execution -->
<g id="edge9" class="edge">
<title>act_ru_variable:w&#45;&gt;act_ru_execution:e</title>
<path fill="none" stroke="#000000" d="M505.712,-263.347C473.0325,-266.3404 460.6737,-278.7 421.5,-278.7"/>
<polygon fill="#000000" stroke="#000000" points="512.5076,-263.0497 520.6574,-266.2966 516.5038,-262.8749 520.5,-262.7 520.5,-262.7 520.5,-262.7 516.5038,-262.8749 520.3426,-259.1034 512.5076,-263.0497 512.5076,-263.0497"/>
<ellipse fill="none" stroke="#000000" cx="509.3107" cy="-263.1896" rx="3.2" ry="3.2"/>
</g>
<!-- act_ru_variable&#45;&gt;act_ru_execution -->
<g id="edge10" class="edge">
<title>act_ru_variable:w&#45;&gt;act_ru_execution:e</title>
<path fill="none" stroke="#000000" d="M505.9919,-242.0524C471.7521,-248.8217 463.291,-278.7 421.5,-278.7"/>
<polygon fill="#000000" stroke="#000000" points="512.5345,-241.4426 520.8342,-244.2845 516.5173,-241.0713 520.5,-240.7 520.5,-240.7 520.5,-240.7 516.5173,-241.0713 520.1658,-237.1155 512.5345,-241.4426 512.5345,-241.4426"/>
<ellipse fill="none" stroke="#000000" cx="509.3483" cy="-241.7396" rx="3.2" ry="3.2"/>
</g>
<!-- act_ru_batch -->
<g id="node7" class="node">
<title>act_ru_batch</title>
<g id="a_node7"><a xlink:href="../../tables/act_ru_batch.html" xlink:title="act_ru_batch" target="_top">
<polygon fill="#ffffff" stroke="transparent" points="283.5,-87.2 283.5,-148.2 407.5,-148.2 407.5,-87.2 283.5,-87.2"/>
<polygon fill="#f5f5f5" stroke="transparent" points="283.5,-124.7 283.5,-147.7 407.5,-147.7 407.5,-124.7 283.5,-124.7"/>
<polygon fill="none" stroke="#000000" points="283.5,-124.7 283.5,-147.7 407.5,-147.7 407.5,-124.7 283.5,-124.7"/>
<text text-anchor="start" x="288.5" y="-133.3" font-family="Helvetica,sans-Serif" font-weight="bold" font-size="11.00" fill="#000000">act_ru_batch</text>
<text text-anchor="start" x="373.0219" y="-132.8" font-family="Helvetica,sans-Serif" font-size="11.00" fill="#000000">[table]</text>
<polygon fill="none" stroke="#000000" points="283.5,-105.7 283.5,-124.7 407.5,-124.7 407.5,-105.7 283.5,-105.7"/>
<text text-anchor="start" x="286.5" y="-111.8" font-family="Helvetica,sans-Serif" font-size="11.00" fill="#000000">...</text>
<polygon fill="#ffffff" stroke="transparent" points="283.5,-86.7 283.5,-105.7 339.5,-105.7 339.5,-86.7 283.5,-86.7"/>
<polygon fill="none" stroke="#000000" points="283.5,-86.7 283.5,-105.7 339.5,-105.7 339.5,-86.7 283.5,-86.7"/>
<text text-anchor="start" x="286.5" y="-92.8" font-family="Helvetica,sans-Serif" font-size="11.00" fill="#000000">&lt; 3</text>
<polygon fill="#ffffff" stroke="transparent" points="339.5,-86.7 339.5,-105.7 368.5,-105.7 368.5,-86.7 339.5,-86.7"/>
<polygon fill="none" stroke="#000000" points="339.5,-86.7 339.5,-105.7 368.5,-105.7 368.5,-86.7 339.5,-86.7"/>
<text text-anchor="start" x="359.3862" y="-92.8" font-family="Helvetica,sans-Serif" font-size="11.00" fill="#000000"> &#160;</text>
<polygon fill="#ffffff" stroke="transparent" points="368.5,-86.7 368.5,-105.7 407.5,-105.7 407.5,-86.7 368.5,-86.7"/>
<polygon fill="none" stroke="#000000" points="368.5,-86.7 368.5,-105.7 407.5,-105.7 407.5,-86.7 368.5,-86.7"/>
<text text-anchor="start" x="388.9053" y="-92.8" font-family="Helvetica,sans-Serif" font-size="11.00" fill="#000000">1 &gt;</text>
</a>
</g>
</g>
<!-- act_ru_variable&#45;&gt;act_ru_batch -->
<g id="edge5" class="edge">
<title>act_ru_variable:w&#45;&gt;act_ru_batch:e</title>
<path fill="none" stroke="#000000" d="M505.9435,-151.644C465.658,-145.5067 455.208,-114.7 407.5,-114.7"/>
<polygon fill="#000000" stroke="#000000" points="512.521,-152.1211 520.2395,-156.2906 516.5105,-152.4106 520.5,-152.7 520.5,-152.7 520.5,-152.7 516.5105,-152.4106 520.7605,-149.1094 512.521,-152.1211 512.521,-152.1211"/>
<ellipse fill="none" stroke="#000000" cx="509.3294" cy="-151.8896" rx="3.2" ry="3.2"/>
</g>
<!-- act_ru_case_execution -->
<g id="node8" class="node">
<title>act_ru_case_execution</title>
<g id="a_node8"><a xlink:href="../../tables/act_ru_case_execution.html" xlink:title="act_ru_case_execution" target="_top">
<polygon fill="#ffffff" stroke="transparent" points="251,-169.2 251,-230.2 440,-230.2 440,-169.2 251,-169.2"/>
<polygon fill="#f5f5f5" stroke="transparent" points="251.5,-206.7 251.5,-229.7 440.5,-229.7 440.5,-206.7 251.5,-206.7"/>
<polygon fill="none" stroke="#000000" points="251.5,-206.7 251.5,-229.7 440.5,-229.7 440.5,-206.7 251.5,-206.7"/>
<text text-anchor="start" x="256.5" y="-215.3" font-family="Helvetica,sans-Serif" font-weight="bold" font-size="11.00" fill="#000000">act_ru_case_execution</text>
<text text-anchor="start" x="406.0219" y="-214.8" font-family="Helvetica,sans-Serif" font-size="11.00" fill="#000000">[table]</text>
<polygon fill="none" stroke="#000000" points="251.5,-187.7 251.5,-206.7 440.5,-206.7 440.5,-187.7 251.5,-187.7"/>
<text text-anchor="start" x="254.5" y="-193.8" font-family="Helvetica,sans-Serif" font-size="11.00" fill="#000000">...</text>
<polygon fill="#ffffff" stroke="transparent" points="251.5,-168.7 251.5,-187.7 339.5,-187.7 339.5,-168.7 251.5,-168.7"/>
<polygon fill="none" stroke="#000000" points="251.5,-168.7 251.5,-187.7 339.5,-187.7 339.5,-168.7 251.5,-168.7"/>
<text text-anchor="start" x="254.5" y="-174.8" font-family="Helvetica,sans-Serif" font-size="11.00" fill="#000000">&lt; 3</text>
<polygon fill="#ffffff" stroke="transparent" points="339.5,-168.7 339.5,-187.7 385.5,-187.7 385.5,-168.7 339.5,-168.7"/>
<polygon fill="none" stroke="#000000" points="339.5,-168.7 339.5,-187.7 385.5,-187.7 385.5,-168.7 339.5,-168.7"/>
<text text-anchor="start" x="376.3862" y="-174.8" font-family="Helvetica,sans-Serif" font-size="11.00" fill="#000000"> &#160;</text>
<polygon fill="#ffffff" stroke="transparent" points="385.5,-168.7 385.5,-187.7 440.5,-187.7 440.5,-168.7 385.5,-168.7"/>
<polygon fill="none" stroke="#000000" points="385.5,-168.7 385.5,-187.7 440.5,-187.7 440.5,-168.7 385.5,-168.7"/>
<text text-anchor="start" x="421.9053" y="-174.8" font-family="Helvetica,sans-Serif" font-size="11.00" fill="#000000">7 &gt;</text>
</a>
</g>
</g>
<!-- act_ru_variable&#45;&gt;act_ru_case_execution -->
<g id="edge7" class="edge">
<title>act_ru_variable:w&#45;&gt;act_ru_case_execution:e</title>
<path fill="none" stroke="#000000" d="M505.903,-217.3897C481.0945,-212.6535 471.9018,-196.7 440.5,-196.7"/>
<polygon fill="#000000" stroke="#000000" points="512.532,-217.9847 520.1781,-222.2856 516.516,-218.3423 520.5,-218.7 520.5,-218.7 520.5,-218.7 516.516,-218.3423 520.8219,-215.1144 512.532,-217.9847 512.532,-217.9847"/>
<ellipse fill="none" stroke="#000000" cx="509.3449" cy="-217.6986" rx="3.2" ry="3.2"/>
</g>
<!-- act_ru_variable&#45;&gt;act_ru_case_execution -->
<g id="edge8" class="edge">
<title>act_ru_variable:w&#45;&gt;act_ru_case_execution:e</title>
<path fill="none" stroke="#000000" d="M505.9181,-196.7C481.6172,-196.7 470.6389,-196.7 440.5,-196.7"/>
<polygon fill="#000000" stroke="#000000" points="512.5,-196.7001 520.5,-200.3 516.5,-196.7 520.5,-196.7 520.5,-196.7 520.5,-196.7 516.5,-196.7 520.5,-193.1 512.5,-196.7001 512.5,-196.7001"/>
<ellipse fill="none" stroke="#000000" cx="509.3" cy="-196.7001" rx="3.2" ry="3.2"/>
</g>
</g>
</svg>
