<?xml version="1.0" encoding="UTF-8" standalone="no"?>
<!DOCTYPE svg PUBLIC "-//W3C//DTD SVG 1.1//EN"
 "http://www.w3.org/Graphics/SVG/1.1/DTD/svg11.dtd">
<!-- Generated by graphviz version 2.40.1 (20161225.0304)
 -->
<!-- Title: twoDegreesRelationshipsDiagram Pages: 1 -->
<svg width="654pt" height="330pt"
 viewBox="0.00 0.00 654.00 329.70" xmlns="http://www.w3.org/2000/svg" xmlns:xlink="http://www.w3.org/1999/xlink">
<g id="graph0" class="graph" transform="scale(1 1) rotate(0) translate(4 325.7)">
<title>twoDegreesRelationshipsDiagram</title>
<polygon fill="#ffffff" stroke="transparent" points="-4,4 -4,-325.7 650,-325.7 650,4 -4,4"/>
<text text-anchor="middle" x="72.4936" y="-7.3" font-family="Helvetica,sans-Serif" font-size="11.00" fill="#000000">Generated by SchemaSpy</text>
<!-- act_ge_bytearray -->
<g id="node1" class="node">
<title>act_ge_bytearray</title>
<g id="a_node1"><a xlink:href="../../tables/act_ge_bytearray.html" xlink:title="act_ge_bytearray" target="_top">
<polygon fill="#ffffff" stroke="transparent" points="293,-65.7 293,-236.7 447,-236.7 447,-65.7 293,-65.7"/>
<polygon fill="#f5f5f5" stroke="transparent" points="293,-213.2 293,-236.2 447,-236.2 447,-213.2 293,-213.2"/>
<polygon fill="none" stroke="#000000" points="293,-213.2 293,-236.2 447,-236.2 447,-213.2 293,-213.2"/>
<text text-anchor="start" x="298" y="-221.8" font-family="Helvetica,sans-Serif" font-weight="bold" font-size="11.00" fill="#000000">act_ge_bytearray</text>
<text text-anchor="start" x="412.5219" y="-221.3" font-family="Helvetica,sans-Serif" font-size="11.00" fill="#000000">[table]</text>
<polygon fill="none" stroke="#000000" points="293,-191.2 293,-213.2 447,-213.2 447,-191.2 293,-191.2"/>
<image xlink:href="../../images/primaryKeys.png" width="11px" height="12px" preserveAspectRatio="xMinYMin meet" x="298" y="-208.2"/>
<text text-anchor="start" x="320" y="-198.3" font-family="Helvetica,sans-Serif" font-size="11.00" fill="#000000">id_</text>
<polygon fill="#ffffff" stroke="transparent" points="293,-169.2 293,-191.2 447,-191.2 447,-169.2 293,-169.2"/>
<polygon fill="none" stroke="#000000" points="293,-169.2 293,-191.2 447,-191.2 447,-169.2 293,-169.2"/>
<text text-anchor="start" x="320" y="-176.3" font-family="Helvetica,sans-Serif" font-size="11.00" fill="#000000">name_</text>
<polygon fill="#ffffff" stroke="transparent" points="293,-147.2 293,-169.2 447,-169.2 447,-147.2 293,-147.2"/>
<polygon fill="none" stroke="#000000" points="293,-147.2 293,-169.2 447,-169.2 447,-147.2 293,-147.2"/>
<image xlink:href="../../images/foreignKeys.png" width="11px" height="12px" preserveAspectRatio="xMinYMin meet" x="298" y="-164.2"/>
<text text-anchor="start" x="320" y="-154.3" font-family="Helvetica,sans-Serif" font-size="11.00" fill="#000000">deployment_id_</text>
<polygon fill="#ffffff" stroke="transparent" points="293,-125.2 293,-147.2 447,-147.2 447,-125.2 293,-125.2"/>
<polygon fill="none" stroke="#000000" points="293,-125.2 293,-147.2 447,-147.2 447,-125.2 293,-125.2"/>
<text text-anchor="start" x="320" y="-132.3" font-family="Helvetica,sans-Serif" font-size="11.00" fill="#000000">root_proc_inst_id_</text>
<polygon fill="#ffffff" stroke="transparent" points="293,-103.2 293,-125.2 447,-125.2 447,-103.2 293,-103.2"/>
<polygon fill="none" stroke="#000000" points="293,-103.2 293,-125.2 447,-125.2 447,-103.2 293,-103.2"/>
<text text-anchor="start" x="320" y="-110.3" font-family="Helvetica,sans-Serif" font-size="11.00" fill="#000000">removal_time_</text>
<polygon fill="none" stroke="#000000" points="293,-84.2 293,-103.2 447,-103.2 447,-84.2 293,-84.2"/>
<text text-anchor="start" x="296" y="-90.3" font-family="Helvetica,sans-Serif" font-size="11.00" fill="#000000">...</text>
<polygon fill="#ffffff" stroke="transparent" points="293,-65.2 293,-84.2 364,-84.2 364,-65.2 293,-65.2"/>
<polygon fill="none" stroke="#000000" points="293,-65.2 293,-84.2 364,-84.2 364,-65.2 293,-65.2"/>
<text text-anchor="start" x="296" y="-71.3" font-family="Helvetica,sans-Serif" font-size="11.00" fill="#000000">&lt; 1</text>
<polygon fill="#ffffff" stroke="transparent" points="364,-65.2 364,-84.2 401,-84.2 401,-65.2 364,-65.2"/>
<polygon fill="none" stroke="#000000" points="364,-65.2 364,-84.2 401,-84.2 401,-65.2 364,-65.2"/>
<text text-anchor="start" x="391.8862" y="-71.3" font-family="Helvetica,sans-Serif" font-size="11.00" fill="#000000"> &#160;</text>
<polygon fill="#ffffff" stroke="transparent" points="401,-65.2 401,-84.2 447,-84.2 447,-65.2 401,-65.2"/>
<polygon fill="none" stroke="#000000" points="401,-65.2 401,-84.2 447,-84.2 447,-65.2 401,-65.2"/>
<text text-anchor="start" x="428.4053" y="-71.3" font-family="Helvetica,sans-Serif" font-size="11.00" fill="#000000">3 &gt;</text>
</a>
</g>
</g>
<!-- act_re_deployment -->
<g id="node2" class="node">
<title>act_re_deployment</title>
<g id="a_node2"><a xlink:href="../../tables/act_re_deployment.html" xlink:title="act_re_deployment" target="_top">
<polygon fill="#ffffff" stroke="transparent" points="8,-38.2 8,-194.2 244,-194.2 244,-38.2 8,-38.2"/>
<polygon fill="#f5f5f5" stroke="transparent" points="10,-169.2 10,-192.2 242,-192.2 242,-169.2 10,-169.2"/>
<polygon fill="none" stroke="#000000" points="10,-169.2 10,-192.2 242,-192.2 242,-169.2 10,-169.2"/>
<text text-anchor="start" x="15" y="-177.8" font-family="Helvetica,sans-Serif" font-weight="bold" font-size="11.00" fill="#000000">act_re_deployment</text>
<text text-anchor="start" x="207.0437" y="-177.3" font-family="Helvetica,sans-Serif" font-size="11.00" fill="#000000">[table]</text>
<polygon fill="none" stroke="#000000" points="10,-147.2 10,-169.2 158,-169.2 158,-147.2 10,-147.2"/>
<image xlink:href="../../images/primaryKeys.png" width="11px" height="12px" preserveAspectRatio="xMinYMin meet" x="15" y="-164.2"/>
<text text-anchor="start" x="30" y="-154.3" font-family="Helvetica,sans-Serif" font-size="11.00" fill="#000000">id_</text>
<polygon fill="none" stroke="#000000" points="158,-147.2 158,-169.2 242,-169.2 242,-147.2 158,-147.2"/>
<text text-anchor="start" x="161" y="-154.9" font-family="Helvetica,sans-Serif" font-size="11.00" fill="#000000">varchar[64]</text>
<polygon fill="#ffffff" stroke="transparent" points="10,-125.2 10,-147.2 158,-147.2 158,-125.2 10,-125.2"/>
<polygon fill="none" stroke="#000000" points="10,-125.2 10,-147.2 158,-147.2 158,-125.2 10,-125.2"/>
<text text-anchor="start" x="30" y="-132.3" font-family="Helvetica,sans-Serif" font-size="11.00" fill="#000000">name_</text>
<polygon fill="none" stroke="#000000" points="158,-125.2 158,-147.2 242,-147.2 242,-125.2 158,-125.2"/>
<text text-anchor="start" x="161" y="-132.9" font-family="Helvetica,sans-Serif" font-size="11.00" fill="#000000">varchar[255]</text>
<polygon fill="none" stroke="#000000" points="10,-103.2 10,-125.2 158,-125.2 158,-103.2 10,-103.2"/>
<text text-anchor="start" x="30" y="-110.3" font-family="Helvetica,sans-Serif" font-size="11.00" fill="#000000">deploy_time_</text>
<polygon fill="none" stroke="#000000" points="158,-103.2 158,-125.2 242,-125.2 242,-103.2 158,-103.2"/>
<text text-anchor="start" x="160.8807" y="-110.9" font-family="Helvetica,sans-Serif" font-size="11.00" fill="#000000">timestamp[29,6]</text>
<polygon fill="none" stroke="#000000" points="10,-81.2 10,-103.2 158,-103.2 158,-81.2 10,-81.2"/>
<text text-anchor="start" x="30" y="-88.3" font-family="Helvetica,sans-Serif" font-size="11.00" fill="#000000">source_</text>
<polygon fill="none" stroke="#000000" points="158,-81.2 158,-103.2 242,-103.2 242,-81.2 158,-81.2"/>
<text text-anchor="start" x="161" y="-88.9" font-family="Helvetica,sans-Serif" font-size="11.00" fill="#000000">varchar[255]</text>
<polygon fill="#ffffff" stroke="transparent" points="10,-59.2 10,-81.2 158,-81.2 158,-59.2 10,-59.2"/>
<polygon fill="none" stroke="#000000" points="10,-59.2 10,-81.2 158,-81.2 158,-59.2 10,-59.2"/>
<text text-anchor="start" x="30" y="-66.3" font-family="Helvetica,sans-Serif" font-size="11.00" fill="#000000">tenant_id_</text>
<polygon fill="none" stroke="#000000" points="158,-59.2 158,-81.2 242,-81.2 242,-59.2 158,-59.2"/>
<text text-anchor="start" x="161" y="-66.9" font-family="Helvetica,sans-Serif" font-size="11.00" fill="#000000">varchar[64]</text>
<polygon fill="#ffffff" stroke="transparent" points="10,-40.2 10,-59.2 88,-59.2 88,-40.2 10,-40.2"/>
<polygon fill="none" stroke="#000000" points="10,-40.2 10,-59.2 88,-59.2 88,-40.2 10,-40.2"/>
<text text-anchor="start" x="13" y="-46.3" font-family="Helvetica,sans-Serif" font-size="11.00" fill="#000000">&lt; 0</text>
<polygon fill="#ffffff" stroke="transparent" points="88,-40.2 88,-59.2 158,-59.2 158,-40.2 88,-40.2"/>
<polygon fill="none" stroke="#000000" points="88,-40.2 88,-59.2 158,-59.2 158,-40.2 88,-40.2"/>
<text text-anchor="start" x="148.8862" y="-46.3" font-family="Helvetica,sans-Serif" font-size="11.00" fill="#000000"> &#160;</text>
<polygon fill="#ffffff" stroke="transparent" points="158,-40.2 158,-59.2 242,-59.2 242,-40.2 158,-40.2"/>
<polygon fill="none" stroke="#000000" points="158,-40.2 158,-59.2 242,-59.2 242,-40.2 158,-40.2"/>
<text text-anchor="start" x="223.4053" y="-46.3" font-family="Helvetica,sans-Serif" font-size="11.00" fill="#000000">1 &gt;</text>
<polygon fill="none" stroke="#000000" stroke-width="2" points="9,-39.2 9,-193.2 243,-193.2 243,-39.2 9,-39.2"/>
</a>
</g>
</g>
<!-- act_ge_bytearray&#45;&gt;act_re_deployment -->
<g id="edge1" class="edge">
<title>act_ge_bytearray:w&#45;&gt;act_re_deployment:e</title>
<path fill="none" stroke="#000000" d="M278.276,-158.2C266.2815,-158.2 258.8229,-158.2 242,-158.2"/>
<polygon fill="#000000" stroke="#000000" points="285,-158.2001 293,-161.8 289,-158.2 293,-158.2 293,-158.2 293,-158.2 289,-158.2 293,-154.6 285,-158.2001 285,-158.2001"/>
<ellipse fill="none" stroke="#000000" cx="281.8" cy="-158.2001" rx="3.2" ry="3.2"/>
</g>
<!-- act_ru_ext_task -->
<g id="node3" class="node">
<title>act_ru_ext_task</title>
<g id="a_node3"><a xlink:href="../../tables/act_ru_ext_task.html" xlink:title="act_ru_ext_task" target="_top">
<polygon fill="#ffffff" stroke="transparent" points="496,-256.7 496,-317.7 638,-317.7 638,-256.7 496,-256.7"/>
<polygon fill="#f5f5f5" stroke="transparent" points="496,-294.2 496,-317.2 638,-317.2 638,-294.2 496,-294.2"/>
<polygon fill="none" stroke="#000000" points="496,-294.2 496,-317.2 638,-317.2 638,-294.2 496,-294.2"/>
<text text-anchor="start" x="501" y="-302.8" font-family="Helvetica,sans-Serif" font-weight="bold" font-size="11.00" fill="#000000">act_ru_ext_task</text>
<text text-anchor="start" x="603.5219" y="-302.3" font-family="Helvetica,sans-Serif" font-size="11.00" fill="#000000">[table]</text>
<polygon fill="none" stroke="#000000" points="496,-275.2 496,-294.2 638,-294.2 638,-275.2 496,-275.2"/>
<text text-anchor="start" x="499" y="-281.3" font-family="Helvetica,sans-Serif" font-size="11.00" fill="#000000">...</text>
<polygon fill="#ffffff" stroke="transparent" points="496,-256.2 496,-275.2 565,-275.2 565,-256.2 496,-256.2"/>
<polygon fill="none" stroke="#000000" points="496,-256.2 496,-275.2 565,-275.2 565,-256.2 496,-256.2"/>
<text text-anchor="start" x="499" y="-262.3" font-family="Helvetica,sans-Serif" font-size="11.00" fill="#000000">&lt; 2</text>
<polygon fill="#ffffff" stroke="transparent" points="565,-256.2 565,-275.2 601,-275.2 601,-256.2 565,-256.2"/>
<polygon fill="none" stroke="#000000" points="565,-256.2 565,-275.2 601,-275.2 601,-256.2 565,-256.2"/>
<text text-anchor="start" x="591.8862" y="-262.3" font-family="Helvetica,sans-Serif" font-size="11.00" fill="#000000"> &#160;</text>
<polygon fill="#ffffff" stroke="transparent" points="601,-256.2 601,-275.2 638,-275.2 638,-256.2 601,-256.2"/>
<polygon fill="none" stroke="#000000" points="601,-256.2 601,-275.2 638,-275.2 638,-256.2 601,-256.2"/>
<text text-anchor="start" x="628.8862" y="-262.3" font-family="Helvetica,sans-Serif" font-size="11.00" fill="#000000"> &#160;</text>
</a>
</g>
</g>
<!-- act_ru_ext_task&#45;&gt;act_ge_bytearray -->
<g id="edge2" class="edge">
<title>act_ru_ext_task:w&#45;&gt;act_ge_bytearray:e</title>
<path fill="none" stroke="#000000" d="M482.0294,-279.5564C462.288,-262.2098 483.3194,-202.2 447,-202.2"/>
<polygon fill="#000000" stroke="#000000" points="488.4084,-281.6766 494.8645,-287.6162 492.2042,-282.9383 496,-284.2 496,-284.2 496,-284.2 492.2042,-282.9383 497.1355,-280.7838 488.4084,-281.6766 488.4084,-281.6766"/>
<ellipse fill="none" stroke="#000000" cx="485.3717" cy="-280.6673" rx="3.2" ry="3.2"/>
</g>
<!-- act_ru_job -->
<g id="node4" class="node">
<title>act_ru_job</title>
<g id="a_node4"><a xlink:href="../../tables/act_ru_job.html" xlink:title="act_ru_job" target="_top">
<polygon fill="#ffffff" stroke="transparent" points="513.5,-174.7 513.5,-235.7 620.5,-235.7 620.5,-174.7 513.5,-174.7"/>
<polygon fill="#f5f5f5" stroke="transparent" points="514,-212.2 514,-235.2 621,-235.2 621,-212.2 514,-212.2"/>
<polygon fill="none" stroke="#000000" points="514,-212.2 514,-235.2 621,-235.2 621,-212.2 514,-212.2"/>
<text text-anchor="start" x="519" y="-220.8" font-family="Helvetica,sans-Serif" font-weight="bold" font-size="11.00" fill="#000000">act_ru_job</text>
<text text-anchor="start" x="586.5219" y="-220.3" font-family="Helvetica,sans-Serif" font-size="11.00" fill="#000000">[table]</text>
<polygon fill="none" stroke="#000000" points="514,-193.2 514,-212.2 621,-212.2 621,-193.2 514,-193.2"/>
<text text-anchor="start" x="517" y="-199.3" font-family="Helvetica,sans-Serif" font-size="11.00" fill="#000000">...</text>
<polygon fill="#ffffff" stroke="transparent" points="514,-174.2 514,-193.2 566,-193.2 566,-174.2 514,-174.2"/>
<polygon fill="none" stroke="#000000" points="514,-174.2 514,-193.2 566,-193.2 566,-174.2 514,-174.2"/>
<text text-anchor="start" x="517" y="-180.3" font-family="Helvetica,sans-Serif" font-size="11.00" fill="#000000">&lt; 1</text>
<polygon fill="#ffffff" stroke="transparent" points="566,-174.2 566,-193.2 593,-193.2 593,-174.2 566,-174.2"/>
<polygon fill="none" stroke="#000000" points="566,-174.2 566,-193.2 593,-193.2 593,-174.2 566,-174.2"/>
<text text-anchor="start" x="583.8862" y="-180.3" font-family="Helvetica,sans-Serif" font-size="11.00" fill="#000000"> &#160;</text>
<polygon fill="#ffffff" stroke="transparent" points="593,-174.2 593,-193.2 621,-193.2 621,-174.2 593,-174.2"/>
<polygon fill="none" stroke="#000000" points="593,-174.2 593,-193.2 621,-193.2 621,-174.2 593,-174.2"/>
<text text-anchor="start" x="611.8862" y="-180.3" font-family="Helvetica,sans-Serif" font-size="11.00" fill="#000000"> &#160;</text>
</a>
</g>
</g>
<!-- act_ru_job&#45;&gt;act_ge_bytearray -->
<g id="edge3" class="edge">
<title>act_ru_job:w&#45;&gt;act_ge_bytearray:e</title>
<path fill="none" stroke="#000000" d="M499.5809,-202.2C480.7359,-202.2 471.3108,-202.2 447,-202.2"/>
<polygon fill="#000000" stroke="#000000" points="506,-202.2001 514,-205.8 510,-202.2 514,-202.2 514,-202.2 514,-202.2 510,-202.2 514,-198.6 506,-202.2001 506,-202.2001"/>
<ellipse fill="none" stroke="#000000" cx="502.8" cy="-202.2001" rx="3.2" ry="3.2"/>
</g>
<!-- act_ru_variable -->
<g id="node5" class="node">
<title>act_ru_variable</title>
<g id="a_node5"><a xlink:href="../../tables/act_ru_variable.html" xlink:title="act_ru_variable" target="_top">
<polygon fill="#ffffff" stroke="transparent" points="496.5,-92.7 496.5,-153.7 637.5,-153.7 637.5,-92.7 496.5,-92.7"/>
<polygon fill="#f5f5f5" stroke="transparent" points="497,-130.2 497,-153.2 638,-153.2 638,-130.2 497,-130.2"/>
<polygon fill="none" stroke="#000000" points="497,-130.2 497,-153.2 638,-153.2 638,-130.2 497,-130.2"/>
<text text-anchor="start" x="502" y="-138.8" font-family="Helvetica,sans-Serif" font-weight="bold" font-size="11.00" fill="#000000">act_ru_variable</text>
<text text-anchor="start" x="603.5219" y="-138.3" font-family="Helvetica,sans-Serif" font-size="11.00" fill="#000000">[table]</text>
<polygon fill="none" stroke="#000000" points="497,-111.2 497,-130.2 638,-130.2 638,-111.2 497,-111.2"/>
<text text-anchor="start" x="500" y="-117.3" font-family="Helvetica,sans-Serif" font-size="11.00" fill="#000000">...</text>
<polygon fill="#ffffff" stroke="transparent" points="497,-92.2 497,-111.2 566,-111.2 566,-92.2 497,-92.2"/>
<polygon fill="none" stroke="#000000" points="497,-92.2 497,-111.2 566,-111.2 566,-92.2 497,-92.2"/>
<text text-anchor="start" x="500" y="-98.3" font-family="Helvetica,sans-Serif" font-size="11.00" fill="#000000">&lt; 6</text>
<polygon fill="#ffffff" stroke="transparent" points="566,-92.2 566,-111.2 602,-111.2 602,-92.2 566,-92.2"/>
<polygon fill="none" stroke="#000000" points="566,-92.2 566,-111.2 602,-111.2 602,-92.2 566,-92.2"/>
<text text-anchor="start" x="592.8862" y="-98.3" font-family="Helvetica,sans-Serif" font-size="11.00" fill="#000000"> &#160;</text>
<polygon fill="#ffffff" stroke="transparent" points="602,-92.2 602,-111.2 638,-111.2 638,-92.2 602,-92.2"/>
<polygon fill="none" stroke="#000000" points="602,-92.2 602,-111.2 638,-111.2 638,-92.2 602,-92.2"/>
<text text-anchor="start" x="628.8862" y="-98.3" font-family="Helvetica,sans-Serif" font-size="11.00" fill="#000000"> &#160;</text>
</a>
</g>
</g>
<!-- act_ru_variable&#45;&gt;act_ge_bytearray -->
<g id="edge4" class="edge">
<title>act_ru_variable:w&#45;&gt;act_ge_bytearray:e</title>
<path fill="none" stroke="#000000" d="M483.1888,-124.6087C462.7192,-141.6409 483.6826,-202.2 447,-202.2"/>
<polygon fill="#000000" stroke="#000000" points="489.3789,-122.6328 498.0948,-123.6295 493.1894,-121.4164 497,-120.2 497,-120.2 497,-120.2 493.1894,-121.4164 495.9052,-116.7705 489.3789,-122.6328 489.3789,-122.6328"/>
<ellipse fill="none" stroke="#000000" cx="486.3304" cy="-123.6059" rx="3.2" ry="3.2"/>
</g>
</g>
</svg>
