<?xml version="1.0" encoding="UTF-8" standalone="no"?>
<!DOCTYPE svg PUBLIC "-//W3C//DTD SVG 1.1//EN"
 "http://www.w3.org/Graphics/SVG/1.1/DTD/svg11.dtd">
<!-- Generated by graphviz version 2.40.1 (20161225.0304)
 -->
<!-- Title: oneDegreeRelationshipsDiagram Pages: 1 -->
<svg width="260pt" height="690pt"
 viewBox="0.00 0.00 260.00 690.20" xmlns="http://www.w3.org/2000/svg" xmlns:xlink="http://www.w3.org/1999/xlink">
<g id="graph0" class="graph" transform="scale(1 1) rotate(0) translate(4 686.2)">
<title>oneDegreeRelationshipsDiagram</title>
<polygon fill="#ffffff" stroke="transparent" points="-4,4 -4,-686.2 256,-686.2 256,4 -4,4"/>
<text text-anchor="middle" x="72.4936" y="-7.3" font-family="Helvetica,sans-Serif" font-size="11.00" fill="#000000">Generated by SchemaSpy</text>
<!-- act_hi_op_log -->
<g id="node1" class="node">
<title>act_hi_op_log</title>
<g id="a_node1"><a xlink:href="../../tables/act_hi_op_log.html" xlink:title="act_hi_op_log" target="_top">
<polygon fill="#ffffff" stroke="transparent" points="8,-38.2 8,-678.2 244,-678.2 244,-38.2 8,-38.2"/>
<polygon fill="#f5f5f5" stroke="transparent" points="10,-653.2 10,-676.2 242,-676.2 242,-653.2 10,-653.2"/>
<polygon fill="none" stroke="#000000" points="10,-653.2 10,-676.2 242,-676.2 242,-653.2 10,-653.2"/>
<text text-anchor="start" x="15" y="-661.8" font-family="Helvetica,sans-Serif" font-weight="bold" font-size="11.00" fill="#000000">act_hi_op_log</text>
<text text-anchor="start" x="207.0437" y="-661.3" font-family="Helvetica,sans-Serif" font-size="11.00" fill="#000000">[table]</text>
<polygon fill="none" stroke="#000000" points="10,-631.2 10,-653.2 158,-653.2 158,-631.2 10,-631.2"/>
<image xlink:href="../../images/primaryKeys.png" width="11px" height="12px" preserveAspectRatio="xMinYMin meet" x="15" y="-648.2"/>
<text text-anchor="start" x="30" y="-638.3" font-family="Helvetica,sans-Serif" font-size="11.00" fill="#000000">id_</text>
<polygon fill="none" stroke="#000000" points="158,-631.2 158,-653.2 242,-653.2 242,-631.2 158,-631.2"/>
<text text-anchor="start" x="161" y="-638.9" font-family="Helvetica,sans-Serif" font-size="11.00" fill="#000000">varchar[64]</text>
<polygon fill="none" stroke="#000000" points="10,-609.2 10,-631.2 158,-631.2 158,-609.2 10,-609.2"/>
<text text-anchor="start" x="30" y="-616.3" font-family="Helvetica,sans-Serif" font-size="11.00" fill="#000000">deployment_id_</text>
<polygon fill="none" stroke="#000000" points="158,-609.2 158,-631.2 242,-631.2 242,-609.2 158,-609.2"/>
<text text-anchor="start" x="161" y="-616.9" font-family="Helvetica,sans-Serif" font-size="11.00" fill="#000000">varchar[64]</text>
<polygon fill="#ffffff" stroke="transparent" points="10,-587.2 10,-609.2 158,-609.2 158,-587.2 10,-587.2"/>
<polygon fill="none" stroke="#000000" points="10,-587.2 10,-609.2 158,-609.2 158,-587.2 10,-587.2"/>
<text text-anchor="start" x="30" y="-594.3" font-family="Helvetica,sans-Serif" font-size="11.00" fill="#000000">proc_def_id_</text>
<polygon fill="none" stroke="#000000" points="158,-587.2 158,-609.2 242,-609.2 242,-587.2 158,-587.2"/>
<text text-anchor="start" x="161" y="-594.9" font-family="Helvetica,sans-Serif" font-size="11.00" fill="#000000">varchar[64]</text>
<polygon fill="none" stroke="#000000" points="10,-565.2 10,-587.2 158,-587.2 158,-565.2 10,-565.2"/>
<text text-anchor="start" x="30" y="-572.3" font-family="Helvetica,sans-Serif" font-size="11.00" fill="#000000">proc_def_key_</text>
<polygon fill="none" stroke="#000000" points="158,-565.2 158,-587.2 242,-587.2 242,-565.2 158,-565.2"/>
<text text-anchor="start" x="161" y="-572.9" font-family="Helvetica,sans-Serif" font-size="11.00" fill="#000000">varchar[255]</text>
<polygon fill="#ffffff" stroke="transparent" points="10,-543.2 10,-565.2 158,-565.2 158,-543.2 10,-543.2"/>
<polygon fill="none" stroke="#000000" points="10,-543.2 10,-565.2 158,-565.2 158,-543.2 10,-543.2"/>
<text text-anchor="start" x="30" y="-550.3" font-family="Helvetica,sans-Serif" font-size="11.00" fill="#000000">root_proc_inst_id_</text>
<polygon fill="none" stroke="#000000" points="158,-543.2 158,-565.2 242,-565.2 242,-543.2 158,-543.2"/>
<text text-anchor="start" x="161" y="-550.9" font-family="Helvetica,sans-Serif" font-size="11.00" fill="#000000">varchar[64]</text>
<polygon fill="#ffffff" stroke="transparent" points="10,-521.2 10,-543.2 158,-543.2 158,-521.2 10,-521.2"/>
<polygon fill="none" stroke="#000000" points="10,-521.2 10,-543.2 158,-543.2 158,-521.2 10,-521.2"/>
<text text-anchor="start" x="30" y="-528.3" font-family="Helvetica,sans-Serif" font-size="11.00" fill="#000000">proc_inst_id_</text>
<polygon fill="none" stroke="#000000" points="158,-521.2 158,-543.2 242,-543.2 242,-521.2 158,-521.2"/>
<text text-anchor="start" x="161" y="-528.9" font-family="Helvetica,sans-Serif" font-size="11.00" fill="#000000">varchar[64]</text>
<polygon fill="none" stroke="#000000" points="10,-499.2 10,-521.2 158,-521.2 158,-499.2 10,-499.2"/>
<text text-anchor="start" x="30" y="-506.3" font-family="Helvetica,sans-Serif" font-size="11.00" fill="#000000">execution_id_</text>
<polygon fill="none" stroke="#000000" points="158,-499.2 158,-521.2 242,-521.2 242,-499.2 158,-499.2"/>
<text text-anchor="start" x="161" y="-506.9" font-family="Helvetica,sans-Serif" font-size="11.00" fill="#000000">varchar[64]</text>
<polygon fill="none" stroke="#000000" points="10,-477.2 10,-499.2 158,-499.2 158,-477.2 10,-477.2"/>
<text text-anchor="start" x="30" y="-484.3" font-family="Helvetica,sans-Serif" font-size="11.00" fill="#000000">case_def_id_</text>
<polygon fill="none" stroke="#000000" points="158,-477.2 158,-499.2 242,-499.2 242,-477.2 158,-477.2"/>
<text text-anchor="start" x="161" y="-484.9" font-family="Helvetica,sans-Serif" font-size="11.00" fill="#000000">varchar[64]</text>
<polygon fill="none" stroke="#000000" points="10,-455.2 10,-477.2 158,-477.2 158,-455.2 10,-455.2"/>
<text text-anchor="start" x="30" y="-462.3" font-family="Helvetica,sans-Serif" font-size="11.00" fill="#000000">case_inst_id_</text>
<polygon fill="none" stroke="#000000" points="158,-455.2 158,-477.2 242,-477.2 242,-455.2 158,-455.2"/>
<text text-anchor="start" x="161" y="-462.9" font-family="Helvetica,sans-Serif" font-size="11.00" fill="#000000">varchar[64]</text>
<polygon fill="none" stroke="#000000" points="10,-433.2 10,-455.2 158,-455.2 158,-433.2 10,-433.2"/>
<text text-anchor="start" x="30" y="-440.3" font-family="Helvetica,sans-Serif" font-size="11.00" fill="#000000">case_execution_id_</text>
<polygon fill="none" stroke="#000000" points="158,-433.2 158,-455.2 242,-455.2 242,-433.2 158,-433.2"/>
<text text-anchor="start" x="161" y="-440.9" font-family="Helvetica,sans-Serif" font-size="11.00" fill="#000000">varchar[64]</text>
<polygon fill="#ffffff" stroke="transparent" points="10,-411.2 10,-433.2 158,-433.2 158,-411.2 10,-411.2"/>
<polygon fill="none" stroke="#000000" points="10,-411.2 10,-433.2 158,-433.2 158,-411.2 10,-411.2"/>
<text text-anchor="start" x="30" y="-418.3" font-family="Helvetica,sans-Serif" font-size="11.00" fill="#000000">task_id_</text>
<polygon fill="none" stroke="#000000" points="158,-411.2 158,-433.2 242,-433.2 242,-411.2 158,-411.2"/>
<text text-anchor="start" x="161" y="-418.9" font-family="Helvetica,sans-Serif" font-size="11.00" fill="#000000">varchar[64]</text>
<polygon fill="none" stroke="#000000" points="10,-389.2 10,-411.2 158,-411.2 158,-389.2 10,-389.2"/>
<text text-anchor="start" x="30" y="-396.3" font-family="Helvetica,sans-Serif" font-size="11.00" fill="#000000">job_id_</text>
<polygon fill="none" stroke="#000000" points="158,-389.2 158,-411.2 242,-411.2 242,-389.2 158,-389.2"/>
<text text-anchor="start" x="161" y="-396.9" font-family="Helvetica,sans-Serif" font-size="11.00" fill="#000000">varchar[64]</text>
<polygon fill="none" stroke="#000000" points="10,-367.2 10,-389.2 158,-389.2 158,-367.2 10,-367.2"/>
<text text-anchor="start" x="30" y="-374.3" font-family="Helvetica,sans-Serif" font-size="11.00" fill="#000000">job_def_id_</text>
<polygon fill="none" stroke="#000000" points="158,-367.2 158,-389.2 242,-389.2 242,-367.2 158,-367.2"/>
<text text-anchor="start" x="161" y="-374.9" font-family="Helvetica,sans-Serif" font-size="11.00" fill="#000000">varchar[64]</text>
<polygon fill="none" stroke="#000000" points="10,-345.2 10,-367.2 158,-367.2 158,-345.2 10,-345.2"/>
<text text-anchor="start" x="30" y="-352.3" font-family="Helvetica,sans-Serif" font-size="11.00" fill="#000000">batch_id_</text>
<polygon fill="none" stroke="#000000" points="158,-345.2 158,-367.2 242,-367.2 242,-345.2 158,-345.2"/>
<text text-anchor="start" x="161" y="-352.9" font-family="Helvetica,sans-Serif" font-size="11.00" fill="#000000">varchar[64]</text>
<polygon fill="#ffffff" stroke="transparent" points="10,-323.2 10,-345.2 158,-345.2 158,-323.2 10,-323.2"/>
<polygon fill="none" stroke="#000000" points="10,-323.2 10,-345.2 158,-345.2 158,-323.2 10,-323.2"/>
<text text-anchor="start" x="30" y="-330.3" font-family="Helvetica,sans-Serif" font-size="11.00" fill="#000000">user_id_</text>
<polygon fill="none" stroke="#000000" points="158,-323.2 158,-345.2 242,-345.2 242,-323.2 158,-323.2"/>
<text text-anchor="start" x="161" y="-330.9" font-family="Helvetica,sans-Serif" font-size="11.00" fill="#000000">varchar[255]</text>
<polygon fill="#ffffff" stroke="transparent" points="10,-301.2 10,-323.2 158,-323.2 158,-301.2 10,-301.2"/>
<polygon fill="none" stroke="#000000" points="10,-301.2 10,-323.2 158,-323.2 158,-301.2 10,-301.2"/>
<text text-anchor="start" x="30" y="-308.3" font-family="Helvetica,sans-Serif" font-size="11.00" fill="#000000">timestamp_</text>
<polygon fill="none" stroke="#000000" points="158,-301.2 158,-323.2 242,-323.2 242,-301.2 158,-301.2"/>
<text text-anchor="start" x="160.8807" y="-308.9" font-family="Helvetica,sans-Serif" font-size="11.00" fill="#000000">timestamp[29,6]</text>
<polygon fill="#ffffff" stroke="transparent" points="10,-279.2 10,-301.2 158,-301.2 158,-279.2 10,-279.2"/>
<polygon fill="none" stroke="#000000" points="10,-279.2 10,-301.2 158,-301.2 158,-279.2 10,-279.2"/>
<text text-anchor="start" x="30" y="-286.3" font-family="Helvetica,sans-Serif" font-size="11.00" fill="#000000">operation_type_</text>
<polygon fill="none" stroke="#000000" points="158,-279.2 158,-301.2 242,-301.2 242,-279.2 158,-279.2"/>
<text text-anchor="start" x="161" y="-286.9" font-family="Helvetica,sans-Serif" font-size="11.00" fill="#000000">varchar[64]</text>
<polygon fill="none" stroke="#000000" points="10,-257.2 10,-279.2 158,-279.2 158,-257.2 10,-257.2"/>
<text text-anchor="start" x="30" y="-264.3" font-family="Helvetica,sans-Serif" font-size="11.00" fill="#000000">operation_id_</text>
<polygon fill="none" stroke="#000000" points="158,-257.2 158,-279.2 242,-279.2 242,-257.2 158,-257.2"/>
<text text-anchor="start" x="161" y="-264.9" font-family="Helvetica,sans-Serif" font-size="11.00" fill="#000000">varchar[64]</text>
<polygon fill="#ffffff" stroke="transparent" points="10,-235.2 10,-257.2 158,-257.2 158,-235.2 10,-235.2"/>
<polygon fill="none" stroke="#000000" points="10,-235.2 10,-257.2 158,-257.2 158,-235.2 10,-235.2"/>
<text text-anchor="start" x="30" y="-242.3" font-family="Helvetica,sans-Serif" font-size="11.00" fill="#000000">entity_type_</text>
<polygon fill="none" stroke="#000000" points="158,-235.2 158,-257.2 242,-257.2 242,-235.2 158,-235.2"/>
<text text-anchor="start" x="161" y="-242.9" font-family="Helvetica,sans-Serif" font-size="11.00" fill="#000000">varchar[30]</text>
<polygon fill="none" stroke="#000000" points="10,-213.2 10,-235.2 158,-235.2 158,-213.2 10,-213.2"/>
<text text-anchor="start" x="30" y="-220.3" font-family="Helvetica,sans-Serif" font-size="11.00" fill="#000000">property_</text>
<polygon fill="none" stroke="#000000" points="158,-213.2 158,-235.2 242,-235.2 242,-213.2 158,-213.2"/>
<text text-anchor="start" x="161" y="-220.9" font-family="Helvetica,sans-Serif" font-size="11.00" fill="#000000">varchar[64]</text>
<polygon fill="none" stroke="#000000" points="10,-191.2 10,-213.2 158,-213.2 158,-191.2 10,-191.2"/>
<text text-anchor="start" x="30" y="-198.3" font-family="Helvetica,sans-Serif" font-size="11.00" fill="#000000">org_value_</text>
<polygon fill="none" stroke="#000000" points="158,-191.2 158,-213.2 242,-213.2 242,-191.2 158,-191.2"/>
<text text-anchor="start" x="161" y="-198.9" font-family="Helvetica,sans-Serif" font-size="11.00" fill="#000000">varchar[4000]</text>
<polygon fill="none" stroke="#000000" points="10,-169.2 10,-191.2 158,-191.2 158,-169.2 10,-169.2"/>
<text text-anchor="start" x="30" y="-176.3" font-family="Helvetica,sans-Serif" font-size="11.00" fill="#000000">new_value_</text>
<polygon fill="none" stroke="#000000" points="158,-169.2 158,-191.2 242,-191.2 242,-169.2 158,-169.2"/>
<text text-anchor="start" x="161" y="-176.9" font-family="Helvetica,sans-Serif" font-size="11.00" fill="#000000">varchar[4000]</text>
<polygon fill="none" stroke="#000000" points="10,-147.2 10,-169.2 158,-169.2 158,-147.2 10,-147.2"/>
<text text-anchor="start" x="30" y="-154.3" font-family="Helvetica,sans-Serif" font-size="11.00" fill="#000000">tenant_id_</text>
<polygon fill="none" stroke="#000000" points="158,-147.2 158,-169.2 242,-169.2 242,-147.2 158,-147.2"/>
<text text-anchor="start" x="161" y="-154.9" font-family="Helvetica,sans-Serif" font-size="11.00" fill="#000000">varchar[64]</text>
<polygon fill="#ffffff" stroke="transparent" points="10,-125.2 10,-147.2 158,-147.2 158,-125.2 10,-125.2"/>
<polygon fill="none" stroke="#000000" points="10,-125.2 10,-147.2 158,-147.2 158,-125.2 10,-125.2"/>
<text text-anchor="start" x="30" y="-132.3" font-family="Helvetica,sans-Serif" font-size="11.00" fill="#000000">removal_time_</text>
<polygon fill="none" stroke="#000000" points="158,-125.2 158,-147.2 242,-147.2 242,-125.2 158,-125.2"/>
<text text-anchor="start" x="160.8807" y="-132.9" font-family="Helvetica,sans-Serif" font-size="11.00" fill="#000000">timestamp[29,6]</text>
<polygon fill="none" stroke="#000000" points="10,-103.2 10,-125.2 158,-125.2 158,-103.2 10,-103.2"/>
<text text-anchor="start" x="30" y="-110.3" font-family="Helvetica,sans-Serif" font-size="11.00" fill="#000000">category_</text>
<polygon fill="none" stroke="#000000" points="158,-103.2 158,-125.2 242,-125.2 242,-103.2 158,-103.2"/>
<text text-anchor="start" x="161" y="-110.9" font-family="Helvetica,sans-Serif" font-size="11.00" fill="#000000">varchar[64]</text>
<polygon fill="none" stroke="#000000" points="10,-81.2 10,-103.2 158,-103.2 158,-81.2 10,-81.2"/>
<text text-anchor="start" x="30" y="-88.3" font-family="Helvetica,sans-Serif" font-size="11.00" fill="#000000">external_task_id_</text>
<polygon fill="none" stroke="#000000" points="158,-81.2 158,-103.2 242,-103.2 242,-81.2 158,-81.2"/>
<text text-anchor="start" x="161" y="-88.9" font-family="Helvetica,sans-Serif" font-size="11.00" fill="#000000">varchar[64]</text>
<polygon fill="none" stroke="#000000" points="10,-59.2 10,-81.2 158,-81.2 158,-59.2 10,-59.2"/>
<text text-anchor="start" x="30" y="-66.3" font-family="Helvetica,sans-Serif" font-size="11.00" fill="#000000">annotation_</text>
<polygon fill="none" stroke="#000000" points="158,-59.2 158,-81.2 242,-81.2 242,-59.2 158,-59.2"/>
<text text-anchor="start" x="161" y="-66.9" font-family="Helvetica,sans-Serif" font-size="11.00" fill="#000000">varchar[4000]</text>
<polygon fill="#ffffff" stroke="transparent" points="10,-40.2 10,-59.2 88,-59.2 88,-40.2 10,-40.2"/>
<polygon fill="none" stroke="#000000" points="10,-40.2 10,-59.2 88,-59.2 88,-40.2 10,-40.2"/>
<text text-anchor="start" x="13" y="-46.3" font-family="Helvetica,sans-Serif" font-size="11.00" fill="#000000">&lt; 0</text>
<polygon fill="#ffffff" stroke="transparent" points="88,-40.2 88,-59.2 158,-59.2 158,-40.2 88,-40.2"/>
<polygon fill="none" stroke="#000000" points="88,-40.2 88,-59.2 158,-59.2 158,-40.2 88,-40.2"/>
<text text-anchor="start" x="148.8862" y="-46.3" font-family="Helvetica,sans-Serif" font-size="11.00" fill="#000000"> &#160;</text>
<polygon fill="#ffffff" stroke="transparent" points="158,-40.2 158,-59.2 242,-59.2 242,-40.2 158,-40.2"/>
<polygon fill="none" stroke="#000000" points="158,-40.2 158,-59.2 242,-59.2 242,-40.2 158,-40.2"/>
<text text-anchor="start" x="223.4053" y="-46.3" font-family="Helvetica,sans-Serif" font-size="11.00" fill="#000000">0 &gt;</text>
<polygon fill="none" stroke="#000000" stroke-width="2" points="9,-39.2 9,-677.2 243,-677.2 243,-39.2 9,-39.2"/>
</a>
</g>
</g>
</g>
</svg>
