<?xml version="1.0" encoding="UTF-8" standalone="no"?>
<!DOCTYPE svg PUBLIC "-//W3C//DTD SVG 1.1//EN"
 "http://www.w3.org/Graphics/SVG/1.1/DTD/svg11.dtd">
<!-- Generated by graphviz version 2.40.1 (20161225.0304)
 -->
<!-- Title: oneDegreeRelationshipsDiagram Pages: 1 -->
<svg width="253pt" height="470pt"
 viewBox="0.00 0.00 253.00 470.20" xmlns="http://www.w3.org/2000/svg" xmlns:xlink="http://www.w3.org/1999/xlink">
<g id="graph0" class="graph" transform="scale(1 1) rotate(0) translate(4 466.2)">
<title>oneDegreeRelationshipsDiagram</title>
<polygon fill="#ffffff" stroke="transparent" points="-4,4 -4,-466.2 249,-466.2 249,4 -4,4"/>
<text text-anchor="middle" x="72.4936" y="-7.3" font-family="Helvetica,sans-Serif" font-size="11.00" fill="#000000">Generated by SchemaSpy</text>
<!-- act_hi_dec_out -->
<g id="node1" class="node">
<title>act_hi_dec_out</title>
<g id="a_node1"><a xlink:href="../../tables/act_hi_dec_out.html" xlink:title="act_hi_dec_out" target="_top">
<polygon fill="#ffffff" stroke="transparent" points="8,-38.2 8,-458.2 237,-458.2 237,-38.2 8,-38.2"/>
<polygon fill="#f5f5f5" stroke="transparent" points="10.5,-433.2 10.5,-456.2 235.5,-456.2 235.5,-433.2 10.5,-433.2"/>
<polygon fill="none" stroke="#000000" points="10.5,-433.2 10.5,-456.2 235.5,-456.2 235.5,-433.2 10.5,-433.2"/>
<text text-anchor="start" x="15.5" y="-441.8" font-family="Helvetica,sans-Serif" font-weight="bold" font-size="11.00" fill="#000000">act_hi_dec_out</text>
<text text-anchor="start" x="200.5437" y="-441.3" font-family="Helvetica,sans-Serif" font-size="11.00" fill="#000000">[table]</text>
<polygon fill="none" stroke="#000000" points="10.5,-411.2 10.5,-433.2 151.5,-433.2 151.5,-411.2 10.5,-411.2"/>
<image xlink:href="../../images/primaryKeys.png" width="11px" height="12px" preserveAspectRatio="xMinYMin meet" x="15.5" y="-428.2"/>
<text text-anchor="start" x="30.5" y="-418.3" font-family="Helvetica,sans-Serif" font-size="11.00" fill="#000000">id_</text>
<polygon fill="none" stroke="#000000" points="151.5,-411.2 151.5,-433.2 235.5,-433.2 235.5,-411.2 151.5,-411.2"/>
<text text-anchor="start" x="154.5" y="-418.9" font-family="Helvetica,sans-Serif" font-size="11.00" fill="#000000">varchar[64]</text>
<polygon fill="#ffffff" stroke="transparent" points="10.5,-389.2 10.5,-411.2 151.5,-411.2 151.5,-389.2 10.5,-389.2"/>
<polygon fill="none" stroke="#000000" points="10.5,-389.2 10.5,-411.2 151.5,-411.2 151.5,-389.2 10.5,-389.2"/>
<text text-anchor="start" x="30.5" y="-396.3" font-family="Helvetica,sans-Serif" font-size="11.00" fill="#000000">dec_inst_id_</text>
<polygon fill="none" stroke="#000000" points="151.5,-389.2 151.5,-411.2 235.5,-411.2 235.5,-389.2 151.5,-389.2"/>
<text text-anchor="start" x="154.5" y="-396.9" font-family="Helvetica,sans-Serif" font-size="11.00" fill="#000000">varchar[64]</text>
<polygon fill="#ffffff" stroke="transparent" points="10.5,-367.2 10.5,-389.2 151.5,-389.2 151.5,-367.2 10.5,-367.2"/>
<polygon fill="none" stroke="#000000" points="10.5,-367.2 10.5,-389.2 151.5,-389.2 151.5,-367.2 10.5,-367.2"/>
<text text-anchor="start" x="30.5" y="-374.3" font-family="Helvetica,sans-Serif" font-size="11.00" fill="#000000">clause_id_</text>
<polygon fill="none" stroke="#000000" points="151.5,-367.2 151.5,-389.2 235.5,-389.2 235.5,-367.2 151.5,-367.2"/>
<text text-anchor="start" x="154.5" y="-374.9" font-family="Helvetica,sans-Serif" font-size="11.00" fill="#000000">varchar[64]</text>
<polygon fill="none" stroke="#000000" points="10.5,-345.2 10.5,-367.2 151.5,-367.2 151.5,-345.2 10.5,-345.2"/>
<text text-anchor="start" x="30.5" y="-352.3" font-family="Helvetica,sans-Serif" font-size="11.00" fill="#000000">clause_name_</text>
<polygon fill="none" stroke="#000000" points="151.5,-345.2 151.5,-367.2 235.5,-367.2 235.5,-345.2 151.5,-345.2"/>
<text text-anchor="start" x="154.5" y="-352.9" font-family="Helvetica,sans-Serif" font-size="11.00" fill="#000000">varchar[255]</text>
<polygon fill="none" stroke="#000000" points="10.5,-323.2 10.5,-345.2 151.5,-345.2 151.5,-323.2 10.5,-323.2"/>
<text text-anchor="start" x="30.5" y="-330.3" font-family="Helvetica,sans-Serif" font-size="11.00" fill="#000000">rule_id_</text>
<polygon fill="none" stroke="#000000" points="151.5,-323.2 151.5,-345.2 235.5,-345.2 235.5,-323.2 151.5,-323.2"/>
<text text-anchor="start" x="154.5" y="-330.9" font-family="Helvetica,sans-Serif" font-size="11.00" fill="#000000">varchar[64]</text>
<polygon fill="#ffffff" stroke="transparent" points="10.5,-301.2 10.5,-323.2 151.5,-323.2 151.5,-301.2 10.5,-301.2"/>
<polygon fill="none" stroke="#000000" points="10.5,-301.2 10.5,-323.2 151.5,-323.2 151.5,-301.2 10.5,-301.2"/>
<text text-anchor="start" x="30.5" y="-308.3" font-family="Helvetica,sans-Serif" font-size="11.00" fill="#000000">rule_order_</text>
<polygon fill="none" stroke="#000000" points="151.5,-301.2 151.5,-323.2 235.5,-323.2 235.5,-301.2 151.5,-301.2"/>
<text text-anchor="start" x="154.5" y="-308.9" font-family="Helvetica,sans-Serif" font-size="11.00" fill="#000000">int4[10]</text>
<polygon fill="none" stroke="#000000" points="10.5,-279.2 10.5,-301.2 151.5,-301.2 151.5,-279.2 10.5,-279.2"/>
<text text-anchor="start" x="30.5" y="-286.3" font-family="Helvetica,sans-Serif" font-size="11.00" fill="#000000">var_name_</text>
<polygon fill="none" stroke="#000000" points="151.5,-279.2 151.5,-301.2 235.5,-301.2 235.5,-279.2 151.5,-279.2"/>
<text text-anchor="start" x="154.5" y="-286.9" font-family="Helvetica,sans-Serif" font-size="11.00" fill="#000000">varchar[255]</text>
<polygon fill="none" stroke="#000000" points="10.5,-257.2 10.5,-279.2 151.5,-279.2 151.5,-257.2 10.5,-257.2"/>
<text text-anchor="start" x="30.5" y="-264.3" font-family="Helvetica,sans-Serif" font-size="11.00" fill="#000000">var_type_</text>
<polygon fill="none" stroke="#000000" points="151.5,-257.2 151.5,-279.2 235.5,-279.2 235.5,-257.2 151.5,-257.2"/>
<text text-anchor="start" x="154.5" y="-264.9" font-family="Helvetica,sans-Serif" font-size="11.00" fill="#000000">varchar[100]</text>
<polygon fill="none" stroke="#000000" points="10.5,-235.2 10.5,-257.2 151.5,-257.2 151.5,-235.2 10.5,-235.2"/>
<text text-anchor="start" x="30.5" y="-242.3" font-family="Helvetica,sans-Serif" font-size="11.00" fill="#000000">bytearray_id_</text>
<polygon fill="none" stroke="#000000" points="151.5,-235.2 151.5,-257.2 235.5,-257.2 235.5,-235.2 151.5,-235.2"/>
<text text-anchor="start" x="154.5" y="-242.9" font-family="Helvetica,sans-Serif" font-size="11.00" fill="#000000">varchar[64]</text>
<polygon fill="none" stroke="#000000" points="10.5,-213.2 10.5,-235.2 151.5,-235.2 151.5,-213.2 10.5,-213.2"/>
<text text-anchor="start" x="30.5" y="-220.3" font-family="Helvetica,sans-Serif" font-size="11.00" fill="#000000">double_</text>
<polygon fill="none" stroke="#000000" points="151.5,-213.2 151.5,-235.2 235.5,-235.2 235.5,-213.2 151.5,-213.2"/>
<text text-anchor="start" x="154.5" y="-220.9" font-family="Helvetica,sans-Serif" font-size="11.00" fill="#000000">float8[17,17]</text>
<polygon fill="none" stroke="#000000" points="10.5,-191.2 10.5,-213.2 151.5,-213.2 151.5,-191.2 10.5,-191.2"/>
<text text-anchor="start" x="30.5" y="-198.3" font-family="Helvetica,sans-Serif" font-size="11.00" fill="#000000">long_</text>
<polygon fill="none" stroke="#000000" points="151.5,-191.2 151.5,-213.2 235.5,-213.2 235.5,-191.2 151.5,-191.2"/>
<text text-anchor="start" x="154.5" y="-198.9" font-family="Helvetica,sans-Serif" font-size="11.00" fill="#000000">int8[19]</text>
<polygon fill="none" stroke="#000000" points="10.5,-169.2 10.5,-191.2 151.5,-191.2 151.5,-169.2 10.5,-169.2"/>
<text text-anchor="start" x="30.5" y="-176.3" font-family="Helvetica,sans-Serif" font-size="11.00" fill="#000000">text_</text>
<polygon fill="none" stroke="#000000" points="151.5,-169.2 151.5,-191.2 235.5,-191.2 235.5,-169.2 151.5,-169.2"/>
<text text-anchor="start" x="154.5" y="-176.9" font-family="Helvetica,sans-Serif" font-size="11.00" fill="#000000">varchar[4000]</text>
<polygon fill="none" stroke="#000000" points="10.5,-147.2 10.5,-169.2 151.5,-169.2 151.5,-147.2 10.5,-147.2"/>
<text text-anchor="start" x="30.5" y="-154.3" font-family="Helvetica,sans-Serif" font-size="11.00" fill="#000000">text2_</text>
<polygon fill="none" stroke="#000000" points="151.5,-147.2 151.5,-169.2 235.5,-169.2 235.5,-147.2 151.5,-147.2"/>
<text text-anchor="start" x="154.5" y="-154.9" font-family="Helvetica,sans-Serif" font-size="11.00" fill="#000000">varchar[4000]</text>
<polygon fill="none" stroke="#000000" points="10.5,-125.2 10.5,-147.2 151.5,-147.2 151.5,-125.2 10.5,-125.2"/>
<text text-anchor="start" x="30.5" y="-132.3" font-family="Helvetica,sans-Serif" font-size="11.00" fill="#000000">tenant_id_</text>
<polygon fill="none" stroke="#000000" points="151.5,-125.2 151.5,-147.2 235.5,-147.2 235.5,-125.2 151.5,-125.2"/>
<text text-anchor="start" x="154.5" y="-132.9" font-family="Helvetica,sans-Serif" font-size="11.00" fill="#000000">varchar[64]</text>
<polygon fill="none" stroke="#000000" points="10.5,-103.2 10.5,-125.2 151.5,-125.2 151.5,-103.2 10.5,-103.2"/>
<text text-anchor="start" x="30.5" y="-110.3" font-family="Helvetica,sans-Serif" font-size="11.00" fill="#000000">create_time_</text>
<polygon fill="none" stroke="#000000" points="151.5,-103.2 151.5,-125.2 235.5,-125.2 235.5,-103.2 151.5,-103.2"/>
<text text-anchor="start" x="154.3807" y="-110.9" font-family="Helvetica,sans-Serif" font-size="11.00" fill="#000000">timestamp[29,6]</text>
<polygon fill="#ffffff" stroke="transparent" points="10.5,-81.2 10.5,-103.2 151.5,-103.2 151.5,-81.2 10.5,-81.2"/>
<polygon fill="none" stroke="#000000" points="10.5,-81.2 10.5,-103.2 151.5,-103.2 151.5,-81.2 10.5,-81.2"/>
<text text-anchor="start" x="30.5" y="-88.3" font-family="Helvetica,sans-Serif" font-size="11.00" fill="#000000">root_proc_inst_id_</text>
<polygon fill="none" stroke="#000000" points="151.5,-81.2 151.5,-103.2 235.5,-103.2 235.5,-81.2 151.5,-81.2"/>
<text text-anchor="start" x="154.5" y="-88.9" font-family="Helvetica,sans-Serif" font-size="11.00" fill="#000000">varchar[64]</text>
<polygon fill="#ffffff" stroke="transparent" points="10.5,-59.2 10.5,-81.2 151.5,-81.2 151.5,-59.2 10.5,-59.2"/>
<polygon fill="none" stroke="#000000" points="10.5,-59.2 10.5,-81.2 151.5,-81.2 151.5,-59.2 10.5,-59.2"/>
<text text-anchor="start" x="30.5" y="-66.3" font-family="Helvetica,sans-Serif" font-size="11.00" fill="#000000">removal_time_</text>
<polygon fill="none" stroke="#000000" points="151.5,-59.2 151.5,-81.2 235.5,-81.2 235.5,-59.2 151.5,-59.2"/>
<text text-anchor="start" x="154.3807" y="-66.9" font-family="Helvetica,sans-Serif" font-size="11.00" fill="#000000">timestamp[29,6]</text>
<polygon fill="#ffffff" stroke="transparent" points="10.5,-40.2 10.5,-59.2 85.5,-59.2 85.5,-40.2 10.5,-40.2"/>
<polygon fill="none" stroke="#000000" points="10.5,-40.2 10.5,-59.2 85.5,-59.2 85.5,-40.2 10.5,-40.2"/>
<text text-anchor="start" x="13.5" y="-46.3" font-family="Helvetica,sans-Serif" font-size="11.00" fill="#000000">&lt; 0</text>
<polygon fill="#ffffff" stroke="transparent" points="85.5,-40.2 85.5,-59.2 151.5,-59.2 151.5,-40.2 85.5,-40.2"/>
<polygon fill="none" stroke="#000000" points="85.5,-40.2 85.5,-59.2 151.5,-59.2 151.5,-40.2 85.5,-40.2"/>
<text text-anchor="start" x="142.3862" y="-46.3" font-family="Helvetica,sans-Serif" font-size="11.00" fill="#000000"> &#160;</text>
<polygon fill="#ffffff" stroke="transparent" points="151.5,-40.2 151.5,-59.2 235.5,-59.2 235.5,-40.2 151.5,-40.2"/>
<polygon fill="none" stroke="#000000" points="151.5,-40.2 151.5,-59.2 235.5,-59.2 235.5,-40.2 151.5,-40.2"/>
<text text-anchor="start" x="216.9053" y="-46.3" font-family="Helvetica,sans-Serif" font-size="11.00" fill="#000000">0 &gt;</text>
<polygon fill="none" stroke="#000000" stroke-width="2" points="9,-39.2 9,-457.2 236,-457.2 236,-39.2 9,-39.2"/>
</a>
</g>
</g>
</g>
</svg>
