<?xml version="1.0" encoding="UTF-8" standalone="no"?>
<!DOCTYPE svg PUBLIC "-//W3C//DTD SVG 1.1//EN"
 "http://www.w3.org/Graphics/SVG/1.1/DTD/svg11.dtd">
<!-- Generated by graphviz version 2.40.1 (20161225.0304)
 -->
<!-- Title: oneDegreeRelationshipsDiagram Pages: 1 -->
<svg width="669pt" height="623pt"
 viewBox="0.00 0.00 669.00 622.70" xmlns="http://www.w3.org/2000/svg" xmlns:xlink="http://www.w3.org/1999/xlink">
<g id="graph0" class="graph" transform="scale(1 1) rotate(0) translate(4 618.7)">
<title>oneDegreeRelationshipsDiagram</title>
<polygon fill="#ffffff" stroke="transparent" points="-4,4 -4,-618.7 665,-618.7 665,4 -4,4"/>
<text text-anchor="middle" x="72.4936" y="-7.3" font-family="Helvetica,sans-Serif" font-size="11.00" fill="#000000">Generated by SchemaSpy</text>
<!-- act_ru_batch -->
<g id="node1" class="node">
<title>act_ru_batch</title>
<g id="a_node1"><a xlink:href="../../tables/act_ru_batch.html" xlink:title="act_ru_batch" target="_top">
<polygon fill="#ffffff" stroke="transparent" points="201,-38.2 201,-436.2 449,-436.2 449,-38.2 201,-38.2"/>
<polygon fill="#f5f5f5" stroke="transparent" points="203,-411.2 203,-434.2 447,-434.2 447,-411.2 203,-411.2"/>
<polygon fill="none" stroke="#000000" points="203,-411.2 203,-434.2 447,-434.2 447,-411.2 203,-411.2"/>
<text text-anchor="start" x="208" y="-419.8" font-family="Helvetica,sans-Serif" font-weight="bold" font-size="11.00" fill="#000000">act_ru_batch</text>
<text text-anchor="start" x="412.0437" y="-419.3" font-family="Helvetica,sans-Serif" font-size="11.00" fill="#000000">[table]</text>
<polygon fill="none" stroke="#000000" points="203,-389.2 203,-411.2 363,-411.2 363,-389.2 203,-389.2"/>
<image xlink:href="../../images/primaryKeys.png" width="11px" height="12px" preserveAspectRatio="xMinYMin meet" x="208" y="-406.2"/>
<text text-anchor="start" x="223" y="-396.3" font-family="Helvetica,sans-Serif" font-size="11.00" fill="#000000">id_</text>
<polygon fill="none" stroke="#000000" points="363,-389.2 363,-411.2 447,-411.2 447,-389.2 363,-389.2"/>
<text text-anchor="start" x="366" y="-396.9" font-family="Helvetica,sans-Serif" font-size="11.00" fill="#000000">varchar[64]</text>
<polygon fill="none" stroke="#000000" points="203,-367.2 203,-389.2 363,-389.2 363,-367.2 203,-367.2"/>
<text text-anchor="start" x="223" y="-374.3" font-family="Helvetica,sans-Serif" font-size="11.00" fill="#000000">rev_</text>
<polygon fill="none" stroke="#000000" points="363,-367.2 363,-389.2 447,-389.2 447,-367.2 363,-367.2"/>
<text text-anchor="start" x="366" y="-374.9" font-family="Helvetica,sans-Serif" font-size="11.00" fill="#000000">int4[10]</text>
<polygon fill="none" stroke="#000000" points="203,-345.2 203,-367.2 363,-367.2 363,-345.2 203,-345.2"/>
<text text-anchor="start" x="223" y="-352.3" font-family="Helvetica,sans-Serif" font-size="11.00" fill="#000000">type_</text>
<polygon fill="none" stroke="#000000" points="363,-345.2 363,-367.2 447,-367.2 447,-345.2 363,-345.2"/>
<text text-anchor="start" x="366" y="-352.9" font-family="Helvetica,sans-Serif" font-size="11.00" fill="#000000">varchar[255]</text>
<polygon fill="none" stroke="#000000" points="203,-323.2 203,-345.2 363,-345.2 363,-323.2 203,-323.2"/>
<text text-anchor="start" x="223" y="-330.3" font-family="Helvetica,sans-Serif" font-size="11.00" fill="#000000">total_jobs_</text>
<polygon fill="none" stroke="#000000" points="363,-323.2 363,-345.2 447,-345.2 447,-323.2 363,-323.2"/>
<text text-anchor="start" x="366" y="-330.9" font-family="Helvetica,sans-Serif" font-size="11.00" fill="#000000">int4[10]</text>
<polygon fill="none" stroke="#000000" points="203,-301.2 203,-323.2 363,-323.2 363,-301.2 203,-301.2"/>
<text text-anchor="start" x="223" y="-308.3" font-family="Helvetica,sans-Serif" font-size="11.00" fill="#000000">jobs_created_</text>
<polygon fill="none" stroke="#000000" points="363,-301.2 363,-323.2 447,-323.2 447,-301.2 363,-301.2"/>
<text text-anchor="start" x="366" y="-308.9" font-family="Helvetica,sans-Serif" font-size="11.00" fill="#000000">int4[10]</text>
<polygon fill="none" stroke="#000000" points="203,-279.2 203,-301.2 363,-301.2 363,-279.2 203,-279.2"/>
<text text-anchor="start" x="223" y="-286.3" font-family="Helvetica,sans-Serif" font-size="11.00" fill="#000000">jobs_per_seed_</text>
<polygon fill="none" stroke="#000000" points="363,-279.2 363,-301.2 447,-301.2 447,-279.2 363,-279.2"/>
<text text-anchor="start" x="366" y="-286.9" font-family="Helvetica,sans-Serif" font-size="11.00" fill="#000000">int4[10]</text>
<polygon fill="none" stroke="#000000" points="203,-257.2 203,-279.2 363,-279.2 363,-257.2 203,-257.2"/>
<text text-anchor="start" x="223" y="-264.3" font-family="Helvetica,sans-Serif" font-size="11.00" fill="#000000">invocations_per_job_</text>
<polygon fill="none" stroke="#000000" points="363,-257.2 363,-279.2 447,-279.2 447,-257.2 363,-257.2"/>
<text text-anchor="start" x="366" y="-264.9" font-family="Helvetica,sans-Serif" font-size="11.00" fill="#000000">int4[10]</text>
<polygon fill="#ffffff" stroke="transparent" points="203,-235.2 203,-257.2 363,-257.2 363,-235.2 203,-235.2"/>
<polygon fill="none" stroke="#000000" points="203,-235.2 203,-257.2 363,-257.2 363,-235.2 203,-235.2"/>
<image xlink:href="../../images/foreignKeys.png" width="11px" height="12px" preserveAspectRatio="xMinYMin meet" x="208" y="-252.2"/>
<text text-anchor="start" x="223" y="-242.3" font-family="Helvetica,sans-Serif" font-size="11.00" fill="#000000">seed_job_def_id_</text>
<polygon fill="none" stroke="#000000" points="363,-235.2 363,-257.2 447,-257.2 447,-235.2 363,-235.2"/>
<text text-anchor="start" x="366" y="-242.9" font-family="Helvetica,sans-Serif" font-size="11.00" fill="#000000">varchar[64]</text>
<polygon fill="#ffffff" stroke="transparent" points="203,-213.2 203,-235.2 363,-235.2 363,-213.2 203,-213.2"/>
<polygon fill="none" stroke="#000000" points="203,-213.2 203,-235.2 363,-235.2 363,-213.2 203,-213.2"/>
<image xlink:href="../../images/foreignKeys.png" width="11px" height="12px" preserveAspectRatio="xMinYMin meet" x="208" y="-230.2"/>
<text text-anchor="start" x="223" y="-220.3" font-family="Helvetica,sans-Serif" font-size="11.00" fill="#000000">batch_job_def_id_</text>
<polygon fill="none" stroke="#000000" points="363,-213.2 363,-235.2 447,-235.2 447,-213.2 363,-213.2"/>
<text text-anchor="start" x="366" y="-220.9" font-family="Helvetica,sans-Serif" font-size="11.00" fill="#000000">varchar[64]</text>
<polygon fill="#ffffff" stroke="transparent" points="203,-191.2 203,-213.2 363,-213.2 363,-191.2 203,-191.2"/>
<polygon fill="none" stroke="#000000" points="203,-191.2 203,-213.2 363,-213.2 363,-191.2 203,-191.2"/>
<image xlink:href="../../images/foreignKeys.png" width="11px" height="12px" preserveAspectRatio="xMinYMin meet" x="208" y="-208.2"/>
<text text-anchor="start" x="223" y="-198.3" font-family="Helvetica,sans-Serif" font-size="11.00" fill="#000000">monitor_job_def_id_</text>
<polygon fill="none" stroke="#000000" points="363,-191.2 363,-213.2 447,-213.2 447,-191.2 363,-191.2"/>
<text text-anchor="start" x="366" y="-198.9" font-family="Helvetica,sans-Serif" font-size="11.00" fill="#000000">varchar[64]</text>
<polygon fill="none" stroke="#000000" points="203,-169.2 203,-191.2 363,-191.2 363,-169.2 203,-169.2"/>
<text text-anchor="start" x="223" y="-176.3" font-family="Helvetica,sans-Serif" font-size="11.00" fill="#000000">suspension_state_</text>
<polygon fill="none" stroke="#000000" points="363,-169.2 363,-191.2 447,-191.2 447,-169.2 363,-169.2"/>
<text text-anchor="start" x="366" y="-176.9" font-family="Helvetica,sans-Serif" font-size="11.00" fill="#000000">int4[10]</text>
<polygon fill="none" stroke="#000000" points="203,-147.2 203,-169.2 363,-169.2 363,-147.2 203,-147.2"/>
<text text-anchor="start" x="223" y="-154.3" font-family="Helvetica,sans-Serif" font-size="11.00" fill="#000000">configuration_</text>
<polygon fill="none" stroke="#000000" points="363,-147.2 363,-169.2 447,-169.2 447,-147.2 363,-147.2"/>
<text text-anchor="start" x="366" y="-154.9" font-family="Helvetica,sans-Serif" font-size="11.00" fill="#000000">varchar[255]</text>
<polygon fill="none" stroke="#000000" points="203,-125.2 203,-147.2 363,-147.2 363,-125.2 203,-125.2"/>
<text text-anchor="start" x="223" y="-132.3" font-family="Helvetica,sans-Serif" font-size="11.00" fill="#000000">tenant_id_</text>
<polygon fill="none" stroke="#000000" points="363,-125.2 363,-147.2 447,-147.2 447,-125.2 363,-125.2"/>
<text text-anchor="start" x="366" y="-132.9" font-family="Helvetica,sans-Serif" font-size="11.00" fill="#000000">varchar[64]</text>
<polygon fill="none" stroke="#000000" points="203,-103.2 203,-125.2 363,-125.2 363,-103.2 203,-103.2"/>
<text text-anchor="start" x="223" y="-110.3" font-family="Helvetica,sans-Serif" font-size="11.00" fill="#000000">create_user_id_</text>
<polygon fill="none" stroke="#000000" points="363,-103.2 363,-125.2 447,-125.2 447,-103.2 363,-103.2"/>
<text text-anchor="start" x="366" y="-110.9" font-family="Helvetica,sans-Serif" font-size="11.00" fill="#000000">varchar[255]</text>
<polygon fill="none" stroke="#000000" points="203,-81.2 203,-103.2 363,-103.2 363,-81.2 203,-81.2"/>
<text text-anchor="start" x="223" y="-88.3" font-family="Helvetica,sans-Serif" font-size="11.00" fill="#000000">start_time_</text>
<polygon fill="none" stroke="#000000" points="363,-81.2 363,-103.2 447,-103.2 447,-81.2 363,-81.2"/>
<text text-anchor="start" x="365.8807" y="-88.9" font-family="Helvetica,sans-Serif" font-size="11.00" fill="#000000">timestamp[29,6]</text>
<polygon fill="none" stroke="#000000" points="203,-59.2 203,-81.2 363,-81.2 363,-59.2 203,-59.2"/>
<text text-anchor="start" x="223" y="-66.3" font-family="Helvetica,sans-Serif" font-size="11.00" fill="#000000">exec_start_time_</text>
<polygon fill="none" stroke="#000000" points="363,-59.2 363,-81.2 447,-81.2 447,-59.2 363,-59.2"/>
<text text-anchor="start" x="365.8807" y="-66.9" font-family="Helvetica,sans-Serif" font-size="11.00" fill="#000000">timestamp[29,6]</text>
<polygon fill="#ffffff" stroke="transparent" points="203,-40.2 203,-59.2 287,-59.2 287,-40.2 203,-40.2"/>
<polygon fill="none" stroke="#000000" points="203,-40.2 203,-59.2 287,-59.2 287,-40.2 203,-40.2"/>
<text text-anchor="start" x="206" y="-46.3" font-family="Helvetica,sans-Serif" font-size="11.00" fill="#000000">&lt; 3</text>
<polygon fill="#ffffff" stroke="transparent" points="287,-40.2 287,-59.2 363,-59.2 363,-40.2 287,-40.2"/>
<polygon fill="none" stroke="#000000" points="287,-40.2 287,-59.2 363,-59.2 363,-40.2 287,-40.2"/>
<text text-anchor="start" x="353.8862" y="-46.3" font-family="Helvetica,sans-Serif" font-size="11.00" fill="#000000"> &#160;</text>
<polygon fill="#ffffff" stroke="transparent" points="363,-40.2 363,-59.2 447,-59.2 447,-40.2 363,-40.2"/>
<polygon fill="none" stroke="#000000" points="363,-40.2 363,-59.2 447,-59.2 447,-40.2 363,-40.2"/>
<text text-anchor="start" x="428.4053" y="-46.3" font-family="Helvetica,sans-Serif" font-size="11.00" fill="#000000">1 &gt;</text>
<polygon fill="none" stroke="#000000" stroke-width="2" points="202,-39.2 202,-435.2 448,-435.2 448,-39.2 202,-39.2"/>
</a>
</g>
</g>
<!-- act_ru_jobdef -->
<g id="node2" class="node">
<title>act_ru_jobdef</title>
<g id="a_node2"><a xlink:href="../../tables/act_ru_jobdef.html" xlink:title="act_ru_jobdef" target="_top">
<polygon fill="#ffffff" stroke="transparent" points="8,-131.7 8,-258.7 152,-258.7 152,-131.7 8,-131.7"/>
<polygon fill="#f5f5f5" stroke="transparent" points="8,-235.2 8,-258.2 152,-258.2 152,-235.2 8,-235.2"/>
<polygon fill="none" stroke="#000000" points="8,-235.2 8,-258.2 152,-258.2 152,-235.2 8,-235.2"/>
<text text-anchor="start" x="13" y="-243.8" font-family="Helvetica,sans-Serif" font-weight="bold" font-size="11.00" fill="#000000">act_ru_jobdef</text>
<text text-anchor="start" x="117.0437" y="-243.3" font-family="Helvetica,sans-Serif" font-size="11.00" fill="#000000">[table]</text>
<polygon fill="none" stroke="#000000" points="8,-213.2 8,-235.2 152,-235.2 152,-213.2 8,-213.2"/>
<image xlink:href="../../images/primaryKeys.png" width="11px" height="12px" preserveAspectRatio="xMinYMin meet" x="13" y="-230.2"/>
<text text-anchor="start" x="28" y="-220.3" font-family="Helvetica,sans-Serif" font-size="11.00" fill="#000000">id_</text>
<polygon fill="#ffffff" stroke="transparent" points="8,-191.2 8,-213.2 152,-213.2 152,-191.2 8,-191.2"/>
<polygon fill="none" stroke="#000000" points="8,-191.2 8,-213.2 152,-213.2 152,-191.2 8,-191.2"/>
<text text-anchor="start" x="28" y="-198.3" font-family="Helvetica,sans-Serif" font-size="11.00" fill="#000000">proc_def_id_</text>
<polygon fill="#ffffff" stroke="transparent" points="8,-169.2 8,-191.2 152,-191.2 152,-169.2 8,-169.2"/>
<polygon fill="none" stroke="#000000" points="8,-169.2 8,-191.2 152,-191.2 152,-169.2 8,-169.2"/>
<text text-anchor="start" x="28" y="-176.3" font-family="Helvetica,sans-Serif" font-size="11.00" fill="#000000">tenant_id_</text>
<polygon fill="none" stroke="#000000" points="8,-150.2 8,-169.2 152,-169.2 152,-150.2 8,-150.2"/>
<text text-anchor="start" x="11" y="-156.3" font-family="Helvetica,sans-Serif" font-size="11.00" fill="#000000">...</text>
<polygon fill="#ffffff" stroke="transparent" points="8,-131.2 8,-150.2 69,-150.2 69,-131.2 8,-131.2"/>
<polygon fill="none" stroke="#000000" points="8,-131.2 8,-150.2 69,-150.2 69,-131.2 8,-131.2"/>
<text text-anchor="start" x="11" y="-137.3" font-family="Helvetica,sans-Serif" font-size="11.00" fill="#000000"> &#160;</text>
<polygon fill="#ffffff" stroke="transparent" points="69,-131.2 69,-150.2 106,-150.2 106,-131.2 69,-131.2"/>
<polygon fill="none" stroke="#000000" points="69,-131.2 69,-150.2 106,-150.2 106,-131.2 69,-131.2"/>
<text text-anchor="start" x="96.8862" y="-137.3" font-family="Helvetica,sans-Serif" font-size="11.00" fill="#000000"> &#160;</text>
<polygon fill="#ffffff" stroke="transparent" points="106,-131.2 106,-150.2 152,-150.2 152,-131.2 106,-131.2"/>
<polygon fill="none" stroke="#000000" points="106,-131.2 106,-150.2 152,-150.2 152,-131.2 106,-131.2"/>
<text text-anchor="start" x="133.4053" y="-137.3" font-family="Helvetica,sans-Serif" font-size="11.00" fill="#000000">4 &gt;</text>
</a>
</g>
</g>
<!-- act_ru_batch&#45;&gt;act_ru_jobdef -->
<g id="edge1" class="edge">
<title>act_ru_batch:w&#45;&gt;act_ru_jobdef:e</title>
<path fill="none" stroke="#000000" d="M188.276,-224.2C176.2815,-224.2 168.8229,-224.2 152,-224.2"/>
<polygon fill="#000000" stroke="#000000" points="195,-224.2001 203,-227.8 199,-224.2 203,-224.2 203,-224.2 203,-224.2 199,-224.2 203,-220.6 195,-224.2001 195,-224.2001"/>
<ellipse fill="none" stroke="#000000" cx="191.8" cy="-224.2001" rx="3.2" ry="3.2"/>
</g>
<!-- act_ru_batch&#45;&gt;act_ru_jobdef -->
<g id="edge2" class="edge">
<title>act_ru_batch:w&#45;&gt;act_ru_jobdef:e</title>
<path fill="none" stroke="#000000" d="M188.8489,-205.259C176.2843,-211.304 170.9,-224.2 152,-224.2"/>
<polygon fill="#000000" stroke="#000000" points="195.1806,-203.8903 203.7607,-205.7187 199.0903,-203.0452 203,-202.2 203,-202.2 203,-202.2 199.0903,-203.0452 202.2393,-198.6813 195.1806,-203.8903 195.1806,-203.8903"/>
<ellipse fill="none" stroke="#000000" cx="192.0528" cy="-204.5665" rx="3.2" ry="3.2"/>
</g>
<!-- act_ru_batch&#45;&gt;act_ru_jobdef -->
<g id="edge3" class="edge">
<title>act_ru_batch:w&#45;&gt;act_ru_jobdef:e</title>
<path fill="none" stroke="#000000" d="M188.8489,-243.141C176.2843,-237.096 170.9,-224.2 152,-224.2"/>
<polygon fill="#000000" stroke="#000000" points="195.1806,-244.5097 202.2393,-249.7187 199.0903,-245.3548 203,-246.2 203,-246.2 203,-246.2 199.0903,-245.3548 203.7607,-242.6813 195.1806,-244.5097 195.1806,-244.5097"/>
<ellipse fill="none" stroke="#000000" cx="192.0528" cy="-243.8335" rx="3.2" ry="3.2"/>
</g>
<!-- act_ru_variable -->
<g id="node3" class="node">
<title>act_ru_variable</title>
<g id="a_node3"><a xlink:href="../../tables/act_ru_variable.html" xlink:title="act_ru_variable" target="_top">
<polygon fill="#ffffff" stroke="transparent" points="498,-285.7 498,-610.7 653,-610.7 653,-285.7 498,-285.7"/>
<polygon fill="#f5f5f5" stroke="transparent" points="498.5,-587.2 498.5,-610.2 653.5,-610.2 653.5,-587.2 498.5,-587.2"/>
<polygon fill="none" stroke="#000000" points="498.5,-587.2 498.5,-610.2 653.5,-610.2 653.5,-587.2 498.5,-587.2"/>
<text text-anchor="start" x="503.5" y="-595.8" font-family="Helvetica,sans-Serif" font-weight="bold" font-size="11.00" fill="#000000">act_ru_variable</text>
<text text-anchor="start" x="618.5437" y="-595.3" font-family="Helvetica,sans-Serif" font-size="11.00" fill="#000000">[table]</text>
<polygon fill="none" stroke="#000000" points="498.5,-565.2 498.5,-587.2 653.5,-587.2 653.5,-565.2 498.5,-565.2"/>
<image xlink:href="../../images/primaryKeys.png" width="11px" height="12px" preserveAspectRatio="xMinYMin meet" x="503.5" y="-582.2"/>
<text text-anchor="start" x="518.5" y="-572.3" font-family="Helvetica,sans-Serif" font-size="11.00" fill="#000000">id_</text>
<polygon fill="#ffffff" stroke="transparent" points="498.5,-543.2 498.5,-565.2 653.5,-565.2 653.5,-543.2 498.5,-543.2"/>
<polygon fill="none" stroke="#000000" points="498.5,-543.2 498.5,-565.2 653.5,-565.2 653.5,-543.2 498.5,-543.2"/>
<text text-anchor="start" x="518.5" y="-550.3" font-family="Helvetica,sans-Serif" font-size="11.00" fill="#000000">type_</text>
<polygon fill="#ffffff" stroke="transparent" points="498.5,-521.2 498.5,-543.2 653.5,-543.2 653.5,-521.2 498.5,-521.2"/>
<polygon fill="none" stroke="#000000" points="498.5,-521.2 498.5,-543.2 653.5,-543.2 653.5,-521.2 498.5,-521.2"/>
<text text-anchor="start" x="518.5" y="-528.3" font-family="Helvetica,sans-Serif" font-size="11.00" fill="#000000">name_</text>
<polygon fill="#ffffff" stroke="transparent" points="498.5,-499.2 498.5,-521.2 653.5,-521.2 653.5,-499.2 498.5,-499.2"/>
<polygon fill="none" stroke="#000000" points="498.5,-499.2 498.5,-521.2 653.5,-521.2 653.5,-499.2 498.5,-499.2"/>
<image xlink:href="../../images/foreignKeys.png" width="11px" height="12px" preserveAspectRatio="xMinYMin meet" x="503.5" y="-516.2"/>
<text text-anchor="start" x="518.5" y="-506.3" font-family="Helvetica,sans-Serif" font-size="11.00" fill="#000000">execution_id_</text>
<polygon fill="#ffffff" stroke="transparent" points="498.5,-477.2 498.5,-499.2 653.5,-499.2 653.5,-477.2 498.5,-477.2"/>
<polygon fill="none" stroke="#000000" points="498.5,-477.2 498.5,-499.2 653.5,-499.2 653.5,-477.2 498.5,-477.2"/>
<image xlink:href="../../images/foreignKeys.png" width="11px" height="12px" preserveAspectRatio="xMinYMin meet" x="503.5" y="-494.2"/>
<text text-anchor="start" x="518.5" y="-484.3" font-family="Helvetica,sans-Serif" font-size="11.00" fill="#000000">proc_inst_id_</text>
<polygon fill="#ffffff" stroke="transparent" points="498.5,-455.2 498.5,-477.2 653.5,-477.2 653.5,-455.2 498.5,-455.2"/>
<polygon fill="none" stroke="#000000" points="498.5,-455.2 498.5,-477.2 653.5,-477.2 653.5,-455.2 498.5,-455.2"/>
<image xlink:href="../../images/foreignKeys.png" width="11px" height="12px" preserveAspectRatio="xMinYMin meet" x="503.5" y="-472.2"/>
<text text-anchor="start" x="518.5" y="-462.3" font-family="Helvetica,sans-Serif" font-size="11.00" fill="#000000">case_execution_id_</text>
<polygon fill="#ffffff" stroke="transparent" points="498.5,-433.2 498.5,-455.2 653.5,-455.2 653.5,-433.2 498.5,-433.2"/>
<polygon fill="none" stroke="#000000" points="498.5,-433.2 498.5,-455.2 653.5,-455.2 653.5,-433.2 498.5,-433.2"/>
<image xlink:href="../../images/foreignKeys.png" width="11px" height="12px" preserveAspectRatio="xMinYMin meet" x="503.5" y="-450.2"/>
<text text-anchor="start" x="518.5" y="-440.3" font-family="Helvetica,sans-Serif" font-size="11.00" fill="#000000">case_inst_id_</text>
<polygon fill="#ffffff" stroke="transparent" points="498.5,-411.2 498.5,-433.2 653.5,-433.2 653.5,-411.2 498.5,-411.2"/>
<polygon fill="none" stroke="#000000" points="498.5,-411.2 498.5,-433.2 653.5,-433.2 653.5,-411.2 498.5,-411.2"/>
<text text-anchor="start" x="518.5" y="-418.3" font-family="Helvetica,sans-Serif" font-size="11.00" fill="#000000">task_id_</text>
<polygon fill="#ffffff" stroke="transparent" points="498.5,-389.2 498.5,-411.2 653.5,-411.2 653.5,-389.2 498.5,-389.2"/>
<polygon fill="none" stroke="#000000" points="498.5,-389.2 498.5,-411.2 653.5,-411.2 653.5,-389.2 498.5,-389.2"/>
<image xlink:href="../../images/foreignKeys.png" width="11px" height="12px" preserveAspectRatio="xMinYMin meet" x="503.5" y="-406.2"/>
<text text-anchor="start" x="518.5" y="-396.3" font-family="Helvetica,sans-Serif" font-size="11.00" fill="#000000">batch_id_</text>
<polygon fill="#ffffff" stroke="transparent" points="498.5,-367.2 498.5,-389.2 653.5,-389.2 653.5,-367.2 498.5,-367.2"/>
<polygon fill="none" stroke="#000000" points="498.5,-367.2 498.5,-389.2 653.5,-389.2 653.5,-367.2 498.5,-367.2"/>
<image xlink:href="../../images/foreignKeys.png" width="11px" height="12px" preserveAspectRatio="xMinYMin meet" x="503.5" y="-384.2"/>
<text text-anchor="start" x="518.5" y="-374.3" font-family="Helvetica,sans-Serif" font-size="11.00" fill="#000000">bytearray_id_</text>
<polygon fill="#ffffff" stroke="transparent" points="498.5,-345.2 498.5,-367.2 653.5,-367.2 653.5,-345.2 498.5,-345.2"/>
<polygon fill="none" stroke="#000000" points="498.5,-345.2 498.5,-367.2 653.5,-367.2 653.5,-345.2 498.5,-345.2"/>
<text text-anchor="start" x="518.5" y="-352.3" font-family="Helvetica,sans-Serif" font-size="11.00" fill="#000000">var_scope_</text>
<polygon fill="#ffffff" stroke="transparent" points="498.5,-323.2 498.5,-345.2 653.5,-345.2 653.5,-323.2 498.5,-323.2"/>
<polygon fill="none" stroke="#000000" points="498.5,-323.2 498.5,-345.2 653.5,-345.2 653.5,-323.2 498.5,-323.2"/>
<text text-anchor="start" x="518.5" y="-330.3" font-family="Helvetica,sans-Serif" font-size="11.00" fill="#000000">tenant_id_</text>
<polygon fill="none" stroke="#000000" points="498.5,-304.2 498.5,-323.2 653.5,-323.2 653.5,-304.2 498.5,-304.2"/>
<text text-anchor="start" x="501.5" y="-310.3" font-family="Helvetica,sans-Serif" font-size="11.00" fill="#000000">...</text>
<polygon fill="#ffffff" stroke="transparent" points="498.5,-285.2 498.5,-304.2 574.5,-304.2 574.5,-285.2 498.5,-285.2"/>
<polygon fill="none" stroke="#000000" points="498.5,-285.2 498.5,-304.2 574.5,-304.2 574.5,-285.2 498.5,-285.2"/>
<text text-anchor="start" x="501.5" y="-291.3" font-family="Helvetica,sans-Serif" font-size="11.00" fill="#000000">&lt; 6</text>
<polygon fill="#ffffff" stroke="transparent" points="574.5,-285.2 574.5,-304.2 613.5,-304.2 613.5,-285.2 574.5,-285.2"/>
<polygon fill="none" stroke="#000000" points="574.5,-285.2 574.5,-304.2 613.5,-304.2 613.5,-285.2 574.5,-285.2"/>
<text text-anchor="start" x="604.3862" y="-291.3" font-family="Helvetica,sans-Serif" font-size="11.00" fill="#000000"> &#160;</text>
<polygon fill="#ffffff" stroke="transparent" points="613.5,-285.2 613.5,-304.2 653.5,-304.2 653.5,-285.2 613.5,-285.2"/>
<polygon fill="none" stroke="#000000" points="613.5,-285.2 613.5,-304.2 653.5,-304.2 653.5,-285.2 613.5,-285.2"/>
<text text-anchor="start" x="644.3862" y="-291.3" font-family="Helvetica,sans-Serif" font-size="11.00" fill="#000000"> &#160;</text>
</a>
</g>
</g>
<!-- act_ru_variable&#45;&gt;act_ru_batch -->
<g id="edge4" class="edge">
<title>act_ru_variable:w&#45;&gt;act_ru_batch:e</title>
<path fill="none" stroke="#000000" d="M484.0156,-400.2C471.6771,-400.2 464.1667,-400.2 447,-400.2"/>
<polygon fill="#000000" stroke="#000000" points="490.5,-400.2001 498.5,-403.8 494.5,-400.2 498.5,-400.2 498.5,-400.2 498.5,-400.2 494.5,-400.2 498.5,-396.6 490.5,-400.2001 490.5,-400.2001"/>
<ellipse fill="none" stroke="#000000" cx="487.3" cy="-400.2001" rx="3.2" ry="3.2"/>
</g>
</g>
</svg>
