<?xml version="1.0" encoding="UTF-8" standalone="no"?>
<!DOCTYPE svg PUBLIC "-//W3C//DTD SVG 1.1//EN"
 "http://www.w3.org/Graphics/SVG/1.1/DTD/svg11.dtd">
<!-- Generated by graphviz version 2.40.1 (20161225.0304)
 -->
<!-- Title: oneDegreeRelationshipsDiagram Pages: 1 -->
<svg width="261pt" height="712pt"
 viewBox="0.00 0.00 261.00 712.20" xmlns="http://www.w3.org/2000/svg" xmlns:xlink="http://www.w3.org/1999/xlink">
<g id="graph0" class="graph" transform="scale(1 1) rotate(0) translate(4 708.2)">
<title>oneDegreeRelationshipsDiagram</title>
<polygon fill="#ffffff" stroke="transparent" points="-4,4 -4,-708.2 257,-708.2 257,4 -4,4"/>
<text text-anchor="middle" x="72.4936" y="-7.3" font-family="Helvetica,sans-Serif" font-size="11.00" fill="#000000">Generated by SchemaSpy</text>
<!-- act_hi_detail -->
<g id="node1" class="node">
<title>act_hi_detail</title>
<g id="a_node1"><a xlink:href="../../tables/act_hi_detail.html" xlink:title="act_hi_detail" target="_top">
<polygon fill="#ffffff" stroke="transparent" points="8,-38.2 8,-700.2 245,-700.2 245,-38.2 8,-38.2"/>
<polygon fill="#f5f5f5" stroke="transparent" points="10.5,-675.2 10.5,-698.2 243.5,-698.2 243.5,-675.2 10.5,-675.2"/>
<polygon fill="none" stroke="#000000" points="10.5,-675.2 10.5,-698.2 243.5,-698.2 243.5,-675.2 10.5,-675.2"/>
<text text-anchor="start" x="15.5" y="-683.8" font-family="Helvetica,sans-Serif" font-weight="bold" font-size="11.00" fill="#000000">act_hi_detail</text>
<text text-anchor="start" x="208.5437" y="-683.3" font-family="Helvetica,sans-Serif" font-size="11.00" fill="#000000">[table]</text>
<polygon fill="none" stroke="#000000" points="10.5,-653.2 10.5,-675.2 159.5,-675.2 159.5,-653.2 10.5,-653.2"/>
<image xlink:href="../../images/primaryKeys.png" width="11px" height="12px" preserveAspectRatio="xMinYMin meet" x="15.5" y="-670.2"/>
<text text-anchor="start" x="30.5" y="-660.3" font-family="Helvetica,sans-Serif" font-size="11.00" fill="#000000">id_</text>
<polygon fill="none" stroke="#000000" points="159.5,-653.2 159.5,-675.2 243.5,-675.2 243.5,-653.2 159.5,-653.2"/>
<text text-anchor="start" x="162.5" y="-660.9" font-family="Helvetica,sans-Serif" font-size="11.00" fill="#000000">varchar[64]</text>
<polygon fill="none" stroke="#000000" points="10.5,-631.2 10.5,-653.2 159.5,-653.2 159.5,-631.2 10.5,-631.2"/>
<text text-anchor="start" x="30.5" y="-638.3" font-family="Helvetica,sans-Serif" font-size="11.00" fill="#000000">type_</text>
<polygon fill="none" stroke="#000000" points="159.5,-631.2 159.5,-653.2 243.5,-653.2 243.5,-631.2 159.5,-631.2"/>
<text text-anchor="start" x="162.5" y="-638.9" font-family="Helvetica,sans-Serif" font-size="11.00" fill="#000000">varchar[255]</text>
<polygon fill="#ffffff" stroke="transparent" points="10.5,-609.2 10.5,-631.2 159.5,-631.2 159.5,-609.2 10.5,-609.2"/>
<polygon fill="none" stroke="#000000" points="10.5,-609.2 10.5,-631.2 159.5,-631.2 159.5,-609.2 10.5,-609.2"/>
<text text-anchor="start" x="30.5" y="-616.3" font-family="Helvetica,sans-Serif" font-size="11.00" fill="#000000">proc_def_key_</text>
<polygon fill="none" stroke="#000000" points="159.5,-609.2 159.5,-631.2 243.5,-631.2 243.5,-609.2 159.5,-609.2"/>
<text text-anchor="start" x="162.5" y="-616.9" font-family="Helvetica,sans-Serif" font-size="11.00" fill="#000000">varchar[255]</text>
<polygon fill="none" stroke="#000000" points="10.5,-587.2 10.5,-609.2 159.5,-609.2 159.5,-587.2 10.5,-587.2"/>
<text text-anchor="start" x="30.5" y="-594.3" font-family="Helvetica,sans-Serif" font-size="11.00" fill="#000000">proc_def_id_</text>
<polygon fill="none" stroke="#000000" points="159.5,-587.2 159.5,-609.2 243.5,-609.2 243.5,-587.2 159.5,-587.2"/>
<text text-anchor="start" x="162.5" y="-594.9" font-family="Helvetica,sans-Serif" font-size="11.00" fill="#000000">varchar[64]</text>
<polygon fill="#ffffff" stroke="transparent" points="10.5,-565.2 10.5,-587.2 159.5,-587.2 159.5,-565.2 10.5,-565.2"/>
<polygon fill="none" stroke="#000000" points="10.5,-565.2 10.5,-587.2 159.5,-587.2 159.5,-565.2 10.5,-565.2"/>
<text text-anchor="start" x="30.5" y="-572.3" font-family="Helvetica,sans-Serif" font-size="11.00" fill="#000000">root_proc_inst_id_</text>
<polygon fill="none" stroke="#000000" points="159.5,-565.2 159.5,-587.2 243.5,-587.2 243.5,-565.2 159.5,-565.2"/>
<text text-anchor="start" x="162.5" y="-572.9" font-family="Helvetica,sans-Serif" font-size="11.00" fill="#000000">varchar[64]</text>
<polygon fill="#ffffff" stroke="transparent" points="10.5,-543.2 10.5,-565.2 159.5,-565.2 159.5,-543.2 10.5,-543.2"/>
<polygon fill="none" stroke="#000000" points="10.5,-543.2 10.5,-565.2 159.5,-565.2 159.5,-543.2 10.5,-543.2"/>
<text text-anchor="start" x="30.5" y="-550.3" font-family="Helvetica,sans-Serif" font-size="11.00" fill="#000000">proc_inst_id_</text>
<polygon fill="none" stroke="#000000" points="159.5,-543.2 159.5,-565.2 243.5,-565.2 243.5,-543.2 159.5,-543.2"/>
<text text-anchor="start" x="162.5" y="-550.9" font-family="Helvetica,sans-Serif" font-size="11.00" fill="#000000">varchar[64]</text>
<polygon fill="none" stroke="#000000" points="10.5,-521.2 10.5,-543.2 159.5,-543.2 159.5,-521.2 10.5,-521.2"/>
<text text-anchor="start" x="30.5" y="-528.3" font-family="Helvetica,sans-Serif" font-size="11.00" fill="#000000">execution_id_</text>
<polygon fill="none" stroke="#000000" points="159.5,-521.2 159.5,-543.2 243.5,-543.2 243.5,-521.2 159.5,-521.2"/>
<text text-anchor="start" x="162.5" y="-528.9" font-family="Helvetica,sans-Serif" font-size="11.00" fill="#000000">varchar[64]</text>
<polygon fill="none" stroke="#000000" points="10.5,-499.2 10.5,-521.2 159.5,-521.2 159.5,-499.2 10.5,-499.2"/>
<text text-anchor="start" x="30.5" y="-506.3" font-family="Helvetica,sans-Serif" font-size="11.00" fill="#000000">case_def_key_</text>
<polygon fill="none" stroke="#000000" points="159.5,-499.2 159.5,-521.2 243.5,-521.2 243.5,-499.2 159.5,-499.2"/>
<text text-anchor="start" x="162.5" y="-506.9" font-family="Helvetica,sans-Serif" font-size="11.00" fill="#000000">varchar[255]</text>
<polygon fill="none" stroke="#000000" points="10.5,-477.2 10.5,-499.2 159.5,-499.2 159.5,-477.2 10.5,-477.2"/>
<text text-anchor="start" x="30.5" y="-484.3" font-family="Helvetica,sans-Serif" font-size="11.00" fill="#000000">case_def_id_</text>
<polygon fill="none" stroke="#000000" points="159.5,-477.2 159.5,-499.2 243.5,-499.2 243.5,-477.2 159.5,-477.2"/>
<text text-anchor="start" x="162.5" y="-484.9" font-family="Helvetica,sans-Serif" font-size="11.00" fill="#000000">varchar[64]</text>
<polygon fill="#ffffff" stroke="transparent" points="10.5,-455.2 10.5,-477.2 159.5,-477.2 159.5,-455.2 10.5,-455.2"/>
<polygon fill="none" stroke="#000000" points="10.5,-455.2 10.5,-477.2 159.5,-477.2 159.5,-455.2 10.5,-455.2"/>
<text text-anchor="start" x="30.5" y="-462.3" font-family="Helvetica,sans-Serif" font-size="11.00" fill="#000000">case_inst_id_</text>
<polygon fill="none" stroke="#000000" points="159.5,-455.2 159.5,-477.2 243.5,-477.2 243.5,-455.2 159.5,-455.2"/>
<text text-anchor="start" x="162.5" y="-462.9" font-family="Helvetica,sans-Serif" font-size="11.00" fill="#000000">varchar[64]</text>
<polygon fill="#ffffff" stroke="transparent" points="10.5,-433.2 10.5,-455.2 159.5,-455.2 159.5,-433.2 10.5,-433.2"/>
<polygon fill="none" stroke="#000000" points="10.5,-433.2 10.5,-455.2 159.5,-455.2 159.5,-433.2 10.5,-433.2"/>
<text text-anchor="start" x="30.5" y="-440.3" font-family="Helvetica,sans-Serif" font-size="11.00" fill="#000000">case_execution_id_</text>
<polygon fill="none" stroke="#000000" points="159.5,-433.2 159.5,-455.2 243.5,-455.2 243.5,-433.2 159.5,-433.2"/>
<text text-anchor="start" x="162.5" y="-440.9" font-family="Helvetica,sans-Serif" font-size="11.00" fill="#000000">varchar[64]</text>
<polygon fill="#ffffff" stroke="transparent" points="10.5,-411.2 10.5,-433.2 159.5,-433.2 159.5,-411.2 10.5,-411.2"/>
<polygon fill="none" stroke="#000000" points="10.5,-411.2 10.5,-433.2 159.5,-433.2 159.5,-411.2 10.5,-411.2"/>
<text text-anchor="start" x="30.5" y="-418.3" font-family="Helvetica,sans-Serif" font-size="11.00" fill="#000000">task_id_</text>
<polygon fill="none" stroke="#000000" points="159.5,-411.2 159.5,-433.2 243.5,-433.2 243.5,-411.2 159.5,-411.2"/>
<text text-anchor="start" x="162.5" y="-418.9" font-family="Helvetica,sans-Serif" font-size="11.00" fill="#000000">varchar[64]</text>
<polygon fill="#ffffff" stroke="transparent" points="10.5,-389.2 10.5,-411.2 159.5,-411.2 159.5,-389.2 10.5,-389.2"/>
<polygon fill="none" stroke="#000000" points="10.5,-389.2 10.5,-411.2 159.5,-411.2 159.5,-389.2 10.5,-389.2"/>
<text text-anchor="start" x="30.5" y="-396.3" font-family="Helvetica,sans-Serif" font-size="11.00" fill="#000000">act_inst_id_</text>
<polygon fill="none" stroke="#000000" points="159.5,-389.2 159.5,-411.2 243.5,-411.2 243.5,-389.2 159.5,-389.2"/>
<text text-anchor="start" x="162.5" y="-396.9" font-family="Helvetica,sans-Serif" font-size="11.00" fill="#000000">varchar[64]</text>
<polygon fill="#ffffff" stroke="transparent" points="10.5,-367.2 10.5,-389.2 159.5,-389.2 159.5,-367.2 10.5,-367.2"/>
<polygon fill="none" stroke="#000000" points="10.5,-367.2 10.5,-389.2 159.5,-389.2 159.5,-367.2 10.5,-367.2"/>
<text text-anchor="start" x="30.5" y="-374.3" font-family="Helvetica,sans-Serif" font-size="11.00" fill="#000000">var_inst_id_</text>
<polygon fill="none" stroke="#000000" points="159.5,-367.2 159.5,-389.2 243.5,-389.2 243.5,-367.2 159.5,-367.2"/>
<text text-anchor="start" x="162.5" y="-374.9" font-family="Helvetica,sans-Serif" font-size="11.00" fill="#000000">varchar[64]</text>
<polygon fill="#ffffff" stroke="transparent" points="10.5,-345.2 10.5,-367.2 159.5,-367.2 159.5,-345.2 10.5,-345.2"/>
<polygon fill="none" stroke="#000000" points="10.5,-345.2 10.5,-367.2 159.5,-367.2 159.5,-345.2 10.5,-345.2"/>
<text text-anchor="start" x="30.5" y="-352.3" font-family="Helvetica,sans-Serif" font-size="11.00" fill="#000000">name_</text>
<polygon fill="none" stroke="#000000" points="159.5,-345.2 159.5,-367.2 243.5,-367.2 243.5,-345.2 159.5,-345.2"/>
<text text-anchor="start" x="162.5" y="-352.9" font-family="Helvetica,sans-Serif" font-size="11.00" fill="#000000">varchar[255]</text>
<polygon fill="none" stroke="#000000" points="10.5,-323.2 10.5,-345.2 159.5,-345.2 159.5,-323.2 10.5,-323.2"/>
<text text-anchor="start" x="30.5" y="-330.3" font-family="Helvetica,sans-Serif" font-size="11.00" fill="#000000">var_type_</text>
<polygon fill="none" stroke="#000000" points="159.5,-323.2 159.5,-345.2 243.5,-345.2 243.5,-323.2 159.5,-323.2"/>
<text text-anchor="start" x="162.5" y="-330.9" font-family="Helvetica,sans-Serif" font-size="11.00" fill="#000000">varchar[64]</text>
<polygon fill="none" stroke="#000000" points="10.5,-301.2 10.5,-323.2 159.5,-323.2 159.5,-301.2 10.5,-301.2"/>
<text text-anchor="start" x="30.5" y="-308.3" font-family="Helvetica,sans-Serif" font-size="11.00" fill="#000000">rev_</text>
<polygon fill="none" stroke="#000000" points="159.5,-301.2 159.5,-323.2 243.5,-323.2 243.5,-301.2 159.5,-301.2"/>
<text text-anchor="start" x="162.5" y="-308.9" font-family="Helvetica,sans-Serif" font-size="11.00" fill="#000000">int4[10]</text>
<polygon fill="#ffffff" stroke="transparent" points="10.5,-279.2 10.5,-301.2 159.5,-301.2 159.5,-279.2 10.5,-279.2"/>
<polygon fill="none" stroke="#000000" points="10.5,-279.2 10.5,-301.2 159.5,-301.2 159.5,-279.2 10.5,-279.2"/>
<text text-anchor="start" x="30.5" y="-286.3" font-family="Helvetica,sans-Serif" font-size="11.00" fill="#000000">time_</text>
<polygon fill="none" stroke="#000000" points="159.5,-279.2 159.5,-301.2 243.5,-301.2 243.5,-279.2 159.5,-279.2"/>
<text text-anchor="start" x="162.3807" y="-286.9" font-family="Helvetica,sans-Serif" font-size="11.00" fill="#000000">timestamp[29,6]</text>
<polygon fill="#ffffff" stroke="transparent" points="10.5,-257.2 10.5,-279.2 159.5,-279.2 159.5,-257.2 10.5,-257.2"/>
<polygon fill="none" stroke="#000000" points="10.5,-257.2 10.5,-279.2 159.5,-279.2 159.5,-257.2 10.5,-257.2"/>
<text text-anchor="start" x="30.5" y="-264.3" font-family="Helvetica,sans-Serif" font-size="11.00" fill="#000000">bytearray_id_</text>
<polygon fill="none" stroke="#000000" points="159.5,-257.2 159.5,-279.2 243.5,-279.2 243.5,-257.2 159.5,-257.2"/>
<text text-anchor="start" x="162.5" y="-264.9" font-family="Helvetica,sans-Serif" font-size="11.00" fill="#000000">varchar[64]</text>
<polygon fill="none" stroke="#000000" points="10.5,-235.2 10.5,-257.2 159.5,-257.2 159.5,-235.2 10.5,-235.2"/>
<text text-anchor="start" x="30.5" y="-242.3" font-family="Helvetica,sans-Serif" font-size="11.00" fill="#000000">double_</text>
<polygon fill="none" stroke="#000000" points="159.5,-235.2 159.5,-257.2 243.5,-257.2 243.5,-235.2 159.5,-235.2"/>
<text text-anchor="start" x="162.5" y="-242.9" font-family="Helvetica,sans-Serif" font-size="11.00" fill="#000000">float8[17,17]</text>
<polygon fill="none" stroke="#000000" points="10.5,-213.2 10.5,-235.2 159.5,-235.2 159.5,-213.2 10.5,-213.2"/>
<text text-anchor="start" x="30.5" y="-220.3" font-family="Helvetica,sans-Serif" font-size="11.00" fill="#000000">long_</text>
<polygon fill="none" stroke="#000000" points="159.5,-213.2 159.5,-235.2 243.5,-235.2 243.5,-213.2 159.5,-213.2"/>
<text text-anchor="start" x="162.5" y="-220.9" font-family="Helvetica,sans-Serif" font-size="11.00" fill="#000000">int8[19]</text>
<polygon fill="none" stroke="#000000" points="10.5,-191.2 10.5,-213.2 159.5,-213.2 159.5,-191.2 10.5,-191.2"/>
<text text-anchor="start" x="30.5" y="-198.3" font-family="Helvetica,sans-Serif" font-size="11.00" fill="#000000">text_</text>
<polygon fill="none" stroke="#000000" points="159.5,-191.2 159.5,-213.2 243.5,-213.2 243.5,-191.2 159.5,-191.2"/>
<text text-anchor="start" x="162.5" y="-198.9" font-family="Helvetica,sans-Serif" font-size="11.00" fill="#000000">varchar[4000]</text>
<polygon fill="none" stroke="#000000" points="10.5,-169.2 10.5,-191.2 159.5,-191.2 159.5,-169.2 10.5,-169.2"/>
<text text-anchor="start" x="30.5" y="-176.3" font-family="Helvetica,sans-Serif" font-size="11.00" fill="#000000">text2_</text>
<polygon fill="none" stroke="#000000" points="159.5,-169.2 159.5,-191.2 243.5,-191.2 243.5,-169.2 159.5,-169.2"/>
<text text-anchor="start" x="162.5" y="-176.9" font-family="Helvetica,sans-Serif" font-size="11.00" fill="#000000">varchar[4000]</text>
<polygon fill="none" stroke="#000000" points="10.5,-147.2 10.5,-169.2 159.5,-169.2 159.5,-147.2 10.5,-147.2"/>
<text text-anchor="start" x="30.5" y="-154.3" font-family="Helvetica,sans-Serif" font-size="11.00" fill="#000000">sequence_counter_</text>
<polygon fill="none" stroke="#000000" points="159.5,-147.2 159.5,-169.2 243.5,-169.2 243.5,-147.2 159.5,-147.2"/>
<text text-anchor="start" x="162.5" y="-154.9" font-family="Helvetica,sans-Serif" font-size="11.00" fill="#000000">int8[19]</text>
<polygon fill="#ffffff" stroke="transparent" points="10.5,-125.2 10.5,-147.2 159.5,-147.2 159.5,-125.2 10.5,-125.2"/>
<polygon fill="none" stroke="#000000" points="10.5,-125.2 10.5,-147.2 159.5,-147.2 159.5,-125.2 10.5,-125.2"/>
<text text-anchor="start" x="30.5" y="-132.3" font-family="Helvetica,sans-Serif" font-size="11.00" fill="#000000">tenant_id_</text>
<polygon fill="none" stroke="#000000" points="159.5,-125.2 159.5,-147.2 243.5,-147.2 243.5,-125.2 159.5,-125.2"/>
<text text-anchor="start" x="162.5" y="-132.9" font-family="Helvetica,sans-Serif" font-size="11.00" fill="#000000">varchar[64]</text>
<polygon fill="none" stroke="#000000" points="10.5,-103.2 10.5,-125.2 159.5,-125.2 159.5,-103.2 10.5,-103.2"/>
<text text-anchor="start" x="30.5" y="-110.3" font-family="Helvetica,sans-Serif" font-size="11.00" fill="#000000">operation_id_</text>
<polygon fill="none" stroke="#000000" points="159.5,-103.2 159.5,-125.2 243.5,-125.2 243.5,-103.2 159.5,-103.2"/>
<text text-anchor="start" x="162.5" y="-110.9" font-family="Helvetica,sans-Serif" font-size="11.00" fill="#000000">varchar[64]</text>
<polygon fill="#ffffff" stroke="transparent" points="10.5,-81.2 10.5,-103.2 159.5,-103.2 159.5,-81.2 10.5,-81.2"/>
<polygon fill="none" stroke="#000000" points="10.5,-81.2 10.5,-103.2 159.5,-103.2 159.5,-81.2 10.5,-81.2"/>
<text text-anchor="start" x="30.5" y="-88.3" font-family="Helvetica,sans-Serif" font-size="11.00" fill="#000000">removal_time_</text>
<polygon fill="none" stroke="#000000" points="159.5,-81.2 159.5,-103.2 243.5,-103.2 243.5,-81.2 159.5,-81.2"/>
<text text-anchor="start" x="162.3807" y="-88.9" font-family="Helvetica,sans-Serif" font-size="11.00" fill="#000000">timestamp[29,6]</text>
<polygon fill="none" stroke="#000000" points="10.5,-59.2 10.5,-81.2 159.5,-81.2 159.5,-59.2 10.5,-59.2"/>
<text text-anchor="start" x="30.5" y="-66.3" font-family="Helvetica,sans-Serif" font-size="11.00" fill="#000000">initial_</text>
<polygon fill="none" stroke="#000000" points="159.5,-59.2 159.5,-81.2 243.5,-81.2 243.5,-59.2 159.5,-59.2"/>
<text text-anchor="start" x="162.5" y="-66.9" font-family="Helvetica,sans-Serif" font-size="11.00" fill="#000000">bool[1]</text>
<polygon fill="#ffffff" stroke="transparent" points="10.5,-40.2 10.5,-59.2 89.5,-59.2 89.5,-40.2 10.5,-40.2"/>
<polygon fill="none" stroke="#000000" points="10.5,-40.2 10.5,-59.2 89.5,-59.2 89.5,-40.2 10.5,-40.2"/>
<text text-anchor="start" x="13.5" y="-46.3" font-family="Helvetica,sans-Serif" font-size="11.00" fill="#000000">&lt; 0</text>
<polygon fill="#ffffff" stroke="transparent" points="89.5,-40.2 89.5,-59.2 159.5,-59.2 159.5,-40.2 89.5,-40.2"/>
<polygon fill="none" stroke="#000000" points="89.5,-40.2 89.5,-59.2 159.5,-59.2 159.5,-40.2 89.5,-40.2"/>
<text text-anchor="start" x="150.3862" y="-46.3" font-family="Helvetica,sans-Serif" font-size="11.00" fill="#000000"> &#160;</text>
<polygon fill="#ffffff" stroke="transparent" points="159.5,-40.2 159.5,-59.2 243.5,-59.2 243.5,-40.2 159.5,-40.2"/>
<polygon fill="none" stroke="#000000" points="159.5,-40.2 159.5,-59.2 243.5,-59.2 243.5,-40.2 159.5,-40.2"/>
<text text-anchor="start" x="224.9053" y="-46.3" font-family="Helvetica,sans-Serif" font-size="11.00" fill="#000000">0 &gt;</text>
<polygon fill="none" stroke="#000000" stroke-width="2" points="9,-39.2 9,-699.2 244,-699.2 244,-39.2 9,-39.2"/>
</a>
</g>
</g>
</g>
</svg>
