<?xml version="1.0" encoding="UTF-8" standalone="no"?>
<!DOCTYPE svg PUBLIC "-//W3C//DTD SVG 1.1//EN"
 "http://www.w3.org/Graphics/SVG/1.1/DTD/svg11.dtd">
<!-- Generated by graphviz version 2.40.1 (20161225.0304)
 -->
<!-- Title: twoDegreesRelationshipsDiagram Pages: 1 -->
<svg width="920pt" height="763pt"
 viewBox="0.00 0.00 920.00 763.00" xmlns="http://www.w3.org/2000/svg" xmlns:xlink="http://www.w3.org/1999/xlink">
<g id="graph0" class="graph" transform="scale(1 1) rotate(0) translate(4 758.9986)">
<title>twoDegreesRelationshipsDiagram</title>
<polygon fill="#ffffff" stroke="transparent" points="-4,4 -4,-758.9986 916,-758.9986 916,4 -4,4"/>
<text text-anchor="middle" x="72.4936" y="-7.3" font-family="Helvetica,sans-Serif" font-size="11.00" fill="#000000">Generated by SchemaSpy</text>
<!-- act_ru_case_execution -->
<g id="node1" class="node">
<title>act_ru_case_execution</title>
<g id="a_node1"><a xlink:href="../../tables/act_ru_case_execution.html" xlink:title="act_ru_case_execution" target="_top">
<polygon fill="#ffffff" stroke="transparent" points="201,-382.9986 201,-714.9986 443,-714.9986 443,-382.9986 201,-382.9986"/>
<polygon fill="#f5f5f5" stroke="transparent" points="203,-689.9986 203,-712.9986 441,-712.9986 441,-689.9986 203,-689.9986"/>
<polygon fill="none" stroke="#000000" points="203,-689.9986 203,-712.9986 441,-712.9986 441,-689.9986 203,-689.9986"/>
<text text-anchor="start" x="208" y="-698.5986" font-family="Helvetica,sans-Serif" font-weight="bold" font-size="11.00" fill="#000000">act_ru_case_execution</text>
<text text-anchor="start" x="406.0437" y="-698.0986" font-family="Helvetica,sans-Serif" font-size="11.00" fill="#000000">[table]</text>
<polygon fill="none" stroke="#000000" points="203,-667.9986 203,-689.9986 374,-689.9986 374,-667.9986 203,-667.9986"/>
<image xlink:href="../../images/primaryKeys.png" width="11px" height="12px" preserveAspectRatio="xMinYMin meet" x="208" y="-684.999"/>
<text text-anchor="start" x="223" y="-675.0986" font-family="Helvetica,sans-Serif" font-size="11.00" fill="#000000">id_</text>
<polygon fill="none" stroke="#000000" points="374,-667.9986 374,-689.9986 441,-689.9986 441,-667.9986 374,-667.9986"/>
<text text-anchor="start" x="377" y="-675.6986" font-family="Helvetica,sans-Serif" font-size="11.00" fill="#000000">varchar[64]</text>
<polygon fill="none" stroke="#000000" points="203,-645.9986 203,-667.9986 374,-667.9986 374,-645.9986 203,-645.9986"/>
<text text-anchor="start" x="223" y="-653.0986" font-family="Helvetica,sans-Serif" font-size="11.00" fill="#000000">rev_</text>
<polygon fill="none" stroke="#000000" points="374,-645.9986 374,-667.9986 441,-667.9986 441,-645.9986 374,-645.9986"/>
<text text-anchor="start" x="377" y="-653.6986" font-family="Helvetica,sans-Serif" font-size="11.00" fill="#000000">int4[10]</text>
<polygon fill="#ffffff" stroke="transparent" points="203,-623.9986 203,-645.9986 374,-645.9986 374,-623.9986 203,-623.9986"/>
<polygon fill="none" stroke="#000000" points="203,-623.9986 203,-645.9986 374,-645.9986 374,-623.9986 203,-623.9986"/>
<image xlink:href="../../images/foreignKeys.png" width="11px" height="12px" preserveAspectRatio="xMinYMin meet" x="208" y="-640.999"/>
<text text-anchor="start" x="223" y="-631.0986" font-family="Helvetica,sans-Serif" font-size="11.00" fill="#000000">case_inst_id_</text>
<polygon fill="none" stroke="#000000" points="374,-623.9986 374,-645.9986 441,-645.9986 441,-623.9986 374,-623.9986"/>
<text text-anchor="start" x="377" y="-631.6986" font-family="Helvetica,sans-Serif" font-size="11.00" fill="#000000">varchar[64]</text>
<polygon fill="none" stroke="#000000" points="203,-601.9986 203,-623.9986 374,-623.9986 374,-601.9986 203,-601.9986"/>
<text text-anchor="start" x="223" y="-609.0986" font-family="Helvetica,sans-Serif" font-size="11.00" fill="#000000">super_case_exec_</text>
<polygon fill="none" stroke="#000000" points="374,-601.9986 374,-623.9986 441,-623.9986 441,-601.9986 374,-601.9986"/>
<text text-anchor="start" x="377" y="-609.6986" font-family="Helvetica,sans-Serif" font-size="11.00" fill="#000000">varchar[64]</text>
<polygon fill="none" stroke="#000000" points="203,-579.9986 203,-601.9986 374,-601.9986 374,-579.9986 203,-579.9986"/>
<text text-anchor="start" x="223" y="-587.0986" font-family="Helvetica,sans-Serif" font-size="11.00" fill="#000000">super_exec_</text>
<polygon fill="none" stroke="#000000" points="374,-579.9986 374,-601.9986 441,-601.9986 441,-579.9986 374,-579.9986"/>
<text text-anchor="start" x="377" y="-587.6986" font-family="Helvetica,sans-Serif" font-size="11.00" fill="#000000">varchar[64]</text>
<polygon fill="#ffffff" stroke="transparent" points="203,-557.9986 203,-579.9986 374,-579.9986 374,-557.9986 203,-557.9986"/>
<polygon fill="none" stroke="#000000" points="203,-557.9986 203,-579.9986 374,-579.9986 374,-557.9986 203,-557.9986"/>
<text text-anchor="start" x="223" y="-565.0986" font-family="Helvetica,sans-Serif" font-size="11.00" fill="#000000">business_key_</text>
<polygon fill="none" stroke="#000000" points="374,-557.9986 374,-579.9986 441,-579.9986 441,-557.9986 374,-557.9986"/>
<text text-anchor="start" x="376.9365" y="-565.6986" font-family="Helvetica,sans-Serif" font-size="11.00" fill="#000000">varchar[255]</text>
<polygon fill="#ffffff" stroke="transparent" points="203,-535.9986 203,-557.9986 374,-557.9986 374,-535.9986 203,-535.9986"/>
<polygon fill="none" stroke="#000000" points="203,-535.9986 203,-557.9986 374,-557.9986 374,-535.9986 203,-535.9986"/>
<image xlink:href="../../images/foreignKeys.png" width="11px" height="12px" preserveAspectRatio="xMinYMin meet" x="208" y="-552.999"/>
<text text-anchor="start" x="223" y="-543.0986" font-family="Helvetica,sans-Serif" font-size="11.00" fill="#000000">parent_id_</text>
<polygon fill="none" stroke="#000000" points="374,-535.9986 374,-557.9986 441,-557.9986 441,-535.9986 374,-535.9986"/>
<text text-anchor="start" x="377" y="-543.6986" font-family="Helvetica,sans-Serif" font-size="11.00" fill="#000000">varchar[64]</text>
<polygon fill="#ffffff" stroke="transparent" points="203,-513.9986 203,-535.9986 374,-535.9986 374,-513.9986 203,-513.9986"/>
<polygon fill="none" stroke="#000000" points="203,-513.9986 203,-535.9986 374,-535.9986 374,-513.9986 203,-513.9986"/>
<image xlink:href="../../images/foreignKeys.png" width="11px" height="12px" preserveAspectRatio="xMinYMin meet" x="208" y="-530.999"/>
<text text-anchor="start" x="223" y="-521.0986" font-family="Helvetica,sans-Serif" font-size="11.00" fill="#000000">case_def_id_</text>
<polygon fill="none" stroke="#000000" points="374,-513.9986 374,-535.9986 441,-535.9986 441,-513.9986 374,-513.9986"/>
<text text-anchor="start" x="377" y="-521.6986" font-family="Helvetica,sans-Serif" font-size="11.00" fill="#000000">varchar[64]</text>
<polygon fill="none" stroke="#000000" points="203,-491.9986 203,-513.9986 374,-513.9986 374,-491.9986 203,-491.9986"/>
<text text-anchor="start" x="223" y="-499.0986" font-family="Helvetica,sans-Serif" font-size="11.00" fill="#000000">act_id_</text>
<polygon fill="none" stroke="#000000" points="374,-491.9986 374,-513.9986 441,-513.9986 441,-491.9986 374,-491.9986"/>
<text text-anchor="start" x="376.9365" y="-499.6986" font-family="Helvetica,sans-Serif" font-size="11.00" fill="#000000">varchar[255]</text>
<polygon fill="none" stroke="#000000" points="203,-469.9986 203,-491.9986 374,-491.9986 374,-469.9986 203,-469.9986"/>
<text text-anchor="start" x="223" y="-477.0986" font-family="Helvetica,sans-Serif" font-size="11.00" fill="#000000">prev_state_</text>
<polygon fill="none" stroke="#000000" points="374,-469.9986 374,-491.9986 441,-491.9986 441,-469.9986 374,-469.9986"/>
<text text-anchor="start" x="377" y="-477.6986" font-family="Helvetica,sans-Serif" font-size="11.00" fill="#000000">int4[10]</text>
<polygon fill="none" stroke="#000000" points="203,-447.9986 203,-469.9986 374,-469.9986 374,-447.9986 203,-447.9986"/>
<text text-anchor="start" x="223" y="-455.0986" font-family="Helvetica,sans-Serif" font-size="11.00" fill="#000000">current_state_</text>
<polygon fill="none" stroke="#000000" points="374,-447.9986 374,-469.9986 441,-469.9986 441,-447.9986 374,-447.9986"/>
<text text-anchor="start" x="377" y="-455.6986" font-family="Helvetica,sans-Serif" font-size="11.00" fill="#000000">int4[10]</text>
<polygon fill="none" stroke="#000000" points="203,-425.9986 203,-447.9986 374,-447.9986 374,-425.9986 203,-425.9986"/>
<text text-anchor="start" x="223" y="-433.0986" font-family="Helvetica,sans-Serif" font-size="11.00" fill="#000000">required_</text>
<polygon fill="none" stroke="#000000" points="374,-425.9986 374,-447.9986 441,-447.9986 441,-425.9986 374,-425.9986"/>
<text text-anchor="start" x="377" y="-433.6986" font-family="Helvetica,sans-Serif" font-size="11.00" fill="#000000">bool[1]</text>
<polygon fill="#ffffff" stroke="transparent" points="203,-403.9986 203,-425.9986 374,-425.9986 374,-403.9986 203,-403.9986"/>
<polygon fill="none" stroke="#000000" points="203,-403.9986 203,-425.9986 374,-425.9986 374,-403.9986 203,-403.9986"/>
<text text-anchor="start" x="223" y="-411.0986" font-family="Helvetica,sans-Serif" font-size="11.00" fill="#000000">tenant_id_</text>
<polygon fill="none" stroke="#000000" points="374,-403.9986 374,-425.9986 441,-425.9986 441,-403.9986 374,-403.9986"/>
<text text-anchor="start" x="377" y="-411.6986" font-family="Helvetica,sans-Serif" font-size="11.00" fill="#000000">varchar[64]</text>
<polygon fill="#ffffff" stroke="transparent" points="203,-384.9986 203,-403.9986 293,-403.9986 293,-384.9986 203,-384.9986"/>
<polygon fill="none" stroke="#000000" points="203,-384.9986 203,-403.9986 293,-403.9986 293,-384.9986 203,-384.9986"/>
<text text-anchor="start" x="206" y="-391.0986" font-family="Helvetica,sans-Serif" font-size="11.00" fill="#000000">&lt; 3</text>
<polygon fill="#ffffff" stroke="transparent" points="293,-384.9986 293,-403.9986 374,-403.9986 374,-384.9986 293,-384.9986"/>
<polygon fill="none" stroke="#000000" points="293,-384.9986 293,-403.9986 374,-403.9986 374,-384.9986 293,-384.9986"/>
<text text-anchor="start" x="364.8862" y="-391.0986" font-family="Helvetica,sans-Serif" font-size="11.00" fill="#000000"> &#160;</text>
<polygon fill="#ffffff" stroke="transparent" points="374,-384.9986 374,-403.9986 441,-403.9986 441,-384.9986 374,-384.9986"/>
<polygon fill="none" stroke="#000000" points="374,-384.9986 374,-403.9986 441,-403.9986 441,-384.9986 374,-384.9986"/>
<text text-anchor="start" x="422.4053" y="-391.0986" font-family="Helvetica,sans-Serif" font-size="11.00" fill="#000000">7 &gt;</text>
<polygon fill="none" stroke="#000000" stroke-width="2" points="202,-383.9986 202,-713.9986 442,-713.9986 442,-383.9986 202,-383.9986"/>
</a>
</g>
</g>
<!-- act_ru_case_execution&#45;&gt;act_ru_case_execution -->
<g id="edge2" class="edge">
<title>act_ru_case_execution:w&#45;&gt;act_ru_case_execution:e</title>
<path fill="none" stroke="#000000" d="M193.0123,-645.4616C143.1163,-700.0938 153.0176,-731.9986 322,-731.9986 501.5,-731.9986 501.5,-723.332 441,-678.9986"/>
<polygon fill="#000000" stroke="#000000" points="197.4761,-640.7854 205.604,-637.4844 200.238,-637.892 203,-634.9986 203,-634.9986 203,-634.9986 200.238,-637.892 200.396,-632.5129 197.4761,-640.7854 197.4761,-640.7854"/>
<ellipse fill="none" stroke="#000000" cx="195.2665" cy="-643.1001" rx="3.2" ry="3.2"/>
</g>
<!-- act_ru_case_execution&#45;&gt;act_ru_case_execution -->
<g id="edge3" class="edge">
<title>act_ru_case_execution:w&#45;&gt;act_ru_case_execution:e</title>
<path fill="none" stroke="#000000" d="M193.3236,-557.9362C143.0759,-621.6477 152.667,-731.9986 322,-731.9986 501.5,-731.9986 501.5,-723.332 441,-678.9986"/>
<polygon fill="#000000" stroke="#000000" points="197.6991,-552.9904 205.6963,-549.384 200.3496,-549.9945 203,-546.9986 203,-546.9986 203,-546.9986 200.3496,-549.9945 200.3037,-544.6133 197.6991,-552.9904 197.6991,-552.9904"/>
<ellipse fill="none" stroke="#000000" cx="195.5788" cy="-555.3871" rx="3.2" ry="3.2"/>
</g>
<!-- act_re_case_def -->
<g id="node2" class="node">
<title>act_re_case_def</title>
<g id="a_node2"><a xlink:href="../../tables/act_re_case_def.html" xlink:title="act_re_case_def" target="_top">
<polygon fill="#ffffff" stroke="transparent" points="8,-411.4986 8,-472.4986 152,-472.4986 152,-411.4986 8,-411.4986"/>
<polygon fill="#f5f5f5" stroke="transparent" points="8,-448.9986 8,-471.9986 152,-471.9986 152,-448.9986 8,-448.9986"/>
<polygon fill="none" stroke="#000000" points="8,-448.9986 8,-471.9986 152,-471.9986 152,-448.9986 8,-448.9986"/>
<text text-anchor="start" x="13" y="-457.5986" font-family="Helvetica,sans-Serif" font-weight="bold" font-size="11.00" fill="#000000">act_re_case_def</text>
<text text-anchor="start" x="117.5219" y="-457.0986" font-family="Helvetica,sans-Serif" font-size="11.00" fill="#000000">[table]</text>
<polygon fill="none" stroke="#000000" points="8,-429.9986 8,-448.9986 152,-448.9986 152,-429.9986 8,-429.9986"/>
<text text-anchor="start" x="11" y="-436.0986" font-family="Helvetica,sans-Serif" font-size="11.00" fill="#000000">...</text>
<polygon fill="#ffffff" stroke="transparent" points="8,-410.9986 8,-429.9986 69,-429.9986 69,-410.9986 8,-410.9986"/>
<polygon fill="none" stroke="#000000" points="8,-410.9986 8,-429.9986 69,-429.9986 69,-410.9986 8,-410.9986"/>
<text text-anchor="start" x="11" y="-417.0986" font-family="Helvetica,sans-Serif" font-size="11.00" fill="#000000"> &#160;</text>
<polygon fill="#ffffff" stroke="transparent" points="69,-410.9986 69,-429.9986 106,-429.9986 106,-410.9986 69,-410.9986"/>
<polygon fill="none" stroke="#000000" points="69,-410.9986 69,-429.9986 106,-429.9986 106,-410.9986 69,-410.9986"/>
<text text-anchor="start" x="96.8862" y="-417.0986" font-family="Helvetica,sans-Serif" font-size="11.00" fill="#000000"> &#160;</text>
<polygon fill="#ffffff" stroke="transparent" points="106,-410.9986 106,-429.9986 152,-429.9986 152,-410.9986 106,-410.9986"/>
<polygon fill="none" stroke="#000000" points="106,-410.9986 106,-429.9986 152,-429.9986 152,-410.9986 106,-410.9986"/>
<text text-anchor="start" x="133.4053" y="-417.0986" font-family="Helvetica,sans-Serif" font-size="11.00" fill="#000000">2 &gt;</text>
</a>
</g>
</g>
<!-- act_ru_case_execution&#45;&gt;act_re_case_def -->
<g id="edge1" class="edge">
<title>act_ru_case_execution:w&#45;&gt;act_re_case_def:e</title>
<path fill="none" stroke="#000000" d="M188.5889,-523.7136C157.6227,-518.2646 129.5359,-496.4406 109.688,-476.7172"/>
<polygon fill="#000000" stroke="#000000" points="195.0316,-524.2881 202.6802,-528.5844 199.0158,-524.6434 203,-524.9986 203,-524.9986 203,-524.9986 199.0158,-524.6434 203.3198,-521.4129 195.0316,-524.2881 195.0316,-524.2881"/>
<ellipse fill="none" stroke="#000000" cx="191.8443" cy="-524.0038" rx="3.2" ry="3.2"/>
</g>
<!-- act_ru_case_sentry_part -->
<g id="node3" class="node">
<title>act_ru_case_sentry_part</title>
<g id="a_node3"><a xlink:href="../../tables/act_ru_case_sentry_part.html" xlink:title="act_ru_case_sentry_part" target="_top">
<polygon fill="#ffffff" stroke="transparent" points="492,-619.4986 492,-746.4986 692,-746.4986 692,-619.4986 492,-619.4986"/>
<polygon fill="#f5f5f5" stroke="transparent" points="492,-722.9986 492,-745.9986 692,-745.9986 692,-722.9986 492,-722.9986"/>
<polygon fill="none" stroke="#000000" points="492,-722.9986 492,-745.9986 692,-745.9986 692,-722.9986 492,-722.9986"/>
<text text-anchor="start" x="497" y="-731.5986" font-family="Helvetica,sans-Serif" font-weight="bold" font-size="11.00" fill="#000000">act_ru_case_sentry_part</text>
<text text-anchor="start" x="657.5219" y="-731.0986" font-family="Helvetica,sans-Serif" font-size="11.00" fill="#000000">[table]</text>
<polygon fill="none" stroke="#000000" points="492,-700.9986 492,-722.9986 692,-722.9986 692,-700.9986 492,-700.9986"/>
<image xlink:href="../../images/primaryKeys.png" width="11px" height="12px" preserveAspectRatio="xMinYMin meet" x="497" y="-717.999"/>
<text text-anchor="start" x="521" y="-708.0986" font-family="Helvetica,sans-Serif" font-size="11.00" fill="#000000">id_</text>
<polygon fill="#ffffff" stroke="transparent" points="492,-678.9986 492,-700.9986 692,-700.9986 692,-678.9986 492,-678.9986"/>
<polygon fill="none" stroke="#000000" points="492,-678.9986 492,-700.9986 692,-700.9986 692,-678.9986 492,-678.9986"/>
<image xlink:href="../../images/foreignKeys.png" width="11px" height="12px" preserveAspectRatio="xMinYMin meet" x="497" y="-695.999"/>
<text text-anchor="start" x="521" y="-686.0986" font-family="Helvetica,sans-Serif" font-size="11.00" fill="#000000">case_inst_id_</text>
<polygon fill="#ffffff" stroke="transparent" points="492,-656.9986 492,-678.9986 692,-678.9986 692,-656.9986 492,-656.9986"/>
<polygon fill="none" stroke="#000000" points="492,-656.9986 492,-678.9986 692,-678.9986 692,-656.9986 492,-656.9986"/>
<image xlink:href="../../images/foreignKeys.png" width="11px" height="12px" preserveAspectRatio="xMinYMin meet" x="497" y="-673.999"/>
<text text-anchor="start" x="521" y="-664.0986" font-family="Helvetica,sans-Serif" font-size="11.00" fill="#000000">case_exec_id_</text>
<polygon fill="none" stroke="#000000" points="492,-637.9986 492,-656.9986 692,-656.9986 692,-637.9986 492,-637.9986"/>
<text text-anchor="start" x="495" y="-644.0986" font-family="Helvetica,sans-Serif" font-size="11.00" fill="#000000">...</text>
<polygon fill="#ffffff" stroke="transparent" points="492,-618.9986 492,-637.9986 590,-637.9986 590,-618.9986 492,-618.9986"/>
<polygon fill="none" stroke="#000000" points="492,-618.9986 492,-637.9986 590,-637.9986 590,-618.9986 492,-618.9986"/>
<text text-anchor="start" x="495" y="-625.0986" font-family="Helvetica,sans-Serif" font-size="11.00" fill="#000000">&lt; 2</text>
<polygon fill="#ffffff" stroke="transparent" points="590,-618.9986 590,-637.9986 641,-637.9986 641,-618.9986 590,-618.9986"/>
<polygon fill="none" stroke="#000000" points="590,-618.9986 590,-637.9986 641,-637.9986 641,-618.9986 590,-618.9986"/>
<text text-anchor="start" x="631.8862" y="-625.0986" font-family="Helvetica,sans-Serif" font-size="11.00" fill="#000000"> &#160;</text>
<polygon fill="#ffffff" stroke="transparent" points="641,-618.9986 641,-637.9986 692,-637.9986 692,-618.9986 641,-618.9986"/>
<polygon fill="none" stroke="#000000" points="641,-618.9986 641,-637.9986 692,-637.9986 692,-618.9986 641,-618.9986"/>
<text text-anchor="start" x="682.8862" y="-625.0986" font-family="Helvetica,sans-Serif" font-size="11.00" fill="#000000"> &#160;</text>
</a>
</g>
</g>
<!-- act_ru_case_sentry_part&#45;&gt;act_ru_case_execution -->
<g id="edge4" class="edge">
<title>act_ru_case_sentry_part:w&#45;&gt;act_ru_case_execution:e</title>
<path fill="none" stroke="#000000" d="M477.5097,-669.7174C465.3398,-672.8111 458.3909,-678.9986 441,-678.9986"/>
<polygon fill="#000000" stroke="#000000" points="484.0557,-668.941 492.4241,-671.5736 488.0278,-668.4698 492,-667.9986 492,-667.9986 492,-667.9986 488.0278,-668.4698 491.5759,-664.4237 484.0557,-668.941 484.0557,-668.941"/>
<ellipse fill="none" stroke="#000000" cx="480.878" cy="-669.3179" rx="3.2" ry="3.2"/>
</g>
<!-- act_ru_case_sentry_part&#45;&gt;act_ru_case_execution -->
<g id="edge5" class="edge">
<title>act_ru_case_sentry_part:w&#45;&gt;act_ru_case_execution:e</title>
<path fill="none" stroke="#000000" d="M477.5097,-688.2799C465.3398,-685.1861 458.3909,-678.9986 441,-678.9986"/>
<polygon fill="#000000" stroke="#000000" points="484.0557,-689.0563 491.5759,-693.5736 488.0278,-689.5275 492,-689.9986 492,-689.9986 492,-689.9986 488.0278,-689.5275 492.4241,-686.4237 484.0557,-689.0563 484.0557,-689.0563"/>
<ellipse fill="none" stroke="#000000" cx="480.878" cy="-688.6793" rx="3.2" ry="3.2"/>
</g>
<!-- act_ru_execution -->
<g id="node4" class="node">
<title>act_ru_execution</title>
<g id="a_node4"><a xlink:href="../../tables/act_ru_execution.html" xlink:title="act_ru_execution" target="_top">
<polygon fill="#ffffff" stroke="transparent" points="246,-246.4986 246,-307.4986 398,-307.4986 398,-246.4986 246,-246.4986"/>
<polygon fill="#f5f5f5" stroke="transparent" points="246,-283.9986 246,-306.9986 398,-306.9986 398,-283.9986 246,-283.9986"/>
<polygon fill="none" stroke="#000000" points="246,-283.9986 246,-306.9986 398,-306.9986 398,-283.9986 246,-283.9986"/>
<text text-anchor="start" x="251" y="-292.5986" font-family="Helvetica,sans-Serif" font-weight="bold" font-size="11.00" fill="#000000">act_ru_execution</text>
<text text-anchor="start" x="363.5219" y="-292.0986" font-family="Helvetica,sans-Serif" font-size="11.00" fill="#000000">[table]</text>
<polygon fill="none" stroke="#000000" points="246,-264.9986 246,-283.9986 398,-283.9986 398,-264.9986 246,-264.9986"/>
<text text-anchor="start" x="249" y="-271.0986" font-family="Helvetica,sans-Serif" font-size="11.00" fill="#000000">...</text>
<polygon fill="#ffffff" stroke="transparent" points="246,-245.9986 246,-264.9986 313,-264.9986 313,-245.9986 246,-245.9986"/>
<polygon fill="none" stroke="#000000" points="246,-245.9986 246,-264.9986 313,-264.9986 313,-245.9986 246,-245.9986"/>
<text text-anchor="start" x="249" y="-252.0986" font-family="Helvetica,sans-Serif" font-size="11.00" fill="#000000">&lt; 4</text>
<polygon fill="#ffffff" stroke="transparent" points="313,-245.9986 313,-264.9986 348,-264.9986 348,-245.9986 313,-245.9986"/>
<polygon fill="none" stroke="#000000" points="313,-245.9986 313,-264.9986 348,-264.9986 348,-245.9986 313,-245.9986"/>
<text text-anchor="start" x="338.8862" y="-252.0986" font-family="Helvetica,sans-Serif" font-size="11.00" fill="#000000"> &#160;</text>
<polygon fill="#ffffff" stroke="transparent" points="348,-245.9986 348,-264.9986 398,-264.9986 398,-245.9986 348,-245.9986"/>
<polygon fill="none" stroke="#000000" points="348,-245.9986 348,-264.9986 398,-264.9986 398,-245.9986 348,-245.9986"/>
<text text-anchor="start" x="373.2904" y="-252.0986" font-family="Helvetica,sans-Serif" font-size="11.00" fill="#000000">11 &gt;</text>
</a>
</g>
</g>
<!-- act_re_procdef -->
<g id="node5" class="node">
<title>act_re_procdef</title>
<g id="a_node5"><a xlink:href="../../tables/act_re_procdef.html" xlink:title="act_re_procdef" target="_top">
<polygon fill="#ffffff" stroke="transparent" points="11.5,-246.4986 11.5,-307.4986 148.5,-307.4986 148.5,-246.4986 11.5,-246.4986"/>
<polygon fill="#f5f5f5" stroke="transparent" points="12,-283.9986 12,-306.9986 149,-306.9986 149,-283.9986 12,-283.9986"/>
<polygon fill="none" stroke="#000000" points="12,-283.9986 12,-306.9986 149,-306.9986 149,-283.9986 12,-283.9986"/>
<text text-anchor="start" x="17" y="-292.5986" font-family="Helvetica,sans-Serif" font-weight="bold" font-size="11.00" fill="#000000">act_re_procdef</text>
<text text-anchor="start" x="114.5219" y="-292.0986" font-family="Helvetica,sans-Serif" font-size="11.00" fill="#000000">[table]</text>
<polygon fill="none" stroke="#000000" points="12,-264.9986 12,-283.9986 149,-283.9986 149,-264.9986 12,-264.9986"/>
<text text-anchor="start" x="15" y="-271.0986" font-family="Helvetica,sans-Serif" font-size="11.00" fill="#000000">...</text>
<polygon fill="#ffffff" stroke="transparent" points="12,-245.9986 12,-264.9986 70,-264.9986 70,-245.9986 12,-245.9986"/>
<polygon fill="none" stroke="#000000" points="12,-245.9986 12,-264.9986 70,-264.9986 70,-245.9986 12,-245.9986"/>
<text text-anchor="start" x="15" y="-252.0986" font-family="Helvetica,sans-Serif" font-size="11.00" fill="#000000"> &#160;</text>
<polygon fill="#ffffff" stroke="transparent" points="70,-245.9986 70,-264.9986 105,-264.9986 105,-245.9986 70,-245.9986"/>
<polygon fill="none" stroke="#000000" points="70,-245.9986 70,-264.9986 105,-264.9986 105,-245.9986 70,-245.9986"/>
<text text-anchor="start" x="95.8862" y="-252.0986" font-family="Helvetica,sans-Serif" font-size="11.00" fill="#000000"> &#160;</text>
<polygon fill="#ffffff" stroke="transparent" points="105,-245.9986 105,-264.9986 149,-264.9986 149,-245.9986 105,-245.9986"/>
<polygon fill="none" stroke="#000000" points="105,-245.9986 105,-264.9986 149,-264.9986 149,-245.9986 105,-245.9986"/>
<text text-anchor="start" x="130.4053" y="-252.0986" font-family="Helvetica,sans-Serif" font-size="11.00" fill="#000000">4 &gt;</text>
</a>
</g>
</g>
<!-- act_ru_execution&#45;&gt;act_re_procdef -->
<g id="edge6" class="edge">
<title>act_ru_execution:w&#45;&gt;act_re_procdef:e</title>
<path fill="none" stroke="#000000" d="M231.2227,-273.9986C199.6892,-273.9986 186.7222,-273.9986 149,-273.9986"/>
<polygon fill="#000000" stroke="#000000" points="238,-273.9987 246,-277.5986 242,-273.9987 246,-273.9986 246,-273.9986 246,-273.9986 242,-273.9987 246,-270.3986 238,-273.9987 238,-273.9987"/>
<ellipse fill="none" stroke="#000000" cx="234.8" cy="-273.9987" rx="3.2" ry="3.2"/>
</g>
<!-- act_ru_identitylink -->
<g id="node6" class="node">
<title>act_ru_identitylink</title>
<g id="a_node6"><a xlink:href="../../tables/act_ru_identitylink.html" xlink:title="act_ru_identitylink" target="_top">
<polygon fill="#ffffff" stroke="transparent" points="741,-208.4986 741,-269.4986 904,-269.4986 904,-208.4986 741,-208.4986"/>
<polygon fill="#f5f5f5" stroke="transparent" points="741.5,-245.9986 741.5,-268.9986 904.5,-268.9986 904.5,-245.9986 741.5,-245.9986"/>
<polygon fill="none" stroke="#000000" points="741.5,-245.9986 741.5,-268.9986 904.5,-268.9986 904.5,-245.9986 741.5,-245.9986"/>
<text text-anchor="start" x="746.5" y="-254.5986" font-family="Helvetica,sans-Serif" font-weight="bold" font-size="11.00" fill="#000000">act_ru_identitylink</text>
<text text-anchor="start" x="870.0219" y="-254.0986" font-family="Helvetica,sans-Serif" font-size="11.00" fill="#000000">[table]</text>
<polygon fill="none" stroke="#000000" points="741.5,-226.9986 741.5,-245.9986 904.5,-245.9986 904.5,-226.9986 741.5,-226.9986"/>
<text text-anchor="start" x="744.5" y="-233.0986" font-family="Helvetica,sans-Serif" font-size="11.00" fill="#000000">...</text>
<polygon fill="#ffffff" stroke="transparent" points="741.5,-207.9986 741.5,-226.9986 821.5,-226.9986 821.5,-207.9986 741.5,-207.9986"/>
<polygon fill="none" stroke="#000000" points="741.5,-207.9986 741.5,-226.9986 821.5,-226.9986 821.5,-207.9986 741.5,-207.9986"/>
<text text-anchor="start" x="744.5" y="-214.0986" font-family="Helvetica,sans-Serif" font-size="11.00" fill="#000000">&lt; 2</text>
<polygon fill="#ffffff" stroke="transparent" points="821.5,-207.9986 821.5,-226.9986 862.5,-226.9986 862.5,-207.9986 821.5,-207.9986"/>
<polygon fill="none" stroke="#000000" points="821.5,-207.9986 821.5,-226.9986 862.5,-226.9986 862.5,-207.9986 821.5,-207.9986"/>
<text text-anchor="start" x="853.3862" y="-214.0986" font-family="Helvetica,sans-Serif" font-size="11.00" fill="#000000"> &#160;</text>
<polygon fill="#ffffff" stroke="transparent" points="862.5,-207.9986 862.5,-226.9986 904.5,-226.9986 904.5,-207.9986 862.5,-207.9986"/>
<polygon fill="none" stroke="#000000" points="862.5,-207.9986 862.5,-226.9986 904.5,-226.9986 904.5,-207.9986 862.5,-207.9986"/>
<text text-anchor="start" x="895.3862" y="-214.0986" font-family="Helvetica,sans-Serif" font-size="11.00" fill="#000000"> &#160;</text>
</a>
</g>
</g>
<!-- act_ru_identitylink&#45;&gt;act_re_procdef -->
<g id="edge7" class="edge">
<title>act_ru_identitylink:w&#45;&gt;act_re_procdef:e</title>
<path fill="none" stroke="#000000" d="M727.0845,-234.3011C670.5425,-218.6837 761.7027,-99.4515 700,-49.9986 660.1067,-18.0253 218.2724,-41.4983 193,-62.9986 120.0369,-125.0718 244.795,-273.9986 149,-273.9986"/>
<polygon fill="#000000" stroke="#000000" points="733.5549,-235.063 741.079,-239.5739 737.5274,-235.5308 741.5,-235.9986 741.5,-235.9986 741.5,-235.9986 737.5274,-235.5308 741.921,-232.4233 733.5549,-235.063 733.5549,-235.063"/>
<ellipse fill="none" stroke="#000000" cx="730.3769" cy="-234.6888" rx="3.2" ry="3.2"/>
</g>
<!-- act_ru_task -->
<g id="node7" class="node">
<title>act_ru_task</title>
<g id="a_node7"><a xlink:href="../../tables/act_ru_task.html" xlink:title="act_ru_task" target="_top">
<polygon fill="#ffffff" stroke="transparent" points="534.5,-406.4986 534.5,-467.4986 649.5,-467.4986 649.5,-406.4986 534.5,-406.4986"/>
<polygon fill="#f5f5f5" stroke="transparent" points="535,-443.9986 535,-466.9986 650,-466.9986 650,-443.9986 535,-443.9986"/>
<polygon fill="none" stroke="#000000" points="535,-443.9986 535,-466.9986 650,-466.9986 650,-443.9986 535,-443.9986"/>
<text text-anchor="start" x="540" y="-452.5986" font-family="Helvetica,sans-Serif" font-weight="bold" font-size="11.00" fill="#000000">act_ru_task</text>
<text text-anchor="start" x="615.5219" y="-452.0986" font-family="Helvetica,sans-Serif" font-size="11.00" fill="#000000">[table]</text>
<polygon fill="none" stroke="#000000" points="535,-424.9986 535,-443.9986 650,-443.9986 650,-424.9986 535,-424.9986"/>
<text text-anchor="start" x="538" y="-431.0986" font-family="Helvetica,sans-Serif" font-size="11.00" fill="#000000">...</text>
<polygon fill="#ffffff" stroke="transparent" points="535,-405.9986 535,-424.9986 586,-424.9986 586,-405.9986 535,-405.9986"/>
<polygon fill="none" stroke="#000000" points="535,-405.9986 535,-424.9986 586,-424.9986 586,-405.9986 535,-405.9986"/>
<text text-anchor="start" x="538" y="-412.0986" font-family="Helvetica,sans-Serif" font-size="11.00" fill="#000000">&lt; 5</text>
<polygon fill="#ffffff" stroke="transparent" points="586,-405.9986 586,-424.9986 613,-424.9986 613,-405.9986 586,-405.9986"/>
<polygon fill="none" stroke="#000000" points="586,-405.9986 586,-424.9986 613,-424.9986 613,-405.9986 586,-405.9986"/>
<text text-anchor="start" x="603.8862" y="-412.0986" font-family="Helvetica,sans-Serif" font-size="11.00" fill="#000000"> &#160;</text>
<polygon fill="#ffffff" stroke="transparent" points="613,-405.9986 613,-424.9986 650,-424.9986 650,-405.9986 613,-405.9986"/>
<polygon fill="none" stroke="#000000" points="613,-405.9986 613,-424.9986 650,-424.9986 650,-405.9986 613,-405.9986"/>
<text text-anchor="start" x="631.4053" y="-412.0986" font-family="Helvetica,sans-Serif" font-size="11.00" fill="#000000">1 &gt;</text>
</a>
</g>
</g>
<!-- act_ru_identitylink&#45;&gt;act_ru_task -->
<g id="edge8" class="edge">
<title>act_ru_identitylink:w&#45;&gt;act_ru_task:e</title>
<path fill="none" stroke="#000000" d="M726.9745,-237.8524C679.8989,-252.1428 745.2079,-345.5715 700,-395.9986 688.7544,-408.5425 673.2608,-417.2688 657.5177,-423.3322"/>
<polygon fill="#000000" stroke="#000000" points="733.5644,-237.0114 741.9558,-239.5697 737.5322,-236.505 741.5,-235.9986 741.5,-235.9986 741.5,-235.9986 737.5322,-236.505 741.0442,-232.4276 733.5644,-237.0114 733.5644,-237.0114"/>
<ellipse fill="none" stroke="#000000" cx="730.3901" cy="-237.4166" rx="3.2" ry="3.2"/>
</g>
<!-- act_ru_task&#45;&gt;act_ru_case_execution -->
<g id="edge10" class="edge">
<title>act_ru_task:w&#45;&gt;act_ru_case_execution:e</title>
<path fill="none" stroke="#000000" d="M562.2774,-484.0577C540.5134,-518.5832 510.3105,-566.6358 484,-608.9986 464.7362,-640.0154 477.5121,-678.9986 441,-678.9986"/>
<polygon fill="#000000" stroke="#000000" points="565.9121,-478.2946 573.2247,-473.4483 568.0459,-474.9112 570.1797,-471.5279 570.1797,-471.5279 570.1797,-471.5279 568.0459,-474.9112 567.1347,-469.6075 565.9121,-478.2946 565.9121,-478.2946"/>
<ellipse fill="none" stroke="#000000" cx="564.205" cy="-481.0012" rx="3.2" ry="3.2"/>
</g>
<!-- act_ru_task&#45;&gt;act_re_case_def -->
<g id="edge9" class="edge">
<title>act_ru_task:w&#45;&gt;act_re_case_def:e</title>
<path fill="none" stroke="#000000" d="M512.7817,-409.7311C502.9091,-405.5196 493.0959,-400.9184 484,-395.9986 468.0485,-387.3709 468.2464,-377.6069 451,-371.9986 341.954,-336.5386 303.286,-340.6068 193,-371.9986 168.03,-379.1061 143.1838,-393.4851 123.1748,-407.3721"/>
<polygon fill="#000000" stroke="#000000" points="518.8143,-412.1977 524.8566,-418.5578 522.5167,-413.7117 526.2191,-415.2256 526.2191,-415.2256 526.2191,-415.2256 522.5167,-413.7117 527.5817,-411.8934 518.8143,-412.1977 518.8143,-412.1977"/>
<ellipse fill="none" stroke="#000000" cx="515.8523" cy="-410.9866" rx="3.2" ry="3.2"/>
</g>
<!-- act_ru_task&#45;&gt;act_ru_execution -->
<g id="edge11" class="edge">
<title>act_ru_task:w&#45;&gt;act_ru_execution:e</title>
<path fill="none" stroke="#000000" d="M513.2601,-409.7496C502.6019,-404.4481 492.4464,-397.9796 484,-389.9986 457.8254,-365.2665 472.1332,-345.1564 451,-315.9986 432.3497,-290.2666 429.7801,-267.9986 398,-273.9986"/>
<polygon fill="#000000" stroke="#000000" points="519.1306,-412.3846 524.9549,-418.9449 522.7799,-414.0226 526.4291,-415.6606 526.4291,-415.6606 526.4291,-415.6606 522.7799,-414.0226 527.9033,-412.3763 519.1306,-412.3846 519.1306,-412.3846"/>
<ellipse fill="none" stroke="#000000" cx="516.2112" cy="-411.0741" rx="3.2" ry="3.2"/>
</g>
<!-- act_ru_task&#45;&gt;act_ru_execution -->
<g id="edge13" class="edge">
<title>act_ru_task:w&#45;&gt;act_ru_execution:e</title>
<path fill="none" stroke="#000000" d="M512.9089,-422.4285C502.3789,-417.3057 492.3536,-410.8919 484,-402.9986 457.8254,-378.2665 472.1332,-358.1564 451,-328.9986 432.3497,-303.2666 429.7801,-280.9986 398,-273.9986"/>
<polygon fill="#000000" stroke="#000000" points="519.0796,-425.0814 525.0072,-431.5484 522.7543,-426.6612 526.4291,-428.2411 526.4291,-428.2411 526.4291,-428.2411 522.7543,-426.6612 527.851,-424.9338 519.0796,-425.0814 519.0796,-425.0814"/>
<ellipse fill="none" stroke="#000000" cx="516.1397" cy="-423.8175" rx="3.2" ry="3.2"/>
</g>
<!-- act_ru_task&#45;&gt;act_re_procdef -->
<g id="edge12" class="edge">
<title>act_ru_task:w&#45;&gt;act_re_procdef:e</title>
<path fill="none" stroke="#000000" d="M513.1242,-413.995C502.7319,-409.0289 492.6885,-403.0833 484,-395.9986 462.7864,-378.7008 474.2942,-358.3727 451,-343.9986 352.9223,-283.4781 297.1267,-367.391 193,-317.9986 168.0129,-306.146 176.6557,-273.9986 149,-273.9986"/>
<polygon fill="#000000" stroke="#000000" points="519.0637,-416.5805 524.9619,-423.0744 522.7312,-418.177 526.3988,-419.7736 526.3988,-419.7736 526.3988,-419.7736 522.7312,-418.177 527.8357,-416.4728 519.0637,-416.5805 519.0637,-416.5805"/>
<ellipse fill="none" stroke="#000000" cx="516.1296" cy="-415.3032" rx="3.2" ry="3.2"/>
</g>
<!-- act_ru_variable -->
<g id="node8" class="node">
<title>act_ru_variable</title>
<g id="a_node8"><a xlink:href="../../tables/act_ru_variable.html" xlink:title="act_ru_variable" target="_top">
<polygon fill="#ffffff" stroke="transparent" points="514.5,-60.4986 514.5,-385.4986 669.5,-385.4986 669.5,-60.4986 514.5,-60.4986"/>
<polygon fill="#f5f5f5" stroke="transparent" points="515,-361.9986 515,-384.9986 670,-384.9986 670,-361.9986 515,-361.9986"/>
<polygon fill="none" stroke="#000000" points="515,-361.9986 515,-384.9986 670,-384.9986 670,-361.9986 515,-361.9986"/>
<text text-anchor="start" x="520" y="-370.5986" font-family="Helvetica,sans-Serif" font-weight="bold" font-size="11.00" fill="#000000">act_ru_variable</text>
<text text-anchor="start" x="635.0437" y="-370.0986" font-family="Helvetica,sans-Serif" font-size="11.00" fill="#000000">[table]</text>
<polygon fill="none" stroke="#000000" points="515,-339.9986 515,-361.9986 670,-361.9986 670,-339.9986 515,-339.9986"/>
<image xlink:href="../../images/primaryKeys.png" width="11px" height="12px" preserveAspectRatio="xMinYMin meet" x="520" y="-356.999"/>
<text text-anchor="start" x="535" y="-347.0986" font-family="Helvetica,sans-Serif" font-size="11.00" fill="#000000">id_</text>
<polygon fill="#ffffff" stroke="transparent" points="515,-317.9986 515,-339.9986 670,-339.9986 670,-317.9986 515,-317.9986"/>
<polygon fill="none" stroke="#000000" points="515,-317.9986 515,-339.9986 670,-339.9986 670,-317.9986 515,-317.9986"/>
<text text-anchor="start" x="535" y="-325.0986" font-family="Helvetica,sans-Serif" font-size="11.00" fill="#000000">type_</text>
<polygon fill="#ffffff" stroke="transparent" points="515,-295.9986 515,-317.9986 670,-317.9986 670,-295.9986 515,-295.9986"/>
<polygon fill="none" stroke="#000000" points="515,-295.9986 515,-317.9986 670,-317.9986 670,-295.9986 515,-295.9986"/>
<text text-anchor="start" x="535" y="-303.0986" font-family="Helvetica,sans-Serif" font-size="11.00" fill="#000000">name_</text>
<polygon fill="#ffffff" stroke="transparent" points="515,-273.9986 515,-295.9986 670,-295.9986 670,-273.9986 515,-273.9986"/>
<polygon fill="none" stroke="#000000" points="515,-273.9986 515,-295.9986 670,-295.9986 670,-273.9986 515,-273.9986"/>
<image xlink:href="../../images/foreignKeys.png" width="11px" height="12px" preserveAspectRatio="xMinYMin meet" x="520" y="-290.999"/>
<text text-anchor="start" x="535" y="-281.0986" font-family="Helvetica,sans-Serif" font-size="11.00" fill="#000000">execution_id_</text>
<polygon fill="#ffffff" stroke="transparent" points="515,-251.9986 515,-273.9986 670,-273.9986 670,-251.9986 515,-251.9986"/>
<polygon fill="none" stroke="#000000" points="515,-251.9986 515,-273.9986 670,-273.9986 670,-251.9986 515,-251.9986"/>
<image xlink:href="../../images/foreignKeys.png" width="11px" height="12px" preserveAspectRatio="xMinYMin meet" x="520" y="-268.999"/>
<text text-anchor="start" x="535" y="-259.0986" font-family="Helvetica,sans-Serif" font-size="11.00" fill="#000000">proc_inst_id_</text>
<polygon fill="#ffffff" stroke="transparent" points="515,-229.9986 515,-251.9986 670,-251.9986 670,-229.9986 515,-229.9986"/>
<polygon fill="none" stroke="#000000" points="515,-229.9986 515,-251.9986 670,-251.9986 670,-229.9986 515,-229.9986"/>
<image xlink:href="../../images/foreignKeys.png" width="11px" height="12px" preserveAspectRatio="xMinYMin meet" x="520" y="-246.999"/>
<text text-anchor="start" x="535" y="-237.0986" font-family="Helvetica,sans-Serif" font-size="11.00" fill="#000000">case_execution_id_</text>
<polygon fill="#ffffff" stroke="transparent" points="515,-207.9986 515,-229.9986 670,-229.9986 670,-207.9986 515,-207.9986"/>
<polygon fill="none" stroke="#000000" points="515,-207.9986 515,-229.9986 670,-229.9986 670,-207.9986 515,-207.9986"/>
<image xlink:href="../../images/foreignKeys.png" width="11px" height="12px" preserveAspectRatio="xMinYMin meet" x="520" y="-224.999"/>
<text text-anchor="start" x="535" y="-215.0986" font-family="Helvetica,sans-Serif" font-size="11.00" fill="#000000">case_inst_id_</text>
<polygon fill="#ffffff" stroke="transparent" points="515,-185.9986 515,-207.9986 670,-207.9986 670,-185.9986 515,-185.9986"/>
<polygon fill="none" stroke="#000000" points="515,-185.9986 515,-207.9986 670,-207.9986 670,-185.9986 515,-185.9986"/>
<text text-anchor="start" x="535" y="-193.0986" font-family="Helvetica,sans-Serif" font-size="11.00" fill="#000000">task_id_</text>
<polygon fill="#ffffff" stroke="transparent" points="515,-163.9986 515,-185.9986 670,-185.9986 670,-163.9986 515,-163.9986"/>
<polygon fill="none" stroke="#000000" points="515,-163.9986 515,-185.9986 670,-185.9986 670,-163.9986 515,-163.9986"/>
<image xlink:href="../../images/foreignKeys.png" width="11px" height="12px" preserveAspectRatio="xMinYMin meet" x="520" y="-180.999"/>
<text text-anchor="start" x="535" y="-171.0986" font-family="Helvetica,sans-Serif" font-size="11.00" fill="#000000">batch_id_</text>
<polygon fill="#ffffff" stroke="transparent" points="515,-141.9986 515,-163.9986 670,-163.9986 670,-141.9986 515,-141.9986"/>
<polygon fill="none" stroke="#000000" points="515,-141.9986 515,-163.9986 670,-163.9986 670,-141.9986 515,-141.9986"/>
<image xlink:href="../../images/foreignKeys.png" width="11px" height="12px" preserveAspectRatio="xMinYMin meet" x="520" y="-158.999"/>
<text text-anchor="start" x="535" y="-149.0986" font-family="Helvetica,sans-Serif" font-size="11.00" fill="#000000">bytearray_id_</text>
<polygon fill="#ffffff" stroke="transparent" points="515,-119.9986 515,-141.9986 670,-141.9986 670,-119.9986 515,-119.9986"/>
<polygon fill="none" stroke="#000000" points="515,-119.9986 515,-141.9986 670,-141.9986 670,-119.9986 515,-119.9986"/>
<text text-anchor="start" x="535" y="-127.0986" font-family="Helvetica,sans-Serif" font-size="11.00" fill="#000000">var_scope_</text>
<polygon fill="#ffffff" stroke="transparent" points="515,-97.9986 515,-119.9986 670,-119.9986 670,-97.9986 515,-97.9986"/>
<polygon fill="none" stroke="#000000" points="515,-97.9986 515,-119.9986 670,-119.9986 670,-97.9986 515,-97.9986"/>
<text text-anchor="start" x="535" y="-105.0986" font-family="Helvetica,sans-Serif" font-size="11.00" fill="#000000">tenant_id_</text>
<polygon fill="none" stroke="#000000" points="515,-78.9986 515,-97.9986 670,-97.9986 670,-78.9986 515,-78.9986"/>
<text text-anchor="start" x="518" y="-85.0986" font-family="Helvetica,sans-Serif" font-size="11.00" fill="#000000">...</text>
<polygon fill="#ffffff" stroke="transparent" points="515,-59.9986 515,-78.9986 591,-78.9986 591,-59.9986 515,-59.9986"/>
<polygon fill="none" stroke="#000000" points="515,-59.9986 515,-78.9986 591,-78.9986 591,-59.9986 515,-59.9986"/>
<text text-anchor="start" x="518" y="-66.0986" font-family="Helvetica,sans-Serif" font-size="11.00" fill="#000000">&lt; 6</text>
<polygon fill="#ffffff" stroke="transparent" points="591,-59.9986 591,-78.9986 630,-78.9986 630,-59.9986 591,-59.9986"/>
<polygon fill="none" stroke="#000000" points="591,-59.9986 591,-78.9986 630,-78.9986 630,-59.9986 591,-59.9986"/>
<text text-anchor="start" x="620.8862" y="-66.0986" font-family="Helvetica,sans-Serif" font-size="11.00" fill="#000000"> &#160;</text>
<polygon fill="#ffffff" stroke="transparent" points="630,-59.9986 630,-78.9986 670,-78.9986 670,-59.9986 630,-59.9986"/>
<polygon fill="none" stroke="#000000" points="630,-59.9986 630,-78.9986 670,-78.9986 670,-59.9986 630,-59.9986"/>
<text text-anchor="start" x="660.8862" y="-66.0986" font-family="Helvetica,sans-Serif" font-size="11.00" fill="#000000"> &#160;</text>
</a>
</g>
</g>
<!-- act_ru_variable&#45;&gt;act_ru_case_execution -->
<g id="edge16" class="edge">
<title>act_ru_variable:w&#45;&gt;act_ru_case_execution:e</title>
<path fill="none" stroke="#000000" d="M500.7253,-244.7852C429.1226,-287.595 534.3144,-678.9986 441,-678.9986"/>
<polygon fill="#000000" stroke="#000000" points="507.2674,-243.0498 515.923,-244.4783 511.1337,-242.0242 515,-240.9986 515,-240.9986 515,-240.9986 511.1337,-242.0242 514.077,-237.519 507.2674,-243.0498 507.2674,-243.0498"/>
<ellipse fill="none" stroke="#000000" cx="504.1744" cy="-243.8703" rx="3.2" ry="3.2"/>
</g>
<!-- act_ru_variable&#45;&gt;act_ru_case_execution -->
<g id="edge17" class="edge">
<title>act_ru_variable:w&#45;&gt;act_ru_case_execution:e</title>
<path fill="none" stroke="#000000" d="M500.9954,-222.4368C424.3686,-264.5312 539.2788,-678.9986 441,-678.9986"/>
<polygon fill="#000000" stroke="#000000" points="507.2307,-220.9061 515.8583,-222.4948 511.1154,-219.9524 515,-218.9986 515,-218.9986 515,-218.9986 511.1154,-219.9524 514.1417,-215.5025 507.2307,-220.9061 507.2307,-220.9061"/>
<ellipse fill="none" stroke="#000000" cx="504.123" cy="-221.669" rx="3.2" ry="3.2"/>
</g>
<!-- act_ru_variable&#45;&gt;act_ru_execution -->
<g id="edge18" class="edge">
<title>act_ru_variable:w&#45;&gt;act_ru_execution:e</title>
<path fill="none" stroke="#000000" d="M500.4953,-284.693C459.8784,-282.9164 445.0268,-273.9986 398,-273.9986"/>
<polygon fill="#000000" stroke="#000000" points="507.0018,-284.83 514.9241,-288.5978 511.0009,-284.9143 515,-284.9986 515,-284.9986 515,-284.9986 511.0009,-284.9143 515.0759,-281.3994 507.0018,-284.83 507.0018,-284.83"/>
<ellipse fill="none" stroke="#000000" cx="503.8025" cy="-284.7626" rx="3.2" ry="3.2"/>
</g>
<!-- act_ru_variable&#45;&gt;act_ru_execution -->
<g id="edge19" class="edge">
<title>act_ru_variable:w&#45;&gt;act_ru_execution:e</title>
<path fill="none" stroke="#000000" d="M500.4953,-263.3043C459.8784,-265.0809 445.0268,-273.9986 398,-273.9986"/>
<polygon fill="#000000" stroke="#000000" points="507.0018,-263.1673 515.0759,-266.5978 511.0009,-263.0829 515,-262.9986 515,-262.9986 515,-262.9986 511.0009,-263.0829 514.9241,-259.3994 507.0018,-263.1673 507.0018,-263.1673"/>
<ellipse fill="none" stroke="#000000" cx="503.8025" cy="-263.2347" rx="3.2" ry="3.2"/>
</g>
<!-- act_ru_batch -->
<g id="node9" class="node">
<title>act_ru_batch</title>
<g id="a_node9"><a xlink:href="../../tables/act_ru_batch.html" xlink:title="act_ru_batch" target="_top">
<polygon fill="#ffffff" stroke="transparent" points="260,-155.4986 260,-216.4986 384,-216.4986 384,-155.4986 260,-155.4986"/>
<polygon fill="#f5f5f5" stroke="transparent" points="260,-192.9986 260,-215.9986 384,-215.9986 384,-192.9986 260,-192.9986"/>
<polygon fill="none" stroke="#000000" points="260,-192.9986 260,-215.9986 384,-215.9986 384,-192.9986 260,-192.9986"/>
<text text-anchor="start" x="265" y="-201.5986" font-family="Helvetica,sans-Serif" font-weight="bold" font-size="11.00" fill="#000000">act_ru_batch</text>
<text text-anchor="start" x="349.5219" y="-201.0986" font-family="Helvetica,sans-Serif" font-size="11.00" fill="#000000">[table]</text>
<polygon fill="none" stroke="#000000" points="260,-173.9986 260,-192.9986 384,-192.9986 384,-173.9986 260,-173.9986"/>
<text text-anchor="start" x="263" y="-180.0986" font-family="Helvetica,sans-Serif" font-size="11.00" fill="#000000">...</text>
<polygon fill="#ffffff" stroke="transparent" points="260,-154.9986 260,-173.9986 316,-173.9986 316,-154.9986 260,-154.9986"/>
<polygon fill="none" stroke="#000000" points="260,-154.9986 260,-173.9986 316,-173.9986 316,-154.9986 260,-154.9986"/>
<text text-anchor="start" x="263" y="-161.0986" font-family="Helvetica,sans-Serif" font-size="11.00" fill="#000000">&lt; 3</text>
<polygon fill="#ffffff" stroke="transparent" points="316,-154.9986 316,-173.9986 345,-173.9986 345,-154.9986 316,-154.9986"/>
<polygon fill="none" stroke="#000000" points="316,-154.9986 316,-173.9986 345,-173.9986 345,-154.9986 316,-154.9986"/>
<text text-anchor="start" x="335.8862" y="-161.0986" font-family="Helvetica,sans-Serif" font-size="11.00" fill="#000000"> &#160;</text>
<polygon fill="#ffffff" stroke="transparent" points="345,-154.9986 345,-173.9986 384,-173.9986 384,-154.9986 345,-154.9986"/>
<polygon fill="none" stroke="#000000" points="345,-154.9986 345,-173.9986 384,-173.9986 384,-154.9986 345,-154.9986"/>
<text text-anchor="start" x="365.4053" y="-161.0986" font-family="Helvetica,sans-Serif" font-size="11.00" fill="#000000">1 &gt;</text>
</a>
</g>
</g>
<!-- act_ru_variable&#45;&gt;act_ru_batch -->
<g id="edge14" class="edge">
<title>act_ru_variable:w&#45;&gt;act_ru_batch:e</title>
<path fill="none" stroke="#000000" d="M500.5796,-175.1732C453.809,-176.3431 437.204,-182.9986 384,-182.9986"/>
<polygon fill="#000000" stroke="#000000" points="507.0006,-175.0955 515.0436,-178.5984 511.0003,-175.0471 515,-174.9986 515,-174.9986 515,-174.9986 511.0003,-175.0471 514.9564,-171.3989 507.0006,-175.0955 507.0006,-175.0955"/>
<ellipse fill="none" stroke="#000000" cx="503.8008" cy="-175.1343" rx="3.2" ry="3.2"/>
</g>
<!-- act_ge_bytearray -->
<g id="node10" class="node">
<title>act_ge_bytearray</title>
<g id="a_node10"><a xlink:href="../../tables/act_ge_bytearray.html" xlink:title="act_ge_bytearray" target="_top">
<polygon fill="#ffffff" stroke="transparent" points="245,-73.4986 245,-134.4986 399,-134.4986 399,-73.4986 245,-73.4986"/>
<polygon fill="#f5f5f5" stroke="transparent" points="245,-110.9986 245,-133.9986 399,-133.9986 399,-110.9986 245,-110.9986"/>
<polygon fill="none" stroke="#000000" points="245,-110.9986 245,-133.9986 399,-133.9986 399,-110.9986 245,-110.9986"/>
<text text-anchor="start" x="250" y="-119.5986" font-family="Helvetica,sans-Serif" font-weight="bold" font-size="11.00" fill="#000000">act_ge_bytearray</text>
<text text-anchor="start" x="364.5219" y="-119.0986" font-family="Helvetica,sans-Serif" font-size="11.00" fill="#000000">[table]</text>
<polygon fill="none" stroke="#000000" points="245,-91.9986 245,-110.9986 399,-110.9986 399,-91.9986 245,-91.9986"/>
<text text-anchor="start" x="248" y="-98.0986" font-family="Helvetica,sans-Serif" font-size="11.00" fill="#000000">...</text>
<polygon fill="#ffffff" stroke="transparent" points="245,-72.9986 245,-91.9986 316,-91.9986 316,-72.9986 245,-72.9986"/>
<polygon fill="none" stroke="#000000" points="245,-72.9986 245,-91.9986 316,-91.9986 316,-72.9986 245,-72.9986"/>
<text text-anchor="start" x="248" y="-79.0986" font-family="Helvetica,sans-Serif" font-size="11.00" fill="#000000">&lt; 1</text>
<polygon fill="#ffffff" stroke="transparent" points="316,-72.9986 316,-91.9986 353,-91.9986 353,-72.9986 316,-72.9986"/>
<polygon fill="none" stroke="#000000" points="316,-72.9986 316,-91.9986 353,-91.9986 353,-72.9986 316,-72.9986"/>
<text text-anchor="start" x="343.8862" y="-79.0986" font-family="Helvetica,sans-Serif" font-size="11.00" fill="#000000"> &#160;</text>
<polygon fill="#ffffff" stroke="transparent" points="353,-72.9986 353,-91.9986 399,-91.9986 399,-72.9986 353,-72.9986"/>
<polygon fill="none" stroke="#000000" points="353,-72.9986 353,-91.9986 399,-91.9986 399,-72.9986 353,-72.9986"/>
<text text-anchor="start" x="380.4053" y="-79.0986" font-family="Helvetica,sans-Serif" font-size="11.00" fill="#000000">3 &gt;</text>
</a>
</g>
</g>
<!-- act_ru_variable&#45;&gt;act_ge_bytearray -->
<g id="edge15" class="edge">
<title>act_ru_variable:w&#45;&gt;act_ge_bytearray:e</title>
<path fill="none" stroke="#000000" d="M500.4321,-151.7132C457.4682,-143.7057 450.2019,-100.9986 399,-100.9986"/>
<polygon fill="#000000" stroke="#000000" points="507.031,-152.2954 514.6836,-156.5847 511.0155,-152.647 515,-152.9986 515,-152.9986 515,-152.9986 511.0155,-152.647 515.3164,-149.4126 507.031,-152.2954 507.031,-152.2954"/>
<ellipse fill="none" stroke="#000000" cx="503.8433" cy="-152.0142" rx="3.2" ry="3.2"/>
</g>
</g>
</svg>
