<?xml version="1.0" encoding="UTF-8" standalone="no"?>
<!DOCTYPE svg PUBLIC "-//W3C//DTD SVG 1.1//EN"
 "http://www.w3.org/Graphics/SVG/1.1/DTD/svg11.dtd">
<!-- Generated by graphviz version 2.40.1 (20161225.0304)
 -->
<!-- Title: oneDegreeRelationshipsDiagram Pages: 1 -->
<svg width="440pt" height="341pt"
 viewBox="0.00 0.00 440.00 341.20" xmlns="http://www.w3.org/2000/svg" xmlns:xlink="http://www.w3.org/1999/xlink">
<g id="graph0" class="graph" transform="scale(1 1) rotate(0) translate(4 337.2)">
<title>oneDegreeRelationshipsDiagram</title>
<polygon fill="#ffffff" stroke="transparent" points="-4,4 -4,-337.2 436,-337.2 436,4 -4,4"/>
<text text-anchor="middle" x="72.4936" y="-7.3" font-family="Helvetica,sans-Serif" font-size="11.00" fill="#000000">Generated by SchemaSpy</text>
<!-- act_id_tenant_member -->
<g id="node1" class="node">
<title>act_id_tenant_member</title>
<g id="a_node1"><a xlink:href="../../tables/act_id_tenant_member.html" xlink:title="act_id_tenant_member" target="_top">
<polygon fill="#ffffff" stroke="transparent" points="186,-136.7 186,-270.7 424,-270.7 424,-136.7 186,-136.7"/>
<polygon fill="#f5f5f5" stroke="transparent" points="188,-245.7 188,-268.7 422,-268.7 422,-245.7 188,-245.7"/>
<polygon fill="none" stroke="#000000" points="188,-245.7 188,-268.7 422,-268.7 422,-245.7 188,-245.7"/>
<text text-anchor="start" x="193" y="-254.3" font-family="Helvetica,sans-Serif" font-weight="bold" font-size="11.00" fill="#000000">act_id_tenant_member</text>
<text text-anchor="start" x="387.0437" y="-253.8" font-family="Helvetica,sans-Serif" font-size="11.00" fill="#000000">[table]</text>
<polygon fill="none" stroke="#000000" points="188,-223.7 188,-245.7 361,-245.7 361,-223.7 188,-223.7"/>
<image xlink:href="../../images/primaryKeys.png" width="11px" height="12px" preserveAspectRatio="xMinYMin meet" x="193" y="-240.7"/>
<text text-anchor="start" x="208" y="-230.8" font-family="Helvetica,sans-Serif" font-size="11.00" fill="#000000">id_</text>
<polygon fill="none" stroke="#000000" points="361,-223.7 361,-245.7 422,-245.7 422,-223.7 361,-223.7"/>
<text text-anchor="start" x="363.994" y="-231.4" font-family="Helvetica,sans-Serif" font-size="11.00" fill="#000000">varchar[64]</text>
<polygon fill="#ffffff" stroke="transparent" points="188,-201.7 188,-223.7 361,-223.7 361,-201.7 188,-201.7"/>
<polygon fill="none" stroke="#000000" points="188,-201.7 188,-223.7 361,-223.7 361,-201.7 188,-201.7"/>
<image xlink:href="../../images/foreignKeys.png" width="11px" height="12px" preserveAspectRatio="xMinYMin meet" x="193" y="-218.7"/>
<text text-anchor="start" x="208" y="-208.8" font-family="Helvetica,sans-Serif" font-size="11.00" fill="#000000">tenant_id_</text>
<polygon fill="none" stroke="#000000" points="361,-201.7 361,-223.7 422,-223.7 422,-201.7 361,-201.7"/>
<text text-anchor="start" x="363.994" y="-209.4" font-family="Helvetica,sans-Serif" font-size="11.00" fill="#000000">varchar[64]</text>
<polygon fill="#ffffff" stroke="transparent" points="188,-179.7 188,-201.7 361,-201.7 361,-179.7 188,-179.7"/>
<polygon fill="none" stroke="#000000" points="188,-179.7 188,-201.7 361,-201.7 361,-179.7 188,-179.7"/>
<image xlink:href="../../images/foreignKeys.png" width="11px" height="12px" preserveAspectRatio="xMinYMin meet" x="193" y="-196.7"/>
<text text-anchor="start" x="208" y="-186.8" font-family="Helvetica,sans-Serif" font-size="11.00" fill="#000000">user_id_</text>
<polygon fill="none" stroke="#000000" points="361,-179.7 361,-201.7 422,-201.7 422,-179.7 361,-179.7"/>
<text text-anchor="start" x="363.994" y="-187.4" font-family="Helvetica,sans-Serif" font-size="11.00" fill="#000000">varchar[64]</text>
<polygon fill="#ffffff" stroke="transparent" points="188,-157.7 188,-179.7 361,-179.7 361,-157.7 188,-157.7"/>
<polygon fill="none" stroke="#000000" points="188,-157.7 188,-179.7 361,-179.7 361,-157.7 188,-157.7"/>
<image xlink:href="../../images/foreignKeys.png" width="11px" height="12px" preserveAspectRatio="xMinYMin meet" x="193" y="-174.7"/>
<text text-anchor="start" x="208" y="-164.8" font-family="Helvetica,sans-Serif" font-size="11.00" fill="#000000">group_id_</text>
<polygon fill="none" stroke="#000000" points="361,-157.7 361,-179.7 422,-179.7 422,-157.7 361,-157.7"/>
<text text-anchor="start" x="363.994" y="-165.4" font-family="Helvetica,sans-Serif" font-size="11.00" fill="#000000">varchar[64]</text>
<polygon fill="#ffffff" stroke="transparent" points="188,-138.7 188,-157.7 279,-157.7 279,-138.7 188,-138.7"/>
<polygon fill="none" stroke="#000000" points="188,-138.7 188,-157.7 279,-157.7 279,-138.7 188,-138.7"/>
<text text-anchor="start" x="191" y="-144.8" font-family="Helvetica,sans-Serif" font-size="11.00" fill="#000000">&lt; 3</text>
<polygon fill="#ffffff" stroke="transparent" points="279,-138.7 279,-157.7 361,-157.7 361,-138.7 279,-138.7"/>
<polygon fill="none" stroke="#000000" points="279,-138.7 279,-157.7 361,-157.7 361,-138.7 279,-138.7"/>
<text text-anchor="start" x="351.8862" y="-144.8" font-family="Helvetica,sans-Serif" font-size="11.00" fill="#000000"> &#160;</text>
<polygon fill="#ffffff" stroke="transparent" points="361,-138.7 361,-157.7 422,-157.7 422,-138.7 361,-138.7"/>
<polygon fill="none" stroke="#000000" points="361,-138.7 361,-157.7 422,-157.7 422,-138.7 361,-138.7"/>
<text text-anchor="start" x="403.4053" y="-144.8" font-family="Helvetica,sans-Serif" font-size="11.00" fill="#000000">0 &gt;</text>
<polygon fill="none" stroke="#000000" stroke-width="2" points="187,-137.7 187,-269.7 423,-269.7 423,-137.7 187,-137.7"/>
</a>
</g>
</g>
<!-- act_id_group -->
<g id="node2" class="node">
<title>act_id_group</title>
<g id="a_node2"><a xlink:href="../../tables/act_id_group.html" xlink:title="act_id_group" target="_top">
<polygon fill="#ffffff" stroke="transparent" points="10.5,-38.2 10.5,-121.2 134.5,-121.2 134.5,-38.2 10.5,-38.2"/>
<polygon fill="#f5f5f5" stroke="transparent" points="10.5,-97.7 10.5,-120.7 134.5,-120.7 134.5,-97.7 10.5,-97.7"/>
<polygon fill="none" stroke="#000000" points="10.5,-97.7 10.5,-120.7 134.5,-120.7 134.5,-97.7 10.5,-97.7"/>
<text text-anchor="start" x="15.5" y="-106.3" font-family="Helvetica,sans-Serif" font-weight="bold" font-size="11.00" fill="#000000">act_id_group</text>
<text text-anchor="start" x="100.0219" y="-105.8" font-family="Helvetica,sans-Serif" font-size="11.00" fill="#000000">[table]</text>
<polygon fill="none" stroke="#000000" points="10.5,-75.7 10.5,-97.7 134.5,-97.7 134.5,-75.7 10.5,-75.7"/>
<image xlink:href="../../images/primaryKeys.png" width="11px" height="12px" preserveAspectRatio="xMinYMin meet" x="15.5" y="-92.7"/>
<text text-anchor="start" x="39.5" y="-82.8" font-family="Helvetica,sans-Serif" font-size="11.00" fill="#000000">id_</text>
<polygon fill="none" stroke="#000000" points="10.5,-56.7 10.5,-75.7 134.5,-75.7 134.5,-56.7 10.5,-56.7"/>
<text text-anchor="start" x="13.5" y="-62.8" font-family="Helvetica,sans-Serif" font-size="11.00" fill="#000000">...</text>
<polygon fill="#ffffff" stroke="transparent" points="10.5,-37.7 10.5,-56.7 61.5,-56.7 61.5,-37.7 10.5,-37.7"/>
<polygon fill="none" stroke="#000000" points="10.5,-37.7 10.5,-56.7 61.5,-56.7 61.5,-37.7 10.5,-37.7"/>
<text text-anchor="start" x="13.5" y="-43.8" font-family="Helvetica,sans-Serif" font-size="11.00" fill="#000000"> &#160;</text>
<polygon fill="#ffffff" stroke="transparent" points="61.5,-37.7 61.5,-56.7 93.5,-56.7 93.5,-37.7 61.5,-37.7"/>
<polygon fill="none" stroke="#000000" points="61.5,-37.7 61.5,-56.7 93.5,-56.7 93.5,-37.7 61.5,-37.7"/>
<text text-anchor="start" x="84.3862" y="-43.8" font-family="Helvetica,sans-Serif" font-size="11.00" fill="#000000"> &#160;</text>
<polygon fill="#ffffff" stroke="transparent" points="93.5,-37.7 93.5,-56.7 134.5,-56.7 134.5,-37.7 93.5,-37.7"/>
<polygon fill="none" stroke="#000000" points="93.5,-37.7 93.5,-56.7 134.5,-56.7 134.5,-37.7 93.5,-37.7"/>
<text text-anchor="start" x="115.9053" y="-43.8" font-family="Helvetica,sans-Serif" font-size="11.00" fill="#000000">2 &gt;</text>
</a>
</g>
</g>
<!-- act_id_tenant_member&#45;&gt;act_id_group -->
<g id="edge1" class="edge">
<title>act_id_tenant_member:w&#45;&gt;act_id_group:e</title>
<path fill="none" stroke="#000000" d="M174.0786,-164.5209C152.2131,-147.8109 172.0659,-86.7 134.5,-86.7"/>
<polygon fill="#000000" stroke="#000000" points="180.3378,-166.3998 186.9649,-172.148 184.1689,-167.5499 188,-168.7 188,-168.7 188,-168.7 184.1689,-167.5499 189.0351,-165.252 180.3378,-166.3998 180.3378,-166.3998"/>
<ellipse fill="none" stroke="#000000" cx="177.2729" cy="-165.4797" rx="3.2" ry="3.2"/>
</g>
<!-- act_id_tenant -->
<g id="node3" class="node">
<title>act_id_tenant</title>
<g id="a_node3"><a xlink:href="../../tables/act_id_tenant.html" xlink:title="act_id_tenant" target="_top">
<polygon fill="#ffffff" stroke="transparent" points="8,-246.2 8,-329.2 137,-329.2 137,-246.2 8,-246.2"/>
<polygon fill="#f5f5f5" stroke="transparent" points="8.5,-305.7 8.5,-328.7 137.5,-328.7 137.5,-305.7 8.5,-305.7"/>
<polygon fill="none" stroke="#000000" points="8.5,-305.7 8.5,-328.7 137.5,-328.7 137.5,-305.7 8.5,-305.7"/>
<text text-anchor="start" x="13.5" y="-314.3" font-family="Helvetica,sans-Serif" font-weight="bold" font-size="11.00" fill="#000000">act_id_tenant</text>
<text text-anchor="start" x="103.0219" y="-313.8" font-family="Helvetica,sans-Serif" font-size="11.00" fill="#000000">[table]</text>
<polygon fill="none" stroke="#000000" points="8.5,-283.7 8.5,-305.7 137.5,-305.7 137.5,-283.7 8.5,-283.7"/>
<image xlink:href="../../images/primaryKeys.png" width="11px" height="12px" preserveAspectRatio="xMinYMin meet" x="13.5" y="-300.7"/>
<text text-anchor="start" x="37.5" y="-290.8" font-family="Helvetica,sans-Serif" font-size="11.00" fill="#000000">id_</text>
<polygon fill="none" stroke="#000000" points="8.5,-264.7 8.5,-283.7 137.5,-283.7 137.5,-264.7 8.5,-264.7"/>
<text text-anchor="start" x="11.5" y="-270.8" font-family="Helvetica,sans-Serif" font-size="11.00" fill="#000000">...</text>
<polygon fill="#ffffff" stroke="transparent" points="8.5,-245.7 8.5,-264.7 62.5,-264.7 62.5,-245.7 8.5,-245.7"/>
<polygon fill="none" stroke="#000000" points="8.5,-245.7 8.5,-264.7 62.5,-264.7 62.5,-245.7 8.5,-245.7"/>
<text text-anchor="start" x="11.5" y="-251.8" font-family="Helvetica,sans-Serif" font-size="11.00" fill="#000000"> &#160;</text>
<polygon fill="#ffffff" stroke="transparent" points="62.5,-245.7 62.5,-264.7 95.5,-264.7 95.5,-245.7 62.5,-245.7"/>
<polygon fill="none" stroke="#000000" points="62.5,-245.7 62.5,-264.7 95.5,-264.7 95.5,-245.7 62.5,-245.7"/>
<text text-anchor="start" x="86.3862" y="-251.8" font-family="Helvetica,sans-Serif" font-size="11.00" fill="#000000"> &#160;</text>
<polygon fill="#ffffff" stroke="transparent" points="95.5,-245.7 95.5,-264.7 137.5,-264.7 137.5,-245.7 95.5,-245.7"/>
<polygon fill="none" stroke="#000000" points="95.5,-245.7 95.5,-264.7 137.5,-264.7 137.5,-245.7 95.5,-245.7"/>
<text text-anchor="start" x="118.9053" y="-251.8" font-family="Helvetica,sans-Serif" font-size="11.00" fill="#000000">1 &gt;</text>
</a>
</g>
</g>
<!-- act_id_tenant_member&#45;&gt;act_id_tenant -->
<g id="edge2" class="edge">
<title>act_id_tenant_member:w&#45;&gt;act_id_tenant:e</title>
<path fill="none" stroke="#000000" d="M174.1317,-217.1087C153.5307,-234.1409 174.2824,-294.7 137.5,-294.7"/>
<polygon fill="#000000" stroke="#000000" points="180.376,-215.1237 189.0907,-216.1308 184.188,-213.9118 188,-212.7 188,-212.7 188,-212.7 184.188,-213.9118 186.9093,-209.2692 180.376,-215.1237 180.376,-215.1237"/>
<ellipse fill="none" stroke="#000000" cx="177.3263" cy="-216.0932" rx="3.2" ry="3.2"/>
</g>
<!-- act_id_user -->
<g id="node4" class="node">
<title>act_id_user</title>
<g id="a_node4"><a xlink:href="../../tables/act_id_user.html" xlink:title="act_id_user" target="_top">
<polygon fill="#ffffff" stroke="transparent" points="12,-142.2 12,-225.2 133,-225.2 133,-142.2 12,-142.2"/>
<polygon fill="#f5f5f5" stroke="transparent" points="12.5,-201.7 12.5,-224.7 133.5,-224.7 133.5,-201.7 12.5,-201.7"/>
<polygon fill="none" stroke="#000000" points="12.5,-201.7 12.5,-224.7 133.5,-224.7 133.5,-201.7 12.5,-201.7"/>
<text text-anchor="start" x="17.5" y="-210.3" font-family="Helvetica,sans-Serif" font-weight="bold" font-size="11.00" fill="#000000">act_id_user</text>
<text text-anchor="start" x="98.5437" y="-209.8" font-family="Helvetica,sans-Serif" font-size="11.00" fill="#000000">[table]</text>
<polygon fill="none" stroke="#000000" points="12.5,-179.7 12.5,-201.7 133.5,-201.7 133.5,-179.7 12.5,-179.7"/>
<image xlink:href="../../images/primaryKeys.png" width="11px" height="12px" preserveAspectRatio="xMinYMin meet" x="17.5" y="-196.7"/>
<text text-anchor="start" x="32.5" y="-186.8" font-family="Helvetica,sans-Serif" font-size="11.00" fill="#000000">id_</text>
<polygon fill="none" stroke="#000000" points="12.5,-160.7 12.5,-179.7 133.5,-179.7 133.5,-160.7 12.5,-160.7"/>
<text text-anchor="start" x="15.5" y="-166.8" font-family="Helvetica,sans-Serif" font-size="11.00" fill="#000000">...</text>
<polygon fill="#ffffff" stroke="transparent" points="12.5,-141.7 12.5,-160.7 62.5,-160.7 62.5,-141.7 12.5,-141.7"/>
<polygon fill="none" stroke="#000000" points="12.5,-141.7 12.5,-160.7 62.5,-160.7 62.5,-141.7 12.5,-141.7"/>
<text text-anchor="start" x="15.5" y="-147.8" font-family="Helvetica,sans-Serif" font-size="11.00" fill="#000000"> &#160;</text>
<polygon fill="#ffffff" stroke="transparent" points="62.5,-141.7 62.5,-160.7 93.5,-160.7 93.5,-141.7 62.5,-141.7"/>
<polygon fill="none" stroke="#000000" points="62.5,-141.7 62.5,-160.7 93.5,-160.7 93.5,-141.7 62.5,-141.7"/>
<text text-anchor="start" x="84.3862" y="-147.8" font-family="Helvetica,sans-Serif" font-size="11.00" fill="#000000"> &#160;</text>
<polygon fill="#ffffff" stroke="transparent" points="93.5,-141.7 93.5,-160.7 133.5,-160.7 133.5,-141.7 93.5,-141.7"/>
<polygon fill="none" stroke="#000000" points="93.5,-141.7 93.5,-160.7 133.5,-160.7 133.5,-141.7 93.5,-141.7"/>
<text text-anchor="start" x="114.9053" y="-147.8" font-family="Helvetica,sans-Serif" font-size="11.00" fill="#000000">2 &gt;</text>
</a>
</g>
</g>
<!-- act_id_tenant_member&#45;&gt;act_id_user -->
<g id="edge3" class="edge">
<title>act_id_tenant_member:w&#45;&gt;act_id_user:e</title>
<path fill="none" stroke="#000000" d="M173.4947,-190.7C159.9413,-190.7 152.0451,-190.7 133.5,-190.7"/>
<polygon fill="#000000" stroke="#000000" points="180,-190.7001 188,-194.3 184,-190.7 188,-190.7 188,-190.7 188,-190.7 184,-190.7 188,-187.1 180,-190.7001 180,-190.7001"/>
<ellipse fill="none" stroke="#000000" cx="176.8" cy="-190.7001" rx="3.2" ry="3.2"/>
</g>
</g>
</svg>
