<?xml version="1.0" encoding="UTF-8" standalone="no"?>
<!DOCTYPE svg PUBLIC "-//W3C//DTD SVG 1.1//EN"
 "http://www.w3.org/Graphics/SVG/1.1/DTD/svg11.dtd">
<!-- Generated by graphviz version 2.40.1 (20161225.0304)
 -->
<!-- Title: twoDegreesRelationshipsDiagram Pages: 1 -->
<svg width="691pt" height="899pt"
 viewBox="0.00 0.00 691.00 899.20" xmlns="http://www.w3.org/2000/svg" xmlns:xlink="http://www.w3.org/1999/xlink">
<g id="graph0" class="graph" transform="scale(1 1) rotate(0) translate(4 895.2)">
<title>twoDegreesRelationshipsDiagram</title>
<polygon fill="#ffffff" stroke="transparent" points="-4,4 -4,-895.2 687,-895.2 687,4 -4,4"/>
<text text-anchor="middle" x="72.4936" y="-7.3" font-family="Helvetica,sans-Serif" font-size="11.00" fill="#000000">Generated by SchemaSpy</text>
<!-- act_ge_bytearray -->
<g id="node1" class="node">
<title>act_ge_bytearray</title>
<g id="a_node1"><a xlink:href="../../tables/act_ge_bytearray.html" xlink:title="act_ge_bytearray" target="_top">
<polygon fill="#ffffff" stroke="transparent" points="223,-368.2 223,-539.2 377,-539.2 377,-368.2 223,-368.2"/>
<polygon fill="#f5f5f5" stroke="transparent" points="223,-515.7 223,-538.7 377,-538.7 377,-515.7 223,-515.7"/>
<polygon fill="none" stroke="#000000" points="223,-515.7 223,-538.7 377,-538.7 377,-515.7 223,-515.7"/>
<text text-anchor="start" x="228" y="-524.3" font-family="Helvetica,sans-Serif" font-weight="bold" font-size="11.00" fill="#000000">act_ge_bytearray</text>
<text text-anchor="start" x="342.5219" y="-523.8" font-family="Helvetica,sans-Serif" font-size="11.00" fill="#000000">[table]</text>
<polygon fill="none" stroke="#000000" points="223,-493.7 223,-515.7 377,-515.7 377,-493.7 223,-493.7"/>
<image xlink:href="../../images/primaryKeys.png" width="11px" height="12px" preserveAspectRatio="xMinYMin meet" x="228" y="-510.7"/>
<text text-anchor="start" x="250" y="-500.8" font-family="Helvetica,sans-Serif" font-size="11.00" fill="#000000">id_</text>
<polygon fill="#ffffff" stroke="transparent" points="223,-471.7 223,-493.7 377,-493.7 377,-471.7 223,-471.7"/>
<polygon fill="none" stroke="#000000" points="223,-471.7 223,-493.7 377,-493.7 377,-471.7 223,-471.7"/>
<text text-anchor="start" x="250" y="-478.8" font-family="Helvetica,sans-Serif" font-size="11.00" fill="#000000">name_</text>
<polygon fill="#ffffff" stroke="transparent" points="223,-449.7 223,-471.7 377,-471.7 377,-449.7 223,-449.7"/>
<polygon fill="none" stroke="#000000" points="223,-449.7 223,-471.7 377,-471.7 377,-449.7 223,-449.7"/>
<image xlink:href="../../images/foreignKeys.png" width="11px" height="12px" preserveAspectRatio="xMinYMin meet" x="228" y="-466.7"/>
<text text-anchor="start" x="250" y="-456.8" font-family="Helvetica,sans-Serif" font-size="11.00" fill="#000000">deployment_id_</text>
<polygon fill="#ffffff" stroke="transparent" points="223,-427.7 223,-449.7 377,-449.7 377,-427.7 223,-427.7"/>
<polygon fill="none" stroke="#000000" points="223,-427.7 223,-449.7 377,-449.7 377,-427.7 223,-427.7"/>
<text text-anchor="start" x="250" y="-434.8" font-family="Helvetica,sans-Serif" font-size="11.00" fill="#000000">root_proc_inst_id_</text>
<polygon fill="#ffffff" stroke="transparent" points="223,-405.7 223,-427.7 377,-427.7 377,-405.7 223,-405.7"/>
<polygon fill="none" stroke="#000000" points="223,-405.7 223,-427.7 377,-427.7 377,-405.7 223,-405.7"/>
<text text-anchor="start" x="250" y="-412.8" font-family="Helvetica,sans-Serif" font-size="11.00" fill="#000000">removal_time_</text>
<polygon fill="none" stroke="#000000" points="223,-386.7 223,-405.7 377,-405.7 377,-386.7 223,-386.7"/>
<text text-anchor="start" x="226" y="-392.8" font-family="Helvetica,sans-Serif" font-size="11.00" fill="#000000">...</text>
<polygon fill="#ffffff" stroke="transparent" points="223,-367.7 223,-386.7 294,-386.7 294,-367.7 223,-367.7"/>
<polygon fill="none" stroke="#000000" points="223,-367.7 223,-386.7 294,-386.7 294,-367.7 223,-367.7"/>
<text text-anchor="start" x="226" y="-373.8" font-family="Helvetica,sans-Serif" font-size="11.00" fill="#000000">&lt; 1</text>
<polygon fill="#ffffff" stroke="transparent" points="294,-367.7 294,-386.7 331,-386.7 331,-367.7 294,-367.7"/>
<polygon fill="none" stroke="#000000" points="294,-367.7 294,-386.7 331,-386.7 331,-367.7 294,-367.7"/>
<text text-anchor="start" x="321.8862" y="-373.8" font-family="Helvetica,sans-Serif" font-size="11.00" fill="#000000"> &#160;</text>
<polygon fill="#ffffff" stroke="transparent" points="331,-367.7 331,-386.7 377,-386.7 377,-367.7 331,-367.7"/>
<polygon fill="none" stroke="#000000" points="331,-367.7 331,-386.7 377,-386.7 377,-367.7 331,-367.7"/>
<text text-anchor="start" x="358.4053" y="-373.8" font-family="Helvetica,sans-Serif" font-size="11.00" fill="#000000">3 &gt;</text>
</a>
</g>
</g>
<!-- act_re_deployment -->
<g id="node2" class="node">
<title>act_re_deployment</title>
<g id="a_node2"><a xlink:href="../../tables/act_re_deployment.html" xlink:title="act_re_deployment" target="_top">
<polygon fill="#ffffff" stroke="transparent" points="8,-433.2 8,-494.2 174,-494.2 174,-433.2 8,-433.2"/>
<polygon fill="#f5f5f5" stroke="transparent" points="8,-470.7 8,-493.7 174,-493.7 174,-470.7 8,-470.7"/>
<polygon fill="none" stroke="#000000" points="8,-470.7 8,-493.7 174,-493.7 174,-470.7 8,-470.7"/>
<text text-anchor="start" x="13" y="-479.3" font-family="Helvetica,sans-Serif" font-weight="bold" font-size="11.00" fill="#000000">act_re_deployment</text>
<text text-anchor="start" x="139.5219" y="-478.8" font-family="Helvetica,sans-Serif" font-size="11.00" fill="#000000">[table]</text>
<polygon fill="none" stroke="#000000" points="8,-451.7 8,-470.7 174,-470.7 174,-451.7 8,-451.7"/>
<text text-anchor="start" x="11" y="-457.8" font-family="Helvetica,sans-Serif" font-size="11.00" fill="#000000">...</text>
<polygon fill="#ffffff" stroke="transparent" points="8,-432.7 8,-451.7 80,-451.7 80,-432.7 8,-432.7"/>
<polygon fill="none" stroke="#000000" points="8,-432.7 8,-451.7 80,-451.7 80,-432.7 8,-432.7"/>
<text text-anchor="start" x="11" y="-438.8" font-family="Helvetica,sans-Serif" font-size="11.00" fill="#000000"> &#160;</text>
<polygon fill="#ffffff" stroke="transparent" points="80,-432.7 80,-451.7 122,-451.7 122,-432.7 80,-432.7"/>
<polygon fill="none" stroke="#000000" points="80,-432.7 80,-451.7 122,-451.7 122,-432.7 80,-432.7"/>
<text text-anchor="start" x="112.8862" y="-438.8" font-family="Helvetica,sans-Serif" font-size="11.00" fill="#000000"> &#160;</text>
<polygon fill="#ffffff" stroke="transparent" points="122,-432.7 122,-451.7 174,-451.7 174,-432.7 122,-432.7"/>
<polygon fill="none" stroke="#000000" points="122,-432.7 122,-451.7 174,-451.7 174,-432.7 122,-432.7"/>
<text text-anchor="start" x="155.4053" y="-438.8" font-family="Helvetica,sans-Serif" font-size="11.00" fill="#000000">1 &gt;</text>
</a>
</g>
</g>
<!-- act_ge_bytearray&#45;&gt;act_re_deployment -->
<g id="edge1" class="edge">
<title>act_ge_bytearray:w&#45;&gt;act_re_deployment:e</title>
<path fill="none" stroke="#000000" d="M208.4909,-460.7C197.1774,-460.7 189.9931,-460.7 174,-460.7"/>
<polygon fill="#000000" stroke="#000000" points="215,-460.7001 223,-464.3 219,-460.7 223,-460.7 223,-460.7 223,-460.7 219,-460.7 223,-457.1 215,-460.7001 215,-460.7001"/>
<ellipse fill="none" stroke="#000000" cx="211.8" cy="-460.7001" rx="3.2" ry="3.2"/>
</g>
<!-- act_ru_ext_task -->
<g id="node3" class="node">
<title>act_ru_ext_task</title>
<g id="a_node3"><a xlink:href="../../tables/act_ru_ext_task.html" xlink:title="act_ru_ext_task" target="_top">
<polygon fill="#ffffff" stroke="transparent" points="479.5,-826.2 479.5,-887.2 621.5,-887.2 621.5,-826.2 479.5,-826.2"/>
<polygon fill="#f5f5f5" stroke="transparent" points="479.5,-863.7 479.5,-886.7 621.5,-886.7 621.5,-863.7 479.5,-863.7"/>
<polygon fill="none" stroke="#000000" points="479.5,-863.7 479.5,-886.7 621.5,-886.7 621.5,-863.7 479.5,-863.7"/>
<text text-anchor="start" x="484.5" y="-872.3" font-family="Helvetica,sans-Serif" font-weight="bold" font-size="11.00" fill="#000000">act_ru_ext_task</text>
<text text-anchor="start" x="587.0219" y="-871.8" font-family="Helvetica,sans-Serif" font-size="11.00" fill="#000000">[table]</text>
<polygon fill="none" stroke="#000000" points="479.5,-844.7 479.5,-863.7 621.5,-863.7 621.5,-844.7 479.5,-844.7"/>
<text text-anchor="start" x="482.5" y="-850.8" font-family="Helvetica,sans-Serif" font-size="11.00" fill="#000000">...</text>
<polygon fill="#ffffff" stroke="transparent" points="479.5,-825.7 479.5,-844.7 548.5,-844.7 548.5,-825.7 479.5,-825.7"/>
<polygon fill="none" stroke="#000000" points="479.5,-825.7 479.5,-844.7 548.5,-844.7 548.5,-825.7 479.5,-825.7"/>
<text text-anchor="start" x="482.5" y="-831.8" font-family="Helvetica,sans-Serif" font-size="11.00" fill="#000000">&lt; 2</text>
<polygon fill="#ffffff" stroke="transparent" points="548.5,-825.7 548.5,-844.7 584.5,-844.7 584.5,-825.7 548.5,-825.7"/>
<polygon fill="none" stroke="#000000" points="548.5,-825.7 548.5,-844.7 584.5,-844.7 584.5,-825.7 548.5,-825.7"/>
<text text-anchor="start" x="575.3862" y="-831.8" font-family="Helvetica,sans-Serif" font-size="11.00" fill="#000000"> &#160;</text>
<polygon fill="#ffffff" stroke="transparent" points="584.5,-825.7 584.5,-844.7 621.5,-844.7 621.5,-825.7 584.5,-825.7"/>
<polygon fill="none" stroke="#000000" points="584.5,-825.7 584.5,-844.7 621.5,-844.7 621.5,-825.7 584.5,-825.7"/>
<text text-anchor="start" x="612.3862" y="-831.8" font-family="Helvetica,sans-Serif" font-size="11.00" fill="#000000"> &#160;</text>
</a>
</g>
</g>
<!-- act_ru_ext_task&#45;&gt;act_ge_bytearray -->
<g id="edge2" class="edge">
<title>act_ru_ext_task:w&#45;&gt;act_ge_bytearray:e</title>
<path fill="none" stroke="#000000" d="M464.8982,-852.7437C443.2101,-849.5469 432.5206,-838.1459 418,-815.7 380.1364,-757.1705 446.7091,-504.7 377,-504.7"/>
<polygon fill="#000000" stroke="#000000" points="471.5171,-853.1771 479.2647,-857.2923 475.5086,-853.4386 479.5,-853.7 479.5,-853.7 479.5,-853.7 475.5086,-853.4386 479.7353,-850.1077 471.5171,-853.1771 471.5171,-853.1771"/>
<ellipse fill="none" stroke="#000000" cx="468.3239" cy="-852.968" rx="3.2" ry="3.2"/>
</g>
<!-- act_ru_job -->
<g id="node4" class="node">
<title>act_ru_job</title>
<g id="a_node4"><a xlink:href="../../tables/act_ru_job.html" xlink:title="act_ru_job" target="_top">
<polygon fill="#ffffff" stroke="transparent" points="426,-120.7 426,-804.7 675,-804.7 675,-120.7 426,-120.7"/>
<polygon fill="#f5f5f5" stroke="transparent" points="428.5,-779.7 428.5,-802.7 673.5,-802.7 673.5,-779.7 428.5,-779.7"/>
<polygon fill="none" stroke="#000000" points="428.5,-779.7 428.5,-802.7 673.5,-802.7 673.5,-779.7 428.5,-779.7"/>
<text text-anchor="start" x="433.5" y="-788.3" font-family="Helvetica,sans-Serif" font-weight="bold" font-size="11.00" fill="#000000">act_ru_job</text>
<text text-anchor="start" x="638.5437" y="-787.8" font-family="Helvetica,sans-Serif" font-size="11.00" fill="#000000">[table]</text>
<polygon fill="none" stroke="#000000" points="428.5,-757.7 428.5,-779.7 589.5,-779.7 589.5,-757.7 428.5,-757.7"/>
<image xlink:href="../../images/primaryKeys.png" width="11px" height="12px" preserveAspectRatio="xMinYMin meet" x="433.5" y="-774.7"/>
<text text-anchor="start" x="448.5" y="-764.8" font-family="Helvetica,sans-Serif" font-size="11.00" fill="#000000">id_</text>
<polygon fill="none" stroke="#000000" points="589.5,-757.7 589.5,-779.7 673.5,-779.7 673.5,-757.7 589.5,-757.7"/>
<text text-anchor="start" x="592.5" y="-765.4" font-family="Helvetica,sans-Serif" font-size="11.00" fill="#000000">varchar[64]</text>
<polygon fill="none" stroke="#000000" points="428.5,-735.7 428.5,-757.7 589.5,-757.7 589.5,-735.7 428.5,-735.7"/>
<text text-anchor="start" x="448.5" y="-742.8" font-family="Helvetica,sans-Serif" font-size="11.00" fill="#000000">rev_</text>
<polygon fill="none" stroke="#000000" points="589.5,-735.7 589.5,-757.7 673.5,-757.7 673.5,-735.7 589.5,-735.7"/>
<text text-anchor="start" x="592.5" y="-743.4" font-family="Helvetica,sans-Serif" font-size="11.00" fill="#000000">int4[10]</text>
<polygon fill="none" stroke="#000000" points="428.5,-713.7 428.5,-735.7 589.5,-735.7 589.5,-713.7 428.5,-713.7"/>
<text text-anchor="start" x="448.5" y="-720.8" font-family="Helvetica,sans-Serif" font-size="11.00" fill="#000000">type_</text>
<polygon fill="none" stroke="#000000" points="589.5,-713.7 589.5,-735.7 673.5,-735.7 673.5,-713.7 589.5,-713.7"/>
<text text-anchor="start" x="592.5" y="-721.4" font-family="Helvetica,sans-Serif" font-size="11.00" fill="#000000">varchar[255]</text>
<polygon fill="none" stroke="#000000" points="428.5,-691.7 428.5,-713.7 589.5,-713.7 589.5,-691.7 428.5,-691.7"/>
<text text-anchor="start" x="448.5" y="-698.8" font-family="Helvetica,sans-Serif" font-size="11.00" fill="#000000">lock_exp_time_</text>
<polygon fill="none" stroke="#000000" points="589.5,-691.7 589.5,-713.7 673.5,-713.7 673.5,-691.7 589.5,-691.7"/>
<text text-anchor="start" x="592.3807" y="-699.4" font-family="Helvetica,sans-Serif" font-size="11.00" fill="#000000">timestamp[29,6]</text>
<polygon fill="none" stroke="#000000" points="428.5,-669.7 428.5,-691.7 589.5,-691.7 589.5,-669.7 428.5,-669.7"/>
<text text-anchor="start" x="448.5" y="-676.8" font-family="Helvetica,sans-Serif" font-size="11.00" fill="#000000">lock_owner_</text>
<polygon fill="none" stroke="#000000" points="589.5,-669.7 589.5,-691.7 673.5,-691.7 673.5,-669.7 589.5,-669.7"/>
<text text-anchor="start" x="592.5" y="-677.4" font-family="Helvetica,sans-Serif" font-size="11.00" fill="#000000">varchar[255]</text>
<polygon fill="none" stroke="#000000" points="428.5,-647.7 428.5,-669.7 589.5,-669.7 589.5,-647.7 428.5,-647.7"/>
<text text-anchor="start" x="448.5" y="-654.8" font-family="Helvetica,sans-Serif" font-size="11.00" fill="#000000">exclusive_</text>
<polygon fill="none" stroke="#000000" points="589.5,-647.7 589.5,-669.7 673.5,-669.7 673.5,-647.7 589.5,-647.7"/>
<text text-anchor="start" x="592.5" y="-655.4" font-family="Helvetica,sans-Serif" font-size="11.00" fill="#000000">bool[1]</text>
<polygon fill="#ffffff" stroke="transparent" points="428.5,-625.7 428.5,-647.7 589.5,-647.7 589.5,-625.7 428.5,-625.7"/>
<polygon fill="none" stroke="#000000" points="428.5,-625.7 428.5,-647.7 589.5,-647.7 589.5,-625.7 428.5,-625.7"/>
<text text-anchor="start" x="448.5" y="-632.8" font-family="Helvetica,sans-Serif" font-size="11.00" fill="#000000">execution_id_</text>
<polygon fill="none" stroke="#000000" points="589.5,-625.7 589.5,-647.7 673.5,-647.7 673.5,-625.7 589.5,-625.7"/>
<text text-anchor="start" x="592.5" y="-633.4" font-family="Helvetica,sans-Serif" font-size="11.00" fill="#000000">varchar[64]</text>
<polygon fill="#ffffff" stroke="transparent" points="428.5,-603.7 428.5,-625.7 589.5,-625.7 589.5,-603.7 428.5,-603.7"/>
<polygon fill="none" stroke="#000000" points="428.5,-603.7 428.5,-625.7 589.5,-625.7 589.5,-603.7 428.5,-603.7"/>
<text text-anchor="start" x="448.5" y="-610.8" font-family="Helvetica,sans-Serif" font-size="11.00" fill="#000000">root_proc_inst_id_</text>
<polygon fill="none" stroke="#000000" points="589.5,-603.7 589.5,-625.7 673.5,-625.7 673.5,-603.7 589.5,-603.7"/>
<text text-anchor="start" x="592.5" y="-611.4" font-family="Helvetica,sans-Serif" font-size="11.00" fill="#000000">varchar[64]</text>
<polygon fill="#ffffff" stroke="transparent" points="428.5,-581.7 428.5,-603.7 589.5,-603.7 589.5,-581.7 428.5,-581.7"/>
<polygon fill="none" stroke="#000000" points="428.5,-581.7 428.5,-603.7 589.5,-603.7 589.5,-581.7 428.5,-581.7"/>
<text text-anchor="start" x="448.5" y="-588.8" font-family="Helvetica,sans-Serif" font-size="11.00" fill="#000000">process_instance_id_</text>
<polygon fill="none" stroke="#000000" points="589.5,-581.7 589.5,-603.7 673.5,-603.7 673.5,-581.7 589.5,-581.7"/>
<text text-anchor="start" x="592.5" y="-589.4" font-family="Helvetica,sans-Serif" font-size="11.00" fill="#000000">varchar[64]</text>
<polygon fill="none" stroke="#000000" points="428.5,-559.7 428.5,-581.7 589.5,-581.7 589.5,-559.7 428.5,-559.7"/>
<text text-anchor="start" x="448.5" y="-566.8" font-family="Helvetica,sans-Serif" font-size="11.00" fill="#000000">process_def_id_</text>
<polygon fill="none" stroke="#000000" points="589.5,-559.7 589.5,-581.7 673.5,-581.7 673.5,-559.7 589.5,-559.7"/>
<text text-anchor="start" x="592.5" y="-567.4" font-family="Helvetica,sans-Serif" font-size="11.00" fill="#000000">varchar[64]</text>
<polygon fill="none" stroke="#000000" points="428.5,-537.7 428.5,-559.7 589.5,-559.7 589.5,-537.7 428.5,-537.7"/>
<text text-anchor="start" x="448.5" y="-544.8" font-family="Helvetica,sans-Serif" font-size="11.00" fill="#000000">process_def_key_</text>
<polygon fill="none" stroke="#000000" points="589.5,-537.7 589.5,-559.7 673.5,-559.7 673.5,-537.7 589.5,-537.7"/>
<text text-anchor="start" x="592.5" y="-545.4" font-family="Helvetica,sans-Serif" font-size="11.00" fill="#000000">varchar[255]</text>
<polygon fill="none" stroke="#000000" points="428.5,-515.7 428.5,-537.7 589.5,-537.7 589.5,-515.7 428.5,-515.7"/>
<text text-anchor="start" x="448.5" y="-522.8" font-family="Helvetica,sans-Serif" font-size="11.00" fill="#000000">retries_</text>
<polygon fill="none" stroke="#000000" points="589.5,-515.7 589.5,-537.7 673.5,-537.7 673.5,-515.7 589.5,-515.7"/>
<text text-anchor="start" x="592.5" y="-523.4" font-family="Helvetica,sans-Serif" font-size="11.00" fill="#000000">int4[10]</text>
<polygon fill="#ffffff" stroke="transparent" points="428.5,-493.7 428.5,-515.7 589.5,-515.7 589.5,-493.7 428.5,-493.7"/>
<polygon fill="none" stroke="#000000" points="428.5,-493.7 428.5,-515.7 589.5,-515.7 589.5,-493.7 428.5,-493.7"/>
<image xlink:href="../../images/foreignKeys.png" width="11px" height="12px" preserveAspectRatio="xMinYMin meet" x="433.5" y="-510.7"/>
<text text-anchor="start" x="448.5" y="-500.8" font-family="Helvetica,sans-Serif" font-size="11.00" fill="#000000">exception_stack_id_</text>
<polygon fill="none" stroke="#000000" points="589.5,-493.7 589.5,-515.7 673.5,-515.7 673.5,-493.7 589.5,-493.7"/>
<text text-anchor="start" x="592.5" y="-501.4" font-family="Helvetica,sans-Serif" font-size="11.00" fill="#000000">varchar[64]</text>
<polygon fill="none" stroke="#000000" points="428.5,-471.7 428.5,-493.7 589.5,-493.7 589.5,-471.7 428.5,-471.7"/>
<text text-anchor="start" x="448.5" y="-478.8" font-family="Helvetica,sans-Serif" font-size="11.00" fill="#000000">exception_msg_</text>
<polygon fill="none" stroke="#000000" points="589.5,-471.7 589.5,-493.7 673.5,-493.7 673.5,-471.7 589.5,-471.7"/>
<text text-anchor="start" x="592.5" y="-479.4" font-family="Helvetica,sans-Serif" font-size="11.00" fill="#000000">varchar[4000]</text>
<polygon fill="none" stroke="#000000" points="428.5,-449.7 428.5,-471.7 589.5,-471.7 589.5,-449.7 428.5,-449.7"/>
<text text-anchor="start" x="448.5" y="-456.8" font-family="Helvetica,sans-Serif" font-size="11.00" fill="#000000">failed_act_id_</text>
<polygon fill="none" stroke="#000000" points="589.5,-449.7 589.5,-471.7 673.5,-471.7 673.5,-449.7 589.5,-449.7"/>
<text text-anchor="start" x="592.5" y="-457.4" font-family="Helvetica,sans-Serif" font-size="11.00" fill="#000000">varchar[255]</text>
<polygon fill="none" stroke="#000000" points="428.5,-427.7 428.5,-449.7 589.5,-449.7 589.5,-427.7 428.5,-427.7"/>
<text text-anchor="start" x="448.5" y="-434.8" font-family="Helvetica,sans-Serif" font-size="11.00" fill="#000000">duedate_</text>
<polygon fill="none" stroke="#000000" points="589.5,-427.7 589.5,-449.7 673.5,-449.7 673.5,-427.7 589.5,-427.7"/>
<text text-anchor="start" x="592.3807" y="-435.4" font-family="Helvetica,sans-Serif" font-size="11.00" fill="#000000">timestamp[29,6]</text>
<polygon fill="none" stroke="#000000" points="428.5,-405.7 428.5,-427.7 589.5,-427.7 589.5,-405.7 428.5,-405.7"/>
<text text-anchor="start" x="448.5" y="-412.8" font-family="Helvetica,sans-Serif" font-size="11.00" fill="#000000">repeat_</text>
<polygon fill="none" stroke="#000000" points="589.5,-405.7 589.5,-427.7 673.5,-427.7 673.5,-405.7 589.5,-405.7"/>
<text text-anchor="start" x="592.5" y="-413.4" font-family="Helvetica,sans-Serif" font-size="11.00" fill="#000000">varchar[255]</text>
<polygon fill="none" stroke="#000000" points="428.5,-383.7 428.5,-405.7 589.5,-405.7 589.5,-383.7 428.5,-383.7"/>
<text text-anchor="start" x="448.5" y="-390.8" font-family="Helvetica,sans-Serif" font-size="11.00" fill="#000000">repeat_offset_</text>
<polygon fill="none" stroke="#000000" points="589.5,-383.7 589.5,-405.7 673.5,-405.7 673.5,-383.7 589.5,-383.7"/>
<text text-anchor="start" x="592.5" y="-391.4" font-family="Helvetica,sans-Serif" font-size="11.00" fill="#000000">int8[19]</text>
<polygon fill="#ffffff" stroke="transparent" points="428.5,-361.7 428.5,-383.7 589.5,-383.7 589.5,-361.7 428.5,-361.7"/>
<polygon fill="none" stroke="#000000" points="428.5,-361.7 428.5,-383.7 589.5,-383.7 589.5,-361.7 428.5,-361.7"/>
<text text-anchor="start" x="448.5" y="-368.8" font-family="Helvetica,sans-Serif" font-size="11.00" fill="#000000">handler_type_</text>
<polygon fill="none" stroke="#000000" points="589.5,-361.7 589.5,-383.7 673.5,-383.7 673.5,-361.7 589.5,-361.7"/>
<text text-anchor="start" x="592.5" y="-369.4" font-family="Helvetica,sans-Serif" font-size="11.00" fill="#000000">varchar[255]</text>
<polygon fill="#ffffff" stroke="transparent" points="428.5,-339.7 428.5,-361.7 589.5,-361.7 589.5,-339.7 428.5,-339.7"/>
<polygon fill="none" stroke="#000000" points="428.5,-339.7 428.5,-361.7 589.5,-361.7 589.5,-339.7 428.5,-339.7"/>
<text text-anchor="start" x="448.5" y="-346.8" font-family="Helvetica,sans-Serif" font-size="11.00" fill="#000000">handler_cfg_</text>
<polygon fill="none" stroke="#000000" points="589.5,-339.7 589.5,-361.7 673.5,-361.7 673.5,-339.7 589.5,-339.7"/>
<text text-anchor="start" x="592.5" y="-347.4" font-family="Helvetica,sans-Serif" font-size="11.00" fill="#000000">varchar[4000]</text>
<polygon fill="none" stroke="#000000" points="428.5,-317.7 428.5,-339.7 589.5,-339.7 589.5,-317.7 428.5,-317.7"/>
<text text-anchor="start" x="448.5" y="-324.8" font-family="Helvetica,sans-Serif" font-size="11.00" fill="#000000">deployment_id_</text>
<polygon fill="none" stroke="#000000" points="589.5,-317.7 589.5,-339.7 673.5,-339.7 673.5,-317.7 589.5,-317.7"/>
<text text-anchor="start" x="592.5" y="-325.4" font-family="Helvetica,sans-Serif" font-size="11.00" fill="#000000">varchar[64]</text>
<polygon fill="none" stroke="#000000" points="428.5,-295.7 428.5,-317.7 589.5,-317.7 589.5,-295.7 428.5,-295.7"/>
<text text-anchor="start" x="448.5" y="-302.8" font-family="Helvetica,sans-Serif" font-size="11.00" fill="#000000">suspension_state_</text>
<polygon fill="none" stroke="#000000" points="589.5,-295.7 589.5,-317.7 673.5,-317.7 673.5,-295.7 589.5,-295.7"/>
<text text-anchor="start" x="592.5" y="-303.4" font-family="Helvetica,sans-Serif" font-size="11.00" fill="#000000">int4[10]</text>
<polygon fill="#ffffff" stroke="transparent" points="428.5,-273.7 428.5,-295.7 589.5,-295.7 589.5,-273.7 428.5,-273.7"/>
<polygon fill="none" stroke="#000000" points="428.5,-273.7 428.5,-295.7 589.5,-295.7 589.5,-273.7 428.5,-273.7"/>
<text text-anchor="start" x="448.5" y="-280.8" font-family="Helvetica,sans-Serif" font-size="11.00" fill="#000000">job_def_id_</text>
<polygon fill="none" stroke="#000000" points="589.5,-273.7 589.5,-295.7 673.5,-295.7 673.5,-273.7 589.5,-273.7"/>
<text text-anchor="start" x="592.5" y="-281.4" font-family="Helvetica,sans-Serif" font-size="11.00" fill="#000000">varchar[64]</text>
<polygon fill="none" stroke="#000000" points="428.5,-251.7 428.5,-273.7 589.5,-273.7 589.5,-251.7 428.5,-251.7"/>
<text text-anchor="start" x="448.5" y="-258.8" font-family="Helvetica,sans-Serif" font-size="11.00" fill="#000000">priority_</text>
<polygon fill="none" stroke="#000000" points="589.5,-251.7 589.5,-273.7 673.5,-273.7 673.5,-251.7 589.5,-251.7"/>
<text text-anchor="start" x="592.5" y="-259.4" font-family="Helvetica,sans-Serif" font-size="11.00" fill="#000000">int8[19]</text>
<polygon fill="none" stroke="#000000" points="428.5,-229.7 428.5,-251.7 589.5,-251.7 589.5,-229.7 428.5,-229.7"/>
<text text-anchor="start" x="448.5" y="-236.8" font-family="Helvetica,sans-Serif" font-size="11.00" fill="#000000">sequence_counter_</text>
<polygon fill="none" stroke="#000000" points="589.5,-229.7 589.5,-251.7 673.5,-251.7 673.5,-229.7 589.5,-229.7"/>
<text text-anchor="start" x="592.5" y="-237.4" font-family="Helvetica,sans-Serif" font-size="11.00" fill="#000000">int8[19]</text>
<polygon fill="#ffffff" stroke="transparent" points="428.5,-207.7 428.5,-229.7 589.5,-229.7 589.5,-207.7 428.5,-207.7"/>
<polygon fill="none" stroke="#000000" points="428.5,-207.7 428.5,-229.7 589.5,-229.7 589.5,-207.7 428.5,-207.7"/>
<text text-anchor="start" x="448.5" y="-214.8" font-family="Helvetica,sans-Serif" font-size="11.00" fill="#000000">tenant_id_</text>
<polygon fill="none" stroke="#000000" points="589.5,-207.7 589.5,-229.7 673.5,-229.7 673.5,-207.7 589.5,-207.7"/>
<text text-anchor="start" x="592.5" y="-215.4" font-family="Helvetica,sans-Serif" font-size="11.00" fill="#000000">varchar[64]</text>
<polygon fill="none" stroke="#000000" points="428.5,-185.7 428.5,-207.7 589.5,-207.7 589.5,-185.7 428.5,-185.7"/>
<text text-anchor="start" x="448.5" y="-192.8" font-family="Helvetica,sans-Serif" font-size="11.00" fill="#000000">create_time_</text>
<polygon fill="none" stroke="#000000" points="589.5,-185.7 589.5,-207.7 673.5,-207.7 673.5,-185.7 589.5,-185.7"/>
<text text-anchor="start" x="592.3807" y="-193.4" font-family="Helvetica,sans-Serif" font-size="11.00" fill="#000000">timestamp[29,6]</text>
<polygon fill="none" stroke="#000000" points="428.5,-163.7 428.5,-185.7 589.5,-185.7 589.5,-163.7 428.5,-163.7"/>
<text text-anchor="start" x="448.5" y="-170.8" font-family="Helvetica,sans-Serif" font-size="11.00" fill="#000000">last_failure_log_id_</text>
<polygon fill="none" stroke="#000000" points="589.5,-163.7 589.5,-185.7 673.5,-185.7 673.5,-163.7 589.5,-163.7"/>
<text text-anchor="start" x="592.5" y="-171.4" font-family="Helvetica,sans-Serif" font-size="11.00" fill="#000000">varchar[64]</text>
<polygon fill="none" stroke="#000000" points="428.5,-141.7 428.5,-163.7 589.5,-163.7 589.5,-141.7 428.5,-141.7"/>
<text text-anchor="start" x="448.5" y="-148.8" font-family="Helvetica,sans-Serif" font-size="11.00" fill="#000000">batch_id_</text>
<polygon fill="none" stroke="#000000" points="589.5,-141.7 589.5,-163.7 673.5,-163.7 673.5,-141.7 589.5,-141.7"/>
<text text-anchor="start" x="592.5" y="-149.4" font-family="Helvetica,sans-Serif" font-size="11.00" fill="#000000">varchar[64]</text>
<polygon fill="#ffffff" stroke="transparent" points="428.5,-122.7 428.5,-141.7 513.5,-141.7 513.5,-122.7 428.5,-122.7"/>
<polygon fill="none" stroke="#000000" points="428.5,-122.7 428.5,-141.7 513.5,-141.7 513.5,-122.7 428.5,-122.7"/>
<text text-anchor="start" x="431.5" y="-128.8" font-family="Helvetica,sans-Serif" font-size="11.00" fill="#000000">&lt; 1</text>
<polygon fill="#ffffff" stroke="transparent" points="513.5,-122.7 513.5,-141.7 589.5,-141.7 589.5,-122.7 513.5,-122.7"/>
<polygon fill="none" stroke="#000000" points="513.5,-122.7 513.5,-141.7 589.5,-141.7 589.5,-122.7 513.5,-122.7"/>
<text text-anchor="start" x="580.3862" y="-128.8" font-family="Helvetica,sans-Serif" font-size="11.00" fill="#000000"> &#160;</text>
<polygon fill="#ffffff" stroke="transparent" points="589.5,-122.7 589.5,-141.7 673.5,-141.7 673.5,-122.7 589.5,-122.7"/>
<polygon fill="none" stroke="#000000" points="589.5,-122.7 589.5,-141.7 673.5,-141.7 673.5,-122.7 589.5,-122.7"/>
<text text-anchor="start" x="654.9053" y="-128.8" font-family="Helvetica,sans-Serif" font-size="11.00" fill="#000000">0 &gt;</text>
<polygon fill="none" stroke="#000000" stroke-width="2" points="427,-121.7 427,-803.7 674,-803.7 674,-121.7 427,-121.7"/>
</a>
</g>
</g>
<!-- act_ru_job&#45;&gt;act_ge_bytearray -->
<g id="edge3" class="edge">
<title>act_ru_job:w&#45;&gt;act_ge_bytearray:e</title>
<path fill="none" stroke="#000000" d="M414.0156,-504.7C401.6771,-504.7 394.1667,-504.7 377,-504.7"/>
<polygon fill="#000000" stroke="#000000" points="420.5,-504.7001 428.5,-508.3 424.5,-504.7 428.5,-504.7 428.5,-504.7 428.5,-504.7 424.5,-504.7 428.5,-501.1 420.5,-504.7001 420.5,-504.7001"/>
<ellipse fill="none" stroke="#000000" cx="417.3" cy="-504.7001" rx="3.2" ry="3.2"/>
</g>
<!-- act_ru_variable -->
<g id="node5" class="node">
<title>act_ru_variable</title>
<g id="a_node5"><a xlink:href="../../tables/act_ru_variable.html" xlink:title="act_ru_variable" target="_top">
<polygon fill="#ffffff" stroke="transparent" points="480,-38.2 480,-99.2 621,-99.2 621,-38.2 480,-38.2"/>
<polygon fill="#f5f5f5" stroke="transparent" points="480.5,-75.7 480.5,-98.7 621.5,-98.7 621.5,-75.7 480.5,-75.7"/>
<polygon fill="none" stroke="#000000" points="480.5,-75.7 480.5,-98.7 621.5,-98.7 621.5,-75.7 480.5,-75.7"/>
<text text-anchor="start" x="485.5" y="-84.3" font-family="Helvetica,sans-Serif" font-weight="bold" font-size="11.00" fill="#000000">act_ru_variable</text>
<text text-anchor="start" x="587.0219" y="-83.8" font-family="Helvetica,sans-Serif" font-size="11.00" fill="#000000">[table]</text>
<polygon fill="none" stroke="#000000" points="480.5,-56.7 480.5,-75.7 621.5,-75.7 621.5,-56.7 480.5,-56.7"/>
<text text-anchor="start" x="483.5" y="-62.8" font-family="Helvetica,sans-Serif" font-size="11.00" fill="#000000">...</text>
<polygon fill="#ffffff" stroke="transparent" points="480.5,-37.7 480.5,-56.7 549.5,-56.7 549.5,-37.7 480.5,-37.7"/>
<polygon fill="none" stroke="#000000" points="480.5,-37.7 480.5,-56.7 549.5,-56.7 549.5,-37.7 480.5,-37.7"/>
<text text-anchor="start" x="483.5" y="-43.8" font-family="Helvetica,sans-Serif" font-size="11.00" fill="#000000">&lt; 6</text>
<polygon fill="#ffffff" stroke="transparent" points="549.5,-37.7 549.5,-56.7 585.5,-56.7 585.5,-37.7 549.5,-37.7"/>
<polygon fill="none" stroke="#000000" points="549.5,-37.7 549.5,-56.7 585.5,-56.7 585.5,-37.7 549.5,-37.7"/>
<text text-anchor="start" x="576.3862" y="-43.8" font-family="Helvetica,sans-Serif" font-size="11.00" fill="#000000"> &#160;</text>
<polygon fill="#ffffff" stroke="transparent" points="585.5,-37.7 585.5,-56.7 621.5,-56.7 621.5,-37.7 585.5,-37.7"/>
<polygon fill="none" stroke="#000000" points="585.5,-37.7 585.5,-56.7 621.5,-56.7 621.5,-37.7 585.5,-37.7"/>
<text text-anchor="start" x="612.3862" y="-43.8" font-family="Helvetica,sans-Serif" font-size="11.00" fill="#000000"> &#160;</text>
</a>
</g>
</g>
<!-- act_ru_variable&#45;&gt;act_ge_bytearray -->
<g id="edge4" class="edge">
<title>act_ru_variable:w&#45;&gt;act_ge_bytearray:e</title>
<path fill="none" stroke="#000000" d="M466.0374,-66.8224C442.652,-70.8552 432.481,-85.7124 418,-110.7 373.8615,-186.8629 465.0283,-504.7 377,-504.7"/>
<polygon fill="#000000" stroke="#000000" points="472.524,-66.3191 480.7786,-69.2892 476.512,-66.0095 480.5,-65.7 480.5,-65.7 480.5,-65.7 476.512,-66.0095 480.2214,-62.1108 472.524,-66.3191 472.524,-66.3191"/>
<ellipse fill="none" stroke="#000000" cx="469.3336" cy="-66.5667" rx="3.2" ry="3.2"/>
</g>
</g>
</svg>
