<?xml version="1.0" encoding="UTF-8" standalone="no"?>
<!DOCTYPE svg PUBLIC "-//W3C//DTD SVG 1.1//EN"
 "http://www.w3.org/Graphics/SVG/1.1/DTD/svg11.dtd">
<!-- Generated by graphviz version 2.40.1 (20161225.0304)
 -->
<!-- Title: oneDegreeRelationshipsDiagram Pages: 1 -->
<svg width="515pt" height="382pt"
 viewBox="0.00 0.00 515.00 382.20" xmlns="http://www.w3.org/2000/svg" xmlns:xlink="http://www.w3.org/1999/xlink">
<g id="graph0" class="graph" transform="scale(1 1) rotate(0) translate(4 378.2)">
<title>oneDegreeRelationshipsDiagram</title>
<polygon fill="#ffffff" stroke="transparent" points="-4,4 -4,-378.2 511,-378.2 511,4 -4,4"/>
<text text-anchor="middle" x="72.4936" y="-7.3" font-family="Helvetica,sans-Serif" font-size="11.00" fill="#000000">Generated by SchemaSpy</text>
<!-- act_ru_case_sentry_part -->
<g id="node1" class="node">
<title>act_ru_case_sentry_part</title>
<g id="a_node1"><a xlink:href="../../tables/act_ru_case_sentry_part.html" xlink:title="act_ru_case_sentry_part" target="_top">
<polygon fill="#ffffff" stroke="transparent" points="246,-38.2 246,-370.2 499,-370.2 499,-38.2 246,-38.2"/>
<polygon fill="#f5f5f5" stroke="transparent" points="248.5,-345.2 248.5,-368.2 497.5,-368.2 497.5,-345.2 248.5,-345.2"/>
<polygon fill="none" stroke="#000000" points="248.5,-345.2 248.5,-368.2 497.5,-368.2 497.5,-345.2 248.5,-345.2"/>
<text text-anchor="start" x="253.5" y="-353.8" font-family="Helvetica,sans-Serif" font-weight="bold" font-size="11.00" fill="#000000">act_ru_case_sentry_part</text>
<text text-anchor="start" x="462.5437" y="-353.3" font-family="Helvetica,sans-Serif" font-size="11.00" fill="#000000">[table]</text>
<polygon fill="none" stroke="#000000" points="248.5,-323.2 248.5,-345.2 430.5,-345.2 430.5,-323.2 248.5,-323.2"/>
<image xlink:href="../../images/primaryKeys.png" width="11px" height="12px" preserveAspectRatio="xMinYMin meet" x="253.5" y="-340.2"/>
<text text-anchor="start" x="268.5" y="-330.3" font-family="Helvetica,sans-Serif" font-size="11.00" fill="#000000">id_</text>
<polygon fill="none" stroke="#000000" points="430.5,-323.2 430.5,-345.2 497.5,-345.2 497.5,-323.2 430.5,-323.2"/>
<text text-anchor="start" x="433.5" y="-330.9" font-family="Helvetica,sans-Serif" font-size="11.00" fill="#000000">varchar[64]</text>
<polygon fill="none" stroke="#000000" points="248.5,-301.2 248.5,-323.2 430.5,-323.2 430.5,-301.2 248.5,-301.2"/>
<text text-anchor="start" x="268.5" y="-308.3" font-family="Helvetica,sans-Serif" font-size="11.00" fill="#000000">rev_</text>
<polygon fill="none" stroke="#000000" points="430.5,-301.2 430.5,-323.2 497.5,-323.2 497.5,-301.2 430.5,-301.2"/>
<text text-anchor="start" x="433.5" y="-308.9" font-family="Helvetica,sans-Serif" font-size="11.00" fill="#000000">int4[10]</text>
<polygon fill="#ffffff" stroke="transparent" points="248.5,-279.2 248.5,-301.2 430.5,-301.2 430.5,-279.2 248.5,-279.2"/>
<polygon fill="none" stroke="#000000" points="248.5,-279.2 248.5,-301.2 430.5,-301.2 430.5,-279.2 248.5,-279.2"/>
<image xlink:href="../../images/foreignKeys.png" width="11px" height="12px" preserveAspectRatio="xMinYMin meet" x="253.5" y="-296.2"/>
<text text-anchor="start" x="268.5" y="-286.3" font-family="Helvetica,sans-Serif" font-size="11.00" fill="#000000">case_inst_id_</text>
<polygon fill="none" stroke="#000000" points="430.5,-279.2 430.5,-301.2 497.5,-301.2 497.5,-279.2 430.5,-279.2"/>
<text text-anchor="start" x="433.5" y="-286.9" font-family="Helvetica,sans-Serif" font-size="11.00" fill="#000000">varchar[64]</text>
<polygon fill="#ffffff" stroke="transparent" points="248.5,-257.2 248.5,-279.2 430.5,-279.2 430.5,-257.2 248.5,-257.2"/>
<polygon fill="none" stroke="#000000" points="248.5,-257.2 248.5,-279.2 430.5,-279.2 430.5,-257.2 248.5,-257.2"/>
<image xlink:href="../../images/foreignKeys.png" width="11px" height="12px" preserveAspectRatio="xMinYMin meet" x="253.5" y="-274.2"/>
<text text-anchor="start" x="268.5" y="-264.3" font-family="Helvetica,sans-Serif" font-size="11.00" fill="#000000">case_exec_id_</text>
<polygon fill="none" stroke="#000000" points="430.5,-257.2 430.5,-279.2 497.5,-279.2 497.5,-257.2 430.5,-257.2"/>
<text text-anchor="start" x="433.5" y="-264.9" font-family="Helvetica,sans-Serif" font-size="11.00" fill="#000000">varchar[64]</text>
<polygon fill="none" stroke="#000000" points="248.5,-235.2 248.5,-257.2 430.5,-257.2 430.5,-235.2 248.5,-235.2"/>
<text text-anchor="start" x="268.5" y="-242.3" font-family="Helvetica,sans-Serif" font-size="11.00" fill="#000000">sentry_id_</text>
<polygon fill="none" stroke="#000000" points="430.5,-235.2 430.5,-257.2 497.5,-257.2 497.5,-235.2 430.5,-235.2"/>
<text text-anchor="start" x="433.4365" y="-242.9" font-family="Helvetica,sans-Serif" font-size="11.00" fill="#000000">varchar[255]</text>
<polygon fill="none" stroke="#000000" points="248.5,-213.2 248.5,-235.2 430.5,-235.2 430.5,-213.2 248.5,-213.2"/>
<text text-anchor="start" x="268.5" y="-220.3" font-family="Helvetica,sans-Serif" font-size="11.00" fill="#000000">type_</text>
<polygon fill="none" stroke="#000000" points="430.5,-213.2 430.5,-235.2 497.5,-235.2 497.5,-213.2 430.5,-213.2"/>
<text text-anchor="start" x="433.4365" y="-220.9" font-family="Helvetica,sans-Serif" font-size="11.00" fill="#000000">varchar[255]</text>
<polygon fill="none" stroke="#000000" points="248.5,-191.2 248.5,-213.2 430.5,-213.2 430.5,-191.2 248.5,-191.2"/>
<text text-anchor="start" x="268.5" y="-198.3" font-family="Helvetica,sans-Serif" font-size="11.00" fill="#000000">source_case_exec_id_</text>
<polygon fill="none" stroke="#000000" points="430.5,-191.2 430.5,-213.2 497.5,-213.2 497.5,-191.2 430.5,-191.2"/>
<text text-anchor="start" x="433.5" y="-198.9" font-family="Helvetica,sans-Serif" font-size="11.00" fill="#000000">varchar[64]</text>
<polygon fill="none" stroke="#000000" points="248.5,-169.2 248.5,-191.2 430.5,-191.2 430.5,-169.2 248.5,-169.2"/>
<text text-anchor="start" x="268.5" y="-176.3" font-family="Helvetica,sans-Serif" font-size="11.00" fill="#000000">standard_event_</text>
<polygon fill="none" stroke="#000000" points="430.5,-169.2 430.5,-191.2 497.5,-191.2 497.5,-169.2 430.5,-169.2"/>
<text text-anchor="start" x="433.4365" y="-176.9" font-family="Helvetica,sans-Serif" font-size="11.00" fill="#000000">varchar[255]</text>
<polygon fill="none" stroke="#000000" points="248.5,-147.2 248.5,-169.2 430.5,-169.2 430.5,-147.2 248.5,-147.2"/>
<text text-anchor="start" x="268.5" y="-154.3" font-family="Helvetica,sans-Serif" font-size="11.00" fill="#000000">source_</text>
<polygon fill="none" stroke="#000000" points="430.5,-147.2 430.5,-169.2 497.5,-169.2 497.5,-147.2 430.5,-147.2"/>
<text text-anchor="start" x="433.4365" y="-154.9" font-family="Helvetica,sans-Serif" font-size="11.00" fill="#000000">varchar[255]</text>
<polygon fill="none" stroke="#000000" points="248.5,-125.2 248.5,-147.2 430.5,-147.2 430.5,-125.2 248.5,-125.2"/>
<text text-anchor="start" x="268.5" y="-132.3" font-family="Helvetica,sans-Serif" font-size="11.00" fill="#000000">variable_event_</text>
<polygon fill="none" stroke="#000000" points="430.5,-125.2 430.5,-147.2 497.5,-147.2 497.5,-125.2 430.5,-125.2"/>
<text text-anchor="start" x="433.4365" y="-132.9" font-family="Helvetica,sans-Serif" font-size="11.00" fill="#000000">varchar[255]</text>
<polygon fill="none" stroke="#000000" points="248.5,-103.2 248.5,-125.2 430.5,-125.2 430.5,-103.2 248.5,-103.2"/>
<text text-anchor="start" x="268.5" y="-110.3" font-family="Helvetica,sans-Serif" font-size="11.00" fill="#000000">variable_name_</text>
<polygon fill="none" stroke="#000000" points="430.5,-103.2 430.5,-125.2 497.5,-125.2 497.5,-103.2 430.5,-103.2"/>
<text text-anchor="start" x="433.4365" y="-110.9" font-family="Helvetica,sans-Serif" font-size="11.00" fill="#000000">varchar[255]</text>
<polygon fill="none" stroke="#000000" points="248.5,-81.2 248.5,-103.2 430.5,-103.2 430.5,-81.2 248.5,-81.2"/>
<text text-anchor="start" x="268.5" y="-88.3" font-family="Helvetica,sans-Serif" font-size="11.00" fill="#000000">satisfied_</text>
<polygon fill="none" stroke="#000000" points="430.5,-81.2 430.5,-103.2 497.5,-103.2 497.5,-81.2 430.5,-81.2"/>
<text text-anchor="start" x="433.5" y="-88.9" font-family="Helvetica,sans-Serif" font-size="11.00" fill="#000000">bool[1]</text>
<polygon fill="none" stroke="#000000" points="248.5,-59.2 248.5,-81.2 430.5,-81.2 430.5,-59.2 248.5,-59.2"/>
<text text-anchor="start" x="268.5" y="-66.3" font-family="Helvetica,sans-Serif" font-size="11.00" fill="#000000">tenant_id_</text>
<polygon fill="none" stroke="#000000" points="430.5,-59.2 430.5,-81.2 497.5,-81.2 497.5,-59.2 430.5,-59.2"/>
<text text-anchor="start" x="433.5" y="-66.9" font-family="Helvetica,sans-Serif" font-size="11.00" fill="#000000">varchar[64]</text>
<polygon fill="#ffffff" stroke="transparent" points="248.5,-40.2 248.5,-59.2 343.5,-59.2 343.5,-40.2 248.5,-40.2"/>
<polygon fill="none" stroke="#000000" points="248.5,-40.2 248.5,-59.2 343.5,-59.2 343.5,-40.2 248.5,-40.2"/>
<text text-anchor="start" x="251.5" y="-46.3" font-family="Helvetica,sans-Serif" font-size="11.00" fill="#000000">&lt; 2</text>
<polygon fill="#ffffff" stroke="transparent" points="343.5,-40.2 343.5,-59.2 430.5,-59.2 430.5,-40.2 343.5,-40.2"/>
<polygon fill="none" stroke="#000000" points="343.5,-40.2 343.5,-59.2 430.5,-59.2 430.5,-40.2 343.5,-40.2"/>
<text text-anchor="start" x="421.3862" y="-46.3" font-family="Helvetica,sans-Serif" font-size="11.00" fill="#000000"> &#160;</text>
<polygon fill="#ffffff" stroke="transparent" points="430.5,-40.2 430.5,-59.2 497.5,-59.2 497.5,-40.2 430.5,-40.2"/>
<polygon fill="none" stroke="#000000" points="430.5,-40.2 430.5,-59.2 497.5,-59.2 497.5,-40.2 430.5,-40.2"/>
<text text-anchor="start" x="478.9053" y="-46.3" font-family="Helvetica,sans-Serif" font-size="11.00" fill="#000000">0 &gt;</text>
<polygon fill="none" stroke="#000000" stroke-width="2" points="247,-39.2 247,-369.2 498,-369.2 498,-39.2 247,-39.2"/>
</a>
</g>
</g>
<!-- act_ru_case_execution -->
<g id="node2" class="node">
<title>act_ru_case_execution</title>
<g id="a_node2"><a xlink:href="../../tables/act_ru_case_execution.html" xlink:title="act_ru_case_execution" target="_top">
<polygon fill="#ffffff" stroke="transparent" points="8,-120.7 8,-313.7 197,-313.7 197,-120.7 8,-120.7"/>
<polygon fill="#f5f5f5" stroke="transparent" points="8.5,-290.2 8.5,-313.2 197.5,-313.2 197.5,-290.2 8.5,-290.2"/>
<polygon fill="none" stroke="#000000" points="8.5,-290.2 8.5,-313.2 197.5,-313.2 197.5,-290.2 8.5,-290.2"/>
<text text-anchor="start" x="13.5" y="-298.8" font-family="Helvetica,sans-Serif" font-weight="bold" font-size="11.00" fill="#000000">act_ru_case_execution</text>
<text text-anchor="start" x="163.0219" y="-298.3" font-family="Helvetica,sans-Serif" font-size="11.00" fill="#000000">[table]</text>
<polygon fill="none" stroke="#000000" points="8.5,-268.2 8.5,-290.2 197.5,-290.2 197.5,-268.2 8.5,-268.2"/>
<image xlink:href="../../images/primaryKeys.png" width="11px" height="12px" preserveAspectRatio="xMinYMin meet" x="13.5" y="-285.2"/>
<text text-anchor="start" x="37.5" y="-275.3" font-family="Helvetica,sans-Serif" font-size="11.00" fill="#000000">id_</text>
<polygon fill="#ffffff" stroke="transparent" points="8.5,-246.2 8.5,-268.2 197.5,-268.2 197.5,-246.2 8.5,-246.2"/>
<polygon fill="none" stroke="#000000" points="8.5,-246.2 8.5,-268.2 197.5,-268.2 197.5,-246.2 8.5,-246.2"/>
<image xlink:href="../../images/foreignKeys.png" width="11px" height="12px" preserveAspectRatio="xMinYMin meet" x="13.5" y="-263.2"/>
<text text-anchor="start" x="37.5" y="-253.3" font-family="Helvetica,sans-Serif" font-size="11.00" fill="#000000">case_inst_id_</text>
<polygon fill="#ffffff" stroke="transparent" points="8.5,-224.2 8.5,-246.2 197.5,-246.2 197.5,-224.2 8.5,-224.2"/>
<polygon fill="none" stroke="#000000" points="8.5,-224.2 8.5,-246.2 197.5,-246.2 197.5,-224.2 8.5,-224.2"/>
<text text-anchor="start" x="37.5" y="-231.3" font-family="Helvetica,sans-Serif" font-size="11.00" fill="#000000">business_key_</text>
<polygon fill="#ffffff" stroke="transparent" points="8.5,-202.2 8.5,-224.2 197.5,-224.2 197.5,-202.2 8.5,-202.2"/>
<polygon fill="none" stroke="#000000" points="8.5,-202.2 8.5,-224.2 197.5,-224.2 197.5,-202.2 8.5,-202.2"/>
<image xlink:href="../../images/foreignKeys.png" width="11px" height="12px" preserveAspectRatio="xMinYMin meet" x="13.5" y="-219.2"/>
<text text-anchor="start" x="37.5" y="-209.3" font-family="Helvetica,sans-Serif" font-size="11.00" fill="#000000">parent_id_</text>
<polygon fill="#ffffff" stroke="transparent" points="8.5,-180.2 8.5,-202.2 197.5,-202.2 197.5,-180.2 8.5,-180.2"/>
<polygon fill="none" stroke="#000000" points="8.5,-180.2 8.5,-202.2 197.5,-202.2 197.5,-180.2 8.5,-180.2"/>
<image xlink:href="../../images/foreignKeys.png" width="11px" height="12px" preserveAspectRatio="xMinYMin meet" x="13.5" y="-197.2"/>
<text text-anchor="start" x="37.5" y="-187.3" font-family="Helvetica,sans-Serif" font-size="11.00" fill="#000000">case_def_id_</text>
<polygon fill="#ffffff" stroke="transparent" points="8.5,-158.2 8.5,-180.2 197.5,-180.2 197.5,-158.2 8.5,-158.2"/>
<polygon fill="none" stroke="#000000" points="8.5,-158.2 8.5,-180.2 197.5,-180.2 197.5,-158.2 8.5,-158.2"/>
<text text-anchor="start" x="37.5" y="-165.3" font-family="Helvetica,sans-Serif" font-size="11.00" fill="#000000">tenant_id_</text>
<polygon fill="none" stroke="#000000" points="8.5,-139.2 8.5,-158.2 197.5,-158.2 197.5,-139.2 8.5,-139.2"/>
<text text-anchor="start" x="11.5" y="-145.3" font-family="Helvetica,sans-Serif" font-size="11.00" fill="#000000">...</text>
<polygon fill="#ffffff" stroke="transparent" points="8.5,-120.2 8.5,-139.2 96.5,-139.2 96.5,-120.2 8.5,-120.2"/>
<polygon fill="none" stroke="#000000" points="8.5,-120.2 8.5,-139.2 96.5,-139.2 96.5,-120.2 8.5,-120.2"/>
<text text-anchor="start" x="11.5" y="-126.3" font-family="Helvetica,sans-Serif" font-size="11.00" fill="#000000">&lt; 3</text>
<polygon fill="#ffffff" stroke="transparent" points="96.5,-120.2 96.5,-139.2 142.5,-139.2 142.5,-120.2 96.5,-120.2"/>
<polygon fill="none" stroke="#000000" points="96.5,-120.2 96.5,-139.2 142.5,-139.2 142.5,-120.2 96.5,-120.2"/>
<text text-anchor="start" x="133.3862" y="-126.3" font-family="Helvetica,sans-Serif" font-size="11.00" fill="#000000"> &#160;</text>
<polygon fill="#ffffff" stroke="transparent" points="142.5,-120.2 142.5,-139.2 197.5,-139.2 197.5,-120.2 142.5,-120.2"/>
<polygon fill="none" stroke="#000000" points="142.5,-120.2 142.5,-139.2 197.5,-139.2 197.5,-120.2 142.5,-120.2"/>
<text text-anchor="start" x="178.9053" y="-126.3" font-family="Helvetica,sans-Serif" font-size="11.00" fill="#000000">7 &gt;</text>
</a>
</g>
</g>
<!-- act_ru_case_sentry_part&#45;&gt;act_ru_case_execution -->
<g id="edge1" class="edge">
<title>act_ru_case_sentry_part:w&#45;&gt;act_ru_case_execution:e</title>
<path fill="none" stroke="#000000" d="M234.0097,-269.9188C221.8398,-273.0125 214.8909,-279.2 197.5,-279.2"/>
<polygon fill="#000000" stroke="#000000" points="240.5557,-269.1424 248.9241,-271.7749 244.5278,-268.6712 248.5,-268.2 248.5,-268.2 248.5,-268.2 244.5278,-268.6712 248.0759,-264.6251 240.5557,-269.1424 240.5557,-269.1424"/>
<ellipse fill="none" stroke="#000000" cx="237.378" cy="-269.5193" rx="3.2" ry="3.2"/>
</g>
<!-- act_ru_case_sentry_part&#45;&gt;act_ru_case_execution -->
<g id="edge2" class="edge">
<title>act_ru_case_sentry_part:w&#45;&gt;act_ru_case_execution:e</title>
<path fill="none" stroke="#000000" d="M234.0097,-288.4813C221.8398,-285.3875 214.8909,-279.2 197.5,-279.2"/>
<polygon fill="#000000" stroke="#000000" points="240.5557,-289.2576 248.0759,-293.7749 244.5278,-289.7288 248.5,-290.2 248.5,-290.2 248.5,-290.2 244.5278,-289.7288 248.9241,-286.6251 240.5557,-289.2576 240.5557,-289.2576"/>
<ellipse fill="none" stroke="#000000" cx="237.378" cy="-288.8807" rx="3.2" ry="3.2"/>
</g>
</g>
</svg>
