<?xml version="1.0" encoding="UTF-8" standalone="no"?>
<!DOCTYPE svg PUBLIC "-//W3C//DTD SVG 1.1//EN"
 "http://www.w3.org/Graphics/SVG/1.1/DTD/svg11.dtd">
<!-- Generated by graphviz version 2.40.1 (20161225.0304)
 -->
<!-- Title: twoDegreesRelationshipsDiagram Pages: 1 -->
<svg width="669pt" height="787pt"
 viewBox="0.00 0.00 669.00 787.20" xmlns="http://www.w3.org/2000/svg" xmlns:xlink="http://www.w3.org/1999/xlink">
<g id="graph0" class="graph" transform="scale(1 1) rotate(0) translate(4 783.2)">
<title>twoDegreesRelationshipsDiagram</title>
<polygon fill="#ffffff" stroke="transparent" points="-4,4 -4,-783.2 665,-783.2 665,4 -4,4"/>
<text text-anchor="middle" x="72.4936" y="-7.3" font-family="Helvetica,sans-Serif" font-size="11.00" fill="#000000">Generated by SchemaSpy</text>
<!-- act_ru_batch -->
<g id="node1" class="node">
<title>act_ru_batch</title>
<g id="a_node1"><a xlink:href="../../tables/act_ru_batch.html" xlink:title="act_ru_batch" target="_top">
<polygon fill="#ffffff" stroke="transparent" points="201,-120.7 201,-518.7 449,-518.7 449,-120.7 201,-120.7"/>
<polygon fill="#f5f5f5" stroke="transparent" points="203,-493.7 203,-516.7 447,-516.7 447,-493.7 203,-493.7"/>
<polygon fill="none" stroke="#000000" points="203,-493.7 203,-516.7 447,-516.7 447,-493.7 203,-493.7"/>
<text text-anchor="start" x="208" y="-502.3" font-family="Helvetica,sans-Serif" font-weight="bold" font-size="11.00" fill="#000000">act_ru_batch</text>
<text text-anchor="start" x="412.0437" y="-501.8" font-family="Helvetica,sans-Serif" font-size="11.00" fill="#000000">[table]</text>
<polygon fill="none" stroke="#000000" points="203,-471.7 203,-493.7 363,-493.7 363,-471.7 203,-471.7"/>
<image xlink:href="../../images/primaryKeys.png" width="11px" height="12px" preserveAspectRatio="xMinYMin meet" x="208" y="-488.7"/>
<text text-anchor="start" x="223" y="-478.8" font-family="Helvetica,sans-Serif" font-size="11.00" fill="#000000">id_</text>
<polygon fill="none" stroke="#000000" points="363,-471.7 363,-493.7 447,-493.7 447,-471.7 363,-471.7"/>
<text text-anchor="start" x="366" y="-479.4" font-family="Helvetica,sans-Serif" font-size="11.00" fill="#000000">varchar[64]</text>
<polygon fill="none" stroke="#000000" points="203,-449.7 203,-471.7 363,-471.7 363,-449.7 203,-449.7"/>
<text text-anchor="start" x="223" y="-456.8" font-family="Helvetica,sans-Serif" font-size="11.00" fill="#000000">rev_</text>
<polygon fill="none" stroke="#000000" points="363,-449.7 363,-471.7 447,-471.7 447,-449.7 363,-449.7"/>
<text text-anchor="start" x="366" y="-457.4" font-family="Helvetica,sans-Serif" font-size="11.00" fill="#000000">int4[10]</text>
<polygon fill="none" stroke="#000000" points="203,-427.7 203,-449.7 363,-449.7 363,-427.7 203,-427.7"/>
<text text-anchor="start" x="223" y="-434.8" font-family="Helvetica,sans-Serif" font-size="11.00" fill="#000000">type_</text>
<polygon fill="none" stroke="#000000" points="363,-427.7 363,-449.7 447,-449.7 447,-427.7 363,-427.7"/>
<text text-anchor="start" x="366" y="-435.4" font-family="Helvetica,sans-Serif" font-size="11.00" fill="#000000">varchar[255]</text>
<polygon fill="none" stroke="#000000" points="203,-405.7 203,-427.7 363,-427.7 363,-405.7 203,-405.7"/>
<text text-anchor="start" x="223" y="-412.8" font-family="Helvetica,sans-Serif" font-size="11.00" fill="#000000">total_jobs_</text>
<polygon fill="none" stroke="#000000" points="363,-405.7 363,-427.7 447,-427.7 447,-405.7 363,-405.7"/>
<text text-anchor="start" x="366" y="-413.4" font-family="Helvetica,sans-Serif" font-size="11.00" fill="#000000">int4[10]</text>
<polygon fill="none" stroke="#000000" points="203,-383.7 203,-405.7 363,-405.7 363,-383.7 203,-383.7"/>
<text text-anchor="start" x="223" y="-390.8" font-family="Helvetica,sans-Serif" font-size="11.00" fill="#000000">jobs_created_</text>
<polygon fill="none" stroke="#000000" points="363,-383.7 363,-405.7 447,-405.7 447,-383.7 363,-383.7"/>
<text text-anchor="start" x="366" y="-391.4" font-family="Helvetica,sans-Serif" font-size="11.00" fill="#000000">int4[10]</text>
<polygon fill="none" stroke="#000000" points="203,-361.7 203,-383.7 363,-383.7 363,-361.7 203,-361.7"/>
<text text-anchor="start" x="223" y="-368.8" font-family="Helvetica,sans-Serif" font-size="11.00" fill="#000000">jobs_per_seed_</text>
<polygon fill="none" stroke="#000000" points="363,-361.7 363,-383.7 447,-383.7 447,-361.7 363,-361.7"/>
<text text-anchor="start" x="366" y="-369.4" font-family="Helvetica,sans-Serif" font-size="11.00" fill="#000000">int4[10]</text>
<polygon fill="none" stroke="#000000" points="203,-339.7 203,-361.7 363,-361.7 363,-339.7 203,-339.7"/>
<text text-anchor="start" x="223" y="-346.8" font-family="Helvetica,sans-Serif" font-size="11.00" fill="#000000">invocations_per_job_</text>
<polygon fill="none" stroke="#000000" points="363,-339.7 363,-361.7 447,-361.7 447,-339.7 363,-339.7"/>
<text text-anchor="start" x="366" y="-347.4" font-family="Helvetica,sans-Serif" font-size="11.00" fill="#000000">int4[10]</text>
<polygon fill="#ffffff" stroke="transparent" points="203,-317.7 203,-339.7 363,-339.7 363,-317.7 203,-317.7"/>
<polygon fill="none" stroke="#000000" points="203,-317.7 203,-339.7 363,-339.7 363,-317.7 203,-317.7"/>
<image xlink:href="../../images/foreignKeys.png" width="11px" height="12px" preserveAspectRatio="xMinYMin meet" x="208" y="-334.7"/>
<text text-anchor="start" x="223" y="-324.8" font-family="Helvetica,sans-Serif" font-size="11.00" fill="#000000">seed_job_def_id_</text>
<polygon fill="none" stroke="#000000" points="363,-317.7 363,-339.7 447,-339.7 447,-317.7 363,-317.7"/>
<text text-anchor="start" x="366" y="-325.4" font-family="Helvetica,sans-Serif" font-size="11.00" fill="#000000">varchar[64]</text>
<polygon fill="#ffffff" stroke="transparent" points="203,-295.7 203,-317.7 363,-317.7 363,-295.7 203,-295.7"/>
<polygon fill="none" stroke="#000000" points="203,-295.7 203,-317.7 363,-317.7 363,-295.7 203,-295.7"/>
<image xlink:href="../../images/foreignKeys.png" width="11px" height="12px" preserveAspectRatio="xMinYMin meet" x="208" y="-312.7"/>
<text text-anchor="start" x="223" y="-302.8" font-family="Helvetica,sans-Serif" font-size="11.00" fill="#000000">batch_job_def_id_</text>
<polygon fill="none" stroke="#000000" points="363,-295.7 363,-317.7 447,-317.7 447,-295.7 363,-295.7"/>
<text text-anchor="start" x="366" y="-303.4" font-family="Helvetica,sans-Serif" font-size="11.00" fill="#000000">varchar[64]</text>
<polygon fill="#ffffff" stroke="transparent" points="203,-273.7 203,-295.7 363,-295.7 363,-273.7 203,-273.7"/>
<polygon fill="none" stroke="#000000" points="203,-273.7 203,-295.7 363,-295.7 363,-273.7 203,-273.7"/>
<image xlink:href="../../images/foreignKeys.png" width="11px" height="12px" preserveAspectRatio="xMinYMin meet" x="208" y="-290.7"/>
<text text-anchor="start" x="223" y="-280.8" font-family="Helvetica,sans-Serif" font-size="11.00" fill="#000000">monitor_job_def_id_</text>
<polygon fill="none" stroke="#000000" points="363,-273.7 363,-295.7 447,-295.7 447,-273.7 363,-273.7"/>
<text text-anchor="start" x="366" y="-281.4" font-family="Helvetica,sans-Serif" font-size="11.00" fill="#000000">varchar[64]</text>
<polygon fill="none" stroke="#000000" points="203,-251.7 203,-273.7 363,-273.7 363,-251.7 203,-251.7"/>
<text text-anchor="start" x="223" y="-258.8" font-family="Helvetica,sans-Serif" font-size="11.00" fill="#000000">suspension_state_</text>
<polygon fill="none" stroke="#000000" points="363,-251.7 363,-273.7 447,-273.7 447,-251.7 363,-251.7"/>
<text text-anchor="start" x="366" y="-259.4" font-family="Helvetica,sans-Serif" font-size="11.00" fill="#000000">int4[10]</text>
<polygon fill="none" stroke="#000000" points="203,-229.7 203,-251.7 363,-251.7 363,-229.7 203,-229.7"/>
<text text-anchor="start" x="223" y="-236.8" font-family="Helvetica,sans-Serif" font-size="11.00" fill="#000000">configuration_</text>
<polygon fill="none" stroke="#000000" points="363,-229.7 363,-251.7 447,-251.7 447,-229.7 363,-229.7"/>
<text text-anchor="start" x="366" y="-237.4" font-family="Helvetica,sans-Serif" font-size="11.00" fill="#000000">varchar[255]</text>
<polygon fill="none" stroke="#000000" points="203,-207.7 203,-229.7 363,-229.7 363,-207.7 203,-207.7"/>
<text text-anchor="start" x="223" y="-214.8" font-family="Helvetica,sans-Serif" font-size="11.00" fill="#000000">tenant_id_</text>
<polygon fill="none" stroke="#000000" points="363,-207.7 363,-229.7 447,-229.7 447,-207.7 363,-207.7"/>
<text text-anchor="start" x="366" y="-215.4" font-family="Helvetica,sans-Serif" font-size="11.00" fill="#000000">varchar[64]</text>
<polygon fill="none" stroke="#000000" points="203,-185.7 203,-207.7 363,-207.7 363,-185.7 203,-185.7"/>
<text text-anchor="start" x="223" y="-192.8" font-family="Helvetica,sans-Serif" font-size="11.00" fill="#000000">create_user_id_</text>
<polygon fill="none" stroke="#000000" points="363,-185.7 363,-207.7 447,-207.7 447,-185.7 363,-185.7"/>
<text text-anchor="start" x="366" y="-193.4" font-family="Helvetica,sans-Serif" font-size="11.00" fill="#000000">varchar[255]</text>
<polygon fill="none" stroke="#000000" points="203,-163.7 203,-185.7 363,-185.7 363,-163.7 203,-163.7"/>
<text text-anchor="start" x="223" y="-170.8" font-family="Helvetica,sans-Serif" font-size="11.00" fill="#000000">start_time_</text>
<polygon fill="none" stroke="#000000" points="363,-163.7 363,-185.7 447,-185.7 447,-163.7 363,-163.7"/>
<text text-anchor="start" x="365.8807" y="-171.4" font-family="Helvetica,sans-Serif" font-size="11.00" fill="#000000">timestamp[29,6]</text>
<polygon fill="none" stroke="#000000" points="203,-141.7 203,-163.7 363,-163.7 363,-141.7 203,-141.7"/>
<text text-anchor="start" x="223" y="-148.8" font-family="Helvetica,sans-Serif" font-size="11.00" fill="#000000">exec_start_time_</text>
<polygon fill="none" stroke="#000000" points="363,-141.7 363,-163.7 447,-163.7 447,-141.7 363,-141.7"/>
<text text-anchor="start" x="365.8807" y="-149.4" font-family="Helvetica,sans-Serif" font-size="11.00" fill="#000000">timestamp[29,6]</text>
<polygon fill="#ffffff" stroke="transparent" points="203,-122.7 203,-141.7 287,-141.7 287,-122.7 203,-122.7"/>
<polygon fill="none" stroke="#000000" points="203,-122.7 203,-141.7 287,-141.7 287,-122.7 203,-122.7"/>
<text text-anchor="start" x="206" y="-128.8" font-family="Helvetica,sans-Serif" font-size="11.00" fill="#000000">&lt; 3</text>
<polygon fill="#ffffff" stroke="transparent" points="287,-122.7 287,-141.7 363,-141.7 363,-122.7 287,-122.7"/>
<polygon fill="none" stroke="#000000" points="287,-122.7 287,-141.7 363,-141.7 363,-122.7 287,-122.7"/>
<text text-anchor="start" x="353.8862" y="-128.8" font-family="Helvetica,sans-Serif" font-size="11.00" fill="#000000"> &#160;</text>
<polygon fill="#ffffff" stroke="transparent" points="363,-122.7 363,-141.7 447,-141.7 447,-122.7 363,-122.7"/>
<polygon fill="none" stroke="#000000" points="363,-122.7 363,-141.7 447,-141.7 447,-122.7 363,-122.7"/>
<text text-anchor="start" x="428.4053" y="-128.8" font-family="Helvetica,sans-Serif" font-size="11.00" fill="#000000">1 &gt;</text>
<polygon fill="none" stroke="#000000" stroke-width="2" points="202,-121.7 202,-517.7 448,-517.7 448,-121.7 202,-121.7"/>
</a>
</g>
</g>
<!-- act_ru_jobdef -->
<g id="node2" class="node">
<title>act_ru_jobdef</title>
<g id="a_node2"><a xlink:href="../../tables/act_ru_jobdef.html" xlink:title="act_ru_jobdef" target="_top">
<polygon fill="#ffffff" stroke="transparent" points="8,-225.2 8,-352.2 152,-352.2 152,-225.2 8,-225.2"/>
<polygon fill="#f5f5f5" stroke="transparent" points="8,-328.7 8,-351.7 152,-351.7 152,-328.7 8,-328.7"/>
<polygon fill="none" stroke="#000000" points="8,-328.7 8,-351.7 152,-351.7 152,-328.7 8,-328.7"/>
<text text-anchor="start" x="13" y="-337.3" font-family="Helvetica,sans-Serif" font-weight="bold" font-size="11.00" fill="#000000">act_ru_jobdef</text>
<text text-anchor="start" x="117.0437" y="-336.8" font-family="Helvetica,sans-Serif" font-size="11.00" fill="#000000">[table]</text>
<polygon fill="none" stroke="#000000" points="8,-306.7 8,-328.7 152,-328.7 152,-306.7 8,-306.7"/>
<image xlink:href="../../images/primaryKeys.png" width="11px" height="12px" preserveAspectRatio="xMinYMin meet" x="13" y="-323.7"/>
<text text-anchor="start" x="28" y="-313.8" font-family="Helvetica,sans-Serif" font-size="11.00" fill="#000000">id_</text>
<polygon fill="#ffffff" stroke="transparent" points="8,-284.7 8,-306.7 152,-306.7 152,-284.7 8,-284.7"/>
<polygon fill="none" stroke="#000000" points="8,-284.7 8,-306.7 152,-306.7 152,-284.7 8,-284.7"/>
<text text-anchor="start" x="28" y="-291.8" font-family="Helvetica,sans-Serif" font-size="11.00" fill="#000000">proc_def_id_</text>
<polygon fill="#ffffff" stroke="transparent" points="8,-262.7 8,-284.7 152,-284.7 152,-262.7 8,-262.7"/>
<polygon fill="none" stroke="#000000" points="8,-262.7 8,-284.7 152,-284.7 152,-262.7 8,-262.7"/>
<text text-anchor="start" x="28" y="-269.8" font-family="Helvetica,sans-Serif" font-size="11.00" fill="#000000">tenant_id_</text>
<polygon fill="none" stroke="#000000" points="8,-243.7 8,-262.7 152,-262.7 152,-243.7 8,-243.7"/>
<text text-anchor="start" x="11" y="-249.8" font-family="Helvetica,sans-Serif" font-size="11.00" fill="#000000">...</text>
<polygon fill="#ffffff" stroke="transparent" points="8,-224.7 8,-243.7 69,-243.7 69,-224.7 8,-224.7"/>
<polygon fill="none" stroke="#000000" points="8,-224.7 8,-243.7 69,-243.7 69,-224.7 8,-224.7"/>
<text text-anchor="start" x="11" y="-230.8" font-family="Helvetica,sans-Serif" font-size="11.00" fill="#000000"> &#160;</text>
<polygon fill="#ffffff" stroke="transparent" points="69,-224.7 69,-243.7 106,-243.7 106,-224.7 69,-224.7"/>
<polygon fill="none" stroke="#000000" points="69,-224.7 69,-243.7 106,-243.7 106,-224.7 69,-224.7"/>
<text text-anchor="start" x="96.8862" y="-230.8" font-family="Helvetica,sans-Serif" font-size="11.00" fill="#000000"> &#160;</text>
<polygon fill="#ffffff" stroke="transparent" points="106,-224.7 106,-243.7 152,-243.7 152,-224.7 106,-224.7"/>
<polygon fill="none" stroke="#000000" points="106,-224.7 106,-243.7 152,-243.7 152,-224.7 106,-224.7"/>
<text text-anchor="start" x="133.4053" y="-230.8" font-family="Helvetica,sans-Serif" font-size="11.00" fill="#000000">4 &gt;</text>
</a>
</g>
</g>
<!-- act_ru_batch&#45;&gt;act_ru_jobdef -->
<g id="edge1" class="edge">
<title>act_ru_batch:w&#45;&gt;act_ru_jobdef:e</title>
<path fill="none" stroke="#000000" d="M188.5097,-308.4188C176.3398,-311.5125 169.3909,-317.7 152,-317.7"/>
<polygon fill="#000000" stroke="#000000" points="195.0557,-307.6424 203.4241,-310.2749 199.0278,-307.1712 203,-306.7 203,-306.7 203,-306.7 199.0278,-307.1712 202.5759,-303.1251 195.0557,-307.6424 195.0557,-307.6424"/>
<ellipse fill="none" stroke="#000000" cx="191.878" cy="-308.0193" rx="3.2" ry="3.2"/>
</g>
<!-- act_ru_batch&#45;&gt;act_ru_jobdef -->
<g id="edge2" class="edge">
<title>act_ru_batch:w&#45;&gt;act_ru_jobdef:e</title>
<path fill="none" stroke="#000000" d="M188.9604,-288.7464C175.8775,-297.5584 173.0921,-317.7 152,-317.7"/>
<polygon fill="#000000" stroke="#000000" points="195.3129,-286.9156 203.997,-288.1592 199.1565,-285.8078 203,-284.7 203,-284.7 203,-284.7 199.1565,-285.8078 202.003,-281.2408 195.3129,-286.9156 195.3129,-286.9156"/>
<ellipse fill="none" stroke="#000000" cx="192.2381" cy="-287.8018" rx="3.2" ry="3.2"/>
</g>
<!-- act_ru_batch&#45;&gt;act_ru_jobdef -->
<g id="edge3" class="edge">
<title>act_ru_batch:w&#45;&gt;act_ru_jobdef:e</title>
<path fill="none" stroke="#000000" d="M188.5097,-326.9813C176.3398,-323.8875 169.3909,-317.7 152,-317.7"/>
<polygon fill="#000000" stroke="#000000" points="195.0557,-327.7576 202.5759,-332.2749 199.0278,-328.2288 203,-328.7 203,-328.7 203,-328.7 199.0278,-328.2288 203.4241,-325.1251 195.0557,-327.7576 195.0557,-327.7576"/>
<ellipse fill="none" stroke="#000000" cx="191.878" cy="-327.3807" rx="3.2" ry="3.2"/>
</g>
<!-- act_ru_incident -->
<g id="node3" class="node">
<title>act_ru_incident</title>
<g id="a_node3"><a xlink:href="../../tables/act_ru_incident.html" xlink:title="act_ru_incident" target="_top">
<polygon fill="#ffffff" stroke="transparent" points="505,-714.2 505,-775.2 646,-775.2 646,-714.2 505,-714.2"/>
<polygon fill="#f5f5f5" stroke="transparent" points="505.5,-751.7 505.5,-774.7 646.5,-774.7 646.5,-751.7 505.5,-751.7"/>
<polygon fill="none" stroke="#000000" points="505.5,-751.7 505.5,-774.7 646.5,-774.7 646.5,-751.7 505.5,-751.7"/>
<text text-anchor="start" x="510.5" y="-760.3" font-family="Helvetica,sans-Serif" font-weight="bold" font-size="11.00" fill="#000000">act_ru_incident</text>
<text text-anchor="start" x="612.0219" y="-759.8" font-family="Helvetica,sans-Serif" font-size="11.00" fill="#000000">[table]</text>
<polygon fill="none" stroke="#000000" points="505.5,-732.7 505.5,-751.7 646.5,-751.7 646.5,-732.7 505.5,-732.7"/>
<text text-anchor="start" x="508.5" y="-738.8" font-family="Helvetica,sans-Serif" font-size="11.00" fill="#000000">...</text>
<polygon fill="#ffffff" stroke="transparent" points="505.5,-713.7 505.5,-732.7 569.5,-732.7 569.5,-713.7 505.5,-713.7"/>
<polygon fill="none" stroke="#000000" points="505.5,-713.7 505.5,-732.7 569.5,-732.7 569.5,-713.7 505.5,-713.7"/>
<text text-anchor="start" x="508.5" y="-719.8" font-family="Helvetica,sans-Serif" font-size="11.00" fill="#000000">&lt; 6</text>
<polygon fill="#ffffff" stroke="transparent" points="569.5,-713.7 569.5,-732.7 603.5,-732.7 603.5,-713.7 569.5,-713.7"/>
<polygon fill="none" stroke="#000000" points="569.5,-713.7 569.5,-732.7 603.5,-732.7 603.5,-713.7 569.5,-713.7"/>
<text text-anchor="start" x="594.3862" y="-719.8" font-family="Helvetica,sans-Serif" font-size="11.00" fill="#000000"> &#160;</text>
<polygon fill="#ffffff" stroke="transparent" points="603.5,-713.7 603.5,-732.7 646.5,-732.7 646.5,-713.7 603.5,-713.7"/>
<polygon fill="none" stroke="#000000" points="603.5,-713.7 603.5,-732.7 646.5,-732.7 646.5,-713.7 603.5,-713.7"/>
<text text-anchor="start" x="627.9053" y="-719.8" font-family="Helvetica,sans-Serif" font-size="11.00" fill="#000000">2 &gt;</text>
</a>
</g>
</g>
<!-- act_ru_incident&#45;&gt;act_ru_jobdef -->
<g id="edge5" class="edge">
<title>act_ru_incident:w&#45;&gt;act_ru_jobdef:e</title>
<path fill="none" stroke="#000000" d="M490.9769,-741.916C360.269,-745.7806 287.6253,-799.0503 193,-702.7 132.713,-641.314 238.0393,-317.7 152,-317.7"/>
<polygon fill="#000000" stroke="#000000" points="497.5009,-741.819 505.5536,-745.2996 501.5004,-741.7595 505.5,-741.7 505.5,-741.7 505.5,-741.7 501.5004,-741.7595 505.4464,-738.1004 497.5009,-741.819 497.5009,-741.819"/>
<ellipse fill="none" stroke="#000000" cx="494.3012" cy="-741.8667" rx="3.2" ry="3.2"/>
</g>
<!-- act_ru_execution -->
<g id="node4" class="node">
<title>act_ru_execution</title>
<g id="a_node4"><a xlink:href="../../tables/act_ru_execution.html" xlink:title="act_ru_execution" target="_top">
<polygon fill="#ffffff" stroke="transparent" points="249,-631.2 249,-692.2 401,-692.2 401,-631.2 249,-631.2"/>
<polygon fill="#f5f5f5" stroke="transparent" points="249,-668.7 249,-691.7 401,-691.7 401,-668.7 249,-668.7"/>
<polygon fill="none" stroke="#000000" points="249,-668.7 249,-691.7 401,-691.7 401,-668.7 249,-668.7"/>
<text text-anchor="start" x="254" y="-677.3" font-family="Helvetica,sans-Serif" font-weight="bold" font-size="11.00" fill="#000000">act_ru_execution</text>
<text text-anchor="start" x="366.5219" y="-676.8" font-family="Helvetica,sans-Serif" font-size="11.00" fill="#000000">[table]</text>
<polygon fill="none" stroke="#000000" points="249,-649.7 249,-668.7 401,-668.7 401,-649.7 249,-649.7"/>
<text text-anchor="start" x="252" y="-655.8" font-family="Helvetica,sans-Serif" font-size="11.00" fill="#000000">...</text>
<polygon fill="#ffffff" stroke="transparent" points="249,-630.7 249,-649.7 316,-649.7 316,-630.7 249,-630.7"/>
<polygon fill="none" stroke="#000000" points="249,-630.7 249,-649.7 316,-649.7 316,-630.7 249,-630.7"/>
<text text-anchor="start" x="252" y="-636.8" font-family="Helvetica,sans-Serif" font-size="11.00" fill="#000000">&lt; 4</text>
<polygon fill="#ffffff" stroke="transparent" points="316,-630.7 316,-649.7 351,-649.7 351,-630.7 316,-630.7"/>
<polygon fill="none" stroke="#000000" points="316,-630.7 316,-649.7 351,-649.7 351,-630.7 316,-630.7"/>
<text text-anchor="start" x="341.8862" y="-636.8" font-family="Helvetica,sans-Serif" font-size="11.00" fill="#000000"> &#160;</text>
<polygon fill="#ffffff" stroke="transparent" points="351,-630.7 351,-649.7 401,-649.7 401,-630.7 351,-630.7"/>
<polygon fill="none" stroke="#000000" points="351,-630.7 351,-649.7 401,-649.7 401,-630.7 351,-630.7"/>
<text text-anchor="start" x="376.2904" y="-636.8" font-family="Helvetica,sans-Serif" font-size="11.00" fill="#000000">11 &gt;</text>
</a>
</g>
</g>
<!-- act_ru_incident&#45;&gt;act_ru_execution -->
<g id="edge4" class="edge">
<title>act_ru_incident:w&#45;&gt;act_ru_execution:e</title>
<path fill="none" stroke="#000000" d="M491.4633,-738.4463C448.1037,-721.7977 455.0987,-653.2273 401,-658.7"/>
<polygon fill="#000000" stroke="#000000" points="497.7066,-739.8934 504.687,-745.207 501.6033,-740.7967 505.5,-741.7 505.5,-741.7 505.5,-741.7 501.6033,-740.7967 506.313,-738.193 497.7066,-739.8934 497.7066,-739.8934"/>
<ellipse fill="none" stroke="#000000" cx="494.5893" cy="-739.1708" rx="3.2" ry="3.2"/>
</g>
<!-- act_ru_incident&#45;&gt;act_ru_execution -->
<g id="edge6" class="edge">
<title>act_ru_incident:w&#45;&gt;act_ru_execution:e</title>
<path fill="none" stroke="#000000" d="M490.9089,-741.4809C448.1625,-734.1021 454.8671,-665.0574 401,-658.7"/>
<polygon fill="#000000" stroke="#000000" points="497.5009,-741.5799 505.4459,-745.2996 501.5005,-741.6399 505.5,-741.7 505.5,-741.7 505.5,-741.7 501.5005,-741.6399 505.5541,-738.1004 497.5009,-741.5799 497.5009,-741.5799"/>
<ellipse fill="none" stroke="#000000" cx="494.3013" cy="-741.5318" rx="3.2" ry="3.2"/>
</g>
<!-- act_ru_variable -->
<g id="node5" class="node">
<title>act_ru_variable</title>
<g id="a_node5"><a xlink:href="../../tables/act_ru_variable.html" xlink:title="act_ru_variable" target="_top">
<polygon fill="#ffffff" stroke="transparent" points="498,-368.2 498,-693.2 653,-693.2 653,-368.2 498,-368.2"/>
<polygon fill="#f5f5f5" stroke="transparent" points="498.5,-669.7 498.5,-692.7 653.5,-692.7 653.5,-669.7 498.5,-669.7"/>
<polygon fill="none" stroke="#000000" points="498.5,-669.7 498.5,-692.7 653.5,-692.7 653.5,-669.7 498.5,-669.7"/>
<text text-anchor="start" x="503.5" y="-678.3" font-family="Helvetica,sans-Serif" font-weight="bold" font-size="11.00" fill="#000000">act_ru_variable</text>
<text text-anchor="start" x="618.5437" y="-677.8" font-family="Helvetica,sans-Serif" font-size="11.00" fill="#000000">[table]</text>
<polygon fill="none" stroke="#000000" points="498.5,-647.7 498.5,-669.7 653.5,-669.7 653.5,-647.7 498.5,-647.7"/>
<image xlink:href="../../images/primaryKeys.png" width="11px" height="12px" preserveAspectRatio="xMinYMin meet" x="503.5" y="-664.7"/>
<text text-anchor="start" x="518.5" y="-654.8" font-family="Helvetica,sans-Serif" font-size="11.00" fill="#000000">id_</text>
<polygon fill="#ffffff" stroke="transparent" points="498.5,-625.7 498.5,-647.7 653.5,-647.7 653.5,-625.7 498.5,-625.7"/>
<polygon fill="none" stroke="#000000" points="498.5,-625.7 498.5,-647.7 653.5,-647.7 653.5,-625.7 498.5,-625.7"/>
<text text-anchor="start" x="518.5" y="-632.8" font-family="Helvetica,sans-Serif" font-size="11.00" fill="#000000">type_</text>
<polygon fill="#ffffff" stroke="transparent" points="498.5,-603.7 498.5,-625.7 653.5,-625.7 653.5,-603.7 498.5,-603.7"/>
<polygon fill="none" stroke="#000000" points="498.5,-603.7 498.5,-625.7 653.5,-625.7 653.5,-603.7 498.5,-603.7"/>
<text text-anchor="start" x="518.5" y="-610.8" font-family="Helvetica,sans-Serif" font-size="11.00" fill="#000000">name_</text>
<polygon fill="#ffffff" stroke="transparent" points="498.5,-581.7 498.5,-603.7 653.5,-603.7 653.5,-581.7 498.5,-581.7"/>
<polygon fill="none" stroke="#000000" points="498.5,-581.7 498.5,-603.7 653.5,-603.7 653.5,-581.7 498.5,-581.7"/>
<image xlink:href="../../images/foreignKeys.png" width="11px" height="12px" preserveAspectRatio="xMinYMin meet" x="503.5" y="-598.7"/>
<text text-anchor="start" x="518.5" y="-588.8" font-family="Helvetica,sans-Serif" font-size="11.00" fill="#000000">execution_id_</text>
<polygon fill="#ffffff" stroke="transparent" points="498.5,-559.7 498.5,-581.7 653.5,-581.7 653.5,-559.7 498.5,-559.7"/>
<polygon fill="none" stroke="#000000" points="498.5,-559.7 498.5,-581.7 653.5,-581.7 653.5,-559.7 498.5,-559.7"/>
<image xlink:href="../../images/foreignKeys.png" width="11px" height="12px" preserveAspectRatio="xMinYMin meet" x="503.5" y="-576.7"/>
<text text-anchor="start" x="518.5" y="-566.8" font-family="Helvetica,sans-Serif" font-size="11.00" fill="#000000">proc_inst_id_</text>
<polygon fill="#ffffff" stroke="transparent" points="498.5,-537.7 498.5,-559.7 653.5,-559.7 653.5,-537.7 498.5,-537.7"/>
<polygon fill="none" stroke="#000000" points="498.5,-537.7 498.5,-559.7 653.5,-559.7 653.5,-537.7 498.5,-537.7"/>
<image xlink:href="../../images/foreignKeys.png" width="11px" height="12px" preserveAspectRatio="xMinYMin meet" x="503.5" y="-554.7"/>
<text text-anchor="start" x="518.5" y="-544.8" font-family="Helvetica,sans-Serif" font-size="11.00" fill="#000000">case_execution_id_</text>
<polygon fill="#ffffff" stroke="transparent" points="498.5,-515.7 498.5,-537.7 653.5,-537.7 653.5,-515.7 498.5,-515.7"/>
<polygon fill="none" stroke="#000000" points="498.5,-515.7 498.5,-537.7 653.5,-537.7 653.5,-515.7 498.5,-515.7"/>
<image xlink:href="../../images/foreignKeys.png" width="11px" height="12px" preserveAspectRatio="xMinYMin meet" x="503.5" y="-532.7"/>
<text text-anchor="start" x="518.5" y="-522.8" font-family="Helvetica,sans-Serif" font-size="11.00" fill="#000000">case_inst_id_</text>
<polygon fill="#ffffff" stroke="transparent" points="498.5,-493.7 498.5,-515.7 653.5,-515.7 653.5,-493.7 498.5,-493.7"/>
<polygon fill="none" stroke="#000000" points="498.5,-493.7 498.5,-515.7 653.5,-515.7 653.5,-493.7 498.5,-493.7"/>
<text text-anchor="start" x="518.5" y="-500.8" font-family="Helvetica,sans-Serif" font-size="11.00" fill="#000000">task_id_</text>
<polygon fill="#ffffff" stroke="transparent" points="498.5,-471.7 498.5,-493.7 653.5,-493.7 653.5,-471.7 498.5,-471.7"/>
<polygon fill="none" stroke="#000000" points="498.5,-471.7 498.5,-493.7 653.5,-493.7 653.5,-471.7 498.5,-471.7"/>
<image xlink:href="../../images/foreignKeys.png" width="11px" height="12px" preserveAspectRatio="xMinYMin meet" x="503.5" y="-488.7"/>
<text text-anchor="start" x="518.5" y="-478.8" font-family="Helvetica,sans-Serif" font-size="11.00" fill="#000000">batch_id_</text>
<polygon fill="#ffffff" stroke="transparent" points="498.5,-449.7 498.5,-471.7 653.5,-471.7 653.5,-449.7 498.5,-449.7"/>
<polygon fill="none" stroke="#000000" points="498.5,-449.7 498.5,-471.7 653.5,-471.7 653.5,-449.7 498.5,-449.7"/>
<image xlink:href="../../images/foreignKeys.png" width="11px" height="12px" preserveAspectRatio="xMinYMin meet" x="503.5" y="-466.7"/>
<text text-anchor="start" x="518.5" y="-456.8" font-family="Helvetica,sans-Serif" font-size="11.00" fill="#000000">bytearray_id_</text>
<polygon fill="#ffffff" stroke="transparent" points="498.5,-427.7 498.5,-449.7 653.5,-449.7 653.5,-427.7 498.5,-427.7"/>
<polygon fill="none" stroke="#000000" points="498.5,-427.7 498.5,-449.7 653.5,-449.7 653.5,-427.7 498.5,-427.7"/>
<text text-anchor="start" x="518.5" y="-434.8" font-family="Helvetica,sans-Serif" font-size="11.00" fill="#000000">var_scope_</text>
<polygon fill="#ffffff" stroke="transparent" points="498.5,-405.7 498.5,-427.7 653.5,-427.7 653.5,-405.7 498.5,-405.7"/>
<polygon fill="none" stroke="#000000" points="498.5,-405.7 498.5,-427.7 653.5,-427.7 653.5,-405.7 498.5,-405.7"/>
<text text-anchor="start" x="518.5" y="-412.8" font-family="Helvetica,sans-Serif" font-size="11.00" fill="#000000">tenant_id_</text>
<polygon fill="none" stroke="#000000" points="498.5,-386.7 498.5,-405.7 653.5,-405.7 653.5,-386.7 498.5,-386.7"/>
<text text-anchor="start" x="501.5" y="-392.8" font-family="Helvetica,sans-Serif" font-size="11.00" fill="#000000">...</text>
<polygon fill="#ffffff" stroke="transparent" points="498.5,-367.7 498.5,-386.7 574.5,-386.7 574.5,-367.7 498.5,-367.7"/>
<polygon fill="none" stroke="#000000" points="498.5,-367.7 498.5,-386.7 574.5,-386.7 574.5,-367.7 498.5,-367.7"/>
<text text-anchor="start" x="501.5" y="-373.8" font-family="Helvetica,sans-Serif" font-size="11.00" fill="#000000">&lt; 6</text>
<polygon fill="#ffffff" stroke="transparent" points="574.5,-367.7 574.5,-386.7 613.5,-386.7 613.5,-367.7 574.5,-367.7"/>
<polygon fill="none" stroke="#000000" points="574.5,-367.7 574.5,-386.7 613.5,-386.7 613.5,-367.7 574.5,-367.7"/>
<text text-anchor="start" x="604.3862" y="-373.8" font-family="Helvetica,sans-Serif" font-size="11.00" fill="#000000"> &#160;</text>
<polygon fill="#ffffff" stroke="transparent" points="613.5,-367.7 613.5,-386.7 653.5,-386.7 653.5,-367.7 613.5,-367.7"/>
<polygon fill="none" stroke="#000000" points="613.5,-367.7 613.5,-386.7 653.5,-386.7 653.5,-367.7 613.5,-367.7"/>
<text text-anchor="start" x="644.3862" y="-373.8" font-family="Helvetica,sans-Serif" font-size="11.00" fill="#000000"> &#160;</text>
</a>
</g>
</g>
<!-- act_ru_variable&#45;&gt;act_ru_batch -->
<g id="edge7" class="edge">
<title>act_ru_variable:w&#45;&gt;act_ru_batch:e</title>
<path fill="none" stroke="#000000" d="M484.0156,-482.7C471.6771,-482.7 464.1667,-482.7 447,-482.7"/>
<polygon fill="#000000" stroke="#000000" points="490.5,-482.7001 498.5,-486.3 494.5,-482.7 498.5,-482.7 498.5,-482.7 498.5,-482.7 494.5,-482.7 498.5,-479.1 490.5,-482.7001 490.5,-482.7001"/>
<ellipse fill="none" stroke="#000000" cx="487.3" cy="-482.7001" rx="3.2" ry="3.2"/>
</g>
<!-- act_ru_variable&#45;&gt;act_ru_execution -->
<g id="edge11" class="edge">
<title>act_ru_variable:w&#45;&gt;act_ru_execution:e</title>
<path fill="none" stroke="#000000" d="M483.7886,-594.7476C447.0198,-605.8877 447.8091,-658.7 401,-658.7"/>
<polygon fill="#000000" stroke="#000000" points="490.5764,-593.8029 498.9963,-596.2656 494.5382,-593.2515 498.5,-592.7 498.5,-592.7 498.5,-592.7 494.5382,-593.2515 498.0037,-589.1344 490.5764,-593.8029 490.5764,-593.8029"/>
<ellipse fill="none" stroke="#000000" cx="487.4069" cy="-594.2441" rx="3.2" ry="3.2"/>
</g>
<!-- act_ru_variable&#45;&gt;act_ru_execution -->
<g id="edge12" class="edge">
<title>act_ru_variable:w&#45;&gt;act_ru_execution:e</title>
<path fill="none" stroke="#000000" d="M484.4617,-574.198C473.0073,-581.4005 471.6755,-598.3325 457,-611.7 432.9783,-633.5806 433.4931,-658.7 401,-658.7"/>
<polygon fill="#000000" stroke="#000000" points="490.7374,-572.6343 499.3704,-574.1932 494.6187,-571.6671 498.5,-570.7 498.5,-570.7 498.5,-570.7 494.6187,-571.6671 497.6296,-567.2068 490.7374,-572.6343 490.7374,-572.6343"/>
<ellipse fill="none" stroke="#000000" cx="487.6323" cy="-573.408" rx="3.2" ry="3.2"/>
</g>
<!-- act_ge_bytearray -->
<g id="node6" class="node">
<title>act_ge_bytearray</title>
<g id="a_node6"><a xlink:href="../../tables/act_ge_bytearray.html" xlink:title="act_ge_bytearray" target="_top">
<polygon fill="#ffffff" stroke="transparent" points="248,-38.2 248,-99.2 402,-99.2 402,-38.2 248,-38.2"/>
<polygon fill="#f5f5f5" stroke="transparent" points="248,-75.7 248,-98.7 402,-98.7 402,-75.7 248,-75.7"/>
<polygon fill="none" stroke="#000000" points="248,-75.7 248,-98.7 402,-98.7 402,-75.7 248,-75.7"/>
<text text-anchor="start" x="253" y="-84.3" font-family="Helvetica,sans-Serif" font-weight="bold" font-size="11.00" fill="#000000">act_ge_bytearray</text>
<text text-anchor="start" x="367.5219" y="-83.8" font-family="Helvetica,sans-Serif" font-size="11.00" fill="#000000">[table]</text>
<polygon fill="none" stroke="#000000" points="248,-56.7 248,-75.7 402,-75.7 402,-56.7 248,-56.7"/>
<text text-anchor="start" x="251" y="-62.8" font-family="Helvetica,sans-Serif" font-size="11.00" fill="#000000">...</text>
<polygon fill="#ffffff" stroke="transparent" points="248,-37.7 248,-56.7 319,-56.7 319,-37.7 248,-37.7"/>
<polygon fill="none" stroke="#000000" points="248,-37.7 248,-56.7 319,-56.7 319,-37.7 248,-37.7"/>
<text text-anchor="start" x="251" y="-43.8" font-family="Helvetica,sans-Serif" font-size="11.00" fill="#000000">&lt; 1</text>
<polygon fill="#ffffff" stroke="transparent" points="319,-37.7 319,-56.7 356,-56.7 356,-37.7 319,-37.7"/>
<polygon fill="none" stroke="#000000" points="319,-37.7 319,-56.7 356,-56.7 356,-37.7 319,-37.7"/>
<text text-anchor="start" x="346.8862" y="-43.8" font-family="Helvetica,sans-Serif" font-size="11.00" fill="#000000"> &#160;</text>
<polygon fill="#ffffff" stroke="transparent" points="356,-37.7 356,-56.7 402,-56.7 402,-37.7 356,-37.7"/>
<polygon fill="none" stroke="#000000" points="356,-37.7 356,-56.7 402,-56.7 402,-37.7 356,-37.7"/>
<text text-anchor="start" x="383.4053" y="-43.8" font-family="Helvetica,sans-Serif" font-size="11.00" fill="#000000">3 &gt;</text>
</a>
</g>
</g>
<!-- act_ru_variable&#45;&gt;act_ge_bytearray -->
<g id="edge8" class="edge">
<title>act_ru_variable:w&#45;&gt;act_ge_bytearray:e</title>
<path fill="none" stroke="#000000" d="M484.4621,-456.9004C429.7046,-423.0984 492.522,-173.6738 457,-109.7 441.8036,-82.3318 433.3042,-65.7 402,-65.7"/>
<polygon fill="#000000" stroke="#000000" points="490.7779,-458.6098 497.5594,-464.175 494.6389,-459.6549 498.5,-460.7 498.5,-460.7 498.5,-460.7 494.6389,-459.6549 499.4406,-457.225 490.7779,-458.6098 490.7779,-458.6098"/>
<ellipse fill="none" stroke="#000000" cx="487.689" cy="-457.7738" rx="3.2" ry="3.2"/>
</g>
<!-- act_ru_case_execution -->
<g id="node7" class="node">
<title>act_ru_case_execution</title>
<g id="a_node7"><a xlink:href="../../tables/act_ru_case_execution.html" xlink:title="act_ru_case_execution" target="_top">
<polygon fill="#ffffff" stroke="transparent" points="230.5,-540.2 230.5,-601.2 419.5,-601.2 419.5,-540.2 230.5,-540.2"/>
<polygon fill="#f5f5f5" stroke="transparent" points="231,-577.7 231,-600.7 420,-600.7 420,-577.7 231,-577.7"/>
<polygon fill="none" stroke="#000000" points="231,-577.7 231,-600.7 420,-600.7 420,-577.7 231,-577.7"/>
<text text-anchor="start" x="236" y="-586.3" font-family="Helvetica,sans-Serif" font-weight="bold" font-size="11.00" fill="#000000">act_ru_case_execution</text>
<text text-anchor="start" x="385.5219" y="-585.8" font-family="Helvetica,sans-Serif" font-size="11.00" fill="#000000">[table]</text>
<polygon fill="none" stroke="#000000" points="231,-558.7 231,-577.7 420,-577.7 420,-558.7 231,-558.7"/>
<text text-anchor="start" x="234" y="-564.8" font-family="Helvetica,sans-Serif" font-size="11.00" fill="#000000">...</text>
<polygon fill="#ffffff" stroke="transparent" points="231,-539.7 231,-558.7 319,-558.7 319,-539.7 231,-539.7"/>
<polygon fill="none" stroke="#000000" points="231,-539.7 231,-558.7 319,-558.7 319,-539.7 231,-539.7"/>
<text text-anchor="start" x="234" y="-545.8" font-family="Helvetica,sans-Serif" font-size="11.00" fill="#000000">&lt; 3</text>
<polygon fill="#ffffff" stroke="transparent" points="319,-539.7 319,-558.7 365,-558.7 365,-539.7 319,-539.7"/>
<polygon fill="none" stroke="#000000" points="319,-539.7 319,-558.7 365,-558.7 365,-539.7 319,-539.7"/>
<text text-anchor="start" x="355.8862" y="-545.8" font-family="Helvetica,sans-Serif" font-size="11.00" fill="#000000"> &#160;</text>
<polygon fill="#ffffff" stroke="transparent" points="365,-539.7 365,-558.7 420,-558.7 420,-539.7 365,-539.7"/>
<polygon fill="none" stroke="#000000" points="365,-539.7 365,-558.7 420,-558.7 420,-539.7 365,-539.7"/>
<text text-anchor="start" x="401.4053" y="-545.8" font-family="Helvetica,sans-Serif" font-size="11.00" fill="#000000">7 &gt;</text>
</a>
</g>
</g>
<!-- act_ru_variable&#45;&gt;act_ru_case_execution -->
<g id="edge9" class="edge">
<title>act_ru_variable:w&#45;&gt;act_ru_case_execution:e</title>
<path fill="none" stroke="#000000" d="M483.9202,-549.8885C459.8826,-554.0481 450.4277,-567.7 420,-567.7"/>
<polygon fill="#000000" stroke="#000000" points="490.5264,-549.35 498.7925,-552.2881 494.5132,-549.025 498.5,-548.7 498.5,-548.7 498.5,-548.7 494.5132,-549.025 498.2075,-545.1119 490.5264,-549.35 490.5264,-549.35"/>
<ellipse fill="none" stroke="#000000" cx="487.337" cy="-549.6101" rx="3.2" ry="3.2"/>
</g>
<!-- act_ru_variable&#45;&gt;act_ru_case_execution -->
<g id="edge10" class="edge">
<title>act_ru_variable:w&#45;&gt;act_ru_case_execution:e</title>
<path fill="none" stroke="#000000" d="M484.0227,-528.9043C458.4187,-537.4205 453.8258,-567.7 420,-567.7"/>
<polygon fill="#000000" stroke="#000000" points="490.5912,-527.9043 499.0419,-530.259 494.5456,-527.3021 498.5,-526.7 498.5,-526.7 498.5,-526.7 494.5456,-527.3021 497.9581,-523.141 490.5912,-527.9043 490.5912,-527.9043"/>
<ellipse fill="none" stroke="#000000" cx="487.4276" cy="-528.386" rx="3.2" ry="3.2"/>
</g>
</g>
</svg>
