<?xml version="1.0" encoding="UTF-8" standalone="no"?>
<!DOCTYPE svg PUBLIC "-//W3C//DTD SVG 1.1//EN"
 "http://www.w3.org/Graphics/SVG/1.1/DTD/svg11.dtd">
<!-- Generated by graphviz version 2.40.1 (20161225.0304)
 -->
<!-- Title: oneDegreeRelationshipsDiagram Pages: 1 -->
<svg width="293pt" height="646pt"
 viewBox="0.00 0.00 293.00 646.20" xmlns="http://www.w3.org/2000/svg" xmlns:xlink="http://www.w3.org/1999/xlink">
<g id="graph0" class="graph" transform="scale(1 1) rotate(0) translate(4 642.2)">
<title>oneDegreeRelationshipsDiagram</title>
<polygon fill="#ffffff" stroke="transparent" points="-4,4 -4,-642.2 289,-642.2 289,4 -4,4"/>
<text text-anchor="middle" x="72.4936" y="-7.3" font-family="Helvetica,sans-Serif" font-size="11.00" fill="#000000">Generated by SchemaSpy</text>
<!-- act_hi_job_log -->
<g id="node1" class="node">
<title>act_hi_job_log</title>
<g id="a_node1"><a xlink:href="../../tables/act_hi_job_log.html" xlink:title="act_hi_job_log" target="_top">
<polygon fill="#ffffff" stroke="transparent" points="8,-38.2 8,-634.2 277,-634.2 277,-38.2 8,-38.2"/>
<polygon fill="#f5f5f5" stroke="transparent" points="10.5,-609.2 10.5,-632.2 275.5,-632.2 275.5,-609.2 10.5,-609.2"/>
<polygon fill="none" stroke="#000000" points="10.5,-609.2 10.5,-632.2 275.5,-632.2 275.5,-609.2 10.5,-609.2"/>
<text text-anchor="start" x="15.5" y="-617.8" font-family="Helvetica,sans-Serif" font-weight="bold" font-size="11.00" fill="#000000">act_hi_job_log</text>
<text text-anchor="start" x="240.5437" y="-617.3" font-family="Helvetica,sans-Serif" font-size="11.00" fill="#000000">[table]</text>
<polygon fill="none" stroke="#000000" points="10.5,-587.2 10.5,-609.2 191.5,-609.2 191.5,-587.2 10.5,-587.2"/>
<image xlink:href="../../images/primaryKeys.png" width="11px" height="12px" preserveAspectRatio="xMinYMin meet" x="15.5" y="-604.2"/>
<text text-anchor="start" x="30.5" y="-594.3" font-family="Helvetica,sans-Serif" font-size="11.00" fill="#000000">id_</text>
<polygon fill="none" stroke="#000000" points="191.5,-587.2 191.5,-609.2 275.5,-609.2 275.5,-587.2 191.5,-587.2"/>
<text text-anchor="start" x="194.5" y="-594.9" font-family="Helvetica,sans-Serif" font-size="11.00" fill="#000000">varchar[64]</text>
<polygon fill="none" stroke="#000000" points="10.5,-565.2 10.5,-587.2 191.5,-587.2 191.5,-565.2 10.5,-565.2"/>
<text text-anchor="start" x="30.5" y="-572.3" font-family="Helvetica,sans-Serif" font-size="11.00" fill="#000000">timestamp_</text>
<polygon fill="none" stroke="#000000" points="191.5,-565.2 191.5,-587.2 275.5,-587.2 275.5,-565.2 191.5,-565.2"/>
<text text-anchor="start" x="194.3807" y="-572.9" font-family="Helvetica,sans-Serif" font-size="11.00" fill="#000000">timestamp[29,6]</text>
<polygon fill="none" stroke="#000000" points="10.5,-543.2 10.5,-565.2 191.5,-565.2 191.5,-543.2 10.5,-543.2"/>
<text text-anchor="start" x="30.5" y="-550.3" font-family="Helvetica,sans-Serif" font-size="11.00" fill="#000000">job_id_</text>
<polygon fill="none" stroke="#000000" points="191.5,-543.2 191.5,-565.2 275.5,-565.2 275.5,-543.2 191.5,-543.2"/>
<text text-anchor="start" x="194.5" y="-550.9" font-family="Helvetica,sans-Serif" font-size="11.00" fill="#000000">varchar[64]</text>
<polygon fill="none" stroke="#000000" points="10.5,-521.2 10.5,-543.2 191.5,-543.2 191.5,-521.2 10.5,-521.2"/>
<text text-anchor="start" x="30.5" y="-528.3" font-family="Helvetica,sans-Serif" font-size="11.00" fill="#000000">job_duedate_</text>
<polygon fill="none" stroke="#000000" points="191.5,-521.2 191.5,-543.2 275.5,-543.2 275.5,-521.2 191.5,-521.2"/>
<text text-anchor="start" x="194.3807" y="-528.9" font-family="Helvetica,sans-Serif" font-size="11.00" fill="#000000">timestamp[29,6]</text>
<polygon fill="none" stroke="#000000" points="10.5,-499.2 10.5,-521.2 191.5,-521.2 191.5,-499.2 10.5,-499.2"/>
<text text-anchor="start" x="30.5" y="-506.3" font-family="Helvetica,sans-Serif" font-size="11.00" fill="#000000">job_retries_</text>
<polygon fill="none" stroke="#000000" points="191.5,-499.2 191.5,-521.2 275.5,-521.2 275.5,-499.2 191.5,-499.2"/>
<text text-anchor="start" x="194.5" y="-506.9" font-family="Helvetica,sans-Serif" font-size="11.00" fill="#000000">int4[10]</text>
<polygon fill="none" stroke="#000000" points="10.5,-477.2 10.5,-499.2 191.5,-499.2 191.5,-477.2 10.5,-477.2"/>
<text text-anchor="start" x="30.5" y="-484.3" font-family="Helvetica,sans-Serif" font-size="11.00" fill="#000000">job_priority_</text>
<polygon fill="none" stroke="#000000" points="191.5,-477.2 191.5,-499.2 275.5,-499.2 275.5,-477.2 191.5,-477.2"/>
<text text-anchor="start" x="194.5" y="-484.9" font-family="Helvetica,sans-Serif" font-size="11.00" fill="#000000">int8[19]</text>
<polygon fill="none" stroke="#000000" points="10.5,-455.2 10.5,-477.2 191.5,-477.2 191.5,-455.2 10.5,-455.2"/>
<text text-anchor="start" x="30.5" y="-462.3" font-family="Helvetica,sans-Serif" font-size="11.00" fill="#000000">job_exception_msg_</text>
<polygon fill="none" stroke="#000000" points="191.5,-455.2 191.5,-477.2 275.5,-477.2 275.5,-455.2 191.5,-455.2"/>
<text text-anchor="start" x="194.5" y="-462.9" font-family="Helvetica,sans-Serif" font-size="11.00" fill="#000000">varchar[4000]</text>
<polygon fill="#ffffff" stroke="transparent" points="10.5,-433.2 10.5,-455.2 191.5,-455.2 191.5,-433.2 10.5,-433.2"/>
<polygon fill="none" stroke="#000000" points="10.5,-433.2 10.5,-455.2 191.5,-455.2 191.5,-433.2 10.5,-433.2"/>
<text text-anchor="start" x="30.5" y="-440.3" font-family="Helvetica,sans-Serif" font-size="11.00" fill="#000000">job_exception_stack_id_</text>
<polygon fill="none" stroke="#000000" points="191.5,-433.2 191.5,-455.2 275.5,-455.2 275.5,-433.2 191.5,-433.2"/>
<text text-anchor="start" x="194.5" y="-440.9" font-family="Helvetica,sans-Serif" font-size="11.00" fill="#000000">varchar[64]</text>
<polygon fill="none" stroke="#000000" points="10.5,-411.2 10.5,-433.2 191.5,-433.2 191.5,-411.2 10.5,-411.2"/>
<text text-anchor="start" x="30.5" y="-418.3" font-family="Helvetica,sans-Serif" font-size="11.00" fill="#000000">job_state_</text>
<polygon fill="none" stroke="#000000" points="191.5,-411.2 191.5,-433.2 275.5,-433.2 275.5,-411.2 191.5,-411.2"/>
<text text-anchor="start" x="194.5" y="-418.9" font-family="Helvetica,sans-Serif" font-size="11.00" fill="#000000">int4[10]</text>
<polygon fill="#ffffff" stroke="transparent" points="10.5,-389.2 10.5,-411.2 191.5,-411.2 191.5,-389.2 10.5,-389.2"/>
<polygon fill="none" stroke="#000000" points="10.5,-389.2 10.5,-411.2 191.5,-411.2 191.5,-389.2 10.5,-389.2"/>
<text text-anchor="start" x="30.5" y="-396.3" font-family="Helvetica,sans-Serif" font-size="11.00" fill="#000000">job_def_id_</text>
<polygon fill="none" stroke="#000000" points="191.5,-389.2 191.5,-411.2 275.5,-411.2 275.5,-389.2 191.5,-389.2"/>
<text text-anchor="start" x="194.5" y="-396.9" font-family="Helvetica,sans-Serif" font-size="11.00" fill="#000000">varchar[64]</text>
<polygon fill="none" stroke="#000000" points="10.5,-367.2 10.5,-389.2 191.5,-389.2 191.5,-367.2 10.5,-367.2"/>
<text text-anchor="start" x="30.5" y="-374.3" font-family="Helvetica,sans-Serif" font-size="11.00" fill="#000000">job_def_type_</text>
<polygon fill="none" stroke="#000000" points="191.5,-367.2 191.5,-389.2 275.5,-389.2 275.5,-367.2 191.5,-367.2"/>
<text text-anchor="start" x="194.5" y="-374.9" font-family="Helvetica,sans-Serif" font-size="11.00" fill="#000000">varchar[255]</text>
<polygon fill="#ffffff" stroke="transparent" points="10.5,-345.2 10.5,-367.2 191.5,-367.2 191.5,-345.2 10.5,-345.2"/>
<polygon fill="none" stroke="#000000" points="10.5,-345.2 10.5,-367.2 191.5,-367.2 191.5,-345.2 10.5,-345.2"/>
<text text-anchor="start" x="30.5" y="-352.3" font-family="Helvetica,sans-Serif" font-size="11.00" fill="#000000">job_def_configuration_</text>
<polygon fill="none" stroke="#000000" points="191.5,-345.2 191.5,-367.2 275.5,-367.2 275.5,-345.2 191.5,-345.2"/>
<text text-anchor="start" x="194.5" y="-352.9" font-family="Helvetica,sans-Serif" font-size="11.00" fill="#000000">varchar[255]</text>
<polygon fill="none" stroke="#000000" points="10.5,-323.2 10.5,-345.2 191.5,-345.2 191.5,-323.2 10.5,-323.2"/>
<text text-anchor="start" x="30.5" y="-330.3" font-family="Helvetica,sans-Serif" font-size="11.00" fill="#000000">act_id_</text>
<polygon fill="none" stroke="#000000" points="191.5,-323.2 191.5,-345.2 275.5,-345.2 275.5,-323.2 191.5,-323.2"/>
<text text-anchor="start" x="194.5" y="-330.9" font-family="Helvetica,sans-Serif" font-size="11.00" fill="#000000">varchar[255]</text>
<polygon fill="none" stroke="#000000" points="10.5,-301.2 10.5,-323.2 191.5,-323.2 191.5,-301.2 10.5,-301.2"/>
<text text-anchor="start" x="30.5" y="-308.3" font-family="Helvetica,sans-Serif" font-size="11.00" fill="#000000">failed_act_id_</text>
<polygon fill="none" stroke="#000000" points="191.5,-301.2 191.5,-323.2 275.5,-323.2 275.5,-301.2 191.5,-301.2"/>
<text text-anchor="start" x="194.5" y="-308.9" font-family="Helvetica,sans-Serif" font-size="11.00" fill="#000000">varchar[255]</text>
<polygon fill="none" stroke="#000000" points="10.5,-279.2 10.5,-301.2 191.5,-301.2 191.5,-279.2 10.5,-279.2"/>
<text text-anchor="start" x="30.5" y="-286.3" font-family="Helvetica,sans-Serif" font-size="11.00" fill="#000000">execution_id_</text>
<polygon fill="none" stroke="#000000" points="191.5,-279.2 191.5,-301.2 275.5,-301.2 275.5,-279.2 191.5,-279.2"/>
<text text-anchor="start" x="194.5" y="-286.9" font-family="Helvetica,sans-Serif" font-size="11.00" fill="#000000">varchar[64]</text>
<polygon fill="#ffffff" stroke="transparent" points="10.5,-257.2 10.5,-279.2 191.5,-279.2 191.5,-257.2 10.5,-257.2"/>
<polygon fill="none" stroke="#000000" points="10.5,-257.2 10.5,-279.2 191.5,-279.2 191.5,-257.2 10.5,-257.2"/>
<text text-anchor="start" x="30.5" y="-264.3" font-family="Helvetica,sans-Serif" font-size="11.00" fill="#000000">root_proc_inst_id_</text>
<polygon fill="none" stroke="#000000" points="191.5,-257.2 191.5,-279.2 275.5,-279.2 275.5,-257.2 191.5,-257.2"/>
<text text-anchor="start" x="194.5" y="-264.9" font-family="Helvetica,sans-Serif" font-size="11.00" fill="#000000">varchar[64]</text>
<polygon fill="#ffffff" stroke="transparent" points="10.5,-235.2 10.5,-257.2 191.5,-257.2 191.5,-235.2 10.5,-235.2"/>
<polygon fill="none" stroke="#000000" points="10.5,-235.2 10.5,-257.2 191.5,-257.2 191.5,-235.2 10.5,-235.2"/>
<text text-anchor="start" x="30.5" y="-242.3" font-family="Helvetica,sans-Serif" font-size="11.00" fill="#000000">process_instance_id_</text>
<polygon fill="none" stroke="#000000" points="191.5,-235.2 191.5,-257.2 275.5,-257.2 275.5,-235.2 191.5,-235.2"/>
<text text-anchor="start" x="194.5" y="-242.9" font-family="Helvetica,sans-Serif" font-size="11.00" fill="#000000">varchar[64]</text>
<polygon fill="#ffffff" stroke="transparent" points="10.5,-213.2 10.5,-235.2 191.5,-235.2 191.5,-213.2 10.5,-213.2"/>
<polygon fill="none" stroke="#000000" points="10.5,-213.2 10.5,-235.2 191.5,-235.2 191.5,-213.2 10.5,-213.2"/>
<text text-anchor="start" x="30.5" y="-220.3" font-family="Helvetica,sans-Serif" font-size="11.00" fill="#000000">process_def_id_</text>
<polygon fill="none" stroke="#000000" points="191.5,-213.2 191.5,-235.2 275.5,-235.2 275.5,-213.2 191.5,-213.2"/>
<text text-anchor="start" x="194.5" y="-220.9" font-family="Helvetica,sans-Serif" font-size="11.00" fill="#000000">varchar[64]</text>
<polygon fill="#ffffff" stroke="transparent" points="10.5,-191.2 10.5,-213.2 191.5,-213.2 191.5,-191.2 10.5,-191.2"/>
<polygon fill="none" stroke="#000000" points="10.5,-191.2 10.5,-213.2 191.5,-213.2 191.5,-191.2 10.5,-191.2"/>
<text text-anchor="start" x="30.5" y="-198.3" font-family="Helvetica,sans-Serif" font-size="11.00" fill="#000000">process_def_key_</text>
<polygon fill="none" stroke="#000000" points="191.5,-191.2 191.5,-213.2 275.5,-213.2 275.5,-191.2 191.5,-191.2"/>
<text text-anchor="start" x="194.5" y="-198.9" font-family="Helvetica,sans-Serif" font-size="11.00" fill="#000000">varchar[255]</text>
<polygon fill="none" stroke="#000000" points="10.5,-169.2 10.5,-191.2 191.5,-191.2 191.5,-169.2 10.5,-169.2"/>
<text text-anchor="start" x="30.5" y="-176.3" font-family="Helvetica,sans-Serif" font-size="11.00" fill="#000000">deployment_id_</text>
<polygon fill="none" stroke="#000000" points="191.5,-169.2 191.5,-191.2 275.5,-191.2 275.5,-169.2 191.5,-169.2"/>
<text text-anchor="start" x="194.5" y="-176.9" font-family="Helvetica,sans-Serif" font-size="11.00" fill="#000000">varchar[64]</text>
<polygon fill="none" stroke="#000000" points="10.5,-147.2 10.5,-169.2 191.5,-169.2 191.5,-147.2 10.5,-147.2"/>
<text text-anchor="start" x="30.5" y="-154.3" font-family="Helvetica,sans-Serif" font-size="11.00" fill="#000000">sequence_counter_</text>
<polygon fill="none" stroke="#000000" points="191.5,-147.2 191.5,-169.2 275.5,-169.2 275.5,-147.2 191.5,-147.2"/>
<text text-anchor="start" x="194.5" y="-154.9" font-family="Helvetica,sans-Serif" font-size="11.00" fill="#000000">int8[19]</text>
<polygon fill="#ffffff" stroke="transparent" points="10.5,-125.2 10.5,-147.2 191.5,-147.2 191.5,-125.2 10.5,-125.2"/>
<polygon fill="none" stroke="#000000" points="10.5,-125.2 10.5,-147.2 191.5,-147.2 191.5,-125.2 10.5,-125.2"/>
<text text-anchor="start" x="30.5" y="-132.3" font-family="Helvetica,sans-Serif" font-size="11.00" fill="#000000">tenant_id_</text>
<polygon fill="none" stroke="#000000" points="191.5,-125.2 191.5,-147.2 275.5,-147.2 275.5,-125.2 191.5,-125.2"/>
<text text-anchor="start" x="194.5" y="-132.9" font-family="Helvetica,sans-Serif" font-size="11.00" fill="#000000">varchar[64]</text>
<polygon fill="none" stroke="#000000" points="10.5,-103.2 10.5,-125.2 191.5,-125.2 191.5,-103.2 10.5,-103.2"/>
<text text-anchor="start" x="30.5" y="-110.3" font-family="Helvetica,sans-Serif" font-size="11.00" fill="#000000">hostname_</text>
<polygon fill="none" stroke="#000000" points="191.5,-103.2 191.5,-125.2 275.5,-125.2 275.5,-103.2 191.5,-103.2"/>
<text text-anchor="start" x="194.5" y="-110.9" font-family="Helvetica,sans-Serif" font-size="11.00" fill="#000000">varchar[255]</text>
<polygon fill="#ffffff" stroke="transparent" points="10.5,-81.2 10.5,-103.2 191.5,-103.2 191.5,-81.2 10.5,-81.2"/>
<polygon fill="none" stroke="#000000" points="10.5,-81.2 10.5,-103.2 191.5,-103.2 191.5,-81.2 10.5,-81.2"/>
<text text-anchor="start" x="30.5" y="-88.3" font-family="Helvetica,sans-Serif" font-size="11.00" fill="#000000">removal_time_</text>
<polygon fill="none" stroke="#000000" points="191.5,-81.2 191.5,-103.2 275.5,-103.2 275.5,-81.2 191.5,-81.2"/>
<text text-anchor="start" x="194.3807" y="-88.9" font-family="Helvetica,sans-Serif" font-size="11.00" fill="#000000">timestamp[29,6]</text>
<polygon fill="none" stroke="#000000" points="10.5,-59.2 10.5,-81.2 191.5,-81.2 191.5,-59.2 10.5,-59.2"/>
<text text-anchor="start" x="30.5" y="-66.3" font-family="Helvetica,sans-Serif" font-size="11.00" fill="#000000">batch_id_</text>
<polygon fill="none" stroke="#000000" points="191.5,-59.2 191.5,-81.2 275.5,-81.2 275.5,-59.2 191.5,-59.2"/>
<text text-anchor="start" x="194.5" y="-66.9" font-family="Helvetica,sans-Serif" font-size="11.00" fill="#000000">varchar[64]</text>
<polygon fill="#ffffff" stroke="transparent" points="10.5,-40.2 10.5,-59.2 105.5,-59.2 105.5,-40.2 10.5,-40.2"/>
<polygon fill="none" stroke="#000000" points="10.5,-40.2 10.5,-59.2 105.5,-59.2 105.5,-40.2 10.5,-40.2"/>
<text text-anchor="start" x="13.5" y="-46.3" font-family="Helvetica,sans-Serif" font-size="11.00" fill="#000000">&lt; 0</text>
<polygon fill="#ffffff" stroke="transparent" points="105.5,-40.2 105.5,-59.2 191.5,-59.2 191.5,-40.2 105.5,-40.2"/>
<polygon fill="none" stroke="#000000" points="105.5,-40.2 105.5,-59.2 191.5,-59.2 191.5,-40.2 105.5,-40.2"/>
<text text-anchor="start" x="182.3862" y="-46.3" font-family="Helvetica,sans-Serif" font-size="11.00" fill="#000000"> &#160;</text>
<polygon fill="#ffffff" stroke="transparent" points="191.5,-40.2 191.5,-59.2 275.5,-59.2 275.5,-40.2 191.5,-40.2"/>
<polygon fill="none" stroke="#000000" points="191.5,-40.2 191.5,-59.2 275.5,-59.2 275.5,-40.2 191.5,-40.2"/>
<text text-anchor="start" x="256.9053" y="-46.3" font-family="Helvetica,sans-Serif" font-size="11.00" fill="#000000">0 &gt;</text>
<polygon fill="none" stroke="#000000" stroke-width="2" points="9,-39.2 9,-633.2 276,-633.2 276,-39.2 9,-39.2"/>
</a>
</g>
</g>
</g>
</svg>
