<?xml version="1.0" encoding="UTF-8" standalone="no"?>
<!DOCTYPE svg PUBLIC "-//W3C//DTD SVG 1.1//EN"
 "http://www.w3.org/Graphics/SVG/1.1/DTD/svg11.dtd">
<!-- Generated by graphviz version 2.40.1 (20161225.0304)
 -->
<!-- Title: twoDegreesRelationshipsDiagram Pages: 1 -->
<svg width="861pt" height="297pt"
 viewBox="0.00 0.00 861.00 296.70" xmlns="http://www.w3.org/2000/svg" xmlns:xlink="http://www.w3.org/1999/xlink">
<g id="graph0" class="graph" transform="scale(1 1) rotate(0) translate(4 292.7)">
<title>twoDegreesRelationshipsDiagram</title>
<polygon fill="#ffffff" stroke="transparent" points="-4,4 -4,-292.7 857,-292.7 857,4 -4,4"/>
<text text-anchor="middle" x="72.4936" y="-7.3" font-family="Helvetica,sans-Serif" font-size="11.00" fill="#000000">Generated by SchemaSpy</text>
<!-- act_ru_case_execution -->
<g id="node1" class="node">
<title>act_ru_case_execution</title>
<g id="a_node1"><a xlink:href="../../tables/act_ru_case_execution.html" xlink:title="act_ru_case_execution" target="_top">
<polygon fill="#ffffff" stroke="transparent" points="201,-223.7 201,-284.7 390,-284.7 390,-223.7 201,-223.7"/>
<polygon fill="#f5f5f5" stroke="transparent" points="201.5,-261.2 201.5,-284.2 390.5,-284.2 390.5,-261.2 201.5,-261.2"/>
<polygon fill="none" stroke="#000000" points="201.5,-261.2 201.5,-284.2 390.5,-284.2 390.5,-261.2 201.5,-261.2"/>
<text text-anchor="start" x="206.5" y="-269.8" font-family="Helvetica,sans-Serif" font-weight="bold" font-size="11.00" fill="#000000">act_ru_case_execution</text>
<text text-anchor="start" x="356.0219" y="-269.3" font-family="Helvetica,sans-Serif" font-size="11.00" fill="#000000">[table]</text>
<polygon fill="none" stroke="#000000" points="201.5,-242.2 201.5,-261.2 390.5,-261.2 390.5,-242.2 201.5,-242.2"/>
<text text-anchor="start" x="204.5" y="-248.3" font-family="Helvetica,sans-Serif" font-size="11.00" fill="#000000">...</text>
<polygon fill="#ffffff" stroke="transparent" points="201.5,-223.2 201.5,-242.2 289.5,-242.2 289.5,-223.2 201.5,-223.2"/>
<polygon fill="none" stroke="#000000" points="201.5,-223.2 201.5,-242.2 289.5,-242.2 289.5,-223.2 201.5,-223.2"/>
<text text-anchor="start" x="204.5" y="-229.3" font-family="Helvetica,sans-Serif" font-size="11.00" fill="#000000">&lt; 3</text>
<polygon fill="#ffffff" stroke="transparent" points="289.5,-223.2 289.5,-242.2 335.5,-242.2 335.5,-223.2 289.5,-223.2"/>
<polygon fill="none" stroke="#000000" points="289.5,-223.2 289.5,-242.2 335.5,-242.2 335.5,-223.2 289.5,-223.2"/>
<text text-anchor="start" x="326.3862" y="-229.3" font-family="Helvetica,sans-Serif" font-size="11.00" fill="#000000"> &#160;</text>
<polygon fill="#ffffff" stroke="transparent" points="335.5,-223.2 335.5,-242.2 390.5,-242.2 390.5,-223.2 335.5,-223.2"/>
<polygon fill="none" stroke="#000000" points="335.5,-223.2 335.5,-242.2 390.5,-242.2 390.5,-223.2 335.5,-223.2"/>
<text text-anchor="start" x="371.9053" y="-229.3" font-family="Helvetica,sans-Serif" font-size="11.00" fill="#000000">7 &gt;</text>
</a>
</g>
</g>
<!-- act_re_case_def -->
<g id="node2" class="node">
<title>act_re_case_def</title>
<g id="a_node2"><a xlink:href="../../tables/act_re_case_def.html" xlink:title="act_re_case_def" target="_top">
<polygon fill="#ffffff" stroke="transparent" points="8,-197.7 8,-258.7 152,-258.7 152,-197.7 8,-197.7"/>
<polygon fill="#f5f5f5" stroke="transparent" points="8,-235.2 8,-258.2 152,-258.2 152,-235.2 8,-235.2"/>
<polygon fill="none" stroke="#000000" points="8,-235.2 8,-258.2 152,-258.2 152,-235.2 8,-235.2"/>
<text text-anchor="start" x="13" y="-243.8" font-family="Helvetica,sans-Serif" font-weight="bold" font-size="11.00" fill="#000000">act_re_case_def</text>
<text text-anchor="start" x="117.5219" y="-243.3" font-family="Helvetica,sans-Serif" font-size="11.00" fill="#000000">[table]</text>
<polygon fill="none" stroke="#000000" points="8,-216.2 8,-235.2 152,-235.2 152,-216.2 8,-216.2"/>
<text text-anchor="start" x="11" y="-222.3" font-family="Helvetica,sans-Serif" font-size="11.00" fill="#000000">...</text>
<polygon fill="#ffffff" stroke="transparent" points="8,-197.2 8,-216.2 69,-216.2 69,-197.2 8,-197.2"/>
<polygon fill="none" stroke="#000000" points="8,-197.2 8,-216.2 69,-216.2 69,-197.2 8,-197.2"/>
<text text-anchor="start" x="11" y="-203.3" font-family="Helvetica,sans-Serif" font-size="11.00" fill="#000000"> &#160;</text>
<polygon fill="#ffffff" stroke="transparent" points="69,-197.2 69,-216.2 106,-216.2 106,-197.2 69,-197.2"/>
<polygon fill="none" stroke="#000000" points="69,-197.2 69,-216.2 106,-216.2 106,-197.2 69,-197.2"/>
<text text-anchor="start" x="96.8862" y="-203.3" font-family="Helvetica,sans-Serif" font-size="11.00" fill="#000000"> &#160;</text>
<polygon fill="#ffffff" stroke="transparent" points="106,-197.2 106,-216.2 152,-216.2 152,-197.2 106,-197.2"/>
<polygon fill="none" stroke="#000000" points="106,-197.2 106,-216.2 152,-216.2 152,-197.2 106,-197.2"/>
<text text-anchor="start" x="133.4053" y="-203.3" font-family="Helvetica,sans-Serif" font-size="11.00" fill="#000000">2 &gt;</text>
</a>
</g>
</g>
<!-- act_ru_case_execution&#45;&gt;act_re_case_def -->
<g id="edge1" class="edge">
<title>act_ru_case_execution:w&#45;&gt;act_re_case_def:e</title>
<path fill="none" stroke="#000000" d="M187.5104,-247.5848C175.3677,-240.4407 171.0259,-225.2 152,-225.2"/>
<polygon fill="#000000" stroke="#000000" points="193.7544,-249.1984 200.5993,-254.6855 197.6272,-250.1992 201.5,-251.2 201.5,-251.2 201.5,-251.2 197.6272,-250.1992 202.4007,-247.7145 193.7544,-249.1984 193.7544,-249.1984"/>
<ellipse fill="none" stroke="#000000" cx="190.6562" cy="-248.3977" rx="3.2" ry="3.2"/>
</g>
<!-- act_ru_execution -->
<g id="node3" class="node">
<title>act_ru_execution</title>
<g id="a_node3"><a xlink:href="../../tables/act_ru_execution.html" xlink:title="act_ru_execution" target="_top">
<polygon fill="#ffffff" stroke="transparent" points="219.5,-86.7 219.5,-147.7 371.5,-147.7 371.5,-86.7 219.5,-86.7"/>
<polygon fill="#f5f5f5" stroke="transparent" points="219.5,-124.2 219.5,-147.2 371.5,-147.2 371.5,-124.2 219.5,-124.2"/>
<polygon fill="none" stroke="#000000" points="219.5,-124.2 219.5,-147.2 371.5,-147.2 371.5,-124.2 219.5,-124.2"/>
<text text-anchor="start" x="224.5" y="-132.8" font-family="Helvetica,sans-Serif" font-weight="bold" font-size="11.00" fill="#000000">act_ru_execution</text>
<text text-anchor="start" x="337.0219" y="-132.3" font-family="Helvetica,sans-Serif" font-size="11.00" fill="#000000">[table]</text>
<polygon fill="none" stroke="#000000" points="219.5,-105.2 219.5,-124.2 371.5,-124.2 371.5,-105.2 219.5,-105.2"/>
<text text-anchor="start" x="222.5" y="-111.3" font-family="Helvetica,sans-Serif" font-size="11.00" fill="#000000">...</text>
<polygon fill="#ffffff" stroke="transparent" points="219.5,-86.2 219.5,-105.2 286.5,-105.2 286.5,-86.2 219.5,-86.2"/>
<polygon fill="none" stroke="#000000" points="219.5,-86.2 219.5,-105.2 286.5,-105.2 286.5,-86.2 219.5,-86.2"/>
<text text-anchor="start" x="222.5" y="-92.3" font-family="Helvetica,sans-Serif" font-size="11.00" fill="#000000">&lt; 4</text>
<polygon fill="#ffffff" stroke="transparent" points="286.5,-86.2 286.5,-105.2 321.5,-105.2 321.5,-86.2 286.5,-86.2"/>
<polygon fill="none" stroke="#000000" points="286.5,-86.2 286.5,-105.2 321.5,-105.2 321.5,-86.2 286.5,-86.2"/>
<text text-anchor="start" x="312.3862" y="-92.3" font-family="Helvetica,sans-Serif" font-size="11.00" fill="#000000"> &#160;</text>
<polygon fill="#ffffff" stroke="transparent" points="321.5,-86.2 321.5,-105.2 371.5,-105.2 371.5,-86.2 321.5,-86.2"/>
<polygon fill="none" stroke="#000000" points="321.5,-86.2 321.5,-105.2 371.5,-105.2 371.5,-86.2 321.5,-86.2"/>
<text text-anchor="start" x="346.7904" y="-92.3" font-family="Helvetica,sans-Serif" font-size="11.00" fill="#000000">11 &gt;</text>
</a>
</g>
</g>
<!-- act_re_procdef -->
<g id="node4" class="node">
<title>act_re_procdef</title>
<g id="a_node4"><a xlink:href="../../tables/act_re_procdef.html" xlink:title="act_re_procdef" target="_top">
<polygon fill="#ffffff" stroke="transparent" points="11.5,-57.7 11.5,-118.7 148.5,-118.7 148.5,-57.7 11.5,-57.7"/>
<polygon fill="#f5f5f5" stroke="transparent" points="12,-95.2 12,-118.2 149,-118.2 149,-95.2 12,-95.2"/>
<polygon fill="none" stroke="#000000" points="12,-95.2 12,-118.2 149,-118.2 149,-95.2 12,-95.2"/>
<text text-anchor="start" x="17" y="-103.8" font-family="Helvetica,sans-Serif" font-weight="bold" font-size="11.00" fill="#000000">act_re_procdef</text>
<text text-anchor="start" x="114.5219" y="-103.3" font-family="Helvetica,sans-Serif" font-size="11.00" fill="#000000">[table]</text>
<polygon fill="none" stroke="#000000" points="12,-76.2 12,-95.2 149,-95.2 149,-76.2 12,-76.2"/>
<text text-anchor="start" x="15" y="-82.3" font-family="Helvetica,sans-Serif" font-size="11.00" fill="#000000">...</text>
<polygon fill="#ffffff" stroke="transparent" points="12,-57.2 12,-76.2 70,-76.2 70,-57.2 12,-57.2"/>
<polygon fill="none" stroke="#000000" points="12,-57.2 12,-76.2 70,-76.2 70,-57.2 12,-57.2"/>
<text text-anchor="start" x="15" y="-63.3" font-family="Helvetica,sans-Serif" font-size="11.00" fill="#000000"> &#160;</text>
<polygon fill="#ffffff" stroke="transparent" points="70,-57.2 70,-76.2 105,-76.2 105,-57.2 70,-57.2"/>
<polygon fill="none" stroke="#000000" points="70,-57.2 70,-76.2 105,-76.2 105,-57.2 70,-57.2"/>
<text text-anchor="start" x="95.8862" y="-63.3" font-family="Helvetica,sans-Serif" font-size="11.00" fill="#000000"> &#160;</text>
<polygon fill="#ffffff" stroke="transparent" points="105,-57.2 105,-76.2 149,-76.2 149,-57.2 105,-57.2"/>
<polygon fill="none" stroke="#000000" points="105,-57.2 105,-76.2 149,-76.2 149,-57.2 105,-57.2"/>
<text text-anchor="start" x="130.4053" y="-63.3" font-family="Helvetica,sans-Serif" font-size="11.00" fill="#000000">4 &gt;</text>
</a>
</g>
</g>
<!-- act_ru_execution&#45;&gt;act_re_procdef -->
<g id="edge2" class="edge">
<title>act_ru_execution:w&#45;&gt;act_re_procdef:e</title>
<path fill="none" stroke="#000000" d="M204.8419,-113.7674C188.7131,-112.8506 172.1789,-110.5602 156.6378,-107.7062"/>
<polygon fill="#000000" stroke="#000000" points="211.5035,-113.9639 219.3938,-117.7984 215.5017,-114.082 219.5,-114.2 219.5,-114.2 219.5,-114.2 215.5017,-114.082 219.6062,-110.6016 211.5035,-113.9639 211.5035,-113.9639"/>
<ellipse fill="none" stroke="#000000" cx="208.3049" cy="-113.8695" rx="3.2" ry="3.2"/>
</g>
<!-- act_ru_identitylink -->
<g id="node5" class="node">
<title>act_ru_identitylink</title>
<g id="a_node5"><a xlink:href="../../tables/act_ru_identitylink.html" xlink:title="act_ru_identitylink" target="_top">
<polygon fill="#ffffff" stroke="transparent" points="629,-38.2 629,-260.2 845,-260.2 845,-38.2 629,-38.2"/>
<polygon fill="#f5f5f5" stroke="transparent" points="631,-235.2 631,-258.2 843,-258.2 843,-235.2 631,-235.2"/>
<polygon fill="none" stroke="#000000" points="631,-235.2 631,-258.2 843,-258.2 843,-235.2 631,-235.2"/>
<text text-anchor="start" x="636" y="-243.8" font-family="Helvetica,sans-Serif" font-weight="bold" font-size="11.00" fill="#000000">act_ru_identitylink</text>
<text text-anchor="start" x="808.0437" y="-243.3" font-family="Helvetica,sans-Serif" font-size="11.00" fill="#000000">[table]</text>
<polygon fill="none" stroke="#000000" points="631,-213.2 631,-235.2 776,-235.2 776,-213.2 631,-213.2"/>
<image xlink:href="../../images/primaryKeys.png" width="11px" height="12px" preserveAspectRatio="xMinYMin meet" x="636" y="-230.2"/>
<text text-anchor="start" x="651" y="-220.3" font-family="Helvetica,sans-Serif" font-size="11.00" fill="#000000">id_</text>
<polygon fill="none" stroke="#000000" points="776,-213.2 776,-235.2 843,-235.2 843,-213.2 776,-213.2"/>
<text text-anchor="start" x="779" y="-220.9" font-family="Helvetica,sans-Serif" font-size="11.00" fill="#000000">varchar[64]</text>
<polygon fill="none" stroke="#000000" points="631,-191.2 631,-213.2 776,-213.2 776,-191.2 631,-191.2"/>
<text text-anchor="start" x="651" y="-198.3" font-family="Helvetica,sans-Serif" font-size="11.00" fill="#000000">rev_</text>
<polygon fill="none" stroke="#000000" points="776,-191.2 776,-213.2 843,-213.2 843,-191.2 776,-191.2"/>
<text text-anchor="start" x="779" y="-198.9" font-family="Helvetica,sans-Serif" font-size="11.00" fill="#000000">int4[10]</text>
<polygon fill="#ffffff" stroke="transparent" points="631,-169.2 631,-191.2 776,-191.2 776,-169.2 631,-169.2"/>
<polygon fill="none" stroke="#000000" points="631,-169.2 631,-191.2 776,-191.2 776,-169.2 631,-169.2"/>
<text text-anchor="start" x="651" y="-176.3" font-family="Helvetica,sans-Serif" font-size="11.00" fill="#000000">group_id_</text>
<polygon fill="none" stroke="#000000" points="776,-169.2 776,-191.2 843,-191.2 843,-169.2 776,-169.2"/>
<text text-anchor="start" x="778.9365" y="-176.9" font-family="Helvetica,sans-Serif" font-size="11.00" fill="#000000">varchar[255]</text>
<polygon fill="none" stroke="#000000" points="631,-147.2 631,-169.2 776,-169.2 776,-147.2 631,-147.2"/>
<text text-anchor="start" x="651" y="-154.3" font-family="Helvetica,sans-Serif" font-size="11.00" fill="#000000">type_</text>
<polygon fill="none" stroke="#000000" points="776,-147.2 776,-169.2 843,-169.2 843,-147.2 776,-147.2"/>
<text text-anchor="start" x="778.9365" y="-154.9" font-family="Helvetica,sans-Serif" font-size="11.00" fill="#000000">varchar[255]</text>
<polygon fill="#ffffff" stroke="transparent" points="631,-125.2 631,-147.2 776,-147.2 776,-125.2 631,-125.2"/>
<polygon fill="none" stroke="#000000" points="631,-125.2 631,-147.2 776,-147.2 776,-125.2 631,-125.2"/>
<text text-anchor="start" x="651" y="-132.3" font-family="Helvetica,sans-Serif" font-size="11.00" fill="#000000">user_id_</text>
<polygon fill="none" stroke="#000000" points="776,-125.2 776,-147.2 843,-147.2 843,-125.2 776,-125.2"/>
<text text-anchor="start" x="778.9365" y="-132.9" font-family="Helvetica,sans-Serif" font-size="11.00" fill="#000000">varchar[255]</text>
<polygon fill="#ffffff" stroke="transparent" points="631,-103.2 631,-125.2 776,-125.2 776,-103.2 631,-103.2"/>
<polygon fill="none" stroke="#000000" points="631,-103.2 631,-125.2 776,-125.2 776,-103.2 631,-103.2"/>
<image xlink:href="../../images/foreignKeys.png" width="11px" height="12px" preserveAspectRatio="xMinYMin meet" x="636" y="-120.2"/>
<text text-anchor="start" x="651" y="-110.3" font-family="Helvetica,sans-Serif" font-size="11.00" fill="#000000">task_id_</text>
<polygon fill="none" stroke="#000000" points="776,-103.2 776,-125.2 843,-125.2 843,-103.2 776,-103.2"/>
<text text-anchor="start" x="779" y="-110.9" font-family="Helvetica,sans-Serif" font-size="11.00" fill="#000000">varchar[64]</text>
<polygon fill="#ffffff" stroke="transparent" points="631,-81.2 631,-103.2 776,-103.2 776,-81.2 631,-81.2"/>
<polygon fill="none" stroke="#000000" points="631,-81.2 631,-103.2 776,-103.2 776,-81.2 631,-81.2"/>
<image xlink:href="../../images/foreignKeys.png" width="11px" height="12px" preserveAspectRatio="xMinYMin meet" x="636" y="-98.2"/>
<text text-anchor="start" x="651" y="-88.3" font-family="Helvetica,sans-Serif" font-size="11.00" fill="#000000">proc_def_id_</text>
<polygon fill="none" stroke="#000000" points="776,-81.2 776,-103.2 843,-103.2 843,-81.2 776,-81.2"/>
<text text-anchor="start" x="779" y="-88.9" font-family="Helvetica,sans-Serif" font-size="11.00" fill="#000000">varchar[64]</text>
<polygon fill="none" stroke="#000000" points="631,-59.2 631,-81.2 776,-81.2 776,-59.2 631,-59.2"/>
<text text-anchor="start" x="651" y="-66.3" font-family="Helvetica,sans-Serif" font-size="11.00" fill="#000000">tenant_id_</text>
<polygon fill="none" stroke="#000000" points="776,-59.2 776,-81.2 843,-81.2 843,-59.2 776,-59.2"/>
<text text-anchor="start" x="779" y="-66.9" font-family="Helvetica,sans-Serif" font-size="11.00" fill="#000000">varchar[64]</text>
<polygon fill="#ffffff" stroke="transparent" points="631,-40.2 631,-59.2 708,-59.2 708,-40.2 631,-40.2"/>
<polygon fill="none" stroke="#000000" points="631,-40.2 631,-59.2 708,-59.2 708,-40.2 631,-40.2"/>
<text text-anchor="start" x="634" y="-46.3" font-family="Helvetica,sans-Serif" font-size="11.00" fill="#000000">&lt; 2</text>
<polygon fill="#ffffff" stroke="transparent" points="708,-40.2 708,-59.2 776,-59.2 776,-40.2 708,-40.2"/>
<polygon fill="none" stroke="#000000" points="708,-40.2 708,-59.2 776,-59.2 776,-40.2 708,-40.2"/>
<text text-anchor="start" x="766.8862" y="-46.3" font-family="Helvetica,sans-Serif" font-size="11.00" fill="#000000"> &#160;</text>
<polygon fill="#ffffff" stroke="transparent" points="776,-40.2 776,-59.2 843,-59.2 843,-40.2 776,-40.2"/>
<polygon fill="none" stroke="#000000" points="776,-40.2 776,-59.2 843,-59.2 843,-40.2 776,-40.2"/>
<text text-anchor="start" x="824.4053" y="-46.3" font-family="Helvetica,sans-Serif" font-size="11.00" fill="#000000">0 &gt;</text>
<polygon fill="none" stroke="#000000" stroke-width="2" points="630,-39.2 630,-259.2 844,-259.2 844,-39.2 630,-39.2"/>
</a>
</g>
</g>
<!-- act_ru_identitylink&#45;&gt;act_re_procdef -->
<g id="edge3" class="edge">
<title>act_ru_identitylink:w&#45;&gt;act_re_procdef:e</title>
<path fill="none" stroke="#000000" d="M617.032,-87.526C606.3243,-78.1177 607.1176,-57.1188 588,-49.2 538.0745,-28.5202 209.696,-65.0237 193,-67.2 181.227,-68.7346 168.8223,-70.6902 156.7156,-72.7883"/>
<polygon fill="#000000" stroke="#000000" points="623.4135,-89.6613 629.8576,-95.6139 627.2067,-90.9307 631,-92.2 631,-92.2 631,-92.2 627.2067,-90.9307 632.1424,-88.7861 623.4135,-89.6613 623.4135,-89.6613"/>
<ellipse fill="none" stroke="#000000" cx="620.3789" cy="-88.6459" rx="3.2" ry="3.2"/>
</g>
<!-- act_ru_task -->
<g id="node6" class="node">
<title>act_ru_task</title>
<g id="a_node6"><a xlink:href="../../tables/act_ru_task.html" xlink:title="act_ru_task" target="_top">
<polygon fill="#ffffff" stroke="transparent" points="452,-141.7 452,-202.7 567,-202.7 567,-141.7 452,-141.7"/>
<polygon fill="#f5f5f5" stroke="transparent" points="452.5,-179.2 452.5,-202.2 567.5,-202.2 567.5,-179.2 452.5,-179.2"/>
<polygon fill="none" stroke="#000000" points="452.5,-179.2 452.5,-202.2 567.5,-202.2 567.5,-179.2 452.5,-179.2"/>
<text text-anchor="start" x="457.5" y="-187.8" font-family="Helvetica,sans-Serif" font-weight="bold" font-size="11.00" fill="#000000">act_ru_task</text>
<text text-anchor="start" x="533.0219" y="-187.3" font-family="Helvetica,sans-Serif" font-size="11.00" fill="#000000">[table]</text>
<polygon fill="none" stroke="#000000" points="452.5,-160.2 452.5,-179.2 567.5,-179.2 567.5,-160.2 452.5,-160.2"/>
<text text-anchor="start" x="455.5" y="-166.3" font-family="Helvetica,sans-Serif" font-size="11.00" fill="#000000">...</text>
<polygon fill="#ffffff" stroke="transparent" points="452.5,-141.2 452.5,-160.2 503.5,-160.2 503.5,-141.2 452.5,-141.2"/>
<polygon fill="none" stroke="#000000" points="452.5,-141.2 452.5,-160.2 503.5,-160.2 503.5,-141.2 452.5,-141.2"/>
<text text-anchor="start" x="455.5" y="-147.3" font-family="Helvetica,sans-Serif" font-size="11.00" fill="#000000">&lt; 5</text>
<polygon fill="#ffffff" stroke="transparent" points="503.5,-141.2 503.5,-160.2 530.5,-160.2 530.5,-141.2 503.5,-141.2"/>
<polygon fill="none" stroke="#000000" points="503.5,-141.2 503.5,-160.2 530.5,-160.2 530.5,-141.2 503.5,-141.2"/>
<text text-anchor="start" x="521.3862" y="-147.3" font-family="Helvetica,sans-Serif" font-size="11.00" fill="#000000"> &#160;</text>
<polygon fill="#ffffff" stroke="transparent" points="530.5,-141.2 530.5,-160.2 567.5,-160.2 567.5,-141.2 530.5,-141.2"/>
<polygon fill="none" stroke="#000000" points="530.5,-141.2 530.5,-160.2 567.5,-160.2 567.5,-141.2 530.5,-141.2"/>
<text text-anchor="start" x="548.9053" y="-147.3" font-family="Helvetica,sans-Serif" font-size="11.00" fill="#000000">1 &gt;</text>
</a>
</g>
</g>
<!-- act_ru_identitylink&#45;&gt;act_ru_task -->
<g id="edge4" class="edge">
<title>act_ru_identitylink:w&#45;&gt;act_ru_task:e</title>
<path fill="none" stroke="#000000" d="M617.0297,-118.4062C606.1084,-122.7914 590.7415,-130.1099 575.0339,-137.9582"/>
<polygon fill="#000000" stroke="#000000" points="623.3397,-116.5064 632.0379,-117.6471 627.1698,-115.3532 631,-114.2 631,-114.2 631,-114.2 627.1698,-115.3532 629.9621,-110.7529 623.3397,-116.5064 623.3397,-116.5064"/>
<ellipse fill="none" stroke="#000000" cx="620.2755" cy="-117.429" rx="3.2" ry="3.2"/>
</g>
<!-- act_ru_task&#45;&gt;act_ru_case_execution -->
<g id="edge9" class="edge">
<title>act_ru_task:w&#45;&gt;act_ru_case_execution:e</title>
<path fill="none" stroke="#000000" d="M467.9971,-216.79C446.8523,-234.7053 419.5077,-251.2 390.5,-251.2"/>
<polygon fill="#000000" stroke="#000000" points="472.8279,-212.4363 481.1807,-209.7547 475.7993,-209.7584 478.7706,-207.0805 478.7706,-207.0805 478.7706,-207.0805 475.7993,-209.7584 476.3605,-204.4063 472.8279,-212.4363 472.8279,-212.4363"/>
<ellipse fill="none" stroke="#000000" cx="470.4508" cy="-214.5786" rx="3.2" ry="3.2"/>
</g>
<!-- act_ru_task&#45;&gt;act_re_case_def -->
<g id="edge8" class="edge">
<title>act_ru_task:w&#45;&gt;act_re_case_def:e</title>
<path fill="none" stroke="#000000" d="M429.3357,-179.0987C365.0053,-185.4694 272.6124,-196.4992 193,-213.2 174.4178,-217.0981 170.9867,-225.2 152,-225.2"/>
<polygon fill="#000000" stroke="#000000" points="435.8759,-178.4655 444.1856,-181.2776 439.8573,-178.0799 443.8386,-177.6943 443.8386,-177.6943 443.8386,-177.6943 439.8573,-178.0799 443.4916,-174.1111 435.8759,-178.4655 435.8759,-178.4655"/>
<ellipse fill="none" stroke="#000000" cx="432.6908" cy="-178.7739" rx="3.2" ry="3.2"/>
</g>
<!-- act_ru_task&#45;&gt;act_ru_execution -->
<g id="edge10" class="edge">
<title>act_ru_task:w&#45;&gt;act_ru_execution:e</title>
<path fill="none" stroke="#000000" d="M437.3975,-131.5716C411.5199,-120.2754 385.3317,-111.7052 371.5,-114.2"/>
<polygon fill="#000000" stroke="#000000" points="443.5523,-134.371 449.344,-140.9601 447.1934,-136.027 450.8344,-137.6831 450.8344,-137.6831 450.8344,-137.6831 447.1934,-136.027 452.3249,-134.4062 443.5523,-134.371 443.5523,-134.371"/>
<ellipse fill="none" stroke="#000000" cx="440.6394" cy="-133.0461" rx="3.2" ry="3.2"/>
</g>
<!-- act_ru_task&#45;&gt;act_ru_execution -->
<g id="edge12" class="edge">
<title>act_ru_task:w&#45;&gt;act_ru_execution:e</title>
<path fill="none" stroke="#000000" d="M430.8403,-137.9669C407.1835,-126.9201 384.1632,-116.8647 371.5,-114.2"/>
<polygon fill="#000000" stroke="#000000" points="436.7507,-140.7536 442.4514,-147.4216 440.3687,-142.4595 443.9867,-144.1654 443.9867,-144.1654 443.9867,-144.1654 440.3687,-142.4595 445.522,-140.9092 436.7507,-140.7536 436.7507,-140.7536"/>
<ellipse fill="none" stroke="#000000" cx="433.8563" cy="-139.3889" rx="3.2" ry="3.2"/>
</g>
<!-- act_ru_task&#45;&gt;act_re_procdef -->
<g id="edge11" class="edge">
<title>act_ru_task:w&#45;&gt;act_re_procdef:e</title>
<path fill="none" stroke="#000000" d="M429.2266,-179.6653C364.0842,-183.1344 270.6452,-182.1682 193,-158.2 168.5239,-150.6445 144.0288,-136.4808 124.1327,-122.8599"/>
<polygon fill="#000000" stroke="#000000" points="435.9278,-179.2627 444.1294,-182.3762 439.9206,-179.0227 443.9134,-178.7827 443.9134,-178.7827 443.9134,-178.7827 439.9206,-179.0227 443.6975,-175.1892 435.9278,-179.2627 435.9278,-179.2627"/>
<ellipse fill="none" stroke="#000000" cx="432.7336" cy="-179.4547" rx="3.2" ry="3.2"/>
</g>
<!-- act_ru_incident -->
<g id="node7" class="node">
<title>act_ru_incident</title>
<g id="a_node7"><a xlink:href="../../tables/act_ru_incident.html" xlink:title="act_ru_incident" target="_top">
<polygon fill="#ffffff" stroke="transparent" points="439,-59.7 439,-120.7 580,-120.7 580,-59.7 439,-59.7"/>
<polygon fill="#f5f5f5" stroke="transparent" points="439.5,-97.2 439.5,-120.2 580.5,-120.2 580.5,-97.2 439.5,-97.2"/>
<polygon fill="none" stroke="#000000" points="439.5,-97.2 439.5,-120.2 580.5,-120.2 580.5,-97.2 439.5,-97.2"/>
<text text-anchor="start" x="444.5" y="-105.8" font-family="Helvetica,sans-Serif" font-weight="bold" font-size="11.00" fill="#000000">act_ru_incident</text>
<text text-anchor="start" x="546.0219" y="-105.3" font-family="Helvetica,sans-Serif" font-size="11.00" fill="#000000">[table]</text>
<polygon fill="none" stroke="#000000" points="439.5,-78.2 439.5,-97.2 580.5,-97.2 580.5,-78.2 439.5,-78.2"/>
<text text-anchor="start" x="442.5" y="-84.3" font-family="Helvetica,sans-Serif" font-size="11.00" fill="#000000">...</text>
<polygon fill="#ffffff" stroke="transparent" points="439.5,-59.2 439.5,-78.2 503.5,-78.2 503.5,-59.2 439.5,-59.2"/>
<polygon fill="none" stroke="#000000" points="439.5,-59.2 439.5,-78.2 503.5,-78.2 503.5,-59.2 439.5,-59.2"/>
<text text-anchor="start" x="442.5" y="-65.3" font-family="Helvetica,sans-Serif" font-size="11.00" fill="#000000">&lt; 6</text>
<polygon fill="#ffffff" stroke="transparent" points="503.5,-59.2 503.5,-78.2 537.5,-78.2 537.5,-59.2 503.5,-59.2"/>
<polygon fill="none" stroke="#000000" points="503.5,-59.2 503.5,-78.2 537.5,-78.2 537.5,-59.2 503.5,-59.2"/>
<text text-anchor="start" x="528.3862" y="-65.3" font-family="Helvetica,sans-Serif" font-size="11.00" fill="#000000"> &#160;</text>
<polygon fill="#ffffff" stroke="transparent" points="537.5,-59.2 537.5,-78.2 580.5,-78.2 580.5,-59.2 537.5,-59.2"/>
<polygon fill="none" stroke="#000000" points="537.5,-59.2 537.5,-78.2 580.5,-78.2 580.5,-59.2 537.5,-59.2"/>
<text text-anchor="start" x="561.9053" y="-65.3" font-family="Helvetica,sans-Serif" font-size="11.00" fill="#000000">2 &gt;</text>
</a>
</g>
</g>
<!-- act_ru_incident&#45;&gt;act_ru_execution -->
<g id="edge5" class="edge">
<title>act_ru_incident:w&#45;&gt;act_ru_execution:e</title>
<path fill="none" stroke="#000000" d="M425.0521,-86.7566C405.0903,-89.8609 398.4285,-109.2313 371.5,-114.2"/>
<polygon fill="#000000" stroke="#000000" points="431.5038,-86.9546 439.3896,-90.7983 435.5019,-87.0773 439.5,-87.2 439.5,-87.2 439.5,-87.2 435.5019,-87.0773 439.6104,-83.6017 431.5038,-86.9546 431.5038,-86.9546"/>
<ellipse fill="none" stroke="#000000" cx="428.3053" cy="-86.8564" rx="3.2" ry="3.2"/>
</g>
<!-- act_ru_incident&#45;&gt;act_ru_execution -->
<g id="edge7" class="edge">
<title>act_ru_incident:w&#45;&gt;act_ru_execution:e</title>
<path fill="none" stroke="#000000" d="M425.6207,-92.0218C405.2142,-102.1442 398.6825,-120.0516 371.5,-114.2"/>
<polygon fill="#000000" stroke="#000000" points="431.9431,-89.8254 440.6814,-90.6006 435.7215,-88.5127 439.5,-87.2 439.5,-87.2 439.5,-87.2 435.7215,-88.5127 438.3186,-83.7994 431.9431,-89.8254 431.9431,-89.8254"/>
<ellipse fill="none" stroke="#000000" cx="428.9203" cy="-90.8756" rx="3.2" ry="3.2"/>
</g>
<!-- act_ru_incident&#45;&gt;act_re_procdef -->
<g id="edge6" class="edge">
<title>act_ru_incident:w&#45;&gt;act_re_procdef:e</title>
<path fill="none" stroke="#000000" d="M425.2306,-85.1452C416.7266,-82.4584 411.0085,-77.8948 398,-76.2 307.6524,-64.4295 283.9837,-71.3826 193,-76.2 181.1795,-76.8259 168.6926,-77.8176 156.501,-78.9692"/>
<polygon fill="#000000" stroke="#000000" points="431.5817,-86.0597 438.9869,-90.7632 435.5408,-86.6299 439.5,-87.2 439.5,-87.2 439.5,-87.2 435.5408,-86.6299 440.0131,-83.6368 431.5817,-86.0597 431.5817,-86.0597"/>
<ellipse fill="none" stroke="#000000" cx="428.4143" cy="-85.6036" rx="3.2" ry="3.2"/>
</g>
</g>
</svg>
