<?xml version="1.0" encoding="UTF-8" standalone="no"?>
<!DOCTYPE svg PUBLIC "-//W3C//DTD SVG 1.1//EN"
 "http://www.w3.org/Graphics/SVG/1.1/DTD/svg11.dtd">
<!-- Generated by graphviz version 2.40.1 (20161225.0304)
 -->
<!-- Title: twoDegreesRelationshipsDiagram Pages: 1 -->
<svg width="708pt" height="597pt"
 viewBox="0.00 0.00 708.00 596.70" xmlns="http://www.w3.org/2000/svg" xmlns:xlink="http://www.w3.org/1999/xlink">
<g id="graph0" class="graph" transform="scale(1 1) rotate(0) translate(4 592.7)">
<title>twoDegreesRelationshipsDiagram</title>
<polygon fill="#ffffff" stroke="transparent" points="-4,4 -4,-592.7 704,-592.7 704,4 -4,4"/>
<text text-anchor="middle" x="72.4936" y="-7.3" font-family="Helvetica,sans-Serif" font-size="11.00" fill="#000000">Generated by SchemaSpy</text>
<!-- act_ru_case_execution -->
<g id="node1" class="node">
<title>act_ru_case_execution</title>
<g id="a_node1"><a xlink:href="../../tables/act_ru_case_execution.html" xlink:title="act_ru_case_execution" target="_top">
<polygon fill="#ffffff" stroke="transparent" points="201,-64.2 201,-257.2 390,-257.2 390,-64.2 201,-64.2"/>
<polygon fill="#f5f5f5" stroke="transparent" points="201.5,-233.7 201.5,-256.7 390.5,-256.7 390.5,-233.7 201.5,-233.7"/>
<polygon fill="none" stroke="#000000" points="201.5,-233.7 201.5,-256.7 390.5,-256.7 390.5,-233.7 201.5,-233.7"/>
<text text-anchor="start" x="206.5" y="-242.3" font-family="Helvetica,sans-Serif" font-weight="bold" font-size="11.00" fill="#000000">act_ru_case_execution</text>
<text text-anchor="start" x="356.0219" y="-241.8" font-family="Helvetica,sans-Serif" font-size="11.00" fill="#000000">[table]</text>
<polygon fill="none" stroke="#000000" points="201.5,-211.7 201.5,-233.7 390.5,-233.7 390.5,-211.7 201.5,-211.7"/>
<image xlink:href="../../images/primaryKeys.png" width="11px" height="12px" preserveAspectRatio="xMinYMin meet" x="206.5" y="-228.7"/>
<text text-anchor="start" x="230.5" y="-218.8" font-family="Helvetica,sans-Serif" font-size="11.00" fill="#000000">id_</text>
<polygon fill="#ffffff" stroke="transparent" points="201.5,-189.7 201.5,-211.7 390.5,-211.7 390.5,-189.7 201.5,-189.7"/>
<polygon fill="none" stroke="#000000" points="201.5,-189.7 201.5,-211.7 390.5,-211.7 390.5,-189.7 201.5,-189.7"/>
<image xlink:href="../../images/foreignKeys.png" width="11px" height="12px" preserveAspectRatio="xMinYMin meet" x="206.5" y="-206.7"/>
<text text-anchor="start" x="230.5" y="-196.8" font-family="Helvetica,sans-Serif" font-size="11.00" fill="#000000">case_inst_id_</text>
<polygon fill="#ffffff" stroke="transparent" points="201.5,-167.7 201.5,-189.7 390.5,-189.7 390.5,-167.7 201.5,-167.7"/>
<polygon fill="none" stroke="#000000" points="201.5,-167.7 201.5,-189.7 390.5,-189.7 390.5,-167.7 201.5,-167.7"/>
<text text-anchor="start" x="230.5" y="-174.8" font-family="Helvetica,sans-Serif" font-size="11.00" fill="#000000">business_key_</text>
<polygon fill="#ffffff" stroke="transparent" points="201.5,-145.7 201.5,-167.7 390.5,-167.7 390.5,-145.7 201.5,-145.7"/>
<polygon fill="none" stroke="#000000" points="201.5,-145.7 201.5,-167.7 390.5,-167.7 390.5,-145.7 201.5,-145.7"/>
<image xlink:href="../../images/foreignKeys.png" width="11px" height="12px" preserveAspectRatio="xMinYMin meet" x="206.5" y="-162.7"/>
<text text-anchor="start" x="230.5" y="-152.8" font-family="Helvetica,sans-Serif" font-size="11.00" fill="#000000">parent_id_</text>
<polygon fill="#ffffff" stroke="transparent" points="201.5,-123.7 201.5,-145.7 390.5,-145.7 390.5,-123.7 201.5,-123.7"/>
<polygon fill="none" stroke="#000000" points="201.5,-123.7 201.5,-145.7 390.5,-145.7 390.5,-123.7 201.5,-123.7"/>
<image xlink:href="../../images/foreignKeys.png" width="11px" height="12px" preserveAspectRatio="xMinYMin meet" x="206.5" y="-140.7"/>
<text text-anchor="start" x="230.5" y="-130.8" font-family="Helvetica,sans-Serif" font-size="11.00" fill="#000000">case_def_id_</text>
<polygon fill="#ffffff" stroke="transparent" points="201.5,-101.7 201.5,-123.7 390.5,-123.7 390.5,-101.7 201.5,-101.7"/>
<polygon fill="none" stroke="#000000" points="201.5,-101.7 201.5,-123.7 390.5,-123.7 390.5,-101.7 201.5,-101.7"/>
<text text-anchor="start" x="230.5" y="-108.8" font-family="Helvetica,sans-Serif" font-size="11.00" fill="#000000">tenant_id_</text>
<polygon fill="none" stroke="#000000" points="201.5,-82.7 201.5,-101.7 390.5,-101.7 390.5,-82.7 201.5,-82.7"/>
<text text-anchor="start" x="204.5" y="-88.8" font-family="Helvetica,sans-Serif" font-size="11.00" fill="#000000">...</text>
<polygon fill="#ffffff" stroke="transparent" points="201.5,-63.7 201.5,-82.7 289.5,-82.7 289.5,-63.7 201.5,-63.7"/>
<polygon fill="none" stroke="#000000" points="201.5,-63.7 201.5,-82.7 289.5,-82.7 289.5,-63.7 201.5,-63.7"/>
<text text-anchor="start" x="204.5" y="-69.8" font-family="Helvetica,sans-Serif" font-size="11.00" fill="#000000">&lt; 3</text>
<polygon fill="#ffffff" stroke="transparent" points="289.5,-63.7 289.5,-82.7 335.5,-82.7 335.5,-63.7 289.5,-63.7"/>
<polygon fill="none" stroke="#000000" points="289.5,-63.7 289.5,-82.7 335.5,-82.7 335.5,-63.7 289.5,-63.7"/>
<text text-anchor="start" x="326.3862" y="-69.8" font-family="Helvetica,sans-Serif" font-size="11.00" fill="#000000"> &#160;</text>
<polygon fill="#ffffff" stroke="transparent" points="335.5,-63.7 335.5,-82.7 390.5,-82.7 390.5,-63.7 335.5,-63.7"/>
<polygon fill="none" stroke="#000000" points="335.5,-63.7 335.5,-82.7 390.5,-82.7 390.5,-63.7 335.5,-63.7"/>
<text text-anchor="start" x="371.9053" y="-69.8" font-family="Helvetica,sans-Serif" font-size="11.00" fill="#000000">7 &gt;</text>
</a>
</g>
</g>
<!-- act_re_case_def -->
<g id="node2" class="node">
<title>act_re_case_def</title>
<g id="a_node2"><a xlink:href="../../tables/act_re_case_def.html" xlink:title="act_re_case_def" target="_top">
<polygon fill="#ffffff" stroke="transparent" points="8,-59.2 8,-120.2 152,-120.2 152,-59.2 8,-59.2"/>
<polygon fill="#f5f5f5" stroke="transparent" points="8,-96.7 8,-119.7 152,-119.7 152,-96.7 8,-96.7"/>
<polygon fill="none" stroke="#000000" points="8,-96.7 8,-119.7 152,-119.7 152,-96.7 8,-96.7"/>
<text text-anchor="start" x="13" y="-105.3" font-family="Helvetica,sans-Serif" font-weight="bold" font-size="11.00" fill="#000000">act_re_case_def</text>
<text text-anchor="start" x="117.5219" y="-104.8" font-family="Helvetica,sans-Serif" font-size="11.00" fill="#000000">[table]</text>
<polygon fill="none" stroke="#000000" points="8,-77.7 8,-96.7 152,-96.7 152,-77.7 8,-77.7"/>
<text text-anchor="start" x="11" y="-83.8" font-family="Helvetica,sans-Serif" font-size="11.00" fill="#000000">...</text>
<polygon fill="#ffffff" stroke="transparent" points="8,-58.7 8,-77.7 69,-77.7 69,-58.7 8,-58.7"/>
<polygon fill="none" stroke="#000000" points="8,-58.7 8,-77.7 69,-77.7 69,-58.7 8,-58.7"/>
<text text-anchor="start" x="11" y="-64.8" font-family="Helvetica,sans-Serif" font-size="11.00" fill="#000000"> &#160;</text>
<polygon fill="#ffffff" stroke="transparent" points="69,-58.7 69,-77.7 106,-77.7 106,-58.7 69,-58.7"/>
<polygon fill="none" stroke="#000000" points="69,-58.7 69,-77.7 106,-77.7 106,-58.7 69,-58.7"/>
<text text-anchor="start" x="96.8862" y="-64.8" font-family="Helvetica,sans-Serif" font-size="11.00" fill="#000000"> &#160;</text>
<polygon fill="#ffffff" stroke="transparent" points="106,-58.7 106,-77.7 152,-77.7 152,-58.7 106,-58.7"/>
<polygon fill="none" stroke="#000000" points="106,-58.7 106,-77.7 152,-77.7 152,-58.7 106,-58.7"/>
<text text-anchor="start" x="133.4053" y="-64.8" font-family="Helvetica,sans-Serif" font-size="11.00" fill="#000000">2 &gt;</text>
</a>
</g>
</g>
<!-- act_ru_case_execution&#45;&gt;act_re_case_def -->
<g id="edge1" class="edge">
<title>act_ru_case_execution:w&#45;&gt;act_re_case_def:e</title>
<path fill="none" stroke="#000000" d="M187.7679,-129.9221C173.8417,-117.7811 176.6596,-86.7 152,-86.7"/>
<polygon fill="#000000" stroke="#000000" points="193.9443,-132.071 200.317,-138.1001 197.7221,-133.3855 201.5,-134.7 201.5,-134.7 201.5,-134.7 197.7221,-133.3855 202.683,-131.2999 193.9443,-132.071 193.9443,-132.071"/>
<ellipse fill="none" stroke="#000000" cx="190.922" cy="-131.0195" rx="3.2" ry="3.2"/>
</g>
<!-- act_ru_case_sentry_part -->
<g id="node3" class="node">
<title>act_ru_case_sentry_part</title>
<g id="a_node3"><a xlink:href="../../tables/act_ru_case_sentry_part.html" xlink:title="act_ru_case_sentry_part" target="_top">
<polygon fill="#ffffff" stroke="transparent" points="439,-252.7 439,-584.7 692,-584.7 692,-252.7 439,-252.7"/>
<polygon fill="#f5f5f5" stroke="transparent" points="441.5,-559.7 441.5,-582.7 690.5,-582.7 690.5,-559.7 441.5,-559.7"/>
<polygon fill="none" stroke="#000000" points="441.5,-559.7 441.5,-582.7 690.5,-582.7 690.5,-559.7 441.5,-559.7"/>
<text text-anchor="start" x="446.5" y="-568.3" font-family="Helvetica,sans-Serif" font-weight="bold" font-size="11.00" fill="#000000">act_ru_case_sentry_part</text>
<text text-anchor="start" x="655.5437" y="-567.8" font-family="Helvetica,sans-Serif" font-size="11.00" fill="#000000">[table]</text>
<polygon fill="none" stroke="#000000" points="441.5,-537.7 441.5,-559.7 623.5,-559.7 623.5,-537.7 441.5,-537.7"/>
<image xlink:href="../../images/primaryKeys.png" width="11px" height="12px" preserveAspectRatio="xMinYMin meet" x="446.5" y="-554.7"/>
<text text-anchor="start" x="461.5" y="-544.8" font-family="Helvetica,sans-Serif" font-size="11.00" fill="#000000">id_</text>
<polygon fill="none" stroke="#000000" points="623.5,-537.7 623.5,-559.7 690.5,-559.7 690.5,-537.7 623.5,-537.7"/>
<text text-anchor="start" x="626.5" y="-545.4" font-family="Helvetica,sans-Serif" font-size="11.00" fill="#000000">varchar[64]</text>
<polygon fill="none" stroke="#000000" points="441.5,-515.7 441.5,-537.7 623.5,-537.7 623.5,-515.7 441.5,-515.7"/>
<text text-anchor="start" x="461.5" y="-522.8" font-family="Helvetica,sans-Serif" font-size="11.00" fill="#000000">rev_</text>
<polygon fill="none" stroke="#000000" points="623.5,-515.7 623.5,-537.7 690.5,-537.7 690.5,-515.7 623.5,-515.7"/>
<text text-anchor="start" x="626.5" y="-523.4" font-family="Helvetica,sans-Serif" font-size="11.00" fill="#000000">int4[10]</text>
<polygon fill="#ffffff" stroke="transparent" points="441.5,-493.7 441.5,-515.7 623.5,-515.7 623.5,-493.7 441.5,-493.7"/>
<polygon fill="none" stroke="#000000" points="441.5,-493.7 441.5,-515.7 623.5,-515.7 623.5,-493.7 441.5,-493.7"/>
<image xlink:href="../../images/foreignKeys.png" width="11px" height="12px" preserveAspectRatio="xMinYMin meet" x="446.5" y="-510.7"/>
<text text-anchor="start" x="461.5" y="-500.8" font-family="Helvetica,sans-Serif" font-size="11.00" fill="#000000">case_inst_id_</text>
<polygon fill="none" stroke="#000000" points="623.5,-493.7 623.5,-515.7 690.5,-515.7 690.5,-493.7 623.5,-493.7"/>
<text text-anchor="start" x="626.5" y="-501.4" font-family="Helvetica,sans-Serif" font-size="11.00" fill="#000000">varchar[64]</text>
<polygon fill="#ffffff" stroke="transparent" points="441.5,-471.7 441.5,-493.7 623.5,-493.7 623.5,-471.7 441.5,-471.7"/>
<polygon fill="none" stroke="#000000" points="441.5,-471.7 441.5,-493.7 623.5,-493.7 623.5,-471.7 441.5,-471.7"/>
<image xlink:href="../../images/foreignKeys.png" width="11px" height="12px" preserveAspectRatio="xMinYMin meet" x="446.5" y="-488.7"/>
<text text-anchor="start" x="461.5" y="-478.8" font-family="Helvetica,sans-Serif" font-size="11.00" fill="#000000">case_exec_id_</text>
<polygon fill="none" stroke="#000000" points="623.5,-471.7 623.5,-493.7 690.5,-493.7 690.5,-471.7 623.5,-471.7"/>
<text text-anchor="start" x="626.5" y="-479.4" font-family="Helvetica,sans-Serif" font-size="11.00" fill="#000000">varchar[64]</text>
<polygon fill="none" stroke="#000000" points="441.5,-449.7 441.5,-471.7 623.5,-471.7 623.5,-449.7 441.5,-449.7"/>
<text text-anchor="start" x="461.5" y="-456.8" font-family="Helvetica,sans-Serif" font-size="11.00" fill="#000000">sentry_id_</text>
<polygon fill="none" stroke="#000000" points="623.5,-449.7 623.5,-471.7 690.5,-471.7 690.5,-449.7 623.5,-449.7"/>
<text text-anchor="start" x="626.4365" y="-457.4" font-family="Helvetica,sans-Serif" font-size="11.00" fill="#000000">varchar[255]</text>
<polygon fill="none" stroke="#000000" points="441.5,-427.7 441.5,-449.7 623.5,-449.7 623.5,-427.7 441.5,-427.7"/>
<text text-anchor="start" x="461.5" y="-434.8" font-family="Helvetica,sans-Serif" font-size="11.00" fill="#000000">type_</text>
<polygon fill="none" stroke="#000000" points="623.5,-427.7 623.5,-449.7 690.5,-449.7 690.5,-427.7 623.5,-427.7"/>
<text text-anchor="start" x="626.4365" y="-435.4" font-family="Helvetica,sans-Serif" font-size="11.00" fill="#000000">varchar[255]</text>
<polygon fill="none" stroke="#000000" points="441.5,-405.7 441.5,-427.7 623.5,-427.7 623.5,-405.7 441.5,-405.7"/>
<text text-anchor="start" x="461.5" y="-412.8" font-family="Helvetica,sans-Serif" font-size="11.00" fill="#000000">source_case_exec_id_</text>
<polygon fill="none" stroke="#000000" points="623.5,-405.7 623.5,-427.7 690.5,-427.7 690.5,-405.7 623.5,-405.7"/>
<text text-anchor="start" x="626.5" y="-413.4" font-family="Helvetica,sans-Serif" font-size="11.00" fill="#000000">varchar[64]</text>
<polygon fill="none" stroke="#000000" points="441.5,-383.7 441.5,-405.7 623.5,-405.7 623.5,-383.7 441.5,-383.7"/>
<text text-anchor="start" x="461.5" y="-390.8" font-family="Helvetica,sans-Serif" font-size="11.00" fill="#000000">standard_event_</text>
<polygon fill="none" stroke="#000000" points="623.5,-383.7 623.5,-405.7 690.5,-405.7 690.5,-383.7 623.5,-383.7"/>
<text text-anchor="start" x="626.4365" y="-391.4" font-family="Helvetica,sans-Serif" font-size="11.00" fill="#000000">varchar[255]</text>
<polygon fill="none" stroke="#000000" points="441.5,-361.7 441.5,-383.7 623.5,-383.7 623.5,-361.7 441.5,-361.7"/>
<text text-anchor="start" x="461.5" y="-368.8" font-family="Helvetica,sans-Serif" font-size="11.00" fill="#000000">source_</text>
<polygon fill="none" stroke="#000000" points="623.5,-361.7 623.5,-383.7 690.5,-383.7 690.5,-361.7 623.5,-361.7"/>
<text text-anchor="start" x="626.4365" y="-369.4" font-family="Helvetica,sans-Serif" font-size="11.00" fill="#000000">varchar[255]</text>
<polygon fill="none" stroke="#000000" points="441.5,-339.7 441.5,-361.7 623.5,-361.7 623.5,-339.7 441.5,-339.7"/>
<text text-anchor="start" x="461.5" y="-346.8" font-family="Helvetica,sans-Serif" font-size="11.00" fill="#000000">variable_event_</text>
<polygon fill="none" stroke="#000000" points="623.5,-339.7 623.5,-361.7 690.5,-361.7 690.5,-339.7 623.5,-339.7"/>
<text text-anchor="start" x="626.4365" y="-347.4" font-family="Helvetica,sans-Serif" font-size="11.00" fill="#000000">varchar[255]</text>
<polygon fill="none" stroke="#000000" points="441.5,-317.7 441.5,-339.7 623.5,-339.7 623.5,-317.7 441.5,-317.7"/>
<text text-anchor="start" x="461.5" y="-324.8" font-family="Helvetica,sans-Serif" font-size="11.00" fill="#000000">variable_name_</text>
<polygon fill="none" stroke="#000000" points="623.5,-317.7 623.5,-339.7 690.5,-339.7 690.5,-317.7 623.5,-317.7"/>
<text text-anchor="start" x="626.4365" y="-325.4" font-family="Helvetica,sans-Serif" font-size="11.00" fill="#000000">varchar[255]</text>
<polygon fill="none" stroke="#000000" points="441.5,-295.7 441.5,-317.7 623.5,-317.7 623.5,-295.7 441.5,-295.7"/>
<text text-anchor="start" x="461.5" y="-302.8" font-family="Helvetica,sans-Serif" font-size="11.00" fill="#000000">satisfied_</text>
<polygon fill="none" stroke="#000000" points="623.5,-295.7 623.5,-317.7 690.5,-317.7 690.5,-295.7 623.5,-295.7"/>
<text text-anchor="start" x="626.5" y="-303.4" font-family="Helvetica,sans-Serif" font-size="11.00" fill="#000000">bool[1]</text>
<polygon fill="none" stroke="#000000" points="441.5,-273.7 441.5,-295.7 623.5,-295.7 623.5,-273.7 441.5,-273.7"/>
<text text-anchor="start" x="461.5" y="-280.8" font-family="Helvetica,sans-Serif" font-size="11.00" fill="#000000">tenant_id_</text>
<polygon fill="none" stroke="#000000" points="623.5,-273.7 623.5,-295.7 690.5,-295.7 690.5,-273.7 623.5,-273.7"/>
<text text-anchor="start" x="626.5" y="-281.4" font-family="Helvetica,sans-Serif" font-size="11.00" fill="#000000">varchar[64]</text>
<polygon fill="#ffffff" stroke="transparent" points="441.5,-254.7 441.5,-273.7 536.5,-273.7 536.5,-254.7 441.5,-254.7"/>
<polygon fill="none" stroke="#000000" points="441.5,-254.7 441.5,-273.7 536.5,-273.7 536.5,-254.7 441.5,-254.7"/>
<text text-anchor="start" x="444.5" y="-260.8" font-family="Helvetica,sans-Serif" font-size="11.00" fill="#000000">&lt; 2</text>
<polygon fill="#ffffff" stroke="transparent" points="536.5,-254.7 536.5,-273.7 623.5,-273.7 623.5,-254.7 536.5,-254.7"/>
<polygon fill="none" stroke="#000000" points="536.5,-254.7 536.5,-273.7 623.5,-273.7 623.5,-254.7 536.5,-254.7"/>
<text text-anchor="start" x="614.3862" y="-260.8" font-family="Helvetica,sans-Serif" font-size="11.00" fill="#000000"> &#160;</text>
<polygon fill="#ffffff" stroke="transparent" points="623.5,-254.7 623.5,-273.7 690.5,-273.7 690.5,-254.7 623.5,-254.7"/>
<polygon fill="none" stroke="#000000" points="623.5,-254.7 623.5,-273.7 690.5,-273.7 690.5,-254.7 623.5,-254.7"/>
<text text-anchor="start" x="671.9053" y="-260.8" font-family="Helvetica,sans-Serif" font-size="11.00" fill="#000000">0 &gt;</text>
<polygon fill="none" stroke="#000000" stroke-width="2" points="440,-253.7 440,-583.7 691,-583.7 691,-253.7 440,-253.7"/>
</a>
</g>
</g>
<!-- act_ru_case_sentry_part&#45;&gt;act_ru_case_execution -->
<g id="edge2" class="edge">
<title>act_ru_case_sentry_part:w&#45;&gt;act_ru_case_execution:e</title>
<path fill="none" stroke="#000000" d="M427.1372,-481.1071C340.0435,-459.3805 502.8528,-222.7 390.5,-222.7"/>
<polygon fill="#000000" stroke="#000000" points="433.5488,-481.8181 441.1031,-486.2781 437.5244,-482.2591 441.5,-482.7 441.5,-482.7 441.5,-482.7 437.5244,-482.2591 441.8969,-479.1219 433.5488,-481.8181 433.5488,-481.8181"/>
<ellipse fill="none" stroke="#000000" cx="430.3683" cy="-481.4654" rx="3.2" ry="3.2"/>
</g>
<!-- act_ru_case_sentry_part&#45;&gt;act_ru_case_execution -->
<g id="edge3" class="edge">
<title>act_ru_case_sentry_part:w&#45;&gt;act_ru_case_execution:e</title>
<path fill="none" stroke="#000000" d="M427.1573,-503.25C330.6601,-481.5137 512.5181,-222.7 390.5,-222.7"/>
<polygon fill="#000000" stroke="#000000" points="433.5406,-503.8953 441.1379,-508.2817 437.5203,-504.2976 441.5,-504.7 441.5,-504.7 441.5,-504.7 437.5203,-504.2976 441.8621,-501.1183 433.5406,-503.8953 433.5406,-503.8953"/>
<ellipse fill="none" stroke="#000000" cx="430.3568" cy="-503.5734" rx="3.2" ry="3.2"/>
</g>
<!-- act_ru_task -->
<g id="node4" class="node">
<title>act_ru_task</title>
<g id="a_node4"><a xlink:href="../../tables/act_ru_task.html" xlink:title="act_ru_task" target="_top">
<polygon fill="#ffffff" stroke="transparent" points="508,-38.2 508,-99.2 623,-99.2 623,-38.2 508,-38.2"/>
<polygon fill="#f5f5f5" stroke="transparent" points="508.5,-75.7 508.5,-98.7 623.5,-98.7 623.5,-75.7 508.5,-75.7"/>
<polygon fill="none" stroke="#000000" points="508.5,-75.7 508.5,-98.7 623.5,-98.7 623.5,-75.7 508.5,-75.7"/>
<text text-anchor="start" x="513.5" y="-84.3" font-family="Helvetica,sans-Serif" font-weight="bold" font-size="11.00" fill="#000000">act_ru_task</text>
<text text-anchor="start" x="589.0219" y="-83.8" font-family="Helvetica,sans-Serif" font-size="11.00" fill="#000000">[table]</text>
<polygon fill="none" stroke="#000000" points="508.5,-56.7 508.5,-75.7 623.5,-75.7 623.5,-56.7 508.5,-56.7"/>
<text text-anchor="start" x="511.5" y="-62.8" font-family="Helvetica,sans-Serif" font-size="11.00" fill="#000000">...</text>
<polygon fill="#ffffff" stroke="transparent" points="508.5,-37.7 508.5,-56.7 559.5,-56.7 559.5,-37.7 508.5,-37.7"/>
<polygon fill="none" stroke="#000000" points="508.5,-37.7 508.5,-56.7 559.5,-56.7 559.5,-37.7 508.5,-37.7"/>
<text text-anchor="start" x="511.5" y="-43.8" font-family="Helvetica,sans-Serif" font-size="11.00" fill="#000000">&lt; 5</text>
<polygon fill="#ffffff" stroke="transparent" points="559.5,-37.7 559.5,-56.7 586.5,-56.7 586.5,-37.7 559.5,-37.7"/>
<polygon fill="none" stroke="#000000" points="559.5,-37.7 559.5,-56.7 586.5,-56.7 586.5,-37.7 559.5,-37.7"/>
<text text-anchor="start" x="577.3862" y="-43.8" font-family="Helvetica,sans-Serif" font-size="11.00" fill="#000000"> &#160;</text>
<polygon fill="#ffffff" stroke="transparent" points="586.5,-37.7 586.5,-56.7 623.5,-56.7 623.5,-37.7 586.5,-37.7"/>
<polygon fill="none" stroke="#000000" points="586.5,-37.7 586.5,-56.7 623.5,-56.7 623.5,-37.7 586.5,-37.7"/>
<text text-anchor="start" x="604.9053" y="-43.8" font-family="Helvetica,sans-Serif" font-size="11.00" fill="#000000">1 &gt;</text>
</a>
</g>
</g>
<!-- act_ru_task&#45;&gt;act_ru_case_execution -->
<g id="edge5" class="edge">
<title>act_ru_task:w&#45;&gt;act_ru_case_execution:e</title>
<path fill="none" stroke="#000000" d="M494.0843,-67.14C455.6583,-75.6483 459.7385,-120.3183 431,-159.7 411.3783,-186.5885 423.7866,-222.7 390.5,-222.7"/>
<polygon fill="#000000" stroke="#000000" points="500.5396,-66.4952 508.8578,-69.2822 504.5198,-66.0976 508.5,-65.7 508.5,-65.7 508.5,-65.7 504.5198,-66.0976 508.1422,-62.1178 500.5396,-66.4952 500.5396,-66.4952"/>
<ellipse fill="none" stroke="#000000" cx="497.3555" cy="-66.8133" rx="3.2" ry="3.2"/>
</g>
<!-- act_ru_task&#45;&gt;act_re_case_def -->
<g id="edge4" class="edge">
<title>act_ru_task:w&#45;&gt;act_re_case_def:e</title>
<path fill="none" stroke="#000000" d="M494.0536,-65.4897C365.0541,-61.7067 320.6915,-8.6953 193,-53.7 170.9387,-61.4755 175.3915,-86.7 152,-86.7"/>
<polygon fill="#000000" stroke="#000000" points="500.5008,-65.5835 508.4476,-69.2996 504.5004,-65.6417 508.5,-65.7 508.5,-65.7 508.5,-65.7 504.5004,-65.6417 508.5524,-62.1004 500.5008,-65.5835 500.5008,-65.5835"/>
<ellipse fill="none" stroke="#000000" cx="497.3012" cy="-65.5369" rx="3.2" ry="3.2"/>
</g>
<!-- act_ru_variable -->
<g id="node5" class="node">
<title>act_ru_variable</title>
<g id="a_node5"><a xlink:href="../../tables/act_ru_variable.html" xlink:title="act_ru_variable" target="_top">
<polygon fill="#ffffff" stroke="transparent" points="495,-170.2 495,-231.2 636,-231.2 636,-170.2 495,-170.2"/>
<polygon fill="#f5f5f5" stroke="transparent" points="495.5,-207.7 495.5,-230.7 636.5,-230.7 636.5,-207.7 495.5,-207.7"/>
<polygon fill="none" stroke="#000000" points="495.5,-207.7 495.5,-230.7 636.5,-230.7 636.5,-207.7 495.5,-207.7"/>
<text text-anchor="start" x="500.5" y="-216.3" font-family="Helvetica,sans-Serif" font-weight="bold" font-size="11.00" fill="#000000">act_ru_variable</text>
<text text-anchor="start" x="602.0219" y="-215.8" font-family="Helvetica,sans-Serif" font-size="11.00" fill="#000000">[table]</text>
<polygon fill="none" stroke="#000000" points="495.5,-188.7 495.5,-207.7 636.5,-207.7 636.5,-188.7 495.5,-188.7"/>
<text text-anchor="start" x="498.5" y="-194.8" font-family="Helvetica,sans-Serif" font-size="11.00" fill="#000000">...</text>
<polygon fill="#ffffff" stroke="transparent" points="495.5,-169.7 495.5,-188.7 564.5,-188.7 564.5,-169.7 495.5,-169.7"/>
<polygon fill="none" stroke="#000000" points="495.5,-169.7 495.5,-188.7 564.5,-188.7 564.5,-169.7 495.5,-169.7"/>
<text text-anchor="start" x="498.5" y="-175.8" font-family="Helvetica,sans-Serif" font-size="11.00" fill="#000000">&lt; 6</text>
<polygon fill="#ffffff" stroke="transparent" points="564.5,-169.7 564.5,-188.7 600.5,-188.7 600.5,-169.7 564.5,-169.7"/>
<polygon fill="none" stroke="#000000" points="564.5,-169.7 564.5,-188.7 600.5,-188.7 600.5,-169.7 564.5,-169.7"/>
<text text-anchor="start" x="591.3862" y="-175.8" font-family="Helvetica,sans-Serif" font-size="11.00" fill="#000000"> &#160;</text>
<polygon fill="#ffffff" stroke="transparent" points="600.5,-169.7 600.5,-188.7 636.5,-188.7 636.5,-169.7 600.5,-169.7"/>
<polygon fill="none" stroke="#000000" points="600.5,-169.7 600.5,-188.7 636.5,-188.7 636.5,-169.7 600.5,-169.7"/>
<text text-anchor="start" x="627.3862" y="-175.8" font-family="Helvetica,sans-Serif" font-size="11.00" fill="#000000"> &#160;</text>
</a>
</g>
</g>
<!-- act_ru_variable&#45;&gt;act_ru_case_execution -->
<g id="edge6" class="edge">
<title>act_ru_variable:w&#45;&gt;act_ru_case_execution:e</title>
<path fill="none" stroke="#000000" d="M481.0542,-196.7784C445.0819,-196.9415 433.2243,-217.3563 390.5,-222.7"/>
<polygon fill="#000000" stroke="#000000" points="487.5162,-197.1906 495.2708,-201.2927 491.5081,-197.4453 495.5,-197.7 495.5,-197.7 495.5,-197.7 491.5081,-197.4453 495.7292,-194.1073 487.5162,-197.1906 487.5162,-197.1906"/>
<ellipse fill="none" stroke="#000000" cx="484.3227" cy="-196.9868" rx="3.2" ry="3.2"/>
</g>
<!-- act_ru_variable&#45;&gt;act_ru_case_execution -->
<g id="edge7" class="edge">
<title>act_ru_variable:w&#45;&gt;act_ru_case_execution:e</title>
<path fill="none" stroke="#000000" d="M481.0542,-200.5774C445.0819,-209.7859 433.2243,-228.9344 390.5,-222.7"/>
<polygon fill="#000000" stroke="#000000" points="487.6541,-199.2629 496.2033,-201.2306 491.5771,-198.4814 495.5,-197.7 495.5,-197.7 495.5,-197.7 491.5771,-198.4814 494.7967,-194.1694 487.6541,-199.2629 487.6541,-199.2629"/>
<ellipse fill="none" stroke="#000000" cx="484.5158" cy="-199.888" rx="3.2" ry="3.2"/>
</g>
</g>
</svg>
