<?xml version="1.0" encoding="UTF-8" standalone="no"?>
<!DOCTYPE svg PUBLIC "-//W3C//DTD SVG 1.1//EN"
 "http://www.w3.org/Graphics/SVG/1.1/DTD/svg11.dtd">
<!-- Generated by graphviz version 2.40.1 (20161225.0304)
 -->
<!-- Title: twoDegreesRelationshipsDiagram Pages: 1 -->
<svg width="440pt" height="341pt"
 viewBox="0.00 0.00 440.00 341.20" xmlns="http://www.w3.org/2000/svg" xmlns:xlink="http://www.w3.org/1999/xlink">
<g id="graph0" class="graph" transform="scale(1 1) rotate(0) translate(4 337.2)">
<title>twoDegreesRelationshipsDiagram</title>
<polygon fill="#ffffff" stroke="transparent" points="-4,4 -4,-337.2 436,-337.2 436,4 -4,4"/>
<text text-anchor="middle" x="72.4936" y="-7.3" font-family="Helvetica,sans-Serif" font-size="11.00" fill="#000000">Generated by SchemaSpy</text>
<!-- act_id_membership -->
<g id="node1" class="node">
<title>act_id_membership</title>
<g id="a_node1"><a xlink:href="../../tables/act_id_membership.html" xlink:title="act_id_membership" target="_top">
<polygon fill="#ffffff" stroke="transparent" points="221,-59.2 221,-120.2 389,-120.2 389,-59.2 221,-59.2"/>
<polygon fill="#f5f5f5" stroke="transparent" points="221,-96.7 221,-119.7 389,-119.7 389,-96.7 221,-96.7"/>
<polygon fill="none" stroke="#000000" points="221,-96.7 221,-119.7 389,-119.7 389,-96.7 221,-96.7"/>
<text text-anchor="start" x="226" y="-105.3" font-family="Helvetica,sans-Serif" font-weight="bold" font-size="11.00" fill="#000000">act_id_membership</text>
<text text-anchor="start" x="354.5219" y="-104.8" font-family="Helvetica,sans-Serif" font-size="11.00" fill="#000000">[table]</text>
<polygon fill="none" stroke="#000000" points="221,-77.7 221,-96.7 389,-96.7 389,-77.7 221,-77.7"/>
<text text-anchor="start" x="224" y="-83.8" font-family="Helvetica,sans-Serif" font-size="11.00" fill="#000000">...</text>
<polygon fill="#ffffff" stroke="transparent" points="221,-58.7 221,-77.7 303,-77.7 303,-58.7 221,-58.7"/>
<polygon fill="none" stroke="#000000" points="221,-58.7 221,-77.7 303,-77.7 303,-58.7 221,-58.7"/>
<text text-anchor="start" x="224" y="-64.8" font-family="Helvetica,sans-Serif" font-size="11.00" fill="#000000">&lt; 2</text>
<polygon fill="#ffffff" stroke="transparent" points="303,-58.7 303,-77.7 346,-77.7 346,-58.7 303,-58.7"/>
<polygon fill="none" stroke="#000000" points="303,-58.7 303,-77.7 346,-77.7 346,-58.7 303,-58.7"/>
<text text-anchor="start" x="336.8862" y="-64.8" font-family="Helvetica,sans-Serif" font-size="11.00" fill="#000000"> &#160;</text>
<polygon fill="#ffffff" stroke="transparent" points="346,-58.7 346,-77.7 389,-77.7 389,-58.7 346,-58.7"/>
<polygon fill="none" stroke="#000000" points="346,-58.7 346,-77.7 389,-77.7 389,-58.7 346,-58.7"/>
<text text-anchor="start" x="379.8862" y="-64.8" font-family="Helvetica,sans-Serif" font-size="11.00" fill="#000000"> &#160;</text>
</a>
</g>
</g>
<!-- act_id_group -->
<g id="node2" class="node">
<title>act_id_group</title>
<g id="a_node2"><a xlink:href="../../tables/act_id_group.html" xlink:title="act_id_group" target="_top">
<polygon fill="#ffffff" stroke="transparent" points="10.5,-38.2 10.5,-121.2 134.5,-121.2 134.5,-38.2 10.5,-38.2"/>
<polygon fill="#f5f5f5" stroke="transparent" points="10.5,-97.7 10.5,-120.7 134.5,-120.7 134.5,-97.7 10.5,-97.7"/>
<polygon fill="none" stroke="#000000" points="10.5,-97.7 10.5,-120.7 134.5,-120.7 134.5,-97.7 10.5,-97.7"/>
<text text-anchor="start" x="15.5" y="-106.3" font-family="Helvetica,sans-Serif" font-weight="bold" font-size="11.00" fill="#000000">act_id_group</text>
<text text-anchor="start" x="100.0219" y="-105.8" font-family="Helvetica,sans-Serif" font-size="11.00" fill="#000000">[table]</text>
<polygon fill="none" stroke="#000000" points="10.5,-75.7 10.5,-97.7 134.5,-97.7 134.5,-75.7 10.5,-75.7"/>
<image xlink:href="../../images/primaryKeys.png" width="11px" height="12px" preserveAspectRatio="xMinYMin meet" x="15.5" y="-92.7"/>
<text text-anchor="start" x="39.5" y="-82.8" font-family="Helvetica,sans-Serif" font-size="11.00" fill="#000000">id_</text>
<polygon fill="none" stroke="#000000" points="10.5,-56.7 10.5,-75.7 134.5,-75.7 134.5,-56.7 10.5,-56.7"/>
<text text-anchor="start" x="13.5" y="-62.8" font-family="Helvetica,sans-Serif" font-size="11.00" fill="#000000">...</text>
<polygon fill="#ffffff" stroke="transparent" points="10.5,-37.7 10.5,-56.7 61.5,-56.7 61.5,-37.7 10.5,-37.7"/>
<polygon fill="none" stroke="#000000" points="10.5,-37.7 10.5,-56.7 61.5,-56.7 61.5,-37.7 10.5,-37.7"/>
<text text-anchor="start" x="13.5" y="-43.8" font-family="Helvetica,sans-Serif" font-size="11.00" fill="#000000"> &#160;</text>
<polygon fill="#ffffff" stroke="transparent" points="61.5,-37.7 61.5,-56.7 93.5,-56.7 93.5,-37.7 61.5,-37.7"/>
<polygon fill="none" stroke="#000000" points="61.5,-37.7 61.5,-56.7 93.5,-56.7 93.5,-37.7 61.5,-37.7"/>
<text text-anchor="start" x="84.3862" y="-43.8" font-family="Helvetica,sans-Serif" font-size="11.00" fill="#000000"> &#160;</text>
<polygon fill="#ffffff" stroke="transparent" points="93.5,-37.7 93.5,-56.7 134.5,-56.7 134.5,-37.7 93.5,-37.7"/>
<polygon fill="none" stroke="#000000" points="93.5,-37.7 93.5,-56.7 134.5,-56.7 134.5,-37.7 93.5,-37.7"/>
<text text-anchor="start" x="115.9053" y="-43.8" font-family="Helvetica,sans-Serif" font-size="11.00" fill="#000000">2 &gt;</text>
</a>
</g>
</g>
<!-- act_id_membership&#45;&gt;act_id_group -->
<g id="edge1" class="edge">
<title>act_id_membership:w&#45;&gt;act_id_group:e</title>
<path fill="none" stroke="#000000" d="M206.3315,-86.7C179.2822,-86.7 167.5382,-86.7 134.5,-86.7"/>
<polygon fill="#000000" stroke="#000000" points="213,-86.7001 221,-90.3 217,-86.7 221,-86.7 221,-86.7 221,-86.7 217,-86.7 221,-83.1 213,-86.7001 213,-86.7001"/>
<ellipse fill="none" stroke="#000000" cx="209.8" cy="-86.7001" rx="3.2" ry="3.2"/>
</g>
<!-- act_id_user -->
<g id="node3" class="node">
<title>act_id_user</title>
<g id="a_node3"><a xlink:href="../../tables/act_id_user.html" xlink:title="act_id_user" target="_top">
<polygon fill="#ffffff" stroke="transparent" points="12,-142.2 12,-225.2 133,-225.2 133,-142.2 12,-142.2"/>
<polygon fill="#f5f5f5" stroke="transparent" points="12.5,-201.7 12.5,-224.7 133.5,-224.7 133.5,-201.7 12.5,-201.7"/>
<polygon fill="none" stroke="#000000" points="12.5,-201.7 12.5,-224.7 133.5,-224.7 133.5,-201.7 12.5,-201.7"/>
<text text-anchor="start" x="17.5" y="-210.3" font-family="Helvetica,sans-Serif" font-weight="bold" font-size="11.00" fill="#000000">act_id_user</text>
<text text-anchor="start" x="98.5437" y="-209.8" font-family="Helvetica,sans-Serif" font-size="11.00" fill="#000000">[table]</text>
<polygon fill="none" stroke="#000000" points="12.5,-179.7 12.5,-201.7 133.5,-201.7 133.5,-179.7 12.5,-179.7"/>
<image xlink:href="../../images/primaryKeys.png" width="11px" height="12px" preserveAspectRatio="xMinYMin meet" x="17.5" y="-196.7"/>
<text text-anchor="start" x="32.5" y="-186.8" font-family="Helvetica,sans-Serif" font-size="11.00" fill="#000000">id_</text>
<polygon fill="none" stroke="#000000" points="12.5,-160.7 12.5,-179.7 133.5,-179.7 133.5,-160.7 12.5,-160.7"/>
<text text-anchor="start" x="15.5" y="-166.8" font-family="Helvetica,sans-Serif" font-size="11.00" fill="#000000">...</text>
<polygon fill="#ffffff" stroke="transparent" points="12.5,-141.7 12.5,-160.7 62.5,-160.7 62.5,-141.7 12.5,-141.7"/>
<polygon fill="none" stroke="#000000" points="12.5,-141.7 12.5,-160.7 62.5,-160.7 62.5,-141.7 12.5,-141.7"/>
<text text-anchor="start" x="15.5" y="-147.8" font-family="Helvetica,sans-Serif" font-size="11.00" fill="#000000"> &#160;</text>
<polygon fill="#ffffff" stroke="transparent" points="62.5,-141.7 62.5,-160.7 93.5,-160.7 93.5,-141.7 62.5,-141.7"/>
<polygon fill="none" stroke="#000000" points="62.5,-141.7 62.5,-160.7 93.5,-160.7 93.5,-141.7 62.5,-141.7"/>
<text text-anchor="start" x="84.3862" y="-147.8" font-family="Helvetica,sans-Serif" font-size="11.00" fill="#000000"> &#160;</text>
<polygon fill="#ffffff" stroke="transparent" points="93.5,-141.7 93.5,-160.7 133.5,-160.7 133.5,-141.7 93.5,-141.7"/>
<polygon fill="none" stroke="#000000" points="93.5,-141.7 93.5,-160.7 133.5,-160.7 133.5,-141.7 93.5,-141.7"/>
<text text-anchor="start" x="114.9053" y="-147.8" font-family="Helvetica,sans-Serif" font-size="11.00" fill="#000000">2 &gt;</text>
</a>
</g>
</g>
<!-- act_id_membership&#45;&gt;act_id_user -->
<g id="edge2" class="edge">
<title>act_id_membership:w&#45;&gt;act_id_user:e</title>
<path fill="none" stroke="#000000" d="M206.7649,-89.7617C193.6198,-96.7328 191.8599,-114.4447 178,-130.7 156.4591,-155.9638 166.7005,-190.7 133.5,-190.7"/>
<polygon fill="#000000" stroke="#000000" points="213.1789,-88.3822 221.757,-90.2195 217.0894,-87.5411 221,-86.7 221,-86.7 221,-86.7 217.0894,-87.5411 220.243,-83.1805 213.1789,-88.3822 213.1789,-88.3822"/>
<ellipse fill="none" stroke="#000000" cx="210.0504" cy="-89.0551" rx="3.2" ry="3.2"/>
</g>
<!-- act_id_tenant_member -->
<g id="node4" class="node">
<title>act_id_tenant_member</title>
<g id="a_node4"><a xlink:href="../../tables/act_id_tenant_member.html" xlink:title="act_id_tenant_member" target="_top">
<polygon fill="#ffffff" stroke="transparent" points="186,-141.7 186,-275.7 424,-275.7 424,-141.7 186,-141.7"/>
<polygon fill="#f5f5f5" stroke="transparent" points="188,-250.7 188,-273.7 422,-273.7 422,-250.7 188,-250.7"/>
<polygon fill="none" stroke="#000000" points="188,-250.7 188,-273.7 422,-273.7 422,-250.7 188,-250.7"/>
<text text-anchor="start" x="193" y="-259.3" font-family="Helvetica,sans-Serif" font-weight="bold" font-size="11.00" fill="#000000">act_id_tenant_member</text>
<text text-anchor="start" x="387.0437" y="-258.8" font-family="Helvetica,sans-Serif" font-size="11.00" fill="#000000">[table]</text>
<polygon fill="none" stroke="#000000" points="188,-228.7 188,-250.7 361,-250.7 361,-228.7 188,-228.7"/>
<image xlink:href="../../images/primaryKeys.png" width="11px" height="12px" preserveAspectRatio="xMinYMin meet" x="193" y="-245.7"/>
<text text-anchor="start" x="208" y="-235.8" font-family="Helvetica,sans-Serif" font-size="11.00" fill="#000000">id_</text>
<polygon fill="none" stroke="#000000" points="361,-228.7 361,-250.7 422,-250.7 422,-228.7 361,-228.7"/>
<text text-anchor="start" x="363.994" y="-236.4" font-family="Helvetica,sans-Serif" font-size="11.00" fill="#000000">varchar[64]</text>
<polygon fill="#ffffff" stroke="transparent" points="188,-206.7 188,-228.7 361,-228.7 361,-206.7 188,-206.7"/>
<polygon fill="none" stroke="#000000" points="188,-206.7 188,-228.7 361,-228.7 361,-206.7 188,-206.7"/>
<image xlink:href="../../images/foreignKeys.png" width="11px" height="12px" preserveAspectRatio="xMinYMin meet" x="193" y="-223.7"/>
<text text-anchor="start" x="208" y="-213.8" font-family="Helvetica,sans-Serif" font-size="11.00" fill="#000000">tenant_id_</text>
<polygon fill="none" stroke="#000000" points="361,-206.7 361,-228.7 422,-228.7 422,-206.7 361,-206.7"/>
<text text-anchor="start" x="363.994" y="-214.4" font-family="Helvetica,sans-Serif" font-size="11.00" fill="#000000">varchar[64]</text>
<polygon fill="#ffffff" stroke="transparent" points="188,-184.7 188,-206.7 361,-206.7 361,-184.7 188,-184.7"/>
<polygon fill="none" stroke="#000000" points="188,-184.7 188,-206.7 361,-206.7 361,-184.7 188,-184.7"/>
<image xlink:href="../../images/foreignKeys.png" width="11px" height="12px" preserveAspectRatio="xMinYMin meet" x="193" y="-201.7"/>
<text text-anchor="start" x="208" y="-191.8" font-family="Helvetica,sans-Serif" font-size="11.00" fill="#000000">user_id_</text>
<polygon fill="none" stroke="#000000" points="361,-184.7 361,-206.7 422,-206.7 422,-184.7 361,-184.7"/>
<text text-anchor="start" x="363.994" y="-192.4" font-family="Helvetica,sans-Serif" font-size="11.00" fill="#000000">varchar[64]</text>
<polygon fill="#ffffff" stroke="transparent" points="188,-162.7 188,-184.7 361,-184.7 361,-162.7 188,-162.7"/>
<polygon fill="none" stroke="#000000" points="188,-162.7 188,-184.7 361,-184.7 361,-162.7 188,-162.7"/>
<image xlink:href="../../images/foreignKeys.png" width="11px" height="12px" preserveAspectRatio="xMinYMin meet" x="193" y="-179.7"/>
<text text-anchor="start" x="208" y="-169.8" font-family="Helvetica,sans-Serif" font-size="11.00" fill="#000000">group_id_</text>
<polygon fill="none" stroke="#000000" points="361,-162.7 361,-184.7 422,-184.7 422,-162.7 361,-162.7"/>
<text text-anchor="start" x="363.994" y="-170.4" font-family="Helvetica,sans-Serif" font-size="11.00" fill="#000000">varchar[64]</text>
<polygon fill="#ffffff" stroke="transparent" points="188,-143.7 188,-162.7 279,-162.7 279,-143.7 188,-143.7"/>
<polygon fill="none" stroke="#000000" points="188,-143.7 188,-162.7 279,-162.7 279,-143.7 188,-143.7"/>
<text text-anchor="start" x="191" y="-149.8" font-family="Helvetica,sans-Serif" font-size="11.00" fill="#000000">&lt; 3</text>
<polygon fill="#ffffff" stroke="transparent" points="279,-143.7 279,-162.7 361,-162.7 361,-143.7 279,-143.7"/>
<polygon fill="none" stroke="#000000" points="279,-143.7 279,-162.7 361,-162.7 361,-143.7 279,-143.7"/>
<text text-anchor="start" x="351.8862" y="-149.8" font-family="Helvetica,sans-Serif" font-size="11.00" fill="#000000"> &#160;</text>
<polygon fill="#ffffff" stroke="transparent" points="361,-143.7 361,-162.7 422,-162.7 422,-143.7 361,-143.7"/>
<polygon fill="none" stroke="#000000" points="361,-143.7 361,-162.7 422,-162.7 422,-143.7 361,-143.7"/>
<text text-anchor="start" x="403.4053" y="-149.8" font-family="Helvetica,sans-Serif" font-size="11.00" fill="#000000">0 &gt;</text>
<polygon fill="none" stroke="#000000" stroke-width="2" points="187,-142.7 187,-274.7 423,-274.7 423,-142.7 187,-142.7"/>
</a>
</g>
</g>
<!-- act_id_tenant_member&#45;&gt;act_id_group -->
<g id="edge3" class="edge">
<title>act_id_tenant_member:w&#45;&gt;act_id_group:e</title>
<path fill="none" stroke="#000000" d="M173.9016,-169.5038C151.0529,-152.1252 173.8639,-86.7 134.5,-86.7"/>
<polygon fill="#000000" stroke="#000000" points="180.3324,-171.4178 186.973,-177.1504 184.1662,-172.5589 188,-173.7 188,-173.7 188,-173.7 184.1662,-172.5589 189.027,-170.2496 180.3324,-171.4178 180.3324,-171.4178"/>
<ellipse fill="none" stroke="#000000" cx="177.2654" cy="-170.5049" rx="3.2" ry="3.2"/>
</g>
<!-- act_id_tenant_member&#45;&gt;act_id_user -->
<g id="edge5" class="edge">
<title>act_id_tenant_member:w&#45;&gt;act_id_user:e</title>
<path fill="none" stroke="#000000" d="M173.4657,-195.0048C159.9182,-193.6309 152.123,-190.7 133.5,-190.7"/>
<polygon fill="#000000" stroke="#000000" points="180.0091,-195.3177 187.828,-199.2959 184.0046,-195.5089 188,-195.7 188,-195.7 188,-195.7 184.0046,-195.5089 188.172,-192.1041 180.0091,-195.3177 180.0091,-195.3177"/>
<ellipse fill="none" stroke="#000000" cx="176.8128" cy="-195.1648" rx="3.2" ry="3.2"/>
</g>
<!-- act_id_tenant -->
<g id="node5" class="node">
<title>act_id_tenant</title>
<g id="a_node5"><a xlink:href="../../tables/act_id_tenant.html" xlink:title="act_id_tenant" target="_top">
<polygon fill="#ffffff" stroke="transparent" points="8,-246.2 8,-329.2 137,-329.2 137,-246.2 8,-246.2"/>
<polygon fill="#f5f5f5" stroke="transparent" points="8.5,-305.7 8.5,-328.7 137.5,-328.7 137.5,-305.7 8.5,-305.7"/>
<polygon fill="none" stroke="#000000" points="8.5,-305.7 8.5,-328.7 137.5,-328.7 137.5,-305.7 8.5,-305.7"/>
<text text-anchor="start" x="13.5" y="-314.3" font-family="Helvetica,sans-Serif" font-weight="bold" font-size="11.00" fill="#000000">act_id_tenant</text>
<text text-anchor="start" x="103.0219" y="-313.8" font-family="Helvetica,sans-Serif" font-size="11.00" fill="#000000">[table]</text>
<polygon fill="none" stroke="#000000" points="8.5,-283.7 8.5,-305.7 137.5,-305.7 137.5,-283.7 8.5,-283.7"/>
<image xlink:href="../../images/primaryKeys.png" width="11px" height="12px" preserveAspectRatio="xMinYMin meet" x="13.5" y="-300.7"/>
<text text-anchor="start" x="37.5" y="-290.8" font-family="Helvetica,sans-Serif" font-size="11.00" fill="#000000">id_</text>
<polygon fill="none" stroke="#000000" points="8.5,-264.7 8.5,-283.7 137.5,-283.7 137.5,-264.7 8.5,-264.7"/>
<text text-anchor="start" x="11.5" y="-270.8" font-family="Helvetica,sans-Serif" font-size="11.00" fill="#000000">...</text>
<polygon fill="#ffffff" stroke="transparent" points="8.5,-245.7 8.5,-264.7 62.5,-264.7 62.5,-245.7 8.5,-245.7"/>
<polygon fill="none" stroke="#000000" points="8.5,-245.7 8.5,-264.7 62.5,-264.7 62.5,-245.7 8.5,-245.7"/>
<text text-anchor="start" x="11.5" y="-251.8" font-family="Helvetica,sans-Serif" font-size="11.00" fill="#000000"> &#160;</text>
<polygon fill="#ffffff" stroke="transparent" points="62.5,-245.7 62.5,-264.7 95.5,-264.7 95.5,-245.7 62.5,-245.7"/>
<polygon fill="none" stroke="#000000" points="62.5,-245.7 62.5,-264.7 95.5,-264.7 95.5,-245.7 62.5,-245.7"/>
<text text-anchor="start" x="86.3862" y="-251.8" font-family="Helvetica,sans-Serif" font-size="11.00" fill="#000000"> &#160;</text>
<polygon fill="#ffffff" stroke="transparent" points="95.5,-245.7 95.5,-264.7 137.5,-264.7 137.5,-245.7 95.5,-245.7"/>
<polygon fill="none" stroke="#000000" points="95.5,-245.7 95.5,-264.7 137.5,-264.7 137.5,-245.7 95.5,-245.7"/>
<text text-anchor="start" x="118.9053" y="-251.8" font-family="Helvetica,sans-Serif" font-size="11.00" fill="#000000">1 &gt;</text>
</a>
</g>
</g>
<!-- act_id_tenant_member&#45;&gt;act_id_tenant -->
<g id="edge4" class="edge">
<title>act_id_tenant_member:w&#45;&gt;act_id_tenant:e</title>
<path fill="none" stroke="#000000" d="M174.0801,-222.2861C154.7892,-238.8628 172.3508,-294.7 137.5,-294.7"/>
<polygon fill="#000000" stroke="#000000" points="180.4018,-220.2034 189.1265,-221.1192 184.2009,-218.9517 188,-217.7 188,-217.7 188,-217.7 184.2009,-218.9517 186.8735,-214.2808 180.4018,-220.2034 180.4018,-220.2034"/>
<ellipse fill="none" stroke="#000000" cx="177.3625" cy="-221.2047" rx="3.2" ry="3.2"/>
</g>
</g>
</svg>
