<?xml version="1.0" encoding="UTF-8" standalone="no"?>
<!DOCTYPE svg PUBLIC "-//W3C//DTD SVG 1.1//EN"
 "http://www.w3.org/Graphics/SVG/1.1/DTD/svg11.dtd">
<!-- Generated by graphviz version 2.40.1 (20161225.0304)
 -->
<!-- Title: oneDegreeRelationshipsDiagram Pages: 1 -->
<svg width="261pt" height="448pt"
 viewBox="0.00 0.00 261.00 448.20" xmlns="http://www.w3.org/2000/svg" xmlns:xlink="http://www.w3.org/1999/xlink">
<g id="graph0" class="graph" transform="scale(1 1) rotate(0) translate(4 444.2)">
<title>oneDegreeRelationshipsDiagram</title>
<polygon fill="#ffffff" stroke="transparent" points="-4,4 -4,-444.2 257,-444.2 257,4 -4,4"/>
<text text-anchor="middle" x="72.4936" y="-7.3" font-family="Helvetica,sans-Serif" font-size="11.00" fill="#000000">Generated by SchemaSpy</text>
<!-- act_hi_caseactinst -->
<g id="node1" class="node">
<title>act_hi_caseactinst</title>
<g id="a_node1"><a xlink:href="../../tables/act_hi_caseactinst.html" xlink:title="act_hi_caseactinst" target="_top">
<polygon fill="#ffffff" stroke="transparent" points="8,-38.2 8,-436.2 245,-436.2 245,-38.2 8,-38.2"/>
<polygon fill="#f5f5f5" stroke="transparent" points="10.5,-411.2 10.5,-434.2 243.5,-434.2 243.5,-411.2 10.5,-411.2"/>
<polygon fill="none" stroke="#000000" points="10.5,-411.2 10.5,-434.2 243.5,-434.2 243.5,-411.2 10.5,-411.2"/>
<text text-anchor="start" x="15.5" y="-419.8" font-family="Helvetica,sans-Serif" font-weight="bold" font-size="11.00" fill="#000000">act_hi_caseactinst</text>
<text text-anchor="start" x="208.5437" y="-419.3" font-family="Helvetica,sans-Serif" font-size="11.00" fill="#000000">[table]</text>
<polygon fill="none" stroke="#000000" points="10.5,-389.2 10.5,-411.2 159.5,-411.2 159.5,-389.2 10.5,-389.2"/>
<image xlink:href="../../images/primaryKeys.png" width="11px" height="12px" preserveAspectRatio="xMinYMin meet" x="15.5" y="-406.2"/>
<text text-anchor="start" x="30.5" y="-396.3" font-family="Helvetica,sans-Serif" font-size="11.00" fill="#000000">id_</text>
<polygon fill="none" stroke="#000000" points="159.5,-389.2 159.5,-411.2 243.5,-411.2 243.5,-389.2 159.5,-389.2"/>
<text text-anchor="start" x="162.5" y="-396.9" font-family="Helvetica,sans-Serif" font-size="11.00" fill="#000000">varchar[64]</text>
<polygon fill="none" stroke="#000000" points="10.5,-367.2 10.5,-389.2 159.5,-389.2 159.5,-367.2 10.5,-367.2"/>
<text text-anchor="start" x="30.5" y="-374.3" font-family="Helvetica,sans-Serif" font-size="11.00" fill="#000000">parent_act_inst_id_</text>
<polygon fill="none" stroke="#000000" points="159.5,-367.2 159.5,-389.2 243.5,-389.2 243.5,-367.2 159.5,-367.2"/>
<text text-anchor="start" x="162.5" y="-374.9" font-family="Helvetica,sans-Serif" font-size="11.00" fill="#000000">varchar[64]</text>
<polygon fill="none" stroke="#000000" points="10.5,-345.2 10.5,-367.2 159.5,-367.2 159.5,-345.2 10.5,-345.2"/>
<text text-anchor="start" x="30.5" y="-352.3" font-family="Helvetica,sans-Serif" font-size="11.00" fill="#000000">case_def_id_</text>
<polygon fill="none" stroke="#000000" points="159.5,-345.2 159.5,-367.2 243.5,-367.2 243.5,-345.2 159.5,-345.2"/>
<text text-anchor="start" x="162.5" y="-352.9" font-family="Helvetica,sans-Serif" font-size="11.00" fill="#000000">varchar[64]</text>
<polygon fill="none" stroke="#000000" points="10.5,-323.2 10.5,-345.2 159.5,-345.2 159.5,-323.2 10.5,-323.2"/>
<text text-anchor="start" x="30.5" y="-330.3" font-family="Helvetica,sans-Serif" font-size="11.00" fill="#000000">case_inst_id_</text>
<polygon fill="none" stroke="#000000" points="159.5,-323.2 159.5,-345.2 243.5,-345.2 243.5,-323.2 159.5,-323.2"/>
<text text-anchor="start" x="162.5" y="-330.9" font-family="Helvetica,sans-Serif" font-size="11.00" fill="#000000">varchar[64]</text>
<polygon fill="#ffffff" stroke="transparent" points="10.5,-301.2 10.5,-323.2 159.5,-323.2 159.5,-301.2 10.5,-301.2"/>
<polygon fill="none" stroke="#000000" points="10.5,-301.2 10.5,-323.2 159.5,-323.2 159.5,-301.2 10.5,-301.2"/>
<text text-anchor="start" x="30.5" y="-308.3" font-family="Helvetica,sans-Serif" font-size="11.00" fill="#000000">case_act_id_</text>
<polygon fill="none" stroke="#000000" points="159.5,-301.2 159.5,-323.2 243.5,-323.2 243.5,-301.2 159.5,-301.2"/>
<text text-anchor="start" x="162.5" y="-308.9" font-family="Helvetica,sans-Serif" font-size="11.00" fill="#000000">varchar[255]</text>
<polygon fill="none" stroke="#000000" points="10.5,-279.2 10.5,-301.2 159.5,-301.2 159.5,-279.2 10.5,-279.2"/>
<text text-anchor="start" x="30.5" y="-286.3" font-family="Helvetica,sans-Serif" font-size="11.00" fill="#000000">task_id_</text>
<polygon fill="none" stroke="#000000" points="159.5,-279.2 159.5,-301.2 243.5,-301.2 243.5,-279.2 159.5,-279.2"/>
<text text-anchor="start" x="162.5" y="-286.9" font-family="Helvetica,sans-Serif" font-size="11.00" fill="#000000">varchar[64]</text>
<polygon fill="none" stroke="#000000" points="10.5,-257.2 10.5,-279.2 159.5,-279.2 159.5,-257.2 10.5,-257.2"/>
<text text-anchor="start" x="30.5" y="-264.3" font-family="Helvetica,sans-Serif" font-size="11.00" fill="#000000">call_proc_inst_id_</text>
<polygon fill="none" stroke="#000000" points="159.5,-257.2 159.5,-279.2 243.5,-279.2 243.5,-257.2 159.5,-257.2"/>
<text text-anchor="start" x="162.5" y="-264.9" font-family="Helvetica,sans-Serif" font-size="11.00" fill="#000000">varchar[64]</text>
<polygon fill="none" stroke="#000000" points="10.5,-235.2 10.5,-257.2 159.5,-257.2 159.5,-235.2 10.5,-235.2"/>
<text text-anchor="start" x="30.5" y="-242.3" font-family="Helvetica,sans-Serif" font-size="11.00" fill="#000000">call_case_inst_id_</text>
<polygon fill="none" stroke="#000000" points="159.5,-235.2 159.5,-257.2 243.5,-257.2 243.5,-235.2 159.5,-235.2"/>
<text text-anchor="start" x="162.5" y="-242.9" font-family="Helvetica,sans-Serif" font-size="11.00" fill="#000000">varchar[64]</text>
<polygon fill="none" stroke="#000000" points="10.5,-213.2 10.5,-235.2 159.5,-235.2 159.5,-213.2 10.5,-213.2"/>
<text text-anchor="start" x="30.5" y="-220.3" font-family="Helvetica,sans-Serif" font-size="11.00" fill="#000000">case_act_name_</text>
<polygon fill="none" stroke="#000000" points="159.5,-213.2 159.5,-235.2 243.5,-235.2 243.5,-213.2 159.5,-213.2"/>
<text text-anchor="start" x="162.5" y="-220.9" font-family="Helvetica,sans-Serif" font-size="11.00" fill="#000000">varchar[255]</text>
<polygon fill="none" stroke="#000000" points="10.5,-191.2 10.5,-213.2 159.5,-213.2 159.5,-191.2 10.5,-191.2"/>
<text text-anchor="start" x="30.5" y="-198.3" font-family="Helvetica,sans-Serif" font-size="11.00" fill="#000000">case_act_type_</text>
<polygon fill="none" stroke="#000000" points="159.5,-191.2 159.5,-213.2 243.5,-213.2 243.5,-191.2 159.5,-191.2"/>
<text text-anchor="start" x="162.5" y="-198.9" font-family="Helvetica,sans-Serif" font-size="11.00" fill="#000000">varchar[255]</text>
<polygon fill="#ffffff" stroke="transparent" points="10.5,-169.2 10.5,-191.2 159.5,-191.2 159.5,-169.2 10.5,-169.2"/>
<polygon fill="none" stroke="#000000" points="10.5,-169.2 10.5,-191.2 159.5,-191.2 159.5,-169.2 10.5,-169.2"/>
<text text-anchor="start" x="30.5" y="-176.3" font-family="Helvetica,sans-Serif" font-size="11.00" fill="#000000">create_time_</text>
<polygon fill="none" stroke="#000000" points="159.5,-169.2 159.5,-191.2 243.5,-191.2 243.5,-169.2 159.5,-169.2"/>
<text text-anchor="start" x="162.3807" y="-176.9" font-family="Helvetica,sans-Serif" font-size="11.00" fill="#000000">timestamp[29,6]</text>
<polygon fill="#ffffff" stroke="transparent" points="10.5,-147.2 10.5,-169.2 159.5,-169.2 159.5,-147.2 10.5,-147.2"/>
<polygon fill="none" stroke="#000000" points="10.5,-147.2 10.5,-169.2 159.5,-169.2 159.5,-147.2 10.5,-147.2"/>
<text text-anchor="start" x="30.5" y="-154.3" font-family="Helvetica,sans-Serif" font-size="11.00" fill="#000000">end_time_</text>
<polygon fill="none" stroke="#000000" points="159.5,-147.2 159.5,-169.2 243.5,-169.2 243.5,-147.2 159.5,-147.2"/>
<text text-anchor="start" x="162.3807" y="-154.9" font-family="Helvetica,sans-Serif" font-size="11.00" fill="#000000">timestamp[29,6]</text>
<polygon fill="none" stroke="#000000" points="10.5,-125.2 10.5,-147.2 159.5,-147.2 159.5,-125.2 10.5,-125.2"/>
<text text-anchor="start" x="30.5" y="-132.3" font-family="Helvetica,sans-Serif" font-size="11.00" fill="#000000">duration_</text>
<polygon fill="none" stroke="#000000" points="159.5,-125.2 159.5,-147.2 243.5,-147.2 243.5,-125.2 159.5,-125.2"/>
<text text-anchor="start" x="162.5" y="-132.9" font-family="Helvetica,sans-Serif" font-size="11.00" fill="#000000">int8[19]</text>
<polygon fill="none" stroke="#000000" points="10.5,-103.2 10.5,-125.2 159.5,-125.2 159.5,-103.2 10.5,-103.2"/>
<text text-anchor="start" x="30.5" y="-110.3" font-family="Helvetica,sans-Serif" font-size="11.00" fill="#000000">state_</text>
<polygon fill="none" stroke="#000000" points="159.5,-103.2 159.5,-125.2 243.5,-125.2 243.5,-103.2 159.5,-103.2"/>
<text text-anchor="start" x="162.5" y="-110.9" font-family="Helvetica,sans-Serif" font-size="11.00" fill="#000000">int4[10]</text>
<polygon fill="none" stroke="#000000" points="10.5,-81.2 10.5,-103.2 159.5,-103.2 159.5,-81.2 10.5,-81.2"/>
<text text-anchor="start" x="30.5" y="-88.3" font-family="Helvetica,sans-Serif" font-size="11.00" fill="#000000">required_</text>
<polygon fill="none" stroke="#000000" points="159.5,-81.2 159.5,-103.2 243.5,-103.2 243.5,-81.2 159.5,-81.2"/>
<text text-anchor="start" x="162.5" y="-88.9" font-family="Helvetica,sans-Serif" font-size="11.00" fill="#000000">bool[1]</text>
<polygon fill="#ffffff" stroke="transparent" points="10.5,-59.2 10.5,-81.2 159.5,-81.2 159.5,-59.2 10.5,-59.2"/>
<polygon fill="none" stroke="#000000" points="10.5,-59.2 10.5,-81.2 159.5,-81.2 159.5,-59.2 10.5,-59.2"/>
<text text-anchor="start" x="30.5" y="-66.3" font-family="Helvetica,sans-Serif" font-size="11.00" fill="#000000">tenant_id_</text>
<polygon fill="none" stroke="#000000" points="159.5,-59.2 159.5,-81.2 243.5,-81.2 243.5,-59.2 159.5,-59.2"/>
<text text-anchor="start" x="162.5" y="-66.9" font-family="Helvetica,sans-Serif" font-size="11.00" fill="#000000">varchar[64]</text>
<polygon fill="#ffffff" stroke="transparent" points="10.5,-40.2 10.5,-59.2 89.5,-59.2 89.5,-40.2 10.5,-40.2"/>
<polygon fill="none" stroke="#000000" points="10.5,-40.2 10.5,-59.2 89.5,-59.2 89.5,-40.2 10.5,-40.2"/>
<text text-anchor="start" x="13.5" y="-46.3" font-family="Helvetica,sans-Serif" font-size="11.00" fill="#000000">&lt; 0</text>
<polygon fill="#ffffff" stroke="transparent" points="89.5,-40.2 89.5,-59.2 159.5,-59.2 159.5,-40.2 89.5,-40.2"/>
<polygon fill="none" stroke="#000000" points="89.5,-40.2 89.5,-59.2 159.5,-59.2 159.5,-40.2 89.5,-40.2"/>
<text text-anchor="start" x="150.3862" y="-46.3" font-family="Helvetica,sans-Serif" font-size="11.00" fill="#000000"> &#160;</text>
<polygon fill="#ffffff" stroke="transparent" points="159.5,-40.2 159.5,-59.2 243.5,-59.2 243.5,-40.2 159.5,-40.2"/>
<polygon fill="none" stroke="#000000" points="159.5,-40.2 159.5,-59.2 243.5,-59.2 243.5,-40.2 159.5,-40.2"/>
<text text-anchor="start" x="224.9053" y="-46.3" font-family="Helvetica,sans-Serif" font-size="11.00" fill="#000000">0 &gt;</text>
<polygon fill="none" stroke="#000000" stroke-width="2" points="9,-39.2 9,-435.2 244,-435.2 244,-39.2 9,-39.2"/>
</a>
</g>
</g>
</g>
</svg>
