<?xml version="1.0" encoding="UTF-8" standalone="no"?>
<!DOCTYPE svg PUBLIC "-//W3C//DTD SVG 1.1//EN"
 "http://www.w3.org/Graphics/SVG/1.1/DTD/svg11.dtd">
<!-- Generated by graphviz version 2.40.1 (20161225.0304)
 -->
<!-- Title: oneDegreeRelationshipsDiagramImplied Pages: 1 -->
<svg width="443pt" height="228pt"
 viewBox="0.00 0.00 443.00 228.20" xmlns="http://www.w3.org/2000/svg" xmlns:xlink="http://www.w3.org/1999/xlink">
<g id="graph0" class="graph" transform="scale(1 1) rotate(0) translate(4 224.2)">
<title>oneDegreeRelationshipsDiagramImplied</title>
<polygon fill="#ffffff" stroke="transparent" points="-4,4 -4,-224.2 439,-224.2 439,4 -4,4"/>
<text text-anchor="middle" x="72.4936" y="-7.3" font-family="Helvetica,sans-Serif" font-size="11.00" fill="#000000">Generated by SchemaSpy</text>
<!-- act_ru_meter_log -->
<g id="node1" class="node">
<title>act_ru_meter_log</title>
<g id="a_node1"><a xlink:href="../../tables/act_ru_meter_log.html" xlink:title="act_ru_meter_log" target="_top">
<polygon fill="#ffffff" stroke="transparent" points="204,-38.2 204,-216.2 427,-216.2 427,-38.2 204,-38.2"/>
<polygon fill="#f5f5f5" stroke="transparent" points="206.5,-191.2 206.5,-214.2 425.5,-214.2 425.5,-191.2 206.5,-191.2"/>
<polygon fill="none" stroke="#000000" points="206.5,-191.2 206.5,-214.2 425.5,-214.2 425.5,-191.2 206.5,-191.2"/>
<text text-anchor="start" x="211.5" y="-199.8" font-family="Helvetica,sans-Serif" font-weight="bold" font-size="11.00" fill="#000000">act_ru_meter_log</text>
<text text-anchor="start" x="390.5437" y="-199.3" font-family="Helvetica,sans-Serif" font-size="11.00" fill="#000000">[table]</text>
<polygon fill="none" stroke="#000000" points="206.5,-169.2 206.5,-191.2 341.5,-191.2 341.5,-169.2 206.5,-169.2"/>
<image xlink:href="../../images/primaryKeys.png" width="11px" height="12px" preserveAspectRatio="xMinYMin meet" x="211.5" y="-186.2"/>
<text text-anchor="start" x="226.5" y="-176.3" font-family="Helvetica,sans-Serif" font-size="11.00" fill="#000000">id_</text>
<polygon fill="none" stroke="#000000" points="341.5,-169.2 341.5,-191.2 425.5,-191.2 425.5,-169.2 341.5,-169.2"/>
<text text-anchor="start" x="344.5" y="-176.9" font-family="Helvetica,sans-Serif" font-size="11.00" fill="#000000">varchar[64]</text>
<polygon fill="#ffffff" stroke="transparent" points="206.5,-147.2 206.5,-169.2 341.5,-169.2 341.5,-147.2 206.5,-147.2"/>
<polygon fill="none" stroke="#000000" points="206.5,-147.2 206.5,-169.2 341.5,-169.2 341.5,-147.2 206.5,-147.2"/>
<image xlink:href="../../images/foreignKeys.png" width="11px" height="12px" preserveAspectRatio="xMinYMin meet" x="211.5" y="-164.2"/>
<text text-anchor="start" x="226.5" y="-154.3" font-family="Helvetica,sans-Serif" font-size="11.00" fill="#000000">name_</text>
<polygon fill="none" stroke="#000000" points="341.5,-147.2 341.5,-169.2 425.5,-169.2 425.5,-147.2 341.5,-147.2"/>
<text text-anchor="start" x="344.5" y="-154.9" font-family="Helvetica,sans-Serif" font-size="11.00" fill="#000000">varchar[64]</text>
<polygon fill="#ffffff" stroke="transparent" points="206.5,-125.2 206.5,-147.2 341.5,-147.2 341.5,-125.2 206.5,-125.2"/>
<polygon fill="none" stroke="#000000" points="206.5,-125.2 206.5,-147.2 341.5,-147.2 341.5,-125.2 206.5,-125.2"/>
<text text-anchor="start" x="226.5" y="-132.3" font-family="Helvetica,sans-Serif" font-size="11.00" fill="#000000">reporter_</text>
<polygon fill="none" stroke="#000000" points="341.5,-125.2 341.5,-147.2 425.5,-147.2 425.5,-125.2 341.5,-125.2"/>
<text text-anchor="start" x="344.5" y="-132.9" font-family="Helvetica,sans-Serif" font-size="11.00" fill="#000000">varchar[255]</text>
<polygon fill="none" stroke="#000000" points="206.5,-103.2 206.5,-125.2 341.5,-125.2 341.5,-103.2 206.5,-103.2"/>
<text text-anchor="start" x="226.5" y="-110.3" font-family="Helvetica,sans-Serif" font-size="11.00" fill="#000000">value_</text>
<polygon fill="none" stroke="#000000" points="341.5,-103.2 341.5,-125.2 425.5,-125.2 425.5,-103.2 341.5,-103.2"/>
<text text-anchor="start" x="344.5" y="-110.9" font-family="Helvetica,sans-Serif" font-size="11.00" fill="#000000">int8[19]</text>
<polygon fill="#ffffff" stroke="transparent" points="206.5,-81.2 206.5,-103.2 341.5,-103.2 341.5,-81.2 206.5,-81.2"/>
<polygon fill="none" stroke="#000000" points="206.5,-81.2 206.5,-103.2 341.5,-103.2 341.5,-81.2 206.5,-81.2"/>
<text text-anchor="start" x="226.5" y="-88.3" font-family="Helvetica,sans-Serif" font-size="11.00" fill="#000000">timestamp_</text>
<polygon fill="none" stroke="#000000" points="341.5,-81.2 341.5,-103.2 425.5,-103.2 425.5,-81.2 341.5,-81.2"/>
<text text-anchor="start" x="344.3807" y="-88.9" font-family="Helvetica,sans-Serif" font-size="11.00" fill="#000000">timestamp[29,6]</text>
<polygon fill="#ffffff" stroke="transparent" points="206.5,-59.2 206.5,-81.2 341.5,-81.2 341.5,-59.2 206.5,-59.2"/>
<polygon fill="none" stroke="#000000" points="206.5,-59.2 206.5,-81.2 341.5,-81.2 341.5,-59.2 206.5,-59.2"/>
<text text-anchor="start" x="226.5" y="-66.3" font-family="Helvetica,sans-Serif" font-size="11.00" fill="#000000">milliseconds_</text>
<polygon fill="none" stroke="#000000" points="341.5,-59.2 341.5,-81.2 425.5,-81.2 425.5,-59.2 341.5,-59.2"/>
<text text-anchor="start" x="344.5" y="-66.9" font-family="Helvetica,sans-Serif" font-size="11.00" fill="#000000">int8[19]</text>
<polygon fill="#ffffff" stroke="transparent" points="206.5,-40.2 206.5,-59.2 278.5,-59.2 278.5,-40.2 206.5,-40.2"/>
<polygon fill="none" stroke="#000000" points="206.5,-40.2 206.5,-59.2 278.5,-59.2 278.5,-40.2 206.5,-40.2"/>
<text text-anchor="start" x="209.5" y="-46.3" font-family="Helvetica,sans-Serif" font-size="11.00" fill="#000000">&lt; 1</text>
<polygon fill="#ffffff" stroke="transparent" points="278.5,-40.2 278.5,-59.2 341.5,-59.2 341.5,-40.2 278.5,-40.2"/>
<polygon fill="none" stroke="#000000" points="278.5,-40.2 278.5,-59.2 341.5,-59.2 341.5,-40.2 278.5,-40.2"/>
<text text-anchor="start" x="332.3862" y="-46.3" font-family="Helvetica,sans-Serif" font-size="11.00" fill="#000000"> &#160;</text>
<polygon fill="#ffffff" stroke="transparent" points="341.5,-40.2 341.5,-59.2 425.5,-59.2 425.5,-40.2 341.5,-40.2"/>
<polygon fill="none" stroke="#000000" points="341.5,-40.2 341.5,-59.2 425.5,-59.2 425.5,-40.2 341.5,-40.2"/>
<text text-anchor="start" x="406.9053" y="-46.3" font-family="Helvetica,sans-Serif" font-size="11.00" fill="#000000">0 &gt;</text>
<polygon fill="none" stroke="#000000" stroke-width="2" points="205,-39.2 205,-215.2 426,-215.2 426,-39.2 205,-39.2"/>
</a>
</g>
</g>
<!-- act_ge_property -->
<g id="node2" class="node">
<title>act_ge_property</title>
<g id="a_node2"><a xlink:href="../../tables/act_ge_property.html" xlink:title="act_ge_property" target="_top">
<polygon fill="#ffffff" stroke="transparent" points="8,-109.7 8,-192.7 155,-192.7 155,-109.7 8,-109.7"/>
<polygon fill="#f5f5f5" stroke="transparent" points="8.5,-169.2 8.5,-192.2 155.5,-192.2 155.5,-169.2 8.5,-169.2"/>
<polygon fill="none" stroke="#000000" points="8.5,-169.2 8.5,-192.2 155.5,-192.2 155.5,-169.2 8.5,-169.2"/>
<text text-anchor="start" x="13.5" y="-177.8" font-family="Helvetica,sans-Serif" font-weight="bold" font-size="11.00" fill="#000000">act_ge_property</text>
<text text-anchor="start" x="121.0219" y="-177.3" font-family="Helvetica,sans-Serif" font-size="11.00" fill="#000000">[table]</text>
<polygon fill="none" stroke="#000000" points="8.5,-147.2 8.5,-169.2 155.5,-169.2 155.5,-147.2 8.5,-147.2"/>
<image xlink:href="../../images/primaryKeys.png" width="11px" height="12px" preserveAspectRatio="xMinYMin meet" x="13.5" y="-164.2"/>
<text text-anchor="start" x="37.5" y="-154.3" font-family="Helvetica,sans-Serif" font-size="11.00" fill="#000000">name_</text>
<polygon fill="none" stroke="#000000" points="8.5,-128.2 8.5,-147.2 155.5,-147.2 155.5,-128.2 8.5,-128.2"/>
<text text-anchor="start" x="11.5" y="-134.3" font-family="Helvetica,sans-Serif" font-size="11.00" fill="#000000">...</text>
<polygon fill="#ffffff" stroke="transparent" points="8.5,-109.2 8.5,-128.2 71.5,-128.2 71.5,-109.2 8.5,-109.2"/>
<polygon fill="none" stroke="#000000" points="8.5,-109.2 8.5,-128.2 71.5,-128.2 71.5,-109.2 8.5,-109.2"/>
<text text-anchor="start" x="11.5" y="-115.3" font-family="Helvetica,sans-Serif" font-size="11.00" fill="#000000"> &#160;</text>
<polygon fill="#ffffff" stroke="transparent" points="71.5,-109.2 71.5,-128.2 108.5,-128.2 108.5,-109.2 71.5,-109.2"/>
<polygon fill="none" stroke="#000000" points="71.5,-109.2 71.5,-128.2 108.5,-128.2 108.5,-109.2 71.5,-109.2"/>
<text text-anchor="start" x="99.3862" y="-115.3" font-family="Helvetica,sans-Serif" font-size="11.00" fill="#000000"> &#160;</text>
<polygon fill="#ffffff" stroke="transparent" points="108.5,-109.2 108.5,-128.2 155.5,-128.2 155.5,-109.2 108.5,-109.2"/>
<polygon fill="none" stroke="#000000" points="108.5,-109.2 108.5,-128.2 155.5,-128.2 155.5,-109.2 108.5,-109.2"/>
<text text-anchor="start" x="136.9053" y="-115.3" font-family="Helvetica,sans-Serif" font-size="11.00" fill="#000000">1 &gt;</text>
</a>
</g>
</g>
<!-- act_ru_meter_log&#45;&gt;act_ge_property -->
<g id="edge1" class="edge">
<title>act_ru_meter_log:w&#45;&gt;act_ge_property:e</title>
<path fill="none" stroke="#000000" stroke-dasharray="5,2" d="M191.776,-158.2C179.7815,-158.2 172.3229,-158.2 155.5,-158.2"/>
<polygon fill="#000000" stroke="#000000" points="198.5,-158.2001 206.5,-161.8 202.5,-158.2 206.5,-158.2 206.5,-158.2 206.5,-158.2 202.5,-158.2 206.5,-154.6 198.5,-158.2001 198.5,-158.2001"/>
<ellipse fill="none" stroke="#000000" cx="195.3" cy="-158.2001" rx="3.2" ry="3.2"/>
</g>
</g>
</svg>
