<?xml version="1.0" encoding="UTF-8" standalone="no"?>
<!DOCTYPE svg PUBLIC "-//W3C//DTD SVG 1.1//EN"
 "http://www.w3.org/Graphics/SVG/1.1/DTD/svg11.dtd">
<!-- Generated by graphviz version 2.40.1 (20161225.0304)
 -->
<!-- Title: twoDegreesRelationshipsDiagram Pages: 1 -->
<svg width="473pt" height="481pt"
 viewBox="0.00 0.00 473.00 481.20" xmlns="http://www.w3.org/2000/svg" xmlns:xlink="http://www.w3.org/1999/xlink">
<g id="graph0" class="graph" transform="scale(1 1) rotate(0) translate(4 477.2)">
<title>twoDegreesRelationshipsDiagram</title>
<polygon fill="#ffffff" stroke="transparent" points="-4,4 -4,-477.2 469,-477.2 469,4 -4,4"/>
<text text-anchor="middle" x="72.4936" y="-7.3" font-family="Helvetica,sans-Serif" font-size="11.00" fill="#000000">Generated by SchemaSpy</text>
<!-- act_id_membership -->
<g id="node1" class="node">
<title>act_id_membership</title>
<g id="a_node1"><a xlink:href="../../tables/act_id_membership.html" xlink:title="act_id_membership" target="_top">
<polygon fill="#ffffff" stroke="transparent" points="277.5,-113.7 277.5,-199.7 445.5,-199.7 445.5,-113.7 277.5,-113.7"/>
<polygon fill="#f5f5f5" stroke="transparent" points="277.5,-176.7 277.5,-199.7 445.5,-199.7 445.5,-176.7 277.5,-176.7"/>
<polygon fill="none" stroke="#000000" points="277.5,-176.7 277.5,-199.7 445.5,-199.7 445.5,-176.7 277.5,-176.7"/>
<text text-anchor="start" x="282.5" y="-185.3" font-family="Helvetica,sans-Serif" font-weight="bold" font-size="11.00" fill="#000000">act_id_membership</text>
<text text-anchor="start" x="411.0219" y="-184.8" font-family="Helvetica,sans-Serif" font-size="11.00" fill="#000000">[table]</text>
<polygon fill="none" stroke="#000000" points="277.5,-154.7 277.5,-176.7 445.5,-176.7 445.5,-154.7 277.5,-154.7"/>
<image xlink:href="../../images/primaryKeys.png" width="11px" height="12px" preserveAspectRatio="xMinYMin meet" x="282.5" y="-171.7"/>
<text text-anchor="start" x="306.5" y="-161.8" font-family="Helvetica,sans-Serif" font-size="11.00" fill="#000000">user_id_</text>
<polygon fill="none" stroke="#000000" points="277.5,-132.7 277.5,-154.7 445.5,-154.7 445.5,-132.7 277.5,-132.7"/>
<image xlink:href="../../images/primaryKeys.png" width="11px" height="12px" preserveAspectRatio="xMinYMin meet" x="282.5" y="-149.7"/>
<text text-anchor="start" x="306.5" y="-139.8" font-family="Helvetica,sans-Serif" font-size="11.00" fill="#000000">group_id_</text>
<polygon fill="#ffffff" stroke="transparent" points="277.5,-113.7 277.5,-132.7 359.5,-132.7 359.5,-113.7 277.5,-113.7"/>
<polygon fill="none" stroke="#000000" points="277.5,-113.7 277.5,-132.7 359.5,-132.7 359.5,-113.7 277.5,-113.7"/>
<text text-anchor="start" x="280.5" y="-119.8" font-family="Helvetica,sans-Serif" font-size="11.00" fill="#000000">&lt; 2</text>
<polygon fill="#ffffff" stroke="transparent" points="359.5,-113.7 359.5,-132.7 402.5,-132.7 402.5,-113.7 359.5,-113.7"/>
<polygon fill="none" stroke="#000000" points="359.5,-113.7 359.5,-132.7 402.5,-132.7 402.5,-113.7 359.5,-113.7"/>
<text text-anchor="start" x="393.3862" y="-119.8" font-family="Helvetica,sans-Serif" font-size="11.00" fill="#000000"> &#160;</text>
<polygon fill="#ffffff" stroke="transparent" points="402.5,-113.7 402.5,-132.7 445.5,-132.7 445.5,-113.7 402.5,-113.7"/>
<polygon fill="none" stroke="#000000" points="402.5,-113.7 402.5,-132.7 445.5,-132.7 445.5,-113.7 402.5,-113.7"/>
<text text-anchor="start" x="436.3862" y="-119.8" font-family="Helvetica,sans-Serif" font-size="11.00" fill="#000000"> &#160;</text>
</a>
</g>
</g>
<!-- act_id_group -->
<g id="node2" class="node">
<title>act_id_group</title>
<g id="a_node2"><a xlink:href="../../tables/act_id_group.html" xlink:title="act_id_group" target="_top">
<polygon fill="#ffffff" stroke="transparent" points="50.5,-38.2 50.5,-99.2 174.5,-99.2 174.5,-38.2 50.5,-38.2"/>
<polygon fill="#f5f5f5" stroke="transparent" points="50.5,-75.7 50.5,-98.7 174.5,-98.7 174.5,-75.7 50.5,-75.7"/>
<polygon fill="none" stroke="#000000" points="50.5,-75.7 50.5,-98.7 174.5,-98.7 174.5,-75.7 50.5,-75.7"/>
<text text-anchor="start" x="55.5" y="-84.3" font-family="Helvetica,sans-Serif" font-weight="bold" font-size="11.00" fill="#000000">act_id_group</text>
<text text-anchor="start" x="140.0219" y="-83.8" font-family="Helvetica,sans-Serif" font-size="11.00" fill="#000000">[table]</text>
<polygon fill="none" stroke="#000000" points="50.5,-56.7 50.5,-75.7 174.5,-75.7 174.5,-56.7 50.5,-56.7"/>
<text text-anchor="start" x="53.5" y="-62.8" font-family="Helvetica,sans-Serif" font-size="11.00" fill="#000000">...</text>
<polygon fill="#ffffff" stroke="transparent" points="50.5,-37.7 50.5,-56.7 101.5,-56.7 101.5,-37.7 50.5,-37.7"/>
<polygon fill="none" stroke="#000000" points="50.5,-37.7 50.5,-56.7 101.5,-56.7 101.5,-37.7 50.5,-37.7"/>
<text text-anchor="start" x="53.5" y="-43.8" font-family="Helvetica,sans-Serif" font-size="11.00" fill="#000000"> &#160;</text>
<polygon fill="#ffffff" stroke="transparent" points="101.5,-37.7 101.5,-56.7 133.5,-56.7 133.5,-37.7 101.5,-37.7"/>
<polygon fill="none" stroke="#000000" points="101.5,-37.7 101.5,-56.7 133.5,-56.7 133.5,-37.7 101.5,-37.7"/>
<text text-anchor="start" x="124.3862" y="-43.8" font-family="Helvetica,sans-Serif" font-size="11.00" fill="#000000"> &#160;</text>
<polygon fill="#ffffff" stroke="transparent" points="133.5,-37.7 133.5,-56.7 174.5,-56.7 174.5,-37.7 133.5,-37.7"/>
<polygon fill="none" stroke="#000000" points="133.5,-37.7 133.5,-56.7 174.5,-56.7 174.5,-37.7 133.5,-37.7"/>
<text text-anchor="start" x="155.9053" y="-43.8" font-family="Helvetica,sans-Serif" font-size="11.00" fill="#000000">2 &gt;</text>
</a>
</g>
</g>
<!-- act_id_membership&#45;&gt;act_id_group -->
<g id="edge1" class="edge">
<title>act_id_membership:w&#45;&gt;act_id_group:e</title>
<path fill="none" stroke="#000000" d="M263.0621,-141.7719C221.6894,-129.7605 226.5395,-65.7 174.5,-65.7"/>
<polygon fill="#000000" stroke="#000000" points="269.5704,-142.641 277.0234,-147.2683 273.5352,-143.1705 277.5,-143.7 277.5,-143.7 277.5,-143.7 273.5352,-143.1705 277.9766,-140.1317 269.5704,-142.641 269.5704,-142.641"/>
<ellipse fill="none" stroke="#000000" cx="266.3986" cy="-142.2174" rx="3.2" ry="3.2"/>
</g>
<!-- act_id_user -->
<g id="node3" class="node">
<title>act_id_user</title>
<g id="a_node3"><a xlink:href="../../tables/act_id_user.html" xlink:title="act_id_user" target="_top">
<polygon fill="#ffffff" stroke="transparent" points="8,-120.7 8,-386.7 217,-386.7 217,-120.7 8,-120.7"/>
<polygon fill="#f5f5f5" stroke="transparent" points="10.5,-361.7 10.5,-384.7 215.5,-384.7 215.5,-361.7 10.5,-361.7"/>
<polygon fill="none" stroke="#000000" points="10.5,-361.7 10.5,-384.7 215.5,-384.7 215.5,-361.7 10.5,-361.7"/>
<text text-anchor="start" x="15.5" y="-370.3" font-family="Helvetica,sans-Serif" font-weight="bold" font-size="11.00" fill="#000000">act_id_user</text>
<text text-anchor="start" x="180.5437" y="-369.8" font-family="Helvetica,sans-Serif" font-size="11.00" fill="#000000">[table]</text>
<polygon fill="none" stroke="#000000" points="10.5,-339.7 10.5,-361.7 131.5,-361.7 131.5,-339.7 10.5,-339.7"/>
<image xlink:href="../../images/primaryKeys.png" width="11px" height="12px" preserveAspectRatio="xMinYMin meet" x="15.5" y="-356.7"/>
<text text-anchor="start" x="30.5" y="-346.8" font-family="Helvetica,sans-Serif" font-size="11.00" fill="#000000">id_</text>
<polygon fill="none" stroke="#000000" points="131.5,-339.7 131.5,-361.7 215.5,-361.7 215.5,-339.7 131.5,-339.7"/>
<text text-anchor="start" x="134.5" y="-347.4" font-family="Helvetica,sans-Serif" font-size="11.00" fill="#000000">varchar[64]</text>
<polygon fill="none" stroke="#000000" points="10.5,-317.7 10.5,-339.7 131.5,-339.7 131.5,-317.7 10.5,-317.7"/>
<text text-anchor="start" x="30.5" y="-324.8" font-family="Helvetica,sans-Serif" font-size="11.00" fill="#000000">rev_</text>
<polygon fill="none" stroke="#000000" points="131.5,-317.7 131.5,-339.7 215.5,-339.7 215.5,-317.7 131.5,-317.7"/>
<text text-anchor="start" x="134.5" y="-325.4" font-family="Helvetica,sans-Serif" font-size="11.00" fill="#000000">int4[10]</text>
<polygon fill="none" stroke="#000000" points="10.5,-295.7 10.5,-317.7 131.5,-317.7 131.5,-295.7 10.5,-295.7"/>
<text text-anchor="start" x="30.5" y="-302.8" font-family="Helvetica,sans-Serif" font-size="11.00" fill="#000000">first_</text>
<polygon fill="none" stroke="#000000" points="131.5,-295.7 131.5,-317.7 215.5,-317.7 215.5,-295.7 131.5,-295.7"/>
<text text-anchor="start" x="134.5" y="-303.4" font-family="Helvetica,sans-Serif" font-size="11.00" fill="#000000">varchar[255]</text>
<polygon fill="none" stroke="#000000" points="10.5,-273.7 10.5,-295.7 131.5,-295.7 131.5,-273.7 10.5,-273.7"/>
<text text-anchor="start" x="30.5" y="-280.8" font-family="Helvetica,sans-Serif" font-size="11.00" fill="#000000">last_</text>
<polygon fill="none" stroke="#000000" points="131.5,-273.7 131.5,-295.7 215.5,-295.7 215.5,-273.7 131.5,-273.7"/>
<text text-anchor="start" x="134.5" y="-281.4" font-family="Helvetica,sans-Serif" font-size="11.00" fill="#000000">varchar[255]</text>
<polygon fill="none" stroke="#000000" points="10.5,-251.7 10.5,-273.7 131.5,-273.7 131.5,-251.7 10.5,-251.7"/>
<text text-anchor="start" x="30.5" y="-258.8" font-family="Helvetica,sans-Serif" font-size="11.00" fill="#000000">email_</text>
<polygon fill="none" stroke="#000000" points="131.5,-251.7 131.5,-273.7 215.5,-273.7 215.5,-251.7 131.5,-251.7"/>
<text text-anchor="start" x="134.5" y="-259.4" font-family="Helvetica,sans-Serif" font-size="11.00" fill="#000000">varchar[255]</text>
<polygon fill="none" stroke="#000000" points="10.5,-229.7 10.5,-251.7 131.5,-251.7 131.5,-229.7 10.5,-229.7"/>
<text text-anchor="start" x="30.5" y="-236.8" font-family="Helvetica,sans-Serif" font-size="11.00" fill="#000000">pwd_</text>
<polygon fill="none" stroke="#000000" points="131.5,-229.7 131.5,-251.7 215.5,-251.7 215.5,-229.7 131.5,-229.7"/>
<text text-anchor="start" x="134.5" y="-237.4" font-family="Helvetica,sans-Serif" font-size="11.00" fill="#000000">varchar[255]</text>
<polygon fill="none" stroke="#000000" points="10.5,-207.7 10.5,-229.7 131.5,-229.7 131.5,-207.7 10.5,-207.7"/>
<text text-anchor="start" x="30.5" y="-214.8" font-family="Helvetica,sans-Serif" font-size="11.00" fill="#000000">salt_</text>
<polygon fill="none" stroke="#000000" points="131.5,-207.7 131.5,-229.7 215.5,-229.7 215.5,-207.7 131.5,-207.7"/>
<text text-anchor="start" x="134.5" y="-215.4" font-family="Helvetica,sans-Serif" font-size="11.00" fill="#000000">varchar[255]</text>
<polygon fill="none" stroke="#000000" points="10.5,-185.7 10.5,-207.7 131.5,-207.7 131.5,-185.7 10.5,-185.7"/>
<text text-anchor="start" x="30.5" y="-192.8" font-family="Helvetica,sans-Serif" font-size="11.00" fill="#000000">lock_exp_time_</text>
<polygon fill="none" stroke="#000000" points="131.5,-185.7 131.5,-207.7 215.5,-207.7 215.5,-185.7 131.5,-185.7"/>
<text text-anchor="start" x="134.3807" y="-193.4" font-family="Helvetica,sans-Serif" font-size="11.00" fill="#000000">timestamp[29,6]</text>
<polygon fill="none" stroke="#000000" points="10.5,-163.7 10.5,-185.7 131.5,-185.7 131.5,-163.7 10.5,-163.7"/>
<text text-anchor="start" x="30.5" y="-170.8" font-family="Helvetica,sans-Serif" font-size="11.00" fill="#000000">attempts_</text>
<polygon fill="none" stroke="#000000" points="131.5,-163.7 131.5,-185.7 215.5,-185.7 215.5,-163.7 131.5,-163.7"/>
<text text-anchor="start" x="134.5" y="-171.4" font-family="Helvetica,sans-Serif" font-size="11.00" fill="#000000">int4[10]</text>
<polygon fill="none" stroke="#000000" points="10.5,-141.7 10.5,-163.7 131.5,-163.7 131.5,-141.7 10.5,-141.7"/>
<text text-anchor="start" x="30.5" y="-148.8" font-family="Helvetica,sans-Serif" font-size="11.00" fill="#000000">picture_id_</text>
<polygon fill="none" stroke="#000000" points="131.5,-141.7 131.5,-163.7 215.5,-163.7 215.5,-141.7 131.5,-141.7"/>
<text text-anchor="start" x="134.5" y="-149.4" font-family="Helvetica,sans-Serif" font-size="11.00" fill="#000000">varchar[64]</text>
<polygon fill="#ffffff" stroke="transparent" points="10.5,-122.7 10.5,-141.7 75.5,-141.7 75.5,-122.7 10.5,-122.7"/>
<polygon fill="none" stroke="#000000" points="10.5,-122.7 10.5,-141.7 75.5,-141.7 75.5,-122.7 10.5,-122.7"/>
<text text-anchor="start" x="13.5" y="-128.8" font-family="Helvetica,sans-Serif" font-size="11.00" fill="#000000">&lt; 0</text>
<polygon fill="#ffffff" stroke="transparent" points="75.5,-122.7 75.5,-141.7 131.5,-141.7 131.5,-122.7 75.5,-122.7"/>
<polygon fill="none" stroke="#000000" points="75.5,-122.7 75.5,-141.7 131.5,-141.7 131.5,-122.7 75.5,-122.7"/>
<text text-anchor="start" x="122.3862" y="-128.8" font-family="Helvetica,sans-Serif" font-size="11.00" fill="#000000"> &#160;</text>
<polygon fill="#ffffff" stroke="transparent" points="131.5,-122.7 131.5,-141.7 215.5,-141.7 215.5,-122.7 131.5,-122.7"/>
<polygon fill="none" stroke="#000000" points="131.5,-122.7 131.5,-141.7 215.5,-141.7 215.5,-122.7 131.5,-122.7"/>
<text text-anchor="start" x="196.9053" y="-128.8" font-family="Helvetica,sans-Serif" font-size="11.00" fill="#000000">2 &gt;</text>
<polygon fill="none" stroke="#000000" stroke-width="2" points="9,-121.7 9,-385.7 216,-385.7 216,-121.7 9,-121.7"/>
</a>
</g>
</g>
<!-- act_id_membership&#45;&gt;act_id_user -->
<g id="edge2" class="edge">
<title>act_id_membership:w&#45;&gt;act_id_user:e</title>
<path fill="none" stroke="#000000" d="M263.0959,-167.9065C204.3245,-188.7791 296.6276,-350.7 215.5,-350.7"/>
<polygon fill="#000000" stroke="#000000" points="269.5922,-166.9114 278.0451,-169.2585 273.5461,-166.3057 277.5,-165.7 277.5,-165.7 277.5,-165.7 273.5461,-166.3057 276.9549,-162.1415 269.5922,-166.9114 269.5922,-166.9114"/>
<ellipse fill="none" stroke="#000000" cx="266.4291" cy="-167.396" rx="3.2" ry="3.2"/>
</g>
<!-- act_id_tenant_member -->
<g id="node4" class="node">
<title>act_id_tenant_member</title>
<g id="a_node4"><a xlink:href="../../tables/act_id_tenant_member.html" xlink:title="act_id_tenant_member" target="_top">
<polygon fill="#ffffff" stroke="transparent" points="266,-298.7 266,-428.7 457,-428.7 457,-298.7 266,-298.7"/>
<polygon fill="#f5f5f5" stroke="transparent" points="266.5,-405.7 266.5,-428.7 457.5,-428.7 457.5,-405.7 266.5,-405.7"/>
<polygon fill="none" stroke="#000000" points="266.5,-405.7 266.5,-428.7 457.5,-428.7 457.5,-405.7 266.5,-405.7"/>
<text text-anchor="start" x="271.5" y="-414.3" font-family="Helvetica,sans-Serif" font-weight="bold" font-size="11.00" fill="#000000">act_id_tenant_member</text>
<text text-anchor="start" x="423.0219" y="-413.8" font-family="Helvetica,sans-Serif" font-size="11.00" fill="#000000">[table]</text>
<polygon fill="none" stroke="#000000" points="266.5,-383.7 266.5,-405.7 457.5,-405.7 457.5,-383.7 266.5,-383.7"/>
<image xlink:href="../../images/primaryKeys.png" width="11px" height="12px" preserveAspectRatio="xMinYMin meet" x="271.5" y="-400.7"/>
<text text-anchor="start" x="295.5" y="-390.8" font-family="Helvetica,sans-Serif" font-size="11.00" fill="#000000">id_</text>
<polygon fill="#ffffff" stroke="transparent" points="266.5,-361.7 266.5,-383.7 457.5,-383.7 457.5,-361.7 266.5,-361.7"/>
<polygon fill="none" stroke="#000000" points="266.5,-361.7 266.5,-383.7 457.5,-383.7 457.5,-361.7 266.5,-361.7"/>
<image xlink:href="../../images/foreignKeys.png" width="11px" height="12px" preserveAspectRatio="xMinYMin meet" x="271.5" y="-378.7"/>
<text text-anchor="start" x="295.5" y="-368.8" font-family="Helvetica,sans-Serif" font-size="11.00" fill="#000000">tenant_id_</text>
<polygon fill="#ffffff" stroke="transparent" points="266.5,-339.7 266.5,-361.7 457.5,-361.7 457.5,-339.7 266.5,-339.7"/>
<polygon fill="none" stroke="#000000" points="266.5,-339.7 266.5,-361.7 457.5,-361.7 457.5,-339.7 266.5,-339.7"/>
<image xlink:href="../../images/foreignKeys.png" width="11px" height="12px" preserveAspectRatio="xMinYMin meet" x="271.5" y="-356.7"/>
<text text-anchor="start" x="295.5" y="-346.8" font-family="Helvetica,sans-Serif" font-size="11.00" fill="#000000">user_id_</text>
<polygon fill="#ffffff" stroke="transparent" points="266.5,-317.7 266.5,-339.7 457.5,-339.7 457.5,-317.7 266.5,-317.7"/>
<polygon fill="none" stroke="#000000" points="266.5,-317.7 266.5,-339.7 457.5,-339.7 457.5,-317.7 266.5,-317.7"/>
<image xlink:href="../../images/foreignKeys.png" width="11px" height="12px" preserveAspectRatio="xMinYMin meet" x="271.5" y="-334.7"/>
<text text-anchor="start" x="295.5" y="-324.8" font-family="Helvetica,sans-Serif" font-size="11.00" fill="#000000">group_id_</text>
<polygon fill="#ffffff" stroke="transparent" points="266.5,-298.7 266.5,-317.7 360.5,-317.7 360.5,-298.7 266.5,-298.7"/>
<polygon fill="none" stroke="#000000" points="266.5,-298.7 266.5,-317.7 360.5,-317.7 360.5,-298.7 266.5,-298.7"/>
<text text-anchor="start" x="269.5" y="-304.8" font-family="Helvetica,sans-Serif" font-size="11.00" fill="#000000">&lt; 3</text>
<polygon fill="#ffffff" stroke="transparent" points="360.5,-298.7 360.5,-317.7 408.5,-317.7 408.5,-298.7 360.5,-298.7"/>
<polygon fill="none" stroke="#000000" points="360.5,-298.7 360.5,-317.7 408.5,-317.7 408.5,-298.7 360.5,-298.7"/>
<text text-anchor="start" x="399.3862" y="-304.8" font-family="Helvetica,sans-Serif" font-size="11.00" fill="#000000"> &#160;</text>
<polygon fill="#ffffff" stroke="transparent" points="408.5,-298.7 408.5,-317.7 457.5,-317.7 457.5,-298.7 408.5,-298.7"/>
<polygon fill="none" stroke="#000000" points="408.5,-298.7 408.5,-317.7 457.5,-317.7 457.5,-298.7 408.5,-298.7"/>
<text text-anchor="start" x="448.3862" y="-304.8" font-family="Helvetica,sans-Serif" font-size="11.00" fill="#000000"> &#160;</text>
</a>
</g>
</g>
<!-- act_id_tenant_member&#45;&gt;act_id_group -->
<g id="edge3" class="edge">
<title>act_id_tenant_member:w&#45;&gt;act_id_group:e</title>
<path fill="none" stroke="#000000" d="M253.0148,-322.7869C223.429,-291.785 246.9458,-147.9691 225,-109.7 210.1911,-83.8762 204.2687,-65.7 174.5,-65.7"/>
<polygon fill="#000000" stroke="#000000" points="259.1734,-325.4873 265.0543,-331.997 262.8367,-327.0937 266.5,-328.7 266.5,-328.7 266.5,-328.7 262.8367,-327.0937 267.9457,-325.403 259.1734,-325.4873 259.1734,-325.4873"/>
<ellipse fill="none" stroke="#000000" cx="256.2428" cy="-324.2023" rx="3.2" ry="3.2"/>
</g>
<!-- act_id_tenant_member&#45;&gt;act_id_user -->
<g id="edge5" class="edge">
<title>act_id_tenant_member:w&#45;&gt;act_id_user:e</title>
<path fill="none" stroke="#000000" d="M251.776,-350.7C239.7815,-350.7 232.3229,-350.7 215.5,-350.7"/>
<polygon fill="#000000" stroke="#000000" points="258.5,-350.7001 266.5,-354.3 262.5,-350.7 266.5,-350.7 266.5,-350.7 266.5,-350.7 262.5,-350.7 266.5,-347.1 258.5,-350.7001 258.5,-350.7001"/>
<ellipse fill="none" stroke="#000000" cx="255.3" cy="-350.7001" rx="3.2" ry="3.2"/>
</g>
<!-- act_id_tenant -->
<g id="node5" class="node">
<title>act_id_tenant</title>
<g id="a_node5"><a xlink:href="../../tables/act_id_tenant.html" xlink:title="act_id_tenant" target="_top">
<polygon fill="#ffffff" stroke="transparent" points="48,-408.2 48,-469.2 177,-469.2 177,-408.2 48,-408.2"/>
<polygon fill="#f5f5f5" stroke="transparent" points="48.5,-445.7 48.5,-468.7 177.5,-468.7 177.5,-445.7 48.5,-445.7"/>
<polygon fill="none" stroke="#000000" points="48.5,-445.7 48.5,-468.7 177.5,-468.7 177.5,-445.7 48.5,-445.7"/>
<text text-anchor="start" x="53.5" y="-454.3" font-family="Helvetica,sans-Serif" font-weight="bold" font-size="11.00" fill="#000000">act_id_tenant</text>
<text text-anchor="start" x="143.0219" y="-453.8" font-family="Helvetica,sans-Serif" font-size="11.00" fill="#000000">[table]</text>
<polygon fill="none" stroke="#000000" points="48.5,-426.7 48.5,-445.7 177.5,-445.7 177.5,-426.7 48.5,-426.7"/>
<text text-anchor="start" x="51.5" y="-432.8" font-family="Helvetica,sans-Serif" font-size="11.00" fill="#000000">...</text>
<polygon fill="#ffffff" stroke="transparent" points="48.5,-407.7 48.5,-426.7 102.5,-426.7 102.5,-407.7 48.5,-407.7"/>
<polygon fill="none" stroke="#000000" points="48.5,-407.7 48.5,-426.7 102.5,-426.7 102.5,-407.7 48.5,-407.7"/>
<text text-anchor="start" x="51.5" y="-413.8" font-family="Helvetica,sans-Serif" font-size="11.00" fill="#000000"> &#160;</text>
<polygon fill="#ffffff" stroke="transparent" points="102.5,-407.7 102.5,-426.7 135.5,-426.7 135.5,-407.7 102.5,-407.7"/>
<polygon fill="none" stroke="#000000" points="102.5,-407.7 102.5,-426.7 135.5,-426.7 135.5,-407.7 102.5,-407.7"/>
<text text-anchor="start" x="126.3862" y="-413.8" font-family="Helvetica,sans-Serif" font-size="11.00" fill="#000000"> &#160;</text>
<polygon fill="#ffffff" stroke="transparent" points="135.5,-407.7 135.5,-426.7 177.5,-426.7 177.5,-407.7 135.5,-407.7"/>
<polygon fill="none" stroke="#000000" points="135.5,-407.7 135.5,-426.7 177.5,-426.7 177.5,-407.7 135.5,-407.7"/>
<text text-anchor="start" x="158.9053" y="-413.8" font-family="Helvetica,sans-Serif" font-size="11.00" fill="#000000">1 &gt;</text>
</a>
</g>
</g>
<!-- act_id_tenant_member&#45;&gt;act_id_tenant -->
<g id="edge4" class="edge">
<title>act_id_tenant_member:w&#45;&gt;act_id_tenant:e</title>
<path fill="none" stroke="#000000" d="M252.0371,-374.9422C219.1092,-386.165 220.4729,-435.7 177.5,-435.7"/>
<polygon fill="#000000" stroke="#000000" points="258.5944,-373.9257 267.0515,-376.2575 262.5472,-373.3128 266.5,-372.7 266.5,-372.7 266.5,-372.7 262.5472,-373.3128 265.9485,-369.1425 258.5944,-373.9257 258.5944,-373.9257"/>
<ellipse fill="none" stroke="#000000" cx="255.4322" cy="-374.4159" rx="3.2" ry="3.2"/>
</g>
</g>
</svg>
