<?xml version="1.0" encoding="UTF-8" standalone="no"?>
<!DOCTYPE svg PUBLIC "-//W3C//DTD SVG 1.1//EN"
 "http://www.w3.org/Graphics/SVG/1.1/DTD/svg11.dtd">
<!-- Generated by graphviz version 2.40.1 (20161225.0304)
 -->
<!-- Title: oneDegreeRelationshipsDiagram Pages: 1 -->
<svg width="657pt" height="391pt"
 viewBox="0.00 0.00 657.00 390.74" xmlns="http://www.w3.org/2000/svg" xmlns:xlink="http://www.w3.org/1999/xlink">
<g id="graph0" class="graph" transform="scale(1 1) rotate(0) translate(4 386.7422)">
<title>oneDegreeRelationshipsDiagram</title>
<polygon fill="#ffffff" stroke="transparent" points="-4,4 -4,-386.7422 653,-386.7422 653,4 -4,4"/>
<text text-anchor="middle" x="72.4936" y="-7.3" font-family="Helvetica,sans-Serif" font-size="11.00" fill="#000000">Generated by SchemaSpy</text>
<!-- act_ru_identitylink -->
<g id="node1" class="node">
<title>act_ru_identitylink</title>
<g id="a_node1"><a xlink:href="../../tables/act_ru_identitylink.html" xlink:title="act_ru_identitylink" target="_top">
<polygon fill="#ffffff" stroke="transparent" points="425,-132.2422 425,-354.2422 641,-354.2422 641,-132.2422 425,-132.2422"/>
<polygon fill="#f5f5f5" stroke="transparent" points="427,-329.2422 427,-352.2422 639,-352.2422 639,-329.2422 427,-329.2422"/>
<polygon fill="none" stroke="#000000" points="427,-329.2422 427,-352.2422 639,-352.2422 639,-329.2422 427,-329.2422"/>
<text text-anchor="start" x="432" y="-337.8422" font-family="Helvetica,sans-Serif" font-weight="bold" font-size="11.00" fill="#000000">act_ru_identitylink</text>
<text text-anchor="start" x="604.0437" y="-337.3422" font-family="Helvetica,sans-Serif" font-size="11.00" fill="#000000">[table]</text>
<polygon fill="none" stroke="#000000" points="427,-307.2422 427,-329.2422 572,-329.2422 572,-307.2422 427,-307.2422"/>
<image xlink:href="../../images/primaryKeys.png" width="11px" height="12px" preserveAspectRatio="xMinYMin meet" x="432" y="-324.242"/>
<text text-anchor="start" x="447" y="-314.3422" font-family="Helvetica,sans-Serif" font-size="11.00" fill="#000000">id_</text>
<polygon fill="none" stroke="#000000" points="572,-307.2422 572,-329.2422 639,-329.2422 639,-307.2422 572,-307.2422"/>
<text text-anchor="start" x="575" y="-314.9422" font-family="Helvetica,sans-Serif" font-size="11.00" fill="#000000">varchar[64]</text>
<polygon fill="none" stroke="#000000" points="427,-285.2422 427,-307.2422 572,-307.2422 572,-285.2422 427,-285.2422"/>
<text text-anchor="start" x="447" y="-292.3422" font-family="Helvetica,sans-Serif" font-size="11.00" fill="#000000">rev_</text>
<polygon fill="none" stroke="#000000" points="572,-285.2422 572,-307.2422 639,-307.2422 639,-285.2422 572,-285.2422"/>
<text text-anchor="start" x="575" y="-292.9422" font-family="Helvetica,sans-Serif" font-size="11.00" fill="#000000">int4[10]</text>
<polygon fill="#ffffff" stroke="transparent" points="427,-263.2422 427,-285.2422 572,-285.2422 572,-263.2422 427,-263.2422"/>
<polygon fill="none" stroke="#000000" points="427,-263.2422 427,-285.2422 572,-285.2422 572,-263.2422 427,-263.2422"/>
<text text-anchor="start" x="447" y="-270.3422" font-family="Helvetica,sans-Serif" font-size="11.00" fill="#000000">group_id_</text>
<polygon fill="none" stroke="#000000" points="572,-263.2422 572,-285.2422 639,-285.2422 639,-263.2422 572,-263.2422"/>
<text text-anchor="start" x="574.9365" y="-270.9422" font-family="Helvetica,sans-Serif" font-size="11.00" fill="#000000">varchar[255]</text>
<polygon fill="none" stroke="#000000" points="427,-241.2422 427,-263.2422 572,-263.2422 572,-241.2422 427,-241.2422"/>
<text text-anchor="start" x="447" y="-248.3422" font-family="Helvetica,sans-Serif" font-size="11.00" fill="#000000">type_</text>
<polygon fill="none" stroke="#000000" points="572,-241.2422 572,-263.2422 639,-263.2422 639,-241.2422 572,-241.2422"/>
<text text-anchor="start" x="574.9365" y="-248.9422" font-family="Helvetica,sans-Serif" font-size="11.00" fill="#000000">varchar[255]</text>
<polygon fill="#ffffff" stroke="transparent" points="427,-219.2422 427,-241.2422 572,-241.2422 572,-219.2422 427,-219.2422"/>
<polygon fill="none" stroke="#000000" points="427,-219.2422 427,-241.2422 572,-241.2422 572,-219.2422 427,-219.2422"/>
<text text-anchor="start" x="447" y="-226.3422" font-family="Helvetica,sans-Serif" font-size="11.00" fill="#000000">user_id_</text>
<polygon fill="none" stroke="#000000" points="572,-219.2422 572,-241.2422 639,-241.2422 639,-219.2422 572,-219.2422"/>
<text text-anchor="start" x="574.9365" y="-226.9422" font-family="Helvetica,sans-Serif" font-size="11.00" fill="#000000">varchar[255]</text>
<polygon fill="#ffffff" stroke="transparent" points="427,-197.2422 427,-219.2422 572,-219.2422 572,-197.2422 427,-197.2422"/>
<polygon fill="none" stroke="#000000" points="427,-197.2422 427,-219.2422 572,-219.2422 572,-197.2422 427,-197.2422"/>
<image xlink:href="../../images/foreignKeys.png" width="11px" height="12px" preserveAspectRatio="xMinYMin meet" x="432" y="-214.242"/>
<text text-anchor="start" x="447" y="-204.3422" font-family="Helvetica,sans-Serif" font-size="11.00" fill="#000000">task_id_</text>
<polygon fill="none" stroke="#000000" points="572,-197.2422 572,-219.2422 639,-219.2422 639,-197.2422 572,-197.2422"/>
<text text-anchor="start" x="575" y="-204.9422" font-family="Helvetica,sans-Serif" font-size="11.00" fill="#000000">varchar[64]</text>
<polygon fill="#ffffff" stroke="transparent" points="427,-175.2422 427,-197.2422 572,-197.2422 572,-175.2422 427,-175.2422"/>
<polygon fill="none" stroke="#000000" points="427,-175.2422 427,-197.2422 572,-197.2422 572,-175.2422 427,-175.2422"/>
<image xlink:href="../../images/foreignKeys.png" width="11px" height="12px" preserveAspectRatio="xMinYMin meet" x="432" y="-192.242"/>
<text text-anchor="start" x="447" y="-182.3422" font-family="Helvetica,sans-Serif" font-size="11.00" fill="#000000">proc_def_id_</text>
<polygon fill="none" stroke="#000000" points="572,-175.2422 572,-197.2422 639,-197.2422 639,-175.2422 572,-175.2422"/>
<text text-anchor="start" x="575" y="-182.9422" font-family="Helvetica,sans-Serif" font-size="11.00" fill="#000000">varchar[64]</text>
<polygon fill="none" stroke="#000000" points="427,-153.2422 427,-175.2422 572,-175.2422 572,-153.2422 427,-153.2422"/>
<text text-anchor="start" x="447" y="-160.3422" font-family="Helvetica,sans-Serif" font-size="11.00" fill="#000000">tenant_id_</text>
<polygon fill="none" stroke="#000000" points="572,-153.2422 572,-175.2422 639,-175.2422 639,-153.2422 572,-153.2422"/>
<text text-anchor="start" x="575" y="-160.9422" font-family="Helvetica,sans-Serif" font-size="11.00" fill="#000000">varchar[64]</text>
<polygon fill="#ffffff" stroke="transparent" points="427,-134.2422 427,-153.2422 504,-153.2422 504,-134.2422 427,-134.2422"/>
<polygon fill="none" stroke="#000000" points="427,-134.2422 427,-153.2422 504,-153.2422 504,-134.2422 427,-134.2422"/>
<text text-anchor="start" x="430" y="-140.3422" font-family="Helvetica,sans-Serif" font-size="11.00" fill="#000000">&lt; 2</text>
<polygon fill="#ffffff" stroke="transparent" points="504,-134.2422 504,-153.2422 572,-153.2422 572,-134.2422 504,-134.2422"/>
<polygon fill="none" stroke="#000000" points="504,-134.2422 504,-153.2422 572,-153.2422 572,-134.2422 504,-134.2422"/>
<text text-anchor="start" x="562.8862" y="-140.3422" font-family="Helvetica,sans-Serif" font-size="11.00" fill="#000000"> &#160;</text>
<polygon fill="#ffffff" stroke="transparent" points="572,-134.2422 572,-153.2422 639,-153.2422 639,-134.2422 572,-134.2422"/>
<polygon fill="none" stroke="#000000" points="572,-134.2422 572,-153.2422 639,-153.2422 639,-134.2422 572,-134.2422"/>
<text text-anchor="start" x="620.4053" y="-140.3422" font-family="Helvetica,sans-Serif" font-size="11.00" fill="#000000">0 &gt;</text>
<polygon fill="none" stroke="#000000" stroke-width="2" points="426,-133.2422 426,-353.2422 640,-353.2422 640,-133.2422 426,-133.2422"/>
</a>
</g>
</g>
<!-- act_re_procdef -->
<g id="node2" class="node">
<title>act_re_procdef</title>
<g id="a_node2"><a xlink:href="../../tables/act_re_procdef.html" xlink:title="act_re_procdef" target="_top">
<polygon fill="#ffffff" stroke="transparent" points="8,-49.7422 8,-198.7422 179,-198.7422 179,-49.7422 8,-49.7422"/>
<polygon fill="#f5f5f5" stroke="transparent" points="8.5,-175.2422 8.5,-198.2422 179.5,-198.2422 179.5,-175.2422 8.5,-175.2422"/>
<polygon fill="none" stroke="#000000" points="8.5,-175.2422 8.5,-198.2422 179.5,-198.2422 179.5,-175.2422 8.5,-175.2422"/>
<text text-anchor="start" x="13.5" y="-183.8422" font-family="Helvetica,sans-Serif" font-weight="bold" font-size="11.00" fill="#000000">act_re_procdef</text>
<text text-anchor="start" x="144.5437" y="-183.3422" font-family="Helvetica,sans-Serif" font-size="11.00" fill="#000000">[table]</text>
<polygon fill="none" stroke="#000000" points="8.5,-153.2422 8.5,-175.2422 179.5,-175.2422 179.5,-153.2422 8.5,-153.2422"/>
<image xlink:href="../../images/primaryKeys.png" width="11px" height="12px" preserveAspectRatio="xMinYMin meet" x="13.5" y="-170.242"/>
<text text-anchor="start" x="28.5" y="-160.3422" font-family="Helvetica,sans-Serif" font-size="11.00" fill="#000000">id_</text>
<polygon fill="#ffffff" stroke="transparent" points="8.5,-131.2422 8.5,-153.2422 179.5,-153.2422 179.5,-131.2422 8.5,-131.2422"/>
<polygon fill="none" stroke="#000000" points="8.5,-131.2422 8.5,-153.2422 179.5,-153.2422 179.5,-131.2422 8.5,-131.2422"/>
<text text-anchor="start" x="28.5" y="-138.3422" font-family="Helvetica,sans-Serif" font-size="11.00" fill="#000000">deployment_id_</text>
<polygon fill="#ffffff" stroke="transparent" points="8.5,-109.2422 8.5,-131.2422 179.5,-131.2422 179.5,-109.2422 8.5,-109.2422"/>
<polygon fill="none" stroke="#000000" points="8.5,-109.2422 8.5,-131.2422 179.5,-131.2422 179.5,-109.2422 8.5,-109.2422"/>
<text text-anchor="start" x="28.5" y="-116.3422" font-family="Helvetica,sans-Serif" font-size="11.00" fill="#000000">tenant_id_</text>
<polygon fill="#ffffff" stroke="transparent" points="8.5,-87.2422 8.5,-109.2422 179.5,-109.2422 179.5,-87.2422 8.5,-87.2422"/>
<polygon fill="none" stroke="#000000" points="8.5,-87.2422 8.5,-109.2422 179.5,-109.2422 179.5,-87.2422 8.5,-87.2422"/>
<text text-anchor="start" x="28.5" y="-94.3422" font-family="Helvetica,sans-Serif" font-size="11.00" fill="#000000">version_tag_</text>
<polygon fill="none" stroke="#000000" points="8.5,-68.2422 8.5,-87.2422 179.5,-87.2422 179.5,-68.2422 8.5,-68.2422"/>
<text text-anchor="start" x="11.5" y="-74.3422" font-family="Helvetica,sans-Serif" font-size="11.00" fill="#000000">...</text>
<polygon fill="#ffffff" stroke="transparent" points="8.5,-49.2422 8.5,-68.2422 83.5,-68.2422 83.5,-49.2422 8.5,-49.2422"/>
<polygon fill="none" stroke="#000000" points="8.5,-49.2422 8.5,-68.2422 83.5,-68.2422 83.5,-49.2422 8.5,-49.2422"/>
<text text-anchor="start" x="11.5" y="-55.3422" font-family="Helvetica,sans-Serif" font-size="11.00" fill="#000000"> &#160;</text>
<polygon fill="#ffffff" stroke="transparent" points="83.5,-49.2422 83.5,-68.2422 126.5,-68.2422 126.5,-49.2422 83.5,-49.2422"/>
<polygon fill="none" stroke="#000000" points="83.5,-49.2422 83.5,-68.2422 126.5,-68.2422 126.5,-49.2422 83.5,-49.2422"/>
<text text-anchor="start" x="117.3862" y="-55.3422" font-family="Helvetica,sans-Serif" font-size="11.00" fill="#000000"> &#160;</text>
<polygon fill="#ffffff" stroke="transparent" points="126.5,-49.2422 126.5,-68.2422 179.5,-68.2422 179.5,-49.2422 126.5,-49.2422"/>
<polygon fill="none" stroke="#000000" points="126.5,-49.2422 126.5,-68.2422 179.5,-68.2422 179.5,-49.2422 126.5,-49.2422"/>
<text text-anchor="start" x="160.9053" y="-55.3422" font-family="Helvetica,sans-Serif" font-size="11.00" fill="#000000">4 &gt;</text>
</a>
</g>
</g>
<!-- act_ru_identitylink&#45;&gt;act_re_procdef -->
<g id="edge1" class="edge">
<title>act_ru_identitylink:w&#45;&gt;act_re_procdef:e</title>
<path fill="none" stroke="#000000" d="M412.6079,-183.4707C381.5372,-168.2751 425.7086,-94.6841 384,-65.2422 324.4525,-23.2078 280.5161,-24.6146 220,-65.2422 180.5303,-91.7402 227.0395,-164.2422 179.5,-164.2422"/>
<polygon fill="#000000" stroke="#000000" points="419.1443,-184.7294 426.3192,-189.7772 423.0722,-185.4858 427,-186.2422 427,-186.2422 427,-186.2422 423.0722,-185.4858 427.6808,-182.7071 419.1443,-184.7294 419.1443,-184.7294"/>
<ellipse fill="none" stroke="#000000" cx="416.0021" cy="-184.1242" rx="3.2" ry="3.2"/>
</g>
<!-- act_ru_task -->
<g id="node3" class="node">
<title>act_ru_task</title>
<g id="a_node3"><a xlink:href="../../tables/act_ru_task.html" xlink:title="act_ru_task" target="_top">
<polygon fill="#ffffff" stroke="transparent" points="228,-75.7422 228,-378.7422 376,-378.7422 376,-75.7422 228,-75.7422"/>
<polygon fill="#f5f5f5" stroke="transparent" points="228,-355.2422 228,-378.2422 376,-378.2422 376,-355.2422 228,-355.2422"/>
<polygon fill="none" stroke="#000000" points="228,-355.2422 228,-378.2422 376,-378.2422 376,-355.2422 228,-355.2422"/>
<text text-anchor="start" x="233" y="-363.8422" font-family="Helvetica,sans-Serif" font-weight="bold" font-size="11.00" fill="#000000">act_ru_task</text>
<text text-anchor="start" x="341.0437" y="-363.3422" font-family="Helvetica,sans-Serif" font-size="11.00" fill="#000000">[table]</text>
<polygon fill="none" stroke="#000000" points="228,-333.2422 228,-355.2422 376,-355.2422 376,-333.2422 228,-333.2422"/>
<image xlink:href="../../images/primaryKeys.png" width="11px" height="12px" preserveAspectRatio="xMinYMin meet" x="233" y="-350.242"/>
<text text-anchor="start" x="248" y="-340.3422" font-family="Helvetica,sans-Serif" font-size="11.00" fill="#000000">id_</text>
<polygon fill="#ffffff" stroke="transparent" points="228,-311.2422 228,-333.2422 376,-333.2422 376,-311.2422 228,-311.2422"/>
<polygon fill="none" stroke="#000000" points="228,-311.2422 228,-333.2422 376,-333.2422 376,-311.2422 228,-311.2422"/>
<image xlink:href="../../images/foreignKeys.png" width="11px" height="12px" preserveAspectRatio="xMinYMin meet" x="233" y="-328.242"/>
<text text-anchor="start" x="248" y="-318.3422" font-family="Helvetica,sans-Serif" font-size="11.00" fill="#000000">execution_id_</text>
<polygon fill="#ffffff" stroke="transparent" points="228,-289.2422 228,-311.2422 376,-311.2422 376,-289.2422 228,-289.2422"/>
<polygon fill="none" stroke="#000000" points="228,-289.2422 228,-311.2422 376,-311.2422 376,-289.2422 228,-289.2422"/>
<image xlink:href="../../images/foreignKeys.png" width="11px" height="12px" preserveAspectRatio="xMinYMin meet" x="233" y="-306.242"/>
<text text-anchor="start" x="248" y="-296.3422" font-family="Helvetica,sans-Serif" font-size="11.00" fill="#000000">proc_inst_id_</text>
<polygon fill="#ffffff" stroke="transparent" points="228,-267.2422 228,-289.2422 376,-289.2422 376,-267.2422 228,-267.2422"/>
<polygon fill="none" stroke="#000000" points="228,-267.2422 228,-289.2422 376,-289.2422 376,-267.2422 228,-267.2422"/>
<image xlink:href="../../images/foreignKeys.png" width="11px" height="12px" preserveAspectRatio="xMinYMin meet" x="233" y="-284.242"/>
<text text-anchor="start" x="248" y="-274.3422" font-family="Helvetica,sans-Serif" font-size="11.00" fill="#000000">proc_def_id_</text>
<polygon fill="#ffffff" stroke="transparent" points="228,-245.2422 228,-267.2422 376,-267.2422 376,-245.2422 228,-245.2422"/>
<polygon fill="none" stroke="#000000" points="228,-245.2422 228,-267.2422 376,-267.2422 376,-245.2422 228,-245.2422"/>
<image xlink:href="../../images/foreignKeys.png" width="11px" height="12px" preserveAspectRatio="xMinYMin meet" x="233" y="-262.242"/>
<text text-anchor="start" x="248" y="-252.3422" font-family="Helvetica,sans-Serif" font-size="11.00" fill="#000000">case_execution_id_</text>
<polygon fill="#ffffff" stroke="transparent" points="228,-223.2422 228,-245.2422 376,-245.2422 376,-223.2422 228,-223.2422"/>
<polygon fill="none" stroke="#000000" points="228,-223.2422 228,-245.2422 376,-245.2422 376,-223.2422 228,-223.2422"/>
<image xlink:href="../../images/foreignKeys.png" width="11px" height="12px" preserveAspectRatio="xMinYMin meet" x="233" y="-240.242"/>
<text text-anchor="start" x="248" y="-230.3422" font-family="Helvetica,sans-Serif" font-size="11.00" fill="#000000">case_def_id_</text>
<polygon fill="#ffffff" stroke="transparent" points="228,-201.2422 228,-223.2422 376,-223.2422 376,-201.2422 228,-201.2422"/>
<polygon fill="none" stroke="#000000" points="228,-201.2422 228,-223.2422 376,-223.2422 376,-201.2422 228,-201.2422"/>
<text text-anchor="start" x="248" y="-208.3422" font-family="Helvetica,sans-Serif" font-size="11.00" fill="#000000">owner_</text>
<polygon fill="#ffffff" stroke="transparent" points="228,-179.2422 228,-201.2422 376,-201.2422 376,-179.2422 228,-179.2422"/>
<polygon fill="none" stroke="#000000" points="228,-179.2422 228,-201.2422 376,-201.2422 376,-179.2422 228,-179.2422"/>
<text text-anchor="start" x="248" y="-186.3422" font-family="Helvetica,sans-Serif" font-size="11.00" fill="#000000">assignee_</text>
<polygon fill="#ffffff" stroke="transparent" points="228,-157.2422 228,-179.2422 376,-179.2422 376,-157.2422 228,-157.2422"/>
<polygon fill="none" stroke="#000000" points="228,-157.2422 228,-179.2422 376,-179.2422 376,-157.2422 228,-157.2422"/>
<text text-anchor="start" x="248" y="-164.3422" font-family="Helvetica,sans-Serif" font-size="11.00" fill="#000000">create_time_</text>
<polygon fill="#ffffff" stroke="transparent" points="228,-135.2422 228,-157.2422 376,-157.2422 376,-135.2422 228,-135.2422"/>
<polygon fill="none" stroke="#000000" points="228,-135.2422 228,-157.2422 376,-157.2422 376,-135.2422 228,-135.2422"/>
<text text-anchor="start" x="248" y="-142.3422" font-family="Helvetica,sans-Serif" font-size="11.00" fill="#000000">last_updated_</text>
<polygon fill="#ffffff" stroke="transparent" points="228,-113.2422 228,-135.2422 376,-135.2422 376,-113.2422 228,-113.2422"/>
<polygon fill="none" stroke="#000000" points="228,-113.2422 228,-135.2422 376,-135.2422 376,-113.2422 228,-113.2422"/>
<text text-anchor="start" x="248" y="-120.3422" font-family="Helvetica,sans-Serif" font-size="11.00" fill="#000000">tenant_id_</text>
<polygon fill="none" stroke="#000000" points="228,-94.2422 228,-113.2422 376,-113.2422 376,-94.2422 228,-94.2422"/>
<text text-anchor="start" x="231" y="-100.3422" font-family="Helvetica,sans-Serif" font-size="11.00" fill="#000000">...</text>
<polygon fill="#ffffff" stroke="transparent" points="228,-75.2422 228,-94.2422 296,-94.2422 296,-75.2422 228,-75.2422"/>
<polygon fill="none" stroke="#000000" points="228,-75.2422 228,-94.2422 296,-94.2422 296,-75.2422 228,-75.2422"/>
<text text-anchor="start" x="231" y="-81.3422" font-family="Helvetica,sans-Serif" font-size="11.00" fill="#000000">&lt; 5</text>
<polygon fill="#ffffff" stroke="transparent" points="296,-75.2422 296,-94.2422 331,-94.2422 331,-75.2422 296,-75.2422"/>
<polygon fill="none" stroke="#000000" points="296,-75.2422 296,-94.2422 331,-94.2422 331,-75.2422 296,-75.2422"/>
<text text-anchor="start" x="321.8862" y="-81.3422" font-family="Helvetica,sans-Serif" font-size="11.00" fill="#000000"> &#160;</text>
<polygon fill="#ffffff" stroke="transparent" points="331,-75.2422 331,-94.2422 376,-94.2422 376,-75.2422 331,-75.2422"/>
<polygon fill="none" stroke="#000000" points="331,-75.2422 331,-94.2422 376,-94.2422 376,-75.2422 331,-75.2422"/>
<text text-anchor="start" x="357.4053" y="-81.3422" font-family="Helvetica,sans-Serif" font-size="11.00" fill="#000000">1 &gt;</text>
</a>
</g>
</g>
<!-- act_ru_identitylink&#45;&gt;act_ru_task -->
<g id="edge2" class="edge">
<title>act_ru_identitylink:w&#45;&gt;act_ru_task:e</title>
<path fill="none" stroke="#000000" d="M412.8483,-211.3382C375.329,-231.5819 434.7549,-344.2422 376,-344.2422"/>
<polygon fill="#000000" stroke="#000000" points="419.1848,-209.952 427.7694,-211.759 423.0924,-209.0971 427,-208.2422 427,-208.2422 427,-208.2422 423.0924,-209.0971 426.2306,-204.7253 419.1848,-209.952 419.1848,-209.952"/>
<ellipse fill="none" stroke="#000000" cx="416.0588" cy="-210.6359" rx="3.2" ry="3.2"/>
</g>
<!-- act_ru_task&#45;&gt;act_re_procdef -->
<g id="edge3" class="edge">
<title>act_ru_task:w&#45;&gt;act_re_procdef:e</title>
<path fill="none" stroke="#000000" d="M213.8153,-274.4492C185.0227,-254.6684 228.539,-164.2422 179.5,-164.2422"/>
<polygon fill="#000000" stroke="#000000" points="220.2715,-276.1755 227.07,-281.72 224.1358,-277.2088 228,-278.2422 228,-278.2422 228,-278.2422 224.1358,-277.2088 228.93,-274.7644 220.2715,-276.1755 220.2715,-276.1755"/>
<ellipse fill="none" stroke="#000000" cx="217.1801" cy="-275.3489" rx="3.2" ry="3.2"/>
</g>
</g>
</svg>
