<?xml version="1.0" encoding="UTF-8" standalone="no"?>
<!DOCTYPE svg PUBLIC "-//W3C//DTD SVG 1.1//EN"
 "http://www.w3.org/Graphics/SVG/1.1/DTD/svg11.dtd">
<!-- Generated by graphviz version 2.40.1 (20161225.0304)
 -->
<!-- Title: oneDegreeRelationshipsDiagram Pages: 1 -->
<svg width="913pt" height="757pt"
 viewBox="0.00 0.00 913.00 756.70" xmlns="http://www.w3.org/2000/svg" xmlns:xlink="http://www.w3.org/1999/xlink">
<g id="graph0" class="graph" transform="scale(1 1) rotate(0) translate(4 752.7)">
<title>oneDegreeRelationshipsDiagram</title>
<polygon fill="#ffffff" stroke="transparent" points="-4,4 -4,-752.7 909,-752.7 909,4 -4,4"/>
<text text-anchor="middle" x="72.4936" y="-7.3" font-family="Helvetica,sans-Serif" font-size="11.00" fill="#000000">Generated by SchemaSpy</text>
<!-- act_ru_execution -->
<g id="node1" class="node">
<title>act_ru_execution</title>
<g id="a_node1"><a xlink:href="../../tables/act_ru_execution.html" xlink:title="act_ru_execution" target="_top">
<polygon fill="#ffffff" stroke="transparent" points="305,-344.7 305,-581.7 457,-581.7 457,-344.7 305,-344.7"/>
<polygon fill="#f5f5f5" stroke="transparent" points="305,-558.2 305,-581.2 457,-581.2 457,-558.2 305,-558.2"/>
<polygon fill="none" stroke="#000000" points="305,-558.2 305,-581.2 457,-581.2 457,-558.2 305,-558.2"/>
<text text-anchor="start" x="310" y="-566.8" font-family="Helvetica,sans-Serif" font-weight="bold" font-size="11.00" fill="#000000">act_ru_execution</text>
<text text-anchor="start" x="422.5219" y="-566.3" font-family="Helvetica,sans-Serif" font-size="11.00" fill="#000000">[table]</text>
<polygon fill="none" stroke="#000000" points="305,-536.2 305,-558.2 457,-558.2 457,-536.2 305,-536.2"/>
<image xlink:href="../../images/primaryKeys.png" width="11px" height="12px" preserveAspectRatio="xMinYMin meet" x="310" y="-553.2"/>
<text text-anchor="start" x="327" y="-543.3" font-family="Helvetica,sans-Serif" font-size="11.00" fill="#000000">id_</text>
<polygon fill="#ffffff" stroke="transparent" points="305,-514.2 305,-536.2 457,-536.2 457,-514.2 305,-514.2"/>
<polygon fill="none" stroke="#000000" points="305,-514.2 305,-536.2 457,-536.2 457,-514.2 305,-514.2"/>
<text text-anchor="start" x="327" y="-521.3" font-family="Helvetica,sans-Serif" font-size="11.00" fill="#000000">root_proc_inst_id_</text>
<polygon fill="#ffffff" stroke="transparent" points="305,-492.2 305,-514.2 457,-514.2 457,-492.2 305,-492.2"/>
<polygon fill="none" stroke="#000000" points="305,-492.2 305,-514.2 457,-514.2 457,-492.2 305,-492.2"/>
<image xlink:href="../../images/foreignKeys.png" width="11px" height="12px" preserveAspectRatio="xMinYMin meet" x="310" y="-509.2"/>
<text text-anchor="start" x="327" y="-499.3" font-family="Helvetica,sans-Serif" font-size="11.00" fill="#000000">proc_inst_id_</text>
<polygon fill="#ffffff" stroke="transparent" points="305,-470.2 305,-492.2 457,-492.2 457,-470.2 305,-470.2"/>
<polygon fill="none" stroke="#000000" points="305,-470.2 305,-492.2 457,-492.2 457,-470.2 305,-470.2"/>
<text text-anchor="start" x="327" y="-477.3" font-family="Helvetica,sans-Serif" font-size="11.00" fill="#000000">business_key_</text>
<polygon fill="#ffffff" stroke="transparent" points="305,-448.2 305,-470.2 457,-470.2 457,-448.2 305,-448.2"/>
<polygon fill="none" stroke="#000000" points="305,-448.2 305,-470.2 457,-470.2 457,-448.2 305,-448.2"/>
<image xlink:href="../../images/foreignKeys.png" width="11px" height="12px" preserveAspectRatio="xMinYMin meet" x="310" y="-465.2"/>
<text text-anchor="start" x="327" y="-455.3" font-family="Helvetica,sans-Serif" font-size="11.00" fill="#000000">parent_id_</text>
<polygon fill="#ffffff" stroke="transparent" points="305,-426.2 305,-448.2 457,-448.2 457,-426.2 305,-426.2"/>
<polygon fill="none" stroke="#000000" points="305,-426.2 305,-448.2 457,-448.2 457,-426.2 305,-426.2"/>
<image xlink:href="../../images/foreignKeys.png" width="11px" height="12px" preserveAspectRatio="xMinYMin meet" x="310" y="-443.2"/>
<text text-anchor="start" x="327" y="-433.3" font-family="Helvetica,sans-Serif" font-size="11.00" fill="#000000">proc_def_id_</text>
<polygon fill="#ffffff" stroke="transparent" points="305,-404.2 305,-426.2 457,-426.2 457,-404.2 305,-404.2"/>
<polygon fill="none" stroke="#000000" points="305,-404.2 305,-426.2 457,-426.2 457,-404.2 305,-404.2"/>
<image xlink:href="../../images/foreignKeys.png" width="11px" height="12px" preserveAspectRatio="xMinYMin meet" x="310" y="-421.2"/>
<text text-anchor="start" x="327" y="-411.3" font-family="Helvetica,sans-Serif" font-size="11.00" fill="#000000">super_exec_</text>
<polygon fill="#ffffff" stroke="transparent" points="305,-382.2 305,-404.2 457,-404.2 457,-382.2 305,-382.2"/>
<polygon fill="none" stroke="#000000" points="305,-382.2 305,-404.2 457,-404.2 457,-382.2 305,-382.2"/>
<text text-anchor="start" x="327" y="-389.3" font-family="Helvetica,sans-Serif" font-size="11.00" fill="#000000">tenant_id_</text>
<polygon fill="none" stroke="#000000" points="305,-363.2 305,-382.2 457,-382.2 457,-363.2 305,-363.2"/>
<text text-anchor="start" x="308" y="-369.3" font-family="Helvetica,sans-Serif" font-size="11.00" fill="#000000">...</text>
<polygon fill="#ffffff" stroke="transparent" points="305,-344.2 305,-363.2 372,-363.2 372,-344.2 305,-344.2"/>
<polygon fill="none" stroke="#000000" points="305,-344.2 305,-363.2 372,-363.2 372,-344.2 305,-344.2"/>
<text text-anchor="start" x="308" y="-350.3" font-family="Helvetica,sans-Serif" font-size="11.00" fill="#000000">&lt; 4</text>
<polygon fill="#ffffff" stroke="transparent" points="372,-344.2 372,-363.2 407,-363.2 407,-344.2 372,-344.2"/>
<polygon fill="none" stroke="#000000" points="372,-344.2 372,-363.2 407,-363.2 407,-344.2 372,-344.2"/>
<text text-anchor="start" x="397.8862" y="-350.3" font-family="Helvetica,sans-Serif" font-size="11.00" fill="#000000"> &#160;</text>
<polygon fill="#ffffff" stroke="transparent" points="407,-344.2 407,-363.2 457,-363.2 457,-344.2 407,-344.2"/>
<polygon fill="none" stroke="#000000" points="407,-344.2 407,-363.2 457,-363.2 457,-344.2 407,-344.2"/>
<text text-anchor="start" x="432.2904" y="-350.3" font-family="Helvetica,sans-Serif" font-size="11.00" fill="#000000">11 &gt;</text>
</a>
</g>
</g>
<!-- act_re_procdef -->
<g id="node2" class="node">
<title>act_re_procdef</title>
<g id="a_node2"><a xlink:href="../../tables/act_re_procdef.html" xlink:title="act_re_procdef" target="_top">
<polygon fill="#ffffff" stroke="transparent" points="8,-38.2 8,-414.2 256,-414.2 256,-38.2 8,-38.2"/>
<polygon fill="#f5f5f5" stroke="transparent" points="10,-389.2 10,-412.2 254,-412.2 254,-389.2 10,-389.2"/>
<polygon fill="none" stroke="#000000" points="10,-389.2 10,-412.2 254,-412.2 254,-389.2 10,-389.2"/>
<text text-anchor="start" x="15" y="-397.8" font-family="Helvetica,sans-Serif" font-weight="bold" font-size="11.00" fill="#000000">act_re_procdef</text>
<text text-anchor="start" x="219.0437" y="-397.3" font-family="Helvetica,sans-Serif" font-size="11.00" fill="#000000">[table]</text>
<polygon fill="none" stroke="#000000" points="10,-367.2 10,-389.2 181,-389.2 181,-367.2 10,-367.2"/>
<image xlink:href="../../images/primaryKeys.png" width="11px" height="12px" preserveAspectRatio="xMinYMin meet" x="15" y="-384.2"/>
<text text-anchor="start" x="30" y="-374.3" font-family="Helvetica,sans-Serif" font-size="11.00" fill="#000000">id_</text>
<polygon fill="none" stroke="#000000" points="181,-367.2 181,-389.2 254,-389.2 254,-367.2 181,-367.2"/>
<text text-anchor="start" x="184" y="-374.9" font-family="Helvetica,sans-Serif" font-size="11.00" fill="#000000">varchar[64]</text>
<polygon fill="none" stroke="#000000" points="10,-345.2 10,-367.2 181,-367.2 181,-345.2 10,-345.2"/>
<text text-anchor="start" x="30" y="-352.3" font-family="Helvetica,sans-Serif" font-size="11.00" fill="#000000">rev_</text>
<polygon fill="none" stroke="#000000" points="181,-345.2 181,-367.2 254,-367.2 254,-345.2 181,-345.2"/>
<text text-anchor="start" x="184" y="-352.9" font-family="Helvetica,sans-Serif" font-size="11.00" fill="#000000">int4[10]</text>
<polygon fill="none" stroke="#000000" points="10,-323.2 10,-345.2 181,-345.2 181,-323.2 10,-323.2"/>
<text text-anchor="start" x="30" y="-330.3" font-family="Helvetica,sans-Serif" font-size="11.00" fill="#000000">category_</text>
<polygon fill="none" stroke="#000000" points="181,-323.2 181,-345.2 254,-345.2 254,-323.2 181,-323.2"/>
<text text-anchor="start" x="184" y="-330.9" font-family="Helvetica,sans-Serif" font-size="11.00" fill="#000000">varchar[255]</text>
<polygon fill="none" stroke="#000000" points="10,-301.2 10,-323.2 181,-323.2 181,-301.2 10,-301.2"/>
<text text-anchor="start" x="30" y="-308.3" font-family="Helvetica,sans-Serif" font-size="11.00" fill="#000000">name_</text>
<polygon fill="none" stroke="#000000" points="181,-301.2 181,-323.2 254,-323.2 254,-301.2 181,-301.2"/>
<text text-anchor="start" x="184" y="-308.9" font-family="Helvetica,sans-Serif" font-size="11.00" fill="#000000">varchar[255]</text>
<polygon fill="none" stroke="#000000" points="10,-279.2 10,-301.2 181,-301.2 181,-279.2 10,-279.2"/>
<text text-anchor="start" x="30" y="-286.3" font-family="Helvetica,sans-Serif" font-size="11.00" fill="#000000">key_</text>
<polygon fill="none" stroke="#000000" points="181,-279.2 181,-301.2 254,-301.2 254,-279.2 181,-279.2"/>
<text text-anchor="start" x="184" y="-286.9" font-family="Helvetica,sans-Serif" font-size="11.00" fill="#000000">varchar[255]</text>
<polygon fill="none" stroke="#000000" points="10,-257.2 10,-279.2 181,-279.2 181,-257.2 10,-257.2"/>
<text text-anchor="start" x="30" y="-264.3" font-family="Helvetica,sans-Serif" font-size="11.00" fill="#000000">version_</text>
<polygon fill="none" stroke="#000000" points="181,-257.2 181,-279.2 254,-279.2 254,-257.2 181,-257.2"/>
<text text-anchor="start" x="184" y="-264.9" font-family="Helvetica,sans-Serif" font-size="11.00" fill="#000000">int4[10]</text>
<polygon fill="#ffffff" stroke="transparent" points="10,-235.2 10,-257.2 181,-257.2 181,-235.2 10,-235.2"/>
<polygon fill="none" stroke="#000000" points="10,-235.2 10,-257.2 181,-257.2 181,-235.2 10,-235.2"/>
<text text-anchor="start" x="30" y="-242.3" font-family="Helvetica,sans-Serif" font-size="11.00" fill="#000000">deployment_id_</text>
<polygon fill="none" stroke="#000000" points="181,-235.2 181,-257.2 254,-257.2 254,-235.2 181,-235.2"/>
<text text-anchor="start" x="184" y="-242.9" font-family="Helvetica,sans-Serif" font-size="11.00" fill="#000000">varchar[64]</text>
<polygon fill="none" stroke="#000000" points="10,-213.2 10,-235.2 181,-235.2 181,-213.2 10,-213.2"/>
<text text-anchor="start" x="30" y="-220.3" font-family="Helvetica,sans-Serif" font-size="11.00" fill="#000000">resource_name_</text>
<polygon fill="none" stroke="#000000" points="181,-213.2 181,-235.2 254,-235.2 254,-213.2 181,-213.2"/>
<text text-anchor="start" x="183.8791" y="-220.9" font-family="Helvetica,sans-Serif" font-size="11.00" fill="#000000">varchar[4000]</text>
<polygon fill="none" stroke="#000000" points="10,-191.2 10,-213.2 181,-213.2 181,-191.2 10,-191.2"/>
<text text-anchor="start" x="30" y="-198.3" font-family="Helvetica,sans-Serif" font-size="11.00" fill="#000000">dgrm_resource_name_</text>
<polygon fill="none" stroke="#000000" points="181,-191.2 181,-213.2 254,-213.2 254,-191.2 181,-191.2"/>
<text text-anchor="start" x="183.8791" y="-198.9" font-family="Helvetica,sans-Serif" font-size="11.00" fill="#000000">varchar[4000]</text>
<polygon fill="none" stroke="#000000" points="10,-169.2 10,-191.2 181,-191.2 181,-169.2 10,-169.2"/>
<text text-anchor="start" x="30" y="-176.3" font-family="Helvetica,sans-Serif" font-size="11.00" fill="#000000">has_start_form_key_</text>
<polygon fill="none" stroke="#000000" points="181,-169.2 181,-191.2 254,-191.2 254,-169.2 181,-169.2"/>
<text text-anchor="start" x="184" y="-176.9" font-family="Helvetica,sans-Serif" font-size="11.00" fill="#000000">bool[1]</text>
<polygon fill="none" stroke="#000000" points="10,-147.2 10,-169.2 181,-169.2 181,-147.2 10,-147.2"/>
<text text-anchor="start" x="30" y="-154.3" font-family="Helvetica,sans-Serif" font-size="11.00" fill="#000000">suspension_state_</text>
<polygon fill="none" stroke="#000000" points="181,-147.2 181,-169.2 254,-169.2 254,-147.2 181,-147.2"/>
<text text-anchor="start" x="184" y="-154.9" font-family="Helvetica,sans-Serif" font-size="11.00" fill="#000000">int4[10]</text>
<polygon fill="#ffffff" stroke="transparent" points="10,-125.2 10,-147.2 181,-147.2 181,-125.2 10,-125.2"/>
<polygon fill="none" stroke="#000000" points="10,-125.2 10,-147.2 181,-147.2 181,-125.2 10,-125.2"/>
<text text-anchor="start" x="30" y="-132.3" font-family="Helvetica,sans-Serif" font-size="11.00" fill="#000000">tenant_id_</text>
<polygon fill="none" stroke="#000000" points="181,-125.2 181,-147.2 254,-147.2 254,-125.2 181,-125.2"/>
<text text-anchor="start" x="184" y="-132.9" font-family="Helvetica,sans-Serif" font-size="11.00" fill="#000000">varchar[64]</text>
<polygon fill="#ffffff" stroke="transparent" points="10,-103.2 10,-125.2 181,-125.2 181,-103.2 10,-103.2"/>
<polygon fill="none" stroke="#000000" points="10,-103.2 10,-125.2 181,-125.2 181,-103.2 10,-103.2"/>
<text text-anchor="start" x="30" y="-110.3" font-family="Helvetica,sans-Serif" font-size="11.00" fill="#000000">version_tag_</text>
<polygon fill="none" stroke="#000000" points="181,-103.2 181,-125.2 254,-125.2 254,-103.2 181,-103.2"/>
<text text-anchor="start" x="184" y="-110.9" font-family="Helvetica,sans-Serif" font-size="11.00" fill="#000000">varchar[64]</text>
<polygon fill="none" stroke="#000000" points="10,-81.2 10,-103.2 181,-103.2 181,-81.2 10,-81.2"/>
<text text-anchor="start" x="30" y="-88.3" font-family="Helvetica,sans-Serif" font-size="11.00" fill="#000000">history_ttl_</text>
<polygon fill="none" stroke="#000000" points="181,-81.2 181,-103.2 254,-103.2 254,-81.2 181,-81.2"/>
<text text-anchor="start" x="184" y="-88.9" font-family="Helvetica,sans-Serif" font-size="11.00" fill="#000000">int4[10]</text>
<polygon fill="none" stroke="#000000" points="10,-59.2 10,-81.2 181,-81.2 181,-59.2 10,-59.2"/>
<text text-anchor="start" x="30" y="-66.3" font-family="Helvetica,sans-Serif" font-size="11.00" fill="#000000">startable_</text>
<polygon fill="none" stroke="#000000" points="181,-59.2 181,-81.2 254,-81.2 254,-59.2 181,-59.2"/>
<text text-anchor="start" x="184" y="-66.9" font-family="Helvetica,sans-Serif" font-size="11.00" fill="#000000">bool[1]</text>
<polygon fill="#ffffff" stroke="transparent" points="10,-40.2 10,-59.2 100,-59.2 100,-40.2 10,-40.2"/>
<polygon fill="none" stroke="#000000" points="10,-40.2 10,-59.2 100,-59.2 100,-40.2 10,-40.2"/>
<text text-anchor="start" x="13" y="-46.3" font-family="Helvetica,sans-Serif" font-size="11.00" fill="#000000">&lt; 0</text>
<polygon fill="#ffffff" stroke="transparent" points="100,-40.2 100,-59.2 181,-59.2 181,-40.2 100,-40.2"/>
<polygon fill="none" stroke="#000000" points="100,-40.2 100,-59.2 181,-59.2 181,-40.2 100,-40.2"/>
<text text-anchor="start" x="171.8862" y="-46.3" font-family="Helvetica,sans-Serif" font-size="11.00" fill="#000000"> &#160;</text>
<polygon fill="#ffffff" stroke="transparent" points="181,-40.2 181,-59.2 254,-59.2 254,-40.2 181,-40.2"/>
<polygon fill="none" stroke="#000000" points="181,-40.2 181,-59.2 254,-59.2 254,-40.2 181,-40.2"/>
<text text-anchor="start" x="235.4053" y="-46.3" font-family="Helvetica,sans-Serif" font-size="11.00" fill="#000000">4 &gt;</text>
<polygon fill="none" stroke="#000000" stroke-width="2" points="9,-39.2 9,-413.2 255,-413.2 255,-39.2 9,-39.2"/>
</a>
</g>
</g>
<!-- act_ru_execution&#45;&gt;act_re_procdef -->
<g id="edge1" class="edge">
<title>act_ru_execution:w&#45;&gt;act_re_procdef:e</title>
<path fill="none" stroke="#000000" d="M291.2854,-432.5704C275.072,-418.6617 282.7036,-378.2 254,-378.2"/>
<polygon fill="#000000" stroke="#000000" points="297.4202,-434.6413 303.8486,-440.6109 301.2101,-435.9206 305,-437.2 305,-437.2 305,-437.2 301.2101,-435.9206 306.1514,-433.7891 297.4202,-434.6413 297.4202,-434.6413"/>
<ellipse fill="none" stroke="#000000" cx="294.3883" cy="-433.6178" rx="3.2" ry="3.2"/>
</g>
<!-- act_ru_identitylink -->
<g id="node3" class="node">
<title>act_ru_identitylink</title>
<g id="a_node3"><a xlink:href="../../tables/act_ru_identitylink.html" xlink:title="act_ru_identitylink" target="_top">
<polygon fill="#ffffff" stroke="transparent" points="734,-363.7 734,-534.7 897,-534.7 897,-363.7 734,-363.7"/>
<polygon fill="#f5f5f5" stroke="transparent" points="734.5,-511.2 734.5,-534.2 897.5,-534.2 897.5,-511.2 734.5,-511.2"/>
<polygon fill="none" stroke="#000000" points="734.5,-511.2 734.5,-534.2 897.5,-534.2 897.5,-511.2 734.5,-511.2"/>
<text text-anchor="start" x="739.5" y="-519.8" font-family="Helvetica,sans-Serif" font-weight="bold" font-size="11.00" fill="#000000">act_ru_identitylink</text>
<text text-anchor="start" x="863.0219" y="-519.3" font-family="Helvetica,sans-Serif" font-size="11.00" fill="#000000">[table]</text>
<polygon fill="none" stroke="#000000" points="734.5,-489.2 734.5,-511.2 897.5,-511.2 897.5,-489.2 734.5,-489.2"/>
<image xlink:href="../../images/primaryKeys.png" width="11px" height="12px" preserveAspectRatio="xMinYMin meet" x="739.5" y="-506.2"/>
<text text-anchor="start" x="763.5" y="-496.3" font-family="Helvetica,sans-Serif" font-size="11.00" fill="#000000">id_</text>
<polygon fill="#ffffff" stroke="transparent" points="734.5,-467.2 734.5,-489.2 897.5,-489.2 897.5,-467.2 734.5,-467.2"/>
<polygon fill="none" stroke="#000000" points="734.5,-467.2 734.5,-489.2 897.5,-489.2 897.5,-467.2 734.5,-467.2"/>
<text text-anchor="start" x="763.5" y="-474.3" font-family="Helvetica,sans-Serif" font-size="11.00" fill="#000000">group_id_</text>
<polygon fill="#ffffff" stroke="transparent" points="734.5,-445.2 734.5,-467.2 897.5,-467.2 897.5,-445.2 734.5,-445.2"/>
<polygon fill="none" stroke="#000000" points="734.5,-445.2 734.5,-467.2 897.5,-467.2 897.5,-445.2 734.5,-445.2"/>
<text text-anchor="start" x="763.5" y="-452.3" font-family="Helvetica,sans-Serif" font-size="11.00" fill="#000000">user_id_</text>
<polygon fill="#ffffff" stroke="transparent" points="734.5,-423.2 734.5,-445.2 897.5,-445.2 897.5,-423.2 734.5,-423.2"/>
<polygon fill="none" stroke="#000000" points="734.5,-423.2 734.5,-445.2 897.5,-445.2 897.5,-423.2 734.5,-423.2"/>
<image xlink:href="../../images/foreignKeys.png" width="11px" height="12px" preserveAspectRatio="xMinYMin meet" x="739.5" y="-440.2"/>
<text text-anchor="start" x="763.5" y="-430.3" font-family="Helvetica,sans-Serif" font-size="11.00" fill="#000000">task_id_</text>
<polygon fill="#ffffff" stroke="transparent" points="734.5,-401.2 734.5,-423.2 897.5,-423.2 897.5,-401.2 734.5,-401.2"/>
<polygon fill="none" stroke="#000000" points="734.5,-401.2 734.5,-423.2 897.5,-423.2 897.5,-401.2 734.5,-401.2"/>
<image xlink:href="../../images/foreignKeys.png" width="11px" height="12px" preserveAspectRatio="xMinYMin meet" x="739.5" y="-418.2"/>
<text text-anchor="start" x="763.5" y="-408.3" font-family="Helvetica,sans-Serif" font-size="11.00" fill="#000000">proc_def_id_</text>
<polygon fill="none" stroke="#000000" points="734.5,-382.2 734.5,-401.2 897.5,-401.2 897.5,-382.2 734.5,-382.2"/>
<text text-anchor="start" x="737.5" y="-388.3" font-family="Helvetica,sans-Serif" font-size="11.00" fill="#000000">...</text>
<polygon fill="#ffffff" stroke="transparent" points="734.5,-363.2 734.5,-382.2 814.5,-382.2 814.5,-363.2 734.5,-363.2"/>
<polygon fill="none" stroke="#000000" points="734.5,-363.2 734.5,-382.2 814.5,-382.2 814.5,-363.2 734.5,-363.2"/>
<text text-anchor="start" x="737.5" y="-369.3" font-family="Helvetica,sans-Serif" font-size="11.00" fill="#000000">&lt; 2</text>
<polygon fill="#ffffff" stroke="transparent" points="814.5,-363.2 814.5,-382.2 855.5,-382.2 855.5,-363.2 814.5,-363.2"/>
<polygon fill="none" stroke="#000000" points="814.5,-363.2 814.5,-382.2 855.5,-382.2 855.5,-363.2 814.5,-363.2"/>
<text text-anchor="start" x="846.3862" y="-369.3" font-family="Helvetica,sans-Serif" font-size="11.00" fill="#000000"> &#160;</text>
<polygon fill="#ffffff" stroke="transparent" points="855.5,-363.2 855.5,-382.2 897.5,-382.2 897.5,-363.2 855.5,-363.2"/>
<polygon fill="none" stroke="#000000" points="855.5,-363.2 855.5,-382.2 897.5,-382.2 897.5,-363.2 855.5,-363.2"/>
<text text-anchor="start" x="888.3862" y="-369.3" font-family="Helvetica,sans-Serif" font-size="11.00" fill="#000000"> &#160;</text>
</a>
</g>
</g>
<!-- act_ru_identitylink&#45;&gt;act_re_procdef -->
<g id="edge2" class="edge">
<title>act_ru_identitylink:w&#45;&gt;act_re_procdef:e</title>
<path fill="none" stroke="#000000" d="M720.976,-406.6593C686.4406,-372.0352 733.4814,-185.7532 693,-151.2 627.0811,-94.9344 579.903,-122.8627 498,-151.2 390.6164,-188.3532 372.8564,-224.5985 297,-309.2 272.8776,-336.1033 290.1342,-378.2 254,-378.2"/>
<polygon fill="#000000" stroke="#000000" points="727.0972,-409.1671 733.1352,-415.5313 730.7986,-410.6836 734.5,-412.2 734.5,-412.2 734.5,-412.2 730.7986,-410.6836 735.8648,-408.8687 727.0972,-409.1671 727.0972,-409.1671"/>
<ellipse fill="none" stroke="#000000" cx="724.136" cy="-407.954" rx="3.2" ry="3.2"/>
</g>
<!-- act_ru_task -->
<g id="node4" class="node">
<title>act_ru_task</title>
<g id="a_node4"><a xlink:href="../../tables/act_ru_task.html" xlink:title="act_ru_task" target="_top">
<polygon fill="#ffffff" stroke="transparent" points="521.5,-441.7 521.5,-744.7 669.5,-744.7 669.5,-441.7 521.5,-441.7"/>
<polygon fill="#f5f5f5" stroke="transparent" points="521.5,-721.2 521.5,-744.2 669.5,-744.2 669.5,-721.2 521.5,-721.2"/>
<polygon fill="none" stroke="#000000" points="521.5,-721.2 521.5,-744.2 669.5,-744.2 669.5,-721.2 521.5,-721.2"/>
<text text-anchor="start" x="526.5" y="-729.8" font-family="Helvetica,sans-Serif" font-weight="bold" font-size="11.00" fill="#000000">act_ru_task</text>
<text text-anchor="start" x="634.5437" y="-729.3" font-family="Helvetica,sans-Serif" font-size="11.00" fill="#000000">[table]</text>
<polygon fill="none" stroke="#000000" points="521.5,-699.2 521.5,-721.2 669.5,-721.2 669.5,-699.2 521.5,-699.2"/>
<image xlink:href="../../images/primaryKeys.png" width="11px" height="12px" preserveAspectRatio="xMinYMin meet" x="526.5" y="-716.2"/>
<text text-anchor="start" x="541.5" y="-706.3" font-family="Helvetica,sans-Serif" font-size="11.00" fill="#000000">id_</text>
<polygon fill="#ffffff" stroke="transparent" points="521.5,-677.2 521.5,-699.2 669.5,-699.2 669.5,-677.2 521.5,-677.2"/>
<polygon fill="none" stroke="#000000" points="521.5,-677.2 521.5,-699.2 669.5,-699.2 669.5,-677.2 521.5,-677.2"/>
<image xlink:href="../../images/foreignKeys.png" width="11px" height="12px" preserveAspectRatio="xMinYMin meet" x="526.5" y="-694.2"/>
<text text-anchor="start" x="541.5" y="-684.3" font-family="Helvetica,sans-Serif" font-size="11.00" fill="#000000">execution_id_</text>
<polygon fill="#ffffff" stroke="transparent" points="521.5,-655.2 521.5,-677.2 669.5,-677.2 669.5,-655.2 521.5,-655.2"/>
<polygon fill="none" stroke="#000000" points="521.5,-655.2 521.5,-677.2 669.5,-677.2 669.5,-655.2 521.5,-655.2"/>
<image xlink:href="../../images/foreignKeys.png" width="11px" height="12px" preserveAspectRatio="xMinYMin meet" x="526.5" y="-672.2"/>
<text text-anchor="start" x="541.5" y="-662.3" font-family="Helvetica,sans-Serif" font-size="11.00" fill="#000000">proc_inst_id_</text>
<polygon fill="#ffffff" stroke="transparent" points="521.5,-633.2 521.5,-655.2 669.5,-655.2 669.5,-633.2 521.5,-633.2"/>
<polygon fill="none" stroke="#000000" points="521.5,-633.2 521.5,-655.2 669.5,-655.2 669.5,-633.2 521.5,-633.2"/>
<image xlink:href="../../images/foreignKeys.png" width="11px" height="12px" preserveAspectRatio="xMinYMin meet" x="526.5" y="-650.2"/>
<text text-anchor="start" x="541.5" y="-640.3" font-family="Helvetica,sans-Serif" font-size="11.00" fill="#000000">proc_def_id_</text>
<polygon fill="#ffffff" stroke="transparent" points="521.5,-611.2 521.5,-633.2 669.5,-633.2 669.5,-611.2 521.5,-611.2"/>
<polygon fill="none" stroke="#000000" points="521.5,-611.2 521.5,-633.2 669.5,-633.2 669.5,-611.2 521.5,-611.2"/>
<image xlink:href="../../images/foreignKeys.png" width="11px" height="12px" preserveAspectRatio="xMinYMin meet" x="526.5" y="-628.2"/>
<text text-anchor="start" x="541.5" y="-618.3" font-family="Helvetica,sans-Serif" font-size="11.00" fill="#000000">case_execution_id_</text>
<polygon fill="#ffffff" stroke="transparent" points="521.5,-589.2 521.5,-611.2 669.5,-611.2 669.5,-589.2 521.5,-589.2"/>
<polygon fill="none" stroke="#000000" points="521.5,-589.2 521.5,-611.2 669.5,-611.2 669.5,-589.2 521.5,-589.2"/>
<image xlink:href="../../images/foreignKeys.png" width="11px" height="12px" preserveAspectRatio="xMinYMin meet" x="526.5" y="-606.2"/>
<text text-anchor="start" x="541.5" y="-596.3" font-family="Helvetica,sans-Serif" font-size="11.00" fill="#000000">case_def_id_</text>
<polygon fill="#ffffff" stroke="transparent" points="521.5,-567.2 521.5,-589.2 669.5,-589.2 669.5,-567.2 521.5,-567.2"/>
<polygon fill="none" stroke="#000000" points="521.5,-567.2 521.5,-589.2 669.5,-589.2 669.5,-567.2 521.5,-567.2"/>
<text text-anchor="start" x="541.5" y="-574.3" font-family="Helvetica,sans-Serif" font-size="11.00" fill="#000000">owner_</text>
<polygon fill="#ffffff" stroke="transparent" points="521.5,-545.2 521.5,-567.2 669.5,-567.2 669.5,-545.2 521.5,-545.2"/>
<polygon fill="none" stroke="#000000" points="521.5,-545.2 521.5,-567.2 669.5,-567.2 669.5,-545.2 521.5,-545.2"/>
<text text-anchor="start" x="541.5" y="-552.3" font-family="Helvetica,sans-Serif" font-size="11.00" fill="#000000">assignee_</text>
<polygon fill="#ffffff" stroke="transparent" points="521.5,-523.2 521.5,-545.2 669.5,-545.2 669.5,-523.2 521.5,-523.2"/>
<polygon fill="none" stroke="#000000" points="521.5,-523.2 521.5,-545.2 669.5,-545.2 669.5,-523.2 521.5,-523.2"/>
<text text-anchor="start" x="541.5" y="-530.3" font-family="Helvetica,sans-Serif" font-size="11.00" fill="#000000">create_time_</text>
<polygon fill="#ffffff" stroke="transparent" points="521.5,-501.2 521.5,-523.2 669.5,-523.2 669.5,-501.2 521.5,-501.2"/>
<polygon fill="none" stroke="#000000" points="521.5,-501.2 521.5,-523.2 669.5,-523.2 669.5,-501.2 521.5,-501.2"/>
<text text-anchor="start" x="541.5" y="-508.3" font-family="Helvetica,sans-Serif" font-size="11.00" fill="#000000">last_updated_</text>
<polygon fill="#ffffff" stroke="transparent" points="521.5,-479.2 521.5,-501.2 669.5,-501.2 669.5,-479.2 521.5,-479.2"/>
<polygon fill="none" stroke="#000000" points="521.5,-479.2 521.5,-501.2 669.5,-501.2 669.5,-479.2 521.5,-479.2"/>
<text text-anchor="start" x="541.5" y="-486.3" font-family="Helvetica,sans-Serif" font-size="11.00" fill="#000000">tenant_id_</text>
<polygon fill="none" stroke="#000000" points="521.5,-460.2 521.5,-479.2 669.5,-479.2 669.5,-460.2 521.5,-460.2"/>
<text text-anchor="start" x="524.5" y="-466.3" font-family="Helvetica,sans-Serif" font-size="11.00" fill="#000000">...</text>
<polygon fill="#ffffff" stroke="transparent" points="521.5,-441.2 521.5,-460.2 589.5,-460.2 589.5,-441.2 521.5,-441.2"/>
<polygon fill="none" stroke="#000000" points="521.5,-441.2 521.5,-460.2 589.5,-460.2 589.5,-441.2 521.5,-441.2"/>
<text text-anchor="start" x="524.5" y="-447.3" font-family="Helvetica,sans-Serif" font-size="11.00" fill="#000000">&lt; 5</text>
<polygon fill="#ffffff" stroke="transparent" points="589.5,-441.2 589.5,-460.2 624.5,-460.2 624.5,-441.2 589.5,-441.2"/>
<polygon fill="none" stroke="#000000" points="589.5,-441.2 589.5,-460.2 624.5,-460.2 624.5,-441.2 589.5,-441.2"/>
<text text-anchor="start" x="615.3862" y="-447.3" font-family="Helvetica,sans-Serif" font-size="11.00" fill="#000000"> &#160;</text>
<polygon fill="#ffffff" stroke="transparent" points="624.5,-441.2 624.5,-460.2 669.5,-460.2 669.5,-441.2 624.5,-441.2"/>
<polygon fill="none" stroke="#000000" points="624.5,-441.2 624.5,-460.2 669.5,-460.2 669.5,-441.2 624.5,-441.2"/>
<text text-anchor="start" x="650.9053" y="-447.3" font-family="Helvetica,sans-Serif" font-size="11.00" fill="#000000">1 &gt;</text>
</a>
</g>
</g>
<!-- act_ru_identitylink&#45;&gt;act_ru_task -->
<g id="edge3" class="edge">
<title>act_ru_identitylink:w&#45;&gt;act_ru_task:e</title>
<path fill="none" stroke="#000000" d="M719.9393,-435.685C623.9736,-457.4092 790.1075,-710.2 669.5,-710.2"/>
<polygon fill="#000000" stroke="#000000" points="726.5413,-435.0117 734.8653,-437.7814 730.5206,-434.6059 734.5,-434.2 734.5,-434.2 734.5,-434.2 730.5206,-434.6059 734.1347,-430.6186 726.5413,-435.0117 726.5413,-435.0117"/>
<ellipse fill="none" stroke="#000000" cx="723.3578" cy="-435.3364" rx="3.2" ry="3.2"/>
</g>
<!-- act_ru_task&#45;&gt;act_ru_execution -->
<g id="edge7" class="edge">
<title>act_ru_task:w&#45;&gt;act_ru_execution:e</title>
<path fill="none" stroke="#000000" d="M507.2555,-685.5092C463.6605,-666.016 520.2592,-547.2 457,-547.2"/>
<polygon fill="#000000" stroke="#000000" points="513.639,-686.715 520.8318,-691.7374 517.5695,-687.4575 521.5,-688.2 521.5,-688.2 521.5,-688.2 517.5695,-687.4575 522.1682,-684.6626 513.639,-686.715 513.639,-686.715"/>
<ellipse fill="none" stroke="#000000" cx="510.4946" cy="-686.121" rx="3.2" ry="3.2"/>
</g>
<!-- act_ru_task&#45;&gt;act_ru_execution -->
<g id="edge9" class="edge">
<title>act_ru_task:w&#45;&gt;act_ru_execution:e</title>
<path fill="none" stroke="#000000" d="M506.9776,-663.017C471.1374,-644.0927 511.2834,-547.2 457,-547.2"/>
<polygon fill="#000000" stroke="#000000" points="513.6855,-664.4872 520.7292,-669.7165 517.5927,-665.3436 521.5,-666.2 521.5,-666.2 521.5,-666.2 517.5927,-665.3436 522.2708,-662.6835 513.6855,-664.4872 513.6855,-664.4872"/>
<ellipse fill="none" stroke="#000000" cx="510.5597" cy="-663.8021" rx="3.2" ry="3.2"/>
</g>
<!-- act_ru_task&#45;&gt;act_re_procdef -->
<g id="edge8" class="edge">
<title>act_ru_task:w&#45;&gt;act_re_procdef:e</title>
<path fill="none" stroke="#000000" d="M506.8585,-644.34C414.0775,-646.0708 364.8681,-662.0876 297,-592.2 229.415,-522.6039 351.0122,-378.2 254,-378.2"/>
<polygon fill="#000000" stroke="#000000" points="513.5004,-644.2766 521.5345,-647.7998 517.5002,-644.2383 521.5,-644.2 521.5,-644.2 521.5,-644.2 517.5002,-644.2383 521.4655,-640.6002 513.5004,-644.2766 513.5004,-644.2766"/>
<ellipse fill="none" stroke="#000000" cx="510.3005" cy="-644.3072" rx="3.2" ry="3.2"/>
</g>
<!-- act_ru_incident -->
<g id="node5" class="node">
<title>act_ru_incident</title>
<g id="a_node5"><a xlink:href="../../tables/act_ru_incident.html" xlink:title="act_ru_incident" target="_top">
<polygon fill="#ffffff" stroke="transparent" points="506,-161.7 506,-420.7 685,-420.7 685,-161.7 506,-161.7"/>
<polygon fill="#f5f5f5" stroke="transparent" points="506.5,-397.2 506.5,-420.2 685.5,-420.2 685.5,-397.2 506.5,-397.2"/>
<polygon fill="none" stroke="#000000" points="506.5,-397.2 506.5,-420.2 685.5,-420.2 685.5,-397.2 506.5,-397.2"/>
<text text-anchor="start" x="511.5" y="-405.8" font-family="Helvetica,sans-Serif" font-weight="bold" font-size="11.00" fill="#000000">act_ru_incident</text>
<text text-anchor="start" x="650.5437" y="-405.3" font-family="Helvetica,sans-Serif" font-size="11.00" fill="#000000">[table]</text>
<polygon fill="none" stroke="#000000" points="506.5,-375.2 506.5,-397.2 685.5,-397.2 685.5,-375.2 506.5,-375.2"/>
<image xlink:href="../../images/primaryKeys.png" width="11px" height="12px" preserveAspectRatio="xMinYMin meet" x="511.5" y="-392.2"/>
<text text-anchor="start" x="526.5" y="-382.3" font-family="Helvetica,sans-Serif" font-size="11.00" fill="#000000">id_</text>
<polygon fill="#ffffff" stroke="transparent" points="506.5,-353.2 506.5,-375.2 685.5,-375.2 685.5,-353.2 506.5,-353.2"/>
<polygon fill="none" stroke="#000000" points="506.5,-353.2 506.5,-375.2 685.5,-375.2 685.5,-353.2 506.5,-353.2"/>
<image xlink:href="../../images/foreignKeys.png" width="11px" height="12px" preserveAspectRatio="xMinYMin meet" x="511.5" y="-370.2"/>
<text text-anchor="start" x="526.5" y="-360.3" font-family="Helvetica,sans-Serif" font-size="11.00" fill="#000000">execution_id_</text>
<polygon fill="#ffffff" stroke="transparent" points="506.5,-331.2 506.5,-353.2 685.5,-353.2 685.5,-331.2 506.5,-331.2"/>
<polygon fill="none" stroke="#000000" points="506.5,-331.2 506.5,-353.2 685.5,-353.2 685.5,-331.2 506.5,-331.2"/>
<image xlink:href="../../images/foreignKeys.png" width="11px" height="12px" preserveAspectRatio="xMinYMin meet" x="511.5" y="-348.2"/>
<text text-anchor="start" x="526.5" y="-338.3" font-family="Helvetica,sans-Serif" font-size="11.00" fill="#000000">proc_inst_id_</text>
<polygon fill="#ffffff" stroke="transparent" points="506.5,-309.2 506.5,-331.2 685.5,-331.2 685.5,-309.2 506.5,-309.2"/>
<polygon fill="none" stroke="#000000" points="506.5,-309.2 506.5,-331.2 685.5,-331.2 685.5,-309.2 506.5,-309.2"/>
<image xlink:href="../../images/foreignKeys.png" width="11px" height="12px" preserveAspectRatio="xMinYMin meet" x="511.5" y="-326.2"/>
<text text-anchor="start" x="526.5" y="-316.3" font-family="Helvetica,sans-Serif" font-size="11.00" fill="#000000">proc_def_id_</text>
<polygon fill="#ffffff" stroke="transparent" points="506.5,-287.2 506.5,-309.2 685.5,-309.2 685.5,-287.2 506.5,-287.2"/>
<polygon fill="none" stroke="#000000" points="506.5,-287.2 506.5,-309.2 685.5,-309.2 685.5,-287.2 506.5,-287.2"/>
<image xlink:href="../../images/foreignKeys.png" width="11px" height="12px" preserveAspectRatio="xMinYMin meet" x="511.5" y="-304.2"/>
<text text-anchor="start" x="526.5" y="-294.3" font-family="Helvetica,sans-Serif" font-size="11.00" fill="#000000">cause_incident_id_</text>
<polygon fill="#ffffff" stroke="transparent" points="506.5,-265.2 506.5,-287.2 685.5,-287.2 685.5,-265.2 506.5,-265.2"/>
<polygon fill="none" stroke="#000000" points="506.5,-265.2 506.5,-287.2 685.5,-287.2 685.5,-265.2 506.5,-265.2"/>
<image xlink:href="../../images/foreignKeys.png" width="11px" height="12px" preserveAspectRatio="xMinYMin meet" x="511.5" y="-282.2"/>
<text text-anchor="start" x="526.5" y="-272.3" font-family="Helvetica,sans-Serif" font-size="11.00" fill="#000000">root_cause_incident_id_</text>
<polygon fill="#ffffff" stroke="transparent" points="506.5,-243.2 506.5,-265.2 685.5,-265.2 685.5,-243.2 506.5,-243.2"/>
<polygon fill="none" stroke="#000000" points="506.5,-243.2 506.5,-265.2 685.5,-265.2 685.5,-243.2 506.5,-243.2"/>
<text text-anchor="start" x="526.5" y="-250.3" font-family="Helvetica,sans-Serif" font-size="11.00" fill="#000000">configuration_</text>
<polygon fill="#ffffff" stroke="transparent" points="506.5,-221.2 506.5,-243.2 685.5,-243.2 685.5,-221.2 506.5,-221.2"/>
<polygon fill="none" stroke="#000000" points="506.5,-221.2 506.5,-243.2 685.5,-243.2 685.5,-221.2 506.5,-221.2"/>
<text text-anchor="start" x="526.5" y="-228.3" font-family="Helvetica,sans-Serif" font-size="11.00" fill="#000000">tenant_id_</text>
<polygon fill="#ffffff" stroke="transparent" points="506.5,-199.2 506.5,-221.2 685.5,-221.2 685.5,-199.2 506.5,-199.2"/>
<polygon fill="none" stroke="#000000" points="506.5,-199.2 506.5,-221.2 685.5,-221.2 685.5,-199.2 506.5,-199.2"/>
<image xlink:href="../../images/foreignKeys.png" width="11px" height="12px" preserveAspectRatio="xMinYMin meet" x="511.5" y="-216.2"/>
<text text-anchor="start" x="526.5" y="-206.3" font-family="Helvetica,sans-Serif" font-size="11.00" fill="#000000">job_def_id_</text>
<polygon fill="none" stroke="#000000" points="506.5,-180.2 506.5,-199.2 685.5,-199.2 685.5,-180.2 506.5,-180.2"/>
<text text-anchor="start" x="509.5" y="-186.3" font-family="Helvetica,sans-Serif" font-size="11.00" fill="#000000">...</text>
<polygon fill="#ffffff" stroke="transparent" points="506.5,-161.2 506.5,-180.2 589.5,-180.2 589.5,-161.2 506.5,-161.2"/>
<polygon fill="none" stroke="#000000" points="506.5,-161.2 506.5,-180.2 589.5,-180.2 589.5,-161.2 506.5,-161.2"/>
<text text-anchor="start" x="509.5" y="-167.3" font-family="Helvetica,sans-Serif" font-size="11.00" fill="#000000">&lt; 6</text>
<polygon fill="#ffffff" stroke="transparent" points="589.5,-161.2 589.5,-180.2 632.5,-180.2 632.5,-161.2 589.5,-161.2"/>
<polygon fill="none" stroke="#000000" points="589.5,-161.2 589.5,-180.2 632.5,-180.2 632.5,-161.2 589.5,-161.2"/>
<text text-anchor="start" x="623.3862" y="-167.3" font-family="Helvetica,sans-Serif" font-size="11.00" fill="#000000"> &#160;</text>
<polygon fill="#ffffff" stroke="transparent" points="632.5,-161.2 632.5,-180.2 685.5,-180.2 685.5,-161.2 632.5,-161.2"/>
<polygon fill="none" stroke="#000000" points="632.5,-161.2 632.5,-180.2 685.5,-180.2 685.5,-161.2 632.5,-161.2"/>
<text text-anchor="start" x="666.9053" y="-167.3" font-family="Helvetica,sans-Serif" font-size="11.00" fill="#000000">2 &gt;</text>
</a>
</g>
</g>
<!-- act_ru_incident&#45;&gt;act_ru_execution -->
<g id="edge4" class="edge">
<title>act_ru_incident:w&#45;&gt;act_ru_execution:e</title>
<path fill="none" stroke="#000000" d="M492.2846,-366.5138C437.1537,-387.6977 535.6611,-547.2 457,-547.2"/>
<polygon fill="#000000" stroke="#000000" points="498.6039,-365.4853 507.0784,-367.7532 502.552,-364.8426 506.5,-364.2 506.5,-364.2 506.5,-364.2 502.552,-364.8426 505.9216,-360.6468 498.6039,-365.4853 498.6039,-365.4853"/>
<ellipse fill="none" stroke="#000000" cx="495.4455" cy="-365.9994" rx="3.2" ry="3.2"/>
</g>
<!-- act_ru_incident&#45;&gt;act_ru_execution -->
<g id="edge6" class="edge">
<title>act_ru_incident:w&#45;&gt;act_ru_execution:e</title>
<path fill="none" stroke="#000000" d="M491.9201,-344.3635C428.6271,-366.2727 545.0545,-547.2 457,-547.2"/>
<polygon fill="#000000" stroke="#000000" points="498.5867,-343.3743 507.0284,-345.761 502.5433,-342.7872 506.5,-342.2 506.5,-342.2 506.5,-342.2 502.5433,-342.7872 505.9716,-338.639 498.5867,-343.3743 498.5867,-343.3743"/>
<ellipse fill="none" stroke="#000000" cx="495.4213" cy="-343.8441" rx="3.2" ry="3.2"/>
</g>
<!-- act_ru_incident&#45;&gt;act_re_procdef -->
<g id="edge5" class="edge">
<title>act_ru_incident:w&#45;&gt;act_re_procdef:e</title>
<path fill="none" stroke="#000000" d="M491.9811,-319.997C409.6513,-317.6935 377.2009,-297.2424 297,-334.2 272.1666,-345.6436 281.3433,-378.2 254,-378.2"/>
<polygon fill="#000000" stroke="#000000" points="498.5008,-320.0881 506.4496,-323.7996 502.5004,-320.144 506.5,-320.2 506.5,-320.2 506.5,-320.2 502.5004,-320.144 506.5504,-316.6004 498.5008,-320.0881 498.5008,-320.0881"/>
<ellipse fill="none" stroke="#000000" cx="495.3011" cy="-320.0433" rx="3.2" ry="3.2"/>
</g>
</g>
</svg>
