<?xml version="1.0" encoding="UTF-8" standalone="no"?>
<!DOCTYPE svg PUBLIC "-//W3C//DTD SVG 1.1//EN"
 "http://www.w3.org/Graphics/SVG/1.1/DTD/svg11.dtd">
<!-- Generated by graphviz version 2.40.1 (20161225.0304)
 -->
<!-- Title: twoDegreesRelationshipsDiagram Pages: 1 -->
<svg width="897pt" height="842pt"
 viewBox="0.00 0.00 897.00 841.70" xmlns="http://www.w3.org/2000/svg" xmlns:xlink="http://www.w3.org/1999/xlink">
<g id="graph0" class="graph" transform="scale(1 1) rotate(0) translate(4 837.7)">
<title>twoDegreesRelationshipsDiagram</title>
<polygon fill="#ffffff" stroke="transparent" points="-4,4 -4,-837.7 893,-837.7 893,4 -4,4"/>
<text text-anchor="middle" x="72.4936" y="-7.3" font-family="Helvetica,sans-Serif" font-size="11.00" fill="#000000">Generated by SchemaSpy</text>
<!-- act_ru_batch -->
<g id="node1" class="node">
<title>act_ru_batch</title>
<g id="a_node1"><a xlink:href="../../tables/act_ru_batch.html" xlink:title="act_ru_batch" target="_top">
<polygon fill="#ffffff" stroke="transparent" points="215,-333.7 215,-394.7 339,-394.7 339,-333.7 215,-333.7"/>
<polygon fill="#f5f5f5" stroke="transparent" points="215,-371.2 215,-394.2 339,-394.2 339,-371.2 215,-371.2"/>
<polygon fill="none" stroke="#000000" points="215,-371.2 215,-394.2 339,-394.2 339,-371.2 215,-371.2"/>
<text text-anchor="start" x="220" y="-379.8" font-family="Helvetica,sans-Serif" font-weight="bold" font-size="11.00" fill="#000000">act_ru_batch</text>
<text text-anchor="start" x="304.5219" y="-379.3" font-family="Helvetica,sans-Serif" font-size="11.00" fill="#000000">[table]</text>
<polygon fill="none" stroke="#000000" points="215,-352.2 215,-371.2 339,-371.2 339,-352.2 215,-352.2"/>
<text text-anchor="start" x="218" y="-358.3" font-family="Helvetica,sans-Serif" font-size="11.00" fill="#000000">...</text>
<polygon fill="#ffffff" stroke="transparent" points="215,-333.2 215,-352.2 271,-352.2 271,-333.2 215,-333.2"/>
<polygon fill="none" stroke="#000000" points="215,-333.2 215,-352.2 271,-352.2 271,-333.2 215,-333.2"/>
<text text-anchor="start" x="218" y="-339.3" font-family="Helvetica,sans-Serif" font-size="11.00" fill="#000000">&lt; 3</text>
<polygon fill="#ffffff" stroke="transparent" points="271,-333.2 271,-352.2 300,-352.2 300,-333.2 271,-333.2"/>
<polygon fill="none" stroke="#000000" points="271,-333.2 271,-352.2 300,-352.2 300,-333.2 271,-333.2"/>
<text text-anchor="start" x="290.8862" y="-339.3" font-family="Helvetica,sans-Serif" font-size="11.00" fill="#000000"> &#160;</text>
<polygon fill="#ffffff" stroke="transparent" points="300,-333.2 300,-352.2 339,-352.2 339,-333.2 300,-333.2"/>
<polygon fill="none" stroke="#000000" points="300,-333.2 300,-352.2 339,-352.2 339,-333.2 300,-333.2"/>
<text text-anchor="start" x="320.4053" y="-339.3" font-family="Helvetica,sans-Serif" font-size="11.00" fill="#000000">1 &gt;</text>
</a>
</g>
</g>
<!-- act_ru_jobdef -->
<g id="node2" class="node">
<title>act_ru_jobdef</title>
<g id="a_node2"><a xlink:href="../../tables/act_ru_jobdef.html" xlink:title="act_ru_jobdef" target="_top">
<polygon fill="#ffffff" stroke="transparent" points="8,-268.7 8,-395.7 152,-395.7 152,-268.7 8,-268.7"/>
<polygon fill="#f5f5f5" stroke="transparent" points="8,-372.2 8,-395.2 152,-395.2 152,-372.2 8,-372.2"/>
<polygon fill="none" stroke="#000000" points="8,-372.2 8,-395.2 152,-395.2 152,-372.2 8,-372.2"/>
<text text-anchor="start" x="13" y="-380.8" font-family="Helvetica,sans-Serif" font-weight="bold" font-size="11.00" fill="#000000">act_ru_jobdef</text>
<text text-anchor="start" x="117.0437" y="-380.3" font-family="Helvetica,sans-Serif" font-size="11.00" fill="#000000">[table]</text>
<polygon fill="none" stroke="#000000" points="8,-350.2 8,-372.2 152,-372.2 152,-350.2 8,-350.2"/>
<image xlink:href="../../images/primaryKeys.png" width="11px" height="12px" preserveAspectRatio="xMinYMin meet" x="13" y="-367.2"/>
<text text-anchor="start" x="28" y="-357.3" font-family="Helvetica,sans-Serif" font-size="11.00" fill="#000000">id_</text>
<polygon fill="#ffffff" stroke="transparent" points="8,-328.2 8,-350.2 152,-350.2 152,-328.2 8,-328.2"/>
<polygon fill="none" stroke="#000000" points="8,-328.2 8,-350.2 152,-350.2 152,-328.2 8,-328.2"/>
<text text-anchor="start" x="28" y="-335.3" font-family="Helvetica,sans-Serif" font-size="11.00" fill="#000000">proc_def_id_</text>
<polygon fill="#ffffff" stroke="transparent" points="8,-306.2 8,-328.2 152,-328.2 152,-306.2 8,-306.2"/>
<polygon fill="none" stroke="#000000" points="8,-306.2 8,-328.2 152,-328.2 152,-306.2 8,-306.2"/>
<text text-anchor="start" x="28" y="-313.3" font-family="Helvetica,sans-Serif" font-size="11.00" fill="#000000">tenant_id_</text>
<polygon fill="none" stroke="#000000" points="8,-287.2 8,-306.2 152,-306.2 152,-287.2 8,-287.2"/>
<text text-anchor="start" x="11" y="-293.3" font-family="Helvetica,sans-Serif" font-size="11.00" fill="#000000">...</text>
<polygon fill="#ffffff" stroke="transparent" points="8,-268.2 8,-287.2 69,-287.2 69,-268.2 8,-268.2"/>
<polygon fill="none" stroke="#000000" points="8,-268.2 8,-287.2 69,-287.2 69,-268.2 8,-268.2"/>
<text text-anchor="start" x="11" y="-274.3" font-family="Helvetica,sans-Serif" font-size="11.00" fill="#000000"> &#160;</text>
<polygon fill="#ffffff" stroke="transparent" points="69,-268.2 69,-287.2 106,-287.2 106,-268.2 69,-268.2"/>
<polygon fill="none" stroke="#000000" points="69,-268.2 69,-287.2 106,-287.2 106,-268.2 69,-268.2"/>
<text text-anchor="start" x="96.8862" y="-274.3" font-family="Helvetica,sans-Serif" font-size="11.00" fill="#000000"> &#160;</text>
<polygon fill="#ffffff" stroke="transparent" points="106,-268.2 106,-287.2 152,-287.2 152,-268.2 106,-268.2"/>
<polygon fill="none" stroke="#000000" points="106,-268.2 106,-287.2 152,-287.2 152,-268.2 106,-268.2"/>
<text text-anchor="start" x="133.4053" y="-274.3" font-family="Helvetica,sans-Serif" font-size="11.00" fill="#000000">4 &gt;</text>
</a>
</g>
</g>
<!-- act_ru_batch&#45;&gt;act_ru_jobdef -->
<g id="edge1" class="edge">
<title>act_ru_batch:w&#45;&gt;act_ru_jobdef:e</title>
<path fill="none" stroke="#000000" d="M201.6967,-355.4514C183.8063,-348.6197 174.9688,-350.5359 152,-361.2"/>
<polygon fill="#000000" stroke="#000000" points="207.6563,-358.0266 213.572,-364.5047 211.3281,-359.6133 215,-361.2 215,-361.2 215,-361.2 211.3281,-359.6133 216.428,-357.8953 207.6563,-358.0266 207.6563,-358.0266"/>
<ellipse fill="none" stroke="#000000" cx="204.7188" cy="-356.7573" rx="3.2" ry="3.2"/>
</g>
<!-- act_ru_batch&#45;&gt;act_ru_jobdef -->
<g id="edge2" class="edge">
<title>act_ru_batch:w&#45;&gt;act_ru_jobdef:e</title>
<path fill="none" stroke="#000000" d="M200.1849,-361.2C183.2898,-361.2 174.3125,-361.2 152,-361.2"/>
<polygon fill="#000000" stroke="#000000" points="207,-361.2001 215,-364.8 211,-361.2 215,-361.2 215,-361.2 215,-361.2 211,-361.2 215,-357.6 207,-361.2001 207,-361.2001"/>
<ellipse fill="none" stroke="#000000" cx="203.8" cy="-361.2001" rx="3.2" ry="3.2"/>
</g>
<!-- act_ru_batch&#45;&gt;act_ru_jobdef -->
<g id="edge3" class="edge">
<title>act_ru_batch:w&#45;&gt;act_ru_jobdef:e</title>
<path fill="none" stroke="#000000" d="M201.6967,-366.9486C183.8063,-373.7803 174.9688,-371.8641 152,-361.2"/>
<polygon fill="#000000" stroke="#000000" points="207.6563,-364.3734 216.428,-364.5047 211.3281,-362.7867 215,-361.2 215,-361.2 215,-361.2 211.3281,-362.7867 213.572,-357.8953 207.6563,-364.3734 207.6563,-364.3734"/>
<ellipse fill="none" stroke="#000000" cx="204.7188" cy="-365.6427" rx="3.2" ry="3.2"/>
</g>
<!-- act_ru_event_subscr -->
<g id="node3" class="node">
<title>act_ru_event_subscr</title>
<g id="a_node3"><a xlink:href="../../tables/act_ru_event_subscr.html" xlink:title="act_ru_event_subscr" target="_top">
<polygon fill="#ffffff" stroke="transparent" points="448,-575.7 448,-636.7 623,-636.7 623,-575.7 448,-575.7"/>
<polygon fill="#f5f5f5" stroke="transparent" points="448.5,-613.2 448.5,-636.2 623.5,-636.2 623.5,-613.2 448.5,-613.2"/>
<polygon fill="none" stroke="#000000" points="448.5,-613.2 448.5,-636.2 623.5,-636.2 623.5,-613.2 448.5,-613.2"/>
<text text-anchor="start" x="453.5" y="-621.8" font-family="Helvetica,sans-Serif" font-weight="bold" font-size="11.00" fill="#000000">act_ru_event_subscr</text>
<text text-anchor="start" x="589.0219" y="-621.3" font-family="Helvetica,sans-Serif" font-size="11.00" fill="#000000">[table]</text>
<polygon fill="none" stroke="#000000" points="448.5,-594.2 448.5,-613.2 623.5,-613.2 623.5,-594.2 448.5,-594.2"/>
<text text-anchor="start" x="451.5" y="-600.3" font-family="Helvetica,sans-Serif" font-size="11.00" fill="#000000">...</text>
<polygon fill="#ffffff" stroke="transparent" points="448.5,-575.2 448.5,-594.2 534.5,-594.2 534.5,-575.2 448.5,-575.2"/>
<polygon fill="none" stroke="#000000" points="448.5,-575.2 448.5,-594.2 534.5,-594.2 534.5,-575.2 448.5,-575.2"/>
<text text-anchor="start" x="451.5" y="-581.3" font-family="Helvetica,sans-Serif" font-size="11.00" fill="#000000">&lt; 1</text>
<polygon fill="#ffffff" stroke="transparent" points="534.5,-575.2 534.5,-594.2 578.5,-594.2 578.5,-575.2 534.5,-575.2"/>
<polygon fill="none" stroke="#000000" points="534.5,-575.2 534.5,-594.2 578.5,-594.2 578.5,-575.2 534.5,-575.2"/>
<text text-anchor="start" x="569.3862" y="-581.3" font-family="Helvetica,sans-Serif" font-size="11.00" fill="#000000"> &#160;</text>
<polygon fill="#ffffff" stroke="transparent" points="578.5,-575.2 578.5,-594.2 623.5,-594.2 623.5,-575.2 578.5,-575.2"/>
<polygon fill="none" stroke="#000000" points="578.5,-575.2 578.5,-594.2 623.5,-594.2 623.5,-575.2 578.5,-575.2"/>
<text text-anchor="start" x="614.3862" y="-581.3" font-family="Helvetica,sans-Serif" font-size="11.00" fill="#000000"> &#160;</text>
</a>
</g>
</g>
<!-- act_ru_execution -->
<g id="node4" class="node">
<title>act_ru_execution</title>
<g id="a_node4"><a xlink:href="../../tables/act_ru_execution.html" xlink:title="act_ru_execution" target="_top">
<polygon fill="#ffffff" stroke="transparent" points="201,-572.7 201,-633.7 353,-633.7 353,-572.7 201,-572.7"/>
<polygon fill="#f5f5f5" stroke="transparent" points="201,-610.2 201,-633.2 353,-633.2 353,-610.2 201,-610.2"/>
<polygon fill="none" stroke="#000000" points="201,-610.2 201,-633.2 353,-633.2 353,-610.2 201,-610.2"/>
<text text-anchor="start" x="206" y="-618.8" font-family="Helvetica,sans-Serif" font-weight="bold" font-size="11.00" fill="#000000">act_ru_execution</text>
<text text-anchor="start" x="318.5219" y="-618.3" font-family="Helvetica,sans-Serif" font-size="11.00" fill="#000000">[table]</text>
<polygon fill="none" stroke="#000000" points="201,-591.2 201,-610.2 353,-610.2 353,-591.2 201,-591.2"/>
<text text-anchor="start" x="204" y="-597.3" font-family="Helvetica,sans-Serif" font-size="11.00" fill="#000000">...</text>
<polygon fill="#ffffff" stroke="transparent" points="201,-572.2 201,-591.2 268,-591.2 268,-572.2 201,-572.2"/>
<polygon fill="none" stroke="#000000" points="201,-572.2 201,-591.2 268,-591.2 268,-572.2 201,-572.2"/>
<text text-anchor="start" x="204" y="-578.3" font-family="Helvetica,sans-Serif" font-size="11.00" fill="#000000">&lt; 4</text>
<polygon fill="#ffffff" stroke="transparent" points="268,-572.2 268,-591.2 303,-591.2 303,-572.2 268,-572.2"/>
<polygon fill="none" stroke="#000000" points="268,-572.2 268,-591.2 303,-591.2 303,-572.2 268,-572.2"/>
<text text-anchor="start" x="293.8862" y="-578.3" font-family="Helvetica,sans-Serif" font-size="11.00" fill="#000000"> &#160;</text>
<polygon fill="#ffffff" stroke="transparent" points="303,-572.2 303,-591.2 353,-591.2 353,-572.2 303,-572.2"/>
<polygon fill="none" stroke="#000000" points="303,-572.2 303,-591.2 353,-591.2 353,-572.2 303,-572.2"/>
<text text-anchor="start" x="328.2904" y="-578.3" font-family="Helvetica,sans-Serif" font-size="11.00" fill="#000000">11 &gt;</text>
</a>
</g>
</g>
<!-- act_ru_event_subscr&#45;&gt;act_ru_execution -->
<g id="edge4" class="edge">
<title>act_ru_event_subscr:w&#45;&gt;act_ru_execution:e</title>
<path fill="none" stroke="#000000" d="M433.9754,-603.2C409.7151,-603.2 384.3093,-603.2 361.1767,-603.2"/>
<polygon fill="#000000" stroke="#000000" points="440.5,-603.2001 448.5,-606.8 444.5,-603.2 448.5,-603.2 448.5,-603.2 448.5,-603.2 444.5,-603.2 448.5,-599.6 440.5,-603.2001 440.5,-603.2001"/>
<ellipse fill="none" stroke="#000000" cx="437.3" cy="-603.2001" rx="3.2" ry="3.2"/>
</g>
<!-- act_re_procdef -->
<g id="node5" class="node">
<title>act_re_procdef</title>
<g id="a_node5"><a xlink:href="../../tables/act_re_procdef.html" xlink:title="act_re_procdef" target="_top">
<polygon fill="#ffffff" stroke="transparent" points="11.5,-627.7 11.5,-688.7 148.5,-688.7 148.5,-627.7 11.5,-627.7"/>
<polygon fill="#f5f5f5" stroke="transparent" points="12,-665.2 12,-688.2 149,-688.2 149,-665.2 12,-665.2"/>
<polygon fill="none" stroke="#000000" points="12,-665.2 12,-688.2 149,-688.2 149,-665.2 12,-665.2"/>
<text text-anchor="start" x="17" y="-673.8" font-family="Helvetica,sans-Serif" font-weight="bold" font-size="11.00" fill="#000000">act_re_procdef</text>
<text text-anchor="start" x="114.5219" y="-673.3" font-family="Helvetica,sans-Serif" font-size="11.00" fill="#000000">[table]</text>
<polygon fill="none" stroke="#000000" points="12,-646.2 12,-665.2 149,-665.2 149,-646.2 12,-646.2"/>
<text text-anchor="start" x="15" y="-652.3" font-family="Helvetica,sans-Serif" font-size="11.00" fill="#000000">...</text>
<polygon fill="#ffffff" stroke="transparent" points="12,-627.2 12,-646.2 70,-646.2 70,-627.2 12,-627.2"/>
<polygon fill="none" stroke="#000000" points="12,-627.2 12,-646.2 70,-646.2 70,-627.2 12,-627.2"/>
<text text-anchor="start" x="15" y="-633.3" font-family="Helvetica,sans-Serif" font-size="11.00" fill="#000000"> &#160;</text>
<polygon fill="#ffffff" stroke="transparent" points="70,-627.2 70,-646.2 105,-646.2 105,-627.2 70,-627.2"/>
<polygon fill="none" stroke="#000000" points="70,-627.2 70,-646.2 105,-646.2 105,-627.2 70,-627.2"/>
<text text-anchor="start" x="95.8862" y="-633.3" font-family="Helvetica,sans-Serif" font-size="11.00" fill="#000000"> &#160;</text>
<polygon fill="#ffffff" stroke="transparent" points="105,-627.2 105,-646.2 149,-646.2 149,-627.2 105,-627.2"/>
<polygon fill="none" stroke="#000000" points="105,-627.2 105,-646.2 149,-646.2 149,-627.2 105,-627.2"/>
<text text-anchor="start" x="130.4053" y="-633.3" font-family="Helvetica,sans-Serif" font-size="11.00" fill="#000000">4 &gt;</text>
</a>
</g>
</g>
<!-- act_ru_execution&#45;&gt;act_re_procdef -->
<g id="edge5" class="edge">
<title>act_ru_execution:w&#45;&gt;act_re_procdef:e</title>
<path fill="none" stroke="#000000" d="M178.9841,-630.5649C171.4901,-632.6571 163.9923,-634.7504 156.6644,-636.7962"/>
<polygon fill="#000000" stroke="#000000" points="185.1775,-628.8358 193.8509,-630.1519 189.0302,-627.7601 192.8828,-626.6845 192.8828,-626.6845 192.8828,-626.6845 189.0302,-627.7601 191.9148,-623.2171 185.1775,-628.8358 185.1775,-628.8358"/>
<ellipse fill="none" stroke="#000000" cx="182.0954" cy="-629.6963" rx="3.2" ry="3.2"/>
</g>
<!-- act_ru_ext_task -->
<g id="node6" class="node">
<title>act_ru_ext_task</title>
<g id="a_node6"><a xlink:href="../../tables/act_ru_ext_task.html" xlink:title="act_ru_ext_task" target="_top">
<polygon fill="#ffffff" stroke="transparent" points="464.5,-657.7 464.5,-718.7 606.5,-718.7 606.5,-657.7 464.5,-657.7"/>
<polygon fill="#f5f5f5" stroke="transparent" points="464.5,-695.2 464.5,-718.2 606.5,-718.2 606.5,-695.2 464.5,-695.2"/>
<polygon fill="none" stroke="#000000" points="464.5,-695.2 464.5,-718.2 606.5,-718.2 606.5,-695.2 464.5,-695.2"/>
<text text-anchor="start" x="469.5" y="-703.8" font-family="Helvetica,sans-Serif" font-weight="bold" font-size="11.00" fill="#000000">act_ru_ext_task</text>
<text text-anchor="start" x="572.0219" y="-703.3" font-family="Helvetica,sans-Serif" font-size="11.00" fill="#000000">[table]</text>
<polygon fill="none" stroke="#000000" points="464.5,-676.2 464.5,-695.2 606.5,-695.2 606.5,-676.2 464.5,-676.2"/>
<text text-anchor="start" x="467.5" y="-682.3" font-family="Helvetica,sans-Serif" font-size="11.00" fill="#000000">...</text>
<polygon fill="#ffffff" stroke="transparent" points="464.5,-657.2 464.5,-676.2 533.5,-676.2 533.5,-657.2 464.5,-657.2"/>
<polygon fill="none" stroke="#000000" points="464.5,-657.2 464.5,-676.2 533.5,-676.2 533.5,-657.2 464.5,-657.2"/>
<text text-anchor="start" x="467.5" y="-663.3" font-family="Helvetica,sans-Serif" font-size="11.00" fill="#000000">&lt; 2</text>
<polygon fill="#ffffff" stroke="transparent" points="533.5,-657.2 533.5,-676.2 569.5,-676.2 569.5,-657.2 533.5,-657.2"/>
<polygon fill="none" stroke="#000000" points="533.5,-657.2 533.5,-676.2 569.5,-676.2 569.5,-657.2 533.5,-657.2"/>
<text text-anchor="start" x="560.3862" y="-663.3" font-family="Helvetica,sans-Serif" font-size="11.00" fill="#000000"> &#160;</text>
<polygon fill="#ffffff" stroke="transparent" points="569.5,-657.2 569.5,-676.2 606.5,-676.2 606.5,-657.2 569.5,-657.2"/>
<polygon fill="none" stroke="#000000" points="569.5,-657.2 569.5,-676.2 606.5,-676.2 606.5,-657.2 569.5,-657.2"/>
<text text-anchor="start" x="597.3862" y="-663.3" font-family="Helvetica,sans-Serif" font-size="11.00" fill="#000000"> &#160;</text>
</a>
</g>
</g>
<!-- act_ru_ext_task&#45;&gt;act_ru_execution -->
<g id="edge6" class="edge">
<title>act_ru_ext_task:w&#45;&gt;act_ru_execution:e</title>
<path fill="none" stroke="#000000" d="M450.0342,-684.5359C404.4192,-680.429 358.7571,-658.003 325.8024,-637.7377"/>
<polygon fill="#000000" stroke="#000000" points="456.5084,-684.8331 464.3349,-688.7962 460.5042,-685.0165 464.5,-685.2 464.5,-685.2 464.5,-685.2 460.5042,-685.0165 464.6651,-681.6038 456.5084,-684.8331 456.5084,-684.8331"/>
<ellipse fill="none" stroke="#000000" cx="453.3118" cy="-684.6863" rx="3.2" ry="3.2"/>
</g>
<!-- act_ru_identitylink -->
<g id="node7" class="node">
<title>act_ru_identitylink</title>
<g id="a_node7"><a xlink:href="../../tables/act_ru_identitylink.html" xlink:title="act_ru_identitylink" target="_top">
<polygon fill="#ffffff" stroke="transparent" points="718,-768.7 718,-829.7 881,-829.7 881,-768.7 718,-768.7"/>
<polygon fill="#f5f5f5" stroke="transparent" points="718.5,-806.2 718.5,-829.2 881.5,-829.2 881.5,-806.2 718.5,-806.2"/>
<polygon fill="none" stroke="#000000" points="718.5,-806.2 718.5,-829.2 881.5,-829.2 881.5,-806.2 718.5,-806.2"/>
<text text-anchor="start" x="723.5" y="-814.8" font-family="Helvetica,sans-Serif" font-weight="bold" font-size="11.00" fill="#000000">act_ru_identitylink</text>
<text text-anchor="start" x="847.0219" y="-814.3" font-family="Helvetica,sans-Serif" font-size="11.00" fill="#000000">[table]</text>
<polygon fill="none" stroke="#000000" points="718.5,-787.2 718.5,-806.2 881.5,-806.2 881.5,-787.2 718.5,-787.2"/>
<text text-anchor="start" x="721.5" y="-793.3" font-family="Helvetica,sans-Serif" font-size="11.00" fill="#000000">...</text>
<polygon fill="#ffffff" stroke="transparent" points="718.5,-768.2 718.5,-787.2 798.5,-787.2 798.5,-768.2 718.5,-768.2"/>
<polygon fill="none" stroke="#000000" points="718.5,-768.2 718.5,-787.2 798.5,-787.2 798.5,-768.2 718.5,-768.2"/>
<text text-anchor="start" x="721.5" y="-774.3" font-family="Helvetica,sans-Serif" font-size="11.00" fill="#000000">&lt; 2</text>
<polygon fill="#ffffff" stroke="transparent" points="798.5,-768.2 798.5,-787.2 839.5,-787.2 839.5,-768.2 798.5,-768.2"/>
<polygon fill="none" stroke="#000000" points="798.5,-768.2 798.5,-787.2 839.5,-787.2 839.5,-768.2 798.5,-768.2"/>
<text text-anchor="start" x="830.3862" y="-774.3" font-family="Helvetica,sans-Serif" font-size="11.00" fill="#000000"> &#160;</text>
<polygon fill="#ffffff" stroke="transparent" points="839.5,-768.2 839.5,-787.2 881.5,-787.2 881.5,-768.2 839.5,-768.2"/>
<polygon fill="none" stroke="#000000" points="839.5,-768.2 839.5,-787.2 881.5,-787.2 881.5,-768.2 839.5,-768.2"/>
<text text-anchor="start" x="872.3862" y="-774.3" font-family="Helvetica,sans-Serif" font-size="11.00" fill="#000000"> &#160;</text>
</a>
</g>
</g>
<!-- act_ru_identitylink&#45;&gt;act_re_procdef -->
<g id="edge7" class="edge">
<title>act_ru_identitylink:w&#45;&gt;act_re_procdef:e</title>
<path fill="none" stroke="#000000" d="M704.0752,-798.9974C695.6461,-802.6561 690.2812,-808.8734 677,-811.2 553.1088,-832.9029 518.0162,-832.177 394,-811.2 300.7292,-795.4235 276.7164,-785.2443 193,-741.2 167.5804,-727.8264 141.5861,-709.1471 120.9477,-692.8948"/>
<polygon fill="#000000" stroke="#000000" points="710.6463,-797.7231 719.1854,-799.7342 714.5732,-796.9616 718.5,-796.2 718.5,-796.2 718.5,-796.2 714.5732,-796.9616 717.8146,-792.6658 710.6463,-797.7231 710.6463,-797.7231"/>
<ellipse fill="none" stroke="#000000" cx="707.5048" cy="-798.3323" rx="3.2" ry="3.2"/>
</g>
<!-- act_ru_task -->
<g id="node8" class="node">
<title>act_ru_task</title>
<g id="a_node8"><a xlink:href="../../tables/act_ru_task.html" xlink:title="act_ru_task" target="_top">
<polygon fill="#ffffff" stroke="transparent" points="478,-739.7 478,-800.7 593,-800.7 593,-739.7 478,-739.7"/>
<polygon fill="#f5f5f5" stroke="transparent" points="478.5,-777.2 478.5,-800.2 593.5,-800.2 593.5,-777.2 478.5,-777.2"/>
<polygon fill="none" stroke="#000000" points="478.5,-777.2 478.5,-800.2 593.5,-800.2 593.5,-777.2 478.5,-777.2"/>
<text text-anchor="start" x="483.5" y="-785.8" font-family="Helvetica,sans-Serif" font-weight="bold" font-size="11.00" fill="#000000">act_ru_task</text>
<text text-anchor="start" x="559.0219" y="-785.3" font-family="Helvetica,sans-Serif" font-size="11.00" fill="#000000">[table]</text>
<polygon fill="none" stroke="#000000" points="478.5,-758.2 478.5,-777.2 593.5,-777.2 593.5,-758.2 478.5,-758.2"/>
<text text-anchor="start" x="481.5" y="-764.3" font-family="Helvetica,sans-Serif" font-size="11.00" fill="#000000">...</text>
<polygon fill="#ffffff" stroke="transparent" points="478.5,-739.2 478.5,-758.2 529.5,-758.2 529.5,-739.2 478.5,-739.2"/>
<polygon fill="none" stroke="#000000" points="478.5,-739.2 478.5,-758.2 529.5,-758.2 529.5,-739.2 478.5,-739.2"/>
<text text-anchor="start" x="481.5" y="-745.3" font-family="Helvetica,sans-Serif" font-size="11.00" fill="#000000">&lt; 5</text>
<polygon fill="#ffffff" stroke="transparent" points="529.5,-739.2 529.5,-758.2 556.5,-758.2 556.5,-739.2 529.5,-739.2"/>
<polygon fill="none" stroke="#000000" points="529.5,-739.2 529.5,-758.2 556.5,-758.2 556.5,-739.2 529.5,-739.2"/>
<text text-anchor="start" x="547.3862" y="-745.3" font-family="Helvetica,sans-Serif" font-size="11.00" fill="#000000"> &#160;</text>
<polygon fill="#ffffff" stroke="transparent" points="556.5,-739.2 556.5,-758.2 593.5,-758.2 593.5,-739.2 556.5,-739.2"/>
<polygon fill="none" stroke="#000000" points="556.5,-739.2 556.5,-758.2 593.5,-758.2 593.5,-739.2 556.5,-739.2"/>
<text text-anchor="start" x="574.9053" y="-745.3" font-family="Helvetica,sans-Serif" font-size="11.00" fill="#000000">1 &gt;</text>
</a>
</g>
</g>
<!-- act_ru_identitylink&#45;&gt;act_ru_task -->
<g id="edge8" class="edge">
<title>act_ru_identitylink:w&#45;&gt;act_ru_task:e</title>
<path fill="none" stroke="#000000" d="M703.8881,-795.5117C659.0724,-791.1202 645.2958,-767.2 593.5,-767.2"/>
<polygon fill="#000000" stroke="#000000" points="710.5089,-795.8235 718.3306,-799.796 714.5044,-796.0118 718.5,-796.2 718.5,-796.2 718.5,-796.2 714.5044,-796.0118 718.6694,-792.604 710.5089,-795.8235 710.5089,-795.8235"/>
<ellipse fill="none" stroke="#000000" cx="707.3124" cy="-795.673" rx="3.2" ry="3.2"/>
</g>
<!-- act_ru_task&#45;&gt;act_ru_execution -->
<g id="edge15" class="edge">
<title>act_ru_task:w&#45;&gt;act_ru_execution:e</title>
<path fill="none" stroke="#000000" d="M464.0188,-764.477C434.3857,-757.4267 423.1415,-744.1151 394,-723.2 360.2899,-699.006 328.6935,-663.9384 306.8537,-637.8986"/>
<polygon fill="#000000" stroke="#000000" points="470.6378,-765.7216 477.8347,-770.738 474.5689,-766.4608 478.5,-767.2 478.5,-767.2 478.5,-767.2 474.5689,-766.4608 479.1653,-763.662 470.6378,-765.7216 470.6378,-765.7216"/>
<ellipse fill="none" stroke="#000000" cx="467.4929" cy="-765.1302" rx="3.2" ry="3.2"/>
</g>
<!-- act_ru_task&#45;&gt;act_ru_execution -->
<g id="edge17" class="edge">
<title>act_ru_task:w&#45;&gt;act_ru_execution:e</title>
<path fill="none" stroke="#000000" d="M464.0188,-768.8842C434.3857,-770.4267 423.1415,-757.1151 394,-736.2 355.6821,-708.6989 320.0952,-667.1485 298.4642,-637.7209"/>
<polygon fill="#000000" stroke="#000000" points="470.5536,-768.1242 478.9159,-770.7759 474.5268,-767.6621 478.5,-767.2 478.5,-767.2 478.5,-767.2 474.5268,-767.6621 478.0841,-763.6241 470.5536,-768.1242 470.5536,-768.1242"/>
<ellipse fill="none" stroke="#000000" cx="467.375" cy="-768.4939" rx="3.2" ry="3.2"/>
</g>
<!-- act_ru_task&#45;&gt;act_re_procdef -->
<g id="edge16" class="edge">
<title>act_ru_task:w&#45;&gt;act_re_procdef:e</title>
<path fill="none" stroke="#000000" d="M463.9144,-766.9766C352.5685,-763.6099 232.257,-722.8788 156.5642,-692.2399"/>
<polygon fill="#000000" stroke="#000000" points="470.5009,-767.0775 478.4449,-770.7996 474.5005,-767.1387 478.5,-767.2 478.5,-767.2 478.5,-767.2 474.5005,-767.1387 478.5551,-763.6004 470.5009,-767.0775 470.5009,-767.0775"/>
<ellipse fill="none" stroke="#000000" cx="467.3013" cy="-767.0284" rx="3.2" ry="3.2"/>
</g>
<!-- act_ru_incident -->
<g id="node9" class="node">
<title>act_ru_incident</title>
<g id="a_node9"><a xlink:href="../../tables/act_ru_incident.html" xlink:title="act_ru_incident" target="_top">
<polygon fill="#ffffff" stroke="transparent" points="402,-38.2 402,-436.2 669,-436.2 669,-38.2 402,-38.2"/>
<polygon fill="#f5f5f5" stroke="transparent" points="404.5,-411.2 404.5,-434.2 667.5,-434.2 667.5,-411.2 404.5,-411.2"/>
<polygon fill="none" stroke="#000000" points="404.5,-411.2 404.5,-434.2 667.5,-434.2 667.5,-411.2 404.5,-411.2"/>
<text text-anchor="start" x="409.5" y="-419.8" font-family="Helvetica,sans-Serif" font-weight="bold" font-size="11.00" fill="#000000">act_ru_incident</text>
<text text-anchor="start" x="632.5437" y="-419.3" font-family="Helvetica,sans-Serif" font-size="11.00" fill="#000000">[table]</text>
<polygon fill="none" stroke="#000000" points="404.5,-389.2 404.5,-411.2 583.5,-411.2 583.5,-389.2 404.5,-389.2"/>
<image xlink:href="../../images/primaryKeys.png" width="11px" height="12px" preserveAspectRatio="xMinYMin meet" x="409.5" y="-406.2"/>
<text text-anchor="start" x="424.5" y="-396.3" font-family="Helvetica,sans-Serif" font-size="11.00" fill="#000000">id_</text>
<polygon fill="none" stroke="#000000" points="583.5,-389.2 583.5,-411.2 667.5,-411.2 667.5,-389.2 583.5,-389.2"/>
<text text-anchor="start" x="586.5" y="-396.9" font-family="Helvetica,sans-Serif" font-size="11.00" fill="#000000">varchar[64]</text>
<polygon fill="none" stroke="#000000" points="404.5,-367.2 404.5,-389.2 583.5,-389.2 583.5,-367.2 404.5,-367.2"/>
<text text-anchor="start" x="424.5" y="-374.3" font-family="Helvetica,sans-Serif" font-size="11.00" fill="#000000">rev_</text>
<polygon fill="none" stroke="#000000" points="583.5,-367.2 583.5,-389.2 667.5,-389.2 667.5,-367.2 583.5,-367.2"/>
<text text-anchor="start" x="586.5" y="-374.9" font-family="Helvetica,sans-Serif" font-size="11.00" fill="#000000">int4[10]</text>
<polygon fill="none" stroke="#000000" points="404.5,-345.2 404.5,-367.2 583.5,-367.2 583.5,-345.2 404.5,-345.2"/>
<text text-anchor="start" x="424.5" y="-352.3" font-family="Helvetica,sans-Serif" font-size="11.00" fill="#000000">incident_timestamp_</text>
<polygon fill="none" stroke="#000000" points="583.5,-345.2 583.5,-367.2 667.5,-367.2 667.5,-345.2 583.5,-345.2"/>
<text text-anchor="start" x="586.3807" y="-352.9" font-family="Helvetica,sans-Serif" font-size="11.00" fill="#000000">timestamp[29,6]</text>
<polygon fill="none" stroke="#000000" points="404.5,-323.2 404.5,-345.2 583.5,-345.2 583.5,-323.2 404.5,-323.2"/>
<text text-anchor="start" x="424.5" y="-330.3" font-family="Helvetica,sans-Serif" font-size="11.00" fill="#000000">incident_msg_</text>
<polygon fill="none" stroke="#000000" points="583.5,-323.2 583.5,-345.2 667.5,-345.2 667.5,-323.2 583.5,-323.2"/>
<text text-anchor="start" x="586.5" y="-330.9" font-family="Helvetica,sans-Serif" font-size="11.00" fill="#000000">varchar[4000]</text>
<polygon fill="none" stroke="#000000" points="404.5,-301.2 404.5,-323.2 583.5,-323.2 583.5,-301.2 404.5,-301.2"/>
<text text-anchor="start" x="424.5" y="-308.3" font-family="Helvetica,sans-Serif" font-size="11.00" fill="#000000">incident_type_</text>
<polygon fill="none" stroke="#000000" points="583.5,-301.2 583.5,-323.2 667.5,-323.2 667.5,-301.2 583.5,-301.2"/>
<text text-anchor="start" x="586.5" y="-308.9" font-family="Helvetica,sans-Serif" font-size="11.00" fill="#000000">varchar[255]</text>
<polygon fill="#ffffff" stroke="transparent" points="404.5,-279.2 404.5,-301.2 583.5,-301.2 583.5,-279.2 404.5,-279.2"/>
<polygon fill="none" stroke="#000000" points="404.5,-279.2 404.5,-301.2 583.5,-301.2 583.5,-279.2 404.5,-279.2"/>
<image xlink:href="../../images/foreignKeys.png" width="11px" height="12px" preserveAspectRatio="xMinYMin meet" x="409.5" y="-296.2"/>
<text text-anchor="start" x="424.5" y="-286.3" font-family="Helvetica,sans-Serif" font-size="11.00" fill="#000000">execution_id_</text>
<polygon fill="none" stroke="#000000" points="583.5,-279.2 583.5,-301.2 667.5,-301.2 667.5,-279.2 583.5,-279.2"/>
<text text-anchor="start" x="586.5" y="-286.9" font-family="Helvetica,sans-Serif" font-size="11.00" fill="#000000">varchar[64]</text>
<polygon fill="none" stroke="#000000" points="404.5,-257.2 404.5,-279.2 583.5,-279.2 583.5,-257.2 404.5,-257.2"/>
<text text-anchor="start" x="424.5" y="-264.3" font-family="Helvetica,sans-Serif" font-size="11.00" fill="#000000">activity_id_</text>
<polygon fill="none" stroke="#000000" points="583.5,-257.2 583.5,-279.2 667.5,-279.2 667.5,-257.2 583.5,-257.2"/>
<text text-anchor="start" x="586.5" y="-264.9" font-family="Helvetica,sans-Serif" font-size="11.00" fill="#000000">varchar[255]</text>
<polygon fill="none" stroke="#000000" points="404.5,-235.2 404.5,-257.2 583.5,-257.2 583.5,-235.2 404.5,-235.2"/>
<text text-anchor="start" x="424.5" y="-242.3" font-family="Helvetica,sans-Serif" font-size="11.00" fill="#000000">failed_activity_id_</text>
<polygon fill="none" stroke="#000000" points="583.5,-235.2 583.5,-257.2 667.5,-257.2 667.5,-235.2 583.5,-235.2"/>
<text text-anchor="start" x="586.5" y="-242.9" font-family="Helvetica,sans-Serif" font-size="11.00" fill="#000000">varchar[255]</text>
<polygon fill="#ffffff" stroke="transparent" points="404.5,-213.2 404.5,-235.2 583.5,-235.2 583.5,-213.2 404.5,-213.2"/>
<polygon fill="none" stroke="#000000" points="404.5,-213.2 404.5,-235.2 583.5,-235.2 583.5,-213.2 404.5,-213.2"/>
<image xlink:href="../../images/foreignKeys.png" width="11px" height="12px" preserveAspectRatio="xMinYMin meet" x="409.5" y="-230.2"/>
<text text-anchor="start" x="424.5" y="-220.3" font-family="Helvetica,sans-Serif" font-size="11.00" fill="#000000">proc_inst_id_</text>
<polygon fill="none" stroke="#000000" points="583.5,-213.2 583.5,-235.2 667.5,-235.2 667.5,-213.2 583.5,-213.2"/>
<text text-anchor="start" x="586.5" y="-220.9" font-family="Helvetica,sans-Serif" font-size="11.00" fill="#000000">varchar[64]</text>
<polygon fill="#ffffff" stroke="transparent" points="404.5,-191.2 404.5,-213.2 583.5,-213.2 583.5,-191.2 404.5,-191.2"/>
<polygon fill="none" stroke="#000000" points="404.5,-191.2 404.5,-213.2 583.5,-213.2 583.5,-191.2 404.5,-191.2"/>
<image xlink:href="../../images/foreignKeys.png" width="11px" height="12px" preserveAspectRatio="xMinYMin meet" x="409.5" y="-208.2"/>
<text text-anchor="start" x="424.5" y="-198.3" font-family="Helvetica,sans-Serif" font-size="11.00" fill="#000000">proc_def_id_</text>
<polygon fill="none" stroke="#000000" points="583.5,-191.2 583.5,-213.2 667.5,-213.2 667.5,-191.2 583.5,-191.2"/>
<text text-anchor="start" x="586.5" y="-198.9" font-family="Helvetica,sans-Serif" font-size="11.00" fill="#000000">varchar[64]</text>
<polygon fill="#ffffff" stroke="transparent" points="404.5,-169.2 404.5,-191.2 583.5,-191.2 583.5,-169.2 404.5,-169.2"/>
<polygon fill="none" stroke="#000000" points="404.5,-169.2 404.5,-191.2 583.5,-191.2 583.5,-169.2 404.5,-169.2"/>
<image xlink:href="../../images/foreignKeys.png" width="11px" height="12px" preserveAspectRatio="xMinYMin meet" x="409.5" y="-186.2"/>
<text text-anchor="start" x="424.5" y="-176.3" font-family="Helvetica,sans-Serif" font-size="11.00" fill="#000000">cause_incident_id_</text>
<polygon fill="none" stroke="#000000" points="583.5,-169.2 583.5,-191.2 667.5,-191.2 667.5,-169.2 583.5,-169.2"/>
<text text-anchor="start" x="586.5" y="-176.9" font-family="Helvetica,sans-Serif" font-size="11.00" fill="#000000">varchar[64]</text>
<polygon fill="#ffffff" stroke="transparent" points="404.5,-147.2 404.5,-169.2 583.5,-169.2 583.5,-147.2 404.5,-147.2"/>
<polygon fill="none" stroke="#000000" points="404.5,-147.2 404.5,-169.2 583.5,-169.2 583.5,-147.2 404.5,-147.2"/>
<image xlink:href="../../images/foreignKeys.png" width="11px" height="12px" preserveAspectRatio="xMinYMin meet" x="409.5" y="-164.2"/>
<text text-anchor="start" x="424.5" y="-154.3" font-family="Helvetica,sans-Serif" font-size="11.00" fill="#000000">root_cause_incident_id_</text>
<polygon fill="none" stroke="#000000" points="583.5,-147.2 583.5,-169.2 667.5,-169.2 667.5,-147.2 583.5,-147.2"/>
<text text-anchor="start" x="586.5" y="-154.9" font-family="Helvetica,sans-Serif" font-size="11.00" fill="#000000">varchar[64]</text>
<polygon fill="#ffffff" stroke="transparent" points="404.5,-125.2 404.5,-147.2 583.5,-147.2 583.5,-125.2 404.5,-125.2"/>
<polygon fill="none" stroke="#000000" points="404.5,-125.2 404.5,-147.2 583.5,-147.2 583.5,-125.2 404.5,-125.2"/>
<text text-anchor="start" x="424.5" y="-132.3" font-family="Helvetica,sans-Serif" font-size="11.00" fill="#000000">configuration_</text>
<polygon fill="none" stroke="#000000" points="583.5,-125.2 583.5,-147.2 667.5,-147.2 667.5,-125.2 583.5,-125.2"/>
<text text-anchor="start" x="586.5" y="-132.9" font-family="Helvetica,sans-Serif" font-size="11.00" fill="#000000">varchar[255]</text>
<polygon fill="#ffffff" stroke="transparent" points="404.5,-103.2 404.5,-125.2 583.5,-125.2 583.5,-103.2 404.5,-103.2"/>
<polygon fill="none" stroke="#000000" points="404.5,-103.2 404.5,-125.2 583.5,-125.2 583.5,-103.2 404.5,-103.2"/>
<text text-anchor="start" x="424.5" y="-110.3" font-family="Helvetica,sans-Serif" font-size="11.00" fill="#000000">tenant_id_</text>
<polygon fill="none" stroke="#000000" points="583.5,-103.2 583.5,-125.2 667.5,-125.2 667.5,-103.2 583.5,-103.2"/>
<text text-anchor="start" x="586.5" y="-110.9" font-family="Helvetica,sans-Serif" font-size="11.00" fill="#000000">varchar[64]</text>
<polygon fill="#ffffff" stroke="transparent" points="404.5,-81.2 404.5,-103.2 583.5,-103.2 583.5,-81.2 404.5,-81.2"/>
<polygon fill="none" stroke="#000000" points="404.5,-81.2 404.5,-103.2 583.5,-103.2 583.5,-81.2 404.5,-81.2"/>
<image xlink:href="../../images/foreignKeys.png" width="11px" height="12px" preserveAspectRatio="xMinYMin meet" x="409.5" y="-98.2"/>
<text text-anchor="start" x="424.5" y="-88.3" font-family="Helvetica,sans-Serif" font-size="11.00" fill="#000000">job_def_id_</text>
<polygon fill="none" stroke="#000000" points="583.5,-81.2 583.5,-103.2 667.5,-103.2 667.5,-81.2 583.5,-81.2"/>
<text text-anchor="start" x="586.5" y="-88.9" font-family="Helvetica,sans-Serif" font-size="11.00" fill="#000000">varchar[64]</text>
<polygon fill="none" stroke="#000000" points="404.5,-59.2 404.5,-81.2 583.5,-81.2 583.5,-59.2 404.5,-59.2"/>
<text text-anchor="start" x="424.5" y="-66.3" font-family="Helvetica,sans-Serif" font-size="11.00" fill="#000000">annotation_</text>
<polygon fill="none" stroke="#000000" points="583.5,-59.2 583.5,-81.2 667.5,-81.2 667.5,-59.2 583.5,-59.2"/>
<text text-anchor="start" x="586.5" y="-66.9" font-family="Helvetica,sans-Serif" font-size="11.00" fill="#000000">varchar[4000]</text>
<polygon fill="#ffffff" stroke="transparent" points="404.5,-40.2 404.5,-59.2 498.5,-59.2 498.5,-40.2 404.5,-40.2"/>
<polygon fill="none" stroke="#000000" points="404.5,-40.2 404.5,-59.2 498.5,-59.2 498.5,-40.2 404.5,-40.2"/>
<text text-anchor="start" x="407.5" y="-46.3" font-family="Helvetica,sans-Serif" font-size="11.00" fill="#000000">&lt; 6</text>
<polygon fill="#ffffff" stroke="transparent" points="498.5,-40.2 498.5,-59.2 583.5,-59.2 583.5,-40.2 498.5,-40.2"/>
<polygon fill="none" stroke="#000000" points="498.5,-40.2 498.5,-59.2 583.5,-59.2 583.5,-40.2 498.5,-40.2"/>
<text text-anchor="start" x="574.3862" y="-46.3" font-family="Helvetica,sans-Serif" font-size="11.00" fill="#000000"> &#160;</text>
<polygon fill="#ffffff" stroke="transparent" points="583.5,-40.2 583.5,-59.2 667.5,-59.2 667.5,-40.2 583.5,-40.2"/>
<polygon fill="none" stroke="#000000" points="583.5,-40.2 583.5,-59.2 667.5,-59.2 667.5,-40.2 583.5,-40.2"/>
<text text-anchor="start" x="648.9053" y="-46.3" font-family="Helvetica,sans-Serif" font-size="11.00" fill="#000000">2 &gt;</text>
<polygon fill="none" stroke="#000000" stroke-width="2" points="403,-39.2 403,-435.2 668,-435.2 668,-39.2 403,-39.2"/>
</a>
</g>
</g>
<!-- act_ru_incident&#45;&gt;act_ru_jobdef -->
<g id="edge11" class="edge">
<title>act_ru_incident:w&#45;&gt;act_ru_jobdef:e</title>
<path fill="none" stroke="#000000" d="M393.4439,-101.4596C345.3431,-148.7606 161.1074,-361.2 152,-361.2"/>
<polygon fill="#000000" stroke="#000000" points="398.3668,-97.3366 406.8115,-94.9599 401.4334,-94.7683 404.5,-92.2 404.5,-92.2 404.5,-92.2 401.4334,-94.7683 402.1885,-89.4401 398.3668,-97.3366 398.3668,-97.3366"/>
<ellipse fill="none" stroke="#000000" cx="395.9136" cy="-99.3912" rx="3.2" ry="3.2"/>
</g>
<!-- act_ru_incident&#45;&gt;act_ru_execution -->
<g id="edge10" class="edge">
<title>act_ru_incident:w&#45;&gt;act_ru_execution:e</title>
<path fill="none" stroke="#000000" d="M390.9542,-295.8297C359.4659,-326.6196 381.8972,-474.7211 361,-515.2 350.73,-535.0934 334.5633,-553.6 319.1438,-568.4575"/>
<polygon fill="#000000" stroke="#000000" points="397.1126,-293.2703 405.8816,-293.5243 400.8063,-291.7351 404.5,-290.2 404.5,-290.2 404.5,-290.2 400.8063,-291.7351 403.1184,-286.8757 397.1126,-293.2703 397.1126,-293.2703"/>
<ellipse fill="none" stroke="#000000" cx="394.1576" cy="-294.4984" rx="3.2" ry="3.2"/>
</g>
<!-- act_ru_incident&#45;&gt;act_ru_execution -->
<g id="edge13" class="edge">
<title>act_ru_incident:w&#45;&gt;act_ru_execution:e</title>
<path fill="none" stroke="#000000" d="M390.6434,-228.665C346.888,-261.1397 387.3916,-461.292 361,-515.2 351.156,-535.3076 335.0624,-553.851 319.5825,-568.6781"/>
<polygon fill="#000000" stroke="#000000" points="396.8855,-226.6536 405.6041,-227.6265 400.6928,-225.4268 404.5,-224.2 404.5,-224.2 404.5,-224.2 400.6928,-225.4268 403.3959,-220.7735 396.8855,-226.6536 396.8855,-226.6536"/>
<ellipse fill="none" stroke="#000000" cx="393.8398" cy="-227.6351" rx="3.2" ry="3.2"/>
</g>
<!-- act_ru_incident&#45;&gt;act_re_procdef -->
<g id="edge12" class="edge">
<title>act_ru_incident:w&#45;&gt;act_re_procdef:e</title>
<path fill="none" stroke="#000000" d="M390.1431,-203.4347C322.8745,-216.4808 404.4952,-330.0101 361,-405.2 353.0187,-418.9972 195.3609,-557.5236 119.7676,-623.549"/>
<polygon fill="#000000" stroke="#000000" points="396.5294,-202.8855 404.8085,-205.7868 400.5147,-202.5428 404.5,-202.2 404.5,-202.2 404.5,-202.2 400.5147,-202.5428 404.1915,-198.6132 396.5294,-202.8855 396.5294,-202.8855"/>
<ellipse fill="none" stroke="#000000" cx="393.3412" cy="-203.1598" rx="3.2" ry="3.2"/>
</g>
<!-- act_ru_incident&#45;&gt;act_ru_incident -->
<g id="edge9" class="edge">
<title>act_ru_incident:w&#45;&gt;act_ru_incident:e</title>
<path fill="none" stroke="#000000" d="M395.5284,-191.6311C340.4673,-271.3497 349.5703,-453.2 536,-453.2 732,-453.2 732,-444.5333 667.5,-400.2"/>
<polygon fill="#000000" stroke="#000000" points="399.5608,-186.4932 407.332,-182.4226 402.0304,-183.3466 404.5,-180.2 404.5,-180.2 404.5,-180.2 402.0304,-183.3466 401.668,-177.9774 399.5608,-186.4932 399.5608,-186.4932"/>
<ellipse fill="none" stroke="#000000" cx="397.5851" cy="-189.0105" rx="3.2" ry="3.2"/>
</g>
<!-- act_ru_incident&#45;&gt;act_ru_incident -->
<g id="edge14" class="edge">
<title>act_ru_incident:w&#45;&gt;act_ru_incident:e</title>
<path fill="none" stroke="#000000" d="M395.5284,-169.7834C340.4673,-251.4457 349.5703,-453.2 536,-453.2 732,-453.2 732,-444.5333 667.5,-400.2"/>
<polygon fill="#000000" stroke="#000000" points="399.6013,-164.5248 407.3462,-160.4044 402.0506,-161.3624 404.5,-158.2 404.5,-158.2 404.5,-158.2 402.0506,-161.3624 401.6538,-155.9956 399.6013,-164.5248 399.6013,-164.5248"/>
<ellipse fill="none" stroke="#000000" cx="397.6418" cy="-167.0547" rx="3.2" ry="3.2"/>
</g>
<!-- act_ru_variable -->
<g id="node10" class="node">
<title>act_ru_variable</title>
<g id="a_node10"><a xlink:href="../../tables/act_ru_variable.html" xlink:title="act_ru_variable" target="_top">
<polygon fill="#ffffff" stroke="transparent" points="465,-493.7 465,-554.7 606,-554.7 606,-493.7 465,-493.7"/>
<polygon fill="#f5f5f5" stroke="transparent" points="465.5,-531.2 465.5,-554.2 606.5,-554.2 606.5,-531.2 465.5,-531.2"/>
<polygon fill="none" stroke="#000000" points="465.5,-531.2 465.5,-554.2 606.5,-554.2 606.5,-531.2 465.5,-531.2"/>
<text text-anchor="start" x="470.5" y="-539.8" font-family="Helvetica,sans-Serif" font-weight="bold" font-size="11.00" fill="#000000">act_ru_variable</text>
<text text-anchor="start" x="572.0219" y="-539.3" font-family="Helvetica,sans-Serif" font-size="11.00" fill="#000000">[table]</text>
<polygon fill="none" stroke="#000000" points="465.5,-512.2 465.5,-531.2 606.5,-531.2 606.5,-512.2 465.5,-512.2"/>
<text text-anchor="start" x="468.5" y="-518.3" font-family="Helvetica,sans-Serif" font-size="11.00" fill="#000000">...</text>
<polygon fill="#ffffff" stroke="transparent" points="465.5,-493.2 465.5,-512.2 534.5,-512.2 534.5,-493.2 465.5,-493.2"/>
<polygon fill="none" stroke="#000000" points="465.5,-493.2 465.5,-512.2 534.5,-512.2 534.5,-493.2 465.5,-493.2"/>
<text text-anchor="start" x="468.5" y="-499.3" font-family="Helvetica,sans-Serif" font-size="11.00" fill="#000000">&lt; 6</text>
<polygon fill="#ffffff" stroke="transparent" points="534.5,-493.2 534.5,-512.2 570.5,-512.2 570.5,-493.2 534.5,-493.2"/>
<polygon fill="none" stroke="#000000" points="534.5,-493.2 534.5,-512.2 570.5,-512.2 570.5,-493.2 534.5,-493.2"/>
<text text-anchor="start" x="561.3862" y="-499.3" font-family="Helvetica,sans-Serif" font-size="11.00" fill="#000000"> &#160;</text>
<polygon fill="#ffffff" stroke="transparent" points="570.5,-493.2 570.5,-512.2 606.5,-512.2 606.5,-493.2 570.5,-493.2"/>
<polygon fill="none" stroke="#000000" points="570.5,-493.2 570.5,-512.2 606.5,-512.2 606.5,-493.2 570.5,-493.2"/>
<text text-anchor="start" x="597.3862" y="-499.3" font-family="Helvetica,sans-Serif" font-size="11.00" fill="#000000"> &#160;</text>
</a>
</g>
</g>
<!-- act_ru_variable&#45;&gt;act_ru_batch -->
<g id="edge18" class="edge">
<title>act_ru_variable:w&#45;&gt;act_ru_batch:e</title>
<path fill="none" stroke="#000000" d="M451.0056,-520.4149C425.9734,-517.3947 414.9542,-505.5618 394,-483.2 353.3312,-439.7992 398.4776,-361.2 339,-361.2"/>
<polygon fill="#000000" stroke="#000000" points="457.5117,-520.7672 465.3053,-524.7947 461.5059,-520.9836 465.5,-521.2 465.5,-521.2 465.5,-521.2 461.5059,-520.9836 465.6947,-517.6053 457.5117,-520.7672 457.5117,-520.7672"/>
<ellipse fill="none" stroke="#000000" cx="454.3164" cy="-520.5941" rx="3.2" ry="3.2"/>
</g>
<!-- act_ru_variable&#45;&gt;act_ru_execution -->
<g id="edge19" class="edge">
<title>act_ru_variable:w&#45;&gt;act_ru_execution:e</title>
<path fill="none" stroke="#000000" d="M450.9901,-520.9616C401.9322,-522.4804 352.7766,-546.7138 319.2892,-568.5382"/>
<polygon fill="#000000" stroke="#000000" points="457.5011,-521.0685 465.4408,-524.7995 461.5005,-521.1343 465.5,-521.2 465.5,-521.2 465.5,-521.2 461.5005,-521.1343 465.5592,-517.6005 457.5011,-521.0685 457.5011,-521.0685"/>
<ellipse fill="none" stroke="#000000" cx="454.3015" cy="-521.0159" rx="3.2" ry="3.2"/>
</g>
<!-- act_ru_variable&#45;&gt;act_ru_execution -->
<g id="edge20" class="edge">
<title>act_ru_variable:w&#45;&gt;act_ru_execution:e</title>
<path fill="none" stroke="#000000" d="M451.0038,-522.9106C409.1042,-529.5181 367.1323,-549.9818 334.9105,-568.649"/>
<polygon fill="#000000" stroke="#000000" points="457.5551,-522.1376 465.9219,-524.7752 461.5276,-521.6688 465.5,-521.2 465.5,-521.2 465.5,-521.2 461.5276,-521.6688 465.0781,-517.6248 457.5551,-522.1376 457.5551,-522.1376"/>
<ellipse fill="none" stroke="#000000" cx="454.3772" cy="-522.5126" rx="3.2" ry="3.2"/>
</g>
</g>
</svg>
