<?xml version="1.0" encoding="UTF-8" standalone="no"?>
<!DOCTYPE svg PUBLIC "-//W3C//DTD SVG 1.1//EN"
 "http://www.w3.org/Graphics/SVG/1.1/DTD/svg11.dtd">
<!-- Generated by graphviz version 2.40.1 (20161225.0304)
 -->
<!-- Title: twoDegreesRelationshipsDiagram Pages: 1 -->
<svg width="412pt" height="242pt"
 viewBox="0.00 0.00 412.00 241.70" xmlns="http://www.w3.org/2000/svg" xmlns:xlink="http://www.w3.org/1999/xlink">
<g id="graph0" class="graph" transform="scale(1 1) rotate(0) translate(4 237.7)">
<title>twoDegreesRelationshipsDiagram</title>
<polygon fill="#ffffff" stroke="transparent" points="-4,4 -4,-237.7 408,-237.7 408,4 -4,4"/>
<text text-anchor="middle" x="72.4936" y="-7.3" font-family="Helvetica,sans-Serif" font-size="11.00" fill="#000000">Generated by SchemaSpy</text>
<!-- act_id_membership -->
<g id="node1" class="node">
<title>act_id_membership</title>
<g id="a_node1"><a xlink:href="../../tables/act_id_membership.html" xlink:title="act_id_membership" target="_top">
<polygon fill="#ffffff" stroke="transparent" points="181,-139.7 181,-229.7 396,-229.7 396,-139.7 181,-139.7"/>
<polygon fill="#f5f5f5" stroke="transparent" points="183.5,-204.7 183.5,-227.7 394.5,-227.7 394.5,-204.7 183.5,-204.7"/>
<polygon fill="none" stroke="#000000" points="183.5,-204.7 183.5,-227.7 394.5,-227.7 394.5,-204.7 183.5,-204.7"/>
<text text-anchor="start" x="188.5" y="-213.3" font-family="Helvetica,sans-Serif" font-weight="bold" font-size="11.00" fill="#000000">act_id_membership</text>
<text text-anchor="start" x="359.5437" y="-212.8" font-family="Helvetica,sans-Serif" font-size="11.00" fill="#000000">[table]</text>
<polygon fill="none" stroke="#000000" points="183.5,-182.7 183.5,-204.7 333.5,-204.7 333.5,-182.7 183.5,-182.7"/>
<image xlink:href="../../images/primaryKeys.png" width="11px" height="12px" preserveAspectRatio="xMinYMin meet" x="188.5" y="-199.7"/>
<text text-anchor="start" x="203.5" y="-189.8" font-family="Helvetica,sans-Serif" font-size="11.00" fill="#000000">user_id_</text>
<polygon fill="none" stroke="#000000" points="333.5,-182.7 333.5,-204.7 394.5,-204.7 394.5,-182.7 333.5,-182.7"/>
<text text-anchor="start" x="336.494" y="-190.4" font-family="Helvetica,sans-Serif" font-size="11.00" fill="#000000">varchar[64]</text>
<polygon fill="none" stroke="#000000" points="183.5,-160.7 183.5,-182.7 333.5,-182.7 333.5,-160.7 183.5,-160.7"/>
<image xlink:href="../../images/primaryKeys.png" width="11px" height="12px" preserveAspectRatio="xMinYMin meet" x="188.5" y="-177.7"/>
<text text-anchor="start" x="203.5" y="-167.8" font-family="Helvetica,sans-Serif" font-size="11.00" fill="#000000">group_id_</text>
<polygon fill="none" stroke="#000000" points="333.5,-160.7 333.5,-182.7 394.5,-182.7 394.5,-160.7 333.5,-160.7"/>
<text text-anchor="start" x="336.494" y="-168.4" font-family="Helvetica,sans-Serif" font-size="11.00" fill="#000000">varchar[64]</text>
<polygon fill="#ffffff" stroke="transparent" points="183.5,-141.7 183.5,-160.7 262.5,-160.7 262.5,-141.7 183.5,-141.7"/>
<polygon fill="none" stroke="#000000" points="183.5,-141.7 183.5,-160.7 262.5,-160.7 262.5,-141.7 183.5,-141.7"/>
<text text-anchor="start" x="186.5" y="-147.8" font-family="Helvetica,sans-Serif" font-size="11.00" fill="#000000">&lt; 2</text>
<polygon fill="#ffffff" stroke="transparent" points="262.5,-141.7 262.5,-160.7 333.5,-160.7 333.5,-141.7 262.5,-141.7"/>
<polygon fill="none" stroke="#000000" points="262.5,-141.7 262.5,-160.7 333.5,-160.7 333.5,-141.7 262.5,-141.7"/>
<text text-anchor="start" x="324.3862" y="-147.8" font-family="Helvetica,sans-Serif" font-size="11.00" fill="#000000"> &#160;</text>
<polygon fill="#ffffff" stroke="transparent" points="333.5,-141.7 333.5,-160.7 394.5,-160.7 394.5,-141.7 333.5,-141.7"/>
<polygon fill="none" stroke="#000000" points="333.5,-141.7 333.5,-160.7 394.5,-160.7 394.5,-141.7 333.5,-141.7"/>
<text text-anchor="start" x="375.9053" y="-147.8" font-family="Helvetica,sans-Serif" font-size="11.00" fill="#000000">0 &gt;</text>
<polygon fill="none" stroke="#000000" stroke-width="2" points="182,-140.7 182,-228.7 395,-228.7 395,-140.7 182,-140.7"/>
</a>
</g>
</g>
<!-- act_id_group -->
<g id="node2" class="node">
<title>act_id_group</title>
<g id="a_node2"><a xlink:href="../../tables/act_id_group.html" xlink:title="act_id_group" target="_top">
<polygon fill="#ffffff" stroke="transparent" points="8,-38.2 8,-121.2 132,-121.2 132,-38.2 8,-38.2"/>
<polygon fill="#f5f5f5" stroke="transparent" points="8,-97.7 8,-120.7 132,-120.7 132,-97.7 8,-97.7"/>
<polygon fill="none" stroke="#000000" points="8,-97.7 8,-120.7 132,-120.7 132,-97.7 8,-97.7"/>
<text text-anchor="start" x="13" y="-106.3" font-family="Helvetica,sans-Serif" font-weight="bold" font-size="11.00" fill="#000000">act_id_group</text>
<text text-anchor="start" x="97.5219" y="-105.8" font-family="Helvetica,sans-Serif" font-size="11.00" fill="#000000">[table]</text>
<polygon fill="none" stroke="#000000" points="8,-75.7 8,-97.7 132,-97.7 132,-75.7 8,-75.7"/>
<image xlink:href="../../images/primaryKeys.png" width="11px" height="12px" preserveAspectRatio="xMinYMin meet" x="13" y="-92.7"/>
<text text-anchor="start" x="37" y="-82.8" font-family="Helvetica,sans-Serif" font-size="11.00" fill="#000000">id_</text>
<polygon fill="none" stroke="#000000" points="8,-56.7 8,-75.7 132,-75.7 132,-56.7 8,-56.7"/>
<text text-anchor="start" x="11" y="-62.8" font-family="Helvetica,sans-Serif" font-size="11.00" fill="#000000">...</text>
<polygon fill="#ffffff" stroke="transparent" points="8,-37.7 8,-56.7 59,-56.7 59,-37.7 8,-37.7"/>
<polygon fill="none" stroke="#000000" points="8,-37.7 8,-56.7 59,-56.7 59,-37.7 8,-37.7"/>
<text text-anchor="start" x="11" y="-43.8" font-family="Helvetica,sans-Serif" font-size="11.00" fill="#000000"> &#160;</text>
<polygon fill="#ffffff" stroke="transparent" points="59,-37.7 59,-56.7 91,-56.7 91,-37.7 59,-37.7"/>
<polygon fill="none" stroke="#000000" points="59,-37.7 59,-56.7 91,-56.7 91,-37.7 59,-37.7"/>
<text text-anchor="start" x="81.8862" y="-43.8" font-family="Helvetica,sans-Serif" font-size="11.00" fill="#000000"> &#160;</text>
<polygon fill="#ffffff" stroke="transparent" points="91,-37.7 91,-56.7 132,-56.7 132,-37.7 91,-37.7"/>
<polygon fill="none" stroke="#000000" points="91,-37.7 91,-56.7 132,-56.7 132,-37.7 91,-37.7"/>
<text text-anchor="start" x="113.4053" y="-43.8" font-family="Helvetica,sans-Serif" font-size="11.00" fill="#000000">2 &gt;</text>
</a>
</g>
</g>
<!-- act_id_membership&#45;&gt;act_id_group -->
<g id="edge1" class="edge">
<title>act_id_membership:w&#45;&gt;act_id_group:e</title>
<path fill="none" stroke="#000000" d="M169.5119,-167.368C147.8888,-150.0466 170.1318,-86.7 132,-86.7"/>
<polygon fill="#000000" stroke="#000000" points="175.8581,-169.3333 182.435,-175.1389 179.679,-170.5167 183.5,-171.7 183.5,-171.7 183.5,-171.7 179.679,-170.5167 184.565,-168.2611 175.8581,-169.3333 175.8581,-169.3333"/>
<ellipse fill="none" stroke="#000000" cx="172.8013" cy="-168.3866" rx="3.2" ry="3.2"/>
</g>
<!-- act_id_user -->
<g id="node3" class="node">
<title>act_id_user</title>
<g id="a_node3"><a xlink:href="../../tables/act_id_user.html" xlink:title="act_id_user" target="_top">
<polygon fill="#ffffff" stroke="transparent" points="9.5,-143.2 9.5,-226.2 130.5,-226.2 130.5,-143.2 9.5,-143.2"/>
<polygon fill="#f5f5f5" stroke="transparent" points="10,-202.7 10,-225.7 131,-225.7 131,-202.7 10,-202.7"/>
<polygon fill="none" stroke="#000000" points="10,-202.7 10,-225.7 131,-225.7 131,-202.7 10,-202.7"/>
<text text-anchor="start" x="15" y="-211.3" font-family="Helvetica,sans-Serif" font-weight="bold" font-size="11.00" fill="#000000">act_id_user</text>
<text text-anchor="start" x="96.0437" y="-210.8" font-family="Helvetica,sans-Serif" font-size="11.00" fill="#000000">[table]</text>
<polygon fill="none" stroke="#000000" points="10,-180.7 10,-202.7 131,-202.7 131,-180.7 10,-180.7"/>
<image xlink:href="../../images/primaryKeys.png" width="11px" height="12px" preserveAspectRatio="xMinYMin meet" x="15" y="-197.7"/>
<text text-anchor="start" x="30" y="-187.8" font-family="Helvetica,sans-Serif" font-size="11.00" fill="#000000">id_</text>
<polygon fill="none" stroke="#000000" points="10,-161.7 10,-180.7 131,-180.7 131,-161.7 10,-161.7"/>
<text text-anchor="start" x="13" y="-167.8" font-family="Helvetica,sans-Serif" font-size="11.00" fill="#000000">...</text>
<polygon fill="#ffffff" stroke="transparent" points="10,-142.7 10,-161.7 60,-161.7 60,-142.7 10,-142.7"/>
<polygon fill="none" stroke="#000000" points="10,-142.7 10,-161.7 60,-161.7 60,-142.7 10,-142.7"/>
<text text-anchor="start" x="13" y="-148.8" font-family="Helvetica,sans-Serif" font-size="11.00" fill="#000000"> &#160;</text>
<polygon fill="#ffffff" stroke="transparent" points="60,-142.7 60,-161.7 91,-161.7 91,-142.7 60,-142.7"/>
<polygon fill="none" stroke="#000000" points="60,-142.7 60,-161.7 91,-161.7 91,-142.7 60,-142.7"/>
<text text-anchor="start" x="81.8862" y="-148.8" font-family="Helvetica,sans-Serif" font-size="11.00" fill="#000000"> &#160;</text>
<polygon fill="#ffffff" stroke="transparent" points="91,-142.7 91,-161.7 131,-161.7 131,-142.7 91,-142.7"/>
<polygon fill="none" stroke="#000000" points="91,-142.7 91,-161.7 131,-161.7 131,-142.7 91,-142.7"/>
<text text-anchor="start" x="112.4053" y="-148.8" font-family="Helvetica,sans-Serif" font-size="11.00" fill="#000000">2 &gt;</text>
</a>
</g>
</g>
<!-- act_id_membership&#45;&gt;act_id_user -->
<g id="edge2" class="edge">
<title>act_id_membership:w&#45;&gt;act_id_user:e</title>
<path fill="none" stroke="#000000" d="M168.7296,-193.3875C156.1531,-192.825 148.5127,-191.7 131,-191.7"/>
<polygon fill="#000000" stroke="#000000" points="175.5018,-193.5307 183.4238,-197.2992 179.5009,-193.6154 183.5,-193.7 183.5,-193.7 183.5,-193.7 179.5009,-193.6154 183.5762,-190.1008 175.5018,-193.5307 175.5018,-193.5307"/>
<ellipse fill="none" stroke="#000000" cx="172.3025" cy="-193.463" rx="3.2" ry="3.2"/>
</g>
<!-- act_id_tenant_member -->
<g id="node4" class="node">
<title>act_id_tenant_member</title>
<g id="a_node4"><a xlink:href="../../tables/act_id_tenant_member.html" xlink:title="act_id_tenant_member" target="_top">
<polygon fill="#ffffff" stroke="transparent" points="193,-57.2 193,-118.2 384,-118.2 384,-57.2 193,-57.2"/>
<polygon fill="#f5f5f5" stroke="transparent" points="193.5,-94.7 193.5,-117.7 384.5,-117.7 384.5,-94.7 193.5,-94.7"/>
<polygon fill="none" stroke="#000000" points="193.5,-94.7 193.5,-117.7 384.5,-117.7 384.5,-94.7 193.5,-94.7"/>
<text text-anchor="start" x="198.5" y="-103.3" font-family="Helvetica,sans-Serif" font-weight="bold" font-size="11.00" fill="#000000">act_id_tenant_member</text>
<text text-anchor="start" x="350.0219" y="-102.8" font-family="Helvetica,sans-Serif" font-size="11.00" fill="#000000">[table]</text>
<polygon fill="none" stroke="#000000" points="193.5,-75.7 193.5,-94.7 384.5,-94.7 384.5,-75.7 193.5,-75.7"/>
<text text-anchor="start" x="196.5" y="-81.8" font-family="Helvetica,sans-Serif" font-size="11.00" fill="#000000">...</text>
<polygon fill="#ffffff" stroke="transparent" points="193.5,-56.7 193.5,-75.7 287.5,-75.7 287.5,-56.7 193.5,-56.7"/>
<polygon fill="none" stroke="#000000" points="193.5,-56.7 193.5,-75.7 287.5,-75.7 287.5,-56.7 193.5,-56.7"/>
<text text-anchor="start" x="196.5" y="-62.8" font-family="Helvetica,sans-Serif" font-size="11.00" fill="#000000">&lt; 3</text>
<polygon fill="#ffffff" stroke="transparent" points="287.5,-56.7 287.5,-75.7 335.5,-75.7 335.5,-56.7 287.5,-56.7"/>
<polygon fill="none" stroke="#000000" points="287.5,-56.7 287.5,-75.7 335.5,-75.7 335.5,-56.7 287.5,-56.7"/>
<text text-anchor="start" x="326.3862" y="-62.8" font-family="Helvetica,sans-Serif" font-size="11.00" fill="#000000"> &#160;</text>
<polygon fill="#ffffff" stroke="transparent" points="335.5,-56.7 335.5,-75.7 384.5,-75.7 384.5,-56.7 335.5,-56.7"/>
<polygon fill="none" stroke="#000000" points="335.5,-56.7 335.5,-75.7 384.5,-75.7 384.5,-56.7 335.5,-56.7"/>
<text text-anchor="start" x="375.3862" y="-62.8" font-family="Helvetica,sans-Serif" font-size="11.00" fill="#000000"> &#160;</text>
</a>
</g>
</g>
<!-- act_id_tenant_member&#45;&gt;act_id_group -->
<g id="edge3" class="edge">
<title>act_id_tenant_member:w&#45;&gt;act_id_group:e</title>
<path fill="none" stroke="#000000" d="M179.0334,-84.914C162.5403,-85.43 153.7928,-86.7 132,-86.7"/>
<polygon fill="#000000" stroke="#000000" points="185.5009,-84.8184 193.5533,-88.2996 189.5004,-84.7592 193.5,-84.7 193.5,-84.7 193.5,-84.7 189.5004,-84.7592 193.4467,-81.1004 185.5009,-84.8184 185.5009,-84.8184"/>
<ellipse fill="none" stroke="#000000" cx="182.3012" cy="-84.8658" rx="3.2" ry="3.2"/>
</g>
<!-- act_id_tenant_member&#45;&gt;act_id_user -->
<g id="edge4" class="edge">
<title>act_id_tenant_member:w&#45;&gt;act_id_user:e</title>
<path fill="none" stroke="#000000" d="M179.2612,-88.0196C147.3342,-106.0801 180.2653,-191.7 131,-191.7"/>
<polygon fill="#000000" stroke="#000000" points="185.7089,-86.5164 194.3174,-88.206 189.6045,-85.6082 193.5,-84.7 193.5,-84.7 193.5,-84.7 189.6045,-85.6082 192.6826,-81.194 185.7089,-86.5164 185.7089,-86.5164"/>
<ellipse fill="none" stroke="#000000" cx="182.5925" cy="-87.243" rx="3.2" ry="3.2"/>
</g>
</g>
</svg>
