<?xml version="1.0" encoding="UTF-8" standalone="no"?>
<!DOCTYPE svg PUBLIC "-//W3C//DTD SVG 1.1//EN"
 "http://www.w3.org/Graphics/SVG/1.1/DTD/svg11.dtd">
<!-- Generated by graphviz version 2.40.1 (20161225.0304)
 -->
<!-- Title: oneDegreeRelationshipsDiagram Pages: 1 -->
<svg width="930pt" height="708pt"
 viewBox="0.00 0.00 930.00 707.70" xmlns="http://www.w3.org/2000/svg" xmlns:xlink="http://www.w3.org/1999/xlink">
<g id="graph0" class="graph" transform="scale(1 1) rotate(0) translate(4 703.7)">
<title>oneDegreeRelationshipsDiagram</title>
<polygon fill="#ffffff" stroke="transparent" points="-4,4 -4,-703.7 926,-703.7 926,4 -4,4"/>
<text text-anchor="middle" x="72.4936" y="-7.3" font-family="Helvetica,sans-Serif" font-size="11.00" fill="#000000">Generated by SchemaSpy</text>
<!-- act_ru_case_execution -->
<g id="node1" class="node">
<title>act_ru_case_execution</title>
<g id="a_node1"><a xlink:href="../../tables/act_ru_case_execution.html" xlink:title="act_ru_case_execution" target="_top">
<polygon fill="#ffffff" stroke="transparent" points="228,-179.7 228,-372.7 417,-372.7 417,-179.7 228,-179.7"/>
<polygon fill="#f5f5f5" stroke="transparent" points="228.5,-349.2 228.5,-372.2 417.5,-372.2 417.5,-349.2 228.5,-349.2"/>
<polygon fill="none" stroke="#000000" points="228.5,-349.2 228.5,-372.2 417.5,-372.2 417.5,-349.2 228.5,-349.2"/>
<text text-anchor="start" x="233.5" y="-357.8" font-family="Helvetica,sans-Serif" font-weight="bold" font-size="11.00" fill="#000000">act_ru_case_execution</text>
<text text-anchor="start" x="383.0219" y="-357.3" font-family="Helvetica,sans-Serif" font-size="11.00" fill="#000000">[table]</text>
<polygon fill="none" stroke="#000000" points="228.5,-327.2 228.5,-349.2 417.5,-349.2 417.5,-327.2 228.5,-327.2"/>
<image xlink:href="../../images/primaryKeys.png" width="11px" height="12px" preserveAspectRatio="xMinYMin meet" x="233.5" y="-344.2"/>
<text text-anchor="start" x="257.5" y="-334.3" font-family="Helvetica,sans-Serif" font-size="11.00" fill="#000000">id_</text>
<polygon fill="#ffffff" stroke="transparent" points="228.5,-305.2 228.5,-327.2 417.5,-327.2 417.5,-305.2 228.5,-305.2"/>
<polygon fill="none" stroke="#000000" points="228.5,-305.2 228.5,-327.2 417.5,-327.2 417.5,-305.2 228.5,-305.2"/>
<image xlink:href="../../images/foreignKeys.png" width="11px" height="12px" preserveAspectRatio="xMinYMin meet" x="233.5" y="-322.2"/>
<text text-anchor="start" x="257.5" y="-312.3" font-family="Helvetica,sans-Serif" font-size="11.00" fill="#000000">case_inst_id_</text>
<polygon fill="#ffffff" stroke="transparent" points="228.5,-283.2 228.5,-305.2 417.5,-305.2 417.5,-283.2 228.5,-283.2"/>
<polygon fill="none" stroke="#000000" points="228.5,-283.2 228.5,-305.2 417.5,-305.2 417.5,-283.2 228.5,-283.2"/>
<text text-anchor="start" x="257.5" y="-290.3" font-family="Helvetica,sans-Serif" font-size="11.00" fill="#000000">business_key_</text>
<polygon fill="#ffffff" stroke="transparent" points="228.5,-261.2 228.5,-283.2 417.5,-283.2 417.5,-261.2 228.5,-261.2"/>
<polygon fill="none" stroke="#000000" points="228.5,-261.2 228.5,-283.2 417.5,-283.2 417.5,-261.2 228.5,-261.2"/>
<image xlink:href="../../images/foreignKeys.png" width="11px" height="12px" preserveAspectRatio="xMinYMin meet" x="233.5" y="-278.2"/>
<text text-anchor="start" x="257.5" y="-268.3" font-family="Helvetica,sans-Serif" font-size="11.00" fill="#000000">parent_id_</text>
<polygon fill="#ffffff" stroke="transparent" points="228.5,-239.2 228.5,-261.2 417.5,-261.2 417.5,-239.2 228.5,-239.2"/>
<polygon fill="none" stroke="#000000" points="228.5,-239.2 228.5,-261.2 417.5,-261.2 417.5,-239.2 228.5,-239.2"/>
<image xlink:href="../../images/foreignKeys.png" width="11px" height="12px" preserveAspectRatio="xMinYMin meet" x="233.5" y="-256.2"/>
<text text-anchor="start" x="257.5" y="-246.3" font-family="Helvetica,sans-Serif" font-size="11.00" fill="#000000">case_def_id_</text>
<polygon fill="#ffffff" stroke="transparent" points="228.5,-217.2 228.5,-239.2 417.5,-239.2 417.5,-217.2 228.5,-217.2"/>
<polygon fill="none" stroke="#000000" points="228.5,-217.2 228.5,-239.2 417.5,-239.2 417.5,-217.2 228.5,-217.2"/>
<text text-anchor="start" x="257.5" y="-224.3" font-family="Helvetica,sans-Serif" font-size="11.00" fill="#000000">tenant_id_</text>
<polygon fill="none" stroke="#000000" points="228.5,-198.2 228.5,-217.2 417.5,-217.2 417.5,-198.2 228.5,-198.2"/>
<text text-anchor="start" x="231.5" y="-204.3" font-family="Helvetica,sans-Serif" font-size="11.00" fill="#000000">...</text>
<polygon fill="#ffffff" stroke="transparent" points="228.5,-179.2 228.5,-198.2 316.5,-198.2 316.5,-179.2 228.5,-179.2"/>
<polygon fill="none" stroke="#000000" points="228.5,-179.2 228.5,-198.2 316.5,-198.2 316.5,-179.2 228.5,-179.2"/>
<text text-anchor="start" x="231.5" y="-185.3" font-family="Helvetica,sans-Serif" font-size="11.00" fill="#000000">&lt; 3</text>
<polygon fill="#ffffff" stroke="transparent" points="316.5,-179.2 316.5,-198.2 362.5,-198.2 362.5,-179.2 316.5,-179.2"/>
<polygon fill="none" stroke="#000000" points="316.5,-179.2 316.5,-198.2 362.5,-198.2 362.5,-179.2 316.5,-179.2"/>
<text text-anchor="start" x="353.3862" y="-185.3" font-family="Helvetica,sans-Serif" font-size="11.00" fill="#000000"> &#160;</text>
<polygon fill="#ffffff" stroke="transparent" points="362.5,-179.2 362.5,-198.2 417.5,-198.2 417.5,-179.2 362.5,-179.2"/>
<polygon fill="none" stroke="#000000" points="362.5,-179.2 362.5,-198.2 417.5,-198.2 417.5,-179.2 362.5,-179.2"/>
<text text-anchor="start" x="398.9053" y="-185.3" font-family="Helvetica,sans-Serif" font-size="11.00" fill="#000000">7 &gt;</text>
</a>
</g>
</g>
<!-- act_re_case_def -->
<g id="node2" class="node">
<title>act_re_case_def</title>
<g id="a_node2"><a xlink:href="../../tables/act_re_case_def.html" xlink:title="act_re_case_def" target="_top">
<polygon fill="#ffffff" stroke="transparent" points="8,-132.7 8,-237.7 179,-237.7 179,-132.7 8,-132.7"/>
<polygon fill="#f5f5f5" stroke="transparent" points="8.5,-214.2 8.5,-237.2 179.5,-237.2 179.5,-214.2 8.5,-214.2"/>
<polygon fill="none" stroke="#000000" points="8.5,-214.2 8.5,-237.2 179.5,-237.2 179.5,-214.2 8.5,-214.2"/>
<text text-anchor="start" x="13.5" y="-222.8" font-family="Helvetica,sans-Serif" font-weight="bold" font-size="11.00" fill="#000000">act_re_case_def</text>
<text text-anchor="start" x="144.5437" y="-222.3" font-family="Helvetica,sans-Serif" font-size="11.00" fill="#000000">[table]</text>
<polygon fill="none" stroke="#000000" points="8.5,-192.2 8.5,-214.2 179.5,-214.2 179.5,-192.2 8.5,-192.2"/>
<image xlink:href="../../images/primaryKeys.png" width="11px" height="12px" preserveAspectRatio="xMinYMin meet" x="13.5" y="-209.2"/>
<text text-anchor="start" x="28.5" y="-199.3" font-family="Helvetica,sans-Serif" font-size="11.00" fill="#000000">id_</text>
<polygon fill="#ffffff" stroke="transparent" points="8.5,-170.2 8.5,-192.2 179.5,-192.2 179.5,-170.2 8.5,-170.2"/>
<polygon fill="none" stroke="#000000" points="8.5,-170.2 8.5,-192.2 179.5,-192.2 179.5,-170.2 8.5,-170.2"/>
<text text-anchor="start" x="28.5" y="-177.3" font-family="Helvetica,sans-Serif" font-size="11.00" fill="#000000">tenant_id_</text>
<polygon fill="none" stroke="#000000" points="8.5,-151.2 8.5,-170.2 179.5,-170.2 179.5,-151.2 8.5,-151.2"/>
<text text-anchor="start" x="11.5" y="-157.3" font-family="Helvetica,sans-Serif" font-size="11.00" fill="#000000">...</text>
<polygon fill="#ffffff" stroke="transparent" points="8.5,-132.2 8.5,-151.2 83.5,-151.2 83.5,-132.2 8.5,-132.2"/>
<polygon fill="none" stroke="#000000" points="8.5,-132.2 8.5,-151.2 83.5,-151.2 83.5,-132.2 8.5,-132.2"/>
<text text-anchor="start" x="11.5" y="-138.3" font-family="Helvetica,sans-Serif" font-size="11.00" fill="#000000"> &#160;</text>
<polygon fill="#ffffff" stroke="transparent" points="83.5,-132.2 83.5,-151.2 126.5,-151.2 126.5,-132.2 83.5,-132.2"/>
<polygon fill="none" stroke="#000000" points="83.5,-132.2 83.5,-151.2 126.5,-151.2 126.5,-132.2 83.5,-132.2"/>
<text text-anchor="start" x="117.3862" y="-138.3" font-family="Helvetica,sans-Serif" font-size="11.00" fill="#000000"> &#160;</text>
<polygon fill="#ffffff" stroke="transparent" points="126.5,-132.2 126.5,-151.2 179.5,-151.2 179.5,-132.2 126.5,-132.2"/>
<polygon fill="none" stroke="#000000" points="126.5,-132.2 126.5,-151.2 179.5,-151.2 179.5,-132.2 126.5,-132.2"/>
<text text-anchor="start" x="160.9053" y="-138.3" font-family="Helvetica,sans-Serif" font-size="11.00" fill="#000000">2 &gt;</text>
</a>
</g>
</g>
<!-- act_ru_case_execution&#45;&gt;act_re_case_def -->
<g id="edge1" class="edge">
<title>act_ru_case_execution:w&#45;&gt;act_re_case_def:e</title>
<path fill="none" stroke="#000000" d="M214.5556,-245.1702C201.2222,-233.0455 203.5468,-203.2 179.5,-203.2"/>
<polygon fill="#000000" stroke="#000000" points="220.9746,-247.4855 227.2785,-253.5864 224.7373,-248.8428 228.5,-250.2 228.5,-250.2 228.5,-250.2 224.7373,-248.8428 229.7215,-246.8136 220.9746,-247.4855 220.9746,-247.4855"/>
<ellipse fill="none" stroke="#000000" cx="217.9644" cy="-246.3997" rx="3.2" ry="3.2"/>
</g>
<!-- act_ru_execution -->
<g id="node3" class="node">
<title>act_ru_execution</title>
<g id="a_node3"><a xlink:href="../../tables/act_ru_execution.html" xlink:title="act_ru_execution" target="_top">
<polygon fill="#ffffff" stroke="transparent" points="246.5,-421.7 246.5,-658.7 398.5,-658.7 398.5,-421.7 246.5,-421.7"/>
<polygon fill="#f5f5f5" stroke="transparent" points="246.5,-635.2 246.5,-658.2 398.5,-658.2 398.5,-635.2 246.5,-635.2"/>
<polygon fill="none" stroke="#000000" points="246.5,-635.2 246.5,-658.2 398.5,-658.2 398.5,-635.2 246.5,-635.2"/>
<text text-anchor="start" x="251.5" y="-643.8" font-family="Helvetica,sans-Serif" font-weight="bold" font-size="11.00" fill="#000000">act_ru_execution</text>
<text text-anchor="start" x="364.0219" y="-643.3" font-family="Helvetica,sans-Serif" font-size="11.00" fill="#000000">[table]</text>
<polygon fill="none" stroke="#000000" points="246.5,-613.2 246.5,-635.2 398.5,-635.2 398.5,-613.2 246.5,-613.2"/>
<image xlink:href="../../images/primaryKeys.png" width="11px" height="12px" preserveAspectRatio="xMinYMin meet" x="251.5" y="-630.2"/>
<text text-anchor="start" x="268.5" y="-620.3" font-family="Helvetica,sans-Serif" font-size="11.00" fill="#000000">id_</text>
<polygon fill="#ffffff" stroke="transparent" points="246.5,-591.2 246.5,-613.2 398.5,-613.2 398.5,-591.2 246.5,-591.2"/>
<polygon fill="none" stroke="#000000" points="246.5,-591.2 246.5,-613.2 398.5,-613.2 398.5,-591.2 246.5,-591.2"/>
<text text-anchor="start" x="268.5" y="-598.3" font-family="Helvetica,sans-Serif" font-size="11.00" fill="#000000">root_proc_inst_id_</text>
<polygon fill="#ffffff" stroke="transparent" points="246.5,-569.2 246.5,-591.2 398.5,-591.2 398.5,-569.2 246.5,-569.2"/>
<polygon fill="none" stroke="#000000" points="246.5,-569.2 246.5,-591.2 398.5,-591.2 398.5,-569.2 246.5,-569.2"/>
<image xlink:href="../../images/foreignKeys.png" width="11px" height="12px" preserveAspectRatio="xMinYMin meet" x="251.5" y="-586.2"/>
<text text-anchor="start" x="268.5" y="-576.3" font-family="Helvetica,sans-Serif" font-size="11.00" fill="#000000">proc_inst_id_</text>
<polygon fill="#ffffff" stroke="transparent" points="246.5,-547.2 246.5,-569.2 398.5,-569.2 398.5,-547.2 246.5,-547.2"/>
<polygon fill="none" stroke="#000000" points="246.5,-547.2 246.5,-569.2 398.5,-569.2 398.5,-547.2 246.5,-547.2"/>
<text text-anchor="start" x="268.5" y="-554.3" font-family="Helvetica,sans-Serif" font-size="11.00" fill="#000000">business_key_</text>
<polygon fill="#ffffff" stroke="transparent" points="246.5,-525.2 246.5,-547.2 398.5,-547.2 398.5,-525.2 246.5,-525.2"/>
<polygon fill="none" stroke="#000000" points="246.5,-525.2 246.5,-547.2 398.5,-547.2 398.5,-525.2 246.5,-525.2"/>
<image xlink:href="../../images/foreignKeys.png" width="11px" height="12px" preserveAspectRatio="xMinYMin meet" x="251.5" y="-542.2"/>
<text text-anchor="start" x="268.5" y="-532.3" font-family="Helvetica,sans-Serif" font-size="11.00" fill="#000000">parent_id_</text>
<polygon fill="#ffffff" stroke="transparent" points="246.5,-503.2 246.5,-525.2 398.5,-525.2 398.5,-503.2 246.5,-503.2"/>
<polygon fill="none" stroke="#000000" points="246.5,-503.2 246.5,-525.2 398.5,-525.2 398.5,-503.2 246.5,-503.2"/>
<image xlink:href="../../images/foreignKeys.png" width="11px" height="12px" preserveAspectRatio="xMinYMin meet" x="251.5" y="-520.2"/>
<text text-anchor="start" x="268.5" y="-510.3" font-family="Helvetica,sans-Serif" font-size="11.00" fill="#000000">proc_def_id_</text>
<polygon fill="#ffffff" stroke="transparent" points="246.5,-481.2 246.5,-503.2 398.5,-503.2 398.5,-481.2 246.5,-481.2"/>
<polygon fill="none" stroke="#000000" points="246.5,-481.2 246.5,-503.2 398.5,-503.2 398.5,-481.2 246.5,-481.2"/>
<image xlink:href="../../images/foreignKeys.png" width="11px" height="12px" preserveAspectRatio="xMinYMin meet" x="251.5" y="-498.2"/>
<text text-anchor="start" x="268.5" y="-488.3" font-family="Helvetica,sans-Serif" font-size="11.00" fill="#000000">super_exec_</text>
<polygon fill="#ffffff" stroke="transparent" points="246.5,-459.2 246.5,-481.2 398.5,-481.2 398.5,-459.2 246.5,-459.2"/>
<polygon fill="none" stroke="#000000" points="246.5,-459.2 246.5,-481.2 398.5,-481.2 398.5,-459.2 246.5,-459.2"/>
<text text-anchor="start" x="268.5" y="-466.3" font-family="Helvetica,sans-Serif" font-size="11.00" fill="#000000">tenant_id_</text>
<polygon fill="none" stroke="#000000" points="246.5,-440.2 246.5,-459.2 398.5,-459.2 398.5,-440.2 246.5,-440.2"/>
<text text-anchor="start" x="249.5" y="-446.3" font-family="Helvetica,sans-Serif" font-size="11.00" fill="#000000">...</text>
<polygon fill="#ffffff" stroke="transparent" points="246.5,-421.2 246.5,-440.2 313.5,-440.2 313.5,-421.2 246.5,-421.2"/>
<polygon fill="none" stroke="#000000" points="246.5,-421.2 246.5,-440.2 313.5,-440.2 313.5,-421.2 246.5,-421.2"/>
<text text-anchor="start" x="249.5" y="-427.3" font-family="Helvetica,sans-Serif" font-size="11.00" fill="#000000">&lt; 4</text>
<polygon fill="#ffffff" stroke="transparent" points="313.5,-421.2 313.5,-440.2 348.5,-440.2 348.5,-421.2 313.5,-421.2"/>
<polygon fill="none" stroke="#000000" points="313.5,-421.2 313.5,-440.2 348.5,-440.2 348.5,-421.2 313.5,-421.2"/>
<text text-anchor="start" x="339.3862" y="-427.3" font-family="Helvetica,sans-Serif" font-size="11.00" fill="#000000"> &#160;</text>
<polygon fill="#ffffff" stroke="transparent" points="348.5,-421.2 348.5,-440.2 398.5,-440.2 398.5,-421.2 348.5,-421.2"/>
<polygon fill="none" stroke="#000000" points="348.5,-421.2 348.5,-440.2 398.5,-440.2 398.5,-421.2 348.5,-421.2"/>
<text text-anchor="start" x="373.7904" y="-427.3" font-family="Helvetica,sans-Serif" font-size="11.00" fill="#000000">11 &gt;</text>
</a>
</g>
</g>
<!-- act_re_procdef -->
<g id="node4" class="node">
<title>act_re_procdef</title>
<g id="a_node4"><a xlink:href="../../tables/act_re_procdef.html" xlink:title="act_re_procdef" target="_top">
<polygon fill="#ffffff" stroke="transparent" points="8,-399.7 8,-548.7 179,-548.7 179,-399.7 8,-399.7"/>
<polygon fill="#f5f5f5" stroke="transparent" points="8.5,-525.2 8.5,-548.2 179.5,-548.2 179.5,-525.2 8.5,-525.2"/>
<polygon fill="none" stroke="#000000" points="8.5,-525.2 8.5,-548.2 179.5,-548.2 179.5,-525.2 8.5,-525.2"/>
<text text-anchor="start" x="13.5" y="-533.8" font-family="Helvetica,sans-Serif" font-weight="bold" font-size="11.00" fill="#000000">act_re_procdef</text>
<text text-anchor="start" x="144.5437" y="-533.3" font-family="Helvetica,sans-Serif" font-size="11.00" fill="#000000">[table]</text>
<polygon fill="none" stroke="#000000" points="8.5,-503.2 8.5,-525.2 179.5,-525.2 179.5,-503.2 8.5,-503.2"/>
<image xlink:href="../../images/primaryKeys.png" width="11px" height="12px" preserveAspectRatio="xMinYMin meet" x="13.5" y="-520.2"/>
<text text-anchor="start" x="28.5" y="-510.3" font-family="Helvetica,sans-Serif" font-size="11.00" fill="#000000">id_</text>
<polygon fill="#ffffff" stroke="transparent" points="8.5,-481.2 8.5,-503.2 179.5,-503.2 179.5,-481.2 8.5,-481.2"/>
<polygon fill="none" stroke="#000000" points="8.5,-481.2 8.5,-503.2 179.5,-503.2 179.5,-481.2 8.5,-481.2"/>
<text text-anchor="start" x="28.5" y="-488.3" font-family="Helvetica,sans-Serif" font-size="11.00" fill="#000000">deployment_id_</text>
<polygon fill="#ffffff" stroke="transparent" points="8.5,-459.2 8.5,-481.2 179.5,-481.2 179.5,-459.2 8.5,-459.2"/>
<polygon fill="none" stroke="#000000" points="8.5,-459.2 8.5,-481.2 179.5,-481.2 179.5,-459.2 8.5,-459.2"/>
<text text-anchor="start" x="28.5" y="-466.3" font-family="Helvetica,sans-Serif" font-size="11.00" fill="#000000">tenant_id_</text>
<polygon fill="#ffffff" stroke="transparent" points="8.5,-437.2 8.5,-459.2 179.5,-459.2 179.5,-437.2 8.5,-437.2"/>
<polygon fill="none" stroke="#000000" points="8.5,-437.2 8.5,-459.2 179.5,-459.2 179.5,-437.2 8.5,-437.2"/>
<text text-anchor="start" x="28.5" y="-444.3" font-family="Helvetica,sans-Serif" font-size="11.00" fill="#000000">version_tag_</text>
<polygon fill="none" stroke="#000000" points="8.5,-418.2 8.5,-437.2 179.5,-437.2 179.5,-418.2 8.5,-418.2"/>
<text text-anchor="start" x="11.5" y="-424.3" font-family="Helvetica,sans-Serif" font-size="11.00" fill="#000000">...</text>
<polygon fill="#ffffff" stroke="transparent" points="8.5,-399.2 8.5,-418.2 83.5,-418.2 83.5,-399.2 8.5,-399.2"/>
<polygon fill="none" stroke="#000000" points="8.5,-399.2 8.5,-418.2 83.5,-418.2 83.5,-399.2 8.5,-399.2"/>
<text text-anchor="start" x="11.5" y="-405.3" font-family="Helvetica,sans-Serif" font-size="11.00" fill="#000000"> &#160;</text>
<polygon fill="#ffffff" stroke="transparent" points="83.5,-399.2 83.5,-418.2 126.5,-418.2 126.5,-399.2 83.5,-399.2"/>
<polygon fill="none" stroke="#000000" points="83.5,-399.2 83.5,-418.2 126.5,-418.2 126.5,-399.2 83.5,-399.2"/>
<text text-anchor="start" x="117.3862" y="-405.3" font-family="Helvetica,sans-Serif" font-size="11.00" fill="#000000"> &#160;</text>
<polygon fill="#ffffff" stroke="transparent" points="126.5,-399.2 126.5,-418.2 179.5,-418.2 179.5,-399.2 126.5,-399.2"/>
<polygon fill="none" stroke="#000000" points="126.5,-399.2 126.5,-418.2 179.5,-418.2 179.5,-399.2 126.5,-399.2"/>
<text text-anchor="start" x="160.9053" y="-405.3" font-family="Helvetica,sans-Serif" font-size="11.00" fill="#000000">4 &gt;</text>
</a>
</g>
</g>
<!-- act_ru_execution&#45;&gt;act_re_procdef -->
<g id="edge2" class="edge">
<title>act_ru_execution:w&#45;&gt;act_re_procdef:e</title>
<path fill="none" stroke="#000000" d="M232.0809,-514.2C213.2359,-514.2 203.8108,-514.2 179.5,-514.2"/>
<polygon fill="#000000" stroke="#000000" points="238.5,-514.2001 246.5,-517.8 242.5,-514.2 246.5,-514.2 246.5,-514.2 246.5,-514.2 242.5,-514.2 246.5,-510.6 238.5,-514.2001 238.5,-514.2001"/>
<ellipse fill="none" stroke="#000000" cx="235.3" cy="-514.2001" rx="3.2" ry="3.2"/>
</g>
<!-- act_ru_identitylink -->
<g id="node5" class="node">
<title>act_ru_identitylink</title>
<g id="a_node5"><a xlink:href="../../tables/act_ru_identitylink.html" xlink:title="act_ru_identitylink" target="_top">
<polygon fill="#ffffff" stroke="transparent" points="751,-524.7 751,-695.7 914,-695.7 914,-524.7 751,-524.7"/>
<polygon fill="#f5f5f5" stroke="transparent" points="751.5,-672.2 751.5,-695.2 914.5,-695.2 914.5,-672.2 751.5,-672.2"/>
<polygon fill="none" stroke="#000000" points="751.5,-672.2 751.5,-695.2 914.5,-695.2 914.5,-672.2 751.5,-672.2"/>
<text text-anchor="start" x="756.5" y="-680.8" font-family="Helvetica,sans-Serif" font-weight="bold" font-size="11.00" fill="#000000">act_ru_identitylink</text>
<text text-anchor="start" x="880.0219" y="-680.3" font-family="Helvetica,sans-Serif" font-size="11.00" fill="#000000">[table]</text>
<polygon fill="none" stroke="#000000" points="751.5,-650.2 751.5,-672.2 914.5,-672.2 914.5,-650.2 751.5,-650.2"/>
<image xlink:href="../../images/primaryKeys.png" width="11px" height="12px" preserveAspectRatio="xMinYMin meet" x="756.5" y="-667.2"/>
<text text-anchor="start" x="780.5" y="-657.3" font-family="Helvetica,sans-Serif" font-size="11.00" fill="#000000">id_</text>
<polygon fill="#ffffff" stroke="transparent" points="751.5,-628.2 751.5,-650.2 914.5,-650.2 914.5,-628.2 751.5,-628.2"/>
<polygon fill="none" stroke="#000000" points="751.5,-628.2 751.5,-650.2 914.5,-650.2 914.5,-628.2 751.5,-628.2"/>
<text text-anchor="start" x="780.5" y="-635.3" font-family="Helvetica,sans-Serif" font-size="11.00" fill="#000000">group_id_</text>
<polygon fill="#ffffff" stroke="transparent" points="751.5,-606.2 751.5,-628.2 914.5,-628.2 914.5,-606.2 751.5,-606.2"/>
<polygon fill="none" stroke="#000000" points="751.5,-606.2 751.5,-628.2 914.5,-628.2 914.5,-606.2 751.5,-606.2"/>
<text text-anchor="start" x="780.5" y="-613.3" font-family="Helvetica,sans-Serif" font-size="11.00" fill="#000000">user_id_</text>
<polygon fill="#ffffff" stroke="transparent" points="751.5,-584.2 751.5,-606.2 914.5,-606.2 914.5,-584.2 751.5,-584.2"/>
<polygon fill="none" stroke="#000000" points="751.5,-584.2 751.5,-606.2 914.5,-606.2 914.5,-584.2 751.5,-584.2"/>
<image xlink:href="../../images/foreignKeys.png" width="11px" height="12px" preserveAspectRatio="xMinYMin meet" x="756.5" y="-601.2"/>
<text text-anchor="start" x="780.5" y="-591.3" font-family="Helvetica,sans-Serif" font-size="11.00" fill="#000000">task_id_</text>
<polygon fill="#ffffff" stroke="transparent" points="751.5,-562.2 751.5,-584.2 914.5,-584.2 914.5,-562.2 751.5,-562.2"/>
<polygon fill="none" stroke="#000000" points="751.5,-562.2 751.5,-584.2 914.5,-584.2 914.5,-562.2 751.5,-562.2"/>
<image xlink:href="../../images/foreignKeys.png" width="11px" height="12px" preserveAspectRatio="xMinYMin meet" x="756.5" y="-579.2"/>
<text text-anchor="start" x="780.5" y="-569.3" font-family="Helvetica,sans-Serif" font-size="11.00" fill="#000000">proc_def_id_</text>
<polygon fill="none" stroke="#000000" points="751.5,-543.2 751.5,-562.2 914.5,-562.2 914.5,-543.2 751.5,-543.2"/>
<text text-anchor="start" x="754.5" y="-549.3" font-family="Helvetica,sans-Serif" font-size="11.00" fill="#000000">...</text>
<polygon fill="#ffffff" stroke="transparent" points="751.5,-524.2 751.5,-543.2 831.5,-543.2 831.5,-524.2 751.5,-524.2"/>
<polygon fill="none" stroke="#000000" points="751.5,-524.2 751.5,-543.2 831.5,-543.2 831.5,-524.2 751.5,-524.2"/>
<text text-anchor="start" x="754.5" y="-530.3" font-family="Helvetica,sans-Serif" font-size="11.00" fill="#000000">&lt; 2</text>
<polygon fill="#ffffff" stroke="transparent" points="831.5,-524.2 831.5,-543.2 872.5,-543.2 872.5,-524.2 831.5,-524.2"/>
<polygon fill="none" stroke="#000000" points="831.5,-524.2 831.5,-543.2 872.5,-543.2 872.5,-524.2 831.5,-524.2"/>
<text text-anchor="start" x="863.3862" y="-530.3" font-family="Helvetica,sans-Serif" font-size="11.00" fill="#000000"> &#160;</text>
<polygon fill="#ffffff" stroke="transparent" points="872.5,-524.2 872.5,-543.2 914.5,-543.2 914.5,-524.2 872.5,-524.2"/>
<polygon fill="none" stroke="#000000" points="872.5,-524.2 872.5,-543.2 914.5,-543.2 914.5,-524.2 872.5,-524.2"/>
<text text-anchor="start" x="905.3862" y="-530.3" font-family="Helvetica,sans-Serif" font-size="11.00" fill="#000000"> &#160;</text>
</a>
</g>
</g>
<!-- act_ru_identitylink&#45;&gt;act_re_procdef -->
<g id="edge3" class="edge">
<title>act_ru_identitylink:w&#45;&gt;act_re_procdef:e</title>
<path fill="none" stroke="#000000" d="M737.5731,-576.8773C728.2563,-582.8635 724.8011,-594.6986 710,-601.2 590.7728,-653.5708 554.3303,-653.9847 425,-669.2 334.5129,-679.8455 292.1104,-724.8896 220,-669.2 163.6471,-625.6796 250.7017,-514.2 179.5,-514.2"/>
<polygon fill="#000000" stroke="#000000" points="743.7651,-575.2424 752.4191,-576.6807 747.6325,-574.2212 751.5,-573.2 751.5,-573.2 751.5,-573.2 747.6325,-574.2212 750.5809,-569.7193 743.7651,-575.2424 743.7651,-575.2424"/>
<ellipse fill="none" stroke="#000000" cx="740.6711" cy="-576.0594" rx="3.2" ry="3.2"/>
</g>
<!-- act_ru_task -->
<g id="node6" class="node">
<title>act_ru_task</title>
<g id="a_node6"><a xlink:href="../../tables/act_ru_task.html" xlink:title="act_ru_task" target="_top">
<polygon fill="#ffffff" stroke="transparent" points="466,-38.2 466,-590.2 702,-590.2 702,-38.2 466,-38.2"/>
<polygon fill="#f5f5f5" stroke="transparent" points="468,-565.2 468,-588.2 700,-588.2 700,-565.2 468,-565.2"/>
<polygon fill="none" stroke="#000000" points="468,-565.2 468,-588.2 700,-588.2 700,-565.2 468,-565.2"/>
<text text-anchor="start" x="473" y="-573.8" font-family="Helvetica,sans-Serif" font-weight="bold" font-size="11.00" fill="#000000">act_ru_task</text>
<text text-anchor="start" x="665.0437" y="-573.3" font-family="Helvetica,sans-Serif" font-size="11.00" fill="#000000">[table]</text>
<polygon fill="none" stroke="#000000" points="468,-543.2 468,-565.2 616,-565.2 616,-543.2 468,-543.2"/>
<image xlink:href="../../images/primaryKeys.png" width="11px" height="12px" preserveAspectRatio="xMinYMin meet" x="473" y="-560.2"/>
<text text-anchor="start" x="488" y="-550.3" font-family="Helvetica,sans-Serif" font-size="11.00" fill="#000000">id_</text>
<polygon fill="none" stroke="#000000" points="616,-543.2 616,-565.2 700,-565.2 700,-543.2 616,-543.2"/>
<text text-anchor="start" x="619" y="-550.9" font-family="Helvetica,sans-Serif" font-size="11.00" fill="#000000">varchar[64]</text>
<polygon fill="none" stroke="#000000" points="468,-521.2 468,-543.2 616,-543.2 616,-521.2 468,-521.2"/>
<text text-anchor="start" x="488" y="-528.3" font-family="Helvetica,sans-Serif" font-size="11.00" fill="#000000">rev_</text>
<polygon fill="none" stroke="#000000" points="616,-521.2 616,-543.2 700,-543.2 700,-521.2 616,-521.2"/>
<text text-anchor="start" x="619" y="-528.9" font-family="Helvetica,sans-Serif" font-size="11.00" fill="#000000">int4[10]</text>
<polygon fill="#ffffff" stroke="transparent" points="468,-499.2 468,-521.2 616,-521.2 616,-499.2 468,-499.2"/>
<polygon fill="none" stroke="#000000" points="468,-499.2 468,-521.2 616,-521.2 616,-499.2 468,-499.2"/>
<image xlink:href="../../images/foreignKeys.png" width="11px" height="12px" preserveAspectRatio="xMinYMin meet" x="473" y="-516.2"/>
<text text-anchor="start" x="488" y="-506.3" font-family="Helvetica,sans-Serif" font-size="11.00" fill="#000000">execution_id_</text>
<polygon fill="none" stroke="#000000" points="616,-499.2 616,-521.2 700,-521.2 700,-499.2 616,-499.2"/>
<text text-anchor="start" x="619" y="-506.9" font-family="Helvetica,sans-Serif" font-size="11.00" fill="#000000">varchar[64]</text>
<polygon fill="#ffffff" stroke="transparent" points="468,-477.2 468,-499.2 616,-499.2 616,-477.2 468,-477.2"/>
<polygon fill="none" stroke="#000000" points="468,-477.2 468,-499.2 616,-499.2 616,-477.2 468,-477.2"/>
<image xlink:href="../../images/foreignKeys.png" width="11px" height="12px" preserveAspectRatio="xMinYMin meet" x="473" y="-494.2"/>
<text text-anchor="start" x="488" y="-484.3" font-family="Helvetica,sans-Serif" font-size="11.00" fill="#000000">proc_inst_id_</text>
<polygon fill="none" stroke="#000000" points="616,-477.2 616,-499.2 700,-499.2 700,-477.2 616,-477.2"/>
<text text-anchor="start" x="619" y="-484.9" font-family="Helvetica,sans-Serif" font-size="11.00" fill="#000000">varchar[64]</text>
<polygon fill="#ffffff" stroke="transparent" points="468,-455.2 468,-477.2 616,-477.2 616,-455.2 468,-455.2"/>
<polygon fill="none" stroke="#000000" points="468,-455.2 468,-477.2 616,-477.2 616,-455.2 468,-455.2"/>
<image xlink:href="../../images/foreignKeys.png" width="11px" height="12px" preserveAspectRatio="xMinYMin meet" x="473" y="-472.2"/>
<text text-anchor="start" x="488" y="-462.3" font-family="Helvetica,sans-Serif" font-size="11.00" fill="#000000">proc_def_id_</text>
<polygon fill="none" stroke="#000000" points="616,-455.2 616,-477.2 700,-477.2 700,-455.2 616,-455.2"/>
<text text-anchor="start" x="619" y="-462.9" font-family="Helvetica,sans-Serif" font-size="11.00" fill="#000000">varchar[64]</text>
<polygon fill="#ffffff" stroke="transparent" points="468,-433.2 468,-455.2 616,-455.2 616,-433.2 468,-433.2"/>
<polygon fill="none" stroke="#000000" points="468,-433.2 468,-455.2 616,-455.2 616,-433.2 468,-433.2"/>
<image xlink:href="../../images/foreignKeys.png" width="11px" height="12px" preserveAspectRatio="xMinYMin meet" x="473" y="-450.2"/>
<text text-anchor="start" x="488" y="-440.3" font-family="Helvetica,sans-Serif" font-size="11.00" fill="#000000">case_execution_id_</text>
<polygon fill="none" stroke="#000000" points="616,-433.2 616,-455.2 700,-455.2 700,-433.2 616,-433.2"/>
<text text-anchor="start" x="619" y="-440.9" font-family="Helvetica,sans-Serif" font-size="11.00" fill="#000000">varchar[64]</text>
<polygon fill="none" stroke="#000000" points="468,-411.2 468,-433.2 616,-433.2 616,-411.2 468,-411.2"/>
<text text-anchor="start" x="488" y="-418.3" font-family="Helvetica,sans-Serif" font-size="11.00" fill="#000000">case_inst_id_</text>
<polygon fill="none" stroke="#000000" points="616,-411.2 616,-433.2 700,-433.2 700,-411.2 616,-411.2"/>
<text text-anchor="start" x="619" y="-418.9" font-family="Helvetica,sans-Serif" font-size="11.00" fill="#000000">varchar[64]</text>
<polygon fill="#ffffff" stroke="transparent" points="468,-389.2 468,-411.2 616,-411.2 616,-389.2 468,-389.2"/>
<polygon fill="none" stroke="#000000" points="468,-389.2 468,-411.2 616,-411.2 616,-389.2 468,-389.2"/>
<image xlink:href="../../images/foreignKeys.png" width="11px" height="12px" preserveAspectRatio="xMinYMin meet" x="473" y="-406.2"/>
<text text-anchor="start" x="488" y="-396.3" font-family="Helvetica,sans-Serif" font-size="11.00" fill="#000000">case_def_id_</text>
<polygon fill="none" stroke="#000000" points="616,-389.2 616,-411.2 700,-411.2 700,-389.2 616,-389.2"/>
<text text-anchor="start" x="619" y="-396.9" font-family="Helvetica,sans-Serif" font-size="11.00" fill="#000000">varchar[64]</text>
<polygon fill="none" stroke="#000000" points="468,-367.2 468,-389.2 616,-389.2 616,-367.2 468,-367.2"/>
<text text-anchor="start" x="488" y="-374.3" font-family="Helvetica,sans-Serif" font-size="11.00" fill="#000000">name_</text>
<polygon fill="none" stroke="#000000" points="616,-367.2 616,-389.2 700,-389.2 700,-367.2 616,-367.2"/>
<text text-anchor="start" x="619" y="-374.9" font-family="Helvetica,sans-Serif" font-size="11.00" fill="#000000">varchar[255]</text>
<polygon fill="none" stroke="#000000" points="468,-345.2 468,-367.2 616,-367.2 616,-345.2 468,-345.2"/>
<text text-anchor="start" x="488" y="-352.3" font-family="Helvetica,sans-Serif" font-size="11.00" fill="#000000">parent_task_id_</text>
<polygon fill="none" stroke="#000000" points="616,-345.2 616,-367.2 700,-367.2 700,-345.2 616,-345.2"/>
<text text-anchor="start" x="619" y="-352.9" font-family="Helvetica,sans-Serif" font-size="11.00" fill="#000000">varchar[64]</text>
<polygon fill="none" stroke="#000000" points="468,-323.2 468,-345.2 616,-345.2 616,-323.2 468,-323.2"/>
<text text-anchor="start" x="488" y="-330.3" font-family="Helvetica,sans-Serif" font-size="11.00" fill="#000000">description_</text>
<polygon fill="none" stroke="#000000" points="616,-323.2 616,-345.2 700,-345.2 700,-323.2 616,-323.2"/>
<text text-anchor="start" x="619" y="-330.9" font-family="Helvetica,sans-Serif" font-size="11.00" fill="#000000">varchar[4000]</text>
<polygon fill="none" stroke="#000000" points="468,-301.2 468,-323.2 616,-323.2 616,-301.2 468,-301.2"/>
<text text-anchor="start" x="488" y="-308.3" font-family="Helvetica,sans-Serif" font-size="11.00" fill="#000000">task_def_key_</text>
<polygon fill="none" stroke="#000000" points="616,-301.2 616,-323.2 700,-323.2 700,-301.2 616,-301.2"/>
<text text-anchor="start" x="619" y="-308.9" font-family="Helvetica,sans-Serif" font-size="11.00" fill="#000000">varchar[255]</text>
<polygon fill="#ffffff" stroke="transparent" points="468,-279.2 468,-301.2 616,-301.2 616,-279.2 468,-279.2"/>
<polygon fill="none" stroke="#000000" points="468,-279.2 468,-301.2 616,-301.2 616,-279.2 468,-279.2"/>
<text text-anchor="start" x="488" y="-286.3" font-family="Helvetica,sans-Serif" font-size="11.00" fill="#000000">owner_</text>
<polygon fill="none" stroke="#000000" points="616,-279.2 616,-301.2 700,-301.2 700,-279.2 616,-279.2"/>
<text text-anchor="start" x="619" y="-286.9" font-family="Helvetica,sans-Serif" font-size="11.00" fill="#000000">varchar[255]</text>
<polygon fill="#ffffff" stroke="transparent" points="468,-257.2 468,-279.2 616,-279.2 616,-257.2 468,-257.2"/>
<polygon fill="none" stroke="#000000" points="468,-257.2 468,-279.2 616,-279.2 616,-257.2 468,-257.2"/>
<text text-anchor="start" x="488" y="-264.3" font-family="Helvetica,sans-Serif" font-size="11.00" fill="#000000">assignee_</text>
<polygon fill="none" stroke="#000000" points="616,-257.2 616,-279.2 700,-279.2 700,-257.2 616,-257.2"/>
<text text-anchor="start" x="619" y="-264.9" font-family="Helvetica,sans-Serif" font-size="11.00" fill="#000000">varchar[255]</text>
<polygon fill="none" stroke="#000000" points="468,-235.2 468,-257.2 616,-257.2 616,-235.2 468,-235.2"/>
<text text-anchor="start" x="488" y="-242.3" font-family="Helvetica,sans-Serif" font-size="11.00" fill="#000000">delegation_</text>
<polygon fill="none" stroke="#000000" points="616,-235.2 616,-257.2 700,-257.2 700,-235.2 616,-235.2"/>
<text text-anchor="start" x="619" y="-242.9" font-family="Helvetica,sans-Serif" font-size="11.00" fill="#000000">varchar[64]</text>
<polygon fill="none" stroke="#000000" points="468,-213.2 468,-235.2 616,-235.2 616,-213.2 468,-213.2"/>
<text text-anchor="start" x="488" y="-220.3" font-family="Helvetica,sans-Serif" font-size="11.00" fill="#000000">priority_</text>
<polygon fill="none" stroke="#000000" points="616,-213.2 616,-235.2 700,-235.2 700,-213.2 616,-213.2"/>
<text text-anchor="start" x="619" y="-220.9" font-family="Helvetica,sans-Serif" font-size="11.00" fill="#000000">int4[10]</text>
<polygon fill="#ffffff" stroke="transparent" points="468,-191.2 468,-213.2 616,-213.2 616,-191.2 468,-191.2"/>
<polygon fill="none" stroke="#000000" points="468,-191.2 468,-213.2 616,-213.2 616,-191.2 468,-191.2"/>
<text text-anchor="start" x="488" y="-198.3" font-family="Helvetica,sans-Serif" font-size="11.00" fill="#000000">create_time_</text>
<polygon fill="none" stroke="#000000" points="616,-191.2 616,-213.2 700,-213.2 700,-191.2 616,-191.2"/>
<text text-anchor="start" x="618.8807" y="-198.9" font-family="Helvetica,sans-Serif" font-size="11.00" fill="#000000">timestamp[29,6]</text>
<polygon fill="#ffffff" stroke="transparent" points="468,-169.2 468,-191.2 616,-191.2 616,-169.2 468,-169.2"/>
<polygon fill="none" stroke="#000000" points="468,-169.2 468,-191.2 616,-191.2 616,-169.2 468,-169.2"/>
<text text-anchor="start" x="488" y="-176.3" font-family="Helvetica,sans-Serif" font-size="11.00" fill="#000000">last_updated_</text>
<polygon fill="none" stroke="#000000" points="616,-169.2 616,-191.2 700,-191.2 700,-169.2 616,-169.2"/>
<text text-anchor="start" x="618.8807" y="-176.9" font-family="Helvetica,sans-Serif" font-size="11.00" fill="#000000">timestamp[29,6]</text>
<polygon fill="none" stroke="#000000" points="468,-147.2 468,-169.2 616,-169.2 616,-147.2 468,-147.2"/>
<text text-anchor="start" x="488" y="-154.3" font-family="Helvetica,sans-Serif" font-size="11.00" fill="#000000">due_date_</text>
<polygon fill="none" stroke="#000000" points="616,-147.2 616,-169.2 700,-169.2 700,-147.2 616,-147.2"/>
<text text-anchor="start" x="618.8807" y="-154.9" font-family="Helvetica,sans-Serif" font-size="11.00" fill="#000000">timestamp[29,6]</text>
<polygon fill="none" stroke="#000000" points="468,-125.2 468,-147.2 616,-147.2 616,-125.2 468,-125.2"/>
<text text-anchor="start" x="488" y="-132.3" font-family="Helvetica,sans-Serif" font-size="11.00" fill="#000000">follow_up_date_</text>
<polygon fill="none" stroke="#000000" points="616,-125.2 616,-147.2 700,-147.2 700,-125.2 616,-125.2"/>
<text text-anchor="start" x="618.8807" y="-132.9" font-family="Helvetica,sans-Serif" font-size="11.00" fill="#000000">timestamp[29,6]</text>
<polygon fill="none" stroke="#000000" points="468,-103.2 468,-125.2 616,-125.2 616,-103.2 468,-103.2"/>
<text text-anchor="start" x="488" y="-110.3" font-family="Helvetica,sans-Serif" font-size="11.00" fill="#000000">suspension_state_</text>
<polygon fill="none" stroke="#000000" points="616,-103.2 616,-125.2 700,-125.2 700,-103.2 616,-103.2"/>
<text text-anchor="start" x="619" y="-110.9" font-family="Helvetica,sans-Serif" font-size="11.00" fill="#000000">int4[10]</text>
<polygon fill="#ffffff" stroke="transparent" points="468,-81.2 468,-103.2 616,-103.2 616,-81.2 468,-81.2"/>
<polygon fill="none" stroke="#000000" points="468,-81.2 468,-103.2 616,-103.2 616,-81.2 468,-81.2"/>
<text text-anchor="start" x="488" y="-88.3" font-family="Helvetica,sans-Serif" font-size="11.00" fill="#000000">tenant_id_</text>
<polygon fill="none" stroke="#000000" points="616,-81.2 616,-103.2 700,-103.2 700,-81.2 616,-81.2"/>
<text text-anchor="start" x="619" y="-88.9" font-family="Helvetica,sans-Serif" font-size="11.00" fill="#000000">varchar[64]</text>
<polygon fill="none" stroke="#000000" points="468,-59.2 468,-81.2 616,-81.2 616,-59.2 468,-59.2"/>
<text text-anchor="start" x="488" y="-66.3" font-family="Helvetica,sans-Serif" font-size="11.00" fill="#000000">task_state_</text>
<polygon fill="none" stroke="#000000" points="616,-59.2 616,-81.2 700,-81.2 700,-59.2 616,-59.2"/>
<text text-anchor="start" x="619" y="-66.9" font-family="Helvetica,sans-Serif" font-size="11.00" fill="#000000">varchar[64]</text>
<polygon fill="#ffffff" stroke="transparent" points="468,-40.2 468,-59.2 546,-59.2 546,-40.2 468,-40.2"/>
<polygon fill="none" stroke="#000000" points="468,-40.2 468,-59.2 546,-59.2 546,-40.2 468,-40.2"/>
<text text-anchor="start" x="471" y="-46.3" font-family="Helvetica,sans-Serif" font-size="11.00" fill="#000000">&lt; 5</text>
<polygon fill="#ffffff" stroke="transparent" points="546,-40.2 546,-59.2 616,-59.2 616,-40.2 546,-40.2"/>
<polygon fill="none" stroke="#000000" points="546,-40.2 546,-59.2 616,-59.2 616,-40.2 546,-40.2"/>
<text text-anchor="start" x="606.8862" y="-46.3" font-family="Helvetica,sans-Serif" font-size="11.00" fill="#000000"> &#160;</text>
<polygon fill="#ffffff" stroke="transparent" points="616,-40.2 616,-59.2 700,-59.2 700,-40.2 616,-40.2"/>
<polygon fill="none" stroke="#000000" points="616,-40.2 616,-59.2 700,-59.2 700,-40.2 616,-40.2"/>
<text text-anchor="start" x="681.4053" y="-46.3" font-family="Helvetica,sans-Serif" font-size="11.00" fill="#000000">1 &gt;</text>
<polygon fill="none" stroke="#000000" stroke-width="2" points="467,-39.2 467,-589.2 701,-589.2 701,-39.2 467,-39.2"/>
</a>
</g>
</g>
<!-- act_ru_identitylink&#45;&gt;act_ru_task -->
<g id="edge4" class="edge">
<title>act_ru_identitylink:w&#45;&gt;act_ru_task:e</title>
<path fill="none" stroke="#000000" d="M737.5533,-590.8123C723.596,-580.2354 723.3139,-554.2 700,-554.2"/>
<polygon fill="#000000" stroke="#000000" points="743.8687,-592.7991 750.4196,-598.6341 747.6844,-593.9996 751.5,-595.2 751.5,-595.2 751.5,-595.2 747.6844,-593.9996 752.5804,-591.7659 743.8687,-592.7991 743.8687,-592.7991"/>
<ellipse fill="none" stroke="#000000" cx="740.8162" cy="-591.8388" rx="3.2" ry="3.2"/>
</g>
<!-- act_ru_task&#45;&gt;act_ru_case_execution -->
<g id="edge6" class="edge">
<title>act_ru_task:w&#45;&gt;act_ru_case_execution:e</title>
<path fill="none" stroke="#000000" d="M454.04,-440.4274C426.6593,-421.5446 463.7729,-338.2 417.5,-338.2"/>
<polygon fill="#000000" stroke="#000000" points="460.277,-442.1129 467.0608,-447.6753 464.1385,-443.1564 468,-444.2 468,-444.2 468,-444.2 464.1385,-443.1564 468.9392,-440.7247 460.277,-442.1129 460.277,-442.1129"/>
<ellipse fill="none" stroke="#000000" cx="457.1879" cy="-441.278" rx="3.2" ry="3.2"/>
</g>
<!-- act_ru_task&#45;&gt;act_re_case_def -->
<g id="edge5" class="edge">
<title>act_ru_task:w&#45;&gt;act_re_case_def:e</title>
<path fill="none" stroke="#000000" d="M453.4639,-398.8681C377.902,-383.1474 501.081,-232.4256 425,-169.2 354.9272,-110.9674 305.6127,-138.028 220,-169.2 197.9163,-177.2408 203.002,-203.2 179.5,-203.2"/>
<polygon fill="#000000" stroke="#000000" points="460.0334,-399.47 467.6715,-403.785 464.0167,-399.835 468,-400.2 468,-400.2 468,-400.2 464.0167,-399.835 468.3285,-396.615 460.0334,-399.47 460.0334,-399.47"/>
<ellipse fill="none" stroke="#000000" cx="456.8467" cy="-399.178" rx="3.2" ry="3.2"/>
</g>
<!-- act_ru_task&#45;&gt;act_ru_execution -->
<g id="edge7" class="edge">
<title>act_ru_task:w&#45;&gt;act_ru_execution:e</title>
<path fill="none" stroke="#000000" d="M453.5179,-513.2492C417.2305,-531.3784 452.0451,-624.2 398.5,-624.2"/>
<polygon fill="#000000" stroke="#000000" points="460.1716,-511.8483 468.7417,-513.7228 464.0858,-511.0242 468,-510.2 468,-510.2 468,-510.2 464.0858,-511.0242 467.2583,-506.6772 460.1716,-511.8483 460.1716,-511.8483"/>
<ellipse fill="none" stroke="#000000" cx="457.0403" cy="-512.5076" rx="3.2" ry="3.2"/>
</g>
<!-- act_ru_task&#45;&gt;act_ru_execution -->
<g id="edge9" class="edge">
<title>act_ru_task:w&#45;&gt;act_ru_execution:e</title>
<path fill="none" stroke="#000000" d="M453.577,-490.9167C410.3037,-510.0845 460.6789,-624.2 398.5,-624.2"/>
<polygon fill="#000000" stroke="#000000" points="460.1382,-489.6808 468.6664,-491.7378 464.0691,-488.9404 468,-488.2 468,-488.2 468,-488.2 464.0691,-488.9404 467.3336,-484.6622 460.1382,-489.6808 460.1382,-489.6808"/>
<ellipse fill="none" stroke="#000000" cx="456.9935" cy="-490.2732" rx="3.2" ry="3.2"/>
</g>
<!-- act_ru_task&#45;&gt;act_re_procdef -->
<g id="edge8" class="edge">
<title>act_ru_task:w&#45;&gt;act_re_procdef:e</title>
<path fill="none" stroke="#000000" d="M454.1425,-461.6552C441.631,-450.5274 447.2252,-422.0354 425,-411.2 384.0516,-391.2365 257.6479,-385.5496 220,-411.2 179.349,-438.8965 228.6895,-514.2 179.5,-514.2"/>
<polygon fill="#000000" stroke="#000000" points="460.3984,-463.7069 466.8781,-469.6207 464.1992,-464.9534 468,-466.2 468,-466.2 468,-466.2 464.1992,-464.9534 469.1219,-462.7793 460.3984,-463.7069 460.3984,-463.7069"/>
<ellipse fill="none" stroke="#000000" cx="457.3577" cy="-462.7097" rx="3.2" ry="3.2"/>
</g>
</g>
</svg>
