<?xml version="1.0" encoding="UTF-8" standalone="no"?>
<!DOCTYPE svg PUBLIC "-//W3C//DTD SVG 1.1//EN"
 "http://www.w3.org/Graphics/SVG/1.1/DTD/svg11.dtd">
<!-- Generated by graphviz version 2.40.1 (20161225.0304)
 -->
<!-- Title: twoDegreesRelationshipsDiagram Pages: 1 -->
<svg width="656pt" height="659pt"
 viewBox="0.00 0.00 656.00 658.68" xmlns="http://www.w3.org/2000/svg" xmlns:xlink="http://www.w3.org/1999/xlink">
<g id="graph0" class="graph" transform="scale(1 1) rotate(0) translate(4 654.6848)">
<title>twoDegreesRelationshipsDiagram</title>
<polygon fill="#ffffff" stroke="transparent" points="-4,4 -4,-654.6848 652,-654.6848 652,4 -4,4"/>
<text text-anchor="middle" x="72.4936" y="-7.3" font-family="Helvetica,sans-Serif" font-size="11.00" fill="#000000">Generated by SchemaSpy</text>
<!-- act_ru_event_subscr -->
<g id="node1" class="node">
<title>act_ru_event_subscr</title>
<g id="a_node1"><a xlink:href="../../tables/act_ru_event_subscr.html" xlink:title="act_ru_event_subscr" target="_top">
<polygon fill="#ffffff" stroke="transparent" points="395,-298.1848 395,-564.1848 640,-564.1848 640,-298.1848 395,-298.1848"/>
<polygon fill="#f5f5f5" stroke="transparent" points="397.5,-539.1848 397.5,-562.1848 638.5,-562.1848 638.5,-539.1848 397.5,-539.1848"/>
<polygon fill="none" stroke="#000000" points="397.5,-539.1848 397.5,-562.1848 638.5,-562.1848 638.5,-539.1848 397.5,-539.1848"/>
<text text-anchor="start" x="402.5" y="-547.7848" font-family="Helvetica,sans-Serif" font-weight="bold" font-size="11.00" fill="#000000">act_ru_event_subscr</text>
<text text-anchor="start" x="603.5437" y="-547.2848" font-family="Helvetica,sans-Serif" font-size="11.00" fill="#000000">[table]</text>
<polygon fill="none" stroke="#000000" points="397.5,-517.1848 397.5,-539.1848 554.5,-539.1848 554.5,-517.1848 397.5,-517.1848"/>
<image xlink:href="../../images/primaryKeys.png" width="11px" height="12px" preserveAspectRatio="xMinYMin meet" x="402.5" y="-534.185"/>
<text text-anchor="start" x="417.5" y="-524.2848" font-family="Helvetica,sans-Serif" font-size="11.00" fill="#000000">id_</text>
<polygon fill="none" stroke="#000000" points="554.5,-517.1848 554.5,-539.1848 638.5,-539.1848 638.5,-517.1848 554.5,-517.1848"/>
<text text-anchor="start" x="557.5" y="-524.8848" font-family="Helvetica,sans-Serif" font-size="11.00" fill="#000000">varchar[64]</text>
<polygon fill="none" stroke="#000000" points="397.5,-495.1848 397.5,-517.1848 554.5,-517.1848 554.5,-495.1848 397.5,-495.1848"/>
<text text-anchor="start" x="417.5" y="-502.2848" font-family="Helvetica,sans-Serif" font-size="11.00" fill="#000000">rev_</text>
<polygon fill="none" stroke="#000000" points="554.5,-495.1848 554.5,-517.1848 638.5,-517.1848 638.5,-495.1848 554.5,-495.1848"/>
<text text-anchor="start" x="557.5" y="-502.8848" font-family="Helvetica,sans-Serif" font-size="11.00" fill="#000000">int4[10]</text>
<polygon fill="none" stroke="#000000" points="397.5,-473.1848 397.5,-495.1848 554.5,-495.1848 554.5,-473.1848 397.5,-473.1848"/>
<text text-anchor="start" x="417.5" y="-480.2848" font-family="Helvetica,sans-Serif" font-size="11.00" fill="#000000">event_type_</text>
<polygon fill="none" stroke="#000000" points="554.5,-473.1848 554.5,-495.1848 638.5,-495.1848 638.5,-473.1848 554.5,-473.1848"/>
<text text-anchor="start" x="557.5" y="-480.8848" font-family="Helvetica,sans-Serif" font-size="11.00" fill="#000000">varchar[255]</text>
<polygon fill="#ffffff" stroke="transparent" points="397.5,-451.1848 397.5,-473.1848 554.5,-473.1848 554.5,-451.1848 397.5,-451.1848"/>
<polygon fill="none" stroke="#000000" points="397.5,-451.1848 397.5,-473.1848 554.5,-473.1848 554.5,-451.1848 397.5,-451.1848"/>
<text text-anchor="start" x="417.5" y="-458.2848" font-family="Helvetica,sans-Serif" font-size="11.00" fill="#000000">event_name_</text>
<polygon fill="none" stroke="#000000" points="554.5,-451.1848 554.5,-473.1848 638.5,-473.1848 638.5,-451.1848 554.5,-451.1848"/>
<text text-anchor="start" x="557.5" y="-458.8848" font-family="Helvetica,sans-Serif" font-size="11.00" fill="#000000">varchar[255]</text>
<polygon fill="#ffffff" stroke="transparent" points="397.5,-429.1848 397.5,-451.1848 554.5,-451.1848 554.5,-429.1848 397.5,-429.1848"/>
<polygon fill="none" stroke="#000000" points="397.5,-429.1848 397.5,-451.1848 554.5,-451.1848 554.5,-429.1848 397.5,-429.1848"/>
<image xlink:href="../../images/foreignKeys.png" width="11px" height="12px" preserveAspectRatio="xMinYMin meet" x="402.5" y="-446.185"/>
<text text-anchor="start" x="417.5" y="-436.2848" font-family="Helvetica,sans-Serif" font-size="11.00" fill="#000000">execution_id_</text>
<polygon fill="none" stroke="#000000" points="554.5,-429.1848 554.5,-451.1848 638.5,-451.1848 638.5,-429.1848 554.5,-429.1848"/>
<text text-anchor="start" x="557.5" y="-436.8848" font-family="Helvetica,sans-Serif" font-size="11.00" fill="#000000">varchar[64]</text>
<polygon fill="none" stroke="#000000" points="397.5,-407.1848 397.5,-429.1848 554.5,-429.1848 554.5,-407.1848 397.5,-407.1848"/>
<text text-anchor="start" x="417.5" y="-414.2848" font-family="Helvetica,sans-Serif" font-size="11.00" fill="#000000">proc_inst_id_</text>
<polygon fill="none" stroke="#000000" points="554.5,-407.1848 554.5,-429.1848 638.5,-429.1848 638.5,-407.1848 554.5,-407.1848"/>
<text text-anchor="start" x="557.5" y="-414.8848" font-family="Helvetica,sans-Serif" font-size="11.00" fill="#000000">varchar[64]</text>
<polygon fill="none" stroke="#000000" points="397.5,-385.1848 397.5,-407.1848 554.5,-407.1848 554.5,-385.1848 397.5,-385.1848"/>
<text text-anchor="start" x="417.5" y="-392.2848" font-family="Helvetica,sans-Serif" font-size="11.00" fill="#000000">activity_id_</text>
<polygon fill="none" stroke="#000000" points="554.5,-385.1848 554.5,-407.1848 638.5,-407.1848 638.5,-385.1848 554.5,-385.1848"/>
<text text-anchor="start" x="557.5" y="-392.8848" font-family="Helvetica,sans-Serif" font-size="11.00" fill="#000000">varchar[255]</text>
<polygon fill="#ffffff" stroke="transparent" points="397.5,-363.1848 397.5,-385.1848 554.5,-385.1848 554.5,-363.1848 397.5,-363.1848"/>
<polygon fill="none" stroke="#000000" points="397.5,-363.1848 397.5,-385.1848 554.5,-385.1848 554.5,-363.1848 397.5,-363.1848"/>
<text text-anchor="start" x="417.5" y="-370.2848" font-family="Helvetica,sans-Serif" font-size="11.00" fill="#000000">configuration_</text>
<polygon fill="none" stroke="#000000" points="554.5,-363.1848 554.5,-385.1848 638.5,-385.1848 638.5,-363.1848 554.5,-363.1848"/>
<text text-anchor="start" x="557.5" y="-370.8848" font-family="Helvetica,sans-Serif" font-size="11.00" fill="#000000">varchar[255]</text>
<polygon fill="none" stroke="#000000" points="397.5,-341.1848 397.5,-363.1848 554.5,-363.1848 554.5,-341.1848 397.5,-341.1848"/>
<text text-anchor="start" x="417.5" y="-348.2848" font-family="Helvetica,sans-Serif" font-size="11.00" fill="#000000">created_</text>
<polygon fill="none" stroke="#000000" points="554.5,-341.1848 554.5,-363.1848 638.5,-363.1848 638.5,-341.1848 554.5,-341.1848"/>
<text text-anchor="start" x="557.3807" y="-348.8848" font-family="Helvetica,sans-Serif" font-size="11.00" fill="#000000">timestamp[29,6]</text>
<polygon fill="#ffffff" stroke="transparent" points="397.5,-319.1848 397.5,-341.1848 554.5,-341.1848 554.5,-319.1848 397.5,-319.1848"/>
<polygon fill="none" stroke="#000000" points="397.5,-319.1848 397.5,-341.1848 554.5,-341.1848 554.5,-319.1848 397.5,-319.1848"/>
<text text-anchor="start" x="417.5" y="-326.2848" font-family="Helvetica,sans-Serif" font-size="11.00" fill="#000000">tenant_id_</text>
<polygon fill="none" stroke="#000000" points="554.5,-319.1848 554.5,-341.1848 638.5,-341.1848 638.5,-319.1848 554.5,-319.1848"/>
<text text-anchor="start" x="557.5" y="-326.8848" font-family="Helvetica,sans-Serif" font-size="11.00" fill="#000000">varchar[64]</text>
<polygon fill="#ffffff" stroke="transparent" points="397.5,-300.1848 397.5,-319.1848 480.5,-319.1848 480.5,-300.1848 397.5,-300.1848"/>
<polygon fill="none" stroke="#000000" points="397.5,-300.1848 397.5,-319.1848 480.5,-319.1848 480.5,-300.1848 397.5,-300.1848"/>
<text text-anchor="start" x="400.5" y="-306.2848" font-family="Helvetica,sans-Serif" font-size="11.00" fill="#000000">&lt; 1</text>
<polygon fill="#ffffff" stroke="transparent" points="480.5,-300.1848 480.5,-319.1848 554.5,-319.1848 554.5,-300.1848 480.5,-300.1848"/>
<polygon fill="none" stroke="#000000" points="480.5,-300.1848 480.5,-319.1848 554.5,-319.1848 554.5,-300.1848 480.5,-300.1848"/>
<text text-anchor="start" x="545.3862" y="-306.2848" font-family="Helvetica,sans-Serif" font-size="11.00" fill="#000000"> &#160;</text>
<polygon fill="#ffffff" stroke="transparent" points="554.5,-300.1848 554.5,-319.1848 638.5,-319.1848 638.5,-300.1848 554.5,-300.1848"/>
<polygon fill="none" stroke="#000000" points="554.5,-300.1848 554.5,-319.1848 638.5,-319.1848 638.5,-300.1848 554.5,-300.1848"/>
<text text-anchor="start" x="619.9053" y="-306.2848" font-family="Helvetica,sans-Serif" font-size="11.00" fill="#000000">0 &gt;</text>
<polygon fill="none" stroke="#000000" stroke-width="2" points="396,-299.1848 396,-563.1848 639,-563.1848 639,-299.1848 396,-299.1848"/>
</a>
</g>
</g>
<!-- act_ru_execution -->
<g id="node2" class="node">
<title>act_ru_execution</title>
<g id="a_node2"><a xlink:href="../../tables/act_ru_execution.html" xlink:title="act_ru_execution" target="_top">
<polygon fill="#ffffff" stroke="transparent" points="194,-71.6848 194,-308.6848 346,-308.6848 346,-71.6848 194,-71.6848"/>
<polygon fill="#f5f5f5" stroke="transparent" points="194,-285.1848 194,-308.1848 346,-308.1848 346,-285.1848 194,-285.1848"/>
<polygon fill="none" stroke="#000000" points="194,-285.1848 194,-308.1848 346,-308.1848 346,-285.1848 194,-285.1848"/>
<text text-anchor="start" x="199" y="-293.7848" font-family="Helvetica,sans-Serif" font-weight="bold" font-size="11.00" fill="#000000">act_ru_execution</text>
<text text-anchor="start" x="311.5219" y="-293.2848" font-family="Helvetica,sans-Serif" font-size="11.00" fill="#000000">[table]</text>
<polygon fill="none" stroke="#000000" points="194,-263.1848 194,-285.1848 346,-285.1848 346,-263.1848 194,-263.1848"/>
<image xlink:href="../../images/primaryKeys.png" width="11px" height="12px" preserveAspectRatio="xMinYMin meet" x="199" y="-280.185"/>
<text text-anchor="start" x="216" y="-270.2848" font-family="Helvetica,sans-Serif" font-size="11.00" fill="#000000">id_</text>
<polygon fill="#ffffff" stroke="transparent" points="194,-241.1848 194,-263.1848 346,-263.1848 346,-241.1848 194,-241.1848"/>
<polygon fill="none" stroke="#000000" points="194,-241.1848 194,-263.1848 346,-263.1848 346,-241.1848 194,-241.1848"/>
<text text-anchor="start" x="216" y="-248.2848" font-family="Helvetica,sans-Serif" font-size="11.00" fill="#000000">root_proc_inst_id_</text>
<polygon fill="#ffffff" stroke="transparent" points="194,-219.1848 194,-241.1848 346,-241.1848 346,-219.1848 194,-219.1848"/>
<polygon fill="none" stroke="#000000" points="194,-219.1848 194,-241.1848 346,-241.1848 346,-219.1848 194,-219.1848"/>
<image xlink:href="../../images/foreignKeys.png" width="11px" height="12px" preserveAspectRatio="xMinYMin meet" x="199" y="-236.185"/>
<text text-anchor="start" x="216" y="-226.2848" font-family="Helvetica,sans-Serif" font-size="11.00" fill="#000000">proc_inst_id_</text>
<polygon fill="#ffffff" stroke="transparent" points="194,-197.1848 194,-219.1848 346,-219.1848 346,-197.1848 194,-197.1848"/>
<polygon fill="none" stroke="#000000" points="194,-197.1848 194,-219.1848 346,-219.1848 346,-197.1848 194,-197.1848"/>
<text text-anchor="start" x="216" y="-204.2848" font-family="Helvetica,sans-Serif" font-size="11.00" fill="#000000">business_key_</text>
<polygon fill="#ffffff" stroke="transparent" points="194,-175.1848 194,-197.1848 346,-197.1848 346,-175.1848 194,-175.1848"/>
<polygon fill="none" stroke="#000000" points="194,-175.1848 194,-197.1848 346,-197.1848 346,-175.1848 194,-175.1848"/>
<image xlink:href="../../images/foreignKeys.png" width="11px" height="12px" preserveAspectRatio="xMinYMin meet" x="199" y="-192.185"/>
<text text-anchor="start" x="216" y="-182.2848" font-family="Helvetica,sans-Serif" font-size="11.00" fill="#000000">parent_id_</text>
<polygon fill="#ffffff" stroke="transparent" points="194,-153.1848 194,-175.1848 346,-175.1848 346,-153.1848 194,-153.1848"/>
<polygon fill="none" stroke="#000000" points="194,-153.1848 194,-175.1848 346,-175.1848 346,-153.1848 194,-153.1848"/>
<image xlink:href="../../images/foreignKeys.png" width="11px" height="12px" preserveAspectRatio="xMinYMin meet" x="199" y="-170.185"/>
<text text-anchor="start" x="216" y="-160.2848" font-family="Helvetica,sans-Serif" font-size="11.00" fill="#000000">proc_def_id_</text>
<polygon fill="#ffffff" stroke="transparent" points="194,-131.1848 194,-153.1848 346,-153.1848 346,-131.1848 194,-131.1848"/>
<polygon fill="none" stroke="#000000" points="194,-131.1848 194,-153.1848 346,-153.1848 346,-131.1848 194,-131.1848"/>
<image xlink:href="../../images/foreignKeys.png" width="11px" height="12px" preserveAspectRatio="xMinYMin meet" x="199" y="-148.185"/>
<text text-anchor="start" x="216" y="-138.2848" font-family="Helvetica,sans-Serif" font-size="11.00" fill="#000000">super_exec_</text>
<polygon fill="#ffffff" stroke="transparent" points="194,-109.1848 194,-131.1848 346,-131.1848 346,-109.1848 194,-109.1848"/>
<polygon fill="none" stroke="#000000" points="194,-109.1848 194,-131.1848 346,-131.1848 346,-109.1848 194,-109.1848"/>
<text text-anchor="start" x="216" y="-116.2848" font-family="Helvetica,sans-Serif" font-size="11.00" fill="#000000">tenant_id_</text>
<polygon fill="none" stroke="#000000" points="194,-90.1848 194,-109.1848 346,-109.1848 346,-90.1848 194,-90.1848"/>
<text text-anchor="start" x="197" y="-96.2848" font-family="Helvetica,sans-Serif" font-size="11.00" fill="#000000">...</text>
<polygon fill="#ffffff" stroke="transparent" points="194,-71.1848 194,-90.1848 261,-90.1848 261,-71.1848 194,-71.1848"/>
<polygon fill="none" stroke="#000000" points="194,-71.1848 194,-90.1848 261,-90.1848 261,-71.1848 194,-71.1848"/>
<text text-anchor="start" x="197" y="-77.2848" font-family="Helvetica,sans-Serif" font-size="11.00" fill="#000000">&lt; 4</text>
<polygon fill="#ffffff" stroke="transparent" points="261,-71.1848 261,-90.1848 296,-90.1848 296,-71.1848 261,-71.1848"/>
<polygon fill="none" stroke="#000000" points="261,-71.1848 261,-90.1848 296,-90.1848 296,-71.1848 261,-71.1848"/>
<text text-anchor="start" x="286.8862" y="-77.2848" font-family="Helvetica,sans-Serif" font-size="11.00" fill="#000000"> &#160;</text>
<polygon fill="#ffffff" stroke="transparent" points="296,-71.1848 296,-90.1848 346,-90.1848 346,-71.1848 296,-71.1848"/>
<polygon fill="none" stroke="#000000" points="296,-71.1848 296,-90.1848 346,-90.1848 346,-71.1848 296,-71.1848"/>
<text text-anchor="start" x="321.2904" y="-77.2848" font-family="Helvetica,sans-Serif" font-size="11.00" fill="#000000">11 &gt;</text>
</a>
</g>
</g>
<!-- act_ru_event_subscr&#45;&gt;act_ru_execution -->
<g id="edge1" class="edge">
<title>act_ru_event_subscr:w&#45;&gt;act_ru_execution:e</title>
<path fill="none" stroke="#000000" d="M383.1317,-437.5773C334.5485,-416.4586 417.5136,-274.1848 346,-274.1848"/>
<polygon fill="#000000" stroke="#000000" points="389.6286,-438.7563 396.8572,-443.727 393.5643,-439.4706 397.5,-440.1848 397.5,-440.1848 397.5,-440.1848 393.5643,-439.4706 398.1428,-436.6427 389.6286,-438.7563 389.6286,-438.7563"/>
<ellipse fill="none" stroke="#000000" cx="386.48" cy="-438.1849" rx="3.2" ry="3.2"/>
</g>
<!-- act_re_procdef -->
<g id="node3" class="node">
<title>act_re_procdef</title>
<g id="a_node3"><a xlink:href="../../tables/act_re_procdef.html" xlink:title="act_re_procdef" target="_top">
<polygon fill="#ffffff" stroke="transparent" points="8,-136.6848 8,-197.6848 145,-197.6848 145,-136.6848 8,-136.6848"/>
<polygon fill="#f5f5f5" stroke="transparent" points="8.5,-174.1848 8.5,-197.1848 145.5,-197.1848 145.5,-174.1848 8.5,-174.1848"/>
<polygon fill="none" stroke="#000000" points="8.5,-174.1848 8.5,-197.1848 145.5,-197.1848 145.5,-174.1848 8.5,-174.1848"/>
<text text-anchor="start" x="13.5" y="-182.7848" font-family="Helvetica,sans-Serif" font-weight="bold" font-size="11.00" fill="#000000">act_re_procdef</text>
<text text-anchor="start" x="111.0219" y="-182.2848" font-family="Helvetica,sans-Serif" font-size="11.00" fill="#000000">[table]</text>
<polygon fill="none" stroke="#000000" points="8.5,-155.1848 8.5,-174.1848 145.5,-174.1848 145.5,-155.1848 8.5,-155.1848"/>
<text text-anchor="start" x="11.5" y="-161.2848" font-family="Helvetica,sans-Serif" font-size="11.00" fill="#000000">...</text>
<polygon fill="#ffffff" stroke="transparent" points="8.5,-136.1848 8.5,-155.1848 66.5,-155.1848 66.5,-136.1848 8.5,-136.1848"/>
<polygon fill="none" stroke="#000000" points="8.5,-136.1848 8.5,-155.1848 66.5,-155.1848 66.5,-136.1848 8.5,-136.1848"/>
<text text-anchor="start" x="11.5" y="-142.2848" font-family="Helvetica,sans-Serif" font-size="11.00" fill="#000000"> &#160;</text>
<polygon fill="#ffffff" stroke="transparent" points="66.5,-136.1848 66.5,-155.1848 101.5,-155.1848 101.5,-136.1848 66.5,-136.1848"/>
<polygon fill="none" stroke="#000000" points="66.5,-136.1848 66.5,-155.1848 101.5,-155.1848 101.5,-136.1848 66.5,-136.1848"/>
<text text-anchor="start" x="92.3862" y="-142.2848" font-family="Helvetica,sans-Serif" font-size="11.00" fill="#000000"> &#160;</text>
<polygon fill="#ffffff" stroke="transparent" points="101.5,-136.1848 101.5,-155.1848 145.5,-155.1848 145.5,-136.1848 101.5,-136.1848"/>
<polygon fill="none" stroke="#000000" points="101.5,-136.1848 101.5,-155.1848 145.5,-155.1848 145.5,-136.1848 101.5,-136.1848"/>
<text text-anchor="start" x="126.9053" y="-142.2848" font-family="Helvetica,sans-Serif" font-size="11.00" fill="#000000">4 &gt;</text>
</a>
</g>
</g>
<!-- act_ru_execution&#45;&gt;act_re_procdef -->
<g id="edge2" class="edge">
<title>act_ru_execution:w&#45;&gt;act_re_procdef:e</title>
<path fill="none" stroke="#000000" d="M179.2829,-164.1848C168.2886,-164.1848 161.1615,-164.1848 145.5,-164.1848"/>
<polygon fill="#000000" stroke="#000000" points="186,-164.1849 194,-167.7848 190,-164.1848 194,-164.1848 194,-164.1848 194,-164.1848 190,-164.1848 194,-160.5848 186,-164.1849 186,-164.1849"/>
<ellipse fill="none" stroke="#000000" cx="182.8" cy="-164.1849" rx="3.2" ry="3.2"/>
</g>
<!-- act_ru_ext_task -->
<g id="node4" class="node">
<title>act_ru_ext_task</title>
<g id="a_node4"><a xlink:href="../../tables/act_ru_ext_task.html" xlink:title="act_ru_ext_task" target="_top">
<polygon fill="#ffffff" stroke="transparent" points="446.5,-215.6848 446.5,-276.6848 588.5,-276.6848 588.5,-215.6848 446.5,-215.6848"/>
<polygon fill="#f5f5f5" stroke="transparent" points="446.5,-253.1848 446.5,-276.1848 588.5,-276.1848 588.5,-253.1848 446.5,-253.1848"/>
<polygon fill="none" stroke="#000000" points="446.5,-253.1848 446.5,-276.1848 588.5,-276.1848 588.5,-253.1848 446.5,-253.1848"/>
<text text-anchor="start" x="451.5" y="-261.7848" font-family="Helvetica,sans-Serif" font-weight="bold" font-size="11.00" fill="#000000">act_ru_ext_task</text>
<text text-anchor="start" x="554.0219" y="-261.2848" font-family="Helvetica,sans-Serif" font-size="11.00" fill="#000000">[table]</text>
<polygon fill="none" stroke="#000000" points="446.5,-234.1848 446.5,-253.1848 588.5,-253.1848 588.5,-234.1848 446.5,-234.1848"/>
<text text-anchor="start" x="449.5" y="-240.2848" font-family="Helvetica,sans-Serif" font-size="11.00" fill="#000000">...</text>
<polygon fill="#ffffff" stroke="transparent" points="446.5,-215.1848 446.5,-234.1848 515.5,-234.1848 515.5,-215.1848 446.5,-215.1848"/>
<polygon fill="none" stroke="#000000" points="446.5,-215.1848 446.5,-234.1848 515.5,-234.1848 515.5,-215.1848 446.5,-215.1848"/>
<text text-anchor="start" x="449.5" y="-221.2848" font-family="Helvetica,sans-Serif" font-size="11.00" fill="#000000">&lt; 2</text>
<polygon fill="#ffffff" stroke="transparent" points="515.5,-215.1848 515.5,-234.1848 551.5,-234.1848 551.5,-215.1848 515.5,-215.1848"/>
<polygon fill="none" stroke="#000000" points="515.5,-215.1848 515.5,-234.1848 551.5,-234.1848 551.5,-215.1848 515.5,-215.1848"/>
<text text-anchor="start" x="542.3862" y="-221.2848" font-family="Helvetica,sans-Serif" font-size="11.00" fill="#000000"> &#160;</text>
<polygon fill="#ffffff" stroke="transparent" points="551.5,-215.1848 551.5,-234.1848 588.5,-234.1848 588.5,-215.1848 551.5,-215.1848"/>
<polygon fill="none" stroke="#000000" points="551.5,-215.1848 551.5,-234.1848 588.5,-234.1848 588.5,-215.1848 551.5,-215.1848"/>
<text text-anchor="start" x="579.3862" y="-221.2848" font-family="Helvetica,sans-Serif" font-size="11.00" fill="#000000"> &#160;</text>
</a>
</g>
</g>
<!-- act_ru_ext_task&#45;&gt;act_ru_execution -->
<g id="edge3" class="edge">
<title>act_ru_ext_task:w&#45;&gt;act_ru_execution:e</title>
<path fill="none" stroke="#000000" d="M432.0286,-244.2881C397.6579,-249.8104 387.4482,-274.1848 346,-274.1848"/>
<polygon fill="#000000" stroke="#000000" points="438.5231,-243.793 446.7737,-246.7744 442.5116,-243.4889 446.5,-243.1848 446.5,-243.1848 446.5,-243.1848 442.5116,-243.4889 446.2263,-239.5952 438.5231,-243.793 438.5231,-243.793"/>
<ellipse fill="none" stroke="#000000" cx="435.3324" cy="-244.0363" rx="3.2" ry="3.2"/>
</g>
<!-- act_ru_incident -->
<g id="node5" class="node">
<title>act_ru_incident</title>
<g id="a_node5"><a xlink:href="../../tables/act_ru_incident.html" xlink:title="act_ru_incident" target="_top">
<polygon fill="#ffffff" stroke="transparent" points="447,-585.6848 447,-646.6848 588,-646.6848 588,-585.6848 447,-585.6848"/>
<polygon fill="#f5f5f5" stroke="transparent" points="447.5,-623.1848 447.5,-646.1848 588.5,-646.1848 588.5,-623.1848 447.5,-623.1848"/>
<polygon fill="none" stroke="#000000" points="447.5,-623.1848 447.5,-646.1848 588.5,-646.1848 588.5,-623.1848 447.5,-623.1848"/>
<text text-anchor="start" x="452.5" y="-631.7848" font-family="Helvetica,sans-Serif" font-weight="bold" font-size="11.00" fill="#000000">act_ru_incident</text>
<text text-anchor="start" x="554.0219" y="-631.2848" font-family="Helvetica,sans-Serif" font-size="11.00" fill="#000000">[table]</text>
<polygon fill="none" stroke="#000000" points="447.5,-604.1848 447.5,-623.1848 588.5,-623.1848 588.5,-604.1848 447.5,-604.1848"/>
<text text-anchor="start" x="450.5" y="-610.2848" font-family="Helvetica,sans-Serif" font-size="11.00" fill="#000000">...</text>
<polygon fill="#ffffff" stroke="transparent" points="447.5,-585.1848 447.5,-604.1848 511.5,-604.1848 511.5,-585.1848 447.5,-585.1848"/>
<polygon fill="none" stroke="#000000" points="447.5,-585.1848 447.5,-604.1848 511.5,-604.1848 511.5,-585.1848 447.5,-585.1848"/>
<text text-anchor="start" x="450.5" y="-591.2848" font-family="Helvetica,sans-Serif" font-size="11.00" fill="#000000">&lt; 6</text>
<polygon fill="#ffffff" stroke="transparent" points="511.5,-585.1848 511.5,-604.1848 545.5,-604.1848 545.5,-585.1848 511.5,-585.1848"/>
<polygon fill="none" stroke="#000000" points="511.5,-585.1848 511.5,-604.1848 545.5,-604.1848 545.5,-585.1848 511.5,-585.1848"/>
<text text-anchor="start" x="536.3862" y="-591.2848" font-family="Helvetica,sans-Serif" font-size="11.00" fill="#000000"> &#160;</text>
<polygon fill="#ffffff" stroke="transparent" points="545.5,-585.1848 545.5,-604.1848 588.5,-604.1848 588.5,-585.1848 545.5,-585.1848"/>
<polygon fill="none" stroke="#000000" points="545.5,-585.1848 545.5,-604.1848 588.5,-604.1848 588.5,-585.1848 545.5,-585.1848"/>
<text text-anchor="start" x="569.9053" y="-591.2848" font-family="Helvetica,sans-Serif" font-size="11.00" fill="#000000">2 &gt;</text>
</a>
</g>
</g>
<!-- act_ru_incident&#45;&gt;act_ru_execution -->
<g id="edge4" class="edge">
<title>act_ru_incident:w&#45;&gt;act_ru_execution:e</title>
<path fill="none" stroke="#000000" d="M433.3895,-609.7582C411.8078,-603.0589 401.3834,-591.4934 387,-569.1848 350.4194,-512.4486 413.5066,-268.1848 346,-274.1848"/>
<polygon fill="#000000" stroke="#000000" points="439.7259,-611.2969 446.6505,-616.6831 443.613,-612.2409 447.5,-613.1848 447.5,-613.1848 447.5,-613.1848 443.613,-612.2409 448.3495,-609.6865 439.7259,-611.2969 439.7259,-611.2969"/>
<ellipse fill="none" stroke="#000000" cx="436.6163" cy="-610.5418" rx="3.2" ry="3.2"/>
</g>
<!-- act_ru_incident&#45;&gt;act_ru_execution -->
<g id="edge6" class="edge">
<title>act_ru_incident:w&#45;&gt;act_ru_execution:e</title>
<path fill="none" stroke="#000000" d="M433.0876,-615.1761C411.7103,-615.9506 401.3162,-604.3891 387,-582.1848 350.4194,-525.4486 413.5066,-281.1848 346,-274.1848"/>
<polygon fill="#000000" stroke="#000000" points="439.5753,-614.2798 447.9927,-616.7509 443.5376,-613.7323 447.5,-613.1848 447.5,-613.1848 447.5,-613.1848 443.5376,-613.7323 447.0073,-609.6187 439.5753,-614.2798 439.5753,-614.2798"/>
<ellipse fill="none" stroke="#000000" cx="436.4054" cy="-614.7177" rx="3.2" ry="3.2"/>
</g>
<!-- act_ru_incident&#45;&gt;act_re_procdef -->
<g id="edge5" class="edge">
<title>act_ru_incident:w&#45;&gt;act_re_procdef:e</title>
<path fill="none" stroke="#000000" d="M432.8907,-612.7429C327.4794,-606.1478 288.1167,-524.9837 186,-319.1848 154.3519,-255.4034 216.7017,-164.1848 145.5,-164.1848"/>
<polygon fill="#000000" stroke="#000000" points="439.5037,-612.9429 447.3911,-616.7832 443.5018,-613.0639 447.5,-613.1848 447.5,-613.1848 447.5,-613.1848 443.5018,-613.0639 447.6089,-609.5865 439.5037,-612.9429 439.5037,-612.9429"/>
<ellipse fill="none" stroke="#000000" cx="436.3051" cy="-612.8461" rx="3.2" ry="3.2"/>
</g>
<!-- act_ru_task -->
<g id="node6" class="node">
<title>act_ru_task</title>
<g id="a_node6"><a xlink:href="../../tables/act_ru_task.html" xlink:title="act_ru_task" target="_top">
<polygon fill="#ffffff" stroke="transparent" points="460,-51.6848 460,-112.6848 575,-112.6848 575,-51.6848 460,-51.6848"/>
<polygon fill="#f5f5f5" stroke="transparent" points="460.5,-89.1848 460.5,-112.1848 575.5,-112.1848 575.5,-89.1848 460.5,-89.1848"/>
<polygon fill="none" stroke="#000000" points="460.5,-89.1848 460.5,-112.1848 575.5,-112.1848 575.5,-89.1848 460.5,-89.1848"/>
<text text-anchor="start" x="465.5" y="-97.7848" font-family="Helvetica,sans-Serif" font-weight="bold" font-size="11.00" fill="#000000">act_ru_task</text>
<text text-anchor="start" x="541.0219" y="-97.2848" font-family="Helvetica,sans-Serif" font-size="11.00" fill="#000000">[table]</text>
<polygon fill="none" stroke="#000000" points="460.5,-70.1848 460.5,-89.1848 575.5,-89.1848 575.5,-70.1848 460.5,-70.1848"/>
<text text-anchor="start" x="463.5" y="-76.2848" font-family="Helvetica,sans-Serif" font-size="11.00" fill="#000000">...</text>
<polygon fill="#ffffff" stroke="transparent" points="460.5,-51.1848 460.5,-70.1848 511.5,-70.1848 511.5,-51.1848 460.5,-51.1848"/>
<polygon fill="none" stroke="#000000" points="460.5,-51.1848 460.5,-70.1848 511.5,-70.1848 511.5,-51.1848 460.5,-51.1848"/>
<text text-anchor="start" x="463.5" y="-57.2848" font-family="Helvetica,sans-Serif" font-size="11.00" fill="#000000">&lt; 5</text>
<polygon fill="#ffffff" stroke="transparent" points="511.5,-51.1848 511.5,-70.1848 538.5,-70.1848 538.5,-51.1848 511.5,-51.1848"/>
<polygon fill="none" stroke="#000000" points="511.5,-51.1848 511.5,-70.1848 538.5,-70.1848 538.5,-51.1848 511.5,-51.1848"/>
<text text-anchor="start" x="529.3862" y="-57.2848" font-family="Helvetica,sans-Serif" font-size="11.00" fill="#000000"> &#160;</text>
<polygon fill="#ffffff" stroke="transparent" points="538.5,-51.1848 538.5,-70.1848 575.5,-70.1848 575.5,-51.1848 538.5,-51.1848"/>
<polygon fill="none" stroke="#000000" points="538.5,-51.1848 538.5,-70.1848 575.5,-70.1848 575.5,-51.1848 538.5,-51.1848"/>
<text text-anchor="start" x="556.9053" y="-57.2848" font-family="Helvetica,sans-Serif" font-size="11.00" fill="#000000">1 &gt;</text>
</a>
</g>
</g>
<!-- act_ru_task&#45;&gt;act_ru_execution -->
<g id="edge7" class="edge">
<title>act_ru_task:w&#45;&gt;act_ru_execution:e</title>
<path fill="none" stroke="#000000" d="M445.8582,-77.8112C418.7202,-77.3543 406.7554,-91.1034 387,-117.1848 345.0114,-172.6187 415.541,-268.1848 346,-274.1848"/>
<polygon fill="#000000" stroke="#000000" points="452.535,-78.4375 460.1637,-82.7691 456.5175,-78.8112 460.5,-79.1848 460.5,-79.1848 460.5,-79.1848 456.5175,-78.8112 460.8363,-75.6005 452.535,-78.4375 452.535,-78.4375"/>
<ellipse fill="none" stroke="#000000" cx="449.349" cy="-78.1386" rx="3.2" ry="3.2"/>
</g>
<!-- act_ru_task&#45;&gt;act_ru_execution -->
<g id="edge9" class="edge">
<title>act_ru_task:w&#45;&gt;act_ru_execution:e</title>
<path fill="none" stroke="#000000" d="M446.2292,-82.4545C418.8288,-90.2296 406.8452,-103.9849 387,-130.1848 345.0114,-185.6187 415.541,-281.1848 346,-274.1848"/>
<polygon fill="#000000" stroke="#000000" points="452.7021,-80.9715 461.304,-82.6939 456.601,-80.0782 460.5,-79.1848 460.5,-79.1848 460.5,-79.1848 456.601,-80.0782 459.696,-75.6757 452.7021,-80.9715 452.7021,-80.9715"/>
<ellipse fill="none" stroke="#000000" cx="449.5829" cy="-81.6862" rx="3.2" ry="3.2"/>
</g>
<!-- act_ru_task&#45;&gt;act_re_procdef -->
<g id="edge8" class="edge">
<title>act_ru_task:w&#45;&gt;act_re_procdef:e</title>
<path fill="none" stroke="#000000" d="M445.8063,-78.7633C333.9543,-72.3231 282.8953,4.8322 186,-61.1848 145.349,-88.8813 194.6895,-164.1848 145.5,-164.1848"/>
<polygon fill="#000000" stroke="#000000" points="452.5033,-78.9553 460.3967,-82.7833 456.5016,-79.0701 460.5,-79.1848 460.5,-79.1848 460.5,-79.1848 456.5016,-79.0701 460.6033,-75.5863 452.5033,-78.9553 452.5033,-78.9553"/>
<ellipse fill="none" stroke="#000000" cx="449.3046" cy="-78.8636" rx="3.2" ry="3.2"/>
</g>
<!-- act_ru_variable -->
<g id="node7" class="node">
<title>act_ru_variable</title>
<g id="a_node7"><a xlink:href="../../tables/act_ru_variable.html" xlink:title="act_ru_variable" target="_top">
<polygon fill="#ffffff" stroke="transparent" points="447,-133.6848 447,-194.6848 588,-194.6848 588,-133.6848 447,-133.6848"/>
<polygon fill="#f5f5f5" stroke="transparent" points="447.5,-171.1848 447.5,-194.1848 588.5,-194.1848 588.5,-171.1848 447.5,-171.1848"/>
<polygon fill="none" stroke="#000000" points="447.5,-171.1848 447.5,-194.1848 588.5,-194.1848 588.5,-171.1848 447.5,-171.1848"/>
<text text-anchor="start" x="452.5" y="-179.7848" font-family="Helvetica,sans-Serif" font-weight="bold" font-size="11.00" fill="#000000">act_ru_variable</text>
<text text-anchor="start" x="554.0219" y="-179.2848" font-family="Helvetica,sans-Serif" font-size="11.00" fill="#000000">[table]</text>
<polygon fill="none" stroke="#000000" points="447.5,-152.1848 447.5,-171.1848 588.5,-171.1848 588.5,-152.1848 447.5,-152.1848"/>
<text text-anchor="start" x="450.5" y="-158.2848" font-family="Helvetica,sans-Serif" font-size="11.00" fill="#000000">...</text>
<polygon fill="#ffffff" stroke="transparent" points="447.5,-133.1848 447.5,-152.1848 516.5,-152.1848 516.5,-133.1848 447.5,-133.1848"/>
<polygon fill="none" stroke="#000000" points="447.5,-133.1848 447.5,-152.1848 516.5,-152.1848 516.5,-133.1848 447.5,-133.1848"/>
<text text-anchor="start" x="450.5" y="-139.2848" font-family="Helvetica,sans-Serif" font-size="11.00" fill="#000000">&lt; 6</text>
<polygon fill="#ffffff" stroke="transparent" points="516.5,-133.1848 516.5,-152.1848 552.5,-152.1848 552.5,-133.1848 516.5,-133.1848"/>
<polygon fill="none" stroke="#000000" points="516.5,-133.1848 516.5,-152.1848 552.5,-152.1848 552.5,-133.1848 516.5,-133.1848"/>
<text text-anchor="start" x="543.3862" y="-139.2848" font-family="Helvetica,sans-Serif" font-size="11.00" fill="#000000"> &#160;</text>
<polygon fill="#ffffff" stroke="transparent" points="552.5,-133.1848 552.5,-152.1848 588.5,-152.1848 588.5,-133.1848 552.5,-133.1848"/>
<polygon fill="none" stroke="#000000" points="552.5,-133.1848 552.5,-152.1848 588.5,-152.1848 588.5,-133.1848 552.5,-133.1848"/>
<text text-anchor="start" x="579.3862" y="-139.2848" font-family="Helvetica,sans-Serif" font-size="11.00" fill="#000000"> &#160;</text>
</a>
</g>
</g>
<!-- act_ru_variable&#45;&gt;act_ru_execution -->
<g id="edge10" class="edge">
<title>act_ru_variable:w&#45;&gt;act_ru_execution:e</title>
<path fill="none" stroke="#000000" d="M432.9316,-160.2174C412.1258,-161.8561 405.6342,-178.739 387,-199.1848 362.9712,-225.5498 381.672,-268.1848 346,-274.1848"/>
<polygon fill="#000000" stroke="#000000" points="439.5176,-160.6547 447.2614,-164.7769 443.5088,-160.9197 447.5,-161.1848 447.5,-161.1848 447.5,-161.1848 443.5088,-160.9197 447.7386,-157.5927 439.5176,-160.6547 439.5176,-160.6547"/>
<ellipse fill="none" stroke="#000000" cx="436.3246" cy="-160.4426" rx="3.2" ry="3.2"/>
</g>
<!-- act_ru_variable&#45;&gt;act_ru_execution -->
<g id="edge11" class="edge">
<title>act_ru_variable:w&#45;&gt;act_ru_execution:e</title>
<path fill="none" stroke="#000000" d="M433.5214,-165.4744C412.2466,-174.5394 405.8091,-191.547 387,-212.1848 362.9712,-238.5498 381.672,-281.1848 346,-274.1848"/>
<polygon fill="#000000" stroke="#000000" points="439.852,-163.5318 448.5561,-164.6264 443.676,-162.3583 447.5,-161.1848 447.5,-161.1848 447.5,-161.1848 443.676,-162.3583 446.4439,-157.7432 439.852,-163.5318 439.852,-163.5318"/>
<ellipse fill="none" stroke="#000000" cx="436.7928" cy="-164.4706" rx="3.2" ry="3.2"/>
</g>
</g>
</svg>
