<?xml version="1.0" encoding="UTF-8" standalone="no"?>
<!DOCTYPE svg PUBLIC "-//W3C//DTD SVG 1.1//EN"
 "http://www.w3.org/Graphics/SVG/1.1/DTD/svg11.dtd">
<!-- Generated by graphviz version 2.40.1 (20161225.0304)
 -->
<!-- Title: twoDegreesRelationshipsDiagram Pages: 1 -->
<svg width="446pt" height="327pt"
 viewBox="0.00 0.00 446.00 326.70" xmlns="http://www.w3.org/2000/svg" xmlns:xlink="http://www.w3.org/1999/xlink">
<g id="graph0" class="graph" transform="scale(1 1) rotate(0) translate(4 322.7)">
<title>twoDegreesRelationshipsDiagram</title>
<polygon fill="#ffffff" stroke="transparent" points="-4,4 -4,-322.7 442,-322.7 442,4 -4,4"/>
<text text-anchor="middle" x="72.4936" y="-7.3" font-family="Helvetica,sans-Serif" font-size="11.00" fill="#000000">Generated by SchemaSpy</text>
<!-- act_id_tenant_member -->
<g id="node1" class="node">
<title>act_id_tenant_member</title>
<g id="a_node1"><a xlink:href="../../tables/act_id_tenant_member.html" xlink:title="act_id_tenant_member" target="_top">
<polygon fill="#ffffff" stroke="transparent" points="239,-95.7 239,-225.7 430,-225.7 430,-95.7 239,-95.7"/>
<polygon fill="#f5f5f5" stroke="transparent" points="239.5,-202.7 239.5,-225.7 430.5,-225.7 430.5,-202.7 239.5,-202.7"/>
<polygon fill="none" stroke="#000000" points="239.5,-202.7 239.5,-225.7 430.5,-225.7 430.5,-202.7 239.5,-202.7"/>
<text text-anchor="start" x="244.5" y="-211.3" font-family="Helvetica,sans-Serif" font-weight="bold" font-size="11.00" fill="#000000">act_id_tenant_member</text>
<text text-anchor="start" x="396.0219" y="-210.8" font-family="Helvetica,sans-Serif" font-size="11.00" fill="#000000">[table]</text>
<polygon fill="none" stroke="#000000" points="239.5,-180.7 239.5,-202.7 430.5,-202.7 430.5,-180.7 239.5,-180.7"/>
<image xlink:href="../../images/primaryKeys.png" width="11px" height="12px" preserveAspectRatio="xMinYMin meet" x="244.5" y="-197.7"/>
<text text-anchor="start" x="268.5" y="-187.8" font-family="Helvetica,sans-Serif" font-size="11.00" fill="#000000">id_</text>
<polygon fill="#ffffff" stroke="transparent" points="239.5,-158.7 239.5,-180.7 430.5,-180.7 430.5,-158.7 239.5,-158.7"/>
<polygon fill="none" stroke="#000000" points="239.5,-158.7 239.5,-180.7 430.5,-180.7 430.5,-158.7 239.5,-158.7"/>
<image xlink:href="../../images/foreignKeys.png" width="11px" height="12px" preserveAspectRatio="xMinYMin meet" x="244.5" y="-175.7"/>
<text text-anchor="start" x="268.5" y="-165.8" font-family="Helvetica,sans-Serif" font-size="11.00" fill="#000000">tenant_id_</text>
<polygon fill="#ffffff" stroke="transparent" points="239.5,-136.7 239.5,-158.7 430.5,-158.7 430.5,-136.7 239.5,-136.7"/>
<polygon fill="none" stroke="#000000" points="239.5,-136.7 239.5,-158.7 430.5,-158.7 430.5,-136.7 239.5,-136.7"/>
<image xlink:href="../../images/foreignKeys.png" width="11px" height="12px" preserveAspectRatio="xMinYMin meet" x="244.5" y="-153.7"/>
<text text-anchor="start" x="268.5" y="-143.8" font-family="Helvetica,sans-Serif" font-size="11.00" fill="#000000">user_id_</text>
<polygon fill="#ffffff" stroke="transparent" points="239.5,-114.7 239.5,-136.7 430.5,-136.7 430.5,-114.7 239.5,-114.7"/>
<polygon fill="none" stroke="#000000" points="239.5,-114.7 239.5,-136.7 430.5,-136.7 430.5,-114.7 239.5,-114.7"/>
<image xlink:href="../../images/foreignKeys.png" width="11px" height="12px" preserveAspectRatio="xMinYMin meet" x="244.5" y="-131.7"/>
<text text-anchor="start" x="268.5" y="-121.8" font-family="Helvetica,sans-Serif" font-size="11.00" fill="#000000">group_id_</text>
<polygon fill="#ffffff" stroke="transparent" points="239.5,-95.7 239.5,-114.7 333.5,-114.7 333.5,-95.7 239.5,-95.7"/>
<polygon fill="none" stroke="#000000" points="239.5,-95.7 239.5,-114.7 333.5,-114.7 333.5,-95.7 239.5,-95.7"/>
<text text-anchor="start" x="242.5" y="-101.8" font-family="Helvetica,sans-Serif" font-size="11.00" fill="#000000">&lt; 3</text>
<polygon fill="#ffffff" stroke="transparent" points="333.5,-95.7 333.5,-114.7 381.5,-114.7 381.5,-95.7 333.5,-95.7"/>
<polygon fill="none" stroke="#000000" points="333.5,-95.7 333.5,-114.7 381.5,-114.7 381.5,-95.7 333.5,-95.7"/>
<text text-anchor="start" x="372.3862" y="-101.8" font-family="Helvetica,sans-Serif" font-size="11.00" fill="#000000"> &#160;</text>
<polygon fill="#ffffff" stroke="transparent" points="381.5,-95.7 381.5,-114.7 430.5,-114.7 430.5,-95.7 381.5,-95.7"/>
<polygon fill="none" stroke="#000000" points="381.5,-95.7 381.5,-114.7 430.5,-114.7 430.5,-95.7 381.5,-95.7"/>
<text text-anchor="start" x="421.3862" y="-101.8" font-family="Helvetica,sans-Serif" font-size="11.00" fill="#000000"> &#160;</text>
</a>
</g>
</g>
<!-- act_id_group -->
<g id="node2" class="node">
<title>act_id_group</title>
<g id="a_node2"><a xlink:href="../../tables/act_id_group.html" xlink:title="act_id_group" target="_top">
<polygon fill="#ffffff" stroke="transparent" points="37,-38.2 37,-99.2 161,-99.2 161,-38.2 37,-38.2"/>
<polygon fill="#f5f5f5" stroke="transparent" points="37,-75.7 37,-98.7 161,-98.7 161,-75.7 37,-75.7"/>
<polygon fill="none" stroke="#000000" points="37,-75.7 37,-98.7 161,-98.7 161,-75.7 37,-75.7"/>
<text text-anchor="start" x="42" y="-84.3" font-family="Helvetica,sans-Serif" font-weight="bold" font-size="11.00" fill="#000000">act_id_group</text>
<text text-anchor="start" x="126.5219" y="-83.8" font-family="Helvetica,sans-Serif" font-size="11.00" fill="#000000">[table]</text>
<polygon fill="none" stroke="#000000" points="37,-56.7 37,-75.7 161,-75.7 161,-56.7 37,-56.7"/>
<text text-anchor="start" x="40" y="-62.8" font-family="Helvetica,sans-Serif" font-size="11.00" fill="#000000">...</text>
<polygon fill="#ffffff" stroke="transparent" points="37,-37.7 37,-56.7 88,-56.7 88,-37.7 37,-37.7"/>
<polygon fill="none" stroke="#000000" points="37,-37.7 37,-56.7 88,-56.7 88,-37.7 37,-37.7"/>
<text text-anchor="start" x="40" y="-43.8" font-family="Helvetica,sans-Serif" font-size="11.00" fill="#000000"> &#160;</text>
<polygon fill="#ffffff" stroke="transparent" points="88,-37.7 88,-56.7 120,-56.7 120,-37.7 88,-37.7"/>
<polygon fill="none" stroke="#000000" points="88,-37.7 88,-56.7 120,-56.7 120,-37.7 88,-37.7"/>
<text text-anchor="start" x="110.8862" y="-43.8" font-family="Helvetica,sans-Serif" font-size="11.00" fill="#000000"> &#160;</text>
<polygon fill="#ffffff" stroke="transparent" points="120,-37.7 120,-56.7 161,-56.7 161,-37.7 120,-37.7"/>
<polygon fill="none" stroke="#000000" points="120,-37.7 120,-56.7 161,-56.7 161,-37.7 120,-37.7"/>
<text text-anchor="start" x="142.4053" y="-43.8" font-family="Helvetica,sans-Serif" font-size="11.00" fill="#000000">2 &gt;</text>
</a>
</g>
</g>
<!-- act_id_tenant_member&#45;&gt;act_id_group -->
<g id="edge1" class="edge">
<title>act_id_tenant_member:w&#45;&gt;act_id_group:e</title>
<path fill="none" stroke="#000000" d="M225.3203,-123.1219C197.0867,-111.6375 199.4238,-65.7 161,-65.7"/>
<polygon fill="#000000" stroke="#000000" points="231.629,-124.2689 238.856,-129.2419 235.5645,-124.9844 239.5,-125.7 239.5,-125.7 239.5,-125.7 235.5645,-124.9844 240.144,-122.1581 231.629,-124.2689 231.629,-124.2689"/>
<ellipse fill="none" stroke="#000000" cx="228.4807" cy="-123.6964" rx="3.2" ry="3.2"/>
</g>
<!-- act_id_tenant -->
<g id="node3" class="node">
<title>act_id_tenant</title>
<g id="a_node3"><a xlink:href="../../tables/act_id_tenant.html" xlink:title="act_id_tenant" target="_top">
<polygon fill="#ffffff" stroke="transparent" points="8,-202.7 8,-314.7 190,-314.7 190,-202.7 8,-202.7"/>
<polygon fill="#f5f5f5" stroke="transparent" points="10,-289.7 10,-312.7 188,-312.7 188,-289.7 10,-289.7"/>
<polygon fill="none" stroke="#000000" points="10,-289.7 10,-312.7 188,-312.7 188,-289.7 10,-289.7"/>
<text text-anchor="start" x="15" y="-298.3" font-family="Helvetica,sans-Serif" font-weight="bold" font-size="11.00" fill="#000000">act_id_tenant</text>
<text text-anchor="start" x="153.0437" y="-297.8" font-family="Helvetica,sans-Serif" font-size="11.00" fill="#000000">[table]</text>
<polygon fill="none" stroke="#000000" points="10,-267.7 10,-289.7 121,-289.7 121,-267.7 10,-267.7"/>
<image xlink:href="../../images/primaryKeys.png" width="11px" height="12px" preserveAspectRatio="xMinYMin meet" x="15" y="-284.7"/>
<text text-anchor="start" x="30" y="-274.8" font-family="Helvetica,sans-Serif" font-size="11.00" fill="#000000">id_</text>
<polygon fill="none" stroke="#000000" points="121,-267.7 121,-289.7 188,-289.7 188,-267.7 121,-267.7"/>
<text text-anchor="start" x="124" y="-275.4" font-family="Helvetica,sans-Serif" font-size="11.00" fill="#000000">varchar[64]</text>
<polygon fill="none" stroke="#000000" points="10,-245.7 10,-267.7 121,-267.7 121,-245.7 10,-245.7"/>
<text text-anchor="start" x="30" y="-252.8" font-family="Helvetica,sans-Serif" font-size="11.00" fill="#000000">rev_</text>
<polygon fill="none" stroke="#000000" points="121,-245.7 121,-267.7 188,-267.7 188,-245.7 121,-245.7"/>
<text text-anchor="start" x="124" y="-253.4" font-family="Helvetica,sans-Serif" font-size="11.00" fill="#000000">int4[10]</text>
<polygon fill="none" stroke="#000000" points="10,-223.7 10,-245.7 121,-245.7 121,-223.7 10,-223.7"/>
<text text-anchor="start" x="30" y="-230.8" font-family="Helvetica,sans-Serif" font-size="11.00" fill="#000000">name_</text>
<polygon fill="none" stroke="#000000" points="121,-223.7 121,-245.7 188,-245.7 188,-223.7 121,-223.7"/>
<text text-anchor="start" x="123.9365" y="-231.4" font-family="Helvetica,sans-Serif" font-size="11.00" fill="#000000">varchar[255]</text>
<polygon fill="#ffffff" stroke="transparent" points="10,-204.7 10,-223.7 70,-223.7 70,-204.7 10,-204.7"/>
<polygon fill="none" stroke="#000000" points="10,-204.7 10,-223.7 70,-223.7 70,-204.7 10,-204.7"/>
<text text-anchor="start" x="13" y="-210.8" font-family="Helvetica,sans-Serif" font-size="11.00" fill="#000000">&lt; 0</text>
<polygon fill="#ffffff" stroke="transparent" points="70,-204.7 70,-223.7 121,-223.7 121,-204.7 70,-204.7"/>
<polygon fill="none" stroke="#000000" points="70,-204.7 70,-223.7 121,-223.7 121,-204.7 70,-204.7"/>
<text text-anchor="start" x="111.8862" y="-210.8" font-family="Helvetica,sans-Serif" font-size="11.00" fill="#000000"> &#160;</text>
<polygon fill="#ffffff" stroke="transparent" points="121,-204.7 121,-223.7 188,-223.7 188,-204.7 121,-204.7"/>
<polygon fill="none" stroke="#000000" points="121,-204.7 121,-223.7 188,-223.7 188,-204.7 121,-204.7"/>
<text text-anchor="start" x="169.4053" y="-210.8" font-family="Helvetica,sans-Serif" font-size="11.00" fill="#000000">1 &gt;</text>
<polygon fill="none" stroke="#000000" stroke-width="2" points="9,-203.7 9,-313.7 189,-313.7 189,-203.7 9,-203.7"/>
</a>
</g>
</g>
<!-- act_id_tenant_member&#45;&gt;act_id_tenant -->
<g id="edge2" class="edge">
<title>act_id_tenant_member:w&#45;&gt;act_id_tenant:e</title>
<path fill="none" stroke="#000000" d="M225.5538,-173.3266C196.7891,-192.2398 235.7193,-278.7 188,-278.7"/>
<polygon fill="#000000" stroke="#000000" points="231.7575,-171.7134 240.406,-173.1841 235.6288,-170.7067 239.5,-169.7 239.5,-169.7 239.5,-169.7 235.6288,-170.7067 238.594,-166.2159 231.7575,-171.7134 231.7575,-171.7134"/>
<ellipse fill="none" stroke="#000000" cx="228.6605" cy="-172.5188" rx="3.2" ry="3.2"/>
</g>
<!-- act_id_user -->
<g id="node4" class="node">
<title>act_id_user</title>
<g id="a_node4"><a xlink:href="../../tables/act_id_user.html" xlink:title="act_id_user" target="_top">
<polygon fill="#ffffff" stroke="transparent" points="42,-120.2 42,-181.2 156,-181.2 156,-120.2 42,-120.2"/>
<polygon fill="#f5f5f5" stroke="transparent" points="42,-157.7 42,-180.7 156,-180.7 156,-157.7 42,-157.7"/>
<polygon fill="none" stroke="#000000" points="42,-157.7 42,-180.7 156,-180.7 156,-157.7 42,-157.7"/>
<text text-anchor="start" x="47" y="-166.3" font-family="Helvetica,sans-Serif" font-weight="bold" font-size="11.00" fill="#000000">act_id_user</text>
<text text-anchor="start" x="121.5219" y="-165.8" font-family="Helvetica,sans-Serif" font-size="11.00" fill="#000000">[table]</text>
<polygon fill="none" stroke="#000000" points="42,-138.7 42,-157.7 156,-157.7 156,-138.7 42,-138.7"/>
<text text-anchor="start" x="45" y="-144.8" font-family="Helvetica,sans-Serif" font-size="11.00" fill="#000000">...</text>
<polygon fill="#ffffff" stroke="transparent" points="42,-119.7 42,-138.7 88,-138.7 88,-119.7 42,-119.7"/>
<polygon fill="none" stroke="#000000" points="42,-119.7 42,-138.7 88,-138.7 88,-119.7 42,-119.7"/>
<text text-anchor="start" x="45" y="-125.8" font-family="Helvetica,sans-Serif" font-size="11.00" fill="#000000"> &#160;</text>
<polygon fill="#ffffff" stroke="transparent" points="88,-119.7 88,-138.7 117,-138.7 117,-119.7 88,-119.7"/>
<polygon fill="none" stroke="#000000" points="88,-119.7 88,-138.7 117,-138.7 117,-119.7 88,-119.7"/>
<text text-anchor="start" x="107.8862" y="-125.8" font-family="Helvetica,sans-Serif" font-size="11.00" fill="#000000"> &#160;</text>
<polygon fill="#ffffff" stroke="transparent" points="117,-119.7 117,-138.7 156,-138.7 156,-119.7 117,-119.7"/>
<polygon fill="none" stroke="#000000" points="117,-119.7 117,-138.7 156,-138.7 156,-119.7 117,-119.7"/>
<text text-anchor="start" x="137.4053" y="-125.8" font-family="Helvetica,sans-Serif" font-size="11.00" fill="#000000">2 &gt;</text>
</a>
</g>
</g>
<!-- act_id_tenant_member&#45;&gt;act_id_user -->
<g id="edge3" class="edge">
<title>act_id_tenant_member:w&#45;&gt;act_id_user:e</title>
<path fill="none" stroke="#000000" d="M224.985,-147.7C199.1256,-147.7 187.7474,-147.7 156,-147.7"/>
<polygon fill="#000000" stroke="#000000" points="231.5,-147.7001 239.5,-151.3 235.5,-147.7 239.5,-147.7 239.5,-147.7 239.5,-147.7 235.5,-147.7 239.5,-144.1 231.5,-147.7001 231.5,-147.7001"/>
<ellipse fill="none" stroke="#000000" cx="228.3" cy="-147.7001" rx="3.2" ry="3.2"/>
</g>
</g>
</svg>
