<?xml version="1.0" encoding="UTF-8" standalone="no"?>
<!DOCTYPE svg PUBLIC "-//W3C//DTD SVG 1.1//EN"
 "http://www.w3.org/Graphics/SVG/1.1/DTD/svg11.dtd">
<!-- Generated by graphviz version 2.40.1 (20161225.0304)
 -->
<!-- Title: twoDegreesRelationshipsDiagram Pages: 1 -->
<svg width="677pt" height="947pt"
 viewBox="0.00 0.00 677.00 947.20" xmlns="http://www.w3.org/2000/svg" xmlns:xlink="http://www.w3.org/1999/xlink">
<g id="graph0" class="graph" transform="scale(1 1) rotate(0) translate(4 943.2)">
<title>twoDegreesRelationshipsDiagram</title>
<polygon fill="#ffffff" stroke="transparent" points="-4,4 -4,-943.2 673,-943.2 673,4 -4,4"/>
<text text-anchor="middle" x="72.4936" y="-7.3" font-family="Helvetica,sans-Serif" font-size="11.00" fill="#000000">Generated by SchemaSpy</text>
<!-- act_ge_bytearray -->
<g id="node1" class="node">
<title>act_ge_bytearray</title>
<g id="a_node1"><a xlink:href="../../tables/act_ge_bytearray.html" xlink:title="act_ge_bytearray" target="_top">
<polygon fill="#ffffff" stroke="transparent" points="223,-548.2 223,-719.2 377,-719.2 377,-548.2 223,-548.2"/>
<polygon fill="#f5f5f5" stroke="transparent" points="223,-695.7 223,-718.7 377,-718.7 377,-695.7 223,-695.7"/>
<polygon fill="none" stroke="#000000" points="223,-695.7 223,-718.7 377,-718.7 377,-695.7 223,-695.7"/>
<text text-anchor="start" x="228" y="-704.3" font-family="Helvetica,sans-Serif" font-weight="bold" font-size="11.00" fill="#000000">act_ge_bytearray</text>
<text text-anchor="start" x="342.5219" y="-703.8" font-family="Helvetica,sans-Serif" font-size="11.00" fill="#000000">[table]</text>
<polygon fill="none" stroke="#000000" points="223,-673.7 223,-695.7 377,-695.7 377,-673.7 223,-673.7"/>
<image xlink:href="../../images/primaryKeys.png" width="11px" height="12px" preserveAspectRatio="xMinYMin meet" x="228" y="-690.7"/>
<text text-anchor="start" x="250" y="-680.8" font-family="Helvetica,sans-Serif" font-size="11.00" fill="#000000">id_</text>
<polygon fill="#ffffff" stroke="transparent" points="223,-651.7 223,-673.7 377,-673.7 377,-651.7 223,-651.7"/>
<polygon fill="none" stroke="#000000" points="223,-651.7 223,-673.7 377,-673.7 377,-651.7 223,-651.7"/>
<text text-anchor="start" x="250" y="-658.8" font-family="Helvetica,sans-Serif" font-size="11.00" fill="#000000">name_</text>
<polygon fill="#ffffff" stroke="transparent" points="223,-629.7 223,-651.7 377,-651.7 377,-629.7 223,-629.7"/>
<polygon fill="none" stroke="#000000" points="223,-629.7 223,-651.7 377,-651.7 377,-629.7 223,-629.7"/>
<image xlink:href="../../images/foreignKeys.png" width="11px" height="12px" preserveAspectRatio="xMinYMin meet" x="228" y="-646.7"/>
<text text-anchor="start" x="250" y="-636.8" font-family="Helvetica,sans-Serif" font-size="11.00" fill="#000000">deployment_id_</text>
<polygon fill="#ffffff" stroke="transparent" points="223,-607.7 223,-629.7 377,-629.7 377,-607.7 223,-607.7"/>
<polygon fill="none" stroke="#000000" points="223,-607.7 223,-629.7 377,-629.7 377,-607.7 223,-607.7"/>
<text text-anchor="start" x="250" y="-614.8" font-family="Helvetica,sans-Serif" font-size="11.00" fill="#000000">root_proc_inst_id_</text>
<polygon fill="#ffffff" stroke="transparent" points="223,-585.7 223,-607.7 377,-607.7 377,-585.7 223,-585.7"/>
<polygon fill="none" stroke="#000000" points="223,-585.7 223,-607.7 377,-607.7 377,-585.7 223,-585.7"/>
<text text-anchor="start" x="250" y="-592.8" font-family="Helvetica,sans-Serif" font-size="11.00" fill="#000000">removal_time_</text>
<polygon fill="none" stroke="#000000" points="223,-566.7 223,-585.7 377,-585.7 377,-566.7 223,-566.7"/>
<text text-anchor="start" x="226" y="-572.8" font-family="Helvetica,sans-Serif" font-size="11.00" fill="#000000">...</text>
<polygon fill="#ffffff" stroke="transparent" points="223,-547.7 223,-566.7 294,-566.7 294,-547.7 223,-547.7"/>
<polygon fill="none" stroke="#000000" points="223,-547.7 223,-566.7 294,-566.7 294,-547.7 223,-547.7"/>
<text text-anchor="start" x="226" y="-553.8" font-family="Helvetica,sans-Serif" font-size="11.00" fill="#000000">&lt; 1</text>
<polygon fill="#ffffff" stroke="transparent" points="294,-547.7 294,-566.7 331,-566.7 331,-547.7 294,-547.7"/>
<polygon fill="none" stroke="#000000" points="294,-547.7 294,-566.7 331,-566.7 331,-547.7 294,-547.7"/>
<text text-anchor="start" x="321.8862" y="-553.8" font-family="Helvetica,sans-Serif" font-size="11.00" fill="#000000"> &#160;</text>
<polygon fill="#ffffff" stroke="transparent" points="331,-547.7 331,-566.7 377,-566.7 377,-547.7 331,-547.7"/>
<polygon fill="none" stroke="#000000" points="331,-547.7 331,-566.7 377,-566.7 377,-547.7 331,-547.7"/>
<text text-anchor="start" x="358.4053" y="-553.8" font-family="Helvetica,sans-Serif" font-size="11.00" fill="#000000">3 &gt;</text>
</a>
</g>
</g>
<!-- act_re_deployment -->
<g id="node2" class="node">
<title>act_re_deployment</title>
<g id="a_node2"><a xlink:href="../../tables/act_re_deployment.html" xlink:title="act_re_deployment" target="_top">
<polygon fill="#ffffff" stroke="transparent" points="8,-613.2 8,-674.2 174,-674.2 174,-613.2 8,-613.2"/>
<polygon fill="#f5f5f5" stroke="transparent" points="8,-650.7 8,-673.7 174,-673.7 174,-650.7 8,-650.7"/>
<polygon fill="none" stroke="#000000" points="8,-650.7 8,-673.7 174,-673.7 174,-650.7 8,-650.7"/>
<text text-anchor="start" x="13" y="-659.3" font-family="Helvetica,sans-Serif" font-weight="bold" font-size="11.00" fill="#000000">act_re_deployment</text>
<text text-anchor="start" x="139.5219" y="-658.8" font-family="Helvetica,sans-Serif" font-size="11.00" fill="#000000">[table]</text>
<polygon fill="none" stroke="#000000" points="8,-631.7 8,-650.7 174,-650.7 174,-631.7 8,-631.7"/>
<text text-anchor="start" x="11" y="-637.8" font-family="Helvetica,sans-Serif" font-size="11.00" fill="#000000">...</text>
<polygon fill="#ffffff" stroke="transparent" points="8,-612.7 8,-631.7 80,-631.7 80,-612.7 8,-612.7"/>
<polygon fill="none" stroke="#000000" points="8,-612.7 8,-631.7 80,-631.7 80,-612.7 8,-612.7"/>
<text text-anchor="start" x="11" y="-618.8" font-family="Helvetica,sans-Serif" font-size="11.00" fill="#000000"> &#160;</text>
<polygon fill="#ffffff" stroke="transparent" points="80,-612.7 80,-631.7 122,-631.7 122,-612.7 80,-612.7"/>
<polygon fill="none" stroke="#000000" points="80,-612.7 80,-631.7 122,-631.7 122,-612.7 80,-612.7"/>
<text text-anchor="start" x="112.8862" y="-618.8" font-family="Helvetica,sans-Serif" font-size="11.00" fill="#000000"> &#160;</text>
<polygon fill="#ffffff" stroke="transparent" points="122,-612.7 122,-631.7 174,-631.7 174,-612.7 122,-612.7"/>
<polygon fill="none" stroke="#000000" points="122,-612.7 122,-631.7 174,-631.7 174,-612.7 122,-612.7"/>
<text text-anchor="start" x="155.4053" y="-618.8" font-family="Helvetica,sans-Serif" font-size="11.00" fill="#000000">1 &gt;</text>
</a>
</g>
</g>
<!-- act_ge_bytearray&#45;&gt;act_re_deployment -->
<g id="edge1" class="edge">
<title>act_ge_bytearray:w&#45;&gt;act_re_deployment:e</title>
<path fill="none" stroke="#000000" d="M208.4909,-640.7C197.1774,-640.7 189.9931,-640.7 174,-640.7"/>
<polygon fill="#000000" stroke="#000000" points="215,-640.7001 223,-644.3 219,-640.7 223,-640.7 223,-640.7 223,-640.7 219,-640.7 223,-637.1 215,-640.7001 215,-640.7001"/>
<ellipse fill="none" stroke="#000000" cx="211.8" cy="-640.7001" rx="3.2" ry="3.2"/>
</g>
<!-- act_ru_event_subscr -->
<g id="node3" class="node">
<title>act_ru_event_subscr</title>
<g id="a_node3"><a xlink:href="../../tables/act_ru_event_subscr.html" xlink:title="act_ru_event_subscr" target="_top">
<polygon fill="#ffffff" stroke="transparent" points="456,-224.2 456,-285.2 631,-285.2 631,-224.2 456,-224.2"/>
<polygon fill="#f5f5f5" stroke="transparent" points="456.5,-261.7 456.5,-284.7 631.5,-284.7 631.5,-261.7 456.5,-261.7"/>
<polygon fill="none" stroke="#000000" points="456.5,-261.7 456.5,-284.7 631.5,-284.7 631.5,-261.7 456.5,-261.7"/>
<text text-anchor="start" x="461.5" y="-270.3" font-family="Helvetica,sans-Serif" font-weight="bold" font-size="11.00" fill="#000000">act_ru_event_subscr</text>
<text text-anchor="start" x="597.0219" y="-269.8" font-family="Helvetica,sans-Serif" font-size="11.00" fill="#000000">[table]</text>
<polygon fill="none" stroke="#000000" points="456.5,-242.7 456.5,-261.7 631.5,-261.7 631.5,-242.7 456.5,-242.7"/>
<text text-anchor="start" x="459.5" y="-248.8" font-family="Helvetica,sans-Serif" font-size="11.00" fill="#000000">...</text>
<polygon fill="#ffffff" stroke="transparent" points="456.5,-223.7 456.5,-242.7 542.5,-242.7 542.5,-223.7 456.5,-223.7"/>
<polygon fill="none" stroke="#000000" points="456.5,-223.7 456.5,-242.7 542.5,-242.7 542.5,-223.7 456.5,-223.7"/>
<text text-anchor="start" x="459.5" y="-229.8" font-family="Helvetica,sans-Serif" font-size="11.00" fill="#000000">&lt; 1</text>
<polygon fill="#ffffff" stroke="transparent" points="542.5,-223.7 542.5,-242.7 586.5,-242.7 586.5,-223.7 542.5,-223.7"/>
<polygon fill="none" stroke="#000000" points="542.5,-223.7 542.5,-242.7 586.5,-242.7 586.5,-223.7 542.5,-223.7"/>
<text text-anchor="start" x="577.3862" y="-229.8" font-family="Helvetica,sans-Serif" font-size="11.00" fill="#000000"> &#160;</text>
<polygon fill="#ffffff" stroke="transparent" points="586.5,-223.7 586.5,-242.7 631.5,-242.7 631.5,-223.7 586.5,-223.7"/>
<polygon fill="none" stroke="#000000" points="586.5,-223.7 586.5,-242.7 631.5,-242.7 631.5,-223.7 586.5,-223.7"/>
<text text-anchor="start" x="622.3862" y="-229.8" font-family="Helvetica,sans-Serif" font-size="11.00" fill="#000000"> &#160;</text>
</a>
</g>
</g>
<!-- act_ru_execution -->
<g id="node4" class="node">
<title>act_ru_execution</title>
<g id="a_node4"><a xlink:href="../../tables/act_ru_execution.html" xlink:title="act_ru_execution" target="_top">
<polygon fill="#ffffff" stroke="transparent" points="224,-90.2 224,-327.2 376,-327.2 376,-90.2 224,-90.2"/>
<polygon fill="#f5f5f5" stroke="transparent" points="224,-303.7 224,-326.7 376,-326.7 376,-303.7 224,-303.7"/>
<polygon fill="none" stroke="#000000" points="224,-303.7 224,-326.7 376,-326.7 376,-303.7 224,-303.7"/>
<text text-anchor="start" x="229" y="-312.3" font-family="Helvetica,sans-Serif" font-weight="bold" font-size="11.00" fill="#000000">act_ru_execution</text>
<text text-anchor="start" x="341.5219" y="-311.8" font-family="Helvetica,sans-Serif" font-size="11.00" fill="#000000">[table]</text>
<polygon fill="none" stroke="#000000" points="224,-281.7 224,-303.7 376,-303.7 376,-281.7 224,-281.7"/>
<image xlink:href="../../images/primaryKeys.png" width="11px" height="12px" preserveAspectRatio="xMinYMin meet" x="229" y="-298.7"/>
<text text-anchor="start" x="246" y="-288.8" font-family="Helvetica,sans-Serif" font-size="11.00" fill="#000000">id_</text>
<polygon fill="#ffffff" stroke="transparent" points="224,-259.7 224,-281.7 376,-281.7 376,-259.7 224,-259.7"/>
<polygon fill="none" stroke="#000000" points="224,-259.7 224,-281.7 376,-281.7 376,-259.7 224,-259.7"/>
<text text-anchor="start" x="246" y="-266.8" font-family="Helvetica,sans-Serif" font-size="11.00" fill="#000000">root_proc_inst_id_</text>
<polygon fill="#ffffff" stroke="transparent" points="224,-237.7 224,-259.7 376,-259.7 376,-237.7 224,-237.7"/>
<polygon fill="none" stroke="#000000" points="224,-237.7 224,-259.7 376,-259.7 376,-237.7 224,-237.7"/>
<image xlink:href="../../images/foreignKeys.png" width="11px" height="12px" preserveAspectRatio="xMinYMin meet" x="229" y="-254.7"/>
<text text-anchor="start" x="246" y="-244.8" font-family="Helvetica,sans-Serif" font-size="11.00" fill="#000000">proc_inst_id_</text>
<polygon fill="#ffffff" stroke="transparent" points="224,-215.7 224,-237.7 376,-237.7 376,-215.7 224,-215.7"/>
<polygon fill="none" stroke="#000000" points="224,-215.7 224,-237.7 376,-237.7 376,-215.7 224,-215.7"/>
<text text-anchor="start" x="246" y="-222.8" font-family="Helvetica,sans-Serif" font-size="11.00" fill="#000000">business_key_</text>
<polygon fill="#ffffff" stroke="transparent" points="224,-193.7 224,-215.7 376,-215.7 376,-193.7 224,-193.7"/>
<polygon fill="none" stroke="#000000" points="224,-193.7 224,-215.7 376,-215.7 376,-193.7 224,-193.7"/>
<image xlink:href="../../images/foreignKeys.png" width="11px" height="12px" preserveAspectRatio="xMinYMin meet" x="229" y="-210.7"/>
<text text-anchor="start" x="246" y="-200.8" font-family="Helvetica,sans-Serif" font-size="11.00" fill="#000000">parent_id_</text>
<polygon fill="#ffffff" stroke="transparent" points="224,-171.7 224,-193.7 376,-193.7 376,-171.7 224,-171.7"/>
<polygon fill="none" stroke="#000000" points="224,-171.7 224,-193.7 376,-193.7 376,-171.7 224,-171.7"/>
<image xlink:href="../../images/foreignKeys.png" width="11px" height="12px" preserveAspectRatio="xMinYMin meet" x="229" y="-188.7"/>
<text text-anchor="start" x="246" y="-178.8" font-family="Helvetica,sans-Serif" font-size="11.00" fill="#000000">proc_def_id_</text>
<polygon fill="#ffffff" stroke="transparent" points="224,-149.7 224,-171.7 376,-171.7 376,-149.7 224,-149.7"/>
<polygon fill="none" stroke="#000000" points="224,-149.7 224,-171.7 376,-171.7 376,-149.7 224,-149.7"/>
<image xlink:href="../../images/foreignKeys.png" width="11px" height="12px" preserveAspectRatio="xMinYMin meet" x="229" y="-166.7"/>
<text text-anchor="start" x="246" y="-156.8" font-family="Helvetica,sans-Serif" font-size="11.00" fill="#000000">super_exec_</text>
<polygon fill="#ffffff" stroke="transparent" points="224,-127.7 224,-149.7 376,-149.7 376,-127.7 224,-127.7"/>
<polygon fill="none" stroke="#000000" points="224,-127.7 224,-149.7 376,-149.7 376,-127.7 224,-127.7"/>
<text text-anchor="start" x="246" y="-134.8" font-family="Helvetica,sans-Serif" font-size="11.00" fill="#000000">tenant_id_</text>
<polygon fill="none" stroke="#000000" points="224,-108.7 224,-127.7 376,-127.7 376,-108.7 224,-108.7"/>
<text text-anchor="start" x="227" y="-114.8" font-family="Helvetica,sans-Serif" font-size="11.00" fill="#000000">...</text>
<polygon fill="#ffffff" stroke="transparent" points="224,-89.7 224,-108.7 291,-108.7 291,-89.7 224,-89.7"/>
<polygon fill="none" stroke="#000000" points="224,-89.7 224,-108.7 291,-108.7 291,-89.7 224,-89.7"/>
<text text-anchor="start" x="227" y="-95.8" font-family="Helvetica,sans-Serif" font-size="11.00" fill="#000000">&lt; 4</text>
<polygon fill="#ffffff" stroke="transparent" points="291,-89.7 291,-108.7 326,-108.7 326,-89.7 291,-89.7"/>
<polygon fill="none" stroke="#000000" points="291,-89.7 291,-108.7 326,-108.7 326,-89.7 291,-89.7"/>
<text text-anchor="start" x="316.8862" y="-95.8" font-family="Helvetica,sans-Serif" font-size="11.00" fill="#000000"> &#160;</text>
<polygon fill="#ffffff" stroke="transparent" points="326,-89.7 326,-108.7 376,-108.7 376,-89.7 326,-89.7"/>
<polygon fill="none" stroke="#000000" points="326,-89.7 326,-108.7 376,-108.7 376,-89.7 326,-89.7"/>
<text text-anchor="start" x="351.2904" y="-95.8" font-family="Helvetica,sans-Serif" font-size="11.00" fill="#000000">11 &gt;</text>
</a>
</g>
</g>
<!-- act_ru_event_subscr&#45;&gt;act_ru_execution -->
<g id="edge2" class="edge">
<title>act_ru_event_subscr:w&#45;&gt;act_ru_execution:e</title>
<path fill="none" stroke="#000000" d="M442.068,-253.7896C415.5481,-262.1446 410.6616,-292.7 376,-292.7"/>
<polygon fill="#000000" stroke="#000000" points="448.5826,-252.8464 457.0159,-255.2628 452.5413,-252.2732 456.5,-251.7 456.5,-251.7 456.5,-251.7 452.5413,-252.2732 455.9841,-248.1372 448.5826,-252.8464 448.5826,-252.8464"/>
<ellipse fill="none" stroke="#000000" cx="445.4156" cy="-253.3049" rx="3.2" ry="3.2"/>
</g>
<!-- act_re_procdef -->
<g id="node5" class="node">
<title>act_re_procdef</title>
<g id="a_node5"><a xlink:href="../../tables/act_re_procdef.html" xlink:title="act_re_procdef" target="_top">
<polygon fill="#ffffff" stroke="transparent" points="22.5,-38.2 22.5,-99.2 159.5,-99.2 159.5,-38.2 22.5,-38.2"/>
<polygon fill="#f5f5f5" stroke="transparent" points="23,-75.7 23,-98.7 160,-98.7 160,-75.7 23,-75.7"/>
<polygon fill="none" stroke="#000000" points="23,-75.7 23,-98.7 160,-98.7 160,-75.7 23,-75.7"/>
<text text-anchor="start" x="28" y="-84.3" font-family="Helvetica,sans-Serif" font-weight="bold" font-size="11.00" fill="#000000">act_re_procdef</text>
<text text-anchor="start" x="125.5219" y="-83.8" font-family="Helvetica,sans-Serif" font-size="11.00" fill="#000000">[table]</text>
<polygon fill="none" stroke="#000000" points="23,-56.7 23,-75.7 160,-75.7 160,-56.7 23,-56.7"/>
<text text-anchor="start" x="26" y="-62.8" font-family="Helvetica,sans-Serif" font-size="11.00" fill="#000000">...</text>
<polygon fill="#ffffff" stroke="transparent" points="23,-37.7 23,-56.7 81,-56.7 81,-37.7 23,-37.7"/>
<polygon fill="none" stroke="#000000" points="23,-37.7 23,-56.7 81,-56.7 81,-37.7 23,-37.7"/>
<text text-anchor="start" x="26" y="-43.8" font-family="Helvetica,sans-Serif" font-size="11.00" fill="#000000"> &#160;</text>
<polygon fill="#ffffff" stroke="transparent" points="81,-37.7 81,-56.7 116,-56.7 116,-37.7 81,-37.7"/>
<polygon fill="none" stroke="#000000" points="81,-37.7 81,-56.7 116,-56.7 116,-37.7 81,-37.7"/>
<text text-anchor="start" x="106.8862" y="-43.8" font-family="Helvetica,sans-Serif" font-size="11.00" fill="#000000"> &#160;</text>
<polygon fill="#ffffff" stroke="transparent" points="116,-37.7 116,-56.7 160,-56.7 160,-37.7 116,-37.7"/>
<polygon fill="none" stroke="#000000" points="116,-37.7 116,-56.7 160,-56.7 160,-37.7 116,-37.7"/>
<text text-anchor="start" x="141.4053" y="-43.8" font-family="Helvetica,sans-Serif" font-size="11.00" fill="#000000">4 &gt;</text>
</a>
</g>
</g>
<!-- act_ru_execution&#45;&gt;act_re_procdef -->
<g id="edge3" class="edge">
<title>act_ru_execution:w&#45;&gt;act_re_procdef:e</title>
<path fill="none" stroke="#000000" d="M209.6796,-179.5705C174.2961,-160.9642 213.4831,-65.7 160,-65.7"/>
<polygon fill="#000000" stroke="#000000" points="216.1844,-180.992 223.2314,-186.217 220.0922,-181.846 224,-182.7 224,-182.7 224,-182.7 220.0922,-181.846 224.7686,-179.183 216.1844,-180.992 216.1844,-180.992"/>
<ellipse fill="none" stroke="#000000" cx="213.0582" cy="-180.3088" rx="3.2" ry="3.2"/>
</g>
<!-- act_ru_ext_task -->
<g id="node6" class="node">
<title>act_ru_ext_task</title>
<g id="a_node6"><a xlink:href="../../tables/act_ru_ext_task.html" xlink:title="act_ru_ext_task" target="_top">
<polygon fill="#ffffff" stroke="transparent" points="426,-388.7 426,-852.7 661,-852.7 661,-388.7 426,-388.7"/>
<polygon fill="#f5f5f5" stroke="transparent" points="428.5,-827.7 428.5,-850.7 659.5,-850.7 659.5,-827.7 428.5,-827.7"/>
<polygon fill="none" stroke="#000000" points="428.5,-827.7 428.5,-850.7 659.5,-850.7 659.5,-827.7 428.5,-827.7"/>
<text text-anchor="start" x="433.5" y="-836.3" font-family="Helvetica,sans-Serif" font-weight="bold" font-size="11.00" fill="#000000">act_ru_ext_task</text>
<text text-anchor="start" x="624.5437" y="-835.8" font-family="Helvetica,sans-Serif" font-size="11.00" fill="#000000">[table]</text>
<polygon fill="none" stroke="#000000" points="428.5,-805.7 428.5,-827.7 575.5,-827.7 575.5,-805.7 428.5,-805.7"/>
<image xlink:href="../../images/primaryKeys.png" width="11px" height="12px" preserveAspectRatio="xMinYMin meet" x="433.5" y="-822.7"/>
<text text-anchor="start" x="448.5" y="-812.8" font-family="Helvetica,sans-Serif" font-size="11.00" fill="#000000">id_</text>
<polygon fill="none" stroke="#000000" points="575.5,-805.7 575.5,-827.7 659.5,-827.7 659.5,-805.7 575.5,-805.7"/>
<text text-anchor="start" x="578.5" y="-813.4" font-family="Helvetica,sans-Serif" font-size="11.00" fill="#000000">varchar[64]</text>
<polygon fill="none" stroke="#000000" points="428.5,-783.7 428.5,-805.7 575.5,-805.7 575.5,-783.7 428.5,-783.7"/>
<text text-anchor="start" x="448.5" y="-790.8" font-family="Helvetica,sans-Serif" font-size="11.00" fill="#000000">rev_</text>
<polygon fill="none" stroke="#000000" points="575.5,-783.7 575.5,-805.7 659.5,-805.7 659.5,-783.7 575.5,-783.7"/>
<text text-anchor="start" x="578.5" y="-791.4" font-family="Helvetica,sans-Serif" font-size="11.00" fill="#000000">int4[10]</text>
<polygon fill="none" stroke="#000000" points="428.5,-761.7 428.5,-783.7 575.5,-783.7 575.5,-761.7 428.5,-761.7"/>
<text text-anchor="start" x="448.5" y="-768.8" font-family="Helvetica,sans-Serif" font-size="11.00" fill="#000000">worker_id_</text>
<polygon fill="none" stroke="#000000" points="575.5,-761.7 575.5,-783.7 659.5,-783.7 659.5,-761.7 575.5,-761.7"/>
<text text-anchor="start" x="578.5" y="-769.4" font-family="Helvetica,sans-Serif" font-size="11.00" fill="#000000">varchar[255]</text>
<polygon fill="#ffffff" stroke="transparent" points="428.5,-739.7 428.5,-761.7 575.5,-761.7 575.5,-739.7 428.5,-739.7"/>
<polygon fill="none" stroke="#000000" points="428.5,-739.7 428.5,-761.7 575.5,-761.7 575.5,-739.7 428.5,-739.7"/>
<text text-anchor="start" x="448.5" y="-746.8" font-family="Helvetica,sans-Serif" font-size="11.00" fill="#000000">topic_name_</text>
<polygon fill="none" stroke="#000000" points="575.5,-739.7 575.5,-761.7 659.5,-761.7 659.5,-739.7 575.5,-739.7"/>
<text text-anchor="start" x="578.5" y="-747.4" font-family="Helvetica,sans-Serif" font-size="11.00" fill="#000000">varchar[255]</text>
<polygon fill="none" stroke="#000000" points="428.5,-717.7 428.5,-739.7 575.5,-739.7 575.5,-717.7 428.5,-717.7"/>
<text text-anchor="start" x="448.5" y="-724.8" font-family="Helvetica,sans-Serif" font-size="11.00" fill="#000000">retries_</text>
<polygon fill="none" stroke="#000000" points="575.5,-717.7 575.5,-739.7 659.5,-739.7 659.5,-717.7 575.5,-717.7"/>
<text text-anchor="start" x="578.5" y="-725.4" font-family="Helvetica,sans-Serif" font-size="11.00" fill="#000000">int4[10]</text>
<polygon fill="none" stroke="#000000" points="428.5,-695.7 428.5,-717.7 575.5,-717.7 575.5,-695.7 428.5,-695.7"/>
<text text-anchor="start" x="448.5" y="-702.8" font-family="Helvetica,sans-Serif" font-size="11.00" fill="#000000">error_msg_</text>
<polygon fill="none" stroke="#000000" points="575.5,-695.7 575.5,-717.7 659.5,-717.7 659.5,-695.7 575.5,-695.7"/>
<text text-anchor="start" x="578.5" y="-703.4" font-family="Helvetica,sans-Serif" font-size="11.00" fill="#000000">varchar[4000]</text>
<polygon fill="#ffffff" stroke="transparent" points="428.5,-673.7 428.5,-695.7 575.5,-695.7 575.5,-673.7 428.5,-673.7"/>
<polygon fill="none" stroke="#000000" points="428.5,-673.7 428.5,-695.7 575.5,-695.7 575.5,-673.7 428.5,-673.7"/>
<image xlink:href="../../images/foreignKeys.png" width="11px" height="12px" preserveAspectRatio="xMinYMin meet" x="433.5" y="-690.7"/>
<text text-anchor="start" x="448.5" y="-680.8" font-family="Helvetica,sans-Serif" font-size="11.00" fill="#000000">error_details_id_</text>
<polygon fill="none" stroke="#000000" points="575.5,-673.7 575.5,-695.7 659.5,-695.7 659.5,-673.7 575.5,-673.7"/>
<text text-anchor="start" x="578.5" y="-681.4" font-family="Helvetica,sans-Serif" font-size="11.00" fill="#000000">varchar[64]</text>
<polygon fill="none" stroke="#000000" points="428.5,-651.7 428.5,-673.7 575.5,-673.7 575.5,-651.7 428.5,-651.7"/>
<text text-anchor="start" x="448.5" y="-658.8" font-family="Helvetica,sans-Serif" font-size="11.00" fill="#000000">lock_exp_time_</text>
<polygon fill="none" stroke="#000000" points="575.5,-651.7 575.5,-673.7 659.5,-673.7 659.5,-651.7 575.5,-651.7"/>
<text text-anchor="start" x="578.3807" y="-659.4" font-family="Helvetica,sans-Serif" font-size="11.00" fill="#000000">timestamp[29,6]</text>
<polygon fill="none" stroke="#000000" points="428.5,-629.7 428.5,-651.7 575.5,-651.7 575.5,-629.7 428.5,-629.7"/>
<text text-anchor="start" x="448.5" y="-636.8" font-family="Helvetica,sans-Serif" font-size="11.00" fill="#000000">create_time_</text>
<polygon fill="none" stroke="#000000" points="575.5,-629.7 575.5,-651.7 659.5,-651.7 659.5,-629.7 575.5,-629.7"/>
<text text-anchor="start" x="578.3807" y="-637.4" font-family="Helvetica,sans-Serif" font-size="11.00" fill="#000000">timestamp[29,6]</text>
<polygon fill="none" stroke="#000000" points="428.5,-607.7 428.5,-629.7 575.5,-629.7 575.5,-607.7 428.5,-607.7"/>
<text text-anchor="start" x="448.5" y="-614.8" font-family="Helvetica,sans-Serif" font-size="11.00" fill="#000000">suspension_state_</text>
<polygon fill="none" stroke="#000000" points="575.5,-607.7 575.5,-629.7 659.5,-629.7 659.5,-607.7 575.5,-607.7"/>
<text text-anchor="start" x="578.5" y="-615.4" font-family="Helvetica,sans-Serif" font-size="11.00" fill="#000000">int4[10]</text>
<polygon fill="#ffffff" stroke="transparent" points="428.5,-585.7 428.5,-607.7 575.5,-607.7 575.5,-585.7 428.5,-585.7"/>
<polygon fill="none" stroke="#000000" points="428.5,-585.7 428.5,-607.7 575.5,-607.7 575.5,-585.7 428.5,-585.7"/>
<image xlink:href="../../images/foreignKeys.png" width="11px" height="12px" preserveAspectRatio="xMinYMin meet" x="433.5" y="-602.7"/>
<text text-anchor="start" x="448.5" y="-592.8" font-family="Helvetica,sans-Serif" font-size="11.00" fill="#000000">execution_id_</text>
<polygon fill="none" stroke="#000000" points="575.5,-585.7 575.5,-607.7 659.5,-607.7 659.5,-585.7 575.5,-585.7"/>
<text text-anchor="start" x="578.5" y="-593.4" font-family="Helvetica,sans-Serif" font-size="11.00" fill="#000000">varchar[64]</text>
<polygon fill="none" stroke="#000000" points="428.5,-563.7 428.5,-585.7 575.5,-585.7 575.5,-563.7 428.5,-563.7"/>
<text text-anchor="start" x="448.5" y="-570.8" font-family="Helvetica,sans-Serif" font-size="11.00" fill="#000000">proc_inst_id_</text>
<polygon fill="none" stroke="#000000" points="575.5,-563.7 575.5,-585.7 659.5,-585.7 659.5,-563.7 575.5,-563.7"/>
<text text-anchor="start" x="578.5" y="-571.4" font-family="Helvetica,sans-Serif" font-size="11.00" fill="#000000">varchar[64]</text>
<polygon fill="none" stroke="#000000" points="428.5,-541.7 428.5,-563.7 575.5,-563.7 575.5,-541.7 428.5,-541.7"/>
<text text-anchor="start" x="448.5" y="-548.8" font-family="Helvetica,sans-Serif" font-size="11.00" fill="#000000">proc_def_id_</text>
<polygon fill="none" stroke="#000000" points="575.5,-541.7 575.5,-563.7 659.5,-563.7 659.5,-541.7 575.5,-541.7"/>
<text text-anchor="start" x="578.5" y="-549.4" font-family="Helvetica,sans-Serif" font-size="11.00" fill="#000000">varchar[64]</text>
<polygon fill="none" stroke="#000000" points="428.5,-519.7 428.5,-541.7 575.5,-541.7 575.5,-519.7 428.5,-519.7"/>
<text text-anchor="start" x="448.5" y="-526.8" font-family="Helvetica,sans-Serif" font-size="11.00" fill="#000000">proc_def_key_</text>
<polygon fill="none" stroke="#000000" points="575.5,-519.7 575.5,-541.7 659.5,-541.7 659.5,-519.7 575.5,-519.7"/>
<text text-anchor="start" x="578.5" y="-527.4" font-family="Helvetica,sans-Serif" font-size="11.00" fill="#000000">varchar[255]</text>
<polygon fill="none" stroke="#000000" points="428.5,-497.7 428.5,-519.7 575.5,-519.7 575.5,-497.7 428.5,-497.7"/>
<text text-anchor="start" x="448.5" y="-504.8" font-family="Helvetica,sans-Serif" font-size="11.00" fill="#000000">act_id_</text>
<polygon fill="none" stroke="#000000" points="575.5,-497.7 575.5,-519.7 659.5,-519.7 659.5,-497.7 575.5,-497.7"/>
<text text-anchor="start" x="578.5" y="-505.4" font-family="Helvetica,sans-Serif" font-size="11.00" fill="#000000">varchar[255]</text>
<polygon fill="none" stroke="#000000" points="428.5,-475.7 428.5,-497.7 575.5,-497.7 575.5,-475.7 428.5,-475.7"/>
<text text-anchor="start" x="448.5" y="-482.8" font-family="Helvetica,sans-Serif" font-size="11.00" fill="#000000">act_inst_id_</text>
<polygon fill="none" stroke="#000000" points="575.5,-475.7 575.5,-497.7 659.5,-497.7 659.5,-475.7 575.5,-475.7"/>
<text text-anchor="start" x="578.5" y="-483.4" font-family="Helvetica,sans-Serif" font-size="11.00" fill="#000000">varchar[64]</text>
<polygon fill="#ffffff" stroke="transparent" points="428.5,-453.7 428.5,-475.7 575.5,-475.7 575.5,-453.7 428.5,-453.7"/>
<polygon fill="none" stroke="#000000" points="428.5,-453.7 428.5,-475.7 575.5,-475.7 575.5,-453.7 428.5,-453.7"/>
<text text-anchor="start" x="448.5" y="-460.8" font-family="Helvetica,sans-Serif" font-size="11.00" fill="#000000">tenant_id_</text>
<polygon fill="none" stroke="#000000" points="575.5,-453.7 575.5,-475.7 659.5,-475.7 659.5,-453.7 575.5,-453.7"/>
<text text-anchor="start" x="578.5" y="-461.4" font-family="Helvetica,sans-Serif" font-size="11.00" fill="#000000">varchar[64]</text>
<polygon fill="#ffffff" stroke="transparent" points="428.5,-431.7 428.5,-453.7 575.5,-453.7 575.5,-431.7 428.5,-431.7"/>
<polygon fill="none" stroke="#000000" points="428.5,-431.7 428.5,-453.7 575.5,-453.7 575.5,-431.7 428.5,-431.7"/>
<text text-anchor="start" x="448.5" y="-438.8" font-family="Helvetica,sans-Serif" font-size="11.00" fill="#000000">priority_</text>
<polygon fill="none" stroke="#000000" points="575.5,-431.7 575.5,-453.7 659.5,-453.7 659.5,-431.7 575.5,-431.7"/>
<text text-anchor="start" x="578.5" y="-439.4" font-family="Helvetica,sans-Serif" font-size="11.00" fill="#000000">int8[19]</text>
<polygon fill="none" stroke="#000000" points="428.5,-409.7 428.5,-431.7 575.5,-431.7 575.5,-409.7 428.5,-409.7"/>
<text text-anchor="start" x="448.5" y="-416.8" font-family="Helvetica,sans-Serif" font-size="11.00" fill="#000000">last_failure_log_id_</text>
<polygon fill="none" stroke="#000000" points="575.5,-409.7 575.5,-431.7 659.5,-431.7 659.5,-409.7 575.5,-409.7"/>
<text text-anchor="start" x="578.5" y="-417.4" font-family="Helvetica,sans-Serif" font-size="11.00" fill="#000000">varchar[64]</text>
<polygon fill="#ffffff" stroke="transparent" points="428.5,-390.7 428.5,-409.7 506.5,-409.7 506.5,-390.7 428.5,-390.7"/>
<polygon fill="none" stroke="#000000" points="428.5,-390.7 428.5,-409.7 506.5,-409.7 506.5,-390.7 428.5,-390.7"/>
<text text-anchor="start" x="431.5" y="-396.8" font-family="Helvetica,sans-Serif" font-size="11.00" fill="#000000">&lt; 2</text>
<polygon fill="#ffffff" stroke="transparent" points="506.5,-390.7 506.5,-409.7 575.5,-409.7 575.5,-390.7 506.5,-390.7"/>
<polygon fill="none" stroke="#000000" points="506.5,-390.7 506.5,-409.7 575.5,-409.7 575.5,-390.7 506.5,-390.7"/>
<text text-anchor="start" x="566.3862" y="-396.8" font-family="Helvetica,sans-Serif" font-size="11.00" fill="#000000"> &#160;</text>
<polygon fill="#ffffff" stroke="transparent" points="575.5,-390.7 575.5,-409.7 659.5,-409.7 659.5,-390.7 575.5,-390.7"/>
<polygon fill="none" stroke="#000000" points="575.5,-390.7 575.5,-409.7 659.5,-409.7 659.5,-390.7 575.5,-390.7"/>
<text text-anchor="start" x="640.9053" y="-396.8" font-family="Helvetica,sans-Serif" font-size="11.00" fill="#000000">0 &gt;</text>
<polygon fill="none" stroke="#000000" stroke-width="2" points="427,-389.7 427,-851.7 660,-851.7 660,-389.7 427,-389.7"/>
</a>
</g>
</g>
<!-- act_ru_ext_task&#45;&gt;act_ge_bytearray -->
<g id="edge4" class="edge">
<title>act_ru_ext_task:w&#45;&gt;act_ge_bytearray:e</title>
<path fill="none" stroke="#000000" d="M414.0156,-684.7C401.6771,-684.7 394.1667,-684.7 377,-684.7"/>
<polygon fill="#000000" stroke="#000000" points="420.5,-684.7001 428.5,-688.3 424.5,-684.7 428.5,-684.7 428.5,-684.7 428.5,-684.7 424.5,-684.7 428.5,-681.1 420.5,-684.7001 420.5,-684.7001"/>
<ellipse fill="none" stroke="#000000" cx="417.3" cy="-684.7001" rx="3.2" ry="3.2"/>
</g>
<!-- act_ru_ext_task&#45;&gt;act_ru_execution -->
<g id="edge5" class="edge">
<title>act_ru_ext_task:w&#45;&gt;act_ru_execution:e</title>
<path fill="none" stroke="#000000" d="M415.0908,-591.4235C372.2301,-551.0555 439.1997,-292.7 376,-292.7"/>
<polygon fill="#000000" stroke="#000000" points="421.0556,-593.7706 427.1818,-600.05 424.7778,-595.2353 428.5,-596.7 428.5,-596.7 428.5,-596.7 424.7778,-595.2353 429.8182,-593.35 421.0556,-593.7706 421.0556,-593.7706"/>
<ellipse fill="none" stroke="#000000" cx="418.0779" cy="-592.5989" rx="3.2" ry="3.2"/>
</g>
<!-- act_ru_incident -->
<g id="node7" class="node">
<title>act_ru_incident</title>
<g id="a_node7"><a xlink:href="../../tables/act_ru_incident.html" xlink:title="act_ru_incident" target="_top">
<polygon fill="#ffffff" stroke="transparent" points="473,-60.2 473,-121.2 614,-121.2 614,-60.2 473,-60.2"/>
<polygon fill="#f5f5f5" stroke="transparent" points="473.5,-97.7 473.5,-120.7 614.5,-120.7 614.5,-97.7 473.5,-97.7"/>
<polygon fill="none" stroke="#000000" points="473.5,-97.7 473.5,-120.7 614.5,-120.7 614.5,-97.7 473.5,-97.7"/>
<text text-anchor="start" x="478.5" y="-106.3" font-family="Helvetica,sans-Serif" font-weight="bold" font-size="11.00" fill="#000000">act_ru_incident</text>
<text text-anchor="start" x="580.0219" y="-105.8" font-family="Helvetica,sans-Serif" font-size="11.00" fill="#000000">[table]</text>
<polygon fill="none" stroke="#000000" points="473.5,-78.7 473.5,-97.7 614.5,-97.7 614.5,-78.7 473.5,-78.7"/>
<text text-anchor="start" x="476.5" y="-84.8" font-family="Helvetica,sans-Serif" font-size="11.00" fill="#000000">...</text>
<polygon fill="#ffffff" stroke="transparent" points="473.5,-59.7 473.5,-78.7 537.5,-78.7 537.5,-59.7 473.5,-59.7"/>
<polygon fill="none" stroke="#000000" points="473.5,-59.7 473.5,-78.7 537.5,-78.7 537.5,-59.7 473.5,-59.7"/>
<text text-anchor="start" x="476.5" y="-65.8" font-family="Helvetica,sans-Serif" font-size="11.00" fill="#000000">&lt; 6</text>
<polygon fill="#ffffff" stroke="transparent" points="537.5,-59.7 537.5,-78.7 571.5,-78.7 571.5,-59.7 537.5,-59.7"/>
<polygon fill="none" stroke="#000000" points="537.5,-59.7 537.5,-78.7 571.5,-78.7 571.5,-59.7 537.5,-59.7"/>
<text text-anchor="start" x="562.3862" y="-65.8" font-family="Helvetica,sans-Serif" font-size="11.00" fill="#000000"> &#160;</text>
<polygon fill="#ffffff" stroke="transparent" points="571.5,-59.7 571.5,-78.7 614.5,-78.7 614.5,-59.7 571.5,-59.7"/>
<polygon fill="none" stroke="#000000" points="571.5,-59.7 571.5,-78.7 614.5,-78.7 614.5,-59.7 571.5,-59.7"/>
<text text-anchor="start" x="595.9053" y="-65.8" font-family="Helvetica,sans-Serif" font-size="11.00" fill="#000000">2 &gt;</text>
</a>
</g>
</g>
<!-- act_ru_incident&#45;&gt;act_ru_execution -->
<g id="edge6" class="edge">
<title>act_ru_incident:w&#45;&gt;act_ru_execution:e</title>
<path fill="none" stroke="#000000" d="M458.995,-86.6457C439.301,-88.1688 432.1711,-103.9673 418,-125.7 377.6082,-187.6447 449.9503,-286.7 376,-292.7"/>
<polygon fill="#000000" stroke="#000000" points="465.5211,-87.12 473.239,-91.2905 469.5105,-87.41 473.5,-87.7 473.5,-87.7 473.5,-87.7 469.5105,-87.41 473.761,-84.1095 465.5211,-87.12 465.5211,-87.12"/>
<ellipse fill="none" stroke="#000000" cx="462.3295" cy="-86.888" rx="3.2" ry="3.2"/>
</g>
<!-- act_ru_incident&#45;&gt;act_ru_execution -->
<g id="edge8" class="edge">
<title>act_ru_incident:w&#45;&gt;act_ru_execution:e</title>
<path fill="none" stroke="#000000" d="M459.5584,-92.1183C439.4356,-100.8698 432.3054,-116.7613 418,-138.7 377.6082,-200.6447 449.9503,-299.7 376,-292.7"/>
<polygon fill="#000000" stroke="#000000" points="465.8738,-90.1169 474.5876,-91.1318 469.6869,-88.9084 473.5,-87.7 473.5,-87.7 473.5,-87.7 469.6869,-88.9084 472.4124,-84.2682 465.8738,-90.1169 465.8738,-90.1169"/>
<ellipse fill="none" stroke="#000000" cx="462.8233" cy="-91.0836" rx="3.2" ry="3.2"/>
</g>
<!-- act_ru_incident&#45;&gt;act_re_procdef -->
<g id="edge7" class="edge">
<title>act_ru_incident:w&#45;&gt;act_re_procdef:e</title>
<path fill="none" stroke="#000000" d="M458.9829,-86.5554C429.6689,-81.6031 420.8872,-61.9888 385,-55.7 310.5785,-42.6584 290.2503,-48.9147 215,-55.7 190.2552,-57.9312 184.8452,-65.7 160,-65.7"/>
<polygon fill="#000000" stroke="#000000" points="465.5248,-87.0711 473.217,-91.2889 469.5124,-87.3856 473.5,-87.7 473.5,-87.7 473.5,-87.7 469.5124,-87.3856 473.783,-84.1111 465.5248,-87.0711 465.5248,-87.0711"/>
<ellipse fill="none" stroke="#000000" cx="462.3347" cy="-86.8196" rx="3.2" ry="3.2"/>
</g>
<!-- act_ru_job -->
<g id="node8" class="node">
<title>act_ru_job</title>
<g id="a_node8"><a xlink:href="../../tables/act_ru_job.html" xlink:title="act_ru_job" target="_top">
<polygon fill="#ffffff" stroke="transparent" points="490,-874.2 490,-935.2 597,-935.2 597,-874.2 490,-874.2"/>
<polygon fill="#f5f5f5" stroke="transparent" points="490.5,-911.7 490.5,-934.7 597.5,-934.7 597.5,-911.7 490.5,-911.7"/>
<polygon fill="none" stroke="#000000" points="490.5,-911.7 490.5,-934.7 597.5,-934.7 597.5,-911.7 490.5,-911.7"/>
<text text-anchor="start" x="495.5" y="-920.3" font-family="Helvetica,sans-Serif" font-weight="bold" font-size="11.00" fill="#000000">act_ru_job</text>
<text text-anchor="start" x="563.0219" y="-919.8" font-family="Helvetica,sans-Serif" font-size="11.00" fill="#000000">[table]</text>
<polygon fill="none" stroke="#000000" points="490.5,-892.7 490.5,-911.7 597.5,-911.7 597.5,-892.7 490.5,-892.7"/>
<text text-anchor="start" x="493.5" y="-898.8" font-family="Helvetica,sans-Serif" font-size="11.00" fill="#000000">...</text>
<polygon fill="#ffffff" stroke="transparent" points="490.5,-873.7 490.5,-892.7 542.5,-892.7 542.5,-873.7 490.5,-873.7"/>
<polygon fill="none" stroke="#000000" points="490.5,-873.7 490.5,-892.7 542.5,-892.7 542.5,-873.7 490.5,-873.7"/>
<text text-anchor="start" x="493.5" y="-879.8" font-family="Helvetica,sans-Serif" font-size="11.00" fill="#000000">&lt; 1</text>
<polygon fill="#ffffff" stroke="transparent" points="542.5,-873.7 542.5,-892.7 569.5,-892.7 569.5,-873.7 542.5,-873.7"/>
<polygon fill="none" stroke="#000000" points="542.5,-873.7 542.5,-892.7 569.5,-892.7 569.5,-873.7 542.5,-873.7"/>
<text text-anchor="start" x="560.3862" y="-879.8" font-family="Helvetica,sans-Serif" font-size="11.00" fill="#000000"> &#160;</text>
<polygon fill="#ffffff" stroke="transparent" points="569.5,-873.7 569.5,-892.7 597.5,-892.7 597.5,-873.7 569.5,-873.7"/>
<polygon fill="none" stroke="#000000" points="569.5,-873.7 569.5,-892.7 597.5,-892.7 597.5,-873.7 569.5,-873.7"/>
<text text-anchor="start" x="588.3862" y="-879.8" font-family="Helvetica,sans-Serif" font-size="11.00" fill="#000000"> &#160;</text>
</a>
</g>
</g>
<!-- act_ru_job&#45;&gt;act_ge_bytearray -->
<g id="edge9" class="edge">
<title>act_ru_job:w&#45;&gt;act_ge_bytearray:e</title>
<path fill="none" stroke="#000000" d="M476.041,-901.0929C449.9251,-898.6351 436.9976,-888.3509 418,-863.7 368.1798,-799.0542 458.6158,-684.7 377,-684.7"/>
<polygon fill="#000000" stroke="#000000" points="482.507,-901.3643 490.349,-905.2968 486.5035,-901.5322 490.5,-901.7 490.5,-901.7 490.5,-901.7 486.5035,-901.5322 490.651,-898.1032 482.507,-901.3643 482.507,-901.3643"/>
<ellipse fill="none" stroke="#000000" cx="479.3099" cy="-901.2301" rx="3.2" ry="3.2"/>
</g>
<!-- act_ru_task -->
<g id="node9" class="node">
<title>act_ru_task</title>
<g id="a_node9"><a xlink:href="../../tables/act_ru_task.html" xlink:title="act_ru_task" target="_top">
<polygon fill="#ffffff" stroke="transparent" points="486,-142.2 486,-203.2 601,-203.2 601,-142.2 486,-142.2"/>
<polygon fill="#f5f5f5" stroke="transparent" points="486.5,-179.7 486.5,-202.7 601.5,-202.7 601.5,-179.7 486.5,-179.7"/>
<polygon fill="none" stroke="#000000" points="486.5,-179.7 486.5,-202.7 601.5,-202.7 601.5,-179.7 486.5,-179.7"/>
<text text-anchor="start" x="491.5" y="-188.3" font-family="Helvetica,sans-Serif" font-weight="bold" font-size="11.00" fill="#000000">act_ru_task</text>
<text text-anchor="start" x="567.0219" y="-187.8" font-family="Helvetica,sans-Serif" font-size="11.00" fill="#000000">[table]</text>
<polygon fill="none" stroke="#000000" points="486.5,-160.7 486.5,-179.7 601.5,-179.7 601.5,-160.7 486.5,-160.7"/>
<text text-anchor="start" x="489.5" y="-166.8" font-family="Helvetica,sans-Serif" font-size="11.00" fill="#000000">...</text>
<polygon fill="#ffffff" stroke="transparent" points="486.5,-141.7 486.5,-160.7 537.5,-160.7 537.5,-141.7 486.5,-141.7"/>
<polygon fill="none" stroke="#000000" points="486.5,-141.7 486.5,-160.7 537.5,-160.7 537.5,-141.7 486.5,-141.7"/>
<text text-anchor="start" x="489.5" y="-147.8" font-family="Helvetica,sans-Serif" font-size="11.00" fill="#000000">&lt; 5</text>
<polygon fill="#ffffff" stroke="transparent" points="537.5,-141.7 537.5,-160.7 564.5,-160.7 564.5,-141.7 537.5,-141.7"/>
<polygon fill="none" stroke="#000000" points="537.5,-141.7 537.5,-160.7 564.5,-160.7 564.5,-141.7 537.5,-141.7"/>
<text text-anchor="start" x="555.3862" y="-147.8" font-family="Helvetica,sans-Serif" font-size="11.00" fill="#000000"> &#160;</text>
<polygon fill="#ffffff" stroke="transparent" points="564.5,-141.7 564.5,-160.7 601.5,-160.7 601.5,-141.7 564.5,-141.7"/>
<polygon fill="none" stroke="#000000" points="564.5,-141.7 564.5,-160.7 601.5,-160.7 601.5,-141.7 564.5,-141.7"/>
<text text-anchor="start" x="582.9053" y="-147.8" font-family="Helvetica,sans-Serif" font-size="11.00" fill="#000000">1 &gt;</text>
</a>
</g>
</g>
<!-- act_ru_task&#45;&gt;act_ru_execution -->
<g id="edge10" class="edge">
<title>act_ru_task:w&#45;&gt;act_ru_execution:e</title>
<path fill="none" stroke="#000000" d="M472.1153,-168.5275C447.6309,-169.064 438.873,-185.0338 418,-207.7 391.063,-236.9512 415.7647,-286.7 376,-292.7"/>
<polygon fill="#000000" stroke="#000000" points="478.5264,-169.05 486.2075,-173.2881 482.5132,-169.375 486.5,-169.7 486.5,-169.7 486.5,-169.7 482.5132,-169.375 486.7925,-166.1119 478.5264,-169.05 478.5264,-169.05"/>
<ellipse fill="none" stroke="#000000" cx="475.337" cy="-168.79" rx="3.2" ry="3.2"/>
</g>
<!-- act_ru_task&#45;&gt;act_ru_execution -->
<g id="edge12" class="edge">
<title>act_ru_task:w&#45;&gt;act_ru_execution:e</title>
<path fill="none" stroke="#000000" d="M472.4532,-173.3824C447.711,-181.9176 438.9687,-197.9298 418,-220.7 391.063,-249.9512 415.7647,-299.7 376,-292.7"/>
<polygon fill="#000000" stroke="#000000" points="478.7615,-171.7287 487.4129,-173.1823 482.6307,-170.7143 486.5,-169.7 486.5,-169.7 486.5,-169.7 482.6307,-170.7143 485.5871,-166.2177 478.7615,-171.7287 478.7615,-171.7287"/>
<ellipse fill="none" stroke="#000000" cx="475.6661" cy="-172.5402" rx="3.2" ry="3.2"/>
</g>
<!-- act_ru_task&#45;&gt;act_re_procdef -->
<g id="edge11" class="edge">
<title>act_ru_task:w&#45;&gt;act_re_procdef:e</title>
<path fill="none" stroke="#000000" d="M471.9529,-168.6825C448.6604,-165.0495 439.3752,-151.8497 418,-131.7 398.0824,-112.9243 408.5651,-93.6255 385,-79.7 341.8709,-54.2135 210.0967,-65.7 160,-65.7"/>
<polygon fill="#000000" stroke="#000000" points="478.5195,-169.1418 486.2488,-173.2912 482.5097,-169.4209 486.5,-169.7 486.5,-169.7 486.5,-169.7 482.5097,-169.4209 486.7512,-166.1088 478.5195,-169.1418 478.5195,-169.1418"/>
<ellipse fill="none" stroke="#000000" cx="475.3273" cy="-168.9185" rx="3.2" ry="3.2"/>
</g>
<!-- act_ru_variable -->
<g id="node10" class="node">
<title>act_ru_variable</title>
<g id="a_node10"><a xlink:href="../../tables/act_ru_variable.html" xlink:title="act_ru_variable" target="_top">
<polygon fill="#ffffff" stroke="transparent" points="473,-306.2 473,-367.2 614,-367.2 614,-306.2 473,-306.2"/>
<polygon fill="#f5f5f5" stroke="transparent" points="473.5,-343.7 473.5,-366.7 614.5,-366.7 614.5,-343.7 473.5,-343.7"/>
<polygon fill="none" stroke="#000000" points="473.5,-343.7 473.5,-366.7 614.5,-366.7 614.5,-343.7 473.5,-343.7"/>
<text text-anchor="start" x="478.5" y="-352.3" font-family="Helvetica,sans-Serif" font-weight="bold" font-size="11.00" fill="#000000">act_ru_variable</text>
<text text-anchor="start" x="580.0219" y="-351.8" font-family="Helvetica,sans-Serif" font-size="11.00" fill="#000000">[table]</text>
<polygon fill="none" stroke="#000000" points="473.5,-324.7 473.5,-343.7 614.5,-343.7 614.5,-324.7 473.5,-324.7"/>
<text text-anchor="start" x="476.5" y="-330.8" font-family="Helvetica,sans-Serif" font-size="11.00" fill="#000000">...</text>
<polygon fill="#ffffff" stroke="transparent" points="473.5,-305.7 473.5,-324.7 542.5,-324.7 542.5,-305.7 473.5,-305.7"/>
<polygon fill="none" stroke="#000000" points="473.5,-305.7 473.5,-324.7 542.5,-324.7 542.5,-305.7 473.5,-305.7"/>
<text text-anchor="start" x="476.5" y="-311.8" font-family="Helvetica,sans-Serif" font-size="11.00" fill="#000000">&lt; 6</text>
<polygon fill="#ffffff" stroke="transparent" points="542.5,-305.7 542.5,-324.7 578.5,-324.7 578.5,-305.7 542.5,-305.7"/>
<polygon fill="none" stroke="#000000" points="542.5,-305.7 542.5,-324.7 578.5,-324.7 578.5,-305.7 542.5,-305.7"/>
<text text-anchor="start" x="569.3862" y="-311.8" font-family="Helvetica,sans-Serif" font-size="11.00" fill="#000000"> &#160;</text>
<polygon fill="#ffffff" stroke="transparent" points="578.5,-305.7 578.5,-324.7 614.5,-324.7 614.5,-305.7 578.5,-305.7"/>
<polygon fill="none" stroke="#000000" points="578.5,-305.7 578.5,-324.7 614.5,-324.7 614.5,-305.7 578.5,-305.7"/>
<text text-anchor="start" x="605.3862" y="-311.8" font-family="Helvetica,sans-Serif" font-size="11.00" fill="#000000"> &#160;</text>
</a>
</g>
</g>
<!-- act_ru_variable&#45;&gt;act_ge_bytearray -->
<g id="edge13" class="edge">
<title>act_ru_variable:w&#45;&gt;act_ge_bytearray:e</title>
<path fill="none" stroke="#000000" d="M459.1551,-335.1439C438.9002,-339.7338 430.8759,-355.0342 418,-377.7 384.0031,-437.5456 445.8279,-684.7 377,-684.7"/>
<polygon fill="#000000" stroke="#000000" points="465.5402,-334.5012 473.8606,-337.2819 469.5201,-334.1006 473.5,-333.7 473.5,-333.7 473.5,-333.7 469.5201,-334.1006 473.1394,-330.1181 465.5402,-334.5012 465.5402,-334.5012"/>
<ellipse fill="none" stroke="#000000" cx="462.3563" cy="-334.8217" rx="3.2" ry="3.2"/>
</g>
<!-- act_ru_variable&#45;&gt;act_ru_execution -->
<g id="edge14" class="edge">
<title>act_ru_variable:w&#45;&gt;act_ru_execution:e</title>
<path fill="none" stroke="#000000" d="M459.0735,-330.4327C425.1437,-319.0141 417.6836,-287.3797 376,-292.7"/>
<polygon fill="#000000" stroke="#000000" points="465.6976,-331.9329 472.7048,-337.2111 469.5988,-332.8164 473.5,-333.7 473.5,-333.7 473.5,-333.7 469.5988,-332.8164 474.2952,-330.1889 465.6976,-331.9329 465.6976,-331.9329"/>
<ellipse fill="none" stroke="#000000" cx="462.5766" cy="-331.226" rx="3.2" ry="3.2"/>
</g>
<!-- act_ru_variable&#45;&gt;act_ru_execution -->
<g id="edge15" class="edge">
<title>act_ru_variable:w&#45;&gt;act_ru_execution:e</title>
<path fill="none" stroke="#000000" d="M459.0735,-334.3502C425.1437,-331.8472 417.6836,-298.907 376,-292.7"/>
<polygon fill="#000000" stroke="#000000" points="465.5081,-334.0603 473.6621,-337.2963 469.5041,-333.8801 473.5,-333.7 473.5,-333.7 473.5,-333.7 469.5041,-333.8801 473.3379,-330.1037 465.5081,-334.0603 465.5081,-334.0603"/>
<ellipse fill="none" stroke="#000000" cx="462.3114" cy="-334.2044" rx="3.2" ry="3.2"/>
</g>
</g>
</svg>
