<?xml version="1.0" encoding="UTF-8" standalone="no"?>
<!DOCTYPE svg PUBLIC "-//W3C//DTD SVG 1.1//EN"
 "http://www.w3.org/Graphics/SVG/1.1/DTD/svg11.dtd">
<!-- Generated by graphviz version 2.40.1 (20161225.0304)
 -->
<!-- Title: oneDegreeRelationshipsDiagram Pages: 1 -->
<svg width="446pt" height="182pt"
 viewBox="0.00 0.00 446.00 182.20" xmlns="http://www.w3.org/2000/svg" xmlns:xlink="http://www.w3.org/1999/xlink">
<g id="graph0" class="graph" transform="scale(1 1) rotate(0) translate(4 178.2)">
<title>oneDegreeRelationshipsDiagram</title>
<polygon fill="#ffffff" stroke="transparent" points="-4,4 -4,-178.2 442,-178.2 442,4 -4,4"/>
<text text-anchor="middle" x="72.4936" y="-7.3" font-family="Helvetica,sans-Serif" font-size="11.00" fill="#000000">Generated by SchemaSpy</text>
<!-- act_id_tenant_member -->
<g id="node1" class="node">
<title>act_id_tenant_member</title>
<g id="a_node1"><a xlink:href="../../tables/act_id_tenant_member.html" xlink:title="act_id_tenant_member" target="_top">
<polygon fill="#ffffff" stroke="transparent" points="239,-40.2 239,-170.2 430,-170.2 430,-40.2 239,-40.2"/>
<polygon fill="#f5f5f5" stroke="transparent" points="239.5,-147.2 239.5,-170.2 430.5,-170.2 430.5,-147.2 239.5,-147.2"/>
<polygon fill="none" stroke="#000000" points="239.5,-147.2 239.5,-170.2 430.5,-170.2 430.5,-147.2 239.5,-147.2"/>
<text text-anchor="start" x="244.5" y="-155.8" font-family="Helvetica,sans-Serif" font-weight="bold" font-size="11.00" fill="#000000">act_id_tenant_member</text>
<text text-anchor="start" x="396.0219" y="-155.3" font-family="Helvetica,sans-Serif" font-size="11.00" fill="#000000">[table]</text>
<polygon fill="none" stroke="#000000" points="239.5,-125.2 239.5,-147.2 430.5,-147.2 430.5,-125.2 239.5,-125.2"/>
<image xlink:href="../../images/primaryKeys.png" width="11px" height="12px" preserveAspectRatio="xMinYMin meet" x="244.5" y="-142.2"/>
<text text-anchor="start" x="268.5" y="-132.3" font-family="Helvetica,sans-Serif" font-size="11.00" fill="#000000">id_</text>
<polygon fill="#ffffff" stroke="transparent" points="239.5,-103.2 239.5,-125.2 430.5,-125.2 430.5,-103.2 239.5,-103.2"/>
<polygon fill="none" stroke="#000000" points="239.5,-103.2 239.5,-125.2 430.5,-125.2 430.5,-103.2 239.5,-103.2"/>
<image xlink:href="../../images/foreignKeys.png" width="11px" height="12px" preserveAspectRatio="xMinYMin meet" x="244.5" y="-120.2"/>
<text text-anchor="start" x="268.5" y="-110.3" font-family="Helvetica,sans-Serif" font-size="11.00" fill="#000000">tenant_id_</text>
<polygon fill="#ffffff" stroke="transparent" points="239.5,-81.2 239.5,-103.2 430.5,-103.2 430.5,-81.2 239.5,-81.2"/>
<polygon fill="none" stroke="#000000" points="239.5,-81.2 239.5,-103.2 430.5,-103.2 430.5,-81.2 239.5,-81.2"/>
<image xlink:href="../../images/foreignKeys.png" width="11px" height="12px" preserveAspectRatio="xMinYMin meet" x="244.5" y="-98.2"/>
<text text-anchor="start" x="268.5" y="-88.3" font-family="Helvetica,sans-Serif" font-size="11.00" fill="#000000">user_id_</text>
<polygon fill="#ffffff" stroke="transparent" points="239.5,-59.2 239.5,-81.2 430.5,-81.2 430.5,-59.2 239.5,-59.2"/>
<polygon fill="none" stroke="#000000" points="239.5,-59.2 239.5,-81.2 430.5,-81.2 430.5,-59.2 239.5,-59.2"/>
<image xlink:href="../../images/foreignKeys.png" width="11px" height="12px" preserveAspectRatio="xMinYMin meet" x="244.5" y="-76.2"/>
<text text-anchor="start" x="268.5" y="-66.3" font-family="Helvetica,sans-Serif" font-size="11.00" fill="#000000">group_id_</text>
<polygon fill="#ffffff" stroke="transparent" points="239.5,-40.2 239.5,-59.2 333.5,-59.2 333.5,-40.2 239.5,-40.2"/>
<polygon fill="none" stroke="#000000" points="239.5,-40.2 239.5,-59.2 333.5,-59.2 333.5,-40.2 239.5,-40.2"/>
<text text-anchor="start" x="242.5" y="-46.3" font-family="Helvetica,sans-Serif" font-size="11.00" fill="#000000">&lt; 3</text>
<polygon fill="#ffffff" stroke="transparent" points="333.5,-40.2 333.5,-59.2 381.5,-59.2 381.5,-40.2 333.5,-40.2"/>
<polygon fill="none" stroke="#000000" points="333.5,-40.2 333.5,-59.2 381.5,-59.2 381.5,-40.2 333.5,-40.2"/>
<text text-anchor="start" x="372.3862" y="-46.3" font-family="Helvetica,sans-Serif" font-size="11.00" fill="#000000"> &#160;</text>
<polygon fill="#ffffff" stroke="transparent" points="381.5,-40.2 381.5,-59.2 430.5,-59.2 430.5,-40.2 381.5,-40.2"/>
<polygon fill="none" stroke="#000000" points="381.5,-40.2 381.5,-59.2 430.5,-59.2 430.5,-40.2 381.5,-40.2"/>
<text text-anchor="start" x="421.3862" y="-46.3" font-family="Helvetica,sans-Serif" font-size="11.00" fill="#000000"> &#160;</text>
</a>
</g>
</g>
<!-- act_id_tenant -->
<g id="node2" class="node">
<title>act_id_tenant</title>
<g id="a_node2"><a xlink:href="../../tables/act_id_tenant.html" xlink:title="act_id_tenant" target="_top">
<polygon fill="#ffffff" stroke="transparent" points="8,-38.2 8,-150.2 190,-150.2 190,-38.2 8,-38.2"/>
<polygon fill="#f5f5f5" stroke="transparent" points="10,-125.2 10,-148.2 188,-148.2 188,-125.2 10,-125.2"/>
<polygon fill="none" stroke="#000000" points="10,-125.2 10,-148.2 188,-148.2 188,-125.2 10,-125.2"/>
<text text-anchor="start" x="15" y="-133.8" font-family="Helvetica,sans-Serif" font-weight="bold" font-size="11.00" fill="#000000">act_id_tenant</text>
<text text-anchor="start" x="153.0437" y="-133.3" font-family="Helvetica,sans-Serif" font-size="11.00" fill="#000000">[table]</text>
<polygon fill="none" stroke="#000000" points="10,-103.2 10,-125.2 121,-125.2 121,-103.2 10,-103.2"/>
<image xlink:href="../../images/primaryKeys.png" width="11px" height="12px" preserveAspectRatio="xMinYMin meet" x="15" y="-120.2"/>
<text text-anchor="start" x="30" y="-110.3" font-family="Helvetica,sans-Serif" font-size="11.00" fill="#000000">id_</text>
<polygon fill="none" stroke="#000000" points="121,-103.2 121,-125.2 188,-125.2 188,-103.2 121,-103.2"/>
<text text-anchor="start" x="124" y="-110.9" font-family="Helvetica,sans-Serif" font-size="11.00" fill="#000000">varchar[64]</text>
<polygon fill="none" stroke="#000000" points="10,-81.2 10,-103.2 121,-103.2 121,-81.2 10,-81.2"/>
<text text-anchor="start" x="30" y="-88.3" font-family="Helvetica,sans-Serif" font-size="11.00" fill="#000000">rev_</text>
<polygon fill="none" stroke="#000000" points="121,-81.2 121,-103.2 188,-103.2 188,-81.2 121,-81.2"/>
<text text-anchor="start" x="124" y="-88.9" font-family="Helvetica,sans-Serif" font-size="11.00" fill="#000000">int4[10]</text>
<polygon fill="none" stroke="#000000" points="10,-59.2 10,-81.2 121,-81.2 121,-59.2 10,-59.2"/>
<text text-anchor="start" x="30" y="-66.3" font-family="Helvetica,sans-Serif" font-size="11.00" fill="#000000">name_</text>
<polygon fill="none" stroke="#000000" points="121,-59.2 121,-81.2 188,-81.2 188,-59.2 121,-59.2"/>
<text text-anchor="start" x="123.9365" y="-66.9" font-family="Helvetica,sans-Serif" font-size="11.00" fill="#000000">varchar[255]</text>
<polygon fill="#ffffff" stroke="transparent" points="10,-40.2 10,-59.2 70,-59.2 70,-40.2 10,-40.2"/>
<polygon fill="none" stroke="#000000" points="10,-40.2 10,-59.2 70,-59.2 70,-40.2 10,-40.2"/>
<text text-anchor="start" x="13" y="-46.3" font-family="Helvetica,sans-Serif" font-size="11.00" fill="#000000">&lt; 0</text>
<polygon fill="#ffffff" stroke="transparent" points="70,-40.2 70,-59.2 121,-59.2 121,-40.2 70,-40.2"/>
<polygon fill="none" stroke="#000000" points="70,-40.2 70,-59.2 121,-59.2 121,-40.2 70,-40.2"/>
<text text-anchor="start" x="111.8862" y="-46.3" font-family="Helvetica,sans-Serif" font-size="11.00" fill="#000000"> &#160;</text>
<polygon fill="#ffffff" stroke="transparent" points="121,-40.2 121,-59.2 188,-59.2 188,-40.2 121,-40.2"/>
<polygon fill="none" stroke="#000000" points="121,-40.2 121,-59.2 188,-59.2 188,-40.2 121,-40.2"/>
<text text-anchor="start" x="169.4053" y="-46.3" font-family="Helvetica,sans-Serif" font-size="11.00" fill="#000000">1 &gt;</text>
<polygon fill="none" stroke="#000000" stroke-width="2" points="9,-39.2 9,-149.2 189,-149.2 189,-39.2 9,-39.2"/>
</a>
</g>
</g>
<!-- act_id_tenant_member&#45;&gt;act_id_tenant -->
<g id="edge1" class="edge">
<title>act_id_tenant_member:w&#45;&gt;act_id_tenant:e</title>
<path fill="none" stroke="#000000" d="M225.0156,-114.2C212.6771,-114.2 205.1667,-114.2 188,-114.2"/>
<polygon fill="#000000" stroke="#000000" points="231.5,-114.2001 239.5,-117.8 235.5,-114.2 239.5,-114.2 239.5,-114.2 239.5,-114.2 235.5,-114.2 239.5,-110.6 231.5,-114.2001 231.5,-114.2001"/>
<ellipse fill="none" stroke="#000000" cx="228.3" cy="-114.2001" rx="3.2" ry="3.2"/>
</g>
</g>
</svg>
