<?xml version="1.0" encoding="UTF-8" standalone="no"?>
<!DOCTYPE svg PUBLIC "-//W3C//DTD SVG 1.1//EN"
 "http://www.w3.org/Graphics/SVG/1.1/DTD/svg11.dtd">
<!-- Generated by graphviz version 2.40.1 (20161225.0304)
 -->
<!-- Title: oneDegreeRelationshipsDiagram Pages: 1 -->
<svg width="501pt" height="337pt"
 viewBox="0.00 0.00 501.00 336.70" xmlns="http://www.w3.org/2000/svg" xmlns:xlink="http://www.w3.org/1999/xlink">
<g id="graph0" class="graph" transform="scale(1 1) rotate(0) translate(4 332.7)">
<title>oneDegreeRelationshipsDiagram</title>
<polygon fill="#ffffff" stroke="transparent" points="-4,4 -4,-332.7 497,-332.7 497,4 -4,4"/>
<text text-anchor="middle" x="72.4936" y="-7.3" font-family="Helvetica,sans-Serif" font-size="11.00" fill="#000000">Generated by SchemaSpy</text>
<!-- act_re_decision_def -->
<g id="node1" class="node">
<title>act_re_decision_def</title>
<g id="a_node1"><a xlink:href="../../tables/act_re_decision_def.html" xlink:title="act_re_decision_def" target="_top">
<polygon fill="#ffffff" stroke="transparent" points="314,-197.7 314,-324.7 485,-324.7 485,-197.7 314,-197.7"/>
<polygon fill="#f5f5f5" stroke="transparent" points="314.5,-301.2 314.5,-324.2 485.5,-324.2 485.5,-301.2 314.5,-301.2"/>
<polygon fill="none" stroke="#000000" points="314.5,-301.2 314.5,-324.2 485.5,-324.2 485.5,-301.2 314.5,-301.2"/>
<text text-anchor="start" x="319.5" y="-309.8" font-family="Helvetica,sans-Serif" font-weight="bold" font-size="11.00" fill="#000000">act_re_decision_def</text>
<text text-anchor="start" x="450.5437" y="-309.3" font-family="Helvetica,sans-Serif" font-size="11.00" fill="#000000">[table]</text>
<polygon fill="none" stroke="#000000" points="314.5,-279.2 314.5,-301.2 485.5,-301.2 485.5,-279.2 314.5,-279.2"/>
<image xlink:href="../../images/primaryKeys.png" width="11px" height="12px" preserveAspectRatio="xMinYMin meet" x="319.5" y="-296.2"/>
<text text-anchor="start" x="334.5" y="-286.3" font-family="Helvetica,sans-Serif" font-size="11.00" fill="#000000">id_</text>
<polygon fill="#ffffff" stroke="transparent" points="314.5,-257.2 314.5,-279.2 485.5,-279.2 485.5,-257.2 314.5,-257.2"/>
<polygon fill="none" stroke="#000000" points="314.5,-257.2 314.5,-279.2 485.5,-279.2 485.5,-257.2 314.5,-257.2"/>
<image xlink:href="../../images/foreignKeys.png" width="11px" height="12px" preserveAspectRatio="xMinYMin meet" x="319.5" y="-274.2"/>
<text text-anchor="start" x="334.5" y="-264.3" font-family="Helvetica,sans-Serif" font-size="11.00" fill="#000000">dec_req_id_</text>
<polygon fill="#ffffff" stroke="transparent" points="314.5,-235.2 314.5,-257.2 485.5,-257.2 485.5,-235.2 314.5,-235.2"/>
<polygon fill="none" stroke="#000000" points="314.5,-235.2 314.5,-257.2 485.5,-257.2 485.5,-235.2 314.5,-235.2"/>
<text text-anchor="start" x="334.5" y="-242.3" font-family="Helvetica,sans-Serif" font-size="11.00" fill="#000000">tenant_id_</text>
<polygon fill="none" stroke="#000000" points="314.5,-216.2 314.5,-235.2 485.5,-235.2 485.5,-216.2 314.5,-216.2"/>
<text text-anchor="start" x="317.5" y="-222.3" font-family="Helvetica,sans-Serif" font-size="11.00" fill="#000000">...</text>
<polygon fill="#ffffff" stroke="transparent" points="314.5,-197.2 314.5,-216.2 398.5,-216.2 398.5,-197.2 314.5,-197.2"/>
<polygon fill="none" stroke="#000000" points="314.5,-197.2 314.5,-216.2 398.5,-216.2 398.5,-197.2 314.5,-197.2"/>
<text text-anchor="start" x="317.5" y="-203.3" font-family="Helvetica,sans-Serif" font-size="11.00" fill="#000000">&lt; 1</text>
<polygon fill="#ffffff" stroke="transparent" points="398.5,-197.2 398.5,-216.2 441.5,-216.2 441.5,-197.2 398.5,-197.2"/>
<polygon fill="none" stroke="#000000" points="398.5,-197.2 398.5,-216.2 441.5,-216.2 441.5,-197.2 398.5,-197.2"/>
<text text-anchor="start" x="432.3862" y="-203.3" font-family="Helvetica,sans-Serif" font-size="11.00" fill="#000000"> &#160;</text>
<polygon fill="#ffffff" stroke="transparent" points="441.5,-197.2 441.5,-216.2 485.5,-216.2 485.5,-197.2 441.5,-197.2"/>
<polygon fill="none" stroke="#000000" points="441.5,-197.2 441.5,-216.2 485.5,-216.2 485.5,-197.2 441.5,-197.2"/>
<text text-anchor="start" x="476.3862" y="-203.3" font-family="Helvetica,sans-Serif" font-size="11.00" fill="#000000"> &#160;</text>
</a>
</g>
</g>
<!-- act_re_decision_req_def -->
<g id="node2" class="node">
<title>act_re_decision_req_def</title>
<g id="a_node2"><a xlink:href="../../tables/act_re_decision_req_def.html" xlink:title="act_re_decision_req_def" target="_top">
<polygon fill="#ffffff" stroke="transparent" points="8,-38.2 8,-304.2 265,-304.2 265,-38.2 8,-38.2"/>
<polygon fill="#f5f5f5" stroke="transparent" points="10.5,-279.2 10.5,-302.2 263.5,-302.2 263.5,-279.2 10.5,-279.2"/>
<polygon fill="none" stroke="#000000" points="10.5,-279.2 10.5,-302.2 263.5,-302.2 263.5,-279.2 10.5,-279.2"/>
<text text-anchor="start" x="15.5" y="-287.8" font-family="Helvetica,sans-Serif" font-weight="bold" font-size="11.00" fill="#000000">act_re_decision_req_def</text>
<text text-anchor="start" x="228.5437" y="-287.3" font-family="Helvetica,sans-Serif" font-size="11.00" fill="#000000">[table]</text>
<polygon fill="none" stroke="#000000" points="10.5,-257.2 10.5,-279.2 190.5,-279.2 190.5,-257.2 10.5,-257.2"/>
<image xlink:href="../../images/primaryKeys.png" width="11px" height="12px" preserveAspectRatio="xMinYMin meet" x="15.5" y="-274.2"/>
<text text-anchor="start" x="30.5" y="-264.3" font-family="Helvetica,sans-Serif" font-size="11.00" fill="#000000">id_</text>
<polygon fill="none" stroke="#000000" points="190.5,-257.2 190.5,-279.2 263.5,-279.2 263.5,-257.2 190.5,-257.2"/>
<text text-anchor="start" x="193.5" y="-264.9" font-family="Helvetica,sans-Serif" font-size="11.00" fill="#000000">varchar[64]</text>
<polygon fill="none" stroke="#000000" points="10.5,-235.2 10.5,-257.2 190.5,-257.2 190.5,-235.2 10.5,-235.2"/>
<text text-anchor="start" x="30.5" y="-242.3" font-family="Helvetica,sans-Serif" font-size="11.00" fill="#000000">rev_</text>
<polygon fill="none" stroke="#000000" points="190.5,-235.2 190.5,-257.2 263.5,-257.2 263.5,-235.2 190.5,-235.2"/>
<text text-anchor="start" x="193.5" y="-242.9" font-family="Helvetica,sans-Serif" font-size="11.00" fill="#000000">int4[10]</text>
<polygon fill="none" stroke="#000000" points="10.5,-213.2 10.5,-235.2 190.5,-235.2 190.5,-213.2 10.5,-213.2"/>
<text text-anchor="start" x="30.5" y="-220.3" font-family="Helvetica,sans-Serif" font-size="11.00" fill="#000000">category_</text>
<polygon fill="none" stroke="#000000" points="190.5,-213.2 190.5,-235.2 263.5,-235.2 263.5,-213.2 190.5,-213.2"/>
<text text-anchor="start" x="193.5" y="-220.9" font-family="Helvetica,sans-Serif" font-size="11.00" fill="#000000">varchar[255]</text>
<polygon fill="none" stroke="#000000" points="10.5,-191.2 10.5,-213.2 190.5,-213.2 190.5,-191.2 10.5,-191.2"/>
<text text-anchor="start" x="30.5" y="-198.3" font-family="Helvetica,sans-Serif" font-size="11.00" fill="#000000">name_</text>
<polygon fill="none" stroke="#000000" points="190.5,-191.2 190.5,-213.2 263.5,-213.2 263.5,-191.2 190.5,-191.2"/>
<text text-anchor="start" x="193.5" y="-198.9" font-family="Helvetica,sans-Serif" font-size="11.00" fill="#000000">varchar[255]</text>
<polygon fill="none" stroke="#000000" points="10.5,-169.2 10.5,-191.2 190.5,-191.2 190.5,-169.2 10.5,-169.2"/>
<text text-anchor="start" x="30.5" y="-176.3" font-family="Helvetica,sans-Serif" font-size="11.00" fill="#000000">key_</text>
<polygon fill="none" stroke="#000000" points="190.5,-169.2 190.5,-191.2 263.5,-191.2 263.5,-169.2 190.5,-169.2"/>
<text text-anchor="start" x="193.5" y="-176.9" font-family="Helvetica,sans-Serif" font-size="11.00" fill="#000000">varchar[255]</text>
<polygon fill="none" stroke="#000000" points="10.5,-147.2 10.5,-169.2 190.5,-169.2 190.5,-147.2 10.5,-147.2"/>
<text text-anchor="start" x="30.5" y="-154.3" font-family="Helvetica,sans-Serif" font-size="11.00" fill="#000000">version_</text>
<polygon fill="none" stroke="#000000" points="190.5,-147.2 190.5,-169.2 263.5,-169.2 263.5,-147.2 190.5,-147.2"/>
<text text-anchor="start" x="193.5" y="-154.9" font-family="Helvetica,sans-Serif" font-size="11.00" fill="#000000">int4[10]</text>
<polygon fill="none" stroke="#000000" points="10.5,-125.2 10.5,-147.2 190.5,-147.2 190.5,-125.2 10.5,-125.2"/>
<text text-anchor="start" x="30.5" y="-132.3" font-family="Helvetica,sans-Serif" font-size="11.00" fill="#000000">deployment_id_</text>
<polygon fill="none" stroke="#000000" points="190.5,-125.2 190.5,-147.2 263.5,-147.2 263.5,-125.2 190.5,-125.2"/>
<text text-anchor="start" x="193.5" y="-132.9" font-family="Helvetica,sans-Serif" font-size="11.00" fill="#000000">varchar[64]</text>
<polygon fill="none" stroke="#000000" points="10.5,-103.2 10.5,-125.2 190.5,-125.2 190.5,-103.2 10.5,-103.2"/>
<text text-anchor="start" x="30.5" y="-110.3" font-family="Helvetica,sans-Serif" font-size="11.00" fill="#000000">resource_name_</text>
<polygon fill="none" stroke="#000000" points="190.5,-103.2 190.5,-125.2 263.5,-125.2 263.5,-103.2 190.5,-103.2"/>
<text text-anchor="start" x="193.3791" y="-110.9" font-family="Helvetica,sans-Serif" font-size="11.00" fill="#000000">varchar[4000]</text>
<polygon fill="none" stroke="#000000" points="10.5,-81.2 10.5,-103.2 190.5,-103.2 190.5,-81.2 10.5,-81.2"/>
<text text-anchor="start" x="30.5" y="-88.3" font-family="Helvetica,sans-Serif" font-size="11.00" fill="#000000">dgrm_resource_name_</text>
<polygon fill="none" stroke="#000000" points="190.5,-81.2 190.5,-103.2 263.5,-103.2 263.5,-81.2 190.5,-81.2"/>
<text text-anchor="start" x="193.3791" y="-88.9" font-family="Helvetica,sans-Serif" font-size="11.00" fill="#000000">varchar[4000]</text>
<polygon fill="#ffffff" stroke="transparent" points="10.5,-59.2 10.5,-81.2 190.5,-81.2 190.5,-59.2 10.5,-59.2"/>
<polygon fill="none" stroke="#000000" points="10.5,-59.2 10.5,-81.2 190.5,-81.2 190.5,-59.2 10.5,-59.2"/>
<text text-anchor="start" x="30.5" y="-66.3" font-family="Helvetica,sans-Serif" font-size="11.00" fill="#000000">tenant_id_</text>
<polygon fill="none" stroke="#000000" points="190.5,-59.2 190.5,-81.2 263.5,-81.2 263.5,-59.2 190.5,-59.2"/>
<text text-anchor="start" x="193.5" y="-66.9" font-family="Helvetica,sans-Serif" font-size="11.00" fill="#000000">varchar[64]</text>
<polygon fill="#ffffff" stroke="transparent" points="10.5,-40.2 10.5,-59.2 104.5,-59.2 104.5,-40.2 10.5,-40.2"/>
<polygon fill="none" stroke="#000000" points="10.5,-40.2 10.5,-59.2 104.5,-59.2 104.5,-40.2 10.5,-40.2"/>
<text text-anchor="start" x="13.5" y="-46.3" font-family="Helvetica,sans-Serif" font-size="11.00" fill="#000000">&lt; 0</text>
<polygon fill="#ffffff" stroke="transparent" points="104.5,-40.2 104.5,-59.2 190.5,-59.2 190.5,-40.2 104.5,-40.2"/>
<polygon fill="none" stroke="#000000" points="104.5,-40.2 104.5,-59.2 190.5,-59.2 190.5,-40.2 104.5,-40.2"/>
<text text-anchor="start" x="181.3862" y="-46.3" font-family="Helvetica,sans-Serif" font-size="11.00" fill="#000000"> &#160;</text>
<polygon fill="#ffffff" stroke="transparent" points="190.5,-40.2 190.5,-59.2 263.5,-59.2 263.5,-40.2 190.5,-40.2"/>
<polygon fill="none" stroke="#000000" points="190.5,-40.2 190.5,-59.2 263.5,-59.2 263.5,-40.2 190.5,-40.2"/>
<text text-anchor="start" x="244.9053" y="-46.3" font-family="Helvetica,sans-Serif" font-size="11.00" fill="#000000">1 &gt;</text>
<polygon fill="none" stroke="#000000" stroke-width="2" points="9,-39.2 9,-303.2 264,-303.2 264,-39.2 9,-39.2"/>
</a>
</g>
</g>
<!-- act_re_decision_def&#45;&gt;act_re_decision_req_def -->
<g id="edge1" class="edge">
<title>act_re_decision_def:w&#45;&gt;act_re_decision_req_def:e</title>
<path fill="none" stroke="#000000" d="M299.776,-268.2C287.7815,-268.2 280.3229,-268.2 263.5,-268.2"/>
<polygon fill="#000000" stroke="#000000" points="306.5,-268.2001 314.5,-271.8 310.5,-268.2 314.5,-268.2 314.5,-268.2 314.5,-268.2 310.5,-268.2 314.5,-264.6 306.5,-268.2001 306.5,-268.2001"/>
<ellipse fill="none" stroke="#000000" cx="303.3" cy="-268.2001" rx="3.2" ry="3.2"/>
</g>
</g>
</svg>
