<?xml version="1.0" encoding="UTF-8" standalone="no"?>
<!DOCTYPE svg PUBLIC "-//W3C//DTD SVG 1.1//EN"
 "http://www.w3.org/Graphics/SVG/1.1/DTD/svg11.dtd">
<!-- Generated by graphviz version 2.40.1 (20161225.0304)
 -->
<!-- Title: oneDegreeRelationshipsDiagram Pages: 1 -->
<svg width="741pt" height="567pt"
 viewBox="0.00 0.00 741.21 566.70" xmlns="http://www.w3.org/2000/svg" xmlns:xlink="http://www.w3.org/1999/xlink">
<g id="graph0" class="graph" transform="scale(1 1) rotate(0) translate(4 562.7)">
<title>oneDegreeRelationshipsDiagram</title>
<polygon fill="#ffffff" stroke="transparent" points="-4,4 -4,-562.7 737.2129,-562.7 737.2129,4 -4,4"/>
<text text-anchor="middle" x="72.4936" y="-7.3" font-family="Helvetica,sans-Serif" font-size="11.00" fill="#000000">Generated by SchemaSpy</text>
<!-- act_ru_execution -->
<g id="node1" class="node">
<title>act_ru_execution</title>
<g id="a_node1"><a xlink:href="../../tables/act_ru_execution.html" xlink:title="act_ru_execution" target="_top">
<polygon fill="#ffffff" stroke="transparent" points="228,-214.2 228,-451.2 380,-451.2 380,-214.2 228,-214.2"/>
<polygon fill="#f5f5f5" stroke="transparent" points="228,-427.7 228,-450.7 380,-450.7 380,-427.7 228,-427.7"/>
<polygon fill="none" stroke="#000000" points="228,-427.7 228,-450.7 380,-450.7 380,-427.7 228,-427.7"/>
<text text-anchor="start" x="233" y="-436.3" font-family="Helvetica,sans-Serif" font-weight="bold" font-size="11.00" fill="#000000">act_ru_execution</text>
<text text-anchor="start" x="345.5219" y="-435.8" font-family="Helvetica,sans-Serif" font-size="11.00" fill="#000000">[table]</text>
<polygon fill="none" stroke="#000000" points="228,-405.7 228,-427.7 380,-427.7 380,-405.7 228,-405.7"/>
<image xlink:href="../../images/primaryKeys.png" width="11px" height="12px" preserveAspectRatio="xMinYMin meet" x="233" y="-422.7"/>
<text text-anchor="start" x="250" y="-412.8" font-family="Helvetica,sans-Serif" font-size="11.00" fill="#000000">id_</text>
<polygon fill="#ffffff" stroke="transparent" points="228,-383.7 228,-405.7 380,-405.7 380,-383.7 228,-383.7"/>
<polygon fill="none" stroke="#000000" points="228,-383.7 228,-405.7 380,-405.7 380,-383.7 228,-383.7"/>
<text text-anchor="start" x="250" y="-390.8" font-family="Helvetica,sans-Serif" font-size="11.00" fill="#000000">root_proc_inst_id_</text>
<polygon fill="#ffffff" stroke="transparent" points="228,-361.7 228,-383.7 380,-383.7 380,-361.7 228,-361.7"/>
<polygon fill="none" stroke="#000000" points="228,-361.7 228,-383.7 380,-383.7 380,-361.7 228,-361.7"/>
<image xlink:href="../../images/foreignKeys.png" width="11px" height="12px" preserveAspectRatio="xMinYMin meet" x="233" y="-378.7"/>
<text text-anchor="start" x="250" y="-368.8" font-family="Helvetica,sans-Serif" font-size="11.00" fill="#000000">proc_inst_id_</text>
<polygon fill="#ffffff" stroke="transparent" points="228,-339.7 228,-361.7 380,-361.7 380,-339.7 228,-339.7"/>
<polygon fill="none" stroke="#000000" points="228,-339.7 228,-361.7 380,-361.7 380,-339.7 228,-339.7"/>
<text text-anchor="start" x="250" y="-346.8" font-family="Helvetica,sans-Serif" font-size="11.00" fill="#000000">business_key_</text>
<polygon fill="#ffffff" stroke="transparent" points="228,-317.7 228,-339.7 380,-339.7 380,-317.7 228,-317.7"/>
<polygon fill="none" stroke="#000000" points="228,-317.7 228,-339.7 380,-339.7 380,-317.7 228,-317.7"/>
<image xlink:href="../../images/foreignKeys.png" width="11px" height="12px" preserveAspectRatio="xMinYMin meet" x="233" y="-334.7"/>
<text text-anchor="start" x="250" y="-324.8" font-family="Helvetica,sans-Serif" font-size="11.00" fill="#000000">parent_id_</text>
<polygon fill="#ffffff" stroke="transparent" points="228,-295.7 228,-317.7 380,-317.7 380,-295.7 228,-295.7"/>
<polygon fill="none" stroke="#000000" points="228,-295.7 228,-317.7 380,-317.7 380,-295.7 228,-295.7"/>
<image xlink:href="../../images/foreignKeys.png" width="11px" height="12px" preserveAspectRatio="xMinYMin meet" x="233" y="-312.7"/>
<text text-anchor="start" x="250" y="-302.8" font-family="Helvetica,sans-Serif" font-size="11.00" fill="#000000">proc_def_id_</text>
<polygon fill="#ffffff" stroke="transparent" points="228,-273.7 228,-295.7 380,-295.7 380,-273.7 228,-273.7"/>
<polygon fill="none" stroke="#000000" points="228,-273.7 228,-295.7 380,-295.7 380,-273.7 228,-273.7"/>
<image xlink:href="../../images/foreignKeys.png" width="11px" height="12px" preserveAspectRatio="xMinYMin meet" x="233" y="-290.7"/>
<text text-anchor="start" x="250" y="-280.8" font-family="Helvetica,sans-Serif" font-size="11.00" fill="#000000">super_exec_</text>
<polygon fill="#ffffff" stroke="transparent" points="228,-251.7 228,-273.7 380,-273.7 380,-251.7 228,-251.7"/>
<polygon fill="none" stroke="#000000" points="228,-251.7 228,-273.7 380,-273.7 380,-251.7 228,-251.7"/>
<text text-anchor="start" x="250" y="-258.8" font-family="Helvetica,sans-Serif" font-size="11.00" fill="#000000">tenant_id_</text>
<polygon fill="none" stroke="#000000" points="228,-232.7 228,-251.7 380,-251.7 380,-232.7 228,-232.7"/>
<text text-anchor="start" x="231" y="-238.8" font-family="Helvetica,sans-Serif" font-size="11.00" fill="#000000">...</text>
<polygon fill="#ffffff" stroke="transparent" points="228,-213.7 228,-232.7 295,-232.7 295,-213.7 228,-213.7"/>
<polygon fill="none" stroke="#000000" points="228,-213.7 228,-232.7 295,-232.7 295,-213.7 228,-213.7"/>
<text text-anchor="start" x="231" y="-219.8" font-family="Helvetica,sans-Serif" font-size="11.00" fill="#000000">&lt; 4</text>
<polygon fill="#ffffff" stroke="transparent" points="295,-213.7 295,-232.7 330,-232.7 330,-213.7 295,-213.7"/>
<polygon fill="none" stroke="#000000" points="295,-213.7 295,-232.7 330,-232.7 330,-213.7 295,-213.7"/>
<text text-anchor="start" x="320.8862" y="-219.8" font-family="Helvetica,sans-Serif" font-size="11.00" fill="#000000"> &#160;</text>
<polygon fill="#ffffff" stroke="transparent" points="330,-213.7 330,-232.7 380,-232.7 380,-213.7 330,-213.7"/>
<polygon fill="none" stroke="#000000" points="330,-213.7 330,-232.7 380,-232.7 380,-213.7 330,-213.7"/>
<text text-anchor="start" x="355.2904" y="-219.8" font-family="Helvetica,sans-Serif" font-size="11.00" fill="#000000">11 &gt;</text>
</a>
</g>
</g>
<!-- act_re_procdef -->
<g id="node2" class="node">
<title>act_re_procdef</title>
<g id="a_node2"><a xlink:href="../../tables/act_re_procdef.html" xlink:title="act_re_procdef" target="_top">
<polygon fill="#ffffff" stroke="transparent" points="8,-133.2 8,-282.2 179,-282.2 179,-133.2 8,-133.2"/>
<polygon fill="#f5f5f5" stroke="transparent" points="8.5,-258.7 8.5,-281.7 179.5,-281.7 179.5,-258.7 8.5,-258.7"/>
<polygon fill="none" stroke="#000000" points="8.5,-258.7 8.5,-281.7 179.5,-281.7 179.5,-258.7 8.5,-258.7"/>
<text text-anchor="start" x="13.5" y="-267.3" font-family="Helvetica,sans-Serif" font-weight="bold" font-size="11.00" fill="#000000">act_re_procdef</text>
<text text-anchor="start" x="144.5437" y="-266.8" font-family="Helvetica,sans-Serif" font-size="11.00" fill="#000000">[table]</text>
<polygon fill="none" stroke="#000000" points="8.5,-236.7 8.5,-258.7 179.5,-258.7 179.5,-236.7 8.5,-236.7"/>
<image xlink:href="../../images/primaryKeys.png" width="11px" height="12px" preserveAspectRatio="xMinYMin meet" x="13.5" y="-253.7"/>
<text text-anchor="start" x="28.5" y="-243.8" font-family="Helvetica,sans-Serif" font-size="11.00" fill="#000000">id_</text>
<polygon fill="#ffffff" stroke="transparent" points="8.5,-214.7 8.5,-236.7 179.5,-236.7 179.5,-214.7 8.5,-214.7"/>
<polygon fill="none" stroke="#000000" points="8.5,-214.7 8.5,-236.7 179.5,-236.7 179.5,-214.7 8.5,-214.7"/>
<text text-anchor="start" x="28.5" y="-221.8" font-family="Helvetica,sans-Serif" font-size="11.00" fill="#000000">deployment_id_</text>
<polygon fill="#ffffff" stroke="transparent" points="8.5,-192.7 8.5,-214.7 179.5,-214.7 179.5,-192.7 8.5,-192.7"/>
<polygon fill="none" stroke="#000000" points="8.5,-192.7 8.5,-214.7 179.5,-214.7 179.5,-192.7 8.5,-192.7"/>
<text text-anchor="start" x="28.5" y="-199.8" font-family="Helvetica,sans-Serif" font-size="11.00" fill="#000000">tenant_id_</text>
<polygon fill="#ffffff" stroke="transparent" points="8.5,-170.7 8.5,-192.7 179.5,-192.7 179.5,-170.7 8.5,-170.7"/>
<polygon fill="none" stroke="#000000" points="8.5,-170.7 8.5,-192.7 179.5,-192.7 179.5,-170.7 8.5,-170.7"/>
<text text-anchor="start" x="28.5" y="-177.8" font-family="Helvetica,sans-Serif" font-size="11.00" fill="#000000">version_tag_</text>
<polygon fill="none" stroke="#000000" points="8.5,-151.7 8.5,-170.7 179.5,-170.7 179.5,-151.7 8.5,-151.7"/>
<text text-anchor="start" x="11.5" y="-157.8" font-family="Helvetica,sans-Serif" font-size="11.00" fill="#000000">...</text>
<polygon fill="#ffffff" stroke="transparent" points="8.5,-132.7 8.5,-151.7 83.5,-151.7 83.5,-132.7 8.5,-132.7"/>
<polygon fill="none" stroke="#000000" points="8.5,-132.7 8.5,-151.7 83.5,-151.7 83.5,-132.7 8.5,-132.7"/>
<text text-anchor="start" x="11.5" y="-138.8" font-family="Helvetica,sans-Serif" font-size="11.00" fill="#000000"> &#160;</text>
<polygon fill="#ffffff" stroke="transparent" points="83.5,-132.7 83.5,-151.7 126.5,-151.7 126.5,-132.7 83.5,-132.7"/>
<polygon fill="none" stroke="#000000" points="83.5,-132.7 83.5,-151.7 126.5,-151.7 126.5,-132.7 83.5,-132.7"/>
<text text-anchor="start" x="117.3862" y="-138.8" font-family="Helvetica,sans-Serif" font-size="11.00" fill="#000000"> &#160;</text>
<polygon fill="#ffffff" stroke="transparent" points="126.5,-132.7 126.5,-151.7 179.5,-151.7 179.5,-132.7 126.5,-132.7"/>
<polygon fill="none" stroke="#000000" points="126.5,-132.7 126.5,-151.7 179.5,-151.7 179.5,-132.7 126.5,-132.7"/>
<text text-anchor="start" x="160.9053" y="-138.8" font-family="Helvetica,sans-Serif" font-size="11.00" fill="#000000">4 &gt;</text>
</a>
</g>
</g>
<!-- act_ru_execution&#45;&gt;act_re_procdef -->
<g id="edge1" class="edge">
<title>act_ru_execution:w&#45;&gt;act_re_procdef:e</title>
<path fill="none" stroke="#000000" d="M214.2489,-301.6697C199.3013,-287.4018 207.3453,-247.7 179.5,-247.7"/>
<polygon fill="#000000" stroke="#000000" points="220.4869,-303.9516 226.7632,-310.0809 224.2435,-305.3258 228,-306.7 228,-306.7 228,-306.7 224.2435,-305.3258 229.2368,-303.3191 220.4869,-303.9516 220.4869,-303.9516"/>
<ellipse fill="none" stroke="#000000" cx="217.4817" cy="-302.8522" rx="3.2" ry="3.2"/>
</g>
<!-- act_ru_incident -->
<g id="node3" class="node">
<title>act_ru_incident</title>
<g id="a_node3"><a xlink:href="../../tables/act_ru_incident.html" xlink:title="act_ru_incident" target="_top">
<polygon fill="#ffffff" stroke="transparent" points="429,-120.7 429,-518.7 696,-518.7 696,-120.7 429,-120.7"/>
<polygon fill="#f5f5f5" stroke="transparent" points="431.5,-493.7 431.5,-516.7 694.5,-516.7 694.5,-493.7 431.5,-493.7"/>
<polygon fill="none" stroke="#000000" points="431.5,-493.7 431.5,-516.7 694.5,-516.7 694.5,-493.7 431.5,-493.7"/>
<text text-anchor="start" x="436.5" y="-502.3" font-family="Helvetica,sans-Serif" font-weight="bold" font-size="11.00" fill="#000000">act_ru_incident</text>
<text text-anchor="start" x="659.5437" y="-501.8" font-family="Helvetica,sans-Serif" font-size="11.00" fill="#000000">[table]</text>
<polygon fill="none" stroke="#000000" points="431.5,-471.7 431.5,-493.7 610.5,-493.7 610.5,-471.7 431.5,-471.7"/>
<image xlink:href="../../images/primaryKeys.png" width="11px" height="12px" preserveAspectRatio="xMinYMin meet" x="436.5" y="-488.7"/>
<text text-anchor="start" x="451.5" y="-478.8" font-family="Helvetica,sans-Serif" font-size="11.00" fill="#000000">id_</text>
<polygon fill="none" stroke="#000000" points="610.5,-471.7 610.5,-493.7 694.5,-493.7 694.5,-471.7 610.5,-471.7"/>
<text text-anchor="start" x="613.5" y="-479.4" font-family="Helvetica,sans-Serif" font-size="11.00" fill="#000000">varchar[64]</text>
<polygon fill="none" stroke="#000000" points="431.5,-449.7 431.5,-471.7 610.5,-471.7 610.5,-449.7 431.5,-449.7"/>
<text text-anchor="start" x="451.5" y="-456.8" font-family="Helvetica,sans-Serif" font-size="11.00" fill="#000000">rev_</text>
<polygon fill="none" stroke="#000000" points="610.5,-449.7 610.5,-471.7 694.5,-471.7 694.5,-449.7 610.5,-449.7"/>
<text text-anchor="start" x="613.5" y="-457.4" font-family="Helvetica,sans-Serif" font-size="11.00" fill="#000000">int4[10]</text>
<polygon fill="none" stroke="#000000" points="431.5,-427.7 431.5,-449.7 610.5,-449.7 610.5,-427.7 431.5,-427.7"/>
<text text-anchor="start" x="451.5" y="-434.8" font-family="Helvetica,sans-Serif" font-size="11.00" fill="#000000">incident_timestamp_</text>
<polygon fill="none" stroke="#000000" points="610.5,-427.7 610.5,-449.7 694.5,-449.7 694.5,-427.7 610.5,-427.7"/>
<text text-anchor="start" x="613.3807" y="-435.4" font-family="Helvetica,sans-Serif" font-size="11.00" fill="#000000">timestamp[29,6]</text>
<polygon fill="none" stroke="#000000" points="431.5,-405.7 431.5,-427.7 610.5,-427.7 610.5,-405.7 431.5,-405.7"/>
<text text-anchor="start" x="451.5" y="-412.8" font-family="Helvetica,sans-Serif" font-size="11.00" fill="#000000">incident_msg_</text>
<polygon fill="none" stroke="#000000" points="610.5,-405.7 610.5,-427.7 694.5,-427.7 694.5,-405.7 610.5,-405.7"/>
<text text-anchor="start" x="613.5" y="-413.4" font-family="Helvetica,sans-Serif" font-size="11.00" fill="#000000">varchar[4000]</text>
<polygon fill="none" stroke="#000000" points="431.5,-383.7 431.5,-405.7 610.5,-405.7 610.5,-383.7 431.5,-383.7"/>
<text text-anchor="start" x="451.5" y="-390.8" font-family="Helvetica,sans-Serif" font-size="11.00" fill="#000000">incident_type_</text>
<polygon fill="none" stroke="#000000" points="610.5,-383.7 610.5,-405.7 694.5,-405.7 694.5,-383.7 610.5,-383.7"/>
<text text-anchor="start" x="613.5" y="-391.4" font-family="Helvetica,sans-Serif" font-size="11.00" fill="#000000">varchar[255]</text>
<polygon fill="#ffffff" stroke="transparent" points="431.5,-361.7 431.5,-383.7 610.5,-383.7 610.5,-361.7 431.5,-361.7"/>
<polygon fill="none" stroke="#000000" points="431.5,-361.7 431.5,-383.7 610.5,-383.7 610.5,-361.7 431.5,-361.7"/>
<image xlink:href="../../images/foreignKeys.png" width="11px" height="12px" preserveAspectRatio="xMinYMin meet" x="436.5" y="-378.7"/>
<text text-anchor="start" x="451.5" y="-368.8" font-family="Helvetica,sans-Serif" font-size="11.00" fill="#000000">execution_id_</text>
<polygon fill="none" stroke="#000000" points="610.5,-361.7 610.5,-383.7 694.5,-383.7 694.5,-361.7 610.5,-361.7"/>
<text text-anchor="start" x="613.5" y="-369.4" font-family="Helvetica,sans-Serif" font-size="11.00" fill="#000000">varchar[64]</text>
<polygon fill="none" stroke="#000000" points="431.5,-339.7 431.5,-361.7 610.5,-361.7 610.5,-339.7 431.5,-339.7"/>
<text text-anchor="start" x="451.5" y="-346.8" font-family="Helvetica,sans-Serif" font-size="11.00" fill="#000000">activity_id_</text>
<polygon fill="none" stroke="#000000" points="610.5,-339.7 610.5,-361.7 694.5,-361.7 694.5,-339.7 610.5,-339.7"/>
<text text-anchor="start" x="613.5" y="-347.4" font-family="Helvetica,sans-Serif" font-size="11.00" fill="#000000">varchar[255]</text>
<polygon fill="none" stroke="#000000" points="431.5,-317.7 431.5,-339.7 610.5,-339.7 610.5,-317.7 431.5,-317.7"/>
<text text-anchor="start" x="451.5" y="-324.8" font-family="Helvetica,sans-Serif" font-size="11.00" fill="#000000">failed_activity_id_</text>
<polygon fill="none" stroke="#000000" points="610.5,-317.7 610.5,-339.7 694.5,-339.7 694.5,-317.7 610.5,-317.7"/>
<text text-anchor="start" x="613.5" y="-325.4" font-family="Helvetica,sans-Serif" font-size="11.00" fill="#000000">varchar[255]</text>
<polygon fill="#ffffff" stroke="transparent" points="431.5,-295.7 431.5,-317.7 610.5,-317.7 610.5,-295.7 431.5,-295.7"/>
<polygon fill="none" stroke="#000000" points="431.5,-295.7 431.5,-317.7 610.5,-317.7 610.5,-295.7 431.5,-295.7"/>
<image xlink:href="../../images/foreignKeys.png" width="11px" height="12px" preserveAspectRatio="xMinYMin meet" x="436.5" y="-312.7"/>
<text text-anchor="start" x="451.5" y="-302.8" font-family="Helvetica,sans-Serif" font-size="11.00" fill="#000000">proc_inst_id_</text>
<polygon fill="none" stroke="#000000" points="610.5,-295.7 610.5,-317.7 694.5,-317.7 694.5,-295.7 610.5,-295.7"/>
<text text-anchor="start" x="613.5" y="-303.4" font-family="Helvetica,sans-Serif" font-size="11.00" fill="#000000">varchar[64]</text>
<polygon fill="#ffffff" stroke="transparent" points="431.5,-273.7 431.5,-295.7 610.5,-295.7 610.5,-273.7 431.5,-273.7"/>
<polygon fill="none" stroke="#000000" points="431.5,-273.7 431.5,-295.7 610.5,-295.7 610.5,-273.7 431.5,-273.7"/>
<image xlink:href="../../images/foreignKeys.png" width="11px" height="12px" preserveAspectRatio="xMinYMin meet" x="436.5" y="-290.7"/>
<text text-anchor="start" x="451.5" y="-280.8" font-family="Helvetica,sans-Serif" font-size="11.00" fill="#000000">proc_def_id_</text>
<polygon fill="none" stroke="#000000" points="610.5,-273.7 610.5,-295.7 694.5,-295.7 694.5,-273.7 610.5,-273.7"/>
<text text-anchor="start" x="613.5" y="-281.4" font-family="Helvetica,sans-Serif" font-size="11.00" fill="#000000">varchar[64]</text>
<polygon fill="#ffffff" stroke="transparent" points="431.5,-251.7 431.5,-273.7 610.5,-273.7 610.5,-251.7 431.5,-251.7"/>
<polygon fill="none" stroke="#000000" points="431.5,-251.7 431.5,-273.7 610.5,-273.7 610.5,-251.7 431.5,-251.7"/>
<image xlink:href="../../images/foreignKeys.png" width="11px" height="12px" preserveAspectRatio="xMinYMin meet" x="436.5" y="-268.7"/>
<text text-anchor="start" x="451.5" y="-258.8" font-family="Helvetica,sans-Serif" font-size="11.00" fill="#000000">cause_incident_id_</text>
<polygon fill="none" stroke="#000000" points="610.5,-251.7 610.5,-273.7 694.5,-273.7 694.5,-251.7 610.5,-251.7"/>
<text text-anchor="start" x="613.5" y="-259.4" font-family="Helvetica,sans-Serif" font-size="11.00" fill="#000000">varchar[64]</text>
<polygon fill="#ffffff" stroke="transparent" points="431.5,-229.7 431.5,-251.7 610.5,-251.7 610.5,-229.7 431.5,-229.7"/>
<polygon fill="none" stroke="#000000" points="431.5,-229.7 431.5,-251.7 610.5,-251.7 610.5,-229.7 431.5,-229.7"/>
<image xlink:href="../../images/foreignKeys.png" width="11px" height="12px" preserveAspectRatio="xMinYMin meet" x="436.5" y="-246.7"/>
<text text-anchor="start" x="451.5" y="-236.8" font-family="Helvetica,sans-Serif" font-size="11.00" fill="#000000">root_cause_incident_id_</text>
<polygon fill="none" stroke="#000000" points="610.5,-229.7 610.5,-251.7 694.5,-251.7 694.5,-229.7 610.5,-229.7"/>
<text text-anchor="start" x="613.5" y="-237.4" font-family="Helvetica,sans-Serif" font-size="11.00" fill="#000000">varchar[64]</text>
<polygon fill="#ffffff" stroke="transparent" points="431.5,-207.7 431.5,-229.7 610.5,-229.7 610.5,-207.7 431.5,-207.7"/>
<polygon fill="none" stroke="#000000" points="431.5,-207.7 431.5,-229.7 610.5,-229.7 610.5,-207.7 431.5,-207.7"/>
<text text-anchor="start" x="451.5" y="-214.8" font-family="Helvetica,sans-Serif" font-size="11.00" fill="#000000">configuration_</text>
<polygon fill="none" stroke="#000000" points="610.5,-207.7 610.5,-229.7 694.5,-229.7 694.5,-207.7 610.5,-207.7"/>
<text text-anchor="start" x="613.5" y="-215.4" font-family="Helvetica,sans-Serif" font-size="11.00" fill="#000000">varchar[255]</text>
<polygon fill="#ffffff" stroke="transparent" points="431.5,-185.7 431.5,-207.7 610.5,-207.7 610.5,-185.7 431.5,-185.7"/>
<polygon fill="none" stroke="#000000" points="431.5,-185.7 431.5,-207.7 610.5,-207.7 610.5,-185.7 431.5,-185.7"/>
<text text-anchor="start" x="451.5" y="-192.8" font-family="Helvetica,sans-Serif" font-size="11.00" fill="#000000">tenant_id_</text>
<polygon fill="none" stroke="#000000" points="610.5,-185.7 610.5,-207.7 694.5,-207.7 694.5,-185.7 610.5,-185.7"/>
<text text-anchor="start" x="613.5" y="-193.4" font-family="Helvetica,sans-Serif" font-size="11.00" fill="#000000">varchar[64]</text>
<polygon fill="#ffffff" stroke="transparent" points="431.5,-163.7 431.5,-185.7 610.5,-185.7 610.5,-163.7 431.5,-163.7"/>
<polygon fill="none" stroke="#000000" points="431.5,-163.7 431.5,-185.7 610.5,-185.7 610.5,-163.7 431.5,-163.7"/>
<image xlink:href="../../images/foreignKeys.png" width="11px" height="12px" preserveAspectRatio="xMinYMin meet" x="436.5" y="-180.7"/>
<text text-anchor="start" x="451.5" y="-170.8" font-family="Helvetica,sans-Serif" font-size="11.00" fill="#000000">job_def_id_</text>
<polygon fill="none" stroke="#000000" points="610.5,-163.7 610.5,-185.7 694.5,-185.7 694.5,-163.7 610.5,-163.7"/>
<text text-anchor="start" x="613.5" y="-171.4" font-family="Helvetica,sans-Serif" font-size="11.00" fill="#000000">varchar[64]</text>
<polygon fill="none" stroke="#000000" points="431.5,-141.7 431.5,-163.7 610.5,-163.7 610.5,-141.7 431.5,-141.7"/>
<text text-anchor="start" x="451.5" y="-148.8" font-family="Helvetica,sans-Serif" font-size="11.00" fill="#000000">annotation_</text>
<polygon fill="none" stroke="#000000" points="610.5,-141.7 610.5,-163.7 694.5,-163.7 694.5,-141.7 610.5,-141.7"/>
<text text-anchor="start" x="613.5" y="-149.4" font-family="Helvetica,sans-Serif" font-size="11.00" fill="#000000">varchar[4000]</text>
<polygon fill="#ffffff" stroke="transparent" points="431.5,-122.7 431.5,-141.7 525.5,-141.7 525.5,-122.7 431.5,-122.7"/>
<polygon fill="none" stroke="#000000" points="431.5,-122.7 431.5,-141.7 525.5,-141.7 525.5,-122.7 431.5,-122.7"/>
<text text-anchor="start" x="434.5" y="-128.8" font-family="Helvetica,sans-Serif" font-size="11.00" fill="#000000">&lt; 6</text>
<polygon fill="#ffffff" stroke="transparent" points="525.5,-122.7 525.5,-141.7 610.5,-141.7 610.5,-122.7 525.5,-122.7"/>
<polygon fill="none" stroke="#000000" points="525.5,-122.7 525.5,-141.7 610.5,-141.7 610.5,-122.7 525.5,-122.7"/>
<text text-anchor="start" x="601.3862" y="-128.8" font-family="Helvetica,sans-Serif" font-size="11.00" fill="#000000"> &#160;</text>
<polygon fill="#ffffff" stroke="transparent" points="610.5,-122.7 610.5,-141.7 694.5,-141.7 694.5,-122.7 610.5,-122.7"/>
<polygon fill="none" stroke="#000000" points="610.5,-122.7 610.5,-141.7 694.5,-141.7 694.5,-122.7 610.5,-122.7"/>
<text text-anchor="start" x="675.9053" y="-128.8" font-family="Helvetica,sans-Serif" font-size="11.00" fill="#000000">2 &gt;</text>
<polygon fill="none" stroke="#000000" stroke-width="2" points="430,-121.7 430,-517.7 695,-517.7 695,-121.7 430,-121.7"/>
</a>
</g>
</g>
<!-- act_ru_incident&#45;&gt;act_ru_execution -->
<g id="edge3" class="edge">
<title>act_ru_incident:w&#45;&gt;act_ru_execution:e</title>
<path fill="none" stroke="#000000" d="M417.7239,-377.0797C403.3166,-388.209 404.2253,-416.7 380,-416.7"/>
<polygon fill="#000000" stroke="#000000" points="423.876,-375.1239 432.5907,-376.1308 427.688,-373.9119 431.5,-372.7 431.5,-372.7 431.5,-372.7 427.688,-373.9119 430.4093,-369.2692 423.876,-375.1239 423.876,-375.1239"/>
<ellipse fill="none" stroke="#000000" cx="420.8264" cy="-376.0934" rx="3.2" ry="3.2"/>
</g>
<!-- act_ru_incident&#45;&gt;act_ru_execution -->
<g id="edge6" class="edge">
<title>act_ru_incident:w&#45;&gt;act_ru_execution:e</title>
<path fill="none" stroke="#000000" d="M417.462,-310.3599C388.5484,-329.4466 428.0775,-416.7 380,-416.7"/>
<polygon fill="#000000" stroke="#000000" points="423.7588,-308.7183 432.4082,-310.1836 427.6294,-307.7091 431.5,-306.7 431.5,-306.7 431.5,-306.7 427.6294,-307.7091 430.5918,-303.2164 423.7588,-308.7183 423.7588,-308.7183"/>
<ellipse fill="none" stroke="#000000" cx="420.6623" cy="-309.5256" rx="3.2" ry="3.2"/>
</g>
<!-- act_ru_incident&#45;&gt;act_re_procdef -->
<g id="edge5" class="edge">
<title>act_ru_incident:w&#45;&gt;act_re_procdef:e</title>
<path fill="none" stroke="#000000" d="M417.4298,-280.8709C398.9523,-267.317 417.7272,-221.4782 388,-203.7 323.9186,-165.3765 288.3768,-173.7047 220,-203.7 195.6604,-214.3772 206.0786,-247.7 179.5,-247.7"/>
<polygon fill="#000000" stroke="#000000" points="423.7807,-282.5992 430.5546,-288.1737 427.6404,-283.6496 431.5,-284.7 431.5,-284.7 431.5,-284.7 427.6404,-283.6496 432.4454,-281.2263 423.7807,-282.5992 423.7807,-282.5992"/>
<ellipse fill="none" stroke="#000000" cx="420.693" cy="-281.7589" rx="3.2" ry="3.2"/>
</g>
<!-- act_ru_incident&#45;&gt;act_ru_incident -->
<g id="edge2" class="edge">
<title>act_ru_incident:w&#45;&gt;act_ru_incident:e</title>
<path fill="none" stroke="#000000" d="M422.5284,-274.1311C367.4673,-353.8497 376.5703,-535.7 563,-535.7 759,-535.7 759,-527.0333 694.5,-482.7"/>
<polygon fill="#000000" stroke="#000000" points="426.5608,-268.9932 434.332,-264.9226 429.0304,-265.8466 431.5,-262.7 431.5,-262.7 431.5,-262.7 429.0304,-265.8466 428.668,-260.4774 426.5608,-268.9932 426.5608,-268.9932"/>
<ellipse fill="none" stroke="#000000" cx="424.5851" cy="-271.5105" rx="3.2" ry="3.2"/>
</g>
<!-- act_ru_incident&#45;&gt;act_ru_incident -->
<g id="edge7" class="edge">
<title>act_ru_incident:w&#45;&gt;act_ru_incident:e</title>
<path fill="none" stroke="#000000" d="M422.5284,-252.2834C367.4673,-333.9457 376.5703,-535.7 563,-535.7 759,-535.7 759,-527.0333 694.5,-482.7"/>
<polygon fill="#000000" stroke="#000000" points="426.6013,-247.0248 434.3462,-242.9044 429.0506,-243.8624 431.5,-240.7 431.5,-240.7 431.5,-240.7 429.0506,-243.8624 428.6538,-238.4956 426.6013,-247.0248 426.6013,-247.0248"/>
<ellipse fill="none" stroke="#000000" cx="424.6418" cy="-249.5547" rx="3.2" ry="3.2"/>
</g>
<!-- act_ru_jobdef -->
<g id="node4" class="node">
<title>act_ru_jobdef</title>
<g id="a_node4"><a xlink:href="../../tables/act_ru_jobdef.html" xlink:title="act_ru_jobdef" target="_top">
<polygon fill="#ffffff" stroke="transparent" points="232,-38.2 232,-165.2 376,-165.2 376,-38.2 232,-38.2"/>
<polygon fill="#f5f5f5" stroke="transparent" points="232,-141.7 232,-164.7 376,-164.7 376,-141.7 232,-141.7"/>
<polygon fill="none" stroke="#000000" points="232,-141.7 232,-164.7 376,-164.7 376,-141.7 232,-141.7"/>
<text text-anchor="start" x="237" y="-150.3" font-family="Helvetica,sans-Serif" font-weight="bold" font-size="11.00" fill="#000000">act_ru_jobdef</text>
<text text-anchor="start" x="341.0437" y="-149.8" font-family="Helvetica,sans-Serif" font-size="11.00" fill="#000000">[table]</text>
<polygon fill="none" stroke="#000000" points="232,-119.7 232,-141.7 376,-141.7 376,-119.7 232,-119.7"/>
<image xlink:href="../../images/primaryKeys.png" width="11px" height="12px" preserveAspectRatio="xMinYMin meet" x="237" y="-136.7"/>
<text text-anchor="start" x="252" y="-126.8" font-family="Helvetica,sans-Serif" font-size="11.00" fill="#000000">id_</text>
<polygon fill="#ffffff" stroke="transparent" points="232,-97.7 232,-119.7 376,-119.7 376,-97.7 232,-97.7"/>
<polygon fill="none" stroke="#000000" points="232,-97.7 232,-119.7 376,-119.7 376,-97.7 232,-97.7"/>
<text text-anchor="start" x="252" y="-104.8" font-family="Helvetica,sans-Serif" font-size="11.00" fill="#000000">proc_def_id_</text>
<polygon fill="#ffffff" stroke="transparent" points="232,-75.7 232,-97.7 376,-97.7 376,-75.7 232,-75.7"/>
<polygon fill="none" stroke="#000000" points="232,-75.7 232,-97.7 376,-97.7 376,-75.7 232,-75.7"/>
<text text-anchor="start" x="252" y="-82.8" font-family="Helvetica,sans-Serif" font-size="11.00" fill="#000000">tenant_id_</text>
<polygon fill="none" stroke="#000000" points="232,-56.7 232,-75.7 376,-75.7 376,-56.7 232,-56.7"/>
<text text-anchor="start" x="235" y="-62.8" font-family="Helvetica,sans-Serif" font-size="11.00" fill="#000000">...</text>
<polygon fill="#ffffff" stroke="transparent" points="232,-37.7 232,-56.7 293,-56.7 293,-37.7 232,-37.7"/>
<polygon fill="none" stroke="#000000" points="232,-37.7 232,-56.7 293,-56.7 293,-37.7 232,-37.7"/>
<text text-anchor="start" x="235" y="-43.8" font-family="Helvetica,sans-Serif" font-size="11.00" fill="#000000"> &#160;</text>
<polygon fill="#ffffff" stroke="transparent" points="293,-37.7 293,-56.7 330,-56.7 330,-37.7 293,-37.7"/>
<polygon fill="none" stroke="#000000" points="293,-37.7 293,-56.7 330,-56.7 330,-37.7 293,-37.7"/>
<text text-anchor="start" x="320.8862" y="-43.8" font-family="Helvetica,sans-Serif" font-size="11.00" fill="#000000"> &#160;</text>
<polygon fill="#ffffff" stroke="transparent" points="330,-37.7 330,-56.7 376,-56.7 376,-37.7 330,-37.7"/>
<polygon fill="none" stroke="#000000" points="330,-37.7 330,-56.7 376,-56.7 376,-37.7 330,-37.7"/>
<text text-anchor="start" x="357.4053" y="-43.8" font-family="Helvetica,sans-Serif" font-size="11.00" fill="#000000">4 &gt;</text>
</a>
</g>
</g>
<!-- act_ru_incident&#45;&gt;act_ru_jobdef -->
<g id="edge4" class="edge">
<title>act_ru_incident:w&#45;&gt;act_ru_jobdef:e</title>
<path fill="none" stroke="#000000" d="M417.3867,-170.6395C401.4492,-159.7469 401.5759,-130.7 376,-130.7"/>
<polygon fill="#000000" stroke="#000000" points="423.8119,-172.488 430.5046,-178.1597 427.6559,-173.594 431.5,-174.7 431.5,-174.7 431.5,-174.7 427.6559,-173.594 432.4954,-171.2403 423.8119,-172.488 423.8119,-172.488"/>
<ellipse fill="none" stroke="#000000" cx="420.7366" cy="-171.6032" rx="3.2" ry="3.2"/>
</g>
</g>
</svg>
