<?xml version="1.0" encoding="UTF-8" standalone="no"?>
<!DOCTYPE svg PUBLIC "-//W3C//DTD SVG 1.1//EN"
 "http://www.w3.org/Graphics/SVG/1.1/DTD/svg11.dtd">
<!-- Generated by graphviz version 2.40.1 (20161225.0304)
 -->
<!-- Title: oneDegreeRelationshipsDiagram Pages: 1 -->
<svg width="473pt" height="389pt"
 viewBox="0.00 0.00 473.00 389.20" xmlns="http://www.w3.org/2000/svg" xmlns:xlink="http://www.w3.org/1999/xlink">
<g id="graph0" class="graph" transform="scale(1 1) rotate(0) translate(4 385.2)">
<title>oneDegreeRelationshipsDiagram</title>
<polygon fill="#ffffff" stroke="transparent" points="-4,4 -4,-385.2 469,-385.2 469,4 -4,4"/>
<text text-anchor="middle" x="72.4936" y="-7.3" font-family="Helvetica,sans-Serif" font-size="11.00" fill="#000000">Generated by SchemaSpy</text>
<!-- act_id_membership -->
<g id="node1" class="node">
<title>act_id_membership</title>
<g id="a_node1"><a xlink:href="../../tables/act_id_membership.html" xlink:title="act_id_membership" target="_top">
<polygon fill="#ffffff" stroke="transparent" points="277.5,-291.2 277.5,-377.2 445.5,-377.2 445.5,-291.2 277.5,-291.2"/>
<polygon fill="#f5f5f5" stroke="transparent" points="277.5,-354.2 277.5,-377.2 445.5,-377.2 445.5,-354.2 277.5,-354.2"/>
<polygon fill="none" stroke="#000000" points="277.5,-354.2 277.5,-377.2 445.5,-377.2 445.5,-354.2 277.5,-354.2"/>
<text text-anchor="start" x="282.5" y="-362.8" font-family="Helvetica,sans-Serif" font-weight="bold" font-size="11.00" fill="#000000">act_id_membership</text>
<text text-anchor="start" x="411.0219" y="-362.3" font-family="Helvetica,sans-Serif" font-size="11.00" fill="#000000">[table]</text>
<polygon fill="none" stroke="#000000" points="277.5,-332.2 277.5,-354.2 445.5,-354.2 445.5,-332.2 277.5,-332.2"/>
<image xlink:href="../../images/primaryKeys.png" width="11px" height="12px" preserveAspectRatio="xMinYMin meet" x="282.5" y="-349.2"/>
<text text-anchor="start" x="306.5" y="-339.3" font-family="Helvetica,sans-Serif" font-size="11.00" fill="#000000">user_id_</text>
<polygon fill="none" stroke="#000000" points="277.5,-310.2 277.5,-332.2 445.5,-332.2 445.5,-310.2 277.5,-310.2"/>
<image xlink:href="../../images/primaryKeys.png" width="11px" height="12px" preserveAspectRatio="xMinYMin meet" x="282.5" y="-327.2"/>
<text text-anchor="start" x="306.5" y="-317.3" font-family="Helvetica,sans-Serif" font-size="11.00" fill="#000000">group_id_</text>
<polygon fill="#ffffff" stroke="transparent" points="277.5,-291.2 277.5,-310.2 359.5,-310.2 359.5,-291.2 277.5,-291.2"/>
<polygon fill="none" stroke="#000000" points="277.5,-291.2 277.5,-310.2 359.5,-310.2 359.5,-291.2 277.5,-291.2"/>
<text text-anchor="start" x="280.5" y="-297.3" font-family="Helvetica,sans-Serif" font-size="11.00" fill="#000000">&lt; 2</text>
<polygon fill="#ffffff" stroke="transparent" points="359.5,-291.2 359.5,-310.2 402.5,-310.2 402.5,-291.2 359.5,-291.2"/>
<polygon fill="none" stroke="#000000" points="359.5,-291.2 359.5,-310.2 402.5,-310.2 402.5,-291.2 359.5,-291.2"/>
<text text-anchor="start" x="393.3862" y="-297.3" font-family="Helvetica,sans-Serif" font-size="11.00" fill="#000000"> &#160;</text>
<polygon fill="#ffffff" stroke="transparent" points="402.5,-291.2 402.5,-310.2 445.5,-310.2 445.5,-291.2 402.5,-291.2"/>
<polygon fill="none" stroke="#000000" points="402.5,-291.2 402.5,-310.2 445.5,-310.2 445.5,-291.2 402.5,-291.2"/>
<text text-anchor="start" x="436.3862" y="-297.3" font-family="Helvetica,sans-Serif" font-size="11.00" fill="#000000"> &#160;</text>
</a>
</g>
</g>
<!-- act_id_user -->
<g id="node2" class="node">
<title>act_id_user</title>
<g id="a_node2"><a xlink:href="../../tables/act_id_user.html" xlink:title="act_id_user" target="_top">
<polygon fill="#ffffff" stroke="transparent" points="8,-38.2 8,-304.2 217,-304.2 217,-38.2 8,-38.2"/>
<polygon fill="#f5f5f5" stroke="transparent" points="10.5,-279.2 10.5,-302.2 215.5,-302.2 215.5,-279.2 10.5,-279.2"/>
<polygon fill="none" stroke="#000000" points="10.5,-279.2 10.5,-302.2 215.5,-302.2 215.5,-279.2 10.5,-279.2"/>
<text text-anchor="start" x="15.5" y="-287.8" font-family="Helvetica,sans-Serif" font-weight="bold" font-size="11.00" fill="#000000">act_id_user</text>
<text text-anchor="start" x="180.5437" y="-287.3" font-family="Helvetica,sans-Serif" font-size="11.00" fill="#000000">[table]</text>
<polygon fill="none" stroke="#000000" points="10.5,-257.2 10.5,-279.2 131.5,-279.2 131.5,-257.2 10.5,-257.2"/>
<image xlink:href="../../images/primaryKeys.png" width="11px" height="12px" preserveAspectRatio="xMinYMin meet" x="15.5" y="-274.2"/>
<text text-anchor="start" x="30.5" y="-264.3" font-family="Helvetica,sans-Serif" font-size="11.00" fill="#000000">id_</text>
<polygon fill="none" stroke="#000000" points="131.5,-257.2 131.5,-279.2 215.5,-279.2 215.5,-257.2 131.5,-257.2"/>
<text text-anchor="start" x="134.5" y="-264.9" font-family="Helvetica,sans-Serif" font-size="11.00" fill="#000000">varchar[64]</text>
<polygon fill="none" stroke="#000000" points="10.5,-235.2 10.5,-257.2 131.5,-257.2 131.5,-235.2 10.5,-235.2"/>
<text text-anchor="start" x="30.5" y="-242.3" font-family="Helvetica,sans-Serif" font-size="11.00" fill="#000000">rev_</text>
<polygon fill="none" stroke="#000000" points="131.5,-235.2 131.5,-257.2 215.5,-257.2 215.5,-235.2 131.5,-235.2"/>
<text text-anchor="start" x="134.5" y="-242.9" font-family="Helvetica,sans-Serif" font-size="11.00" fill="#000000">int4[10]</text>
<polygon fill="none" stroke="#000000" points="10.5,-213.2 10.5,-235.2 131.5,-235.2 131.5,-213.2 10.5,-213.2"/>
<text text-anchor="start" x="30.5" y="-220.3" font-family="Helvetica,sans-Serif" font-size="11.00" fill="#000000">first_</text>
<polygon fill="none" stroke="#000000" points="131.5,-213.2 131.5,-235.2 215.5,-235.2 215.5,-213.2 131.5,-213.2"/>
<text text-anchor="start" x="134.5" y="-220.9" font-family="Helvetica,sans-Serif" font-size="11.00" fill="#000000">varchar[255]</text>
<polygon fill="none" stroke="#000000" points="10.5,-191.2 10.5,-213.2 131.5,-213.2 131.5,-191.2 10.5,-191.2"/>
<text text-anchor="start" x="30.5" y="-198.3" font-family="Helvetica,sans-Serif" font-size="11.00" fill="#000000">last_</text>
<polygon fill="none" stroke="#000000" points="131.5,-191.2 131.5,-213.2 215.5,-213.2 215.5,-191.2 131.5,-191.2"/>
<text text-anchor="start" x="134.5" y="-198.9" font-family="Helvetica,sans-Serif" font-size="11.00" fill="#000000">varchar[255]</text>
<polygon fill="none" stroke="#000000" points="10.5,-169.2 10.5,-191.2 131.5,-191.2 131.5,-169.2 10.5,-169.2"/>
<text text-anchor="start" x="30.5" y="-176.3" font-family="Helvetica,sans-Serif" font-size="11.00" fill="#000000">email_</text>
<polygon fill="none" stroke="#000000" points="131.5,-169.2 131.5,-191.2 215.5,-191.2 215.5,-169.2 131.5,-169.2"/>
<text text-anchor="start" x="134.5" y="-176.9" font-family="Helvetica,sans-Serif" font-size="11.00" fill="#000000">varchar[255]</text>
<polygon fill="none" stroke="#000000" points="10.5,-147.2 10.5,-169.2 131.5,-169.2 131.5,-147.2 10.5,-147.2"/>
<text text-anchor="start" x="30.5" y="-154.3" font-family="Helvetica,sans-Serif" font-size="11.00" fill="#000000">pwd_</text>
<polygon fill="none" stroke="#000000" points="131.5,-147.2 131.5,-169.2 215.5,-169.2 215.5,-147.2 131.5,-147.2"/>
<text text-anchor="start" x="134.5" y="-154.9" font-family="Helvetica,sans-Serif" font-size="11.00" fill="#000000">varchar[255]</text>
<polygon fill="none" stroke="#000000" points="10.5,-125.2 10.5,-147.2 131.5,-147.2 131.5,-125.2 10.5,-125.2"/>
<text text-anchor="start" x="30.5" y="-132.3" font-family="Helvetica,sans-Serif" font-size="11.00" fill="#000000">salt_</text>
<polygon fill="none" stroke="#000000" points="131.5,-125.2 131.5,-147.2 215.5,-147.2 215.5,-125.2 131.5,-125.2"/>
<text text-anchor="start" x="134.5" y="-132.9" font-family="Helvetica,sans-Serif" font-size="11.00" fill="#000000">varchar[255]</text>
<polygon fill="none" stroke="#000000" points="10.5,-103.2 10.5,-125.2 131.5,-125.2 131.5,-103.2 10.5,-103.2"/>
<text text-anchor="start" x="30.5" y="-110.3" font-family="Helvetica,sans-Serif" font-size="11.00" fill="#000000">lock_exp_time_</text>
<polygon fill="none" stroke="#000000" points="131.5,-103.2 131.5,-125.2 215.5,-125.2 215.5,-103.2 131.5,-103.2"/>
<text text-anchor="start" x="134.3807" y="-110.9" font-family="Helvetica,sans-Serif" font-size="11.00" fill="#000000">timestamp[29,6]</text>
<polygon fill="none" stroke="#000000" points="10.5,-81.2 10.5,-103.2 131.5,-103.2 131.5,-81.2 10.5,-81.2"/>
<text text-anchor="start" x="30.5" y="-88.3" font-family="Helvetica,sans-Serif" font-size="11.00" fill="#000000">attempts_</text>
<polygon fill="none" stroke="#000000" points="131.5,-81.2 131.5,-103.2 215.5,-103.2 215.5,-81.2 131.5,-81.2"/>
<text text-anchor="start" x="134.5" y="-88.9" font-family="Helvetica,sans-Serif" font-size="11.00" fill="#000000">int4[10]</text>
<polygon fill="none" stroke="#000000" points="10.5,-59.2 10.5,-81.2 131.5,-81.2 131.5,-59.2 10.5,-59.2"/>
<text text-anchor="start" x="30.5" y="-66.3" font-family="Helvetica,sans-Serif" font-size="11.00" fill="#000000">picture_id_</text>
<polygon fill="none" stroke="#000000" points="131.5,-59.2 131.5,-81.2 215.5,-81.2 215.5,-59.2 131.5,-59.2"/>
<text text-anchor="start" x="134.5" y="-66.9" font-family="Helvetica,sans-Serif" font-size="11.00" fill="#000000">varchar[64]</text>
<polygon fill="#ffffff" stroke="transparent" points="10.5,-40.2 10.5,-59.2 75.5,-59.2 75.5,-40.2 10.5,-40.2"/>
<polygon fill="none" stroke="#000000" points="10.5,-40.2 10.5,-59.2 75.5,-59.2 75.5,-40.2 10.5,-40.2"/>
<text text-anchor="start" x="13.5" y="-46.3" font-family="Helvetica,sans-Serif" font-size="11.00" fill="#000000">&lt; 0</text>
<polygon fill="#ffffff" stroke="transparent" points="75.5,-40.2 75.5,-59.2 131.5,-59.2 131.5,-40.2 75.5,-40.2"/>
<polygon fill="none" stroke="#000000" points="75.5,-40.2 75.5,-59.2 131.5,-59.2 131.5,-40.2 75.5,-40.2"/>
<text text-anchor="start" x="122.3862" y="-46.3" font-family="Helvetica,sans-Serif" font-size="11.00" fill="#000000"> &#160;</text>
<polygon fill="#ffffff" stroke="transparent" points="131.5,-40.2 131.5,-59.2 215.5,-59.2 215.5,-40.2 131.5,-40.2"/>
<polygon fill="none" stroke="#000000" points="131.5,-40.2 131.5,-59.2 215.5,-59.2 215.5,-40.2 131.5,-40.2"/>
<text text-anchor="start" x="196.9053" y="-46.3" font-family="Helvetica,sans-Serif" font-size="11.00" fill="#000000">2 &gt;</text>
<polygon fill="none" stroke="#000000" stroke-width="2" points="9,-39.2 9,-303.2 216,-303.2 216,-39.2 9,-39.2"/>
</a>
</g>
</g>
<!-- act_id_membership&#45;&gt;act_id_user -->
<g id="edge1" class="edge">
<title>act_id_membership:w&#45;&gt;act_id_user:e</title>
<path fill="none" stroke="#000000" d="M263.5357,-339.5826C239.5636,-324.6011 253.0044,-268.2 215.5,-268.2"/>
<polygon fill="#000000" stroke="#000000" points="269.7556,-341.1938 276.5972,-346.685 273.6278,-342.1969 277.5,-343.2 277.5,-343.2 277.5,-343.2 273.6278,-342.1969 278.4028,-339.715 269.7556,-341.1938 269.7556,-341.1938"/>
<ellipse fill="none" stroke="#000000" cx="266.6579" cy="-340.3913" rx="3.2" ry="3.2"/>
</g>
<!-- act_id_tenant_member -->
<g id="node3" class="node">
<title>act_id_tenant_member</title>
<g id="a_node3"><a xlink:href="../../tables/act_id_tenant_member.html" xlink:title="act_id_tenant_member" target="_top">
<polygon fill="#ffffff" stroke="transparent" points="266,-140.2 266,-270.2 457,-270.2 457,-140.2 266,-140.2"/>
<polygon fill="#f5f5f5" stroke="transparent" points="266.5,-247.2 266.5,-270.2 457.5,-270.2 457.5,-247.2 266.5,-247.2"/>
<polygon fill="none" stroke="#000000" points="266.5,-247.2 266.5,-270.2 457.5,-270.2 457.5,-247.2 266.5,-247.2"/>
<text text-anchor="start" x="271.5" y="-255.8" font-family="Helvetica,sans-Serif" font-weight="bold" font-size="11.00" fill="#000000">act_id_tenant_member</text>
<text text-anchor="start" x="423.0219" y="-255.3" font-family="Helvetica,sans-Serif" font-size="11.00" fill="#000000">[table]</text>
<polygon fill="none" stroke="#000000" points="266.5,-225.2 266.5,-247.2 457.5,-247.2 457.5,-225.2 266.5,-225.2"/>
<image xlink:href="../../images/primaryKeys.png" width="11px" height="12px" preserveAspectRatio="xMinYMin meet" x="271.5" y="-242.2"/>
<text text-anchor="start" x="295.5" y="-232.3" font-family="Helvetica,sans-Serif" font-size="11.00" fill="#000000">id_</text>
<polygon fill="#ffffff" stroke="transparent" points="266.5,-203.2 266.5,-225.2 457.5,-225.2 457.5,-203.2 266.5,-203.2"/>
<polygon fill="none" stroke="#000000" points="266.5,-203.2 266.5,-225.2 457.5,-225.2 457.5,-203.2 266.5,-203.2"/>
<image xlink:href="../../images/foreignKeys.png" width="11px" height="12px" preserveAspectRatio="xMinYMin meet" x="271.5" y="-220.2"/>
<text text-anchor="start" x="295.5" y="-210.3" font-family="Helvetica,sans-Serif" font-size="11.00" fill="#000000">tenant_id_</text>
<polygon fill="#ffffff" stroke="transparent" points="266.5,-181.2 266.5,-203.2 457.5,-203.2 457.5,-181.2 266.5,-181.2"/>
<polygon fill="none" stroke="#000000" points="266.5,-181.2 266.5,-203.2 457.5,-203.2 457.5,-181.2 266.5,-181.2"/>
<image xlink:href="../../images/foreignKeys.png" width="11px" height="12px" preserveAspectRatio="xMinYMin meet" x="271.5" y="-198.2"/>
<text text-anchor="start" x="295.5" y="-188.3" font-family="Helvetica,sans-Serif" font-size="11.00" fill="#000000">user_id_</text>
<polygon fill="#ffffff" stroke="transparent" points="266.5,-159.2 266.5,-181.2 457.5,-181.2 457.5,-159.2 266.5,-159.2"/>
<polygon fill="none" stroke="#000000" points="266.5,-159.2 266.5,-181.2 457.5,-181.2 457.5,-159.2 266.5,-159.2"/>
<image xlink:href="../../images/foreignKeys.png" width="11px" height="12px" preserveAspectRatio="xMinYMin meet" x="271.5" y="-176.2"/>
<text text-anchor="start" x="295.5" y="-166.3" font-family="Helvetica,sans-Serif" font-size="11.00" fill="#000000">group_id_</text>
<polygon fill="#ffffff" stroke="transparent" points="266.5,-140.2 266.5,-159.2 360.5,-159.2 360.5,-140.2 266.5,-140.2"/>
<polygon fill="none" stroke="#000000" points="266.5,-140.2 266.5,-159.2 360.5,-159.2 360.5,-140.2 266.5,-140.2"/>
<text text-anchor="start" x="269.5" y="-146.3" font-family="Helvetica,sans-Serif" font-size="11.00" fill="#000000">&lt; 3</text>
<polygon fill="#ffffff" stroke="transparent" points="360.5,-140.2 360.5,-159.2 408.5,-159.2 408.5,-140.2 360.5,-140.2"/>
<polygon fill="none" stroke="#000000" points="360.5,-140.2 360.5,-159.2 408.5,-159.2 408.5,-140.2 360.5,-140.2"/>
<text text-anchor="start" x="399.3862" y="-146.3" font-family="Helvetica,sans-Serif" font-size="11.00" fill="#000000"> &#160;</text>
<polygon fill="#ffffff" stroke="transparent" points="408.5,-140.2 408.5,-159.2 457.5,-159.2 457.5,-140.2 408.5,-140.2"/>
<polygon fill="none" stroke="#000000" points="408.5,-140.2 408.5,-159.2 457.5,-159.2 457.5,-140.2 408.5,-140.2"/>
<text text-anchor="start" x="448.3862" y="-146.3" font-family="Helvetica,sans-Serif" font-size="11.00" fill="#000000"> &#160;</text>
</a>
</g>
</g>
<!-- act_id_tenant_member&#45;&gt;act_id_user -->
<g id="edge2" class="edge">
<title>act_id_tenant_member:w&#45;&gt;act_id_user:e</title>
<path fill="none" stroke="#000000" d="M252.6163,-196.7265C233.2687,-213.0879 250.14,-268.2 215.5,-268.2"/>
<polygon fill="#000000" stroke="#000000" points="258.894,-194.6798 267.6159,-195.6227 262.697,-193.4399 266.5,-192.2 266.5,-192.2 266.5,-192.2 262.697,-193.4399 265.3841,-188.7773 258.894,-194.6798 258.894,-194.6798"/>
<ellipse fill="none" stroke="#000000" cx="255.8517" cy="-195.6718" rx="3.2" ry="3.2"/>
</g>
</g>
</svg>
