<?xml version="1.0" encoding="UTF-8" standalone="no"?>
<!DOCTYPE svg PUBLIC "-//W3C//DTD SVG 1.1//EN"
 "http://www.w3.org/Graphics/SVG/1.1/DTD/svg11.dtd">
<!-- Generated by graphviz version 2.40.1 (20161225.0304)
 -->
<!-- Title: twoDegreesRelationshipsDiagram Pages: 1 -->
<svg width="903pt" height="1044pt"
 viewBox="0.00 0.00 903.00 1044.38" xmlns="http://www.w3.org/2000/svg" xmlns:xlink="http://www.w3.org/1999/xlink">
<g id="graph0" class="graph" transform="scale(1 1) rotate(0) translate(4 1040.3848)">
<title>twoDegreesRelationshipsDiagram</title>
<polygon fill="#ffffff" stroke="transparent" points="-4,4 -4,-1040.3848 899,-1040.3848 899,4 -4,4"/>
<text text-anchor="middle" x="72.4936" y="-7.3" font-family="Helvetica,sans-Serif" font-size="11.00" fill="#000000">Generated by SchemaSpy</text>
<!-- act_ru_case_execution -->
<g id="node1" class="node">
<title>act_ru_case_execution</title>
<g id="a_node1"><a xlink:href="../../tables/act_ru_case_execution.html" xlink:title="act_ru_case_execution" target="_top">
<polygon fill="#ffffff" stroke="transparent" points="201,-117.2 201,-178.2 390,-178.2 390,-117.2 201,-117.2"/>
<polygon fill="#f5f5f5" stroke="transparent" points="201.5,-154.7 201.5,-177.7 390.5,-177.7 390.5,-154.7 201.5,-154.7"/>
<polygon fill="none" stroke="#000000" points="201.5,-154.7 201.5,-177.7 390.5,-177.7 390.5,-154.7 201.5,-154.7"/>
<text text-anchor="start" x="206.5" y="-163.3" font-family="Helvetica,sans-Serif" font-weight="bold" font-size="11.00" fill="#000000">act_ru_case_execution</text>
<text text-anchor="start" x="356.0219" y="-162.8" font-family="Helvetica,sans-Serif" font-size="11.00" fill="#000000">[table]</text>
<polygon fill="none" stroke="#000000" points="201.5,-135.7 201.5,-154.7 390.5,-154.7 390.5,-135.7 201.5,-135.7"/>
<text text-anchor="start" x="204.5" y="-141.8" font-family="Helvetica,sans-Serif" font-size="11.00" fill="#000000">...</text>
<polygon fill="#ffffff" stroke="transparent" points="201.5,-116.7 201.5,-135.7 289.5,-135.7 289.5,-116.7 201.5,-116.7"/>
<polygon fill="none" stroke="#000000" points="201.5,-116.7 201.5,-135.7 289.5,-135.7 289.5,-116.7 201.5,-116.7"/>
<text text-anchor="start" x="204.5" y="-122.8" font-family="Helvetica,sans-Serif" font-size="11.00" fill="#000000">&lt; 3</text>
<polygon fill="#ffffff" stroke="transparent" points="289.5,-116.7 289.5,-135.7 335.5,-135.7 335.5,-116.7 289.5,-116.7"/>
<polygon fill="none" stroke="#000000" points="289.5,-116.7 289.5,-135.7 335.5,-135.7 335.5,-116.7 289.5,-116.7"/>
<text text-anchor="start" x="326.3862" y="-122.8" font-family="Helvetica,sans-Serif" font-size="11.00" fill="#000000"> &#160;</text>
<polygon fill="#ffffff" stroke="transparent" points="335.5,-116.7 335.5,-135.7 390.5,-135.7 390.5,-116.7 335.5,-116.7"/>
<polygon fill="none" stroke="#000000" points="335.5,-116.7 335.5,-135.7 390.5,-135.7 390.5,-116.7 335.5,-116.7"/>
<text text-anchor="start" x="371.9053" y="-122.8" font-family="Helvetica,sans-Serif" font-size="11.00" fill="#000000">7 &gt;</text>
</a>
</g>
</g>
<!-- act_re_case_def -->
<g id="node2" class="node">
<title>act_re_case_def</title>
<g id="a_node2"><a xlink:href="../../tables/act_re_case_def.html" xlink:title="act_re_case_def" target="_top">
<polygon fill="#ffffff" stroke="transparent" points="8,-222.2 8,-283.2 152,-283.2 152,-222.2 8,-222.2"/>
<polygon fill="#f5f5f5" stroke="transparent" points="8,-259.7 8,-282.7 152,-282.7 152,-259.7 8,-259.7"/>
<polygon fill="none" stroke="#000000" points="8,-259.7 8,-282.7 152,-282.7 152,-259.7 8,-259.7"/>
<text text-anchor="start" x="13" y="-268.3" font-family="Helvetica,sans-Serif" font-weight="bold" font-size="11.00" fill="#000000">act_re_case_def</text>
<text text-anchor="start" x="117.5219" y="-267.8" font-family="Helvetica,sans-Serif" font-size="11.00" fill="#000000">[table]</text>
<polygon fill="none" stroke="#000000" points="8,-240.7 8,-259.7 152,-259.7 152,-240.7 8,-240.7"/>
<text text-anchor="start" x="11" y="-246.8" font-family="Helvetica,sans-Serif" font-size="11.00" fill="#000000">...</text>
<polygon fill="#ffffff" stroke="transparent" points="8,-221.7 8,-240.7 69,-240.7 69,-221.7 8,-221.7"/>
<polygon fill="none" stroke="#000000" points="8,-221.7 8,-240.7 69,-240.7 69,-221.7 8,-221.7"/>
<text text-anchor="start" x="11" y="-227.8" font-family="Helvetica,sans-Serif" font-size="11.00" fill="#000000"> &#160;</text>
<polygon fill="#ffffff" stroke="transparent" points="69,-221.7 69,-240.7 106,-240.7 106,-221.7 69,-221.7"/>
<polygon fill="none" stroke="#000000" points="69,-221.7 69,-240.7 106,-240.7 106,-221.7 69,-221.7"/>
<text text-anchor="start" x="96.8862" y="-227.8" font-family="Helvetica,sans-Serif" font-size="11.00" fill="#000000"> &#160;</text>
<polygon fill="#ffffff" stroke="transparent" points="106,-221.7 106,-240.7 152,-240.7 152,-221.7 106,-221.7"/>
<polygon fill="none" stroke="#000000" points="106,-221.7 106,-240.7 152,-240.7 152,-221.7 106,-221.7"/>
<text text-anchor="start" x="133.4053" y="-227.8" font-family="Helvetica,sans-Serif" font-size="11.00" fill="#000000">2 &gt;</text>
</a>
</g>
</g>
<!-- act_ru_case_execution&#45;&gt;act_re_case_def -->
<g id="edge1" class="edge">
<title>act_ru_case_execution:w&#45;&gt;act_re_case_def:e</title>
<path fill="none" stroke="#000000" d="M211.6453,-188.5573C191.5696,-198.3389 170.3285,-208.6884 150.9038,-218.1529"/>
<polygon fill="#000000" stroke="#000000" points="217.447,-185.7305 226.2156,-185.4626 221.0429,-183.9784 224.6388,-182.2264 224.6388,-182.2264 224.6388,-182.2264 221.0429,-183.9784 223.0619,-178.9901 217.447,-185.7305 217.447,-185.7305"/>
<ellipse fill="none" stroke="#000000" cx="214.5703" cy="-187.1321" rx="3.2" ry="3.2"/>
</g>
<!-- act_ru_case_sentry_part -->
<g id="node3" class="node">
<title>act_ru_case_sentry_part</title>
<g id="a_node3"><a xlink:href="../../tables/act_ru_case_sentry_part.html" xlink:title="act_ru_case_sentry_part" target="_top">
<polygon fill="#ffffff" stroke="transparent" points="457,-38.2 457,-99.2 657,-99.2 657,-38.2 457,-38.2"/>
<polygon fill="#f5f5f5" stroke="transparent" points="457,-75.7 457,-98.7 657,-98.7 657,-75.7 457,-75.7"/>
<polygon fill="none" stroke="#000000" points="457,-75.7 457,-98.7 657,-98.7 657,-75.7 457,-75.7"/>
<text text-anchor="start" x="462" y="-84.3" font-family="Helvetica,sans-Serif" font-weight="bold" font-size="11.00" fill="#000000">act_ru_case_sentry_part</text>
<text text-anchor="start" x="622.5219" y="-83.8" font-family="Helvetica,sans-Serif" font-size="11.00" fill="#000000">[table]</text>
<polygon fill="none" stroke="#000000" points="457,-56.7 457,-75.7 657,-75.7 657,-56.7 457,-56.7"/>
<text text-anchor="start" x="460" y="-62.8" font-family="Helvetica,sans-Serif" font-size="11.00" fill="#000000">...</text>
<polygon fill="#ffffff" stroke="transparent" points="457,-37.7 457,-56.7 555,-56.7 555,-37.7 457,-37.7"/>
<polygon fill="none" stroke="#000000" points="457,-37.7 457,-56.7 555,-56.7 555,-37.7 457,-37.7"/>
<text text-anchor="start" x="460" y="-43.8" font-family="Helvetica,sans-Serif" font-size="11.00" fill="#000000">&lt; 2</text>
<polygon fill="#ffffff" stroke="transparent" points="555,-37.7 555,-56.7 606,-56.7 606,-37.7 555,-37.7"/>
<polygon fill="none" stroke="#000000" points="555,-37.7 555,-56.7 606,-56.7 606,-37.7 555,-37.7"/>
<text text-anchor="start" x="596.8862" y="-43.8" font-family="Helvetica,sans-Serif" font-size="11.00" fill="#000000"> &#160;</text>
<polygon fill="#ffffff" stroke="transparent" points="606,-37.7 606,-56.7 657,-56.7 657,-37.7 606,-37.7"/>
<polygon fill="none" stroke="#000000" points="606,-37.7 606,-56.7 657,-56.7 657,-37.7 606,-37.7"/>
<text text-anchor="start" x="647.8862" y="-43.8" font-family="Helvetica,sans-Serif" font-size="11.00" fill="#000000"> &#160;</text>
</a>
</g>
</g>
<!-- act_ru_case_sentry_part&#45;&gt;act_ru_case_execution -->
<g id="edge2" class="edge">
<title>act_ru_case_sentry_part:w&#45;&gt;act_ru_case_execution:e</title>
<path fill="none" stroke="#000000" d="M442.5926,-65.5315C400.1958,-67.604 359.0171,-91.4948 331.0655,-113.0382"/>
<polygon fill="#000000" stroke="#000000" points="449.0005,-65.6064 456.9579,-69.2998 453.0003,-65.6532 457,-65.7 457,-65.7 457,-65.7 453.0003,-65.6532 457.0421,-62.1002 449.0005,-65.6064 449.0005,-65.6064"/>
<ellipse fill="none" stroke="#000000" cx="445.8008" cy="-65.569" rx="3.2" ry="3.2"/>
</g>
<!-- act_ru_case_sentry_part&#45;&gt;act_ru_case_execution -->
<g id="edge3" class="edge">
<title>act_ru_case_sentry_part:w&#45;&gt;act_ru_case_execution:e</title>
<path fill="none" stroke="#000000" d="M442.5853,-67.7225C406.4621,-74.6419 371.2236,-94.7665 344.298,-113.149"/>
<polygon fill="#000000" stroke="#000000" points="449.0776,-66.8116 457.5002,-69.2651 453.0388,-66.2558 457,-65.7 457,-65.7 457,-65.7 453.0388,-66.2558 456.4998,-62.1349 449.0776,-66.8116 449.0776,-66.8116"/>
<ellipse fill="none" stroke="#000000" cx="445.9086" cy="-67.2563" rx="3.2" ry="3.2"/>
</g>
<!-- act_ru_event_subscr -->
<g id="node4" class="node">
<title>act_ru_event_subscr</title>
<g id="a_node4"><a xlink:href="../../tables/act_ru_event_subscr.html" xlink:title="act_ru_event_subscr" target="_top">
<polygon fill="#ffffff" stroke="transparent" points="469.5,-776.2 469.5,-837.2 644.5,-837.2 644.5,-776.2 469.5,-776.2"/>
<polygon fill="#f5f5f5" stroke="transparent" points="470,-813.7 470,-836.7 645,-836.7 645,-813.7 470,-813.7"/>
<polygon fill="none" stroke="#000000" points="470,-813.7 470,-836.7 645,-836.7 645,-813.7 470,-813.7"/>
<text text-anchor="start" x="475" y="-822.3" font-family="Helvetica,sans-Serif" font-weight="bold" font-size="11.00" fill="#000000">act_ru_event_subscr</text>
<text text-anchor="start" x="610.5219" y="-821.8" font-family="Helvetica,sans-Serif" font-size="11.00" fill="#000000">[table]</text>
<polygon fill="none" stroke="#000000" points="470,-794.7 470,-813.7 645,-813.7 645,-794.7 470,-794.7"/>
<text text-anchor="start" x="473" y="-800.8" font-family="Helvetica,sans-Serif" font-size="11.00" fill="#000000">...</text>
<polygon fill="#ffffff" stroke="transparent" points="470,-775.7 470,-794.7 556,-794.7 556,-775.7 470,-775.7"/>
<polygon fill="none" stroke="#000000" points="470,-775.7 470,-794.7 556,-794.7 556,-775.7 470,-775.7"/>
<text text-anchor="start" x="473" y="-781.8" font-family="Helvetica,sans-Serif" font-size="11.00" fill="#000000">&lt; 1</text>
<polygon fill="#ffffff" stroke="transparent" points="556,-775.7 556,-794.7 600,-794.7 600,-775.7 556,-775.7"/>
<polygon fill="none" stroke="#000000" points="556,-775.7 556,-794.7 600,-794.7 600,-775.7 556,-775.7"/>
<text text-anchor="start" x="590.8862" y="-781.8" font-family="Helvetica,sans-Serif" font-size="11.00" fill="#000000"> &#160;</text>
<polygon fill="#ffffff" stroke="transparent" points="600,-775.7 600,-794.7 645,-794.7 645,-775.7 600,-775.7"/>
<polygon fill="none" stroke="#000000" points="600,-775.7 600,-794.7 645,-794.7 645,-775.7 600,-775.7"/>
<text text-anchor="start" x="635.8862" y="-781.8" font-family="Helvetica,sans-Serif" font-size="11.00" fill="#000000"> &#160;</text>
</a>
</g>
</g>
<!-- act_ru_execution -->
<g id="node5" class="node">
<title>act_ru_execution</title>
<g id="a_node5"><a xlink:href="../../tables/act_ru_execution.html" xlink:title="act_ru_execution" target="_top">
<polygon fill="#ffffff" stroke="transparent" points="219.5,-773.2 219.5,-834.2 371.5,-834.2 371.5,-773.2 219.5,-773.2"/>
<polygon fill="#f5f5f5" stroke="transparent" points="219.5,-810.7 219.5,-833.7 371.5,-833.7 371.5,-810.7 219.5,-810.7"/>
<polygon fill="none" stroke="#000000" points="219.5,-810.7 219.5,-833.7 371.5,-833.7 371.5,-810.7 219.5,-810.7"/>
<text text-anchor="start" x="224.5" y="-819.3" font-family="Helvetica,sans-Serif" font-weight="bold" font-size="11.00" fill="#000000">act_ru_execution</text>
<text text-anchor="start" x="337.0219" y="-818.8" font-family="Helvetica,sans-Serif" font-size="11.00" fill="#000000">[table]</text>
<polygon fill="none" stroke="#000000" points="219.5,-791.7 219.5,-810.7 371.5,-810.7 371.5,-791.7 219.5,-791.7"/>
<text text-anchor="start" x="222.5" y="-797.8" font-family="Helvetica,sans-Serif" font-size="11.00" fill="#000000">...</text>
<polygon fill="#ffffff" stroke="transparent" points="219.5,-772.7 219.5,-791.7 286.5,-791.7 286.5,-772.7 219.5,-772.7"/>
<polygon fill="none" stroke="#000000" points="219.5,-772.7 219.5,-791.7 286.5,-791.7 286.5,-772.7 219.5,-772.7"/>
<text text-anchor="start" x="222.5" y="-778.8" font-family="Helvetica,sans-Serif" font-size="11.00" fill="#000000">&lt; 4</text>
<polygon fill="#ffffff" stroke="transparent" points="286.5,-772.7 286.5,-791.7 321.5,-791.7 321.5,-772.7 286.5,-772.7"/>
<polygon fill="none" stroke="#000000" points="286.5,-772.7 286.5,-791.7 321.5,-791.7 321.5,-772.7 286.5,-772.7"/>
<text text-anchor="start" x="312.3862" y="-778.8" font-family="Helvetica,sans-Serif" font-size="11.00" fill="#000000"> &#160;</text>
<polygon fill="#ffffff" stroke="transparent" points="321.5,-772.7 321.5,-791.7 371.5,-791.7 371.5,-772.7 321.5,-772.7"/>
<polygon fill="none" stroke="#000000" points="321.5,-772.7 321.5,-791.7 371.5,-791.7 371.5,-772.7 321.5,-772.7"/>
<text text-anchor="start" x="346.7904" y="-778.8" font-family="Helvetica,sans-Serif" font-size="11.00" fill="#000000">11 &gt;</text>
</a>
</g>
</g>
<!-- act_ru_event_subscr&#45;&gt;act_ru_execution -->
<g id="edge4" class="edge">
<title>act_ru_event_subscr:w&#45;&gt;act_ru_execution:e</title>
<path fill="none" stroke="#000000" d="M455.3396,-803.7C430.1534,-803.7 403.7475,-803.7 379.8186,-803.7"/>
<polygon fill="#000000" stroke="#000000" points="462,-803.7001 470,-807.3 466,-803.7 470,-803.7 470,-803.7 470,-803.7 466,-803.7 470,-800.1 462,-803.7001 462,-803.7001"/>
<ellipse fill="none" stroke="#000000" cx="458.8" cy="-803.7001" rx="3.2" ry="3.2"/>
</g>
<!-- act_re_procdef -->
<g id="node6" class="node">
<title>act_re_procdef</title>
<g id="a_node6"><a xlink:href="../../tables/act_re_procdef.html" xlink:title="act_re_procdef" target="_top">
<polygon fill="#ffffff" stroke="transparent" points="11.5,-828.2 11.5,-889.2 148.5,-889.2 148.5,-828.2 11.5,-828.2"/>
<polygon fill="#f5f5f5" stroke="transparent" points="12,-865.7 12,-888.7 149,-888.7 149,-865.7 12,-865.7"/>
<polygon fill="none" stroke="#000000" points="12,-865.7 12,-888.7 149,-888.7 149,-865.7 12,-865.7"/>
<text text-anchor="start" x="17" y="-874.3" font-family="Helvetica,sans-Serif" font-weight="bold" font-size="11.00" fill="#000000">act_re_procdef</text>
<text text-anchor="start" x="114.5219" y="-873.8" font-family="Helvetica,sans-Serif" font-size="11.00" fill="#000000">[table]</text>
<polygon fill="none" stroke="#000000" points="12,-846.7 12,-865.7 149,-865.7 149,-846.7 12,-846.7"/>
<text text-anchor="start" x="15" y="-852.8" font-family="Helvetica,sans-Serif" font-size="11.00" fill="#000000">...</text>
<polygon fill="#ffffff" stroke="transparent" points="12,-827.7 12,-846.7 70,-846.7 70,-827.7 12,-827.7"/>
<polygon fill="none" stroke="#000000" points="12,-827.7 12,-846.7 70,-846.7 70,-827.7 12,-827.7"/>
<text text-anchor="start" x="15" y="-833.8" font-family="Helvetica,sans-Serif" font-size="11.00" fill="#000000"> &#160;</text>
<polygon fill="#ffffff" stroke="transparent" points="70,-827.7 70,-846.7 105,-846.7 105,-827.7 70,-827.7"/>
<polygon fill="none" stroke="#000000" points="70,-827.7 70,-846.7 105,-846.7 105,-827.7 70,-827.7"/>
<text text-anchor="start" x="95.8862" y="-833.8" font-family="Helvetica,sans-Serif" font-size="11.00" fill="#000000"> &#160;</text>
<polygon fill="#ffffff" stroke="transparent" points="105,-827.7 105,-846.7 149,-846.7 149,-827.7 105,-827.7"/>
<polygon fill="none" stroke="#000000" points="105,-827.7 105,-846.7 149,-846.7 149,-827.7 105,-827.7"/>
<text text-anchor="start" x="130.4053" y="-833.8" font-family="Helvetica,sans-Serif" font-size="11.00" fill="#000000">4 &gt;</text>
</a>
</g>
</g>
<!-- act_ru_execution&#45;&gt;act_re_procdef -->
<g id="edge5" class="edge">
<title>act_ru_execution:w&#45;&gt;act_re_procdef:e</title>
<path fill="none" stroke="#000000" d="M197.2321,-828.78C183.6695,-832.2414 169.905,-835.7544 156.8071,-839.0973"/>
<polygon fill="#000000" stroke="#000000" points="203.5047,-827.1791 212.1465,-828.6889 207.3804,-826.1899 211.2562,-825.2007 211.2562,-825.2007 211.2562,-825.2007 207.3804,-826.1899 210.3659,-821.7126 203.5047,-827.1791 203.5047,-827.1791"/>
<ellipse fill="none" stroke="#000000" cx="200.4041" cy="-827.9705" rx="3.2" ry="3.2"/>
</g>
<!-- act_ru_ext_task -->
<g id="node7" class="node">
<title>act_ru_ext_task</title>
<g id="a_node7"><a xlink:href="../../tables/act_ru_ext_task.html" xlink:title="act_ru_ext_task" target="_top">
<polygon fill="#ffffff" stroke="transparent" points="486,-858.2 486,-919.2 628,-919.2 628,-858.2 486,-858.2"/>
<polygon fill="#f5f5f5" stroke="transparent" points="486,-895.7 486,-918.7 628,-918.7 628,-895.7 486,-895.7"/>
<polygon fill="none" stroke="#000000" points="486,-895.7 486,-918.7 628,-918.7 628,-895.7 486,-895.7"/>
<text text-anchor="start" x="491" y="-904.3" font-family="Helvetica,sans-Serif" font-weight="bold" font-size="11.00" fill="#000000">act_ru_ext_task</text>
<text text-anchor="start" x="593.5219" y="-903.8" font-family="Helvetica,sans-Serif" font-size="11.00" fill="#000000">[table]</text>
<polygon fill="none" stroke="#000000" points="486,-876.7 486,-895.7 628,-895.7 628,-876.7 486,-876.7"/>
<text text-anchor="start" x="489" y="-882.8" font-family="Helvetica,sans-Serif" font-size="11.00" fill="#000000">...</text>
<polygon fill="#ffffff" stroke="transparent" points="486,-857.7 486,-876.7 555,-876.7 555,-857.7 486,-857.7"/>
<polygon fill="none" stroke="#000000" points="486,-857.7 486,-876.7 555,-876.7 555,-857.7 486,-857.7"/>
<text text-anchor="start" x="489" y="-863.8" font-family="Helvetica,sans-Serif" font-size="11.00" fill="#000000">&lt; 2</text>
<polygon fill="#ffffff" stroke="transparent" points="555,-857.7 555,-876.7 591,-876.7 591,-857.7 555,-857.7"/>
<polygon fill="none" stroke="#000000" points="555,-857.7 555,-876.7 591,-876.7 591,-857.7 555,-857.7"/>
<text text-anchor="start" x="581.8862" y="-863.8" font-family="Helvetica,sans-Serif" font-size="11.00" fill="#000000"> &#160;</text>
<polygon fill="#ffffff" stroke="transparent" points="591,-857.7 591,-876.7 628,-876.7 628,-857.7 591,-857.7"/>
<polygon fill="none" stroke="#000000" points="591,-857.7 591,-876.7 628,-876.7 628,-857.7 591,-857.7"/>
<text text-anchor="start" x="618.8862" y="-863.8" font-family="Helvetica,sans-Serif" font-size="11.00" fill="#000000"> &#160;</text>
</a>
</g>
</g>
<!-- act_ru_ext_task&#45;&gt;act_ru_execution -->
<g id="edge6" class="edge">
<title>act_ru_ext_task:w&#45;&gt;act_ru_execution:e</title>
<path fill="none" stroke="#000000" d="M471.3358,-885.0359C425.0834,-880.929 378.6763,-858.503 345.1602,-838.2377"/>
<polygon fill="#000000" stroke="#000000" points="478.0082,-885.338 485.8371,-889.2963 482.0041,-885.519 486,-885.7 486,-885.7 486,-885.7 482.0041,-885.519 486.1629,-882.1037 478.0082,-885.338 478.0082,-885.338"/>
<ellipse fill="none" stroke="#000000" cx="474.8115" cy="-885.1932" rx="3.2" ry="3.2"/>
</g>
<!-- act_ru_identitylink -->
<g id="node8" class="node">
<title>act_ru_identitylink</title>
<g id="a_node8"><a xlink:href="../../tables/act_ru_identitylink.html" xlink:title="act_ru_identitylink" target="_top">
<polygon fill="#ffffff" stroke="transparent" points="724,-841.2 724,-902.2 887,-902.2 887,-841.2 724,-841.2"/>
<polygon fill="#f5f5f5" stroke="transparent" points="724.5,-878.7 724.5,-901.7 887.5,-901.7 887.5,-878.7 724.5,-878.7"/>
<polygon fill="none" stroke="#000000" points="724.5,-878.7 724.5,-901.7 887.5,-901.7 887.5,-878.7 724.5,-878.7"/>
<text text-anchor="start" x="729.5" y="-887.3" font-family="Helvetica,sans-Serif" font-weight="bold" font-size="11.00" fill="#000000">act_ru_identitylink</text>
<text text-anchor="start" x="853.0219" y="-886.8" font-family="Helvetica,sans-Serif" font-size="11.00" fill="#000000">[table]</text>
<polygon fill="none" stroke="#000000" points="724.5,-859.7 724.5,-878.7 887.5,-878.7 887.5,-859.7 724.5,-859.7"/>
<text text-anchor="start" x="727.5" y="-865.8" font-family="Helvetica,sans-Serif" font-size="11.00" fill="#000000">...</text>
<polygon fill="#ffffff" stroke="transparent" points="724.5,-840.7 724.5,-859.7 804.5,-859.7 804.5,-840.7 724.5,-840.7"/>
<polygon fill="none" stroke="#000000" points="724.5,-840.7 724.5,-859.7 804.5,-859.7 804.5,-840.7 724.5,-840.7"/>
<text text-anchor="start" x="727.5" y="-846.8" font-family="Helvetica,sans-Serif" font-size="11.00" fill="#000000">&lt; 2</text>
<polygon fill="#ffffff" stroke="transparent" points="804.5,-840.7 804.5,-859.7 845.5,-859.7 845.5,-840.7 804.5,-840.7"/>
<polygon fill="none" stroke="#000000" points="804.5,-840.7 804.5,-859.7 845.5,-859.7 845.5,-840.7 804.5,-840.7"/>
<text text-anchor="start" x="836.3862" y="-846.8" font-family="Helvetica,sans-Serif" font-size="11.00" fill="#000000"> &#160;</text>
<polygon fill="#ffffff" stroke="transparent" points="845.5,-840.7 845.5,-859.7 887.5,-859.7 887.5,-840.7 845.5,-840.7"/>
<polygon fill="none" stroke="#000000" points="845.5,-840.7 845.5,-859.7 887.5,-859.7 887.5,-840.7 845.5,-840.7"/>
<text text-anchor="start" x="878.3862" y="-846.8" font-family="Helvetica,sans-Serif" font-size="11.00" fill="#000000"> &#160;</text>
</a>
</g>
</g>
<!-- act_ru_identitylink&#45;&gt;act_re_procdef -->
<g id="edge7" class="edge">
<title>act_ru_identitylink:w&#45;&gt;act_re_procdef:e</title>
<path fill="none" stroke="#000000" d="M779.1632,-918.8957C757.9473,-951.6705 724.8016,-992.7318 683,-1011.7 581.0091,-1057.9802 541.8871,-1027.4497 431,-1011.7 321.9609,-996.2128 291.6506,-991.6636 193,-942.7 166.6153,-929.6044 140.0329,-910.2259 119.2847,-893.3808"/>
<polygon fill="#000000" stroke="#000000" points="782.7449,-913.1438 790.0296,-908.2558 784.8593,-909.7483 786.9737,-906.3529 786.9737,-906.3529 786.9737,-906.3529 784.8593,-909.7483 783.9178,-904.4499 782.7449,-913.1438 782.7449,-913.1438"/>
<ellipse fill="none" stroke="#000000" cx="781.0534" cy="-915.8602" rx="3.2" ry="3.2"/>
</g>
<!-- act_ru_task -->
<g id="node9" class="node">
<title>act_ru_task</title>
<g id="a_node9"><a xlink:href="../../tables/act_ru_task.html" xlink:title="act_ru_task" target="_top">
<polygon fill="#ffffff" stroke="transparent" points="439,-202.7 439,-754.7 675,-754.7 675,-202.7 439,-202.7"/>
<polygon fill="#f5f5f5" stroke="transparent" points="441,-729.7 441,-752.7 673,-752.7 673,-729.7 441,-729.7"/>
<polygon fill="none" stroke="#000000" points="441,-729.7 441,-752.7 673,-752.7 673,-729.7 441,-729.7"/>
<text text-anchor="start" x="446" y="-738.3" font-family="Helvetica,sans-Serif" font-weight="bold" font-size="11.00" fill="#000000">act_ru_task</text>
<text text-anchor="start" x="638.0437" y="-737.8" font-family="Helvetica,sans-Serif" font-size="11.00" fill="#000000">[table]</text>
<polygon fill="none" stroke="#000000" points="441,-707.7 441,-729.7 589,-729.7 589,-707.7 441,-707.7"/>
<image xlink:href="../../images/primaryKeys.png" width="11px" height="12px" preserveAspectRatio="xMinYMin meet" x="446" y="-724.7"/>
<text text-anchor="start" x="461" y="-714.8" font-family="Helvetica,sans-Serif" font-size="11.00" fill="#000000">id_</text>
<polygon fill="none" stroke="#000000" points="589,-707.7 589,-729.7 673,-729.7 673,-707.7 589,-707.7"/>
<text text-anchor="start" x="592" y="-715.4" font-family="Helvetica,sans-Serif" font-size="11.00" fill="#000000">varchar[64]</text>
<polygon fill="none" stroke="#000000" points="441,-685.7 441,-707.7 589,-707.7 589,-685.7 441,-685.7"/>
<text text-anchor="start" x="461" y="-692.8" font-family="Helvetica,sans-Serif" font-size="11.00" fill="#000000">rev_</text>
<polygon fill="none" stroke="#000000" points="589,-685.7 589,-707.7 673,-707.7 673,-685.7 589,-685.7"/>
<text text-anchor="start" x="592" y="-693.4" font-family="Helvetica,sans-Serif" font-size="11.00" fill="#000000">int4[10]</text>
<polygon fill="#ffffff" stroke="transparent" points="441,-663.7 441,-685.7 589,-685.7 589,-663.7 441,-663.7"/>
<polygon fill="none" stroke="#000000" points="441,-663.7 441,-685.7 589,-685.7 589,-663.7 441,-663.7"/>
<image xlink:href="../../images/foreignKeys.png" width="11px" height="12px" preserveAspectRatio="xMinYMin meet" x="446" y="-680.7"/>
<text text-anchor="start" x="461" y="-670.8" font-family="Helvetica,sans-Serif" font-size="11.00" fill="#000000">execution_id_</text>
<polygon fill="none" stroke="#000000" points="589,-663.7 589,-685.7 673,-685.7 673,-663.7 589,-663.7"/>
<text text-anchor="start" x="592" y="-671.4" font-family="Helvetica,sans-Serif" font-size="11.00" fill="#000000">varchar[64]</text>
<polygon fill="#ffffff" stroke="transparent" points="441,-641.7 441,-663.7 589,-663.7 589,-641.7 441,-641.7"/>
<polygon fill="none" stroke="#000000" points="441,-641.7 441,-663.7 589,-663.7 589,-641.7 441,-641.7"/>
<image xlink:href="../../images/foreignKeys.png" width="11px" height="12px" preserveAspectRatio="xMinYMin meet" x="446" y="-658.7"/>
<text text-anchor="start" x="461" y="-648.8" font-family="Helvetica,sans-Serif" font-size="11.00" fill="#000000">proc_inst_id_</text>
<polygon fill="none" stroke="#000000" points="589,-641.7 589,-663.7 673,-663.7 673,-641.7 589,-641.7"/>
<text text-anchor="start" x="592" y="-649.4" font-family="Helvetica,sans-Serif" font-size="11.00" fill="#000000">varchar[64]</text>
<polygon fill="#ffffff" stroke="transparent" points="441,-619.7 441,-641.7 589,-641.7 589,-619.7 441,-619.7"/>
<polygon fill="none" stroke="#000000" points="441,-619.7 441,-641.7 589,-641.7 589,-619.7 441,-619.7"/>
<image xlink:href="../../images/foreignKeys.png" width="11px" height="12px" preserveAspectRatio="xMinYMin meet" x="446" y="-636.7"/>
<text text-anchor="start" x="461" y="-626.8" font-family="Helvetica,sans-Serif" font-size="11.00" fill="#000000">proc_def_id_</text>
<polygon fill="none" stroke="#000000" points="589,-619.7 589,-641.7 673,-641.7 673,-619.7 589,-619.7"/>
<text text-anchor="start" x="592" y="-627.4" font-family="Helvetica,sans-Serif" font-size="11.00" fill="#000000">varchar[64]</text>
<polygon fill="#ffffff" stroke="transparent" points="441,-597.7 441,-619.7 589,-619.7 589,-597.7 441,-597.7"/>
<polygon fill="none" stroke="#000000" points="441,-597.7 441,-619.7 589,-619.7 589,-597.7 441,-597.7"/>
<image xlink:href="../../images/foreignKeys.png" width="11px" height="12px" preserveAspectRatio="xMinYMin meet" x="446" y="-614.7"/>
<text text-anchor="start" x="461" y="-604.8" font-family="Helvetica,sans-Serif" font-size="11.00" fill="#000000">case_execution_id_</text>
<polygon fill="none" stroke="#000000" points="589,-597.7 589,-619.7 673,-619.7 673,-597.7 589,-597.7"/>
<text text-anchor="start" x="592" y="-605.4" font-family="Helvetica,sans-Serif" font-size="11.00" fill="#000000">varchar[64]</text>
<polygon fill="none" stroke="#000000" points="441,-575.7 441,-597.7 589,-597.7 589,-575.7 441,-575.7"/>
<text text-anchor="start" x="461" y="-582.8" font-family="Helvetica,sans-Serif" font-size="11.00" fill="#000000">case_inst_id_</text>
<polygon fill="none" stroke="#000000" points="589,-575.7 589,-597.7 673,-597.7 673,-575.7 589,-575.7"/>
<text text-anchor="start" x="592" y="-583.4" font-family="Helvetica,sans-Serif" font-size="11.00" fill="#000000">varchar[64]</text>
<polygon fill="#ffffff" stroke="transparent" points="441,-553.7 441,-575.7 589,-575.7 589,-553.7 441,-553.7"/>
<polygon fill="none" stroke="#000000" points="441,-553.7 441,-575.7 589,-575.7 589,-553.7 441,-553.7"/>
<image xlink:href="../../images/foreignKeys.png" width="11px" height="12px" preserveAspectRatio="xMinYMin meet" x="446" y="-570.7"/>
<text text-anchor="start" x="461" y="-560.8" font-family="Helvetica,sans-Serif" font-size="11.00" fill="#000000">case_def_id_</text>
<polygon fill="none" stroke="#000000" points="589,-553.7 589,-575.7 673,-575.7 673,-553.7 589,-553.7"/>
<text text-anchor="start" x="592" y="-561.4" font-family="Helvetica,sans-Serif" font-size="11.00" fill="#000000">varchar[64]</text>
<polygon fill="none" stroke="#000000" points="441,-531.7 441,-553.7 589,-553.7 589,-531.7 441,-531.7"/>
<text text-anchor="start" x="461" y="-538.8" font-family="Helvetica,sans-Serif" font-size="11.00" fill="#000000">name_</text>
<polygon fill="none" stroke="#000000" points="589,-531.7 589,-553.7 673,-553.7 673,-531.7 589,-531.7"/>
<text text-anchor="start" x="592" y="-539.4" font-family="Helvetica,sans-Serif" font-size="11.00" fill="#000000">varchar[255]</text>
<polygon fill="none" stroke="#000000" points="441,-509.7 441,-531.7 589,-531.7 589,-509.7 441,-509.7"/>
<text text-anchor="start" x="461" y="-516.8" font-family="Helvetica,sans-Serif" font-size="11.00" fill="#000000">parent_task_id_</text>
<polygon fill="none" stroke="#000000" points="589,-509.7 589,-531.7 673,-531.7 673,-509.7 589,-509.7"/>
<text text-anchor="start" x="592" y="-517.4" font-family="Helvetica,sans-Serif" font-size="11.00" fill="#000000">varchar[64]</text>
<polygon fill="none" stroke="#000000" points="441,-487.7 441,-509.7 589,-509.7 589,-487.7 441,-487.7"/>
<text text-anchor="start" x="461" y="-494.8" font-family="Helvetica,sans-Serif" font-size="11.00" fill="#000000">description_</text>
<polygon fill="none" stroke="#000000" points="589,-487.7 589,-509.7 673,-509.7 673,-487.7 589,-487.7"/>
<text text-anchor="start" x="592" y="-495.4" font-family="Helvetica,sans-Serif" font-size="11.00" fill="#000000">varchar[4000]</text>
<polygon fill="none" stroke="#000000" points="441,-465.7 441,-487.7 589,-487.7 589,-465.7 441,-465.7"/>
<text text-anchor="start" x="461" y="-472.8" font-family="Helvetica,sans-Serif" font-size="11.00" fill="#000000">task_def_key_</text>
<polygon fill="none" stroke="#000000" points="589,-465.7 589,-487.7 673,-487.7 673,-465.7 589,-465.7"/>
<text text-anchor="start" x="592" y="-473.4" font-family="Helvetica,sans-Serif" font-size="11.00" fill="#000000">varchar[255]</text>
<polygon fill="#ffffff" stroke="transparent" points="441,-443.7 441,-465.7 589,-465.7 589,-443.7 441,-443.7"/>
<polygon fill="none" stroke="#000000" points="441,-443.7 441,-465.7 589,-465.7 589,-443.7 441,-443.7"/>
<text text-anchor="start" x="461" y="-450.8" font-family="Helvetica,sans-Serif" font-size="11.00" fill="#000000">owner_</text>
<polygon fill="none" stroke="#000000" points="589,-443.7 589,-465.7 673,-465.7 673,-443.7 589,-443.7"/>
<text text-anchor="start" x="592" y="-451.4" font-family="Helvetica,sans-Serif" font-size="11.00" fill="#000000">varchar[255]</text>
<polygon fill="#ffffff" stroke="transparent" points="441,-421.7 441,-443.7 589,-443.7 589,-421.7 441,-421.7"/>
<polygon fill="none" stroke="#000000" points="441,-421.7 441,-443.7 589,-443.7 589,-421.7 441,-421.7"/>
<text text-anchor="start" x="461" y="-428.8" font-family="Helvetica,sans-Serif" font-size="11.00" fill="#000000">assignee_</text>
<polygon fill="none" stroke="#000000" points="589,-421.7 589,-443.7 673,-443.7 673,-421.7 589,-421.7"/>
<text text-anchor="start" x="592" y="-429.4" font-family="Helvetica,sans-Serif" font-size="11.00" fill="#000000">varchar[255]</text>
<polygon fill="none" stroke="#000000" points="441,-399.7 441,-421.7 589,-421.7 589,-399.7 441,-399.7"/>
<text text-anchor="start" x="461" y="-406.8" font-family="Helvetica,sans-Serif" font-size="11.00" fill="#000000">delegation_</text>
<polygon fill="none" stroke="#000000" points="589,-399.7 589,-421.7 673,-421.7 673,-399.7 589,-399.7"/>
<text text-anchor="start" x="592" y="-407.4" font-family="Helvetica,sans-Serif" font-size="11.00" fill="#000000">varchar[64]</text>
<polygon fill="none" stroke="#000000" points="441,-377.7 441,-399.7 589,-399.7 589,-377.7 441,-377.7"/>
<text text-anchor="start" x="461" y="-384.8" font-family="Helvetica,sans-Serif" font-size="11.00" fill="#000000">priority_</text>
<polygon fill="none" stroke="#000000" points="589,-377.7 589,-399.7 673,-399.7 673,-377.7 589,-377.7"/>
<text text-anchor="start" x="592" y="-385.4" font-family="Helvetica,sans-Serif" font-size="11.00" fill="#000000">int4[10]</text>
<polygon fill="#ffffff" stroke="transparent" points="441,-355.7 441,-377.7 589,-377.7 589,-355.7 441,-355.7"/>
<polygon fill="none" stroke="#000000" points="441,-355.7 441,-377.7 589,-377.7 589,-355.7 441,-355.7"/>
<text text-anchor="start" x="461" y="-362.8" font-family="Helvetica,sans-Serif" font-size="11.00" fill="#000000">create_time_</text>
<polygon fill="none" stroke="#000000" points="589,-355.7 589,-377.7 673,-377.7 673,-355.7 589,-355.7"/>
<text text-anchor="start" x="591.8807" y="-363.4" font-family="Helvetica,sans-Serif" font-size="11.00" fill="#000000">timestamp[29,6]</text>
<polygon fill="#ffffff" stroke="transparent" points="441,-333.7 441,-355.7 589,-355.7 589,-333.7 441,-333.7"/>
<polygon fill="none" stroke="#000000" points="441,-333.7 441,-355.7 589,-355.7 589,-333.7 441,-333.7"/>
<text text-anchor="start" x="461" y="-340.8" font-family="Helvetica,sans-Serif" font-size="11.00" fill="#000000">last_updated_</text>
<polygon fill="none" stroke="#000000" points="589,-333.7 589,-355.7 673,-355.7 673,-333.7 589,-333.7"/>
<text text-anchor="start" x="591.8807" y="-341.4" font-family="Helvetica,sans-Serif" font-size="11.00" fill="#000000">timestamp[29,6]</text>
<polygon fill="none" stroke="#000000" points="441,-311.7 441,-333.7 589,-333.7 589,-311.7 441,-311.7"/>
<text text-anchor="start" x="461" y="-318.8" font-family="Helvetica,sans-Serif" font-size="11.00" fill="#000000">due_date_</text>
<polygon fill="none" stroke="#000000" points="589,-311.7 589,-333.7 673,-333.7 673,-311.7 589,-311.7"/>
<text text-anchor="start" x="591.8807" y="-319.4" font-family="Helvetica,sans-Serif" font-size="11.00" fill="#000000">timestamp[29,6]</text>
<polygon fill="none" stroke="#000000" points="441,-289.7 441,-311.7 589,-311.7 589,-289.7 441,-289.7"/>
<text text-anchor="start" x="461" y="-296.8" font-family="Helvetica,sans-Serif" font-size="11.00" fill="#000000">follow_up_date_</text>
<polygon fill="none" stroke="#000000" points="589,-289.7 589,-311.7 673,-311.7 673,-289.7 589,-289.7"/>
<text text-anchor="start" x="591.8807" y="-297.4" font-family="Helvetica,sans-Serif" font-size="11.00" fill="#000000">timestamp[29,6]</text>
<polygon fill="none" stroke="#000000" points="441,-267.7 441,-289.7 589,-289.7 589,-267.7 441,-267.7"/>
<text text-anchor="start" x="461" y="-274.8" font-family="Helvetica,sans-Serif" font-size="11.00" fill="#000000">suspension_state_</text>
<polygon fill="none" stroke="#000000" points="589,-267.7 589,-289.7 673,-289.7 673,-267.7 589,-267.7"/>
<text text-anchor="start" x="592" y="-275.4" font-family="Helvetica,sans-Serif" font-size="11.00" fill="#000000">int4[10]</text>
<polygon fill="#ffffff" stroke="transparent" points="441,-245.7 441,-267.7 589,-267.7 589,-245.7 441,-245.7"/>
<polygon fill="none" stroke="#000000" points="441,-245.7 441,-267.7 589,-267.7 589,-245.7 441,-245.7"/>
<text text-anchor="start" x="461" y="-252.8" font-family="Helvetica,sans-Serif" font-size="11.00" fill="#000000">tenant_id_</text>
<polygon fill="none" stroke="#000000" points="589,-245.7 589,-267.7 673,-267.7 673,-245.7 589,-245.7"/>
<text text-anchor="start" x="592" y="-253.4" font-family="Helvetica,sans-Serif" font-size="11.00" fill="#000000">varchar[64]</text>
<polygon fill="none" stroke="#000000" points="441,-223.7 441,-245.7 589,-245.7 589,-223.7 441,-223.7"/>
<text text-anchor="start" x="461" y="-230.8" font-family="Helvetica,sans-Serif" font-size="11.00" fill="#000000">task_state_</text>
<polygon fill="none" stroke="#000000" points="589,-223.7 589,-245.7 673,-245.7 673,-223.7 589,-223.7"/>
<text text-anchor="start" x="592" y="-231.4" font-family="Helvetica,sans-Serif" font-size="11.00" fill="#000000">varchar[64]</text>
<polygon fill="#ffffff" stroke="transparent" points="441,-204.7 441,-223.7 519,-223.7 519,-204.7 441,-204.7"/>
<polygon fill="none" stroke="#000000" points="441,-204.7 441,-223.7 519,-223.7 519,-204.7 441,-204.7"/>
<text text-anchor="start" x="444" y="-210.8" font-family="Helvetica,sans-Serif" font-size="11.00" fill="#000000">&lt; 5</text>
<polygon fill="#ffffff" stroke="transparent" points="519,-204.7 519,-223.7 589,-223.7 589,-204.7 519,-204.7"/>
<polygon fill="none" stroke="#000000" points="519,-204.7 519,-223.7 589,-223.7 589,-204.7 519,-204.7"/>
<text text-anchor="start" x="579.8862" y="-210.8" font-family="Helvetica,sans-Serif" font-size="11.00" fill="#000000"> &#160;</text>
<polygon fill="#ffffff" stroke="transparent" points="589,-204.7 589,-223.7 673,-223.7 673,-204.7 589,-204.7"/>
<polygon fill="none" stroke="#000000" points="589,-204.7 589,-223.7 673,-223.7 673,-204.7 589,-204.7"/>
<text text-anchor="start" x="654.4053" y="-210.8" font-family="Helvetica,sans-Serif" font-size="11.00" fill="#000000">1 &gt;</text>
<polygon fill="none" stroke="#000000" stroke-width="2" points="440,-203.7 440,-753.7 674,-753.7 674,-203.7 440,-203.7"/>
</a>
</g>
</g>
<!-- act_ru_identitylink&#45;&gt;act_ru_task -->
<g id="edge8" class="edge">
<title>act_ru_identitylink:w&#45;&gt;act_ru_task:e</title>
<path fill="none" stroke="#000000" d="M787.4496,-823.631C767.1156,-778.7695 729.3646,-718.7 673,-718.7"/>
<polygon fill="#000000" stroke="#000000" points="790.0366,-829.6349 789.8962,-838.4065 791.6195,-833.3084 793.2023,-836.9819 793.2023,-836.9819 793.2023,-836.9819 791.6195,-833.3084 796.5085,-835.5573 790.0366,-829.6349 790.0366,-829.6349"/>
<ellipse fill="none" stroke="#000000" cx="788.7703" cy="-826.6961" rx="3.2" ry="3.2"/>
</g>
<!-- act_ru_task&#45;&gt;act_ru_case_execution -->
<g id="edge13" class="edge">
<title>act_ru_task:w&#45;&gt;act_ru_case_execution:e</title>
<path fill="none" stroke="#000000" d="M426.4374,-607.2088C375.5744,-595.3436 417.6089,-515.0098 398,-450.7 368.1176,-352.697 328.0681,-238.574 308.0276,-182.4705"/>
<polygon fill="#000000" stroke="#000000" points="433.0416,-607.885 440.6333,-612.2813 437.0208,-608.2925 441,-608.7 441,-608.7 441,-608.7 437.0208,-608.2925 441.3667,-605.1187 433.0416,-607.885 433.0416,-607.885"/>
<ellipse fill="none" stroke="#000000" cx="429.8583" cy="-607.5591" rx="3.2" ry="3.2"/>
</g>
<!-- act_ru_task&#45;&gt;act_re_case_def -->
<g id="edge12" class="edge">
<title>act_ru_task:w&#45;&gt;act_re_case_def:e</title>
<path fill="none" stroke="#000000" d="M426.3236,-564.2027C265.3839,-553.3034 143.0276,-366.1347 98.3897,-287.2815"/>
<polygon fill="#000000" stroke="#000000" points="433.0046,-564.429 440.8781,-568.2979 437.0023,-564.5645 441,-564.7 441,-564.7 441,-564.7 437.0023,-564.5645 441.1219,-561.1021 433.0046,-564.429 433.0046,-564.429"/>
<ellipse fill="none" stroke="#000000" cx="429.8064" cy="-564.3206" rx="3.2" ry="3.2"/>
</g>
<!-- act_ru_task&#45;&gt;act_ru_execution -->
<g id="edge14" class="edge">
<title>act_ru_task:w&#45;&gt;act_ru_execution:e</title>
<path fill="none" stroke="#000000" d="M427.6824,-680.8068C404.1058,-696.3851 360.2564,-738.5314 329.5494,-769.1304"/>
<polygon fill="#000000" stroke="#000000" points="433.7281,-678.0346 442.5006,-677.9724 437.364,-676.3673 441,-674.7 441,-674.7 441,-674.7 437.364,-676.3673 439.4994,-671.4276 433.7281,-678.0346 433.7281,-678.0346"/>
<ellipse fill="none" stroke="#000000" cx="430.8193" cy="-679.3684" rx="3.2" ry="3.2"/>
</g>
<!-- act_ru_task&#45;&gt;act_ru_execution -->
<g id="edge16" class="edge">
<title>act_ru_task:w&#45;&gt;act_ru_execution:e</title>
<path fill="none" stroke="#000000" d="M426.9657,-655.9291C413.6348,-663.6026 413.3834,-683.5003 398,-699.7 375.83,-723.0464 350.4306,-748.8241 330.4623,-768.8751"/>
<polygon fill="#000000" stroke="#000000" points="433.2037,-654.4939 441.8072,-656.2083 437.1019,-653.5969 441,-652.7 441,-652.7 441,-652.7 437.1019,-653.5969 440.1928,-649.1917 433.2037,-654.4939 433.2037,-654.4939"/>
<ellipse fill="none" stroke="#000000" cx="430.0852" cy="-655.2114" rx="3.2" ry="3.2"/>
</g>
<!-- act_ru_task&#45;&gt;act_re_procdef -->
<g id="edge15" class="edge">
<title>act_ru_task:w&#45;&gt;act_re_procdef:e</title>
<path fill="none" stroke="#000000" d="M426.3698,-631.1464C288.9636,-639.4818 163.4684,-762.4695 108.8351,-824.0717"/>
<polygon fill="#000000" stroke="#000000" points="433.0037,-630.944 441.1098,-634.2983 437.0019,-630.822 441,-630.7 441,-630.7 441,-630.7 437.0019,-630.822 440.8902,-627.1017 433.0037,-630.944 433.0037,-630.944"/>
<ellipse fill="none" stroke="#000000" cx="429.8052" cy="-631.0416" rx="3.2" ry="3.2"/>
</g>
<!-- act_ru_incident -->
<g id="node10" class="node">
<title>act_ru_incident</title>
<g id="a_node10"><a xlink:href="../../tables/act_ru_incident.html" xlink:title="act_ru_incident" target="_top">
<polygon fill="#ffffff" stroke="transparent" points="486.5,-940.2 486.5,-1001.2 627.5,-1001.2 627.5,-940.2 486.5,-940.2"/>
<polygon fill="#f5f5f5" stroke="transparent" points="487,-977.7 487,-1000.7 628,-1000.7 628,-977.7 487,-977.7"/>
<polygon fill="none" stroke="#000000" points="487,-977.7 487,-1000.7 628,-1000.7 628,-977.7 487,-977.7"/>
<text text-anchor="start" x="492" y="-986.3" font-family="Helvetica,sans-Serif" font-weight="bold" font-size="11.00" fill="#000000">act_ru_incident</text>
<text text-anchor="start" x="593.5219" y="-985.8" font-family="Helvetica,sans-Serif" font-size="11.00" fill="#000000">[table]</text>
<polygon fill="none" stroke="#000000" points="487,-958.7 487,-977.7 628,-977.7 628,-958.7 487,-958.7"/>
<text text-anchor="start" x="490" y="-964.8" font-family="Helvetica,sans-Serif" font-size="11.00" fill="#000000">...</text>
<polygon fill="#ffffff" stroke="transparent" points="487,-939.7 487,-958.7 551,-958.7 551,-939.7 487,-939.7"/>
<polygon fill="none" stroke="#000000" points="487,-939.7 487,-958.7 551,-958.7 551,-939.7 487,-939.7"/>
<text text-anchor="start" x="490" y="-945.8" font-family="Helvetica,sans-Serif" font-size="11.00" fill="#000000">&lt; 6</text>
<polygon fill="#ffffff" stroke="transparent" points="551,-939.7 551,-958.7 585,-958.7 585,-939.7 551,-939.7"/>
<polygon fill="none" stroke="#000000" points="551,-939.7 551,-958.7 585,-958.7 585,-939.7 551,-939.7"/>
<text text-anchor="start" x="575.8862" y="-945.8" font-family="Helvetica,sans-Serif" font-size="11.00" fill="#000000"> &#160;</text>
<polygon fill="#ffffff" stroke="transparent" points="585,-939.7 585,-958.7 628,-958.7 628,-939.7 585,-939.7"/>
<polygon fill="none" stroke="#000000" points="585,-939.7 585,-958.7 628,-958.7 628,-939.7 585,-939.7"/>
<text text-anchor="start" x="609.4053" y="-945.8" font-family="Helvetica,sans-Serif" font-size="11.00" fill="#000000">2 &gt;</text>
</a>
</g>
</g>
<!-- act_ru_incident&#45;&gt;act_ru_execution -->
<g id="edge9" class="edge">
<title>act_ru_incident:w&#45;&gt;act_ru_execution:e</title>
<path fill="none" stroke="#000000" d="M474.1303,-961.0236C443.3024,-940.4379 377.2709,-878.0654 334.7012,-838.2704"/>
<polygon fill="#000000" stroke="#000000" points="479.8987,-964.016 485.3422,-970.8956 483.4493,-965.858 487,-967.7 487,-967.7 487,-967.7 483.4493,-965.858 488.6578,-964.5044 479.8987,-964.016 479.8987,-964.016"/>
<ellipse fill="none" stroke="#000000" cx="477.0582" cy="-962.5424" rx="3.2" ry="3.2"/>
</g>
<!-- act_ru_incident&#45;&gt;act_ru_execution -->
<g id="edge11" class="edge">
<title>act_ru_incident:w&#45;&gt;act_ru_execution:e</title>
<path fill="none" stroke="#000000" d="M472.7088,-963.9776C439.1691,-947.1542 367.6429,-880.2929 326.4524,-838.3534"/>
<polygon fill="#000000" stroke="#000000" points="479.2583,-965.6835 486.0926,-971.1838 483.1292,-966.6917 487,-967.7 487,-967.7 487,-967.7 483.1292,-966.6917 487.9074,-964.2162 479.2583,-965.6835 479.2583,-965.6835"/>
<ellipse fill="none" stroke="#000000" cx="476.1616" cy="-964.8769" rx="3.2" ry="3.2"/>
</g>
<!-- act_ru_incident&#45;&gt;act_re_procdef -->
<g id="edge10" class="edge">
<title>act_ru_incident:w&#45;&gt;act_re_procdef:e</title>
<path fill="none" stroke="#000000" d="M472.3801,-967.4842C357.996,-964.1497 234.0895,-922.8712 156.7664,-892.1444"/>
<polygon fill="#000000" stroke="#000000" points="479.0009,-967.5819 486.9468,-971.2996 483.0004,-967.6409 487,-967.7 487,-967.7 487,-967.7 483.0004,-967.6409 487.0532,-964.1004 479.0009,-967.5819 479.0009,-967.5819"/>
<ellipse fill="none" stroke="#000000" cx="475.8012" cy="-967.5346" rx="3.2" ry="3.2"/>
</g>
<!-- act_ru_variable -->
<g id="node11" class="node">
<title>act_ru_variable</title>
<g id="a_node11"><a xlink:href="../../tables/act_ru_variable.html" xlink:title="act_ru_variable" target="_top">
<polygon fill="#ffffff" stroke="transparent" points="486.5,-120.2 486.5,-181.2 627.5,-181.2 627.5,-120.2 486.5,-120.2"/>
<polygon fill="#f5f5f5" stroke="transparent" points="487,-157.7 487,-180.7 628,-180.7 628,-157.7 487,-157.7"/>
<polygon fill="none" stroke="#000000" points="487,-157.7 487,-180.7 628,-180.7 628,-157.7 487,-157.7"/>
<text text-anchor="start" x="492" y="-166.3" font-family="Helvetica,sans-Serif" font-weight="bold" font-size="11.00" fill="#000000">act_ru_variable</text>
<text text-anchor="start" x="593.5219" y="-165.8" font-family="Helvetica,sans-Serif" font-size="11.00" fill="#000000">[table]</text>
<polygon fill="none" stroke="#000000" points="487,-138.7 487,-157.7 628,-157.7 628,-138.7 487,-138.7"/>
<text text-anchor="start" x="490" y="-144.8" font-family="Helvetica,sans-Serif" font-size="11.00" fill="#000000">...</text>
<polygon fill="#ffffff" stroke="transparent" points="487,-119.7 487,-138.7 556,-138.7 556,-119.7 487,-119.7"/>
<polygon fill="none" stroke="#000000" points="487,-119.7 487,-138.7 556,-138.7 556,-119.7 487,-119.7"/>
<text text-anchor="start" x="490" y="-125.8" font-family="Helvetica,sans-Serif" font-size="11.00" fill="#000000">&lt; 6</text>
<polygon fill="#ffffff" stroke="transparent" points="556,-119.7 556,-138.7 592,-138.7 592,-119.7 556,-119.7"/>
<polygon fill="none" stroke="#000000" points="556,-119.7 556,-138.7 592,-138.7 592,-119.7 556,-119.7"/>
<text text-anchor="start" x="582.8862" y="-125.8" font-family="Helvetica,sans-Serif" font-size="11.00" fill="#000000"> &#160;</text>
<polygon fill="#ffffff" stroke="transparent" points="592,-119.7 592,-138.7 628,-138.7 628,-119.7 592,-119.7"/>
<polygon fill="none" stroke="#000000" points="592,-119.7 592,-138.7 628,-138.7 628,-119.7 592,-119.7"/>
<text text-anchor="start" x="618.8862" y="-125.8" font-family="Helvetica,sans-Serif" font-size="11.00" fill="#000000"> &#160;</text>
</a>
</g>
</g>
<!-- act_ru_variable&#45;&gt;act_ru_case_execution -->
<g id="edge17" class="edge">
<title>act_ru_variable:w&#45;&gt;act_ru_case_execution:e</title>
<path fill="none" stroke="#000000" d="M472.3263,-146.7364C447.8351,-145.241 422.2349,-144.2199 398.3624,-143.673"/>
<polygon fill="#000000" stroke="#000000" points="479.0172,-147.1757 486.7641,-151.2923 483.0086,-147.4379 487,-147.7 487,-147.7 487,-147.7 483.0086,-147.4379 487.2359,-144.1077 479.0172,-147.1757 479.0172,-147.1757"/>
<ellipse fill="none" stroke="#000000" cx="475.8241" cy="-146.966" rx="3.2" ry="3.2"/>
</g>
<!-- act_ru_variable&#45;&gt;act_ru_case_execution -->
<g id="edge18" class="edge">
<title>act_ru_variable:w&#45;&gt;act_ru_case_execution:e</title>
<path fill="none" stroke="#000000" d="M472.3263,-148.8242C447.8351,-150.5688 422.2349,-151.7601 398.3624,-152.3981"/>
<polygon fill="#000000" stroke="#000000" points="479.0234,-148.3112 487.275,-151.2895 483.0117,-148.0056 487,-147.7 487,-147.7 487,-147.7 483.0117,-148.0056 486.725,-144.1105 479.0234,-148.3112 479.0234,-148.3112"/>
<ellipse fill="none" stroke="#000000" cx="475.8327" cy="-148.5556" rx="3.2" ry="3.2"/>
</g>
<!-- act_ru_variable&#45;&gt;act_ru_execution -->
<g id="edge19" class="edge">
<title>act_ru_variable:w&#45;&gt;act_ru_execution:e</title>
<path fill="none" stroke="#000000" d="M472.3499,-149.2165C352.0481,-179.3496 307.8263,-638.0964 297.8373,-769.07"/>
<polygon fill="#000000" stroke="#000000" points="479.0425,-148.5238 487.3707,-151.2809 483.0213,-148.1119 487,-147.7 487,-147.7 487,-147.7 483.0213,-148.1119 486.6293,-144.1191 479.0425,-148.5238 479.0425,-148.5238"/>
<ellipse fill="none" stroke="#000000" cx="475.8595" cy="-148.8533" rx="3.2" ry="3.2"/>
</g>
<!-- act_ru_variable&#45;&gt;act_ru_execution -->
<g id="edge20" class="edge">
<title>act_ru_variable:w&#45;&gt;act_ru_execution:e</title>
<path fill="none" stroke="#000000" d="M472.5113,-150.4057C353.5,-189.8202 308.8794,-639.7553 298.2032,-769.1475"/>
<polygon fill="#000000" stroke="#000000" points="479.1359,-149.1686 487.6609,-151.2388 483.068,-148.4343 487,-147.7 487,-147.7 487,-147.7 483.068,-148.4343 486.3391,-144.1612 479.1359,-149.1686 479.1359,-149.1686"/>
<ellipse fill="none" stroke="#000000" cx="475.9903" cy="-149.756" rx="3.2" ry="3.2"/>
</g>
</g>
</svg>
