<?xml version="1.0" encoding="UTF-8" standalone="no"?>
<!DOCTYPE svg PUBLIC "-//W3C//DTD SVG 1.1//EN"
 "http://www.w3.org/Graphics/SVG/1.1/DTD/svg11.dtd">
<!-- Generated by graphviz version 2.40.1 (20161225.0304)
 -->
<!-- Title: oneDegreeRelationshipsDiagram Pages: 1 -->
<svg width="272pt" height="404pt"
 viewBox="0.00 0.00 272.00 404.20" xmlns="http://www.w3.org/2000/svg" xmlns:xlink="http://www.w3.org/1999/xlink">
<g id="graph0" class="graph" transform="scale(1 1) rotate(0) translate(4 400.2)">
<title>oneDegreeRelationshipsDiagram</title>
<polygon fill="#ffffff" stroke="transparent" points="-4,4 -4,-400.2 268,-400.2 268,4 -4,4"/>
<text text-anchor="middle" x="72.4936" y="-7.3" font-family="Helvetica,sans-Serif" font-size="11.00" fill="#000000">Generated by SchemaSpy</text>
<!-- act_hi_batch -->
<g id="node1" class="node">
<title>act_hi_batch</title>
<g id="a_node1"><a xlink:href="../../tables/act_hi_batch.html" xlink:title="act_hi_batch" target="_top">
<polygon fill="#ffffff" stroke="transparent" points="8,-38.2 8,-392.2 256,-392.2 256,-38.2 8,-38.2"/>
<polygon fill="#f5f5f5" stroke="transparent" points="10,-367.2 10,-390.2 254,-390.2 254,-367.2 10,-367.2"/>
<polygon fill="none" stroke="#000000" points="10,-367.2 10,-390.2 254,-390.2 254,-367.2 10,-367.2"/>
<text text-anchor="start" x="15" y="-375.8" font-family="Helvetica,sans-Serif" font-weight="bold" font-size="11.00" fill="#000000">act_hi_batch</text>
<text text-anchor="start" x="219.0437" y="-375.3" font-family="Helvetica,sans-Serif" font-size="11.00" fill="#000000">[table]</text>
<polygon fill="none" stroke="#000000" points="10,-345.2 10,-367.2 170,-367.2 170,-345.2 10,-345.2"/>
<image xlink:href="../../images/primaryKeys.png" width="11px" height="12px" preserveAspectRatio="xMinYMin meet" x="15" y="-362.2"/>
<text text-anchor="start" x="30" y="-352.3" font-family="Helvetica,sans-Serif" font-size="11.00" fill="#000000">id_</text>
<polygon fill="none" stroke="#000000" points="170,-345.2 170,-367.2 254,-367.2 254,-345.2 170,-345.2"/>
<text text-anchor="start" x="173" y="-352.9" font-family="Helvetica,sans-Serif" font-size="11.00" fill="#000000">varchar[64]</text>
<polygon fill="none" stroke="#000000" points="10,-323.2 10,-345.2 170,-345.2 170,-323.2 10,-323.2"/>
<text text-anchor="start" x="30" y="-330.3" font-family="Helvetica,sans-Serif" font-size="11.00" fill="#000000">type_</text>
<polygon fill="none" stroke="#000000" points="170,-323.2 170,-345.2 254,-345.2 254,-323.2 170,-323.2"/>
<text text-anchor="start" x="173" y="-330.9" font-family="Helvetica,sans-Serif" font-size="11.00" fill="#000000">varchar[255]</text>
<polygon fill="none" stroke="#000000" points="10,-301.2 10,-323.2 170,-323.2 170,-301.2 10,-301.2"/>
<text text-anchor="start" x="30" y="-308.3" font-family="Helvetica,sans-Serif" font-size="11.00" fill="#000000">total_jobs_</text>
<polygon fill="none" stroke="#000000" points="170,-301.2 170,-323.2 254,-323.2 254,-301.2 170,-301.2"/>
<text text-anchor="start" x="173" y="-308.9" font-family="Helvetica,sans-Serif" font-size="11.00" fill="#000000">int4[10]</text>
<polygon fill="none" stroke="#000000" points="10,-279.2 10,-301.2 170,-301.2 170,-279.2 10,-279.2"/>
<text text-anchor="start" x="30" y="-286.3" font-family="Helvetica,sans-Serif" font-size="11.00" fill="#000000">jobs_per_seed_</text>
<polygon fill="none" stroke="#000000" points="170,-279.2 170,-301.2 254,-301.2 254,-279.2 170,-279.2"/>
<text text-anchor="start" x="173" y="-286.9" font-family="Helvetica,sans-Serif" font-size="11.00" fill="#000000">int4[10]</text>
<polygon fill="none" stroke="#000000" points="10,-257.2 10,-279.2 170,-279.2 170,-257.2 10,-257.2"/>
<text text-anchor="start" x="30" y="-264.3" font-family="Helvetica,sans-Serif" font-size="11.00" fill="#000000">invocations_per_job_</text>
<polygon fill="none" stroke="#000000" points="170,-257.2 170,-279.2 254,-279.2 254,-257.2 170,-257.2"/>
<text text-anchor="start" x="173" y="-264.9" font-family="Helvetica,sans-Serif" font-size="11.00" fill="#000000">int4[10]</text>
<polygon fill="none" stroke="#000000" points="10,-235.2 10,-257.2 170,-257.2 170,-235.2 10,-235.2"/>
<text text-anchor="start" x="30" y="-242.3" font-family="Helvetica,sans-Serif" font-size="11.00" fill="#000000">seed_job_def_id_</text>
<polygon fill="none" stroke="#000000" points="170,-235.2 170,-257.2 254,-257.2 254,-235.2 170,-235.2"/>
<text text-anchor="start" x="173" y="-242.9" font-family="Helvetica,sans-Serif" font-size="11.00" fill="#000000">varchar[64]</text>
<polygon fill="none" stroke="#000000" points="10,-213.2 10,-235.2 170,-235.2 170,-213.2 10,-213.2"/>
<text text-anchor="start" x="30" y="-220.3" font-family="Helvetica,sans-Serif" font-size="11.00" fill="#000000">monitor_job_def_id_</text>
<polygon fill="none" stroke="#000000" points="170,-213.2 170,-235.2 254,-235.2 254,-213.2 170,-213.2"/>
<text text-anchor="start" x="173" y="-220.9" font-family="Helvetica,sans-Serif" font-size="11.00" fill="#000000">varchar[64]</text>
<polygon fill="none" stroke="#000000" points="10,-191.2 10,-213.2 170,-213.2 170,-191.2 10,-191.2"/>
<text text-anchor="start" x="30" y="-198.3" font-family="Helvetica,sans-Serif" font-size="11.00" fill="#000000">batch_job_def_id_</text>
<polygon fill="none" stroke="#000000" points="170,-191.2 170,-213.2 254,-213.2 254,-191.2 170,-191.2"/>
<text text-anchor="start" x="173" y="-198.9" font-family="Helvetica,sans-Serif" font-size="11.00" fill="#000000">varchar[64]</text>
<polygon fill="none" stroke="#000000" points="10,-169.2 10,-191.2 170,-191.2 170,-169.2 10,-169.2"/>
<text text-anchor="start" x="30" y="-176.3" font-family="Helvetica,sans-Serif" font-size="11.00" fill="#000000">tenant_id_</text>
<polygon fill="none" stroke="#000000" points="170,-169.2 170,-191.2 254,-191.2 254,-169.2 170,-169.2"/>
<text text-anchor="start" x="173" y="-176.9" font-family="Helvetica,sans-Serif" font-size="11.00" fill="#000000">varchar[64]</text>
<polygon fill="none" stroke="#000000" points="10,-147.2 10,-169.2 170,-169.2 170,-147.2 10,-147.2"/>
<text text-anchor="start" x="30" y="-154.3" font-family="Helvetica,sans-Serif" font-size="11.00" fill="#000000">create_user_id_</text>
<polygon fill="none" stroke="#000000" points="170,-147.2 170,-169.2 254,-169.2 254,-147.2 170,-147.2"/>
<text text-anchor="start" x="173" y="-154.9" font-family="Helvetica,sans-Serif" font-size="11.00" fill="#000000">varchar[255]</text>
<polygon fill="none" stroke="#000000" points="10,-125.2 10,-147.2 170,-147.2 170,-125.2 10,-125.2"/>
<text text-anchor="start" x="30" y="-132.3" font-family="Helvetica,sans-Serif" font-size="11.00" fill="#000000">start_time_</text>
<polygon fill="none" stroke="#000000" points="170,-125.2 170,-147.2 254,-147.2 254,-125.2 170,-125.2"/>
<text text-anchor="start" x="172.8807" y="-132.9" font-family="Helvetica,sans-Serif" font-size="11.00" fill="#000000">timestamp[29,6]</text>
<polygon fill="none" stroke="#000000" points="10,-103.2 10,-125.2 170,-125.2 170,-103.2 10,-103.2"/>
<text text-anchor="start" x="30" y="-110.3" font-family="Helvetica,sans-Serif" font-size="11.00" fill="#000000">end_time_</text>
<polygon fill="none" stroke="#000000" points="170,-103.2 170,-125.2 254,-125.2 254,-103.2 170,-103.2"/>
<text text-anchor="start" x="172.8807" y="-110.9" font-family="Helvetica,sans-Serif" font-size="11.00" fill="#000000">timestamp[29,6]</text>
<polygon fill="#ffffff" stroke="transparent" points="10,-81.2 10,-103.2 170,-103.2 170,-81.2 10,-81.2"/>
<polygon fill="none" stroke="#000000" points="10,-81.2 10,-103.2 170,-103.2 170,-81.2 10,-81.2"/>
<text text-anchor="start" x="30" y="-88.3" font-family="Helvetica,sans-Serif" font-size="11.00" fill="#000000">removal_time_</text>
<polygon fill="none" stroke="#000000" points="170,-81.2 170,-103.2 254,-103.2 254,-81.2 170,-81.2"/>
<text text-anchor="start" x="172.8807" y="-88.9" font-family="Helvetica,sans-Serif" font-size="11.00" fill="#000000">timestamp[29,6]</text>
<polygon fill="none" stroke="#000000" points="10,-59.2 10,-81.2 170,-81.2 170,-59.2 10,-59.2"/>
<text text-anchor="start" x="30" y="-66.3" font-family="Helvetica,sans-Serif" font-size="11.00" fill="#000000">exec_start_time_</text>
<polygon fill="none" stroke="#000000" points="170,-59.2 170,-81.2 254,-81.2 254,-59.2 170,-59.2"/>
<text text-anchor="start" x="172.8807" y="-66.9" font-family="Helvetica,sans-Serif" font-size="11.00" fill="#000000">timestamp[29,6]</text>
<polygon fill="#ffffff" stroke="transparent" points="10,-40.2 10,-59.2 94,-59.2 94,-40.2 10,-40.2"/>
<polygon fill="none" stroke="#000000" points="10,-40.2 10,-59.2 94,-59.2 94,-40.2 10,-40.2"/>
<text text-anchor="start" x="13" y="-46.3" font-family="Helvetica,sans-Serif" font-size="11.00" fill="#000000">&lt; 0</text>
<polygon fill="#ffffff" stroke="transparent" points="94,-40.2 94,-59.2 170,-59.2 170,-40.2 94,-40.2"/>
<polygon fill="none" stroke="#000000" points="94,-40.2 94,-59.2 170,-59.2 170,-40.2 94,-40.2"/>
<text text-anchor="start" x="160.8862" y="-46.3" font-family="Helvetica,sans-Serif" font-size="11.00" fill="#000000"> &#160;</text>
<polygon fill="#ffffff" stroke="transparent" points="170,-40.2 170,-59.2 254,-59.2 254,-40.2 170,-40.2"/>
<polygon fill="none" stroke="#000000" points="170,-40.2 170,-59.2 254,-59.2 254,-40.2 170,-40.2"/>
<text text-anchor="start" x="235.4053" y="-46.3" font-family="Helvetica,sans-Serif" font-size="11.00" fill="#000000">0 &gt;</text>
<polygon fill="none" stroke="#000000" stroke-width="2" points="9,-39.2 9,-391.2 255,-391.2 255,-39.2 9,-39.2"/>
</a>
</g>
</g>
</g>
</svg>
