<?xml version="1.0" encoding="UTF-8" standalone="no"?>
<!DOCTYPE svg PUBLIC "-//W3C//DTD SVG 1.1//EN"
 "http://www.w3.org/Graphics/SVG/1.1/DTD/svg11.dtd">
<!-- Generated by graphviz version 2.40.1 (20161225.0304)
 -->
<!-- Title: twoDegreesRelationshipsDiagram Pages: 1 -->
<svg width="946pt" height="598pt"
 viewBox="0.00 0.00 946.00 597.70" xmlns="http://www.w3.org/2000/svg" xmlns:xlink="http://www.w3.org/1999/xlink">
<g id="graph0" class="graph" transform="scale(1 1) rotate(0) translate(4 593.7)">
<title>twoDegreesRelationshipsDiagram</title>
<polygon fill="#ffffff" stroke="transparent" points="-4,4 -4,-593.7 942,-593.7 942,4 -4,4"/>
<text text-anchor="middle" x="72.4936" y="-7.3" font-family="Helvetica,sans-Serif" font-size="11.00" fill="#000000">Generated by SchemaSpy</text>
<!-- act_ru_case_execution -->
<g id="node1" class="node">
<title>act_ru_case_execution</title>
<g id="a_node1"><a xlink:href="../../tables/act_ru_case_execution.html" xlink:title="act_ru_case_execution" target="_top">
<polygon fill="#ffffff" stroke="transparent" points="305,-516.7 305,-577.7 494,-577.7 494,-516.7 305,-516.7"/>
<polygon fill="#f5f5f5" stroke="transparent" points="305.5,-554.2 305.5,-577.2 494.5,-577.2 494.5,-554.2 305.5,-554.2"/>
<polygon fill="none" stroke="#000000" points="305.5,-554.2 305.5,-577.2 494.5,-577.2 494.5,-554.2 305.5,-554.2"/>
<text text-anchor="start" x="310.5" y="-562.8" font-family="Helvetica,sans-Serif" font-weight="bold" font-size="11.00" fill="#000000">act_ru_case_execution</text>
<text text-anchor="start" x="460.0219" y="-562.3" font-family="Helvetica,sans-Serif" font-size="11.00" fill="#000000">[table]</text>
<polygon fill="none" stroke="#000000" points="305.5,-535.2 305.5,-554.2 494.5,-554.2 494.5,-535.2 305.5,-535.2"/>
<text text-anchor="start" x="308.5" y="-541.3" font-family="Helvetica,sans-Serif" font-size="11.00" fill="#000000">...</text>
<polygon fill="#ffffff" stroke="transparent" points="305.5,-516.2 305.5,-535.2 393.5,-535.2 393.5,-516.2 305.5,-516.2"/>
<polygon fill="none" stroke="#000000" points="305.5,-516.2 305.5,-535.2 393.5,-535.2 393.5,-516.2 305.5,-516.2"/>
<text text-anchor="start" x="308.5" y="-522.3" font-family="Helvetica,sans-Serif" font-size="11.00" fill="#000000">&lt; 3</text>
<polygon fill="#ffffff" stroke="transparent" points="393.5,-516.2 393.5,-535.2 439.5,-535.2 439.5,-516.2 393.5,-516.2"/>
<polygon fill="none" stroke="#000000" points="393.5,-516.2 393.5,-535.2 439.5,-535.2 439.5,-516.2 393.5,-516.2"/>
<text text-anchor="start" x="430.3862" y="-522.3" font-family="Helvetica,sans-Serif" font-size="11.00" fill="#000000"> &#160;</text>
<polygon fill="#ffffff" stroke="transparent" points="439.5,-516.2 439.5,-535.2 494.5,-535.2 494.5,-516.2 439.5,-516.2"/>
<polygon fill="none" stroke="#000000" points="439.5,-516.2 439.5,-535.2 494.5,-535.2 494.5,-516.2 439.5,-516.2"/>
<text text-anchor="start" x="475.9053" y="-522.3" font-family="Helvetica,sans-Serif" font-size="11.00" fill="#000000">7 &gt;</text>
</a>
</g>
</g>
<!-- act_re_case_def -->
<g id="node2" class="node">
<title>act_re_case_def</title>
<g id="a_node2"><a xlink:href="../../tables/act_re_case_def.html" xlink:title="act_re_case_def" target="_top">
<polygon fill="#ffffff" stroke="transparent" points="60,-474.7 60,-535.7 204,-535.7 204,-474.7 60,-474.7"/>
<polygon fill="#f5f5f5" stroke="transparent" points="60,-512.2 60,-535.2 204,-535.2 204,-512.2 60,-512.2"/>
<polygon fill="none" stroke="#000000" points="60,-512.2 60,-535.2 204,-535.2 204,-512.2 60,-512.2"/>
<text text-anchor="start" x="65" y="-520.8" font-family="Helvetica,sans-Serif" font-weight="bold" font-size="11.00" fill="#000000">act_re_case_def</text>
<text text-anchor="start" x="169.5219" y="-520.3" font-family="Helvetica,sans-Serif" font-size="11.00" fill="#000000">[table]</text>
<polygon fill="none" stroke="#000000" points="60,-493.2 60,-512.2 204,-512.2 204,-493.2 60,-493.2"/>
<text text-anchor="start" x="63" y="-499.3" font-family="Helvetica,sans-Serif" font-size="11.00" fill="#000000">...</text>
<polygon fill="#ffffff" stroke="transparent" points="60,-474.2 60,-493.2 121,-493.2 121,-474.2 60,-474.2"/>
<polygon fill="none" stroke="#000000" points="60,-474.2 60,-493.2 121,-493.2 121,-474.2 60,-474.2"/>
<text text-anchor="start" x="63" y="-480.3" font-family="Helvetica,sans-Serif" font-size="11.00" fill="#000000"> &#160;</text>
<polygon fill="#ffffff" stroke="transparent" points="121,-474.2 121,-493.2 158,-493.2 158,-474.2 121,-474.2"/>
<polygon fill="none" stroke="#000000" points="121,-474.2 121,-493.2 158,-493.2 158,-474.2 121,-474.2"/>
<text text-anchor="start" x="148.8862" y="-480.3" font-family="Helvetica,sans-Serif" font-size="11.00" fill="#000000"> &#160;</text>
<polygon fill="#ffffff" stroke="transparent" points="158,-474.2 158,-493.2 204,-493.2 204,-474.2 158,-474.2"/>
<polygon fill="none" stroke="#000000" points="158,-474.2 158,-493.2 204,-493.2 204,-474.2 158,-474.2"/>
<text text-anchor="start" x="185.4053" y="-480.3" font-family="Helvetica,sans-Serif" font-size="11.00" fill="#000000">2 &gt;</text>
</a>
</g>
</g>
<!-- act_ru_case_execution&#45;&gt;act_re_case_def -->
<g id="edge1" class="edge">
<title>act_ru_case_execution:w&#45;&gt;act_re_case_def:e</title>
<path fill="none" stroke="#000000" d="M290.9767,-542.8026C255.2974,-535.5149 247.4809,-502.2 204,-502.2"/>
<polygon fill="#000000" stroke="#000000" points="297.5368,-543.4337 305.1552,-547.7835 301.5184,-543.8169 305.5,-544.2 305.5,-544.2 305.5,-544.2 301.5184,-543.8169 305.8448,-540.6165 297.5368,-543.4337 297.5368,-543.4337"/>
<ellipse fill="none" stroke="#000000" cx="294.3515" cy="-543.1272" rx="3.2" ry="3.2"/>
</g>
<!-- act_ru_event_subscr -->
<g id="node3" class="node">
<title>act_ru_event_subscr</title>
<g id="a_node3"><a xlink:href="../../tables/act_ru_event_subscr.html" xlink:title="act_ru_event_subscr" target="_top">
<polygon fill="#ffffff" stroke="transparent" points="543,-360.7 543,-421.7 718,-421.7 718,-360.7 543,-360.7"/>
<polygon fill="#f5f5f5" stroke="transparent" points="543.5,-398.2 543.5,-421.2 718.5,-421.2 718.5,-398.2 543.5,-398.2"/>
<polygon fill="none" stroke="#000000" points="543.5,-398.2 543.5,-421.2 718.5,-421.2 718.5,-398.2 543.5,-398.2"/>
<text text-anchor="start" x="548.5" y="-406.8" font-family="Helvetica,sans-Serif" font-weight="bold" font-size="11.00" fill="#000000">act_ru_event_subscr</text>
<text text-anchor="start" x="684.0219" y="-406.3" font-family="Helvetica,sans-Serif" font-size="11.00" fill="#000000">[table]</text>
<polygon fill="none" stroke="#000000" points="543.5,-379.2 543.5,-398.2 718.5,-398.2 718.5,-379.2 543.5,-379.2"/>
<text text-anchor="start" x="546.5" y="-385.3" font-family="Helvetica,sans-Serif" font-size="11.00" fill="#000000">...</text>
<polygon fill="#ffffff" stroke="transparent" points="543.5,-360.2 543.5,-379.2 629.5,-379.2 629.5,-360.2 543.5,-360.2"/>
<polygon fill="none" stroke="#000000" points="543.5,-360.2 543.5,-379.2 629.5,-379.2 629.5,-360.2 543.5,-360.2"/>
<text text-anchor="start" x="546.5" y="-366.3" font-family="Helvetica,sans-Serif" font-size="11.00" fill="#000000">&lt; 1</text>
<polygon fill="#ffffff" stroke="transparent" points="629.5,-360.2 629.5,-379.2 673.5,-379.2 673.5,-360.2 629.5,-360.2"/>
<polygon fill="none" stroke="#000000" points="629.5,-360.2 629.5,-379.2 673.5,-379.2 673.5,-360.2 629.5,-360.2"/>
<text text-anchor="start" x="664.3862" y="-366.3" font-family="Helvetica,sans-Serif" font-size="11.00" fill="#000000"> &#160;</text>
<polygon fill="#ffffff" stroke="transparent" points="673.5,-360.2 673.5,-379.2 718.5,-379.2 718.5,-360.2 673.5,-360.2"/>
<polygon fill="none" stroke="#000000" points="673.5,-360.2 673.5,-379.2 718.5,-379.2 718.5,-360.2 673.5,-360.2"/>
<text text-anchor="start" x="709.3862" y="-366.3" font-family="Helvetica,sans-Serif" font-size="11.00" fill="#000000"> &#160;</text>
</a>
</g>
</g>
<!-- act_ru_execution -->
<g id="node4" class="node">
<title>act_ru_execution</title>
<g id="a_node4"><a xlink:href="../../tables/act_ru_execution.html" xlink:title="act_ru_execution" target="_top">
<polygon fill="#ffffff" stroke="transparent" points="323.5,-357.7 323.5,-418.7 475.5,-418.7 475.5,-357.7 323.5,-357.7"/>
<polygon fill="#f5f5f5" stroke="transparent" points="323.5,-395.2 323.5,-418.2 475.5,-418.2 475.5,-395.2 323.5,-395.2"/>
<polygon fill="none" stroke="#000000" points="323.5,-395.2 323.5,-418.2 475.5,-418.2 475.5,-395.2 323.5,-395.2"/>
<text text-anchor="start" x="328.5" y="-403.8" font-family="Helvetica,sans-Serif" font-weight="bold" font-size="11.00" fill="#000000">act_ru_execution</text>
<text text-anchor="start" x="441.0219" y="-403.3" font-family="Helvetica,sans-Serif" font-size="11.00" fill="#000000">[table]</text>
<polygon fill="none" stroke="#000000" points="323.5,-376.2 323.5,-395.2 475.5,-395.2 475.5,-376.2 323.5,-376.2"/>
<text text-anchor="start" x="326.5" y="-382.3" font-family="Helvetica,sans-Serif" font-size="11.00" fill="#000000">...</text>
<polygon fill="#ffffff" stroke="transparent" points="323.5,-357.2 323.5,-376.2 390.5,-376.2 390.5,-357.2 323.5,-357.2"/>
<polygon fill="none" stroke="#000000" points="323.5,-357.2 323.5,-376.2 390.5,-376.2 390.5,-357.2 323.5,-357.2"/>
<text text-anchor="start" x="326.5" y="-363.3" font-family="Helvetica,sans-Serif" font-size="11.00" fill="#000000">&lt; 4</text>
<polygon fill="#ffffff" stroke="transparent" points="390.5,-357.2 390.5,-376.2 425.5,-376.2 425.5,-357.2 390.5,-357.2"/>
<polygon fill="none" stroke="#000000" points="390.5,-357.2 390.5,-376.2 425.5,-376.2 425.5,-357.2 390.5,-357.2"/>
<text text-anchor="start" x="416.3862" y="-363.3" font-family="Helvetica,sans-Serif" font-size="11.00" fill="#000000"> &#160;</text>
<polygon fill="#ffffff" stroke="transparent" points="425.5,-357.2 425.5,-376.2 475.5,-376.2 475.5,-357.2 425.5,-357.2"/>
<polygon fill="none" stroke="#000000" points="425.5,-357.2 425.5,-376.2 475.5,-376.2 475.5,-357.2 425.5,-357.2"/>
<text text-anchor="start" x="450.7904" y="-363.3" font-family="Helvetica,sans-Serif" font-size="11.00" fill="#000000">11 &gt;</text>
</a>
</g>
</g>
<!-- act_ru_event_subscr&#45;&gt;act_ru_execution -->
<g id="edge2" class="edge">
<title>act_ru_event_subscr:w&#45;&gt;act_ru_execution:e</title>
<path fill="none" stroke="#000000" d="M528.7354,-388.2C513.7791,-388.2 498.3726,-388.2 483.6394,-388.2"/>
<polygon fill="#000000" stroke="#000000" points="535.5,-388.2001 543.5,-391.8 539.5,-388.2 543.5,-388.2 543.5,-388.2 543.5,-388.2 539.5,-388.2 543.5,-384.6 535.5,-388.2001 535.5,-388.2001"/>
<ellipse fill="none" stroke="#000000" cx="532.3" cy="-388.2001" rx="3.2" ry="3.2"/>
</g>
<!-- act_re_procdef -->
<g id="node5" class="node">
<title>act_re_procdef</title>
<g id="a_node5"><a xlink:href="../../tables/act_re_procdef.html" xlink:title="act_re_procdef" target="_top">
<polygon fill="#ffffff" stroke="transparent" points="8,-38.2 8,-414.2 256,-414.2 256,-38.2 8,-38.2"/>
<polygon fill="#f5f5f5" stroke="transparent" points="10,-389.2 10,-412.2 254,-412.2 254,-389.2 10,-389.2"/>
<polygon fill="none" stroke="#000000" points="10,-389.2 10,-412.2 254,-412.2 254,-389.2 10,-389.2"/>
<text text-anchor="start" x="15" y="-397.8" font-family="Helvetica,sans-Serif" font-weight="bold" font-size="11.00" fill="#000000">act_re_procdef</text>
<text text-anchor="start" x="219.0437" y="-397.3" font-family="Helvetica,sans-Serif" font-size="11.00" fill="#000000">[table]</text>
<polygon fill="none" stroke="#000000" points="10,-367.2 10,-389.2 181,-389.2 181,-367.2 10,-367.2"/>
<image xlink:href="../../images/primaryKeys.png" width="11px" height="12px" preserveAspectRatio="xMinYMin meet" x="15" y="-384.2"/>
<text text-anchor="start" x="30" y="-374.3" font-family="Helvetica,sans-Serif" font-size="11.00" fill="#000000">id_</text>
<polygon fill="none" stroke="#000000" points="181,-367.2 181,-389.2 254,-389.2 254,-367.2 181,-367.2"/>
<text text-anchor="start" x="184" y="-374.9" font-family="Helvetica,sans-Serif" font-size="11.00" fill="#000000">varchar[64]</text>
<polygon fill="none" stroke="#000000" points="10,-345.2 10,-367.2 181,-367.2 181,-345.2 10,-345.2"/>
<text text-anchor="start" x="30" y="-352.3" font-family="Helvetica,sans-Serif" font-size="11.00" fill="#000000">rev_</text>
<polygon fill="none" stroke="#000000" points="181,-345.2 181,-367.2 254,-367.2 254,-345.2 181,-345.2"/>
<text text-anchor="start" x="184" y="-352.9" font-family="Helvetica,sans-Serif" font-size="11.00" fill="#000000">int4[10]</text>
<polygon fill="none" stroke="#000000" points="10,-323.2 10,-345.2 181,-345.2 181,-323.2 10,-323.2"/>
<text text-anchor="start" x="30" y="-330.3" font-family="Helvetica,sans-Serif" font-size="11.00" fill="#000000">category_</text>
<polygon fill="none" stroke="#000000" points="181,-323.2 181,-345.2 254,-345.2 254,-323.2 181,-323.2"/>
<text text-anchor="start" x="184" y="-330.9" font-family="Helvetica,sans-Serif" font-size="11.00" fill="#000000">varchar[255]</text>
<polygon fill="none" stroke="#000000" points="10,-301.2 10,-323.2 181,-323.2 181,-301.2 10,-301.2"/>
<text text-anchor="start" x="30" y="-308.3" font-family="Helvetica,sans-Serif" font-size="11.00" fill="#000000">name_</text>
<polygon fill="none" stroke="#000000" points="181,-301.2 181,-323.2 254,-323.2 254,-301.2 181,-301.2"/>
<text text-anchor="start" x="184" y="-308.9" font-family="Helvetica,sans-Serif" font-size="11.00" fill="#000000">varchar[255]</text>
<polygon fill="none" stroke="#000000" points="10,-279.2 10,-301.2 181,-301.2 181,-279.2 10,-279.2"/>
<text text-anchor="start" x="30" y="-286.3" font-family="Helvetica,sans-Serif" font-size="11.00" fill="#000000">key_</text>
<polygon fill="none" stroke="#000000" points="181,-279.2 181,-301.2 254,-301.2 254,-279.2 181,-279.2"/>
<text text-anchor="start" x="184" y="-286.9" font-family="Helvetica,sans-Serif" font-size="11.00" fill="#000000">varchar[255]</text>
<polygon fill="none" stroke="#000000" points="10,-257.2 10,-279.2 181,-279.2 181,-257.2 10,-257.2"/>
<text text-anchor="start" x="30" y="-264.3" font-family="Helvetica,sans-Serif" font-size="11.00" fill="#000000">version_</text>
<polygon fill="none" stroke="#000000" points="181,-257.2 181,-279.2 254,-279.2 254,-257.2 181,-257.2"/>
<text text-anchor="start" x="184" y="-264.9" font-family="Helvetica,sans-Serif" font-size="11.00" fill="#000000">int4[10]</text>
<polygon fill="#ffffff" stroke="transparent" points="10,-235.2 10,-257.2 181,-257.2 181,-235.2 10,-235.2"/>
<polygon fill="none" stroke="#000000" points="10,-235.2 10,-257.2 181,-257.2 181,-235.2 10,-235.2"/>
<text text-anchor="start" x="30" y="-242.3" font-family="Helvetica,sans-Serif" font-size="11.00" fill="#000000">deployment_id_</text>
<polygon fill="none" stroke="#000000" points="181,-235.2 181,-257.2 254,-257.2 254,-235.2 181,-235.2"/>
<text text-anchor="start" x="184" y="-242.9" font-family="Helvetica,sans-Serif" font-size="11.00" fill="#000000">varchar[64]</text>
<polygon fill="none" stroke="#000000" points="10,-213.2 10,-235.2 181,-235.2 181,-213.2 10,-213.2"/>
<text text-anchor="start" x="30" y="-220.3" font-family="Helvetica,sans-Serif" font-size="11.00" fill="#000000">resource_name_</text>
<polygon fill="none" stroke="#000000" points="181,-213.2 181,-235.2 254,-235.2 254,-213.2 181,-213.2"/>
<text text-anchor="start" x="183.8791" y="-220.9" font-family="Helvetica,sans-Serif" font-size="11.00" fill="#000000">varchar[4000]</text>
<polygon fill="none" stroke="#000000" points="10,-191.2 10,-213.2 181,-213.2 181,-191.2 10,-191.2"/>
<text text-anchor="start" x="30" y="-198.3" font-family="Helvetica,sans-Serif" font-size="11.00" fill="#000000">dgrm_resource_name_</text>
<polygon fill="none" stroke="#000000" points="181,-191.2 181,-213.2 254,-213.2 254,-191.2 181,-191.2"/>
<text text-anchor="start" x="183.8791" y="-198.9" font-family="Helvetica,sans-Serif" font-size="11.00" fill="#000000">varchar[4000]</text>
<polygon fill="none" stroke="#000000" points="10,-169.2 10,-191.2 181,-191.2 181,-169.2 10,-169.2"/>
<text text-anchor="start" x="30" y="-176.3" font-family="Helvetica,sans-Serif" font-size="11.00" fill="#000000">has_start_form_key_</text>
<polygon fill="none" stroke="#000000" points="181,-169.2 181,-191.2 254,-191.2 254,-169.2 181,-169.2"/>
<text text-anchor="start" x="184" y="-176.9" font-family="Helvetica,sans-Serif" font-size="11.00" fill="#000000">bool[1]</text>
<polygon fill="none" stroke="#000000" points="10,-147.2 10,-169.2 181,-169.2 181,-147.2 10,-147.2"/>
<text text-anchor="start" x="30" y="-154.3" font-family="Helvetica,sans-Serif" font-size="11.00" fill="#000000">suspension_state_</text>
<polygon fill="none" stroke="#000000" points="181,-147.2 181,-169.2 254,-169.2 254,-147.2 181,-147.2"/>
<text text-anchor="start" x="184" y="-154.9" font-family="Helvetica,sans-Serif" font-size="11.00" fill="#000000">int4[10]</text>
<polygon fill="#ffffff" stroke="transparent" points="10,-125.2 10,-147.2 181,-147.2 181,-125.2 10,-125.2"/>
<polygon fill="none" stroke="#000000" points="10,-125.2 10,-147.2 181,-147.2 181,-125.2 10,-125.2"/>
<text text-anchor="start" x="30" y="-132.3" font-family="Helvetica,sans-Serif" font-size="11.00" fill="#000000">tenant_id_</text>
<polygon fill="none" stroke="#000000" points="181,-125.2 181,-147.2 254,-147.2 254,-125.2 181,-125.2"/>
<text text-anchor="start" x="184" y="-132.9" font-family="Helvetica,sans-Serif" font-size="11.00" fill="#000000">varchar[64]</text>
<polygon fill="#ffffff" stroke="transparent" points="10,-103.2 10,-125.2 181,-125.2 181,-103.2 10,-103.2"/>
<polygon fill="none" stroke="#000000" points="10,-103.2 10,-125.2 181,-125.2 181,-103.2 10,-103.2"/>
<text text-anchor="start" x="30" y="-110.3" font-family="Helvetica,sans-Serif" font-size="11.00" fill="#000000">version_tag_</text>
<polygon fill="none" stroke="#000000" points="181,-103.2 181,-125.2 254,-125.2 254,-103.2 181,-103.2"/>
<text text-anchor="start" x="184" y="-110.9" font-family="Helvetica,sans-Serif" font-size="11.00" fill="#000000">varchar[64]</text>
<polygon fill="none" stroke="#000000" points="10,-81.2 10,-103.2 181,-103.2 181,-81.2 10,-81.2"/>
<text text-anchor="start" x="30" y="-88.3" font-family="Helvetica,sans-Serif" font-size="11.00" fill="#000000">history_ttl_</text>
<polygon fill="none" stroke="#000000" points="181,-81.2 181,-103.2 254,-103.2 254,-81.2 181,-81.2"/>
<text text-anchor="start" x="184" y="-88.9" font-family="Helvetica,sans-Serif" font-size="11.00" fill="#000000">int4[10]</text>
<polygon fill="none" stroke="#000000" points="10,-59.2 10,-81.2 181,-81.2 181,-59.2 10,-59.2"/>
<text text-anchor="start" x="30" y="-66.3" font-family="Helvetica,sans-Serif" font-size="11.00" fill="#000000">startable_</text>
<polygon fill="none" stroke="#000000" points="181,-59.2 181,-81.2 254,-81.2 254,-59.2 181,-59.2"/>
<text text-anchor="start" x="184" y="-66.9" font-family="Helvetica,sans-Serif" font-size="11.00" fill="#000000">bool[1]</text>
<polygon fill="#ffffff" stroke="transparent" points="10,-40.2 10,-59.2 100,-59.2 100,-40.2 10,-40.2"/>
<polygon fill="none" stroke="#000000" points="10,-40.2 10,-59.2 100,-59.2 100,-40.2 10,-40.2"/>
<text text-anchor="start" x="13" y="-46.3" font-family="Helvetica,sans-Serif" font-size="11.00" fill="#000000">&lt; 0</text>
<polygon fill="#ffffff" stroke="transparent" points="100,-40.2 100,-59.2 181,-59.2 181,-40.2 100,-40.2"/>
<polygon fill="none" stroke="#000000" points="100,-40.2 100,-59.2 181,-59.2 181,-40.2 100,-40.2"/>
<text text-anchor="start" x="171.8862" y="-46.3" font-family="Helvetica,sans-Serif" font-size="11.00" fill="#000000"> &#160;</text>
<polygon fill="#ffffff" stroke="transparent" points="181,-40.2 181,-59.2 254,-59.2 254,-40.2 181,-40.2"/>
<polygon fill="none" stroke="#000000" points="181,-40.2 181,-59.2 254,-59.2 254,-40.2 181,-40.2"/>
<text text-anchor="start" x="235.4053" y="-46.3" font-family="Helvetica,sans-Serif" font-size="11.00" fill="#000000">4 &gt;</text>
<polygon fill="none" stroke="#000000" stroke-width="2" points="9,-39.2 9,-413.2 255,-413.2 255,-39.2 9,-39.2"/>
</a>
</g>
</g>
<!-- act_ru_execution&#45;&gt;act_re_procdef -->
<g id="edge3" class="edge">
<title>act_ru_execution:w&#45;&gt;act_re_procdef:e</title>
<path fill="none" stroke="#000000" d="M300.5454,-379.569C284.9814,-378.74 269.0624,-378.2 254,-378.2"/>
<polygon fill="#000000" stroke="#000000" points="307.3333,-379.9711 315.1064,-384.0379 311.3263,-380.2076 315.3193,-380.4442 315.3193,-380.4442 315.3193,-380.4442 311.3263,-380.2076 315.5322,-376.8505 307.3333,-379.9711 307.3333,-379.9711"/>
<ellipse fill="none" stroke="#000000" cx="304.1389" cy="-379.7818" rx="3.2" ry="3.2"/>
</g>
<!-- act_ru_ext_task -->
<g id="node6" class="node">
<title>act_ru_ext_task</title>
<g id="a_node6"><a xlink:href="../../tables/act_ru_ext_task.html" xlink:title="act_ru_ext_task" target="_top">
<polygon fill="#ffffff" stroke="transparent" points="559.5,-278.7 559.5,-339.7 701.5,-339.7 701.5,-278.7 559.5,-278.7"/>
<polygon fill="#f5f5f5" stroke="transparent" points="559.5,-316.2 559.5,-339.2 701.5,-339.2 701.5,-316.2 559.5,-316.2"/>
<polygon fill="none" stroke="#000000" points="559.5,-316.2 559.5,-339.2 701.5,-339.2 701.5,-316.2 559.5,-316.2"/>
<text text-anchor="start" x="564.5" y="-324.8" font-family="Helvetica,sans-Serif" font-weight="bold" font-size="11.00" fill="#000000">act_ru_ext_task</text>
<text text-anchor="start" x="667.0219" y="-324.3" font-family="Helvetica,sans-Serif" font-size="11.00" fill="#000000">[table]</text>
<polygon fill="none" stroke="#000000" points="559.5,-297.2 559.5,-316.2 701.5,-316.2 701.5,-297.2 559.5,-297.2"/>
<text text-anchor="start" x="562.5" y="-303.3" font-family="Helvetica,sans-Serif" font-size="11.00" fill="#000000">...</text>
<polygon fill="#ffffff" stroke="transparent" points="559.5,-278.2 559.5,-297.2 628.5,-297.2 628.5,-278.2 559.5,-278.2"/>
<polygon fill="none" stroke="#000000" points="559.5,-278.2 559.5,-297.2 628.5,-297.2 628.5,-278.2 559.5,-278.2"/>
<text text-anchor="start" x="562.5" y="-284.3" font-family="Helvetica,sans-Serif" font-size="11.00" fill="#000000">&lt; 2</text>
<polygon fill="#ffffff" stroke="transparent" points="628.5,-278.2 628.5,-297.2 664.5,-297.2 664.5,-278.2 628.5,-278.2"/>
<polygon fill="none" stroke="#000000" points="628.5,-278.2 628.5,-297.2 664.5,-297.2 664.5,-278.2 628.5,-278.2"/>
<text text-anchor="start" x="655.3862" y="-284.3" font-family="Helvetica,sans-Serif" font-size="11.00" fill="#000000"> &#160;</text>
<polygon fill="#ffffff" stroke="transparent" points="664.5,-278.2 664.5,-297.2 701.5,-297.2 701.5,-278.2 664.5,-278.2"/>
<polygon fill="none" stroke="#000000" points="664.5,-278.2 664.5,-297.2 701.5,-297.2 701.5,-278.2 664.5,-278.2"/>
<text text-anchor="start" x="692.3862" y="-284.3" font-family="Helvetica,sans-Serif" font-size="11.00" fill="#000000"> &#160;</text>
</a>
</g>
</g>
<!-- act_ru_ext_task&#45;&gt;act_ru_execution -->
<g id="edge4" class="edge">
<title>act_ru_ext_task:w&#45;&gt;act_ru_execution:e</title>
<path fill="none" stroke="#000000" d="M545.0716,-308.5619C520.6372,-315.3098 484.0288,-335.3666 453.6375,-353.6623"/>
<polygon fill="#000000" stroke="#000000" points="551.6051,-307.4924 560.0816,-309.7527 555.5525,-306.8462 559.5,-306.2 559.5,-306.2 559.5,-306.2 555.5525,-306.8462 558.9184,-302.6473 551.6051,-307.4924 551.6051,-307.4924"/>
<ellipse fill="none" stroke="#000000" cx="548.4471" cy="-308.0094" rx="3.2" ry="3.2"/>
</g>
<!-- act_ru_identitylink -->
<g id="node7" class="node">
<title>act_ru_identitylink</title>
<g id="a_node7"><a xlink:href="../../tables/act_ru_identitylink.html" xlink:title="act_ru_identitylink" target="_top">
<polygon fill="#ffffff" stroke="transparent" points="767,-291.7 767,-352.7 930,-352.7 930,-291.7 767,-291.7"/>
<polygon fill="#f5f5f5" stroke="transparent" points="767.5,-329.2 767.5,-352.2 930.5,-352.2 930.5,-329.2 767.5,-329.2"/>
<polygon fill="none" stroke="#000000" points="767.5,-329.2 767.5,-352.2 930.5,-352.2 930.5,-329.2 767.5,-329.2"/>
<text text-anchor="start" x="772.5" y="-337.8" font-family="Helvetica,sans-Serif" font-weight="bold" font-size="11.00" fill="#000000">act_ru_identitylink</text>
<text text-anchor="start" x="896.0219" y="-337.3" font-family="Helvetica,sans-Serif" font-size="11.00" fill="#000000">[table]</text>
<polygon fill="none" stroke="#000000" points="767.5,-310.2 767.5,-329.2 930.5,-329.2 930.5,-310.2 767.5,-310.2"/>
<text text-anchor="start" x="770.5" y="-316.3" font-family="Helvetica,sans-Serif" font-size="11.00" fill="#000000">...</text>
<polygon fill="#ffffff" stroke="transparent" points="767.5,-291.2 767.5,-310.2 847.5,-310.2 847.5,-291.2 767.5,-291.2"/>
<polygon fill="none" stroke="#000000" points="767.5,-291.2 767.5,-310.2 847.5,-310.2 847.5,-291.2 767.5,-291.2"/>
<text text-anchor="start" x="770.5" y="-297.3" font-family="Helvetica,sans-Serif" font-size="11.00" fill="#000000">&lt; 2</text>
<polygon fill="#ffffff" stroke="transparent" points="847.5,-291.2 847.5,-310.2 888.5,-310.2 888.5,-291.2 847.5,-291.2"/>
<polygon fill="none" stroke="#000000" points="847.5,-291.2 847.5,-310.2 888.5,-310.2 888.5,-291.2 847.5,-291.2"/>
<text text-anchor="start" x="879.3862" y="-297.3" font-family="Helvetica,sans-Serif" font-size="11.00" fill="#000000"> &#160;</text>
<polygon fill="#ffffff" stroke="transparent" points="888.5,-291.2 888.5,-310.2 930.5,-310.2 930.5,-291.2 888.5,-291.2"/>
<polygon fill="none" stroke="#000000" points="888.5,-291.2 888.5,-310.2 930.5,-310.2 930.5,-291.2 888.5,-291.2"/>
<text text-anchor="start" x="921.3862" y="-297.3" font-family="Helvetica,sans-Serif" font-size="11.00" fill="#000000"> &#160;</text>
</a>
</g>
</g>
<!-- act_ru_identitylink&#45;&gt;act_re_procdef -->
<g id="edge5" class="edge">
<title>act_ru_identitylink:w&#45;&gt;act_re_procdef:e</title>
<path fill="none" stroke="#000000" d="M821.2428,-275.425C799.8484,-243.7199 766.8782,-204.3957 726,-186.2 698.4465,-173.9354 309.6345,-178.9862 297,-189.2 230.0065,-243.3582 340.1466,-378.2 254,-378.2"/>
<polygon fill="#000000" stroke="#000000" points="824.783,-280.8729 826.1235,-289.5425 826.9626,-284.2269 829.1421,-287.5809 829.1421,-287.5809 829.1421,-287.5809 826.9626,-284.2269 832.1608,-285.6193 824.783,-280.8729 824.783,-280.8729"/>
<ellipse fill="none" stroke="#000000" cx="823.0393" cy="-278.1896" rx="3.2" ry="3.2"/>
</g>
<!-- act_ru_task -->
<g id="node8" class="node">
<title>act_ru_task</title>
<g id="a_node8"><a xlink:href="../../tables/act_ru_task.html" xlink:title="act_ru_task" target="_top">
<polygon fill="#ffffff" stroke="transparent" points="573,-442.7 573,-503.7 688,-503.7 688,-442.7 573,-442.7"/>
<polygon fill="#f5f5f5" stroke="transparent" points="573.5,-480.2 573.5,-503.2 688.5,-503.2 688.5,-480.2 573.5,-480.2"/>
<polygon fill="none" stroke="#000000" points="573.5,-480.2 573.5,-503.2 688.5,-503.2 688.5,-480.2 573.5,-480.2"/>
<text text-anchor="start" x="578.5" y="-488.8" font-family="Helvetica,sans-Serif" font-weight="bold" font-size="11.00" fill="#000000">act_ru_task</text>
<text text-anchor="start" x="654.0219" y="-488.3" font-family="Helvetica,sans-Serif" font-size="11.00" fill="#000000">[table]</text>
<polygon fill="none" stroke="#000000" points="573.5,-461.2 573.5,-480.2 688.5,-480.2 688.5,-461.2 573.5,-461.2"/>
<text text-anchor="start" x="576.5" y="-467.3" font-family="Helvetica,sans-Serif" font-size="11.00" fill="#000000">...</text>
<polygon fill="#ffffff" stroke="transparent" points="573.5,-442.2 573.5,-461.2 624.5,-461.2 624.5,-442.2 573.5,-442.2"/>
<polygon fill="none" stroke="#000000" points="573.5,-442.2 573.5,-461.2 624.5,-461.2 624.5,-442.2 573.5,-442.2"/>
<text text-anchor="start" x="576.5" y="-448.3" font-family="Helvetica,sans-Serif" font-size="11.00" fill="#000000">&lt; 5</text>
<polygon fill="#ffffff" stroke="transparent" points="624.5,-442.2 624.5,-461.2 651.5,-461.2 651.5,-442.2 624.5,-442.2"/>
<polygon fill="none" stroke="#000000" points="624.5,-442.2 624.5,-461.2 651.5,-461.2 651.5,-442.2 624.5,-442.2"/>
<text text-anchor="start" x="642.3862" y="-448.3" font-family="Helvetica,sans-Serif" font-size="11.00" fill="#000000"> &#160;</text>
<polygon fill="#ffffff" stroke="transparent" points="651.5,-442.2 651.5,-461.2 688.5,-461.2 688.5,-442.2 651.5,-442.2"/>
<polygon fill="none" stroke="#000000" points="651.5,-442.2 651.5,-461.2 688.5,-461.2 688.5,-442.2 651.5,-442.2"/>
<text text-anchor="start" x="669.9053" y="-448.3" font-family="Helvetica,sans-Serif" font-size="11.00" fill="#000000">1 &gt;</text>
</a>
</g>
</g>
<!-- act_ru_identitylink&#45;&gt;act_ru_task -->
<g id="edge6" class="edge">
<title>act_ru_identitylink:w&#45;&gt;act_ru_task:e</title>
<path fill="none" stroke="#000000" d="M805.6807,-367.009C783.3641,-388.6374 754.7712,-413.8151 726,-432.2 716.7254,-438.1265 706.4485,-443.5565 696.1735,-448.3902"/>
<polygon fill="#000000" stroke="#000000" points="810.411,-362.3411 818.6339,-359.2843 813.2581,-359.5315 816.1053,-356.7219 816.1053,-356.7219 816.1053,-356.7219 813.2581,-359.5315 813.5766,-354.1594 810.411,-362.3411 810.411,-362.3411"/>
<ellipse fill="none" stroke="#000000" cx="808.1333" cy="-364.5888" rx="3.2" ry="3.2"/>
</g>
<!-- act_ru_task&#45;&gt;act_ru_case_execution -->
<g id="edge12" class="edge">
<title>act_ru_task:w&#45;&gt;act_ru_case_execution:e</title>
<path fill="none" stroke="#000000" d="M551.4807,-505.39C545.8277,-508.2195 540.28,-511.1661 535,-514.2 515.5776,-525.3602 516.9004,-544.2 494.5,-544.2"/>
<polygon fill="#000000" stroke="#000000" points="557.5713,-502.4714 566.3415,-502.2607 561.1786,-500.7428 564.7858,-499.0142 564.7858,-499.0142 564.7858,-499.0142 561.1786,-500.7428 563.23,-495.7677 557.5713,-502.4714 557.5713,-502.4714"/>
<ellipse fill="none" stroke="#000000" cx="554.6856" cy="-503.8543" rx="3.2" ry="3.2"/>
</g>
<!-- act_ru_task&#45;&gt;act_re_case_def -->
<g id="edge11" class="edge">
<title>act_ru_task:w&#45;&gt;act_re_case_def:e</title>
<path fill="none" stroke="#000000" d="M550.2704,-481.917C464.6265,-490.4578 324.8965,-502.2 204,-502.2"/>
<polygon fill="#000000" stroke="#000000" points="556.8772,-481.2485 565.199,-484.0248 560.8568,-480.8458 564.8365,-480.4431 564.8365,-480.4431 564.8365,-480.4431 560.8568,-480.8458 564.4741,-476.8614 556.8772,-481.2485 556.8772,-481.2485"/>
<ellipse fill="none" stroke="#000000" cx="553.6934" cy="-481.5707" rx="3.2" ry="3.2"/>
</g>
<!-- act_ru_task&#45;&gt;act_ru_execution -->
<g id="edge13" class="edge">
<title>act_ru_task:w&#45;&gt;act_ru_execution:e</title>
<path fill="none" stroke="#000000" d="M551.2984,-439.7602C529.5427,-431.503 505.8743,-422.7756 483.8411,-414.8834"/>
<polygon fill="#000000" stroke="#000000" points="557.4496,-442.1107 563.6375,-448.3292 561.1861,-443.5385 564.9226,-444.9664 564.9226,-444.9664 564.9226,-444.9664 561.1861,-443.5385 566.2076,-441.6035 557.4496,-442.1107 557.4496,-442.1107"/>
<ellipse fill="none" stroke="#000000" cx="554.4604" cy="-440.9684" rx="3.2" ry="3.2"/>
</g>
<!-- act_ru_task&#45;&gt;act_ru_execution -->
<g id="edge15" class="edge">
<title>act_ru_task:w&#45;&gt;act_ru_execution:e</title>
<path fill="none" stroke="#000000" d="M551.2133,-449.0388C528.0841,-440.8396 502.7993,-431.5393 479.619,-422.7057"/>
<polygon fill="#000000" stroke="#000000" points="557.3751,-451.2044 563.7289,-457.2534 561.1488,-452.5307 564.9226,-453.8571 564.9226,-453.8571 564.9226,-453.8571 561.1488,-452.5307 566.1163,-450.4607 557.3751,-451.2044 557.3751,-451.2044"/>
<ellipse fill="none" stroke="#000000" cx="554.3562" cy="-450.1434" rx="3.2" ry="3.2"/>
</g>
<!-- act_ru_task&#45;&gt;act_re_procdef -->
<g id="edge14" class="edge">
<title>act_ru_task:w&#45;&gt;act_re_procdef:e</title>
<path fill="none" stroke="#000000" d="M550.1995,-478.3933C479.3465,-479.4451 375.4396,-472.1269 297,-429.2 270.9918,-414.9667 283.6481,-378.2 254,-378.2"/>
<polygon fill="#000000" stroke="#000000" points="556.7982,-478.2389 564.8803,-481.6507 560.7971,-478.1453 564.796,-478.0517 564.796,-478.0517 564.796,-478.0517 560.7971,-478.1453 564.7118,-474.4526 556.7982,-478.2389 556.7982,-478.2389"/>
<ellipse fill="none" stroke="#000000" cx="553.5991" cy="-478.3138" rx="3.2" ry="3.2"/>
</g>
<!-- act_ru_incident -->
<g id="node9" class="node">
<title>act_ru_incident</title>
<g id="a_node9"><a xlink:href="../../tables/act_ru_incident.html" xlink:title="act_ru_incident" target="_top">
<polygon fill="#ffffff" stroke="transparent" points="560,-196.7 560,-257.7 701,-257.7 701,-196.7 560,-196.7"/>
<polygon fill="#f5f5f5" stroke="transparent" points="560.5,-234.2 560.5,-257.2 701.5,-257.2 701.5,-234.2 560.5,-234.2"/>
<polygon fill="none" stroke="#000000" points="560.5,-234.2 560.5,-257.2 701.5,-257.2 701.5,-234.2 560.5,-234.2"/>
<text text-anchor="start" x="565.5" y="-242.8" font-family="Helvetica,sans-Serif" font-weight="bold" font-size="11.00" fill="#000000">act_ru_incident</text>
<text text-anchor="start" x="667.0219" y="-242.3" font-family="Helvetica,sans-Serif" font-size="11.00" fill="#000000">[table]</text>
<polygon fill="none" stroke="#000000" points="560.5,-215.2 560.5,-234.2 701.5,-234.2 701.5,-215.2 560.5,-215.2"/>
<text text-anchor="start" x="563.5" y="-221.3" font-family="Helvetica,sans-Serif" font-size="11.00" fill="#000000">...</text>
<polygon fill="#ffffff" stroke="transparent" points="560.5,-196.2 560.5,-215.2 624.5,-215.2 624.5,-196.2 560.5,-196.2"/>
<polygon fill="none" stroke="#000000" points="560.5,-196.2 560.5,-215.2 624.5,-215.2 624.5,-196.2 560.5,-196.2"/>
<text text-anchor="start" x="563.5" y="-202.3" font-family="Helvetica,sans-Serif" font-size="11.00" fill="#000000">&lt; 6</text>
<polygon fill="#ffffff" stroke="transparent" points="624.5,-196.2 624.5,-215.2 658.5,-215.2 658.5,-196.2 624.5,-196.2"/>
<polygon fill="none" stroke="#000000" points="624.5,-196.2 624.5,-215.2 658.5,-215.2 658.5,-196.2 624.5,-196.2"/>
<text text-anchor="start" x="649.3862" y="-202.3" font-family="Helvetica,sans-Serif" font-size="11.00" fill="#000000"> &#160;</text>
<polygon fill="#ffffff" stroke="transparent" points="658.5,-196.2 658.5,-215.2 701.5,-215.2 701.5,-196.2 658.5,-196.2"/>
<polygon fill="none" stroke="#000000" points="658.5,-196.2 658.5,-215.2 701.5,-215.2 701.5,-196.2 658.5,-196.2"/>
<text text-anchor="start" x="682.9053" y="-202.3" font-family="Helvetica,sans-Serif" font-size="11.00" fill="#000000">2 &gt;</text>
</a>
</g>
</g>
<!-- act_ru_incident&#45;&gt;act_ru_execution -->
<g id="edge7" class="edge">
<title>act_ru_incident:w&#45;&gt;act_ru_execution:e</title>
<path fill="none" stroke="#000000" d="M539.4223,-258.6589C537.9109,-259.8086 536.4349,-260.989 535,-262.2 514.3684,-279.6133 520.916,-293.9368 502,-313.2 487.1204,-328.3528 468.4202,-342.1049 451.0797,-353.6205"/>
<polygon fill="#000000" stroke="#000000" points="544.9757,-254.9149 553.6214,-253.4277 548.2923,-252.6788 551.6089,-250.4427 551.6089,-250.4427 551.6089,-250.4427 548.2923,-252.6788 549.5964,-247.4577 544.9757,-254.9149 544.9757,-254.9149"/>
<ellipse fill="none" stroke="#000000" cx="542.3224" cy="-256.7037" rx="3.2" ry="3.2"/>
</g>
<!-- act_ru_incident&#45;&gt;act_ru_execution -->
<g id="edge10" class="edge">
<title>act_ru_incident:w&#45;&gt;act_ru_execution:e</title>
<path fill="none" stroke="#000000" d="M541.778,-269.9089C539.4376,-271.6045 537.1717,-273.3671 535,-275.2 514.3684,-292.6133 520.916,-306.9368 502,-326.2 492.3057,-336.0723 480.9897,-345.35 469.4845,-353.5941"/>
<polygon fill="#000000" stroke="#000000" points="547.2973,-266.328 555.968,-264.9938 550.653,-264.1509 554.0086,-261.9738 554.0086,-261.9738 554.0086,-261.9738 550.653,-264.1509 552.0492,-258.9537 547.2973,-266.328 547.2973,-266.328"/>
<ellipse fill="none" stroke="#000000" cx="544.6128" cy="-268.0697" rx="3.2" ry="3.2"/>
</g>
<!-- act_ru_incident&#45;&gt;act_re_procdef -->
<g id="edge9" class="edge">
<title>act_ru_incident:w&#45;&gt;act_re_procdef:e</title>
<path fill="none" stroke="#000000" d="M538.2374,-258.9164C447.3924,-290.384 319.103,-335.5517 297,-347.2 276.1575,-358.1841 277.5597,-378.2 254,-378.2"/>
<polygon fill="#000000" stroke="#000000" points="544.3522,-256.8007 553.0896,-257.587 548.1324,-255.4928 551.9125,-254.1849 551.9125,-254.1849 551.9125,-254.1849 548.1324,-255.4928 550.7354,-250.7828 544.3522,-256.8007 544.3522,-256.8007"/>
<ellipse fill="none" stroke="#000000" cx="541.3281" cy="-257.8471" rx="3.2" ry="3.2"/>
</g>
<!-- act_ru_jobdef -->
<g id="node10" class="node">
<title>act_ru_jobdef</title>
<g id="a_node10"><a xlink:href="../../tables/act_ru_jobdef.html" xlink:title="act_ru_jobdef" target="_top">
<polygon fill="#ffffff" stroke="transparent" points="335,-199.7 335,-260.7 464,-260.7 464,-199.7 335,-199.7"/>
<polygon fill="#f5f5f5" stroke="transparent" points="335.5,-237.2 335.5,-260.2 464.5,-260.2 464.5,-237.2 335.5,-237.2"/>
<polygon fill="none" stroke="#000000" points="335.5,-237.2 335.5,-260.2 464.5,-260.2 464.5,-237.2 335.5,-237.2"/>
<text text-anchor="start" x="340.5" y="-245.8" font-family="Helvetica,sans-Serif" font-weight="bold" font-size="11.00" fill="#000000">act_ru_jobdef</text>
<text text-anchor="start" x="430.0219" y="-245.3" font-family="Helvetica,sans-Serif" font-size="11.00" fill="#000000">[table]</text>
<polygon fill="none" stroke="#000000" points="335.5,-218.2 335.5,-237.2 464.5,-237.2 464.5,-218.2 335.5,-218.2"/>
<text text-anchor="start" x="338.5" y="-224.3" font-family="Helvetica,sans-Serif" font-size="11.00" fill="#000000">...</text>
<polygon fill="#ffffff" stroke="transparent" points="335.5,-199.2 335.5,-218.2 389.5,-218.2 389.5,-199.2 335.5,-199.2"/>
<polygon fill="none" stroke="#000000" points="335.5,-199.2 335.5,-218.2 389.5,-218.2 389.5,-199.2 335.5,-199.2"/>
<text text-anchor="start" x="338.5" y="-205.3" font-family="Helvetica,sans-Serif" font-size="11.00" fill="#000000"> &#160;</text>
<polygon fill="#ffffff" stroke="transparent" points="389.5,-199.2 389.5,-218.2 422.5,-218.2 422.5,-199.2 389.5,-199.2"/>
<polygon fill="none" stroke="#000000" points="389.5,-199.2 389.5,-218.2 422.5,-218.2 422.5,-199.2 389.5,-199.2"/>
<text text-anchor="start" x="413.3862" y="-205.3" font-family="Helvetica,sans-Serif" font-size="11.00" fill="#000000"> &#160;</text>
<polygon fill="#ffffff" stroke="transparent" points="422.5,-199.2 422.5,-218.2 464.5,-218.2 464.5,-199.2 422.5,-199.2"/>
<polygon fill="none" stroke="#000000" points="422.5,-199.2 422.5,-218.2 464.5,-218.2 464.5,-199.2 422.5,-199.2"/>
<text text-anchor="start" x="445.9053" y="-205.3" font-family="Helvetica,sans-Serif" font-size="11.00" fill="#000000">4 &gt;</text>
</a>
</g>
</g>
<!-- act_ru_incident&#45;&gt;act_ru_jobdef -->
<g id="edge8" class="edge">
<title>act_ru_incident:w&#45;&gt;act_ru_jobdef:e</title>
<path fill="none" stroke="#000000" d="M537.4225,-227.2C513.6466,-227.2 488.1274,-227.2 464.5,-227.2"/>
<polygon fill="#000000" stroke="#000000" points="543.9686,-227.2001 551.9686,-230.8 547.9686,-227.2 551.9686,-227.2 551.9686,-227.2 551.9686,-227.2 547.9686,-227.2 551.9686,-223.6 543.9686,-227.2001 543.9686,-227.2001"/>
<ellipse fill="none" stroke="#000000" cx="540.7686" cy="-227.2001" rx="3.2" ry="3.2"/>
</g>
<!-- act_ru_variable -->
<g id="node11" class="node">
<title>act_ru_variable</title>
<g id="a_node11"><a xlink:href="../../tables/act_ru_variable.html" xlink:title="act_ru_variable" target="_top">
<polygon fill="#ffffff" stroke="transparent" points="560,-524.7 560,-585.7 701,-585.7 701,-524.7 560,-524.7"/>
<polygon fill="#f5f5f5" stroke="transparent" points="560.5,-562.2 560.5,-585.2 701.5,-585.2 701.5,-562.2 560.5,-562.2"/>
<polygon fill="none" stroke="#000000" points="560.5,-562.2 560.5,-585.2 701.5,-585.2 701.5,-562.2 560.5,-562.2"/>
<text text-anchor="start" x="565.5" y="-570.8" font-family="Helvetica,sans-Serif" font-weight="bold" font-size="11.00" fill="#000000">act_ru_variable</text>
<text text-anchor="start" x="667.0219" y="-570.3" font-family="Helvetica,sans-Serif" font-size="11.00" fill="#000000">[table]</text>
<polygon fill="none" stroke="#000000" points="560.5,-543.2 560.5,-562.2 701.5,-562.2 701.5,-543.2 560.5,-543.2"/>
<text text-anchor="start" x="563.5" y="-549.3" font-family="Helvetica,sans-Serif" font-size="11.00" fill="#000000">...</text>
<polygon fill="#ffffff" stroke="transparent" points="560.5,-524.2 560.5,-543.2 629.5,-543.2 629.5,-524.2 560.5,-524.2"/>
<polygon fill="none" stroke="#000000" points="560.5,-524.2 560.5,-543.2 629.5,-543.2 629.5,-524.2 560.5,-524.2"/>
<text text-anchor="start" x="563.5" y="-530.3" font-family="Helvetica,sans-Serif" font-size="11.00" fill="#000000">&lt; 6</text>
<polygon fill="#ffffff" stroke="transparent" points="629.5,-524.2 629.5,-543.2 665.5,-543.2 665.5,-524.2 629.5,-524.2"/>
<polygon fill="none" stroke="#000000" points="629.5,-524.2 629.5,-543.2 665.5,-543.2 665.5,-524.2 629.5,-524.2"/>
<text text-anchor="start" x="656.3862" y="-530.3" font-family="Helvetica,sans-Serif" font-size="11.00" fill="#000000"> &#160;</text>
<polygon fill="#ffffff" stroke="transparent" points="665.5,-524.2 665.5,-543.2 701.5,-543.2 701.5,-524.2 665.5,-524.2"/>
<polygon fill="none" stroke="#000000" points="665.5,-524.2 665.5,-543.2 701.5,-543.2 701.5,-524.2 665.5,-524.2"/>
<text text-anchor="start" x="692.3862" y="-530.3" font-family="Helvetica,sans-Serif" font-size="11.00" fill="#000000"> &#160;</text>
</a>
</g>
</g>
<!-- act_ru_variable&#45;&gt;act_ru_case_execution -->
<g id="edge16" class="edge">
<title>act_ru_variable:w&#45;&gt;act_ru_case_execution:e</title>
<path fill="none" stroke="#000000" d="M546.235,-548.7921C527.6537,-543.7344 518.6232,-539.3016 494.5,-544.2"/>
<polygon fill="#000000" stroke="#000000" points="552.719,-550.3411 559.6635,-555.7015 556.6095,-551.2705 560.5,-552.2 560.5,-552.2 560.5,-552.2 556.6095,-551.2705 561.3365,-548.6985 552.719,-550.3411 552.719,-550.3411"/>
<ellipse fill="none" stroke="#000000" cx="549.6065" cy="-549.5975" rx="3.2" ry="3.2"/>
</g>
<!-- act_ru_variable&#45;&gt;act_ru_case_execution -->
<g id="edge17" class="edge">
<title>act_ru_variable:w&#45;&gt;act_ru_case_execution:e</title>
<path fill="none" stroke="#000000" d="M546.235,-554.6377C527.6537,-556.2962 518.6232,-549.9148 494.5,-544.2"/>
<polygon fill="#000000" stroke="#000000" points="552.6143,-553.5476 561.1064,-555.7486 556.5572,-552.8738 560.5,-552.2 560.5,-552.2 560.5,-552.2 556.5572,-552.8738 559.8936,-548.6514 552.6143,-553.5476 552.6143,-553.5476"/>
<ellipse fill="none" stroke="#000000" cx="549.46" cy="-554.0866" rx="3.2" ry="3.2"/>
</g>
<!-- act_ru_variable&#45;&gt;act_ru_execution -->
<g id="edge18" class="edge">
<title>act_ru_variable:w&#45;&gt;act_ru_execution:e</title>
<path fill="none" stroke="#000000" d="M548.0612,-544.646C521.0354,-523.2176 466.9717,-462.0152 432.0544,-422.7704"/>
<polygon fill="#000000" stroke="#000000" points="553.6621,-548.0474 558.6313,-555.277 557.0811,-550.1237 560.5,-552.2 560.5,-552.2 560.5,-552.2 557.0811,-550.1237 562.3687,-549.123 553.6621,-548.0474 553.6621,-548.0474"/>
<ellipse fill="none" stroke="#000000" cx="550.927" cy="-546.3864" rx="3.2" ry="3.2"/>
</g>
<!-- act_ru_variable&#45;&gt;act_ru_execution -->
<g id="edge19" class="edge">
<title>act_ru_variable:w&#45;&gt;act_ru_execution:e</title>
<path fill="none" stroke="#000000" d="M546.7332,-547.7479C517.3964,-529.8017 458.9584,-464.2104 425.1957,-422.8534"/>
<polygon fill="#000000" stroke="#000000" points="552.8881,-549.7383 559.3922,-555.6253 556.6941,-550.9692 560.5,-552.2 560.5,-552.2 560.5,-552.2 556.6941,-550.9692 561.6078,-548.7747 552.8881,-549.7383 552.8881,-549.7383"/>
<ellipse fill="none" stroke="#000000" cx="549.8434" cy="-548.7537" rx="3.2" ry="3.2"/>
</g>
</g>
</svg>
