<?xml version="1.0" encoding="UTF-8" standalone="no"?>
<!DOCTYPE svg PUBLIC "-//W3C//DTD SVG 1.1//EN"
 "http://www.w3.org/Graphics/SVG/1.1/DTD/svg11.dtd">
<!-- Generated by graphviz version 2.40.1 (20161225.0304)
 -->
<!-- Title: oneDegreeRelationshipsDiagram Pages: 1 -->
<svg width="317pt" height="360pt"
 viewBox="0.00 0.00 317.00 360.20" xmlns="http://www.w3.org/2000/svg" xmlns:xlink="http://www.w3.org/1999/xlink">
<g id="graph0" class="graph" transform="scale(1 1) rotate(0) translate(4 356.2)">
<title>oneDegreeRelationshipsDiagram</title>
<polygon fill="#ffffff" stroke="transparent" points="-4,4 -4,-356.2 313,-356.2 313,4 -4,4"/>
<text text-anchor="middle" x="72.4936" y="-7.3" font-family="Helvetica,sans-Serif" font-size="11.00" fill="#000000">Generated by SchemaSpy</text>
<!-- act_hi_caseinst -->
<g id="node1" class="node">
<title>act_hi_caseinst</title>
<g id="a_node1"><a xlink:href="../../tables/act_hi_caseinst.html" xlink:title="act_hi_caseinst" target="_top">
<polygon fill="#ffffff" stroke="transparent" points="8,-38.2 8,-348.2 301,-348.2 301,-38.2 8,-38.2"/>
<polygon fill="#f5f5f5" stroke="transparent" points="10.5,-323.2 10.5,-346.2 299.5,-346.2 299.5,-323.2 10.5,-323.2"/>
<polygon fill="none" stroke="#000000" points="10.5,-323.2 10.5,-346.2 299.5,-346.2 299.5,-323.2 10.5,-323.2"/>
<text text-anchor="start" x="15.5" y="-331.8" font-family="Helvetica,sans-Serif" font-weight="bold" font-size="11.00" fill="#000000">act_hi_caseinst</text>
<text text-anchor="start" x="264.5437" y="-331.3" font-family="Helvetica,sans-Serif" font-size="11.00" fill="#000000">[table]</text>
<polygon fill="none" stroke="#000000" points="10.5,-301.2 10.5,-323.2 215.5,-323.2 215.5,-301.2 10.5,-301.2"/>
<image xlink:href="../../images/primaryKeys.png" width="11px" height="12px" preserveAspectRatio="xMinYMin meet" x="15.5" y="-318.2"/>
<text text-anchor="start" x="30.5" y="-308.3" font-family="Helvetica,sans-Serif" font-size="11.00" fill="#000000">id_</text>
<polygon fill="none" stroke="#000000" points="215.5,-301.2 215.5,-323.2 299.5,-323.2 299.5,-301.2 215.5,-301.2"/>
<text text-anchor="start" x="218.5" y="-308.9" font-family="Helvetica,sans-Serif" font-size="11.00" fill="#000000">varchar[64]</text>
<polygon fill="#ffffff" stroke="transparent" points="10.5,-279.2 10.5,-301.2 215.5,-301.2 215.5,-279.2 10.5,-279.2"/>
<polygon fill="none" stroke="#000000" points="10.5,-279.2 10.5,-301.2 215.5,-301.2 215.5,-279.2 10.5,-279.2"/>
<text text-anchor="start" x="30.5" y="-286.3" font-family="Helvetica,sans-Serif" font-size="11.00" fill="#000000">case_inst_id_</text>
<polygon fill="none" stroke="#000000" points="215.5,-279.2 215.5,-301.2 299.5,-301.2 299.5,-279.2 215.5,-279.2"/>
<text text-anchor="start" x="218.5" y="-286.9" font-family="Helvetica,sans-Serif" font-size="11.00" fill="#000000">varchar[64]</text>
<polygon fill="#ffffff" stroke="transparent" points="10.5,-257.2 10.5,-279.2 215.5,-279.2 215.5,-257.2 10.5,-257.2"/>
<polygon fill="none" stroke="#000000" points="10.5,-257.2 10.5,-279.2 215.5,-279.2 215.5,-257.2 10.5,-257.2"/>
<text text-anchor="start" x="30.5" y="-264.3" font-family="Helvetica,sans-Serif" font-size="11.00" fill="#000000">business_key_</text>
<polygon fill="none" stroke="#000000" points="215.5,-257.2 215.5,-279.2 299.5,-279.2 299.5,-257.2 215.5,-257.2"/>
<text text-anchor="start" x="218.5" y="-264.9" font-family="Helvetica,sans-Serif" font-size="11.00" fill="#000000">varchar[255]</text>
<polygon fill="none" stroke="#000000" points="10.5,-235.2 10.5,-257.2 215.5,-257.2 215.5,-235.2 10.5,-235.2"/>
<text text-anchor="start" x="30.5" y="-242.3" font-family="Helvetica,sans-Serif" font-size="11.00" fill="#000000">case_def_id_</text>
<polygon fill="none" stroke="#000000" points="215.5,-235.2 215.5,-257.2 299.5,-257.2 299.5,-235.2 215.5,-235.2"/>
<text text-anchor="start" x="218.5" y="-242.9" font-family="Helvetica,sans-Serif" font-size="11.00" fill="#000000">varchar[64]</text>
<polygon fill="none" stroke="#000000" points="10.5,-213.2 10.5,-235.2 215.5,-235.2 215.5,-213.2 10.5,-213.2"/>
<text text-anchor="start" x="30.5" y="-220.3" font-family="Helvetica,sans-Serif" font-size="11.00" fill="#000000">create_time_</text>
<polygon fill="none" stroke="#000000" points="215.5,-213.2 215.5,-235.2 299.5,-235.2 299.5,-213.2 215.5,-213.2"/>
<text text-anchor="start" x="218.3807" y="-220.9" font-family="Helvetica,sans-Serif" font-size="11.00" fill="#000000">timestamp[29,6]</text>
<polygon fill="#ffffff" stroke="transparent" points="10.5,-191.2 10.5,-213.2 215.5,-213.2 215.5,-191.2 10.5,-191.2"/>
<polygon fill="none" stroke="#000000" points="10.5,-191.2 10.5,-213.2 215.5,-213.2 215.5,-191.2 10.5,-191.2"/>
<text text-anchor="start" x="30.5" y="-198.3" font-family="Helvetica,sans-Serif" font-size="11.00" fill="#000000">close_time_</text>
<polygon fill="none" stroke="#000000" points="215.5,-191.2 215.5,-213.2 299.5,-213.2 299.5,-191.2 215.5,-191.2"/>
<text text-anchor="start" x="218.3807" y="-198.9" font-family="Helvetica,sans-Serif" font-size="11.00" fill="#000000">timestamp[29,6]</text>
<polygon fill="none" stroke="#000000" points="10.5,-169.2 10.5,-191.2 215.5,-191.2 215.5,-169.2 10.5,-169.2"/>
<text text-anchor="start" x="30.5" y="-176.3" font-family="Helvetica,sans-Serif" font-size="11.00" fill="#000000">duration_</text>
<polygon fill="none" stroke="#000000" points="215.5,-169.2 215.5,-191.2 299.5,-191.2 299.5,-169.2 215.5,-169.2"/>
<text text-anchor="start" x="218.5" y="-176.9" font-family="Helvetica,sans-Serif" font-size="11.00" fill="#000000">int8[19]</text>
<polygon fill="none" stroke="#000000" points="10.5,-147.2 10.5,-169.2 215.5,-169.2 215.5,-147.2 10.5,-147.2"/>
<text text-anchor="start" x="30.5" y="-154.3" font-family="Helvetica,sans-Serif" font-size="11.00" fill="#000000">state_</text>
<polygon fill="none" stroke="#000000" points="215.5,-147.2 215.5,-169.2 299.5,-169.2 299.5,-147.2 215.5,-147.2"/>
<text text-anchor="start" x="218.5" y="-154.9" font-family="Helvetica,sans-Serif" font-size="11.00" fill="#000000">int4[10]</text>
<polygon fill="none" stroke="#000000" points="10.5,-125.2 10.5,-147.2 215.5,-147.2 215.5,-125.2 10.5,-125.2"/>
<text text-anchor="start" x="30.5" y="-132.3" font-family="Helvetica,sans-Serif" font-size="11.00" fill="#000000">create_user_id_</text>
<polygon fill="none" stroke="#000000" points="215.5,-125.2 215.5,-147.2 299.5,-147.2 299.5,-125.2 215.5,-125.2"/>
<text text-anchor="start" x="218.5" y="-132.9" font-family="Helvetica,sans-Serif" font-size="11.00" fill="#000000">varchar[255]</text>
<polygon fill="none" stroke="#000000" points="10.5,-103.2 10.5,-125.2 215.5,-125.2 215.5,-103.2 10.5,-103.2"/>
<text text-anchor="start" x="30.5" y="-110.3" font-family="Helvetica,sans-Serif" font-size="11.00" fill="#000000">super_case_instance_id_</text>
<polygon fill="none" stroke="#000000" points="215.5,-103.2 215.5,-125.2 299.5,-125.2 299.5,-103.2 215.5,-103.2"/>
<text text-anchor="start" x="218.5" y="-110.9" font-family="Helvetica,sans-Serif" font-size="11.00" fill="#000000">varchar[64]</text>
<polygon fill="none" stroke="#000000" points="10.5,-81.2 10.5,-103.2 215.5,-103.2 215.5,-81.2 10.5,-81.2"/>
<text text-anchor="start" x="30.5" y="-88.3" font-family="Helvetica,sans-Serif" font-size="11.00" fill="#000000">super_process_instance_id_</text>
<polygon fill="none" stroke="#000000" points="215.5,-81.2 215.5,-103.2 299.5,-103.2 299.5,-81.2 215.5,-81.2"/>
<text text-anchor="start" x="218.5" y="-88.9" font-family="Helvetica,sans-Serif" font-size="11.00" fill="#000000">varchar[64]</text>
<polygon fill="#ffffff" stroke="transparent" points="10.5,-59.2 10.5,-81.2 215.5,-81.2 215.5,-59.2 10.5,-59.2"/>
<polygon fill="none" stroke="#000000" points="10.5,-59.2 10.5,-81.2 215.5,-81.2 215.5,-59.2 10.5,-59.2"/>
<text text-anchor="start" x="30.5" y="-66.3" font-family="Helvetica,sans-Serif" font-size="11.00" fill="#000000">tenant_id_</text>
<polygon fill="none" stroke="#000000" points="215.5,-59.2 215.5,-81.2 299.5,-81.2 299.5,-59.2 215.5,-59.2"/>
<text text-anchor="start" x="218.5" y="-66.9" font-family="Helvetica,sans-Serif" font-size="11.00" fill="#000000">varchar[64]</text>
<polygon fill="#ffffff" stroke="transparent" points="10.5,-40.2 10.5,-59.2 117.5,-59.2 117.5,-40.2 10.5,-40.2"/>
<polygon fill="none" stroke="#000000" points="10.5,-40.2 10.5,-59.2 117.5,-59.2 117.5,-40.2 10.5,-40.2"/>
<text text-anchor="start" x="13.5" y="-46.3" font-family="Helvetica,sans-Serif" font-size="11.00" fill="#000000">&lt; 0</text>
<polygon fill="#ffffff" stroke="transparent" points="117.5,-40.2 117.5,-59.2 215.5,-59.2 215.5,-40.2 117.5,-40.2"/>
<polygon fill="none" stroke="#000000" points="117.5,-40.2 117.5,-59.2 215.5,-59.2 215.5,-40.2 117.5,-40.2"/>
<text text-anchor="start" x="206.3862" y="-46.3" font-family="Helvetica,sans-Serif" font-size="11.00" fill="#000000"> &#160;</text>
<polygon fill="#ffffff" stroke="transparent" points="215.5,-40.2 215.5,-59.2 299.5,-59.2 299.5,-40.2 215.5,-40.2"/>
<polygon fill="none" stroke="#000000" points="215.5,-40.2 215.5,-59.2 299.5,-59.2 299.5,-40.2 215.5,-40.2"/>
<text text-anchor="start" x="280.9053" y="-46.3" font-family="Helvetica,sans-Serif" font-size="11.00" fill="#000000">0 &gt;</text>
<polygon fill="none" stroke="#000000" stroke-width="2" points="9,-39.2 9,-347.2 300,-347.2 300,-39.2 9,-39.2"/>
</a>
</g>
</g>
</g>
</svg>
