<?xml version="1.0" encoding="UTF-8" standalone="no"?>
<!DOCTYPE svg PUBLIC "-//W3C//DTD SVG 1.1//EN"
 "http://www.w3.org/Graphics/SVG/1.1/DTD/svg11.dtd">
<!-- Generated by graphviz version 2.40.1 (20161225.0304)
 -->
<!-- Title: oneDegreeRelationshipsDiagram Pages: 1 -->
<svg width="494pt" height="863pt"
 viewBox="0.00 0.00 494.00 863.20" xmlns="http://www.w3.org/2000/svg" xmlns:xlink="http://www.w3.org/1999/xlink">
<g id="graph0" class="graph" transform="scale(1 1) rotate(0) translate(4 859.2)">
<title>oneDegreeRelationshipsDiagram</title>
<polygon fill="#ffffff" stroke="transparent" points="-4,4 -4,-859.2 490,-859.2 490,4 -4,4"/>
<text text-anchor="middle" x="72.4936" y="-7.3" font-family="Helvetica,sans-Serif" font-size="11.00" fill="#000000">Generated by SchemaSpy</text>
<!-- act_ru_variable -->
<g id="node1" class="node">
<title>act_ru_variable</title>
<g id="a_node1"><a xlink:href="../../tables/act_ru_variable.html" xlink:title="act_ru_variable" target="_top">
<polygon fill="#ffffff" stroke="transparent" points="246,-273.7 246,-759.7 478,-759.7 478,-273.7 246,-273.7"/>
<polygon fill="#f5f5f5" stroke="transparent" points="248,-734.7 248,-757.7 476,-757.7 476,-734.7 248,-734.7"/>
<polygon fill="none" stroke="#000000" points="248,-734.7 248,-757.7 476,-757.7 476,-734.7 248,-734.7"/>
<text text-anchor="start" x="253" y="-743.3" font-family="Helvetica,sans-Serif" font-weight="bold" font-size="11.00" fill="#000000">act_ru_variable</text>
<text text-anchor="start" x="441.0437" y="-742.8" font-family="Helvetica,sans-Serif" font-size="11.00" fill="#000000">[table]</text>
<polygon fill="none" stroke="#000000" points="248,-712.7 248,-734.7 403,-734.7 403,-712.7 248,-712.7"/>
<image xlink:href="../../images/primaryKeys.png" width="11px" height="12px" preserveAspectRatio="xMinYMin meet" x="253" y="-729.7"/>
<text text-anchor="start" x="268" y="-719.8" font-family="Helvetica,sans-Serif" font-size="11.00" fill="#000000">id_</text>
<polygon fill="none" stroke="#000000" points="403,-712.7 403,-734.7 476,-734.7 476,-712.7 403,-712.7"/>
<text text-anchor="start" x="406" y="-720.4" font-family="Helvetica,sans-Serif" font-size="11.00" fill="#000000">varchar[64]</text>
<polygon fill="none" stroke="#000000" points="248,-690.7 248,-712.7 403,-712.7 403,-690.7 248,-690.7"/>
<text text-anchor="start" x="268" y="-697.8" font-family="Helvetica,sans-Serif" font-size="11.00" fill="#000000">rev_</text>
<polygon fill="none" stroke="#000000" points="403,-690.7 403,-712.7 476,-712.7 476,-690.7 403,-690.7"/>
<text text-anchor="start" x="406" y="-698.4" font-family="Helvetica,sans-Serif" font-size="11.00" fill="#000000">int4[10]</text>
<polygon fill="#ffffff" stroke="transparent" points="248,-668.7 248,-690.7 403,-690.7 403,-668.7 248,-668.7"/>
<polygon fill="none" stroke="#000000" points="248,-668.7 248,-690.7 403,-690.7 403,-668.7 248,-668.7"/>
<text text-anchor="start" x="268" y="-675.8" font-family="Helvetica,sans-Serif" font-size="11.00" fill="#000000">type_</text>
<polygon fill="none" stroke="#000000" points="403,-668.7 403,-690.7 476,-690.7 476,-668.7 403,-668.7"/>
<text text-anchor="start" x="406" y="-676.4" font-family="Helvetica,sans-Serif" font-size="11.00" fill="#000000">varchar[255]</text>
<polygon fill="#ffffff" stroke="transparent" points="248,-646.7 248,-668.7 403,-668.7 403,-646.7 248,-646.7"/>
<polygon fill="none" stroke="#000000" points="248,-646.7 248,-668.7 403,-668.7 403,-646.7 248,-646.7"/>
<text text-anchor="start" x="268" y="-653.8" font-family="Helvetica,sans-Serif" font-size="11.00" fill="#000000">name_</text>
<polygon fill="none" stroke="#000000" points="403,-646.7 403,-668.7 476,-668.7 476,-646.7 403,-646.7"/>
<text text-anchor="start" x="406" y="-654.4" font-family="Helvetica,sans-Serif" font-size="11.00" fill="#000000">varchar[255]</text>
<polygon fill="#ffffff" stroke="transparent" points="248,-624.7 248,-646.7 403,-646.7 403,-624.7 248,-624.7"/>
<polygon fill="none" stroke="#000000" points="248,-624.7 248,-646.7 403,-646.7 403,-624.7 248,-624.7"/>
<image xlink:href="../../images/foreignKeys.png" width="11px" height="12px" preserveAspectRatio="xMinYMin meet" x="253" y="-641.7"/>
<text text-anchor="start" x="268" y="-631.8" font-family="Helvetica,sans-Serif" font-size="11.00" fill="#000000">execution_id_</text>
<polygon fill="none" stroke="#000000" points="403,-624.7 403,-646.7 476,-646.7 476,-624.7 403,-624.7"/>
<text text-anchor="start" x="406" y="-632.4" font-family="Helvetica,sans-Serif" font-size="11.00" fill="#000000">varchar[64]</text>
<polygon fill="#ffffff" stroke="transparent" points="248,-602.7 248,-624.7 403,-624.7 403,-602.7 248,-602.7"/>
<polygon fill="none" stroke="#000000" points="248,-602.7 248,-624.7 403,-624.7 403,-602.7 248,-602.7"/>
<image xlink:href="../../images/foreignKeys.png" width="11px" height="12px" preserveAspectRatio="xMinYMin meet" x="253" y="-619.7"/>
<text text-anchor="start" x="268" y="-609.8" font-family="Helvetica,sans-Serif" font-size="11.00" fill="#000000">proc_inst_id_</text>
<polygon fill="none" stroke="#000000" points="403,-602.7 403,-624.7 476,-624.7 476,-602.7 403,-602.7"/>
<text text-anchor="start" x="406" y="-610.4" font-family="Helvetica,sans-Serif" font-size="11.00" fill="#000000">varchar[64]</text>
<polygon fill="none" stroke="#000000" points="248,-580.7 248,-602.7 403,-602.7 403,-580.7 248,-580.7"/>
<text text-anchor="start" x="268" y="-587.8" font-family="Helvetica,sans-Serif" font-size="11.00" fill="#000000">proc_def_id_</text>
<polygon fill="none" stroke="#000000" points="403,-580.7 403,-602.7 476,-602.7 476,-580.7 403,-580.7"/>
<text text-anchor="start" x="406" y="-588.4" font-family="Helvetica,sans-Serif" font-size="11.00" fill="#000000">varchar[64]</text>
<polygon fill="#ffffff" stroke="transparent" points="248,-558.7 248,-580.7 403,-580.7 403,-558.7 248,-558.7"/>
<polygon fill="none" stroke="#000000" points="248,-558.7 248,-580.7 403,-580.7 403,-558.7 248,-558.7"/>
<image xlink:href="../../images/foreignKeys.png" width="11px" height="12px" preserveAspectRatio="xMinYMin meet" x="253" y="-575.7"/>
<text text-anchor="start" x="268" y="-565.8" font-family="Helvetica,sans-Serif" font-size="11.00" fill="#000000">case_execution_id_</text>
<polygon fill="none" stroke="#000000" points="403,-558.7 403,-580.7 476,-580.7 476,-558.7 403,-558.7"/>
<text text-anchor="start" x="406" y="-566.4" font-family="Helvetica,sans-Serif" font-size="11.00" fill="#000000">varchar[64]</text>
<polygon fill="#ffffff" stroke="transparent" points="248,-536.7 248,-558.7 403,-558.7 403,-536.7 248,-536.7"/>
<polygon fill="none" stroke="#000000" points="248,-536.7 248,-558.7 403,-558.7 403,-536.7 248,-536.7"/>
<image xlink:href="../../images/foreignKeys.png" width="11px" height="12px" preserveAspectRatio="xMinYMin meet" x="253" y="-553.7"/>
<text text-anchor="start" x="268" y="-543.8" font-family="Helvetica,sans-Serif" font-size="11.00" fill="#000000">case_inst_id_</text>
<polygon fill="none" stroke="#000000" points="403,-536.7 403,-558.7 476,-558.7 476,-536.7 403,-536.7"/>
<text text-anchor="start" x="406" y="-544.4" font-family="Helvetica,sans-Serif" font-size="11.00" fill="#000000">varchar[64]</text>
<polygon fill="#ffffff" stroke="transparent" points="248,-514.7 248,-536.7 403,-536.7 403,-514.7 248,-514.7"/>
<polygon fill="none" stroke="#000000" points="248,-514.7 248,-536.7 403,-536.7 403,-514.7 248,-514.7"/>
<text text-anchor="start" x="268" y="-521.8" font-family="Helvetica,sans-Serif" font-size="11.00" fill="#000000">task_id_</text>
<polygon fill="none" stroke="#000000" points="403,-514.7 403,-536.7 476,-536.7 476,-514.7 403,-514.7"/>
<text text-anchor="start" x="406" y="-522.4" font-family="Helvetica,sans-Serif" font-size="11.00" fill="#000000">varchar[64]</text>
<polygon fill="#ffffff" stroke="transparent" points="248,-492.7 248,-514.7 403,-514.7 403,-492.7 248,-492.7"/>
<polygon fill="none" stroke="#000000" points="248,-492.7 248,-514.7 403,-514.7 403,-492.7 248,-492.7"/>
<image xlink:href="../../images/foreignKeys.png" width="11px" height="12px" preserveAspectRatio="xMinYMin meet" x="253" y="-509.7"/>
<text text-anchor="start" x="268" y="-499.8" font-family="Helvetica,sans-Serif" font-size="11.00" fill="#000000">batch_id_</text>
<polygon fill="none" stroke="#000000" points="403,-492.7 403,-514.7 476,-514.7 476,-492.7 403,-492.7"/>
<text text-anchor="start" x="406" y="-500.4" font-family="Helvetica,sans-Serif" font-size="11.00" fill="#000000">varchar[64]</text>
<polygon fill="#ffffff" stroke="transparent" points="248,-470.7 248,-492.7 403,-492.7 403,-470.7 248,-470.7"/>
<polygon fill="none" stroke="#000000" points="248,-470.7 248,-492.7 403,-492.7 403,-470.7 248,-470.7"/>
<image xlink:href="../../images/foreignKeys.png" width="11px" height="12px" preserveAspectRatio="xMinYMin meet" x="253" y="-487.7"/>
<text text-anchor="start" x="268" y="-477.8" font-family="Helvetica,sans-Serif" font-size="11.00" fill="#000000">bytearray_id_</text>
<polygon fill="none" stroke="#000000" points="403,-470.7 403,-492.7 476,-492.7 476,-470.7 403,-470.7"/>
<text text-anchor="start" x="406" y="-478.4" font-family="Helvetica,sans-Serif" font-size="11.00" fill="#000000">varchar[64]</text>
<polygon fill="none" stroke="#000000" points="248,-448.7 248,-470.7 403,-470.7 403,-448.7 248,-448.7"/>
<text text-anchor="start" x="268" y="-455.8" font-family="Helvetica,sans-Serif" font-size="11.00" fill="#000000">double_</text>
<polygon fill="none" stroke="#000000" points="403,-448.7 403,-470.7 476,-470.7 476,-448.7 403,-448.7"/>
<text text-anchor="start" x="406" y="-456.4" font-family="Helvetica,sans-Serif" font-size="11.00" fill="#000000">float8[17,17]</text>
<polygon fill="none" stroke="#000000" points="248,-426.7 248,-448.7 403,-448.7 403,-426.7 248,-426.7"/>
<text text-anchor="start" x="268" y="-433.8" font-family="Helvetica,sans-Serif" font-size="11.00" fill="#000000">long_</text>
<polygon fill="none" stroke="#000000" points="403,-426.7 403,-448.7 476,-448.7 476,-426.7 403,-426.7"/>
<text text-anchor="start" x="406" y="-434.4" font-family="Helvetica,sans-Serif" font-size="11.00" fill="#000000">int8[19]</text>
<polygon fill="none" stroke="#000000" points="248,-404.7 248,-426.7 403,-426.7 403,-404.7 248,-404.7"/>
<text text-anchor="start" x="268" y="-411.8" font-family="Helvetica,sans-Serif" font-size="11.00" fill="#000000">text_</text>
<polygon fill="none" stroke="#000000" points="403,-404.7 403,-426.7 476,-426.7 476,-404.7 403,-404.7"/>
<text text-anchor="start" x="405.8791" y="-412.4" font-family="Helvetica,sans-Serif" font-size="11.00" fill="#000000">varchar[4000]</text>
<polygon fill="none" stroke="#000000" points="248,-382.7 248,-404.7 403,-404.7 403,-382.7 248,-382.7"/>
<text text-anchor="start" x="268" y="-389.8" font-family="Helvetica,sans-Serif" font-size="11.00" fill="#000000">text2_</text>
<polygon fill="none" stroke="#000000" points="403,-382.7 403,-404.7 476,-404.7 476,-382.7 403,-382.7"/>
<text text-anchor="start" x="405.8791" y="-390.4" font-family="Helvetica,sans-Serif" font-size="11.00" fill="#000000">varchar[4000]</text>
<polygon fill="#ffffff" stroke="transparent" points="248,-360.7 248,-382.7 403,-382.7 403,-360.7 248,-360.7"/>
<polygon fill="none" stroke="#000000" points="248,-360.7 248,-382.7 403,-382.7 403,-360.7 248,-360.7"/>
<text text-anchor="start" x="268" y="-367.8" font-family="Helvetica,sans-Serif" font-size="11.00" fill="#000000">var_scope_</text>
<polygon fill="none" stroke="#000000" points="403,-360.7 403,-382.7 476,-382.7 476,-360.7 403,-360.7"/>
<text text-anchor="start" x="406" y="-368.4" font-family="Helvetica,sans-Serif" font-size="11.00" fill="#000000">varchar[64]</text>
<polygon fill="none" stroke="#000000" points="248,-338.7 248,-360.7 403,-360.7 403,-338.7 248,-338.7"/>
<text text-anchor="start" x="268" y="-345.8" font-family="Helvetica,sans-Serif" font-size="11.00" fill="#000000">sequence_counter_</text>
<polygon fill="none" stroke="#000000" points="403,-338.7 403,-360.7 476,-360.7 476,-338.7 403,-338.7"/>
<text text-anchor="start" x="406" y="-346.4" font-family="Helvetica,sans-Serif" font-size="11.00" fill="#000000">int8[19]</text>
<polygon fill="none" stroke="#000000" points="248,-316.7 248,-338.7 403,-338.7 403,-316.7 248,-316.7"/>
<text text-anchor="start" x="268" y="-323.8" font-family="Helvetica,sans-Serif" font-size="11.00" fill="#000000">is_concurrent_local_</text>
<polygon fill="none" stroke="#000000" points="403,-316.7 403,-338.7 476,-338.7 476,-316.7 403,-316.7"/>
<text text-anchor="start" x="406" y="-324.4" font-family="Helvetica,sans-Serif" font-size="11.00" fill="#000000">bool[1]</text>
<polygon fill="#ffffff" stroke="transparent" points="248,-294.7 248,-316.7 403,-316.7 403,-294.7 248,-294.7"/>
<polygon fill="none" stroke="#000000" points="248,-294.7 248,-316.7 403,-316.7 403,-294.7 248,-294.7"/>
<text text-anchor="start" x="268" y="-301.8" font-family="Helvetica,sans-Serif" font-size="11.00" fill="#000000">tenant_id_</text>
<polygon fill="none" stroke="#000000" points="403,-294.7 403,-316.7 476,-316.7 476,-294.7 403,-294.7"/>
<text text-anchor="start" x="406" y="-302.4" font-family="Helvetica,sans-Serif" font-size="11.00" fill="#000000">varchar[64]</text>
<polygon fill="#ffffff" stroke="transparent" points="248,-275.7 248,-294.7 330,-294.7 330,-275.7 248,-275.7"/>
<polygon fill="none" stroke="#000000" points="248,-275.7 248,-294.7 330,-294.7 330,-275.7 248,-275.7"/>
<text text-anchor="start" x="251" y="-281.8" font-family="Helvetica,sans-Serif" font-size="11.00" fill="#000000">&lt; 6</text>
<polygon fill="#ffffff" stroke="transparent" points="330,-275.7 330,-294.7 403,-294.7 403,-275.7 330,-275.7"/>
<polygon fill="none" stroke="#000000" points="330,-275.7 330,-294.7 403,-294.7 403,-275.7 330,-275.7"/>
<text text-anchor="start" x="393.8862" y="-281.8" font-family="Helvetica,sans-Serif" font-size="11.00" fill="#000000"> &#160;</text>
<polygon fill="#ffffff" stroke="transparent" points="403,-275.7 403,-294.7 476,-294.7 476,-275.7 403,-275.7"/>
<polygon fill="none" stroke="#000000" points="403,-275.7 403,-294.7 476,-294.7 476,-275.7 403,-275.7"/>
<text text-anchor="start" x="457.4053" y="-281.8" font-family="Helvetica,sans-Serif" font-size="11.00" fill="#000000">0 &gt;</text>
<polygon fill="none" stroke="#000000" stroke-width="2" points="247,-274.7 247,-758.7 477,-758.7 477,-274.7 247,-274.7"/>
</a>
</g>
</g>
<!-- act_ru_batch -->
<g id="node2" class="node">
<title>act_ru_batch</title>
<g id="a_node2"><a xlink:href="../../tables/act_ru_batch.html" xlink:title="act_ru_batch" target="_top">
<polygon fill="#ffffff" stroke="transparent" points="22.5,-230.2 22.5,-379.2 182.5,-379.2 182.5,-230.2 22.5,-230.2"/>
<polygon fill="#f5f5f5" stroke="transparent" points="22.5,-355.7 22.5,-378.7 182.5,-378.7 182.5,-355.7 22.5,-355.7"/>
<polygon fill="none" stroke="#000000" points="22.5,-355.7 22.5,-378.7 182.5,-378.7 182.5,-355.7 22.5,-355.7"/>
<text text-anchor="start" x="27.5" y="-364.3" font-family="Helvetica,sans-Serif" font-weight="bold" font-size="11.00" fill="#000000">act_ru_batch</text>
<text text-anchor="start" x="147.5437" y="-363.8" font-family="Helvetica,sans-Serif" font-size="11.00" fill="#000000">[table]</text>
<polygon fill="none" stroke="#000000" points="22.5,-333.7 22.5,-355.7 182.5,-355.7 182.5,-333.7 22.5,-333.7"/>
<image xlink:href="../../images/primaryKeys.png" width="11px" height="12px" preserveAspectRatio="xMinYMin meet" x="27.5" y="-350.7"/>
<text text-anchor="start" x="42.5" y="-340.8" font-family="Helvetica,sans-Serif" font-size="11.00" fill="#000000">id_</text>
<polygon fill="#ffffff" stroke="transparent" points="22.5,-311.7 22.5,-333.7 182.5,-333.7 182.5,-311.7 22.5,-311.7"/>
<polygon fill="none" stroke="#000000" points="22.5,-311.7 22.5,-333.7 182.5,-333.7 182.5,-311.7 22.5,-311.7"/>
<image xlink:href="../../images/foreignKeys.png" width="11px" height="12px" preserveAspectRatio="xMinYMin meet" x="27.5" y="-328.7"/>
<text text-anchor="start" x="42.5" y="-318.8" font-family="Helvetica,sans-Serif" font-size="11.00" fill="#000000">seed_job_def_id_</text>
<polygon fill="#ffffff" stroke="transparent" points="22.5,-289.7 22.5,-311.7 182.5,-311.7 182.5,-289.7 22.5,-289.7"/>
<polygon fill="none" stroke="#000000" points="22.5,-289.7 22.5,-311.7 182.5,-311.7 182.5,-289.7 22.5,-289.7"/>
<image xlink:href="../../images/foreignKeys.png" width="11px" height="12px" preserveAspectRatio="xMinYMin meet" x="27.5" y="-306.7"/>
<text text-anchor="start" x="42.5" y="-296.8" font-family="Helvetica,sans-Serif" font-size="11.00" fill="#000000">batch_job_def_id_</text>
<polygon fill="#ffffff" stroke="transparent" points="22.5,-267.7 22.5,-289.7 182.5,-289.7 182.5,-267.7 22.5,-267.7"/>
<polygon fill="none" stroke="#000000" points="22.5,-267.7 22.5,-289.7 182.5,-289.7 182.5,-267.7 22.5,-267.7"/>
<image xlink:href="../../images/foreignKeys.png" width="11px" height="12px" preserveAspectRatio="xMinYMin meet" x="27.5" y="-284.7"/>
<text text-anchor="start" x="42.5" y="-274.8" font-family="Helvetica,sans-Serif" font-size="11.00" fill="#000000">monitor_job_def_id_</text>
<polygon fill="none" stroke="#000000" points="22.5,-248.7 22.5,-267.7 182.5,-267.7 182.5,-248.7 22.5,-248.7"/>
<text text-anchor="start" x="25.5" y="-254.8" font-family="Helvetica,sans-Serif" font-size="11.00" fill="#000000">...</text>
<polygon fill="#ffffff" stroke="transparent" points="22.5,-229.7 22.5,-248.7 96.5,-248.7 96.5,-229.7 22.5,-229.7"/>
<polygon fill="none" stroke="#000000" points="22.5,-229.7 22.5,-248.7 96.5,-248.7 96.5,-229.7 22.5,-229.7"/>
<text text-anchor="start" x="25.5" y="-235.8" font-family="Helvetica,sans-Serif" font-size="11.00" fill="#000000">&lt; 3</text>
<polygon fill="#ffffff" stroke="transparent" points="96.5,-229.7 96.5,-248.7 134.5,-248.7 134.5,-229.7 96.5,-229.7"/>
<polygon fill="none" stroke="#000000" points="96.5,-229.7 96.5,-248.7 134.5,-248.7 134.5,-229.7 96.5,-229.7"/>
<text text-anchor="start" x="125.3862" y="-235.8" font-family="Helvetica,sans-Serif" font-size="11.00" fill="#000000"> &#160;</text>
<polygon fill="#ffffff" stroke="transparent" points="134.5,-229.7 134.5,-248.7 182.5,-248.7 182.5,-229.7 134.5,-229.7"/>
<polygon fill="none" stroke="#000000" points="134.5,-229.7 134.5,-248.7 182.5,-248.7 182.5,-229.7 134.5,-229.7"/>
<text text-anchor="start" x="163.9053" y="-235.8" font-family="Helvetica,sans-Serif" font-size="11.00" fill="#000000">1 &gt;</text>
</a>
</g>
</g>
<!-- act_ru_variable&#45;&gt;act_ru_batch -->
<g id="edge1" class="edge">
<title>act_ru_variable:w&#45;&gt;act_ru_batch:e</title>
<path fill="none" stroke="#000000" d="M233.5555,-501.2025C183.6367,-480.9743 253.2556,-344.7 182.5,-344.7"/>
<polygon fill="#000000" stroke="#000000" points="240.117,-502.3369 247.3866,-507.2474 244.0585,-503.0185 248,-503.7 248,-503.7 248,-503.7 244.0585,-503.0185 248.6134,-500.1526 240.117,-502.3369 240.117,-502.3369"/>
<ellipse fill="none" stroke="#000000" cx="236.9638" cy="-501.7917" rx="3.2" ry="3.2"/>
</g>
<!-- act_ge_bytearray -->
<g id="node3" class="node">
<title>act_ge_bytearray</title>
<g id="a_node3"><a xlink:href="../../tables/act_ge_bytearray.html" xlink:title="act_ge_bytearray" target="_top">
<polygon fill="#ffffff" stroke="transparent" points="25.5,-38.2 25.5,-209.2 179.5,-209.2 179.5,-38.2 25.5,-38.2"/>
<polygon fill="#f5f5f5" stroke="transparent" points="25.5,-185.7 25.5,-208.7 179.5,-208.7 179.5,-185.7 25.5,-185.7"/>
<polygon fill="none" stroke="#000000" points="25.5,-185.7 25.5,-208.7 179.5,-208.7 179.5,-185.7 25.5,-185.7"/>
<text text-anchor="start" x="30.5" y="-194.3" font-family="Helvetica,sans-Serif" font-weight="bold" font-size="11.00" fill="#000000">act_ge_bytearray</text>
<text text-anchor="start" x="145.0219" y="-193.8" font-family="Helvetica,sans-Serif" font-size="11.00" fill="#000000">[table]</text>
<polygon fill="none" stroke="#000000" points="25.5,-163.7 25.5,-185.7 179.5,-185.7 179.5,-163.7 25.5,-163.7"/>
<image xlink:href="../../images/primaryKeys.png" width="11px" height="12px" preserveAspectRatio="xMinYMin meet" x="30.5" y="-180.7"/>
<text text-anchor="start" x="52.5" y="-170.8" font-family="Helvetica,sans-Serif" font-size="11.00" fill="#000000">id_</text>
<polygon fill="#ffffff" stroke="transparent" points="25.5,-141.7 25.5,-163.7 179.5,-163.7 179.5,-141.7 25.5,-141.7"/>
<polygon fill="none" stroke="#000000" points="25.5,-141.7 25.5,-163.7 179.5,-163.7 179.5,-141.7 25.5,-141.7"/>
<text text-anchor="start" x="52.5" y="-148.8" font-family="Helvetica,sans-Serif" font-size="11.00" fill="#000000">name_</text>
<polygon fill="#ffffff" stroke="transparent" points="25.5,-119.7 25.5,-141.7 179.5,-141.7 179.5,-119.7 25.5,-119.7"/>
<polygon fill="none" stroke="#000000" points="25.5,-119.7 25.5,-141.7 179.5,-141.7 179.5,-119.7 25.5,-119.7"/>
<image xlink:href="../../images/foreignKeys.png" width="11px" height="12px" preserveAspectRatio="xMinYMin meet" x="30.5" y="-136.7"/>
<text text-anchor="start" x="52.5" y="-126.8" font-family="Helvetica,sans-Serif" font-size="11.00" fill="#000000">deployment_id_</text>
<polygon fill="#ffffff" stroke="transparent" points="25.5,-97.7 25.5,-119.7 179.5,-119.7 179.5,-97.7 25.5,-97.7"/>
<polygon fill="none" stroke="#000000" points="25.5,-97.7 25.5,-119.7 179.5,-119.7 179.5,-97.7 25.5,-97.7"/>
<text text-anchor="start" x="52.5" y="-104.8" font-family="Helvetica,sans-Serif" font-size="11.00" fill="#000000">root_proc_inst_id_</text>
<polygon fill="#ffffff" stroke="transparent" points="25.5,-75.7 25.5,-97.7 179.5,-97.7 179.5,-75.7 25.5,-75.7"/>
<polygon fill="none" stroke="#000000" points="25.5,-75.7 25.5,-97.7 179.5,-97.7 179.5,-75.7 25.5,-75.7"/>
<text text-anchor="start" x="52.5" y="-82.8" font-family="Helvetica,sans-Serif" font-size="11.00" fill="#000000">removal_time_</text>
<polygon fill="none" stroke="#000000" points="25.5,-56.7 25.5,-75.7 179.5,-75.7 179.5,-56.7 25.5,-56.7"/>
<text text-anchor="start" x="28.5" y="-62.8" font-family="Helvetica,sans-Serif" font-size="11.00" fill="#000000">...</text>
<polygon fill="#ffffff" stroke="transparent" points="25.5,-37.7 25.5,-56.7 96.5,-56.7 96.5,-37.7 25.5,-37.7"/>
<polygon fill="none" stroke="#000000" points="25.5,-37.7 25.5,-56.7 96.5,-56.7 96.5,-37.7 25.5,-37.7"/>
<text text-anchor="start" x="28.5" y="-43.8" font-family="Helvetica,sans-Serif" font-size="11.00" fill="#000000">&lt; 1</text>
<polygon fill="#ffffff" stroke="transparent" points="96.5,-37.7 96.5,-56.7 133.5,-56.7 133.5,-37.7 96.5,-37.7"/>
<polygon fill="none" stroke="#000000" points="96.5,-37.7 96.5,-56.7 133.5,-56.7 133.5,-37.7 96.5,-37.7"/>
<text text-anchor="start" x="124.3862" y="-43.8" font-family="Helvetica,sans-Serif" font-size="11.00" fill="#000000"> &#160;</text>
<polygon fill="#ffffff" stroke="transparent" points="133.5,-37.7 133.5,-56.7 179.5,-56.7 179.5,-37.7 133.5,-37.7"/>
<polygon fill="none" stroke="#000000" points="133.5,-37.7 133.5,-56.7 179.5,-56.7 179.5,-37.7 133.5,-37.7"/>
<text text-anchor="start" x="160.9053" y="-43.8" font-family="Helvetica,sans-Serif" font-size="11.00" fill="#000000">3 &gt;</text>
</a>
</g>
</g>
<!-- act_ru_variable&#45;&gt;act_ge_bytearray -->
<g id="edge2" class="edge">
<title>act_ru_variable:w&#45;&gt;act_ge_bytearray:e</title>
<path fill="none" stroke="#000000" d="M234.3598,-476.6276C188.143,-436.7117 244.0754,-174.7 179.5,-174.7"/>
<polygon fill="#000000" stroke="#000000" points="240.5017,-478.9116 246.7452,-485.0742 244.2508,-480.3058 248,-481.7 248,-481.7 248,-481.7 244.2508,-480.3058 249.2548,-478.3258 240.5017,-478.9116 240.5017,-478.9116"/>
<ellipse fill="none" stroke="#000000" cx="237.5024" cy="-477.7962" rx="3.2" ry="3.2"/>
</g>
<!-- act_ru_case_execution -->
<g id="node4" class="node">
<title>act_ru_case_execution</title>
<g id="a_node4"><a xlink:href="../../tables/act_ru_case_execution.html" xlink:title="act_ru_case_execution" target="_top">
<polygon fill="#ffffff" stroke="transparent" points="8,-400.2 8,-593.2 197,-593.2 197,-400.2 8,-400.2"/>
<polygon fill="#f5f5f5" stroke="transparent" points="8.5,-569.7 8.5,-592.7 197.5,-592.7 197.5,-569.7 8.5,-569.7"/>
<polygon fill="none" stroke="#000000" points="8.5,-569.7 8.5,-592.7 197.5,-592.7 197.5,-569.7 8.5,-569.7"/>
<text text-anchor="start" x="13.5" y="-578.3" font-family="Helvetica,sans-Serif" font-weight="bold" font-size="11.00" fill="#000000">act_ru_case_execution</text>
<text text-anchor="start" x="163.0219" y="-577.8" font-family="Helvetica,sans-Serif" font-size="11.00" fill="#000000">[table]</text>
<polygon fill="none" stroke="#000000" points="8.5,-547.7 8.5,-569.7 197.5,-569.7 197.5,-547.7 8.5,-547.7"/>
<image xlink:href="../../images/primaryKeys.png" width="11px" height="12px" preserveAspectRatio="xMinYMin meet" x="13.5" y="-564.7"/>
<text text-anchor="start" x="37.5" y="-554.8" font-family="Helvetica,sans-Serif" font-size="11.00" fill="#000000">id_</text>
<polygon fill="#ffffff" stroke="transparent" points="8.5,-525.7 8.5,-547.7 197.5,-547.7 197.5,-525.7 8.5,-525.7"/>
<polygon fill="none" stroke="#000000" points="8.5,-525.7 8.5,-547.7 197.5,-547.7 197.5,-525.7 8.5,-525.7"/>
<image xlink:href="../../images/foreignKeys.png" width="11px" height="12px" preserveAspectRatio="xMinYMin meet" x="13.5" y="-542.7"/>
<text text-anchor="start" x="37.5" y="-532.8" font-family="Helvetica,sans-Serif" font-size="11.00" fill="#000000">case_inst_id_</text>
<polygon fill="#ffffff" stroke="transparent" points="8.5,-503.7 8.5,-525.7 197.5,-525.7 197.5,-503.7 8.5,-503.7"/>
<polygon fill="none" stroke="#000000" points="8.5,-503.7 8.5,-525.7 197.5,-525.7 197.5,-503.7 8.5,-503.7"/>
<text text-anchor="start" x="37.5" y="-510.8" font-family="Helvetica,sans-Serif" font-size="11.00" fill="#000000">business_key_</text>
<polygon fill="#ffffff" stroke="transparent" points="8.5,-481.7 8.5,-503.7 197.5,-503.7 197.5,-481.7 8.5,-481.7"/>
<polygon fill="none" stroke="#000000" points="8.5,-481.7 8.5,-503.7 197.5,-503.7 197.5,-481.7 8.5,-481.7"/>
<image xlink:href="../../images/foreignKeys.png" width="11px" height="12px" preserveAspectRatio="xMinYMin meet" x="13.5" y="-498.7"/>
<text text-anchor="start" x="37.5" y="-488.8" font-family="Helvetica,sans-Serif" font-size="11.00" fill="#000000">parent_id_</text>
<polygon fill="#ffffff" stroke="transparent" points="8.5,-459.7 8.5,-481.7 197.5,-481.7 197.5,-459.7 8.5,-459.7"/>
<polygon fill="none" stroke="#000000" points="8.5,-459.7 8.5,-481.7 197.5,-481.7 197.5,-459.7 8.5,-459.7"/>
<image xlink:href="../../images/foreignKeys.png" width="11px" height="12px" preserveAspectRatio="xMinYMin meet" x="13.5" y="-476.7"/>
<text text-anchor="start" x="37.5" y="-466.8" font-family="Helvetica,sans-Serif" font-size="11.00" fill="#000000">case_def_id_</text>
<polygon fill="#ffffff" stroke="transparent" points="8.5,-437.7 8.5,-459.7 197.5,-459.7 197.5,-437.7 8.5,-437.7"/>
<polygon fill="none" stroke="#000000" points="8.5,-437.7 8.5,-459.7 197.5,-459.7 197.5,-437.7 8.5,-437.7"/>
<text text-anchor="start" x="37.5" y="-444.8" font-family="Helvetica,sans-Serif" font-size="11.00" fill="#000000">tenant_id_</text>
<polygon fill="none" stroke="#000000" points="8.5,-418.7 8.5,-437.7 197.5,-437.7 197.5,-418.7 8.5,-418.7"/>
<text text-anchor="start" x="11.5" y="-424.8" font-family="Helvetica,sans-Serif" font-size="11.00" fill="#000000">...</text>
<polygon fill="#ffffff" stroke="transparent" points="8.5,-399.7 8.5,-418.7 96.5,-418.7 96.5,-399.7 8.5,-399.7"/>
<polygon fill="none" stroke="#000000" points="8.5,-399.7 8.5,-418.7 96.5,-418.7 96.5,-399.7 8.5,-399.7"/>
<text text-anchor="start" x="11.5" y="-405.8" font-family="Helvetica,sans-Serif" font-size="11.00" fill="#000000">&lt; 3</text>
<polygon fill="#ffffff" stroke="transparent" points="96.5,-399.7 96.5,-418.7 142.5,-418.7 142.5,-399.7 96.5,-399.7"/>
<polygon fill="none" stroke="#000000" points="96.5,-399.7 96.5,-418.7 142.5,-418.7 142.5,-399.7 96.5,-399.7"/>
<text text-anchor="start" x="133.3862" y="-405.8" font-family="Helvetica,sans-Serif" font-size="11.00" fill="#000000"> &#160;</text>
<polygon fill="#ffffff" stroke="transparent" points="142.5,-399.7 142.5,-418.7 197.5,-418.7 197.5,-399.7 142.5,-399.7"/>
<polygon fill="none" stroke="#000000" points="142.5,-399.7 142.5,-418.7 197.5,-418.7 197.5,-399.7 142.5,-399.7"/>
<text text-anchor="start" x="178.9053" y="-405.8" font-family="Helvetica,sans-Serif" font-size="11.00" fill="#000000">7 &gt;</text>
</a>
</g>
</g>
<!-- act_ru_variable&#45;&gt;act_ru_case_execution -->
<g id="edge3" class="edge">
<title>act_ru_variable:w&#45;&gt;act_ru_case_execution:e</title>
<path fill="none" stroke="#000000" d="M233.6489,-567.9813C221.5992,-564.8875 214.728,-558.7 197.5,-558.7"/>
<polygon fill="#000000" stroke="#000000" points="240.0568,-568.7486 247.5719,-573.2745 244.0284,-569.2243 248,-569.7 248,-569.7 248,-569.7 244.0284,-569.2243 248.4281,-566.1255 240.0568,-568.7486 240.0568,-568.7486"/>
<ellipse fill="none" stroke="#000000" cx="236.8795" cy="-568.3681" rx="3.2" ry="3.2"/>
</g>
<!-- act_ru_variable&#45;&gt;act_ru_case_execution -->
<g id="edge4" class="edge">
<title>act_ru_variable:w&#45;&gt;act_ru_case_execution:e</title>
<path fill="none" stroke="#000000" d="M233.6489,-549.4188C221.5992,-552.5125 214.728,-558.7 197.5,-558.7"/>
<polygon fill="#000000" stroke="#000000" points="240.0568,-548.6514 248.4281,-551.2745 244.0284,-548.1757 248,-547.7 248,-547.7 248,-547.7 244.0284,-548.1757 247.5719,-544.1255 240.0568,-548.6514 240.0568,-548.6514"/>
<ellipse fill="none" stroke="#000000" cx="236.8795" cy="-549.0319" rx="3.2" ry="3.2"/>
</g>
<!-- act_ru_execution -->
<g id="node5" class="node">
<title>act_ru_execution</title>
<g id="a_node5"><a xlink:href="../../tables/act_ru_execution.html" xlink:title="act_ru_execution" target="_top">
<polygon fill="#ffffff" stroke="transparent" points="26.5,-614.2 26.5,-851.2 178.5,-851.2 178.5,-614.2 26.5,-614.2"/>
<polygon fill="#f5f5f5" stroke="transparent" points="26.5,-827.7 26.5,-850.7 178.5,-850.7 178.5,-827.7 26.5,-827.7"/>
<polygon fill="none" stroke="#000000" points="26.5,-827.7 26.5,-850.7 178.5,-850.7 178.5,-827.7 26.5,-827.7"/>
<text text-anchor="start" x="31.5" y="-836.3" font-family="Helvetica,sans-Serif" font-weight="bold" font-size="11.00" fill="#000000">act_ru_execution</text>
<text text-anchor="start" x="144.0219" y="-835.8" font-family="Helvetica,sans-Serif" font-size="11.00" fill="#000000">[table]</text>
<polygon fill="none" stroke="#000000" points="26.5,-805.7 26.5,-827.7 178.5,-827.7 178.5,-805.7 26.5,-805.7"/>
<image xlink:href="../../images/primaryKeys.png" width="11px" height="12px" preserveAspectRatio="xMinYMin meet" x="31.5" y="-822.7"/>
<text text-anchor="start" x="48.5" y="-812.8" font-family="Helvetica,sans-Serif" font-size="11.00" fill="#000000">id_</text>
<polygon fill="#ffffff" stroke="transparent" points="26.5,-783.7 26.5,-805.7 178.5,-805.7 178.5,-783.7 26.5,-783.7"/>
<polygon fill="none" stroke="#000000" points="26.5,-783.7 26.5,-805.7 178.5,-805.7 178.5,-783.7 26.5,-783.7"/>
<text text-anchor="start" x="48.5" y="-790.8" font-family="Helvetica,sans-Serif" font-size="11.00" fill="#000000">root_proc_inst_id_</text>
<polygon fill="#ffffff" stroke="transparent" points="26.5,-761.7 26.5,-783.7 178.5,-783.7 178.5,-761.7 26.5,-761.7"/>
<polygon fill="none" stroke="#000000" points="26.5,-761.7 26.5,-783.7 178.5,-783.7 178.5,-761.7 26.5,-761.7"/>
<image xlink:href="../../images/foreignKeys.png" width="11px" height="12px" preserveAspectRatio="xMinYMin meet" x="31.5" y="-778.7"/>
<text text-anchor="start" x="48.5" y="-768.8" font-family="Helvetica,sans-Serif" font-size="11.00" fill="#000000">proc_inst_id_</text>
<polygon fill="#ffffff" stroke="transparent" points="26.5,-739.7 26.5,-761.7 178.5,-761.7 178.5,-739.7 26.5,-739.7"/>
<polygon fill="none" stroke="#000000" points="26.5,-739.7 26.5,-761.7 178.5,-761.7 178.5,-739.7 26.5,-739.7"/>
<text text-anchor="start" x="48.5" y="-746.8" font-family="Helvetica,sans-Serif" font-size="11.00" fill="#000000">business_key_</text>
<polygon fill="#ffffff" stroke="transparent" points="26.5,-717.7 26.5,-739.7 178.5,-739.7 178.5,-717.7 26.5,-717.7"/>
<polygon fill="none" stroke="#000000" points="26.5,-717.7 26.5,-739.7 178.5,-739.7 178.5,-717.7 26.5,-717.7"/>
<image xlink:href="../../images/foreignKeys.png" width="11px" height="12px" preserveAspectRatio="xMinYMin meet" x="31.5" y="-734.7"/>
<text text-anchor="start" x="48.5" y="-724.8" font-family="Helvetica,sans-Serif" font-size="11.00" fill="#000000">parent_id_</text>
<polygon fill="#ffffff" stroke="transparent" points="26.5,-695.7 26.5,-717.7 178.5,-717.7 178.5,-695.7 26.5,-695.7"/>
<polygon fill="none" stroke="#000000" points="26.5,-695.7 26.5,-717.7 178.5,-717.7 178.5,-695.7 26.5,-695.7"/>
<image xlink:href="../../images/foreignKeys.png" width="11px" height="12px" preserveAspectRatio="xMinYMin meet" x="31.5" y="-712.7"/>
<text text-anchor="start" x="48.5" y="-702.8" font-family="Helvetica,sans-Serif" font-size="11.00" fill="#000000">proc_def_id_</text>
<polygon fill="#ffffff" stroke="transparent" points="26.5,-673.7 26.5,-695.7 178.5,-695.7 178.5,-673.7 26.5,-673.7"/>
<polygon fill="none" stroke="#000000" points="26.5,-673.7 26.5,-695.7 178.5,-695.7 178.5,-673.7 26.5,-673.7"/>
<image xlink:href="../../images/foreignKeys.png" width="11px" height="12px" preserveAspectRatio="xMinYMin meet" x="31.5" y="-690.7"/>
<text text-anchor="start" x="48.5" y="-680.8" font-family="Helvetica,sans-Serif" font-size="11.00" fill="#000000">super_exec_</text>
<polygon fill="#ffffff" stroke="transparent" points="26.5,-651.7 26.5,-673.7 178.5,-673.7 178.5,-651.7 26.5,-651.7"/>
<polygon fill="none" stroke="#000000" points="26.5,-651.7 26.5,-673.7 178.5,-673.7 178.5,-651.7 26.5,-651.7"/>
<text text-anchor="start" x="48.5" y="-658.8" font-family="Helvetica,sans-Serif" font-size="11.00" fill="#000000">tenant_id_</text>
<polygon fill="none" stroke="#000000" points="26.5,-632.7 26.5,-651.7 178.5,-651.7 178.5,-632.7 26.5,-632.7"/>
<text text-anchor="start" x="29.5" y="-638.8" font-family="Helvetica,sans-Serif" font-size="11.00" fill="#000000">...</text>
<polygon fill="#ffffff" stroke="transparent" points="26.5,-613.7 26.5,-632.7 93.5,-632.7 93.5,-613.7 26.5,-613.7"/>
<polygon fill="none" stroke="#000000" points="26.5,-613.7 26.5,-632.7 93.5,-632.7 93.5,-613.7 26.5,-613.7"/>
<text text-anchor="start" x="29.5" y="-619.8" font-family="Helvetica,sans-Serif" font-size="11.00" fill="#000000">&lt; 4</text>
<polygon fill="#ffffff" stroke="transparent" points="93.5,-613.7 93.5,-632.7 128.5,-632.7 128.5,-613.7 93.5,-613.7"/>
<polygon fill="none" stroke="#000000" points="93.5,-613.7 93.5,-632.7 128.5,-632.7 128.5,-613.7 93.5,-613.7"/>
<text text-anchor="start" x="119.3862" y="-619.8" font-family="Helvetica,sans-Serif" font-size="11.00" fill="#000000"> &#160;</text>
<polygon fill="#ffffff" stroke="transparent" points="128.5,-613.7 128.5,-632.7 178.5,-632.7 178.5,-613.7 128.5,-613.7"/>
<polygon fill="none" stroke="#000000" points="128.5,-613.7 128.5,-632.7 178.5,-632.7 178.5,-613.7 128.5,-613.7"/>
<text text-anchor="start" x="153.7904" y="-619.8" font-family="Helvetica,sans-Serif" font-size="11.00" fill="#000000">11 &gt;</text>
</a>
</g>
</g>
<!-- act_ru_variable&#45;&gt;act_ru_execution -->
<g id="edge5" class="edge">
<title>act_ru_variable:w&#45;&gt;act_ru_execution:e</title>
<path fill="none" stroke="#000000" d="M233.5924,-637.8588C174.3008,-658.2801 259.117,-816.7 178.5,-816.7"/>
<polygon fill="#000000" stroke="#000000" points="240.0883,-636.8855 248.5335,-639.2603 244.0442,-636.2928 248,-635.7 248,-635.7 248,-635.7 244.0442,-636.2928 247.4665,-632.1397 240.0883,-636.8855 240.0883,-636.8855"/>
<ellipse fill="none" stroke="#000000" cx="236.9236" cy="-637.3597" rx="3.2" ry="3.2"/>
</g>
<!-- act_ru_variable&#45;&gt;act_ru_execution -->
<g id="edge6" class="edge">
<title>act_ru_variable:w&#45;&gt;act_ru_execution:e</title>
<path fill="none" stroke="#000000" d="M233.3806,-615.7092C166.0993,-636.7921 268.2757,-816.7 178.5,-816.7"/>
<polygon fill="#000000" stroke="#000000" points="240.0745,-614.7893 248.4902,-617.2665 244.0372,-614.2446 248,-613.7 248,-613.7 248,-613.7 244.0372,-614.2446 247.5098,-610.1335 240.0745,-614.7893 240.0745,-614.7893"/>
<ellipse fill="none" stroke="#000000" cx="236.9043" cy="-615.225" rx="3.2" ry="3.2"/>
</g>
</g>
</svg>
