<?xml version="1.0" encoding="UTF-8" standalone="no"?>
<!DOCTYPE svg PUBLIC "-//W3C//DTD SVG 1.1//EN"
 "http://www.w3.org/Graphics/SVG/1.1/DTD/svg11.dtd">
<!-- Generated by graphviz version 2.40.1 (20161225.0304)
 -->
<!-- Title: oneDegreeRelationshipsDiagram Pages: 1 -->
<svg width="476pt" height="734pt"
 viewBox="0.00 0.00 476.00 734.20" xmlns="http://www.w3.org/2000/svg" xmlns:xlink="http://www.w3.org/1999/xlink">
<g id="graph0" class="graph" transform="scale(1 1) rotate(0) translate(4 730.2)">
<title>oneDegreeRelationshipsDiagram</title>
<polygon fill="#ffffff" stroke="transparent" points="-4,4 -4,-730.2 472,-730.2 472,4 -4,4"/>
<text text-anchor="middle" x="72.4936" y="-7.3" font-family="Helvetica,sans-Serif" font-size="11.00" fill="#000000">Generated by SchemaSpy</text>
<!-- act_ru_job -->
<g id="node1" class="node">
<title>act_ru_job</title>
<g id="a_node1"><a xlink:href="../../tables/act_ru_job.html" xlink:title="act_ru_job" target="_top">
<polygon fill="#ffffff" stroke="transparent" points="211,-38.2 211,-722.2 460,-722.2 460,-38.2 211,-38.2"/>
<polygon fill="#f5f5f5" stroke="transparent" points="213.5,-697.2 213.5,-720.2 458.5,-720.2 458.5,-697.2 213.5,-697.2"/>
<polygon fill="none" stroke="#000000" points="213.5,-697.2 213.5,-720.2 458.5,-720.2 458.5,-697.2 213.5,-697.2"/>
<text text-anchor="start" x="218.5" y="-705.8" font-family="Helvetica,sans-Serif" font-weight="bold" font-size="11.00" fill="#000000">act_ru_job</text>
<text text-anchor="start" x="423.5437" y="-705.3" font-family="Helvetica,sans-Serif" font-size="11.00" fill="#000000">[table]</text>
<polygon fill="none" stroke="#000000" points="213.5,-675.2 213.5,-697.2 374.5,-697.2 374.5,-675.2 213.5,-675.2"/>
<image xlink:href="../../images/primaryKeys.png" width="11px" height="12px" preserveAspectRatio="xMinYMin meet" x="218.5" y="-692.2"/>
<text text-anchor="start" x="233.5" y="-682.3" font-family="Helvetica,sans-Serif" font-size="11.00" fill="#000000">id_</text>
<polygon fill="none" stroke="#000000" points="374.5,-675.2 374.5,-697.2 458.5,-697.2 458.5,-675.2 374.5,-675.2"/>
<text text-anchor="start" x="377.5" y="-682.9" font-family="Helvetica,sans-Serif" font-size="11.00" fill="#000000">varchar[64]</text>
<polygon fill="none" stroke="#000000" points="213.5,-653.2 213.5,-675.2 374.5,-675.2 374.5,-653.2 213.5,-653.2"/>
<text text-anchor="start" x="233.5" y="-660.3" font-family="Helvetica,sans-Serif" font-size="11.00" fill="#000000">rev_</text>
<polygon fill="none" stroke="#000000" points="374.5,-653.2 374.5,-675.2 458.5,-675.2 458.5,-653.2 374.5,-653.2"/>
<text text-anchor="start" x="377.5" y="-660.9" font-family="Helvetica,sans-Serif" font-size="11.00" fill="#000000">int4[10]</text>
<polygon fill="none" stroke="#000000" points="213.5,-631.2 213.5,-653.2 374.5,-653.2 374.5,-631.2 213.5,-631.2"/>
<text text-anchor="start" x="233.5" y="-638.3" font-family="Helvetica,sans-Serif" font-size="11.00" fill="#000000">type_</text>
<polygon fill="none" stroke="#000000" points="374.5,-631.2 374.5,-653.2 458.5,-653.2 458.5,-631.2 374.5,-631.2"/>
<text text-anchor="start" x="377.5" y="-638.9" font-family="Helvetica,sans-Serif" font-size="11.00" fill="#000000">varchar[255]</text>
<polygon fill="none" stroke="#000000" points="213.5,-609.2 213.5,-631.2 374.5,-631.2 374.5,-609.2 213.5,-609.2"/>
<text text-anchor="start" x="233.5" y="-616.3" font-family="Helvetica,sans-Serif" font-size="11.00" fill="#000000">lock_exp_time_</text>
<polygon fill="none" stroke="#000000" points="374.5,-609.2 374.5,-631.2 458.5,-631.2 458.5,-609.2 374.5,-609.2"/>
<text text-anchor="start" x="377.3807" y="-616.9" font-family="Helvetica,sans-Serif" font-size="11.00" fill="#000000">timestamp[29,6]</text>
<polygon fill="none" stroke="#000000" points="213.5,-587.2 213.5,-609.2 374.5,-609.2 374.5,-587.2 213.5,-587.2"/>
<text text-anchor="start" x="233.5" y="-594.3" font-family="Helvetica,sans-Serif" font-size="11.00" fill="#000000">lock_owner_</text>
<polygon fill="none" stroke="#000000" points="374.5,-587.2 374.5,-609.2 458.5,-609.2 458.5,-587.2 374.5,-587.2"/>
<text text-anchor="start" x="377.5" y="-594.9" font-family="Helvetica,sans-Serif" font-size="11.00" fill="#000000">varchar[255]</text>
<polygon fill="none" stroke="#000000" points="213.5,-565.2 213.5,-587.2 374.5,-587.2 374.5,-565.2 213.5,-565.2"/>
<text text-anchor="start" x="233.5" y="-572.3" font-family="Helvetica,sans-Serif" font-size="11.00" fill="#000000">exclusive_</text>
<polygon fill="none" stroke="#000000" points="374.5,-565.2 374.5,-587.2 458.5,-587.2 458.5,-565.2 374.5,-565.2"/>
<text text-anchor="start" x="377.5" y="-572.9" font-family="Helvetica,sans-Serif" font-size="11.00" fill="#000000">bool[1]</text>
<polygon fill="#ffffff" stroke="transparent" points="213.5,-543.2 213.5,-565.2 374.5,-565.2 374.5,-543.2 213.5,-543.2"/>
<polygon fill="none" stroke="#000000" points="213.5,-543.2 213.5,-565.2 374.5,-565.2 374.5,-543.2 213.5,-543.2"/>
<text text-anchor="start" x="233.5" y="-550.3" font-family="Helvetica,sans-Serif" font-size="11.00" fill="#000000">execution_id_</text>
<polygon fill="none" stroke="#000000" points="374.5,-543.2 374.5,-565.2 458.5,-565.2 458.5,-543.2 374.5,-543.2"/>
<text text-anchor="start" x="377.5" y="-550.9" font-family="Helvetica,sans-Serif" font-size="11.00" fill="#000000">varchar[64]</text>
<polygon fill="#ffffff" stroke="transparent" points="213.5,-521.2 213.5,-543.2 374.5,-543.2 374.5,-521.2 213.5,-521.2"/>
<polygon fill="none" stroke="#000000" points="213.5,-521.2 213.5,-543.2 374.5,-543.2 374.5,-521.2 213.5,-521.2"/>
<text text-anchor="start" x="233.5" y="-528.3" font-family="Helvetica,sans-Serif" font-size="11.00" fill="#000000">root_proc_inst_id_</text>
<polygon fill="none" stroke="#000000" points="374.5,-521.2 374.5,-543.2 458.5,-543.2 458.5,-521.2 374.5,-521.2"/>
<text text-anchor="start" x="377.5" y="-528.9" font-family="Helvetica,sans-Serif" font-size="11.00" fill="#000000">varchar[64]</text>
<polygon fill="#ffffff" stroke="transparent" points="213.5,-499.2 213.5,-521.2 374.5,-521.2 374.5,-499.2 213.5,-499.2"/>
<polygon fill="none" stroke="#000000" points="213.5,-499.2 213.5,-521.2 374.5,-521.2 374.5,-499.2 213.5,-499.2"/>
<text text-anchor="start" x="233.5" y="-506.3" font-family="Helvetica,sans-Serif" font-size="11.00" fill="#000000">process_instance_id_</text>
<polygon fill="none" stroke="#000000" points="374.5,-499.2 374.5,-521.2 458.5,-521.2 458.5,-499.2 374.5,-499.2"/>
<text text-anchor="start" x="377.5" y="-506.9" font-family="Helvetica,sans-Serif" font-size="11.00" fill="#000000">varchar[64]</text>
<polygon fill="none" stroke="#000000" points="213.5,-477.2 213.5,-499.2 374.5,-499.2 374.5,-477.2 213.5,-477.2"/>
<text text-anchor="start" x="233.5" y="-484.3" font-family="Helvetica,sans-Serif" font-size="11.00" fill="#000000">process_def_id_</text>
<polygon fill="none" stroke="#000000" points="374.5,-477.2 374.5,-499.2 458.5,-499.2 458.5,-477.2 374.5,-477.2"/>
<text text-anchor="start" x="377.5" y="-484.9" font-family="Helvetica,sans-Serif" font-size="11.00" fill="#000000">varchar[64]</text>
<polygon fill="none" stroke="#000000" points="213.5,-455.2 213.5,-477.2 374.5,-477.2 374.5,-455.2 213.5,-455.2"/>
<text text-anchor="start" x="233.5" y="-462.3" font-family="Helvetica,sans-Serif" font-size="11.00" fill="#000000">process_def_key_</text>
<polygon fill="none" stroke="#000000" points="374.5,-455.2 374.5,-477.2 458.5,-477.2 458.5,-455.2 374.5,-455.2"/>
<text text-anchor="start" x="377.5" y="-462.9" font-family="Helvetica,sans-Serif" font-size="11.00" fill="#000000">varchar[255]</text>
<polygon fill="none" stroke="#000000" points="213.5,-433.2 213.5,-455.2 374.5,-455.2 374.5,-433.2 213.5,-433.2"/>
<text text-anchor="start" x="233.5" y="-440.3" font-family="Helvetica,sans-Serif" font-size="11.00" fill="#000000">retries_</text>
<polygon fill="none" stroke="#000000" points="374.5,-433.2 374.5,-455.2 458.5,-455.2 458.5,-433.2 374.5,-433.2"/>
<text text-anchor="start" x="377.5" y="-440.9" font-family="Helvetica,sans-Serif" font-size="11.00" fill="#000000">int4[10]</text>
<polygon fill="#ffffff" stroke="transparent" points="213.5,-411.2 213.5,-433.2 374.5,-433.2 374.5,-411.2 213.5,-411.2"/>
<polygon fill="none" stroke="#000000" points="213.5,-411.2 213.5,-433.2 374.5,-433.2 374.5,-411.2 213.5,-411.2"/>
<image xlink:href="../../images/foreignKeys.png" width="11px" height="12px" preserveAspectRatio="xMinYMin meet" x="218.5" y="-428.2"/>
<text text-anchor="start" x="233.5" y="-418.3" font-family="Helvetica,sans-Serif" font-size="11.00" fill="#000000">exception_stack_id_</text>
<polygon fill="none" stroke="#000000" points="374.5,-411.2 374.5,-433.2 458.5,-433.2 458.5,-411.2 374.5,-411.2"/>
<text text-anchor="start" x="377.5" y="-418.9" font-family="Helvetica,sans-Serif" font-size="11.00" fill="#000000">varchar[64]</text>
<polygon fill="none" stroke="#000000" points="213.5,-389.2 213.5,-411.2 374.5,-411.2 374.5,-389.2 213.5,-389.2"/>
<text text-anchor="start" x="233.5" y="-396.3" font-family="Helvetica,sans-Serif" font-size="11.00" fill="#000000">exception_msg_</text>
<polygon fill="none" stroke="#000000" points="374.5,-389.2 374.5,-411.2 458.5,-411.2 458.5,-389.2 374.5,-389.2"/>
<text text-anchor="start" x="377.5" y="-396.9" font-family="Helvetica,sans-Serif" font-size="11.00" fill="#000000">varchar[4000]</text>
<polygon fill="none" stroke="#000000" points="213.5,-367.2 213.5,-389.2 374.5,-389.2 374.5,-367.2 213.5,-367.2"/>
<text text-anchor="start" x="233.5" y="-374.3" font-family="Helvetica,sans-Serif" font-size="11.00" fill="#000000">failed_act_id_</text>
<polygon fill="none" stroke="#000000" points="374.5,-367.2 374.5,-389.2 458.5,-389.2 458.5,-367.2 374.5,-367.2"/>
<text text-anchor="start" x="377.5" y="-374.9" font-family="Helvetica,sans-Serif" font-size="11.00" fill="#000000">varchar[255]</text>
<polygon fill="none" stroke="#000000" points="213.5,-345.2 213.5,-367.2 374.5,-367.2 374.5,-345.2 213.5,-345.2"/>
<text text-anchor="start" x="233.5" y="-352.3" font-family="Helvetica,sans-Serif" font-size="11.00" fill="#000000">duedate_</text>
<polygon fill="none" stroke="#000000" points="374.5,-345.2 374.5,-367.2 458.5,-367.2 458.5,-345.2 374.5,-345.2"/>
<text text-anchor="start" x="377.3807" y="-352.9" font-family="Helvetica,sans-Serif" font-size="11.00" fill="#000000">timestamp[29,6]</text>
<polygon fill="none" stroke="#000000" points="213.5,-323.2 213.5,-345.2 374.5,-345.2 374.5,-323.2 213.5,-323.2"/>
<text text-anchor="start" x="233.5" y="-330.3" font-family="Helvetica,sans-Serif" font-size="11.00" fill="#000000">repeat_</text>
<polygon fill="none" stroke="#000000" points="374.5,-323.2 374.5,-345.2 458.5,-345.2 458.5,-323.2 374.5,-323.2"/>
<text text-anchor="start" x="377.5" y="-330.9" font-family="Helvetica,sans-Serif" font-size="11.00" fill="#000000">varchar[255]</text>
<polygon fill="none" stroke="#000000" points="213.5,-301.2 213.5,-323.2 374.5,-323.2 374.5,-301.2 213.5,-301.2"/>
<text text-anchor="start" x="233.5" y="-308.3" font-family="Helvetica,sans-Serif" font-size="11.00" fill="#000000">repeat_offset_</text>
<polygon fill="none" stroke="#000000" points="374.5,-301.2 374.5,-323.2 458.5,-323.2 458.5,-301.2 374.5,-301.2"/>
<text text-anchor="start" x="377.5" y="-308.9" font-family="Helvetica,sans-Serif" font-size="11.00" fill="#000000">int8[19]</text>
<polygon fill="#ffffff" stroke="transparent" points="213.5,-279.2 213.5,-301.2 374.5,-301.2 374.5,-279.2 213.5,-279.2"/>
<polygon fill="none" stroke="#000000" points="213.5,-279.2 213.5,-301.2 374.5,-301.2 374.5,-279.2 213.5,-279.2"/>
<text text-anchor="start" x="233.5" y="-286.3" font-family="Helvetica,sans-Serif" font-size="11.00" fill="#000000">handler_type_</text>
<polygon fill="none" stroke="#000000" points="374.5,-279.2 374.5,-301.2 458.5,-301.2 458.5,-279.2 374.5,-279.2"/>
<text text-anchor="start" x="377.5" y="-286.9" font-family="Helvetica,sans-Serif" font-size="11.00" fill="#000000">varchar[255]</text>
<polygon fill="#ffffff" stroke="transparent" points="213.5,-257.2 213.5,-279.2 374.5,-279.2 374.5,-257.2 213.5,-257.2"/>
<polygon fill="none" stroke="#000000" points="213.5,-257.2 213.5,-279.2 374.5,-279.2 374.5,-257.2 213.5,-257.2"/>
<text text-anchor="start" x="233.5" y="-264.3" font-family="Helvetica,sans-Serif" font-size="11.00" fill="#000000">handler_cfg_</text>
<polygon fill="none" stroke="#000000" points="374.5,-257.2 374.5,-279.2 458.5,-279.2 458.5,-257.2 374.5,-257.2"/>
<text text-anchor="start" x="377.5" y="-264.9" font-family="Helvetica,sans-Serif" font-size="11.00" fill="#000000">varchar[4000]</text>
<polygon fill="none" stroke="#000000" points="213.5,-235.2 213.5,-257.2 374.5,-257.2 374.5,-235.2 213.5,-235.2"/>
<text text-anchor="start" x="233.5" y="-242.3" font-family="Helvetica,sans-Serif" font-size="11.00" fill="#000000">deployment_id_</text>
<polygon fill="none" stroke="#000000" points="374.5,-235.2 374.5,-257.2 458.5,-257.2 458.5,-235.2 374.5,-235.2"/>
<text text-anchor="start" x="377.5" y="-242.9" font-family="Helvetica,sans-Serif" font-size="11.00" fill="#000000">varchar[64]</text>
<polygon fill="none" stroke="#000000" points="213.5,-213.2 213.5,-235.2 374.5,-235.2 374.5,-213.2 213.5,-213.2"/>
<text text-anchor="start" x="233.5" y="-220.3" font-family="Helvetica,sans-Serif" font-size="11.00" fill="#000000">suspension_state_</text>
<polygon fill="none" stroke="#000000" points="374.5,-213.2 374.5,-235.2 458.5,-235.2 458.5,-213.2 374.5,-213.2"/>
<text text-anchor="start" x="377.5" y="-220.9" font-family="Helvetica,sans-Serif" font-size="11.00" fill="#000000">int4[10]</text>
<polygon fill="#ffffff" stroke="transparent" points="213.5,-191.2 213.5,-213.2 374.5,-213.2 374.5,-191.2 213.5,-191.2"/>
<polygon fill="none" stroke="#000000" points="213.5,-191.2 213.5,-213.2 374.5,-213.2 374.5,-191.2 213.5,-191.2"/>
<text text-anchor="start" x="233.5" y="-198.3" font-family="Helvetica,sans-Serif" font-size="11.00" fill="#000000">job_def_id_</text>
<polygon fill="none" stroke="#000000" points="374.5,-191.2 374.5,-213.2 458.5,-213.2 458.5,-191.2 374.5,-191.2"/>
<text text-anchor="start" x="377.5" y="-198.9" font-family="Helvetica,sans-Serif" font-size="11.00" fill="#000000">varchar[64]</text>
<polygon fill="none" stroke="#000000" points="213.5,-169.2 213.5,-191.2 374.5,-191.2 374.5,-169.2 213.5,-169.2"/>
<text text-anchor="start" x="233.5" y="-176.3" font-family="Helvetica,sans-Serif" font-size="11.00" fill="#000000">priority_</text>
<polygon fill="none" stroke="#000000" points="374.5,-169.2 374.5,-191.2 458.5,-191.2 458.5,-169.2 374.5,-169.2"/>
<text text-anchor="start" x="377.5" y="-176.9" font-family="Helvetica,sans-Serif" font-size="11.00" fill="#000000">int8[19]</text>
<polygon fill="none" stroke="#000000" points="213.5,-147.2 213.5,-169.2 374.5,-169.2 374.5,-147.2 213.5,-147.2"/>
<text text-anchor="start" x="233.5" y="-154.3" font-family="Helvetica,sans-Serif" font-size="11.00" fill="#000000">sequence_counter_</text>
<polygon fill="none" stroke="#000000" points="374.5,-147.2 374.5,-169.2 458.5,-169.2 458.5,-147.2 374.5,-147.2"/>
<text text-anchor="start" x="377.5" y="-154.9" font-family="Helvetica,sans-Serif" font-size="11.00" fill="#000000">int8[19]</text>
<polygon fill="#ffffff" stroke="transparent" points="213.5,-125.2 213.5,-147.2 374.5,-147.2 374.5,-125.2 213.5,-125.2"/>
<polygon fill="none" stroke="#000000" points="213.5,-125.2 213.5,-147.2 374.5,-147.2 374.5,-125.2 213.5,-125.2"/>
<text text-anchor="start" x="233.5" y="-132.3" font-family="Helvetica,sans-Serif" font-size="11.00" fill="#000000">tenant_id_</text>
<polygon fill="none" stroke="#000000" points="374.5,-125.2 374.5,-147.2 458.5,-147.2 458.5,-125.2 374.5,-125.2"/>
<text text-anchor="start" x="377.5" y="-132.9" font-family="Helvetica,sans-Serif" font-size="11.00" fill="#000000">varchar[64]</text>
<polygon fill="none" stroke="#000000" points="213.5,-103.2 213.5,-125.2 374.5,-125.2 374.5,-103.2 213.5,-103.2"/>
<text text-anchor="start" x="233.5" y="-110.3" font-family="Helvetica,sans-Serif" font-size="11.00" fill="#000000">create_time_</text>
<polygon fill="none" stroke="#000000" points="374.5,-103.2 374.5,-125.2 458.5,-125.2 458.5,-103.2 374.5,-103.2"/>
<text text-anchor="start" x="377.3807" y="-110.9" font-family="Helvetica,sans-Serif" font-size="11.00" fill="#000000">timestamp[29,6]</text>
<polygon fill="none" stroke="#000000" points="213.5,-81.2 213.5,-103.2 374.5,-103.2 374.5,-81.2 213.5,-81.2"/>
<text text-anchor="start" x="233.5" y="-88.3" font-family="Helvetica,sans-Serif" font-size="11.00" fill="#000000">last_failure_log_id_</text>
<polygon fill="none" stroke="#000000" points="374.5,-81.2 374.5,-103.2 458.5,-103.2 458.5,-81.2 374.5,-81.2"/>
<text text-anchor="start" x="377.5" y="-88.9" font-family="Helvetica,sans-Serif" font-size="11.00" fill="#000000">varchar[64]</text>
<polygon fill="none" stroke="#000000" points="213.5,-59.2 213.5,-81.2 374.5,-81.2 374.5,-59.2 213.5,-59.2"/>
<text text-anchor="start" x="233.5" y="-66.3" font-family="Helvetica,sans-Serif" font-size="11.00" fill="#000000">batch_id_</text>
<polygon fill="none" stroke="#000000" points="374.5,-59.2 374.5,-81.2 458.5,-81.2 458.5,-59.2 374.5,-59.2"/>
<text text-anchor="start" x="377.5" y="-66.9" font-family="Helvetica,sans-Serif" font-size="11.00" fill="#000000">varchar[64]</text>
<polygon fill="#ffffff" stroke="transparent" points="213.5,-40.2 213.5,-59.2 298.5,-59.2 298.5,-40.2 213.5,-40.2"/>
<polygon fill="none" stroke="#000000" points="213.5,-40.2 213.5,-59.2 298.5,-59.2 298.5,-40.2 213.5,-40.2"/>
<text text-anchor="start" x="216.5" y="-46.3" font-family="Helvetica,sans-Serif" font-size="11.00" fill="#000000">&lt; 1</text>
<polygon fill="#ffffff" stroke="transparent" points="298.5,-40.2 298.5,-59.2 374.5,-59.2 374.5,-40.2 298.5,-40.2"/>
<polygon fill="none" stroke="#000000" points="298.5,-40.2 298.5,-59.2 374.5,-59.2 374.5,-40.2 298.5,-40.2"/>
<text text-anchor="start" x="365.3862" y="-46.3" font-family="Helvetica,sans-Serif" font-size="11.00" fill="#000000"> &#160;</text>
<polygon fill="#ffffff" stroke="transparent" points="374.5,-40.2 374.5,-59.2 458.5,-59.2 458.5,-40.2 374.5,-40.2"/>
<polygon fill="none" stroke="#000000" points="374.5,-40.2 374.5,-59.2 458.5,-59.2 458.5,-40.2 374.5,-40.2"/>
<text text-anchor="start" x="439.9053" y="-46.3" font-family="Helvetica,sans-Serif" font-size="11.00" fill="#000000">0 &gt;</text>
<polygon fill="none" stroke="#000000" stroke-width="2" points="212,-39.2 212,-721.2 459,-721.2 459,-39.2 212,-39.2"/>
</a>
</g>
</g>
<!-- act_ge_bytearray -->
<g id="node2" class="node">
<title>act_ge_bytearray</title>
<g id="a_node2"><a xlink:href="../../tables/act_ge_bytearray.html" xlink:title="act_ge_bytearray" target="_top">
<polygon fill="#ffffff" stroke="transparent" points="8,-285.7 8,-456.7 162,-456.7 162,-285.7 8,-285.7"/>
<polygon fill="#f5f5f5" stroke="transparent" points="8,-433.2 8,-456.2 162,-456.2 162,-433.2 8,-433.2"/>
<polygon fill="none" stroke="#000000" points="8,-433.2 8,-456.2 162,-456.2 162,-433.2 8,-433.2"/>
<text text-anchor="start" x="13" y="-441.8" font-family="Helvetica,sans-Serif" font-weight="bold" font-size="11.00" fill="#000000">act_ge_bytearray</text>
<text text-anchor="start" x="127.5219" y="-441.3" font-family="Helvetica,sans-Serif" font-size="11.00" fill="#000000">[table]</text>
<polygon fill="none" stroke="#000000" points="8,-411.2 8,-433.2 162,-433.2 162,-411.2 8,-411.2"/>
<image xlink:href="../../images/primaryKeys.png" width="11px" height="12px" preserveAspectRatio="xMinYMin meet" x="13" y="-428.2"/>
<text text-anchor="start" x="35" y="-418.3" font-family="Helvetica,sans-Serif" font-size="11.00" fill="#000000">id_</text>
<polygon fill="#ffffff" stroke="transparent" points="8,-389.2 8,-411.2 162,-411.2 162,-389.2 8,-389.2"/>
<polygon fill="none" stroke="#000000" points="8,-389.2 8,-411.2 162,-411.2 162,-389.2 8,-389.2"/>
<text text-anchor="start" x="35" y="-396.3" font-family="Helvetica,sans-Serif" font-size="11.00" fill="#000000">name_</text>
<polygon fill="#ffffff" stroke="transparent" points="8,-367.2 8,-389.2 162,-389.2 162,-367.2 8,-367.2"/>
<polygon fill="none" stroke="#000000" points="8,-367.2 8,-389.2 162,-389.2 162,-367.2 8,-367.2"/>
<image xlink:href="../../images/foreignKeys.png" width="11px" height="12px" preserveAspectRatio="xMinYMin meet" x="13" y="-384.2"/>
<text text-anchor="start" x="35" y="-374.3" font-family="Helvetica,sans-Serif" font-size="11.00" fill="#000000">deployment_id_</text>
<polygon fill="#ffffff" stroke="transparent" points="8,-345.2 8,-367.2 162,-367.2 162,-345.2 8,-345.2"/>
<polygon fill="none" stroke="#000000" points="8,-345.2 8,-367.2 162,-367.2 162,-345.2 8,-345.2"/>
<text text-anchor="start" x="35" y="-352.3" font-family="Helvetica,sans-Serif" font-size="11.00" fill="#000000">root_proc_inst_id_</text>
<polygon fill="#ffffff" stroke="transparent" points="8,-323.2 8,-345.2 162,-345.2 162,-323.2 8,-323.2"/>
<polygon fill="none" stroke="#000000" points="8,-323.2 8,-345.2 162,-345.2 162,-323.2 8,-323.2"/>
<text text-anchor="start" x="35" y="-330.3" font-family="Helvetica,sans-Serif" font-size="11.00" fill="#000000">removal_time_</text>
<polygon fill="none" stroke="#000000" points="8,-304.2 8,-323.2 162,-323.2 162,-304.2 8,-304.2"/>
<text text-anchor="start" x="11" y="-310.3" font-family="Helvetica,sans-Serif" font-size="11.00" fill="#000000">...</text>
<polygon fill="#ffffff" stroke="transparent" points="8,-285.2 8,-304.2 79,-304.2 79,-285.2 8,-285.2"/>
<polygon fill="none" stroke="#000000" points="8,-285.2 8,-304.2 79,-304.2 79,-285.2 8,-285.2"/>
<text text-anchor="start" x="11" y="-291.3" font-family="Helvetica,sans-Serif" font-size="11.00" fill="#000000">&lt; 1</text>
<polygon fill="#ffffff" stroke="transparent" points="79,-285.2 79,-304.2 116,-304.2 116,-285.2 79,-285.2"/>
<polygon fill="none" stroke="#000000" points="79,-285.2 79,-304.2 116,-304.2 116,-285.2 79,-285.2"/>
<text text-anchor="start" x="106.8862" y="-291.3" font-family="Helvetica,sans-Serif" font-size="11.00" fill="#000000"> &#160;</text>
<polygon fill="#ffffff" stroke="transparent" points="116,-285.2 116,-304.2 162,-304.2 162,-285.2 116,-285.2"/>
<polygon fill="none" stroke="#000000" points="116,-285.2 116,-304.2 162,-304.2 162,-285.2 116,-285.2"/>
<text text-anchor="start" x="143.4053" y="-291.3" font-family="Helvetica,sans-Serif" font-size="11.00" fill="#000000">3 &gt;</text>
</a>
</g>
</g>
<!-- act_ru_job&#45;&gt;act_ge_bytearray -->
<g id="edge1" class="edge">
<title>act_ru_job:w&#45;&gt;act_ge_bytearray:e</title>
<path fill="none" stroke="#000000" d="M199.0156,-422.2C186.6771,-422.2 179.1667,-422.2 162,-422.2"/>
<polygon fill="#000000" stroke="#000000" points="205.5,-422.2001 213.5,-425.8 209.5,-422.2 213.5,-422.2 213.5,-422.2 213.5,-422.2 209.5,-422.2 213.5,-418.6 205.5,-422.2001 205.5,-422.2001"/>
<ellipse fill="none" stroke="#000000" cx="202.3" cy="-422.2001" rx="3.2" ry="3.2"/>
</g>
</g>
</svg>
