<?xml version="1.0" encoding="UTF-8" standalone="no"?>
<!DOCTYPE svg PUBLIC "-//W3C//DTD SVG 1.1//EN"
 "http://www.w3.org/Graphics/SVG/1.1/DTD/svg11.dtd">
<!-- Generated by graphviz version 2.40.1 (20161225.0304)
 -->
<!-- Title: oneDegreeRelationshipsDiagram Pages: 1 -->
<svg width="256pt" height="382pt"
 viewBox="0.00 0.00 256.00 382.20" xmlns="http://www.w3.org/2000/svg" xmlns:xlink="http://www.w3.org/1999/xlink">
<g id="graph0" class="graph" transform="scale(1 1) rotate(0) translate(4 378.2)">
<title>oneDegreeRelationshipsDiagram</title>
<polygon fill="#ffffff" stroke="transparent" points="-4,4 -4,-378.2 252,-378.2 252,4 -4,4"/>
<text text-anchor="middle" x="72.4936" y="-7.3" font-family="Helvetica,sans-Serif" font-size="11.00" fill="#000000">Generated by SchemaSpy</text>
<!-- act_hi_identitylink -->
<g id="node1" class="node">
<title>act_hi_identitylink</title>
<g id="a_node1"><a xlink:href="../../tables/act_hi_identitylink.html" xlink:title="act_hi_identitylink" target="_top">
<polygon fill="#ffffff" stroke="transparent" points="8,-38.2 8,-370.2 240,-370.2 240,-38.2 8,-38.2"/>
<polygon fill="#f5f5f5" stroke="transparent" points="10,-345.2 10,-368.2 238,-368.2 238,-345.2 10,-345.2"/>
<polygon fill="none" stroke="#000000" points="10,-345.2 10,-368.2 238,-368.2 238,-345.2 10,-345.2"/>
<text text-anchor="start" x="15" y="-353.8" font-family="Helvetica,sans-Serif" font-weight="bold" font-size="11.00" fill="#000000">act_hi_identitylink</text>
<text text-anchor="start" x="203.0437" y="-353.3" font-family="Helvetica,sans-Serif" font-size="11.00" fill="#000000">[table]</text>
<polygon fill="none" stroke="#000000" points="10,-323.2 10,-345.2 154,-345.2 154,-323.2 10,-323.2"/>
<image xlink:href="../../images/primaryKeys.png" width="11px" height="12px" preserveAspectRatio="xMinYMin meet" x="15" y="-340.2"/>
<text text-anchor="start" x="30" y="-330.3" font-family="Helvetica,sans-Serif" font-size="11.00" fill="#000000">id_</text>
<polygon fill="none" stroke="#000000" points="154,-323.2 154,-345.2 238,-345.2 238,-323.2 154,-323.2"/>
<text text-anchor="start" x="157" y="-330.9" font-family="Helvetica,sans-Serif" font-size="11.00" fill="#000000">varchar[64]</text>
<polygon fill="#ffffff" stroke="transparent" points="10,-301.2 10,-323.2 154,-323.2 154,-301.2 10,-301.2"/>
<polygon fill="none" stroke="#000000" points="10,-301.2 10,-323.2 154,-323.2 154,-301.2 10,-301.2"/>
<text text-anchor="start" x="30" y="-308.3" font-family="Helvetica,sans-Serif" font-size="11.00" fill="#000000">timestamp_</text>
<polygon fill="none" stroke="#000000" points="154,-301.2 154,-323.2 238,-323.2 238,-301.2 154,-301.2"/>
<text text-anchor="start" x="156.8807" y="-308.9" font-family="Helvetica,sans-Serif" font-size="11.00" fill="#000000">timestamp[29,6]</text>
<polygon fill="none" stroke="#000000" points="10,-279.2 10,-301.2 154,-301.2 154,-279.2 10,-279.2"/>
<text text-anchor="start" x="30" y="-286.3" font-family="Helvetica,sans-Serif" font-size="11.00" fill="#000000">type_</text>
<polygon fill="none" stroke="#000000" points="154,-279.2 154,-301.2 238,-301.2 238,-279.2 154,-279.2"/>
<text text-anchor="start" x="157" y="-286.9" font-family="Helvetica,sans-Serif" font-size="11.00" fill="#000000">varchar[255]</text>
<polygon fill="#ffffff" stroke="transparent" points="10,-257.2 10,-279.2 154,-279.2 154,-257.2 10,-257.2"/>
<polygon fill="none" stroke="#000000" points="10,-257.2 10,-279.2 154,-279.2 154,-257.2 10,-257.2"/>
<text text-anchor="start" x="30" y="-264.3" font-family="Helvetica,sans-Serif" font-size="11.00" fill="#000000">user_id_</text>
<polygon fill="none" stroke="#000000" points="154,-257.2 154,-279.2 238,-279.2 238,-257.2 154,-257.2"/>
<text text-anchor="start" x="157" y="-264.9" font-family="Helvetica,sans-Serif" font-size="11.00" fill="#000000">varchar[255]</text>
<polygon fill="#ffffff" stroke="transparent" points="10,-235.2 10,-257.2 154,-257.2 154,-235.2 10,-235.2"/>
<polygon fill="none" stroke="#000000" points="10,-235.2 10,-257.2 154,-257.2 154,-235.2 10,-235.2"/>
<text text-anchor="start" x="30" y="-242.3" font-family="Helvetica,sans-Serif" font-size="11.00" fill="#000000">group_id_</text>
<polygon fill="none" stroke="#000000" points="154,-235.2 154,-257.2 238,-257.2 238,-235.2 154,-235.2"/>
<text text-anchor="start" x="157" y="-242.9" font-family="Helvetica,sans-Serif" font-size="11.00" fill="#000000">varchar[255]</text>
<polygon fill="#ffffff" stroke="transparent" points="10,-213.2 10,-235.2 154,-235.2 154,-213.2 10,-213.2"/>
<polygon fill="none" stroke="#000000" points="10,-213.2 10,-235.2 154,-235.2 154,-213.2 10,-213.2"/>
<text text-anchor="start" x="30" y="-220.3" font-family="Helvetica,sans-Serif" font-size="11.00" fill="#000000">task_id_</text>
<polygon fill="none" stroke="#000000" points="154,-213.2 154,-235.2 238,-235.2 238,-213.2 154,-213.2"/>
<text text-anchor="start" x="157" y="-220.9" font-family="Helvetica,sans-Serif" font-size="11.00" fill="#000000">varchar[64]</text>
<polygon fill="#ffffff" stroke="transparent" points="10,-191.2 10,-213.2 154,-213.2 154,-191.2 10,-191.2"/>
<polygon fill="none" stroke="#000000" points="10,-191.2 10,-213.2 154,-213.2 154,-191.2 10,-191.2"/>
<text text-anchor="start" x="30" y="-198.3" font-family="Helvetica,sans-Serif" font-size="11.00" fill="#000000">root_proc_inst_id_</text>
<polygon fill="none" stroke="#000000" points="154,-191.2 154,-213.2 238,-213.2 238,-191.2 154,-191.2"/>
<text text-anchor="start" x="157" y="-198.9" font-family="Helvetica,sans-Serif" font-size="11.00" fill="#000000">varchar[64]</text>
<polygon fill="none" stroke="#000000" points="10,-169.2 10,-191.2 154,-191.2 154,-169.2 10,-169.2"/>
<text text-anchor="start" x="30" y="-176.3" font-family="Helvetica,sans-Serif" font-size="11.00" fill="#000000">proc_def_id_</text>
<polygon fill="none" stroke="#000000" points="154,-169.2 154,-191.2 238,-191.2 238,-169.2 154,-169.2"/>
<text text-anchor="start" x="157" y="-176.9" font-family="Helvetica,sans-Serif" font-size="11.00" fill="#000000">varchar[64]</text>
<polygon fill="none" stroke="#000000" points="10,-147.2 10,-169.2 154,-169.2 154,-147.2 10,-147.2"/>
<text text-anchor="start" x="30" y="-154.3" font-family="Helvetica,sans-Serif" font-size="11.00" fill="#000000">operation_type_</text>
<polygon fill="none" stroke="#000000" points="154,-147.2 154,-169.2 238,-169.2 238,-147.2 154,-147.2"/>
<text text-anchor="start" x="157" y="-154.9" font-family="Helvetica,sans-Serif" font-size="11.00" fill="#000000">varchar[64]</text>
<polygon fill="none" stroke="#000000" points="10,-125.2 10,-147.2 154,-147.2 154,-125.2 10,-125.2"/>
<text text-anchor="start" x="30" y="-132.3" font-family="Helvetica,sans-Serif" font-size="11.00" fill="#000000">assigner_id_</text>
<polygon fill="none" stroke="#000000" points="154,-125.2 154,-147.2 238,-147.2 238,-125.2 154,-125.2"/>
<text text-anchor="start" x="157" y="-132.9" font-family="Helvetica,sans-Serif" font-size="11.00" fill="#000000">varchar[64]</text>
<polygon fill="#ffffff" stroke="transparent" points="10,-103.2 10,-125.2 154,-125.2 154,-103.2 10,-103.2"/>
<polygon fill="none" stroke="#000000" points="10,-103.2 10,-125.2 154,-125.2 154,-103.2 10,-103.2"/>
<text text-anchor="start" x="30" y="-110.3" font-family="Helvetica,sans-Serif" font-size="11.00" fill="#000000">proc_def_key_</text>
<polygon fill="none" stroke="#000000" points="154,-103.2 154,-125.2 238,-125.2 238,-103.2 154,-103.2"/>
<text text-anchor="start" x="157" y="-110.9" font-family="Helvetica,sans-Serif" font-size="11.00" fill="#000000">varchar[255]</text>
<polygon fill="#ffffff" stroke="transparent" points="10,-81.2 10,-103.2 154,-103.2 154,-81.2 10,-81.2"/>
<polygon fill="none" stroke="#000000" points="10,-81.2 10,-103.2 154,-103.2 154,-81.2 10,-81.2"/>
<text text-anchor="start" x="30" y="-88.3" font-family="Helvetica,sans-Serif" font-size="11.00" fill="#000000">tenant_id_</text>
<polygon fill="none" stroke="#000000" points="154,-81.2 154,-103.2 238,-103.2 238,-81.2 154,-81.2"/>
<text text-anchor="start" x="157" y="-88.9" font-family="Helvetica,sans-Serif" font-size="11.00" fill="#000000">varchar[64]</text>
<polygon fill="#ffffff" stroke="transparent" points="10,-59.2 10,-81.2 154,-81.2 154,-59.2 10,-59.2"/>
<polygon fill="none" stroke="#000000" points="10,-59.2 10,-81.2 154,-81.2 154,-59.2 10,-59.2"/>
<text text-anchor="start" x="30" y="-66.3" font-family="Helvetica,sans-Serif" font-size="11.00" fill="#000000">removal_time_</text>
<polygon fill="none" stroke="#000000" points="154,-59.2 154,-81.2 238,-81.2 238,-59.2 154,-59.2"/>
<text text-anchor="start" x="156.8807" y="-66.9" font-family="Helvetica,sans-Serif" font-size="11.00" fill="#000000">timestamp[29,6]</text>
<polygon fill="#ffffff" stroke="transparent" points="10,-40.2 10,-59.2 86,-59.2 86,-40.2 10,-40.2"/>
<polygon fill="none" stroke="#000000" points="10,-40.2 10,-59.2 86,-59.2 86,-40.2 10,-40.2"/>
<text text-anchor="start" x="13" y="-46.3" font-family="Helvetica,sans-Serif" font-size="11.00" fill="#000000">&lt; 0</text>
<polygon fill="#ffffff" stroke="transparent" points="86,-40.2 86,-59.2 154,-59.2 154,-40.2 86,-40.2"/>
<polygon fill="none" stroke="#000000" points="86,-40.2 86,-59.2 154,-59.2 154,-40.2 86,-40.2"/>
<text text-anchor="start" x="144.8862" y="-46.3" font-family="Helvetica,sans-Serif" font-size="11.00" fill="#000000"> &#160;</text>
<polygon fill="#ffffff" stroke="transparent" points="154,-40.2 154,-59.2 238,-59.2 238,-40.2 154,-40.2"/>
<polygon fill="none" stroke="#000000" points="154,-40.2 154,-59.2 238,-59.2 238,-40.2 154,-40.2"/>
<text text-anchor="start" x="219.4053" y="-46.3" font-family="Helvetica,sans-Serif" font-size="11.00" fill="#000000">0 &gt;</text>
<polygon fill="none" stroke="#000000" stroke-width="2" points="9,-39.2 9,-369.2 239,-369.2 239,-39.2 9,-39.2"/>
</a>
</g>
</g>
</g>
</svg>
