<?xml version="1.0" encoding="UTF-8" standalone="no"?>
<!DOCTYPE svg PUBLIC "-//W3C//DTD SVG 1.1//EN"
 "http://www.w3.org/Graphics/SVG/1.1/DTD/svg11.dtd">
<!-- Generated by graphviz version 2.40.1 (20161225.0304)
 -->
<!-- Title: twoDegreesRelationshipsDiagram Pages: 1 -->
<svg width="676pt" height="511pt"
 viewBox="0.00 0.00 676.00 511.20" xmlns="http://www.w3.org/2000/svg" xmlns:xlink="http://www.w3.org/1999/xlink">
<g id="graph0" class="graph" transform="scale(1 1) rotate(0) translate(4 507.2)">
<title>twoDegreesRelationshipsDiagram</title>
<polygon fill="#ffffff" stroke="transparent" points="-4,4 -4,-507.2 672,-507.2 672,4 -4,4"/>
<text text-anchor="middle" x="72.4936" y="-7.3" font-family="Helvetica,sans-Serif" font-size="11.00" fill="#000000">Generated by SchemaSpy</text>
<!-- act_ru_batch -->
<g id="node1" class="node">
<title>act_ru_batch</title>
<g id="a_node1"><a xlink:href="../../tables/act_ru_batch.html" xlink:title="act_ru_batch" target="_top">
<polygon fill="#ffffff" stroke="transparent" points="272,-350.2 272,-499.2 432,-499.2 432,-350.2 272,-350.2"/>
<polygon fill="#f5f5f5" stroke="transparent" points="272,-475.7 272,-498.7 432,-498.7 432,-475.7 272,-475.7"/>
<polygon fill="none" stroke="#000000" points="272,-475.7 272,-498.7 432,-498.7 432,-475.7 272,-475.7"/>
<text text-anchor="start" x="277" y="-484.3" font-family="Helvetica,sans-Serif" font-weight="bold" font-size="11.00" fill="#000000">act_ru_batch</text>
<text text-anchor="start" x="397.0437" y="-483.8" font-family="Helvetica,sans-Serif" font-size="11.00" fill="#000000">[table]</text>
<polygon fill="none" stroke="#000000" points="272,-453.7 272,-475.7 432,-475.7 432,-453.7 272,-453.7"/>
<image xlink:href="../../images/primaryKeys.png" width="11px" height="12px" preserveAspectRatio="xMinYMin meet" x="277" y="-470.7"/>
<text text-anchor="start" x="292" y="-460.8" font-family="Helvetica,sans-Serif" font-size="11.00" fill="#000000">id_</text>
<polygon fill="#ffffff" stroke="transparent" points="272,-431.7 272,-453.7 432,-453.7 432,-431.7 272,-431.7"/>
<polygon fill="none" stroke="#000000" points="272,-431.7 272,-453.7 432,-453.7 432,-431.7 272,-431.7"/>
<image xlink:href="../../images/foreignKeys.png" width="11px" height="12px" preserveAspectRatio="xMinYMin meet" x="277" y="-448.7"/>
<text text-anchor="start" x="292" y="-438.8" font-family="Helvetica,sans-Serif" font-size="11.00" fill="#000000">seed_job_def_id_</text>
<polygon fill="#ffffff" stroke="transparent" points="272,-409.7 272,-431.7 432,-431.7 432,-409.7 272,-409.7"/>
<polygon fill="none" stroke="#000000" points="272,-409.7 272,-431.7 432,-431.7 432,-409.7 272,-409.7"/>
<image xlink:href="../../images/foreignKeys.png" width="11px" height="12px" preserveAspectRatio="xMinYMin meet" x="277" y="-426.7"/>
<text text-anchor="start" x="292" y="-416.8" font-family="Helvetica,sans-Serif" font-size="11.00" fill="#000000">batch_job_def_id_</text>
<polygon fill="#ffffff" stroke="transparent" points="272,-387.7 272,-409.7 432,-409.7 432,-387.7 272,-387.7"/>
<polygon fill="none" stroke="#000000" points="272,-387.7 272,-409.7 432,-409.7 432,-387.7 272,-387.7"/>
<image xlink:href="../../images/foreignKeys.png" width="11px" height="12px" preserveAspectRatio="xMinYMin meet" x="277" y="-404.7"/>
<text text-anchor="start" x="292" y="-394.8" font-family="Helvetica,sans-Serif" font-size="11.00" fill="#000000">monitor_job_def_id_</text>
<polygon fill="none" stroke="#000000" points="272,-368.7 272,-387.7 432,-387.7 432,-368.7 272,-368.7"/>
<text text-anchor="start" x="275" y="-374.8" font-family="Helvetica,sans-Serif" font-size="11.00" fill="#000000">...</text>
<polygon fill="#ffffff" stroke="transparent" points="272,-349.7 272,-368.7 346,-368.7 346,-349.7 272,-349.7"/>
<polygon fill="none" stroke="#000000" points="272,-349.7 272,-368.7 346,-368.7 346,-349.7 272,-349.7"/>
<text text-anchor="start" x="275" y="-355.8" font-family="Helvetica,sans-Serif" font-size="11.00" fill="#000000">&lt; 3</text>
<polygon fill="#ffffff" stroke="transparent" points="346,-349.7 346,-368.7 384,-368.7 384,-349.7 346,-349.7"/>
<polygon fill="none" stroke="#000000" points="346,-349.7 346,-368.7 384,-368.7 384,-349.7 346,-349.7"/>
<text text-anchor="start" x="374.8862" y="-355.8" font-family="Helvetica,sans-Serif" font-size="11.00" fill="#000000"> &#160;</text>
<polygon fill="#ffffff" stroke="transparent" points="384,-349.7 384,-368.7 432,-368.7 432,-349.7 384,-349.7"/>
<polygon fill="none" stroke="#000000" points="384,-349.7 384,-368.7 432,-368.7 432,-349.7 384,-349.7"/>
<text text-anchor="start" x="413.4053" y="-355.8" font-family="Helvetica,sans-Serif" font-size="11.00" fill="#000000">1 &gt;</text>
</a>
</g>
</g>
<!-- act_ru_jobdef -->
<g id="node2" class="node">
<title>act_ru_jobdef</title>
<g id="a_node2"><a xlink:href="../../tables/act_ru_jobdef.html" xlink:title="act_ru_jobdef" target="_top">
<polygon fill="#ffffff" stroke="transparent" points="8,-179.7 8,-467.7 223,-467.7 223,-179.7 8,-179.7"/>
<polygon fill="#f5f5f5" stroke="transparent" points="10.5,-442.7 10.5,-465.7 221.5,-465.7 221.5,-442.7 10.5,-442.7"/>
<polygon fill="none" stroke="#000000" points="10.5,-442.7 10.5,-465.7 221.5,-465.7 221.5,-442.7 10.5,-442.7"/>
<text text-anchor="start" x="15.5" y="-451.3" font-family="Helvetica,sans-Serif" font-weight="bold" font-size="11.00" fill="#000000">act_ru_jobdef</text>
<text text-anchor="start" x="186.5437" y="-450.8" font-family="Helvetica,sans-Serif" font-size="11.00" fill="#000000">[table]</text>
<polygon fill="none" stroke="#000000" points="10.5,-420.7 10.5,-442.7 154.5,-442.7 154.5,-420.7 10.5,-420.7"/>
<image xlink:href="../../images/primaryKeys.png" width="11px" height="12px" preserveAspectRatio="xMinYMin meet" x="15.5" y="-437.7"/>
<text text-anchor="start" x="30.5" y="-427.8" font-family="Helvetica,sans-Serif" font-size="11.00" fill="#000000">id_</text>
<polygon fill="none" stroke="#000000" points="154.5,-420.7 154.5,-442.7 221.5,-442.7 221.5,-420.7 154.5,-420.7"/>
<text text-anchor="start" x="157.5" y="-428.4" font-family="Helvetica,sans-Serif" font-size="11.00" fill="#000000">varchar[64]</text>
<polygon fill="none" stroke="#000000" points="10.5,-398.7 10.5,-420.7 154.5,-420.7 154.5,-398.7 10.5,-398.7"/>
<text text-anchor="start" x="30.5" y="-405.8" font-family="Helvetica,sans-Serif" font-size="11.00" fill="#000000">rev_</text>
<polygon fill="none" stroke="#000000" points="154.5,-398.7 154.5,-420.7 221.5,-420.7 221.5,-398.7 154.5,-398.7"/>
<text text-anchor="start" x="157.5" y="-406.4" font-family="Helvetica,sans-Serif" font-size="11.00" fill="#000000">int4[10]</text>
<polygon fill="#ffffff" stroke="transparent" points="10.5,-376.7 10.5,-398.7 154.5,-398.7 154.5,-376.7 10.5,-376.7"/>
<polygon fill="none" stroke="#000000" points="10.5,-376.7 10.5,-398.7 154.5,-398.7 154.5,-376.7 10.5,-376.7"/>
<text text-anchor="start" x="30.5" y="-383.8" font-family="Helvetica,sans-Serif" font-size="11.00" fill="#000000">proc_def_id_</text>
<polygon fill="none" stroke="#000000" points="154.5,-376.7 154.5,-398.7 221.5,-398.7 221.5,-376.7 154.5,-376.7"/>
<text text-anchor="start" x="157.5" y="-384.4" font-family="Helvetica,sans-Serif" font-size="11.00" fill="#000000">varchar[64]</text>
<polygon fill="none" stroke="#000000" points="10.5,-354.7 10.5,-376.7 154.5,-376.7 154.5,-354.7 10.5,-354.7"/>
<text text-anchor="start" x="30.5" y="-361.8" font-family="Helvetica,sans-Serif" font-size="11.00" fill="#000000">proc_def_key_</text>
<polygon fill="none" stroke="#000000" points="154.5,-354.7 154.5,-376.7 221.5,-376.7 221.5,-354.7 154.5,-354.7"/>
<text text-anchor="start" x="157.4365" y="-362.4" font-family="Helvetica,sans-Serif" font-size="11.00" fill="#000000">varchar[255]</text>
<polygon fill="none" stroke="#000000" points="10.5,-332.7 10.5,-354.7 154.5,-354.7 154.5,-332.7 10.5,-332.7"/>
<text text-anchor="start" x="30.5" y="-339.8" font-family="Helvetica,sans-Serif" font-size="11.00" fill="#000000">act_id_</text>
<polygon fill="none" stroke="#000000" points="154.5,-332.7 154.5,-354.7 221.5,-354.7 221.5,-332.7 154.5,-332.7"/>
<text text-anchor="start" x="157.4365" y="-340.4" font-family="Helvetica,sans-Serif" font-size="11.00" fill="#000000">varchar[255]</text>
<polygon fill="none" stroke="#000000" points="10.5,-310.7 10.5,-332.7 154.5,-332.7 154.5,-310.7 10.5,-310.7"/>
<text text-anchor="start" x="30.5" y="-317.8" font-family="Helvetica,sans-Serif" font-size="11.00" fill="#000000">job_type_</text>
<polygon fill="none" stroke="#000000" points="154.5,-310.7 154.5,-332.7 221.5,-332.7 221.5,-310.7 154.5,-310.7"/>
<text text-anchor="start" x="157.4365" y="-318.4" font-family="Helvetica,sans-Serif" font-size="11.00" fill="#000000">varchar[255]</text>
<polygon fill="none" stroke="#000000" points="10.5,-288.7 10.5,-310.7 154.5,-310.7 154.5,-288.7 10.5,-288.7"/>
<text text-anchor="start" x="30.5" y="-295.8" font-family="Helvetica,sans-Serif" font-size="11.00" fill="#000000">job_configuration_</text>
<polygon fill="none" stroke="#000000" points="154.5,-288.7 154.5,-310.7 221.5,-310.7 221.5,-288.7 154.5,-288.7"/>
<text text-anchor="start" x="157.4365" y="-296.4" font-family="Helvetica,sans-Serif" font-size="11.00" fill="#000000">varchar[255]</text>
<polygon fill="none" stroke="#000000" points="10.5,-266.7 10.5,-288.7 154.5,-288.7 154.5,-266.7 10.5,-266.7"/>
<text text-anchor="start" x="30.5" y="-273.8" font-family="Helvetica,sans-Serif" font-size="11.00" fill="#000000">suspension_state_</text>
<polygon fill="none" stroke="#000000" points="154.5,-266.7 154.5,-288.7 221.5,-288.7 221.5,-266.7 154.5,-266.7"/>
<text text-anchor="start" x="157.5" y="-274.4" font-family="Helvetica,sans-Serif" font-size="11.00" fill="#000000">int4[10]</text>
<polygon fill="none" stroke="#000000" points="10.5,-244.7 10.5,-266.7 154.5,-266.7 154.5,-244.7 10.5,-244.7"/>
<text text-anchor="start" x="30.5" y="-251.8" font-family="Helvetica,sans-Serif" font-size="11.00" fill="#000000">job_priority_</text>
<polygon fill="none" stroke="#000000" points="154.5,-244.7 154.5,-266.7 221.5,-266.7 221.5,-244.7 154.5,-244.7"/>
<text text-anchor="start" x="157.5" y="-252.4" font-family="Helvetica,sans-Serif" font-size="11.00" fill="#000000">int8[19]</text>
<polygon fill="#ffffff" stroke="transparent" points="10.5,-222.7 10.5,-244.7 154.5,-244.7 154.5,-222.7 10.5,-222.7"/>
<polygon fill="none" stroke="#000000" points="10.5,-222.7 10.5,-244.7 154.5,-244.7 154.5,-222.7 10.5,-222.7"/>
<text text-anchor="start" x="30.5" y="-229.8" font-family="Helvetica,sans-Serif" font-size="11.00" fill="#000000">tenant_id_</text>
<polygon fill="none" stroke="#000000" points="154.5,-222.7 154.5,-244.7 221.5,-244.7 221.5,-222.7 154.5,-222.7"/>
<text text-anchor="start" x="157.5" y="-230.4" font-family="Helvetica,sans-Serif" font-size="11.00" fill="#000000">varchar[64]</text>
<polygon fill="none" stroke="#000000" points="10.5,-200.7 10.5,-222.7 154.5,-222.7 154.5,-200.7 10.5,-200.7"/>
<text text-anchor="start" x="30.5" y="-207.8" font-family="Helvetica,sans-Serif" font-size="11.00" fill="#000000">deployment_id_</text>
<polygon fill="none" stroke="#000000" points="154.5,-200.7 154.5,-222.7 221.5,-222.7 221.5,-200.7 154.5,-200.7"/>
<text text-anchor="start" x="157.5" y="-208.4" font-family="Helvetica,sans-Serif" font-size="11.00" fill="#000000">varchar[64]</text>
<polygon fill="#ffffff" stroke="transparent" points="10.5,-181.7 10.5,-200.7 86.5,-200.7 86.5,-181.7 10.5,-181.7"/>
<polygon fill="none" stroke="#000000" points="10.5,-181.7 10.5,-200.7 86.5,-200.7 86.5,-181.7 10.5,-181.7"/>
<text text-anchor="start" x="13.5" y="-187.8" font-family="Helvetica,sans-Serif" font-size="11.00" fill="#000000">&lt; 0</text>
<polygon fill="#ffffff" stroke="transparent" points="86.5,-181.7 86.5,-200.7 154.5,-200.7 154.5,-181.7 86.5,-181.7"/>
<polygon fill="none" stroke="#000000" points="86.5,-181.7 86.5,-200.7 154.5,-200.7 154.5,-181.7 86.5,-181.7"/>
<text text-anchor="start" x="145.3862" y="-187.8" font-family="Helvetica,sans-Serif" font-size="11.00" fill="#000000"> &#160;</text>
<polygon fill="#ffffff" stroke="transparent" points="154.5,-181.7 154.5,-200.7 221.5,-200.7 221.5,-181.7 154.5,-181.7"/>
<polygon fill="none" stroke="#000000" points="154.5,-181.7 154.5,-200.7 221.5,-200.7 221.5,-181.7 154.5,-181.7"/>
<text text-anchor="start" x="202.9053" y="-187.8" font-family="Helvetica,sans-Serif" font-size="11.00" fill="#000000">4 &gt;</text>
<polygon fill="none" stroke="#000000" stroke-width="2" points="9,-180.7 9,-466.7 222,-466.7 222,-180.7 9,-180.7"/>
</a>
</g>
</g>
<!-- act_ru_batch&#45;&gt;act_ru_jobdef -->
<g id="edge1" class="edge">
<title>act_ru_batch:w&#45;&gt;act_ru_jobdef:e</title>
<path fill="none" stroke="#000000" d="M257.6489,-422.4188C245.5992,-425.5125 238.728,-431.7 221.5,-431.7"/>
<polygon fill="#000000" stroke="#000000" points="264.0568,-421.6514 272.4281,-424.2745 268.0284,-421.1757 272,-420.7 272,-420.7 272,-420.7 268.0284,-421.1757 271.5719,-417.1255 264.0568,-421.6514 264.0568,-421.6514"/>
<ellipse fill="none" stroke="#000000" cx="260.8795" cy="-422.0319" rx="3.2" ry="3.2"/>
</g>
<!-- act_ru_batch&#45;&gt;act_ru_jobdef -->
<g id="edge2" class="edge">
<title>act_ru_batch:w&#45;&gt;act_ru_jobdef:e</title>
<path fill="none" stroke="#000000" d="M258.0755,-402.7464C245.1224,-411.5584 242.4466,-431.7 221.5,-431.7"/>
<polygon fill="#000000" stroke="#000000" points="264.3178,-400.9325 273.0046,-402.157 268.1589,-399.8162 272,-398.7 272,-398.7 272,-398.7 268.1589,-399.8162 270.9954,-395.243 264.3178,-400.9325 264.3178,-400.9325"/>
<ellipse fill="none" stroke="#000000" cx="261.2449" cy="-401.8255" rx="3.2" ry="3.2"/>
</g>
<!-- act_ru_batch&#45;&gt;act_ru_jobdef -->
<g id="edge3" class="edge">
<title>act_ru_batch:w&#45;&gt;act_ru_jobdef:e</title>
<path fill="none" stroke="#000000" d="M257.6489,-440.9813C245.5992,-437.8875 238.728,-431.7 221.5,-431.7"/>
<polygon fill="#000000" stroke="#000000" points="264.0568,-441.7486 271.5719,-446.2745 268.0284,-442.2243 272,-442.7 272,-442.7 272,-442.7 268.0284,-442.2243 272.4281,-439.1255 264.0568,-441.7486 264.0568,-441.7486"/>
<ellipse fill="none" stroke="#000000" cx="260.8795" cy="-441.3681" rx="3.2" ry="3.2"/>
</g>
<!-- act_ru_execution -->
<g id="node3" class="node">
<title>act_ru_execution</title>
<g id="a_node3"><a xlink:href="../../tables/act_ru_execution.html" xlink:title="act_ru_execution" target="_top">
<polygon fill="#ffffff" stroke="transparent" points="276,-213.2 276,-274.2 428,-274.2 428,-213.2 276,-213.2"/>
<polygon fill="#f5f5f5" stroke="transparent" points="276,-250.7 276,-273.7 428,-273.7 428,-250.7 276,-250.7"/>
<polygon fill="none" stroke="#000000" points="276,-250.7 276,-273.7 428,-273.7 428,-250.7 276,-250.7"/>
<text text-anchor="start" x="281" y="-259.3" font-family="Helvetica,sans-Serif" font-weight="bold" font-size="11.00" fill="#000000">act_ru_execution</text>
<text text-anchor="start" x="393.5219" y="-258.8" font-family="Helvetica,sans-Serif" font-size="11.00" fill="#000000">[table]</text>
<polygon fill="none" stroke="#000000" points="276,-231.7 276,-250.7 428,-250.7 428,-231.7 276,-231.7"/>
<text text-anchor="start" x="279" y="-237.8" font-family="Helvetica,sans-Serif" font-size="11.00" fill="#000000">...</text>
<polygon fill="#ffffff" stroke="transparent" points="276,-212.7 276,-231.7 343,-231.7 343,-212.7 276,-212.7"/>
<polygon fill="none" stroke="#000000" points="276,-212.7 276,-231.7 343,-231.7 343,-212.7 276,-212.7"/>
<text text-anchor="start" x="279" y="-218.8" font-family="Helvetica,sans-Serif" font-size="11.00" fill="#000000">&lt; 4</text>
<polygon fill="#ffffff" stroke="transparent" points="343,-212.7 343,-231.7 378,-231.7 378,-212.7 343,-212.7"/>
<polygon fill="none" stroke="#000000" points="343,-212.7 343,-231.7 378,-231.7 378,-212.7 343,-212.7"/>
<text text-anchor="start" x="368.8862" y="-218.8" font-family="Helvetica,sans-Serif" font-size="11.00" fill="#000000"> &#160;</text>
<polygon fill="#ffffff" stroke="transparent" points="378,-212.7 378,-231.7 428,-231.7 428,-212.7 378,-212.7"/>
<polygon fill="none" stroke="#000000" points="378,-212.7 378,-231.7 428,-231.7 428,-212.7 378,-212.7"/>
<text text-anchor="start" x="403.2904" y="-218.8" font-family="Helvetica,sans-Serif" font-size="11.00" fill="#000000">11 &gt;</text>
</a>
</g>
</g>
<!-- act_re_procdef -->
<g id="node4" class="node">
<title>act_re_procdef</title>
<g id="a_node4"><a xlink:href="../../tables/act_re_procdef.html" xlink:title="act_re_procdef" target="_top">
<polygon fill="#ffffff" stroke="transparent" points="47,-97.2 47,-158.2 184,-158.2 184,-97.2 47,-97.2"/>
<polygon fill="#f5f5f5" stroke="transparent" points="47.5,-134.7 47.5,-157.7 184.5,-157.7 184.5,-134.7 47.5,-134.7"/>
<polygon fill="none" stroke="#000000" points="47.5,-134.7 47.5,-157.7 184.5,-157.7 184.5,-134.7 47.5,-134.7"/>
<text text-anchor="start" x="52.5" y="-143.3" font-family="Helvetica,sans-Serif" font-weight="bold" font-size="11.00" fill="#000000">act_re_procdef</text>
<text text-anchor="start" x="150.0219" y="-142.8" font-family="Helvetica,sans-Serif" font-size="11.00" fill="#000000">[table]</text>
<polygon fill="none" stroke="#000000" points="47.5,-115.7 47.5,-134.7 184.5,-134.7 184.5,-115.7 47.5,-115.7"/>
<text text-anchor="start" x="50.5" y="-121.8" font-family="Helvetica,sans-Serif" font-size="11.00" fill="#000000">...</text>
<polygon fill="#ffffff" stroke="transparent" points="47.5,-96.7 47.5,-115.7 105.5,-115.7 105.5,-96.7 47.5,-96.7"/>
<polygon fill="none" stroke="#000000" points="47.5,-96.7 47.5,-115.7 105.5,-115.7 105.5,-96.7 47.5,-96.7"/>
<text text-anchor="start" x="50.5" y="-102.8" font-family="Helvetica,sans-Serif" font-size="11.00" fill="#000000"> &#160;</text>
<polygon fill="#ffffff" stroke="transparent" points="105.5,-96.7 105.5,-115.7 140.5,-115.7 140.5,-96.7 105.5,-96.7"/>
<polygon fill="none" stroke="#000000" points="105.5,-96.7 105.5,-115.7 140.5,-115.7 140.5,-96.7 105.5,-96.7"/>
<text text-anchor="start" x="131.3862" y="-102.8" font-family="Helvetica,sans-Serif" font-size="11.00" fill="#000000"> &#160;</text>
<polygon fill="#ffffff" stroke="transparent" points="140.5,-96.7 140.5,-115.7 184.5,-115.7 184.5,-96.7 140.5,-96.7"/>
<polygon fill="none" stroke="#000000" points="140.5,-96.7 140.5,-115.7 184.5,-115.7 184.5,-96.7 140.5,-96.7"/>
<text text-anchor="start" x="165.9053" y="-102.8" font-family="Helvetica,sans-Serif" font-size="11.00" fill="#000000">4 &gt;</text>
</a>
</g>
</g>
<!-- act_ru_execution&#45;&gt;act_re_procdef -->
<g id="edge4" class="edge">
<title>act_ru_execution:w&#45;&gt;act_re_procdef:e</title>
<path fill="none" stroke="#000000" d="M261.663,-237.6385C242.5525,-227.3406 251.0707,-193.2269 231,-168.7 212.9812,-146.6806 212.9523,-124.7 184.5,-124.7"/>
<polygon fill="#000000" stroke="#000000" points="268.1764,-239.0293 275.2482,-244.2206 272.0882,-239.8647 276,-240.7 276,-240.7 276,-240.7 272.0882,-239.8647 276.7518,-237.1794 268.1764,-239.0293 268.1764,-239.0293"/>
<ellipse fill="none" stroke="#000000" cx="265.0469" cy="-238.361" rx="3.2" ry="3.2"/>
</g>
<!-- act_ru_incident -->
<g id="node5" class="node">
<title>act_ru_incident</title>
<g id="a_node5"><a xlink:href="../../tables/act_ru_incident.html" xlink:title="act_ru_incident" target="_top">
<polygon fill="#ffffff" stroke="transparent" points="481,-38.2 481,-297.2 660,-297.2 660,-38.2 481,-38.2"/>
<polygon fill="#f5f5f5" stroke="transparent" points="481.5,-273.7 481.5,-296.7 660.5,-296.7 660.5,-273.7 481.5,-273.7"/>
<polygon fill="none" stroke="#000000" points="481.5,-273.7 481.5,-296.7 660.5,-296.7 660.5,-273.7 481.5,-273.7"/>
<text text-anchor="start" x="486.5" y="-282.3" font-family="Helvetica,sans-Serif" font-weight="bold" font-size="11.00" fill="#000000">act_ru_incident</text>
<text text-anchor="start" x="625.5437" y="-281.8" font-family="Helvetica,sans-Serif" font-size="11.00" fill="#000000">[table]</text>
<polygon fill="none" stroke="#000000" points="481.5,-251.7 481.5,-273.7 660.5,-273.7 660.5,-251.7 481.5,-251.7"/>
<image xlink:href="../../images/primaryKeys.png" width="11px" height="12px" preserveAspectRatio="xMinYMin meet" x="486.5" y="-268.7"/>
<text text-anchor="start" x="501.5" y="-258.8" font-family="Helvetica,sans-Serif" font-size="11.00" fill="#000000">id_</text>
<polygon fill="#ffffff" stroke="transparent" points="481.5,-229.7 481.5,-251.7 660.5,-251.7 660.5,-229.7 481.5,-229.7"/>
<polygon fill="none" stroke="#000000" points="481.5,-229.7 481.5,-251.7 660.5,-251.7 660.5,-229.7 481.5,-229.7"/>
<image xlink:href="../../images/foreignKeys.png" width="11px" height="12px" preserveAspectRatio="xMinYMin meet" x="486.5" y="-246.7"/>
<text text-anchor="start" x="501.5" y="-236.8" font-family="Helvetica,sans-Serif" font-size="11.00" fill="#000000">execution_id_</text>
<polygon fill="#ffffff" stroke="transparent" points="481.5,-207.7 481.5,-229.7 660.5,-229.7 660.5,-207.7 481.5,-207.7"/>
<polygon fill="none" stroke="#000000" points="481.5,-207.7 481.5,-229.7 660.5,-229.7 660.5,-207.7 481.5,-207.7"/>
<image xlink:href="../../images/foreignKeys.png" width="11px" height="12px" preserveAspectRatio="xMinYMin meet" x="486.5" y="-224.7"/>
<text text-anchor="start" x="501.5" y="-214.8" font-family="Helvetica,sans-Serif" font-size="11.00" fill="#000000">proc_inst_id_</text>
<polygon fill="#ffffff" stroke="transparent" points="481.5,-185.7 481.5,-207.7 660.5,-207.7 660.5,-185.7 481.5,-185.7"/>
<polygon fill="none" stroke="#000000" points="481.5,-185.7 481.5,-207.7 660.5,-207.7 660.5,-185.7 481.5,-185.7"/>
<image xlink:href="../../images/foreignKeys.png" width="11px" height="12px" preserveAspectRatio="xMinYMin meet" x="486.5" y="-202.7"/>
<text text-anchor="start" x="501.5" y="-192.8" font-family="Helvetica,sans-Serif" font-size="11.00" fill="#000000">proc_def_id_</text>
<polygon fill="#ffffff" stroke="transparent" points="481.5,-163.7 481.5,-185.7 660.5,-185.7 660.5,-163.7 481.5,-163.7"/>
<polygon fill="none" stroke="#000000" points="481.5,-163.7 481.5,-185.7 660.5,-185.7 660.5,-163.7 481.5,-163.7"/>
<image xlink:href="../../images/foreignKeys.png" width="11px" height="12px" preserveAspectRatio="xMinYMin meet" x="486.5" y="-180.7"/>
<text text-anchor="start" x="501.5" y="-170.8" font-family="Helvetica,sans-Serif" font-size="11.00" fill="#000000">cause_incident_id_</text>
<polygon fill="#ffffff" stroke="transparent" points="481.5,-141.7 481.5,-163.7 660.5,-163.7 660.5,-141.7 481.5,-141.7"/>
<polygon fill="none" stroke="#000000" points="481.5,-141.7 481.5,-163.7 660.5,-163.7 660.5,-141.7 481.5,-141.7"/>
<image xlink:href="../../images/foreignKeys.png" width="11px" height="12px" preserveAspectRatio="xMinYMin meet" x="486.5" y="-158.7"/>
<text text-anchor="start" x="501.5" y="-148.8" font-family="Helvetica,sans-Serif" font-size="11.00" fill="#000000">root_cause_incident_id_</text>
<polygon fill="#ffffff" stroke="transparent" points="481.5,-119.7 481.5,-141.7 660.5,-141.7 660.5,-119.7 481.5,-119.7"/>
<polygon fill="none" stroke="#000000" points="481.5,-119.7 481.5,-141.7 660.5,-141.7 660.5,-119.7 481.5,-119.7"/>
<text text-anchor="start" x="501.5" y="-126.8" font-family="Helvetica,sans-Serif" font-size="11.00" fill="#000000">configuration_</text>
<polygon fill="#ffffff" stroke="transparent" points="481.5,-97.7 481.5,-119.7 660.5,-119.7 660.5,-97.7 481.5,-97.7"/>
<polygon fill="none" stroke="#000000" points="481.5,-97.7 481.5,-119.7 660.5,-119.7 660.5,-97.7 481.5,-97.7"/>
<text text-anchor="start" x="501.5" y="-104.8" font-family="Helvetica,sans-Serif" font-size="11.00" fill="#000000">tenant_id_</text>
<polygon fill="#ffffff" stroke="transparent" points="481.5,-75.7 481.5,-97.7 660.5,-97.7 660.5,-75.7 481.5,-75.7"/>
<polygon fill="none" stroke="#000000" points="481.5,-75.7 481.5,-97.7 660.5,-97.7 660.5,-75.7 481.5,-75.7"/>
<image xlink:href="../../images/foreignKeys.png" width="11px" height="12px" preserveAspectRatio="xMinYMin meet" x="486.5" y="-92.7"/>
<text text-anchor="start" x="501.5" y="-82.8" font-family="Helvetica,sans-Serif" font-size="11.00" fill="#000000">job_def_id_</text>
<polygon fill="none" stroke="#000000" points="481.5,-56.7 481.5,-75.7 660.5,-75.7 660.5,-56.7 481.5,-56.7"/>
<text text-anchor="start" x="484.5" y="-62.8" font-family="Helvetica,sans-Serif" font-size="11.00" fill="#000000">...</text>
<polygon fill="#ffffff" stroke="transparent" points="481.5,-37.7 481.5,-56.7 564.5,-56.7 564.5,-37.7 481.5,-37.7"/>
<polygon fill="none" stroke="#000000" points="481.5,-37.7 481.5,-56.7 564.5,-56.7 564.5,-37.7 481.5,-37.7"/>
<text text-anchor="start" x="484.5" y="-43.8" font-family="Helvetica,sans-Serif" font-size="11.00" fill="#000000">&lt; 6</text>
<polygon fill="#ffffff" stroke="transparent" points="564.5,-37.7 564.5,-56.7 607.5,-56.7 607.5,-37.7 564.5,-37.7"/>
<polygon fill="none" stroke="#000000" points="564.5,-37.7 564.5,-56.7 607.5,-56.7 607.5,-37.7 564.5,-37.7"/>
<text text-anchor="start" x="598.3862" y="-43.8" font-family="Helvetica,sans-Serif" font-size="11.00" fill="#000000"> &#160;</text>
<polygon fill="#ffffff" stroke="transparent" points="607.5,-37.7 607.5,-56.7 660.5,-56.7 660.5,-37.7 607.5,-37.7"/>
<polygon fill="none" stroke="#000000" points="607.5,-37.7 607.5,-56.7 660.5,-56.7 660.5,-37.7 607.5,-37.7"/>
<text text-anchor="start" x="641.9053" y="-43.8" font-family="Helvetica,sans-Serif" font-size="11.00" fill="#000000">2 &gt;</text>
</a>
</g>
</g>
<!-- act_ru_incident&#45;&gt;act_ru_jobdef -->
<g id="edge6" class="edge">
<title>act_ru_incident:w&#45;&gt;act_ru_jobdef:e</title>
<path fill="none" stroke="#000000" d="M466.8255,-86.8777C367.9327,-89.3631 325.7648,-118.3731 264,-202.7 233.4164,-244.4555 273.2579,-431.7 221.5,-431.7"/>
<polygon fill="#000000" stroke="#000000" points="473.5006,-86.7969 481.5436,-90.2997 477.5003,-86.7485 481.5,-86.7 481.5,-86.7 481.5,-86.7 477.5003,-86.7485 481.4564,-83.1003 473.5006,-86.7969 473.5006,-86.7969"/>
<ellipse fill="none" stroke="#000000" cx="470.3008" cy="-86.8357" rx="3.2" ry="3.2"/>
</g>
<!-- act_ru_incident&#45;&gt;act_ru_execution -->
<g id="edge5" class="edge">
<title>act_ru_incident:w&#45;&gt;act_ru_execution:e</title>
<path fill="none" stroke="#000000" d="M466.8553,-240.7C453.7969,-240.7 446.0191,-240.7 428,-240.7"/>
<polygon fill="#000000" stroke="#000000" points="473.5,-240.7001 481.5,-244.3 477.5,-240.7 481.5,-240.7 481.5,-240.7 481.5,-240.7 477.5,-240.7 481.5,-237.1 473.5,-240.7001 473.5,-240.7001"/>
<ellipse fill="none" stroke="#000000" cx="470.3" cy="-240.7001" rx="3.2" ry="3.2"/>
</g>
<!-- act_ru_incident&#45;&gt;act_ru_execution -->
<g id="edge8" class="edge">
<title>act_ru_incident:w&#45;&gt;act_ru_execution:e</title>
<path fill="none" stroke="#000000" d="M467.1145,-221.5761C453.6346,-227.5395 447.8848,-240.7 428,-240.7"/>
<polygon fill="#000000" stroke="#000000" points="473.6553,-220.2685 482.2058,-222.2301 477.5776,-219.4842 481.5,-218.7 481.5,-218.7 481.5,-218.7 477.5776,-219.4842 480.7942,-215.1699 473.6553,-220.2685 473.6553,-220.2685"/>
<ellipse fill="none" stroke="#000000" cx="470.5174" cy="-220.8958" rx="3.2" ry="3.2"/>
</g>
<!-- act_ru_incident&#45;&gt;act_re_procdef -->
<g id="edge7" class="edge">
<title>act_ru_incident:w&#45;&gt;act_re_procdef:e</title>
<path fill="none" stroke="#000000" d="M466.8241,-196.4099C343.6428,-191.4554 315.2831,-124.7 184.5,-124.7"/>
<polygon fill="#000000" stroke="#000000" points="473.5016,-196.5418 481.4288,-200.2993 477.5008,-196.6209 481.5,-196.7 481.5,-196.7 481.5,-196.7 477.5008,-196.6209 481.5712,-193.1007 473.5016,-196.5418 473.5016,-196.5418"/>
<ellipse fill="none" stroke="#000000" cx="470.3022" cy="-196.4786" rx="3.2" ry="3.2"/>
</g>
<!-- act_ru_variable -->
<g id="node6" class="node">
<title>act_ru_variable</title>
<g id="a_node6"><a xlink:href="../../tables/act_ru_variable.html" xlink:title="act_ru_variable" target="_top">
<polygon fill="#ffffff" stroke="transparent" points="500,-318.2 500,-379.2 641,-379.2 641,-318.2 500,-318.2"/>
<polygon fill="#f5f5f5" stroke="transparent" points="500.5,-355.7 500.5,-378.7 641.5,-378.7 641.5,-355.7 500.5,-355.7"/>
<polygon fill="none" stroke="#000000" points="500.5,-355.7 500.5,-378.7 641.5,-378.7 641.5,-355.7 500.5,-355.7"/>
<text text-anchor="start" x="505.5" y="-364.3" font-family="Helvetica,sans-Serif" font-weight="bold" font-size="11.00" fill="#000000">act_ru_variable</text>
<text text-anchor="start" x="607.0219" y="-363.8" font-family="Helvetica,sans-Serif" font-size="11.00" fill="#000000">[table]</text>
<polygon fill="none" stroke="#000000" points="500.5,-336.7 500.5,-355.7 641.5,-355.7 641.5,-336.7 500.5,-336.7"/>
<text text-anchor="start" x="503.5" y="-342.8" font-family="Helvetica,sans-Serif" font-size="11.00" fill="#000000">...</text>
<polygon fill="#ffffff" stroke="transparent" points="500.5,-317.7 500.5,-336.7 569.5,-336.7 569.5,-317.7 500.5,-317.7"/>
<polygon fill="none" stroke="#000000" points="500.5,-317.7 500.5,-336.7 569.5,-336.7 569.5,-317.7 500.5,-317.7"/>
<text text-anchor="start" x="503.5" y="-323.8" font-family="Helvetica,sans-Serif" font-size="11.00" fill="#000000">&lt; 6</text>
<polygon fill="#ffffff" stroke="transparent" points="569.5,-317.7 569.5,-336.7 605.5,-336.7 605.5,-317.7 569.5,-317.7"/>
<polygon fill="none" stroke="#000000" points="569.5,-317.7 569.5,-336.7 605.5,-336.7 605.5,-317.7 569.5,-317.7"/>
<text text-anchor="start" x="596.3862" y="-323.8" font-family="Helvetica,sans-Serif" font-size="11.00" fill="#000000"> &#160;</text>
<polygon fill="#ffffff" stroke="transparent" points="605.5,-317.7 605.5,-336.7 641.5,-336.7 641.5,-317.7 605.5,-317.7"/>
<polygon fill="none" stroke="#000000" points="605.5,-317.7 605.5,-336.7 641.5,-336.7 641.5,-317.7 605.5,-317.7"/>
<text text-anchor="start" x="632.3862" y="-323.8" font-family="Helvetica,sans-Serif" font-size="11.00" fill="#000000"> &#160;</text>
</a>
</g>
</g>
<!-- act_ru_variable&#45;&gt;act_ru_batch -->
<g id="edge9" class="edge">
<title>act_ru_variable:w&#45;&gt;act_ru_batch:e</title>
<path fill="none" stroke="#000000" d="M486.1688,-348.6416C448.5084,-366.9666 487.3043,-464.7 432,-464.7"/>
<polygon fill="#000000" stroke="#000000" points="492.6634,-347.3086 501.2239,-349.2265 496.5817,-346.5043 500.5,-345.7 500.5,-345.7 500.5,-345.7 496.5817,-346.5043 499.7761,-342.1735 492.6634,-347.3086 492.6634,-347.3086"/>
<ellipse fill="none" stroke="#000000" cx="489.5287" cy="-347.952" rx="3.2" ry="3.2"/>
</g>
<!-- act_ru_variable&#45;&gt;act_ru_execution -->
<g id="edge10" class="edge">
<title>act_ru_variable:w&#45;&gt;act_ru_execution:e</title>
<path fill="none" stroke="#000000" d="M486.4971,-341.3054C450.851,-320.2508 479.1721,-235.2859 428,-240.7"/>
<polygon fill="#000000" stroke="#000000" points="492.8671,-343.3045 499.422,-349.1348 496.6835,-344.5022 500.5,-345.7 500.5,-345.7 500.5,-345.7 496.6835,-344.5022 501.578,-342.2652 492.8671,-343.3045 492.8671,-343.3045"/>
<ellipse fill="none" stroke="#000000" cx="489.8139" cy="-342.3462" rx="3.2" ry="3.2"/>
</g>
<!-- act_ru_variable&#45;&gt;act_ru_execution -->
<g id="edge11" class="edge">
<title>act_ru_variable:w&#45;&gt;act_ru_execution:e</title>
<path fill="none" stroke="#000000" d="M486.0377,-344.587C451.0947,-332.3827 478.9506,-246.9891 428,-240.7"/>
<polygon fill="#000000" stroke="#000000" points="492.5236,-345.0861 500.2237,-349.2894 496.5118,-345.393 500.5,-345.7 500.5,-345.7 500.5,-345.7 496.5118,-345.393 500.7763,-342.1106 492.5236,-345.0861 492.5236,-345.0861"/>
<ellipse fill="none" stroke="#000000" cx="489.333" cy="-344.8405" rx="3.2" ry="3.2"/>
</g>
</g>
</svg>
