<?xml version="1.0" encoding="UTF-8" standalone="no"?>
<!DOCTYPE svg PUBLIC "-//W3C//DTD SVG 1.1//EN"
 "http://www.w3.org/Graphics/SVG/1.1/DTD/svg11.dtd">
<!-- Generated by graphviz version 2.40.1 (20161225.0304)
 -->
<!-- Title: oneDegreeRelationshipsDiagram Pages: 1 -->
<svg width="467pt" height="479pt"
 viewBox="0.00 0.00 467.00 479.20" xmlns="http://www.w3.org/2000/svg" xmlns:xlink="http://www.w3.org/1999/xlink">
<g id="graph0" class="graph" transform="scale(1 1) rotate(0) translate(4 475.2)">
<title>oneDegreeRelationshipsDiagram</title>
<polygon fill="#ffffff" stroke="transparent" points="-4,4 -4,-475.2 463,-475.2 463,4 -4,4"/>
<text text-anchor="middle" x="72.4936" y="-7.3" font-family="Helvetica,sans-Serif" font-size="11.00" fill="#000000">Generated by SchemaSpy</text>
<!-- act_ru_batch -->
<g id="node1" class="node">
<title>act_ru_batch</title>
<g id="a_node1"><a xlink:href="../../tables/act_ru_batch.html" xlink:title="act_ru_batch" target="_top">
<polygon fill="#ffffff" stroke="transparent" points="281.5,-318.2 281.5,-467.2 441.5,-467.2 441.5,-318.2 281.5,-318.2"/>
<polygon fill="#f5f5f5" stroke="transparent" points="281.5,-443.7 281.5,-466.7 441.5,-466.7 441.5,-443.7 281.5,-443.7"/>
<polygon fill="none" stroke="#000000" points="281.5,-443.7 281.5,-466.7 441.5,-466.7 441.5,-443.7 281.5,-443.7"/>
<text text-anchor="start" x="286.5" y="-452.3" font-family="Helvetica,sans-Serif" font-weight="bold" font-size="11.00" fill="#000000">act_ru_batch</text>
<text text-anchor="start" x="406.5437" y="-451.8" font-family="Helvetica,sans-Serif" font-size="11.00" fill="#000000">[table]</text>
<polygon fill="none" stroke="#000000" points="281.5,-421.7 281.5,-443.7 441.5,-443.7 441.5,-421.7 281.5,-421.7"/>
<image xlink:href="../../images/primaryKeys.png" width="11px" height="12px" preserveAspectRatio="xMinYMin meet" x="286.5" y="-438.7"/>
<text text-anchor="start" x="301.5" y="-428.8" font-family="Helvetica,sans-Serif" font-size="11.00" fill="#000000">id_</text>
<polygon fill="#ffffff" stroke="transparent" points="281.5,-399.7 281.5,-421.7 441.5,-421.7 441.5,-399.7 281.5,-399.7"/>
<polygon fill="none" stroke="#000000" points="281.5,-399.7 281.5,-421.7 441.5,-421.7 441.5,-399.7 281.5,-399.7"/>
<image xlink:href="../../images/foreignKeys.png" width="11px" height="12px" preserveAspectRatio="xMinYMin meet" x="286.5" y="-416.7"/>
<text text-anchor="start" x="301.5" y="-406.8" font-family="Helvetica,sans-Serif" font-size="11.00" fill="#000000">seed_job_def_id_</text>
<polygon fill="#ffffff" stroke="transparent" points="281.5,-377.7 281.5,-399.7 441.5,-399.7 441.5,-377.7 281.5,-377.7"/>
<polygon fill="none" stroke="#000000" points="281.5,-377.7 281.5,-399.7 441.5,-399.7 441.5,-377.7 281.5,-377.7"/>
<image xlink:href="../../images/foreignKeys.png" width="11px" height="12px" preserveAspectRatio="xMinYMin meet" x="286.5" y="-394.7"/>
<text text-anchor="start" x="301.5" y="-384.8" font-family="Helvetica,sans-Serif" font-size="11.00" fill="#000000">batch_job_def_id_</text>
<polygon fill="#ffffff" stroke="transparent" points="281.5,-355.7 281.5,-377.7 441.5,-377.7 441.5,-355.7 281.5,-355.7"/>
<polygon fill="none" stroke="#000000" points="281.5,-355.7 281.5,-377.7 441.5,-377.7 441.5,-355.7 281.5,-355.7"/>
<image xlink:href="../../images/foreignKeys.png" width="11px" height="12px" preserveAspectRatio="xMinYMin meet" x="286.5" y="-372.7"/>
<text text-anchor="start" x="301.5" y="-362.8" font-family="Helvetica,sans-Serif" font-size="11.00" fill="#000000">monitor_job_def_id_</text>
<polygon fill="none" stroke="#000000" points="281.5,-336.7 281.5,-355.7 441.5,-355.7 441.5,-336.7 281.5,-336.7"/>
<text text-anchor="start" x="284.5" y="-342.8" font-family="Helvetica,sans-Serif" font-size="11.00" fill="#000000">...</text>
<polygon fill="#ffffff" stroke="transparent" points="281.5,-317.7 281.5,-336.7 355.5,-336.7 355.5,-317.7 281.5,-317.7"/>
<polygon fill="none" stroke="#000000" points="281.5,-317.7 281.5,-336.7 355.5,-336.7 355.5,-317.7 281.5,-317.7"/>
<text text-anchor="start" x="284.5" y="-323.8" font-family="Helvetica,sans-Serif" font-size="11.00" fill="#000000">&lt; 3</text>
<polygon fill="#ffffff" stroke="transparent" points="355.5,-317.7 355.5,-336.7 393.5,-336.7 393.5,-317.7 355.5,-317.7"/>
<polygon fill="none" stroke="#000000" points="355.5,-317.7 355.5,-336.7 393.5,-336.7 393.5,-317.7 355.5,-317.7"/>
<text text-anchor="start" x="384.3862" y="-323.8" font-family="Helvetica,sans-Serif" font-size="11.00" fill="#000000"> &#160;</text>
<polygon fill="#ffffff" stroke="transparent" points="393.5,-317.7 393.5,-336.7 441.5,-336.7 441.5,-317.7 393.5,-317.7"/>
<polygon fill="none" stroke="#000000" points="393.5,-317.7 393.5,-336.7 441.5,-336.7 441.5,-317.7 393.5,-317.7"/>
<text text-anchor="start" x="422.9053" y="-323.8" font-family="Helvetica,sans-Serif" font-size="11.00" fill="#000000">1 &gt;</text>
</a>
</g>
</g>
<!-- act_ru_jobdef -->
<g id="node2" class="node">
<title>act_ru_jobdef</title>
<g id="a_node2"><a xlink:href="../../tables/act_ru_jobdef.html" xlink:title="act_ru_jobdef" target="_top">
<polygon fill="#ffffff" stroke="transparent" points="8,-125.7 8,-413.7 223,-413.7 223,-125.7 8,-125.7"/>
<polygon fill="#f5f5f5" stroke="transparent" points="10.5,-388.7 10.5,-411.7 221.5,-411.7 221.5,-388.7 10.5,-388.7"/>
<polygon fill="none" stroke="#000000" points="10.5,-388.7 10.5,-411.7 221.5,-411.7 221.5,-388.7 10.5,-388.7"/>
<text text-anchor="start" x="15.5" y="-397.3" font-family="Helvetica,sans-Serif" font-weight="bold" font-size="11.00" fill="#000000">act_ru_jobdef</text>
<text text-anchor="start" x="186.5437" y="-396.8" font-family="Helvetica,sans-Serif" font-size="11.00" fill="#000000">[table]</text>
<polygon fill="none" stroke="#000000" points="10.5,-366.7 10.5,-388.7 154.5,-388.7 154.5,-366.7 10.5,-366.7"/>
<image xlink:href="../../images/primaryKeys.png" width="11px" height="12px" preserveAspectRatio="xMinYMin meet" x="15.5" y="-383.7"/>
<text text-anchor="start" x="30.5" y="-373.8" font-family="Helvetica,sans-Serif" font-size="11.00" fill="#000000">id_</text>
<polygon fill="none" stroke="#000000" points="154.5,-366.7 154.5,-388.7 221.5,-388.7 221.5,-366.7 154.5,-366.7"/>
<text text-anchor="start" x="157.5" y="-374.4" font-family="Helvetica,sans-Serif" font-size="11.00" fill="#000000">varchar[64]</text>
<polygon fill="none" stroke="#000000" points="10.5,-344.7 10.5,-366.7 154.5,-366.7 154.5,-344.7 10.5,-344.7"/>
<text text-anchor="start" x="30.5" y="-351.8" font-family="Helvetica,sans-Serif" font-size="11.00" fill="#000000">rev_</text>
<polygon fill="none" stroke="#000000" points="154.5,-344.7 154.5,-366.7 221.5,-366.7 221.5,-344.7 154.5,-344.7"/>
<text text-anchor="start" x="157.5" y="-352.4" font-family="Helvetica,sans-Serif" font-size="11.00" fill="#000000">int4[10]</text>
<polygon fill="#ffffff" stroke="transparent" points="10.5,-322.7 10.5,-344.7 154.5,-344.7 154.5,-322.7 10.5,-322.7"/>
<polygon fill="none" stroke="#000000" points="10.5,-322.7 10.5,-344.7 154.5,-344.7 154.5,-322.7 10.5,-322.7"/>
<text text-anchor="start" x="30.5" y="-329.8" font-family="Helvetica,sans-Serif" font-size="11.00" fill="#000000">proc_def_id_</text>
<polygon fill="none" stroke="#000000" points="154.5,-322.7 154.5,-344.7 221.5,-344.7 221.5,-322.7 154.5,-322.7"/>
<text text-anchor="start" x="157.5" y="-330.4" font-family="Helvetica,sans-Serif" font-size="11.00" fill="#000000">varchar[64]</text>
<polygon fill="none" stroke="#000000" points="10.5,-300.7 10.5,-322.7 154.5,-322.7 154.5,-300.7 10.5,-300.7"/>
<text text-anchor="start" x="30.5" y="-307.8" font-family="Helvetica,sans-Serif" font-size="11.00" fill="#000000">proc_def_key_</text>
<polygon fill="none" stroke="#000000" points="154.5,-300.7 154.5,-322.7 221.5,-322.7 221.5,-300.7 154.5,-300.7"/>
<text text-anchor="start" x="157.4365" y="-308.4" font-family="Helvetica,sans-Serif" font-size="11.00" fill="#000000">varchar[255]</text>
<polygon fill="none" stroke="#000000" points="10.5,-278.7 10.5,-300.7 154.5,-300.7 154.5,-278.7 10.5,-278.7"/>
<text text-anchor="start" x="30.5" y="-285.8" font-family="Helvetica,sans-Serif" font-size="11.00" fill="#000000">act_id_</text>
<polygon fill="none" stroke="#000000" points="154.5,-278.7 154.5,-300.7 221.5,-300.7 221.5,-278.7 154.5,-278.7"/>
<text text-anchor="start" x="157.4365" y="-286.4" font-family="Helvetica,sans-Serif" font-size="11.00" fill="#000000">varchar[255]</text>
<polygon fill="none" stroke="#000000" points="10.5,-256.7 10.5,-278.7 154.5,-278.7 154.5,-256.7 10.5,-256.7"/>
<text text-anchor="start" x="30.5" y="-263.8" font-family="Helvetica,sans-Serif" font-size="11.00" fill="#000000">job_type_</text>
<polygon fill="none" stroke="#000000" points="154.5,-256.7 154.5,-278.7 221.5,-278.7 221.5,-256.7 154.5,-256.7"/>
<text text-anchor="start" x="157.4365" y="-264.4" font-family="Helvetica,sans-Serif" font-size="11.00" fill="#000000">varchar[255]</text>
<polygon fill="none" stroke="#000000" points="10.5,-234.7 10.5,-256.7 154.5,-256.7 154.5,-234.7 10.5,-234.7"/>
<text text-anchor="start" x="30.5" y="-241.8" font-family="Helvetica,sans-Serif" font-size="11.00" fill="#000000">job_configuration_</text>
<polygon fill="none" stroke="#000000" points="154.5,-234.7 154.5,-256.7 221.5,-256.7 221.5,-234.7 154.5,-234.7"/>
<text text-anchor="start" x="157.4365" y="-242.4" font-family="Helvetica,sans-Serif" font-size="11.00" fill="#000000">varchar[255]</text>
<polygon fill="none" stroke="#000000" points="10.5,-212.7 10.5,-234.7 154.5,-234.7 154.5,-212.7 10.5,-212.7"/>
<text text-anchor="start" x="30.5" y="-219.8" font-family="Helvetica,sans-Serif" font-size="11.00" fill="#000000">suspension_state_</text>
<polygon fill="none" stroke="#000000" points="154.5,-212.7 154.5,-234.7 221.5,-234.7 221.5,-212.7 154.5,-212.7"/>
<text text-anchor="start" x="157.5" y="-220.4" font-family="Helvetica,sans-Serif" font-size="11.00" fill="#000000">int4[10]</text>
<polygon fill="none" stroke="#000000" points="10.5,-190.7 10.5,-212.7 154.5,-212.7 154.5,-190.7 10.5,-190.7"/>
<text text-anchor="start" x="30.5" y="-197.8" font-family="Helvetica,sans-Serif" font-size="11.00" fill="#000000">job_priority_</text>
<polygon fill="none" stroke="#000000" points="154.5,-190.7 154.5,-212.7 221.5,-212.7 221.5,-190.7 154.5,-190.7"/>
<text text-anchor="start" x="157.5" y="-198.4" font-family="Helvetica,sans-Serif" font-size="11.00" fill="#000000">int8[19]</text>
<polygon fill="#ffffff" stroke="transparent" points="10.5,-168.7 10.5,-190.7 154.5,-190.7 154.5,-168.7 10.5,-168.7"/>
<polygon fill="none" stroke="#000000" points="10.5,-168.7 10.5,-190.7 154.5,-190.7 154.5,-168.7 10.5,-168.7"/>
<text text-anchor="start" x="30.5" y="-175.8" font-family="Helvetica,sans-Serif" font-size="11.00" fill="#000000">tenant_id_</text>
<polygon fill="none" stroke="#000000" points="154.5,-168.7 154.5,-190.7 221.5,-190.7 221.5,-168.7 154.5,-168.7"/>
<text text-anchor="start" x="157.5" y="-176.4" font-family="Helvetica,sans-Serif" font-size="11.00" fill="#000000">varchar[64]</text>
<polygon fill="none" stroke="#000000" points="10.5,-146.7 10.5,-168.7 154.5,-168.7 154.5,-146.7 10.5,-146.7"/>
<text text-anchor="start" x="30.5" y="-153.8" font-family="Helvetica,sans-Serif" font-size="11.00" fill="#000000">deployment_id_</text>
<polygon fill="none" stroke="#000000" points="154.5,-146.7 154.5,-168.7 221.5,-168.7 221.5,-146.7 154.5,-146.7"/>
<text text-anchor="start" x="157.5" y="-154.4" font-family="Helvetica,sans-Serif" font-size="11.00" fill="#000000">varchar[64]</text>
<polygon fill="#ffffff" stroke="transparent" points="10.5,-127.7 10.5,-146.7 86.5,-146.7 86.5,-127.7 10.5,-127.7"/>
<polygon fill="none" stroke="#000000" points="10.5,-127.7 10.5,-146.7 86.5,-146.7 86.5,-127.7 10.5,-127.7"/>
<text text-anchor="start" x="13.5" y="-133.8" font-family="Helvetica,sans-Serif" font-size="11.00" fill="#000000">&lt; 0</text>
<polygon fill="#ffffff" stroke="transparent" points="86.5,-127.7 86.5,-146.7 154.5,-146.7 154.5,-127.7 86.5,-127.7"/>
<polygon fill="none" stroke="#000000" points="86.5,-127.7 86.5,-146.7 154.5,-146.7 154.5,-127.7 86.5,-127.7"/>
<text text-anchor="start" x="145.3862" y="-133.8" font-family="Helvetica,sans-Serif" font-size="11.00" fill="#000000"> &#160;</text>
<polygon fill="#ffffff" stroke="transparent" points="154.5,-127.7 154.5,-146.7 221.5,-146.7 221.5,-127.7 154.5,-127.7"/>
<polygon fill="none" stroke="#000000" points="154.5,-127.7 154.5,-146.7 221.5,-146.7 221.5,-127.7 154.5,-127.7"/>
<text text-anchor="start" x="202.9053" y="-133.8" font-family="Helvetica,sans-Serif" font-size="11.00" fill="#000000">4 &gt;</text>
<polygon fill="none" stroke="#000000" stroke-width="2" points="9,-126.7 9,-412.7 222,-412.7 222,-126.7 9,-126.7"/>
</a>
</g>
</g>
<!-- act_ru_batch&#45;&gt;act_ru_jobdef -->
<g id="edge1" class="edge">
<title>act_ru_batch:w&#45;&gt;act_ru_jobdef:e</title>
<path fill="none" stroke="#000000" d="M266.791,-387.4382C251.0022,-384.5488 242.8924,-377.7 221.5,-377.7"/>
<polygon fill="#000000" stroke="#000000" points="273.5293,-388.0162 281.1923,-392.2868 277.5146,-388.3581 281.5,-388.7 281.5,-388.7 281.5,-388.7 277.5146,-388.3581 281.8077,-385.1132 273.5293,-388.0162 273.5293,-388.0162"/>
<ellipse fill="none" stroke="#000000" cx="270.341" cy="-387.7426" rx="3.2" ry="3.2"/>
</g>
<!-- act_ru_batch&#45;&gt;act_ru_jobdef -->
<g id="edge2" class="edge">
<title>act_ru_batch:w&#45;&gt;act_ru_jobdef:e</title>
<path fill="none" stroke="#000000" d="M266.791,-367.9618C251.0022,-370.8512 242.8924,-377.7 221.5,-377.7"/>
<polygon fill="#000000" stroke="#000000" points="273.5293,-367.3838 281.8077,-370.2868 277.5146,-367.0419 281.5,-366.7 281.5,-366.7 281.5,-366.7 277.5146,-367.0419 281.1923,-363.1132 273.5293,-367.3838 273.5293,-367.3838"/>
<ellipse fill="none" stroke="#000000" cx="270.341" cy="-367.6574" rx="3.2" ry="3.2"/>
</g>
<!-- act_ru_batch&#45;&gt;act_ru_jobdef -->
<g id="edge3" class="edge">
<title>act_ru_batch:w&#45;&gt;act_ru_jobdef:e</title>
<path fill="none" stroke="#000000" d="M267.2696,-407.6546C250.2911,-399.4852 246.2275,-377.7 221.5,-377.7"/>
<polygon fill="#000000" stroke="#000000" points="273.6771,-409.0258 280.7466,-414.2203 277.5886,-409.8629 281.5,-410.7 281.5,-410.7 281.5,-410.7 277.5886,-409.8629 282.2534,-407.1797 273.6771,-409.0258 273.6771,-409.0258"/>
<ellipse fill="none" stroke="#000000" cx="270.548" cy="-408.3561" rx="3.2" ry="3.2"/>
</g>
<!-- act_ru_incident -->
<g id="node3" class="node">
<title>act_ru_incident</title>
<g id="a_node3"><a xlink:href="../../tables/act_ru_incident.html" xlink:title="act_ru_incident" target="_top">
<polygon fill="#ffffff" stroke="transparent" points="272,-38.2 272,-297.2 451,-297.2 451,-38.2 272,-38.2"/>
<polygon fill="#f5f5f5" stroke="transparent" points="272.5,-273.7 272.5,-296.7 451.5,-296.7 451.5,-273.7 272.5,-273.7"/>
<polygon fill="none" stroke="#000000" points="272.5,-273.7 272.5,-296.7 451.5,-296.7 451.5,-273.7 272.5,-273.7"/>
<text text-anchor="start" x="277.5" y="-282.3" font-family="Helvetica,sans-Serif" font-weight="bold" font-size="11.00" fill="#000000">act_ru_incident</text>
<text text-anchor="start" x="416.5437" y="-281.8" font-family="Helvetica,sans-Serif" font-size="11.00" fill="#000000">[table]</text>
<polygon fill="none" stroke="#000000" points="272.5,-251.7 272.5,-273.7 451.5,-273.7 451.5,-251.7 272.5,-251.7"/>
<image xlink:href="../../images/primaryKeys.png" width="11px" height="12px" preserveAspectRatio="xMinYMin meet" x="277.5" y="-268.7"/>
<text text-anchor="start" x="292.5" y="-258.8" font-family="Helvetica,sans-Serif" font-size="11.00" fill="#000000">id_</text>
<polygon fill="#ffffff" stroke="transparent" points="272.5,-229.7 272.5,-251.7 451.5,-251.7 451.5,-229.7 272.5,-229.7"/>
<polygon fill="none" stroke="#000000" points="272.5,-229.7 272.5,-251.7 451.5,-251.7 451.5,-229.7 272.5,-229.7"/>
<image xlink:href="../../images/foreignKeys.png" width="11px" height="12px" preserveAspectRatio="xMinYMin meet" x="277.5" y="-246.7"/>
<text text-anchor="start" x="292.5" y="-236.8" font-family="Helvetica,sans-Serif" font-size="11.00" fill="#000000">execution_id_</text>
<polygon fill="#ffffff" stroke="transparent" points="272.5,-207.7 272.5,-229.7 451.5,-229.7 451.5,-207.7 272.5,-207.7"/>
<polygon fill="none" stroke="#000000" points="272.5,-207.7 272.5,-229.7 451.5,-229.7 451.5,-207.7 272.5,-207.7"/>
<image xlink:href="../../images/foreignKeys.png" width="11px" height="12px" preserveAspectRatio="xMinYMin meet" x="277.5" y="-224.7"/>
<text text-anchor="start" x="292.5" y="-214.8" font-family="Helvetica,sans-Serif" font-size="11.00" fill="#000000">proc_inst_id_</text>
<polygon fill="#ffffff" stroke="transparent" points="272.5,-185.7 272.5,-207.7 451.5,-207.7 451.5,-185.7 272.5,-185.7"/>
<polygon fill="none" stroke="#000000" points="272.5,-185.7 272.5,-207.7 451.5,-207.7 451.5,-185.7 272.5,-185.7"/>
<image xlink:href="../../images/foreignKeys.png" width="11px" height="12px" preserveAspectRatio="xMinYMin meet" x="277.5" y="-202.7"/>
<text text-anchor="start" x="292.5" y="-192.8" font-family="Helvetica,sans-Serif" font-size="11.00" fill="#000000">proc_def_id_</text>
<polygon fill="#ffffff" stroke="transparent" points="272.5,-163.7 272.5,-185.7 451.5,-185.7 451.5,-163.7 272.5,-163.7"/>
<polygon fill="none" stroke="#000000" points="272.5,-163.7 272.5,-185.7 451.5,-185.7 451.5,-163.7 272.5,-163.7"/>
<image xlink:href="../../images/foreignKeys.png" width="11px" height="12px" preserveAspectRatio="xMinYMin meet" x="277.5" y="-180.7"/>
<text text-anchor="start" x="292.5" y="-170.8" font-family="Helvetica,sans-Serif" font-size="11.00" fill="#000000">cause_incident_id_</text>
<polygon fill="#ffffff" stroke="transparent" points="272.5,-141.7 272.5,-163.7 451.5,-163.7 451.5,-141.7 272.5,-141.7"/>
<polygon fill="none" stroke="#000000" points="272.5,-141.7 272.5,-163.7 451.5,-163.7 451.5,-141.7 272.5,-141.7"/>
<image xlink:href="../../images/foreignKeys.png" width="11px" height="12px" preserveAspectRatio="xMinYMin meet" x="277.5" y="-158.7"/>
<text text-anchor="start" x="292.5" y="-148.8" font-family="Helvetica,sans-Serif" font-size="11.00" fill="#000000">root_cause_incident_id_</text>
<polygon fill="#ffffff" stroke="transparent" points="272.5,-119.7 272.5,-141.7 451.5,-141.7 451.5,-119.7 272.5,-119.7"/>
<polygon fill="none" stroke="#000000" points="272.5,-119.7 272.5,-141.7 451.5,-141.7 451.5,-119.7 272.5,-119.7"/>
<text text-anchor="start" x="292.5" y="-126.8" font-family="Helvetica,sans-Serif" font-size="11.00" fill="#000000">configuration_</text>
<polygon fill="#ffffff" stroke="transparent" points="272.5,-97.7 272.5,-119.7 451.5,-119.7 451.5,-97.7 272.5,-97.7"/>
<polygon fill="none" stroke="#000000" points="272.5,-97.7 272.5,-119.7 451.5,-119.7 451.5,-97.7 272.5,-97.7"/>
<text text-anchor="start" x="292.5" y="-104.8" font-family="Helvetica,sans-Serif" font-size="11.00" fill="#000000">tenant_id_</text>
<polygon fill="#ffffff" stroke="transparent" points="272.5,-75.7 272.5,-97.7 451.5,-97.7 451.5,-75.7 272.5,-75.7"/>
<polygon fill="none" stroke="#000000" points="272.5,-75.7 272.5,-97.7 451.5,-97.7 451.5,-75.7 272.5,-75.7"/>
<image xlink:href="../../images/foreignKeys.png" width="11px" height="12px" preserveAspectRatio="xMinYMin meet" x="277.5" y="-92.7"/>
<text text-anchor="start" x="292.5" y="-82.8" font-family="Helvetica,sans-Serif" font-size="11.00" fill="#000000">job_def_id_</text>
<polygon fill="none" stroke="#000000" points="272.5,-56.7 272.5,-75.7 451.5,-75.7 451.5,-56.7 272.5,-56.7"/>
<text text-anchor="start" x="275.5" y="-62.8" font-family="Helvetica,sans-Serif" font-size="11.00" fill="#000000">...</text>
<polygon fill="#ffffff" stroke="transparent" points="272.5,-37.7 272.5,-56.7 355.5,-56.7 355.5,-37.7 272.5,-37.7"/>
<polygon fill="none" stroke="#000000" points="272.5,-37.7 272.5,-56.7 355.5,-56.7 355.5,-37.7 272.5,-37.7"/>
<text text-anchor="start" x="275.5" y="-43.8" font-family="Helvetica,sans-Serif" font-size="11.00" fill="#000000">&lt; 6</text>
<polygon fill="#ffffff" stroke="transparent" points="355.5,-37.7 355.5,-56.7 398.5,-56.7 398.5,-37.7 355.5,-37.7"/>
<polygon fill="none" stroke="#000000" points="355.5,-37.7 355.5,-56.7 398.5,-56.7 398.5,-37.7 355.5,-37.7"/>
<text text-anchor="start" x="389.3862" y="-43.8" font-family="Helvetica,sans-Serif" font-size="11.00" fill="#000000"> &#160;</text>
<polygon fill="#ffffff" stroke="transparent" points="398.5,-37.7 398.5,-56.7 451.5,-56.7 451.5,-37.7 398.5,-37.7"/>
<polygon fill="none" stroke="#000000" points="398.5,-37.7 398.5,-56.7 451.5,-56.7 451.5,-37.7 398.5,-37.7"/>
<text text-anchor="start" x="432.9053" y="-43.8" font-family="Helvetica,sans-Serif" font-size="11.00" fill="#000000">2 &gt;</text>
</a>
</g>
</g>
<!-- act_ru_incident&#45;&gt;act_ru_jobdef -->
<g id="edge4" class="edge">
<title>act_ru_incident:w&#45;&gt;act_ru_jobdef:e</title>
<path fill="none" stroke="#000000" d="M259.1287,-92.2533C219.0405,-132.484 281.7667,-377.7 221.5,-377.7"/>
<polygon fill="#000000" stroke="#000000" points="265.1118,-89.7684 273.8808,-90.0247 268.8059,-88.2342 272.5,-86.7 272.5,-86.7 272.5,-86.7 268.8059,-88.2342 271.1192,-83.3753 265.1118,-89.7684 265.1118,-89.7684"/>
<ellipse fill="none" stroke="#000000" cx="262.1566" cy="-90.9958" rx="3.2" ry="3.2"/>
</g>
</g>
</svg>
