<?xml version="1.0" encoding="UTF-8" standalone="no"?>
<!DOCTYPE svg PUBLIC "-//W3C//DTD SVG 1.1//EN"
 "http://www.w3.org/Graphics/SVG/1.1/DTD/svg11.dtd">
<!-- Generated by graphviz version 2.40.1 (20161225.0304)
 -->
<!-- Title: oneDegreeRelationshipsDiagram Pages: 1 -->
<svg width="220pt" height="272pt"
 viewBox="0.00 0.00 220.00 272.20" xmlns="http://www.w3.org/2000/svg" xmlns:xlink="http://www.w3.org/1999/xlink">
<g id="graph0" class="graph" transform="scale(1 1) rotate(0) translate(4 268.2)">
<title>oneDegreeRelationshipsDiagram</title>
<polygon fill="#ffffff" stroke="transparent" points="-4,4 -4,-268.2 216,-268.2 216,4 -4,4"/>
<text text-anchor="middle" x="72.4936" y="-7.3" font-family="Helvetica,sans-Serif" font-size="11.00" fill="#000000">Generated by SchemaSpy</text>
<!-- act_id_info -->
<g id="node1" class="node">
<title>act_id_info</title>
<g id="a_node1"><a xlink:href="../../tables/act_id_info.html" xlink:title="act_id_info" target="_top">
<polygon fill="#ffffff" stroke="transparent" points="8,-38.2 8,-260.2 204,-260.2 204,-38.2 8,-38.2"/>
<polygon fill="#f5f5f5" stroke="transparent" points="10,-235.2 10,-258.2 202,-258.2 202,-235.2 10,-235.2"/>
<polygon fill="none" stroke="#000000" points="10,-235.2 10,-258.2 202,-258.2 202,-235.2 10,-235.2"/>
<text text-anchor="start" x="15" y="-243.8" font-family="Helvetica,sans-Serif" font-weight="bold" font-size="11.00" fill="#000000">act_id_info</text>
<text text-anchor="start" x="167.0437" y="-243.3" font-family="Helvetica,sans-Serif" font-size="11.00" fill="#000000">[table]</text>
<polygon fill="none" stroke="#000000" points="10,-213.2 10,-235.2 102,-235.2 102,-213.2 10,-213.2"/>
<image xlink:href="../../images/primaryKeys.png" width="11px" height="12px" preserveAspectRatio="xMinYMin meet" x="15" y="-230.2"/>
<text text-anchor="start" x="30" y="-220.3" font-family="Helvetica,sans-Serif" font-size="11.00" fill="#000000">id_</text>
<polygon fill="none" stroke="#000000" points="102,-213.2 102,-235.2 202,-235.2 202,-213.2 102,-213.2"/>
<text text-anchor="start" x="105" y="-220.9" font-family="Helvetica,sans-Serif" font-size="11.00" fill="#000000">varchar[64]</text>
<polygon fill="none" stroke="#000000" points="10,-191.2 10,-213.2 102,-213.2 102,-191.2 10,-191.2"/>
<text text-anchor="start" x="30" y="-198.3" font-family="Helvetica,sans-Serif" font-size="11.00" fill="#000000">rev_</text>
<polygon fill="none" stroke="#000000" points="102,-191.2 102,-213.2 202,-213.2 202,-191.2 102,-191.2"/>
<text text-anchor="start" x="105" y="-198.9" font-family="Helvetica,sans-Serif" font-size="11.00" fill="#000000">int4[10]</text>
<polygon fill="none" stroke="#000000" points="10,-169.2 10,-191.2 102,-191.2 102,-169.2 10,-169.2"/>
<text text-anchor="start" x="30" y="-176.3" font-family="Helvetica,sans-Serif" font-size="11.00" fill="#000000">user_id_</text>
<polygon fill="none" stroke="#000000" points="102,-169.2 102,-191.2 202,-191.2 202,-169.2 102,-169.2"/>
<text text-anchor="start" x="105" y="-176.9" font-family="Helvetica,sans-Serif" font-size="11.00" fill="#000000">varchar[64]</text>
<polygon fill="none" stroke="#000000" points="10,-147.2 10,-169.2 102,-169.2 102,-147.2 10,-147.2"/>
<text text-anchor="start" x="30" y="-154.3" font-family="Helvetica,sans-Serif" font-size="11.00" fill="#000000">type_</text>
<polygon fill="none" stroke="#000000" points="102,-147.2 102,-169.2 202,-169.2 202,-147.2 102,-147.2"/>
<text text-anchor="start" x="105" y="-154.9" font-family="Helvetica,sans-Serif" font-size="11.00" fill="#000000">varchar[64]</text>
<polygon fill="none" stroke="#000000" points="10,-125.2 10,-147.2 102,-147.2 102,-125.2 10,-125.2"/>
<text text-anchor="start" x="30" y="-132.3" font-family="Helvetica,sans-Serif" font-size="11.00" fill="#000000">key_</text>
<polygon fill="none" stroke="#000000" points="102,-125.2 102,-147.2 202,-147.2 202,-125.2 102,-125.2"/>
<text text-anchor="start" x="105" y="-132.9" font-family="Helvetica,sans-Serif" font-size="11.00" fill="#000000">varchar[255]</text>
<polygon fill="none" stroke="#000000" points="10,-103.2 10,-125.2 102,-125.2 102,-103.2 10,-103.2"/>
<text text-anchor="start" x="30" y="-110.3" font-family="Helvetica,sans-Serif" font-size="11.00" fill="#000000">value_</text>
<polygon fill="none" stroke="#000000" points="102,-103.2 102,-125.2 202,-125.2 202,-103.2 102,-103.2"/>
<text text-anchor="start" x="105" y="-110.9" font-family="Helvetica,sans-Serif" font-size="11.00" fill="#000000">varchar[255]</text>
<polygon fill="none" stroke="#000000" points="10,-81.2 10,-103.2 102,-103.2 102,-81.2 10,-81.2"/>
<text text-anchor="start" x="30" y="-88.3" font-family="Helvetica,sans-Serif" font-size="11.00" fill="#000000">password_</text>
<polygon fill="none" stroke="#000000" points="102,-81.2 102,-103.2 202,-103.2 202,-81.2 102,-81.2"/>
<text text-anchor="start" x="104.9178" y="-88.9" font-family="Helvetica,sans-Serif" font-size="11.00" fill="#000000">bytea[2147483647]</text>
<polygon fill="none" stroke="#000000" points="10,-59.2 10,-81.2 102,-81.2 102,-59.2 10,-59.2"/>
<text text-anchor="start" x="30" y="-66.3" font-family="Helvetica,sans-Serif" font-size="11.00" fill="#000000">parent_id_</text>
<polygon fill="none" stroke="#000000" points="102,-59.2 102,-81.2 202,-81.2 202,-59.2 102,-59.2"/>
<text text-anchor="start" x="105" y="-66.9" font-family="Helvetica,sans-Serif" font-size="11.00" fill="#000000">varchar[255]</text>
<polygon fill="#ffffff" stroke="transparent" points="10,-40.2 10,-59.2 60,-59.2 60,-40.2 10,-40.2"/>
<polygon fill="none" stroke="#000000" points="10,-40.2 10,-59.2 60,-59.2 60,-40.2 10,-40.2"/>
<text text-anchor="start" x="13" y="-46.3" font-family="Helvetica,sans-Serif" font-size="11.00" fill="#000000">&lt; 0</text>
<polygon fill="#ffffff" stroke="transparent" points="60,-40.2 60,-59.2 102,-59.2 102,-40.2 60,-40.2"/>
<polygon fill="none" stroke="#000000" points="60,-40.2 60,-59.2 102,-59.2 102,-40.2 60,-40.2"/>
<text text-anchor="start" x="92.8862" y="-46.3" font-family="Helvetica,sans-Serif" font-size="11.00" fill="#000000"> &#160;</text>
<polygon fill="#ffffff" stroke="transparent" points="102,-40.2 102,-59.2 202,-59.2 202,-40.2 102,-40.2"/>
<polygon fill="none" stroke="#000000" points="102,-40.2 102,-59.2 202,-59.2 202,-40.2 102,-40.2"/>
<text text-anchor="start" x="183.4053" y="-46.3" font-family="Helvetica,sans-Serif" font-size="11.00" fill="#000000">0 &gt;</text>
<polygon fill="none" stroke="#000000" stroke-width="2" points="9,-39.2 9,-259.2 203,-259.2 203,-39.2 9,-39.2"/>
</a>
</g>
</g>
</g>
</svg>
