<?xml version="1.0" encoding="UTF-8" standalone="no"?>
<!DOCTYPE svg PUBLIC "-//W3C//DTD SVG 1.1//EN"
 "http://www.w3.org/Graphics/SVG/1.1/DTD/svg11.dtd">
<!-- Generated by graphviz version 2.40.1 (20161225.0304)
 -->
<!-- Title: oneDegreeRelationshipsDiagram Pages: 1 -->
<svg width="735pt" height="847pt"
 viewBox="0.00 0.00 735.00 847.20" xmlns="http://www.w3.org/2000/svg" xmlns:xlink="http://www.w3.org/1999/xlink">
<g id="graph0" class="graph" transform="scale(1 1) rotate(0) translate(4 843.2)">
<title>oneDegreeRelationshipsDiagram</title>
<polygon fill="#ffffff" stroke="transparent" points="-4,4 -4,-843.2 731,-843.2 731,4 -4,4"/>
<text text-anchor="middle" x="72.4936" y="-7.3" font-family="Helvetica,sans-Serif" font-size="11.00" fill="#000000">Generated by SchemaSpy</text>
<!-- act_ru_case_execution -->
<g id="node1" class="node">
<title>act_ru_case_execution</title>
<g id="a_node1"><a xlink:href="../../tables/act_ru_case_execution.html" xlink:title="act_ru_case_execution" target="_top">
<polygon fill="#ffffff" stroke="transparent" points="228,-235.7 228,-567.7 470,-567.7 470,-235.7 228,-235.7"/>
<polygon fill="#f5f5f5" stroke="transparent" points="230,-542.7 230,-565.7 468,-565.7 468,-542.7 230,-542.7"/>
<polygon fill="none" stroke="#000000" points="230,-542.7 230,-565.7 468,-565.7 468,-542.7 230,-542.7"/>
<text text-anchor="start" x="235" y="-551.3" font-family="Helvetica,sans-Serif" font-weight="bold" font-size="11.00" fill="#000000">act_ru_case_execution</text>
<text text-anchor="start" x="433.0437" y="-550.8" font-family="Helvetica,sans-Serif" font-size="11.00" fill="#000000">[table]</text>
<polygon fill="none" stroke="#000000" points="230,-520.7 230,-542.7 401,-542.7 401,-520.7 230,-520.7"/>
<image xlink:href="../../images/primaryKeys.png" width="11px" height="12px" preserveAspectRatio="xMinYMin meet" x="235" y="-537.7"/>
<text text-anchor="start" x="250" y="-527.8" font-family="Helvetica,sans-Serif" font-size="11.00" fill="#000000">id_</text>
<polygon fill="none" stroke="#000000" points="401,-520.7 401,-542.7 468,-542.7 468,-520.7 401,-520.7"/>
<text text-anchor="start" x="404" y="-528.4" font-family="Helvetica,sans-Serif" font-size="11.00" fill="#000000">varchar[64]</text>
<polygon fill="none" stroke="#000000" points="230,-498.7 230,-520.7 401,-520.7 401,-498.7 230,-498.7"/>
<text text-anchor="start" x="250" y="-505.8" font-family="Helvetica,sans-Serif" font-size="11.00" fill="#000000">rev_</text>
<polygon fill="none" stroke="#000000" points="401,-498.7 401,-520.7 468,-520.7 468,-498.7 401,-498.7"/>
<text text-anchor="start" x="404" y="-506.4" font-family="Helvetica,sans-Serif" font-size="11.00" fill="#000000">int4[10]</text>
<polygon fill="#ffffff" stroke="transparent" points="230,-476.7 230,-498.7 401,-498.7 401,-476.7 230,-476.7"/>
<polygon fill="none" stroke="#000000" points="230,-476.7 230,-498.7 401,-498.7 401,-476.7 230,-476.7"/>
<image xlink:href="../../images/foreignKeys.png" width="11px" height="12px" preserveAspectRatio="xMinYMin meet" x="235" y="-493.7"/>
<text text-anchor="start" x="250" y="-483.8" font-family="Helvetica,sans-Serif" font-size="11.00" fill="#000000">case_inst_id_</text>
<polygon fill="none" stroke="#000000" points="401,-476.7 401,-498.7 468,-498.7 468,-476.7 401,-476.7"/>
<text text-anchor="start" x="404" y="-484.4" font-family="Helvetica,sans-Serif" font-size="11.00" fill="#000000">varchar[64]</text>
<polygon fill="none" stroke="#000000" points="230,-454.7 230,-476.7 401,-476.7 401,-454.7 230,-454.7"/>
<text text-anchor="start" x="250" y="-461.8" font-family="Helvetica,sans-Serif" font-size="11.00" fill="#000000">super_case_exec_</text>
<polygon fill="none" stroke="#000000" points="401,-454.7 401,-476.7 468,-476.7 468,-454.7 401,-454.7"/>
<text text-anchor="start" x="404" y="-462.4" font-family="Helvetica,sans-Serif" font-size="11.00" fill="#000000">varchar[64]</text>
<polygon fill="none" stroke="#000000" points="230,-432.7 230,-454.7 401,-454.7 401,-432.7 230,-432.7"/>
<text text-anchor="start" x="250" y="-439.8" font-family="Helvetica,sans-Serif" font-size="11.00" fill="#000000">super_exec_</text>
<polygon fill="none" stroke="#000000" points="401,-432.7 401,-454.7 468,-454.7 468,-432.7 401,-432.7"/>
<text text-anchor="start" x="404" y="-440.4" font-family="Helvetica,sans-Serif" font-size="11.00" fill="#000000">varchar[64]</text>
<polygon fill="#ffffff" stroke="transparent" points="230,-410.7 230,-432.7 401,-432.7 401,-410.7 230,-410.7"/>
<polygon fill="none" stroke="#000000" points="230,-410.7 230,-432.7 401,-432.7 401,-410.7 230,-410.7"/>
<text text-anchor="start" x="250" y="-417.8" font-family="Helvetica,sans-Serif" font-size="11.00" fill="#000000">business_key_</text>
<polygon fill="none" stroke="#000000" points="401,-410.7 401,-432.7 468,-432.7 468,-410.7 401,-410.7"/>
<text text-anchor="start" x="403.9365" y="-418.4" font-family="Helvetica,sans-Serif" font-size="11.00" fill="#000000">varchar[255]</text>
<polygon fill="#ffffff" stroke="transparent" points="230,-388.7 230,-410.7 401,-410.7 401,-388.7 230,-388.7"/>
<polygon fill="none" stroke="#000000" points="230,-388.7 230,-410.7 401,-410.7 401,-388.7 230,-388.7"/>
<image xlink:href="../../images/foreignKeys.png" width="11px" height="12px" preserveAspectRatio="xMinYMin meet" x="235" y="-405.7"/>
<text text-anchor="start" x="250" y="-395.8" font-family="Helvetica,sans-Serif" font-size="11.00" fill="#000000">parent_id_</text>
<polygon fill="none" stroke="#000000" points="401,-388.7 401,-410.7 468,-410.7 468,-388.7 401,-388.7"/>
<text text-anchor="start" x="404" y="-396.4" font-family="Helvetica,sans-Serif" font-size="11.00" fill="#000000">varchar[64]</text>
<polygon fill="#ffffff" stroke="transparent" points="230,-366.7 230,-388.7 401,-388.7 401,-366.7 230,-366.7"/>
<polygon fill="none" stroke="#000000" points="230,-366.7 230,-388.7 401,-388.7 401,-366.7 230,-366.7"/>
<image xlink:href="../../images/foreignKeys.png" width="11px" height="12px" preserveAspectRatio="xMinYMin meet" x="235" y="-383.7"/>
<text text-anchor="start" x="250" y="-373.8" font-family="Helvetica,sans-Serif" font-size="11.00" fill="#000000">case_def_id_</text>
<polygon fill="none" stroke="#000000" points="401,-366.7 401,-388.7 468,-388.7 468,-366.7 401,-366.7"/>
<text text-anchor="start" x="404" y="-374.4" font-family="Helvetica,sans-Serif" font-size="11.00" fill="#000000">varchar[64]</text>
<polygon fill="none" stroke="#000000" points="230,-344.7 230,-366.7 401,-366.7 401,-344.7 230,-344.7"/>
<text text-anchor="start" x="250" y="-351.8" font-family="Helvetica,sans-Serif" font-size="11.00" fill="#000000">act_id_</text>
<polygon fill="none" stroke="#000000" points="401,-344.7 401,-366.7 468,-366.7 468,-344.7 401,-344.7"/>
<text text-anchor="start" x="403.9365" y="-352.4" font-family="Helvetica,sans-Serif" font-size="11.00" fill="#000000">varchar[255]</text>
<polygon fill="none" stroke="#000000" points="230,-322.7 230,-344.7 401,-344.7 401,-322.7 230,-322.7"/>
<text text-anchor="start" x="250" y="-329.8" font-family="Helvetica,sans-Serif" font-size="11.00" fill="#000000">prev_state_</text>
<polygon fill="none" stroke="#000000" points="401,-322.7 401,-344.7 468,-344.7 468,-322.7 401,-322.7"/>
<text text-anchor="start" x="404" y="-330.4" font-family="Helvetica,sans-Serif" font-size="11.00" fill="#000000">int4[10]</text>
<polygon fill="none" stroke="#000000" points="230,-300.7 230,-322.7 401,-322.7 401,-300.7 230,-300.7"/>
<text text-anchor="start" x="250" y="-307.8" font-family="Helvetica,sans-Serif" font-size="11.00" fill="#000000">current_state_</text>
<polygon fill="none" stroke="#000000" points="401,-300.7 401,-322.7 468,-322.7 468,-300.7 401,-300.7"/>
<text text-anchor="start" x="404" y="-308.4" font-family="Helvetica,sans-Serif" font-size="11.00" fill="#000000">int4[10]</text>
<polygon fill="none" stroke="#000000" points="230,-278.7 230,-300.7 401,-300.7 401,-278.7 230,-278.7"/>
<text text-anchor="start" x="250" y="-285.8" font-family="Helvetica,sans-Serif" font-size="11.00" fill="#000000">required_</text>
<polygon fill="none" stroke="#000000" points="401,-278.7 401,-300.7 468,-300.7 468,-278.7 401,-278.7"/>
<text text-anchor="start" x="404" y="-286.4" font-family="Helvetica,sans-Serif" font-size="11.00" fill="#000000">bool[1]</text>
<polygon fill="#ffffff" stroke="transparent" points="230,-256.7 230,-278.7 401,-278.7 401,-256.7 230,-256.7"/>
<polygon fill="none" stroke="#000000" points="230,-256.7 230,-278.7 401,-278.7 401,-256.7 230,-256.7"/>
<text text-anchor="start" x="250" y="-263.8" font-family="Helvetica,sans-Serif" font-size="11.00" fill="#000000">tenant_id_</text>
<polygon fill="none" stroke="#000000" points="401,-256.7 401,-278.7 468,-278.7 468,-256.7 401,-256.7"/>
<text text-anchor="start" x="404" y="-264.4" font-family="Helvetica,sans-Serif" font-size="11.00" fill="#000000">varchar[64]</text>
<polygon fill="#ffffff" stroke="transparent" points="230,-237.7 230,-256.7 320,-256.7 320,-237.7 230,-237.7"/>
<polygon fill="none" stroke="#000000" points="230,-237.7 230,-256.7 320,-256.7 320,-237.7 230,-237.7"/>
<text text-anchor="start" x="233" y="-243.8" font-family="Helvetica,sans-Serif" font-size="11.00" fill="#000000">&lt; 3</text>
<polygon fill="#ffffff" stroke="transparent" points="320,-237.7 320,-256.7 401,-256.7 401,-237.7 320,-237.7"/>
<polygon fill="none" stroke="#000000" points="320,-237.7 320,-256.7 401,-256.7 401,-237.7 320,-237.7"/>
<text text-anchor="start" x="391.8862" y="-243.8" font-family="Helvetica,sans-Serif" font-size="11.00" fill="#000000"> &#160;</text>
<polygon fill="#ffffff" stroke="transparent" points="401,-237.7 401,-256.7 468,-256.7 468,-237.7 401,-237.7"/>
<polygon fill="none" stroke="#000000" points="401,-237.7 401,-256.7 468,-256.7 468,-237.7 401,-237.7"/>
<text text-anchor="start" x="449.4053" y="-243.8" font-family="Helvetica,sans-Serif" font-size="11.00" fill="#000000">7 &gt;</text>
<polygon fill="none" stroke="#000000" stroke-width="2" points="229,-236.7 229,-566.7 469,-566.7 469,-236.7 229,-236.7"/>
</a>
</g>
</g>
<!-- act_ru_case_execution&#45;&gt;act_ru_case_execution -->
<g id="edge2" class="edge">
<title>act_ru_case_execution:w&#45;&gt;act_ru_case_execution:e</title>
<path fill="none" stroke="#000000" d="M219.5159,-498.163C167.1266,-552.7952 177.1934,-584.7 349,-584.7 531.5,-584.7 531.5,-576.0333 468,-531.7"/>
<polygon fill="#000000" stroke="#000000" points="224.3374,-493.3511 232.543,-490.2482 227.1687,-490.5256 230,-487.7 230,-487.7 230,-487.7 227.1687,-490.5256 227.457,-485.1518 224.3374,-493.3511 224.3374,-493.3511"/>
<ellipse fill="none" stroke="#000000" cx="222.0724" cy="-495.6116" rx="3.2" ry="3.2"/>
</g>
<!-- act_ru_case_execution&#45;&gt;act_ru_case_execution -->
<g id="edge3" class="edge">
<title>act_ru_case_execution:w&#45;&gt;act_ru_case_execution:e</title>
<path fill="none" stroke="#000000" d="M220.1712,-410.2425C167.0458,-473.8917 176.4805,-584.7 349,-584.7 531.5,-584.7 531.5,-576.0333 468,-531.7"/>
<polygon fill="#000000" stroke="#000000" points="224.5447,-405.5515 232.6332,-402.1549 227.2723,-402.6257 230,-399.7 230,-399.7 230,-399.7 227.2723,-402.6257 227.3668,-397.2451 224.5447,-405.5515 224.5447,-405.5515"/>
<ellipse fill="none" stroke="#000000" cx="222.3625" cy="-407.8921" rx="3.2" ry="3.2"/>
</g>
<!-- act_re_case_def -->
<g id="node2" class="node">
<title>act_re_case_def</title>
<g id="a_node2"><a xlink:href="../../tables/act_re_case_def.html" xlink:title="act_re_case_def" target="_top">
<polygon fill="#ffffff" stroke="transparent" points="8,-220.2 8,-325.2 179,-325.2 179,-220.2 8,-220.2"/>
<polygon fill="#f5f5f5" stroke="transparent" points="8.5,-301.7 8.5,-324.7 179.5,-324.7 179.5,-301.7 8.5,-301.7"/>
<polygon fill="none" stroke="#000000" points="8.5,-301.7 8.5,-324.7 179.5,-324.7 179.5,-301.7 8.5,-301.7"/>
<text text-anchor="start" x="13.5" y="-310.3" font-family="Helvetica,sans-Serif" font-weight="bold" font-size="11.00" fill="#000000">act_re_case_def</text>
<text text-anchor="start" x="144.5437" y="-309.8" font-family="Helvetica,sans-Serif" font-size="11.00" fill="#000000">[table]</text>
<polygon fill="none" stroke="#000000" points="8.5,-279.7 8.5,-301.7 179.5,-301.7 179.5,-279.7 8.5,-279.7"/>
<image xlink:href="../../images/primaryKeys.png" width="11px" height="12px" preserveAspectRatio="xMinYMin meet" x="13.5" y="-296.7"/>
<text text-anchor="start" x="28.5" y="-286.8" font-family="Helvetica,sans-Serif" font-size="11.00" fill="#000000">id_</text>
<polygon fill="#ffffff" stroke="transparent" points="8.5,-257.7 8.5,-279.7 179.5,-279.7 179.5,-257.7 8.5,-257.7"/>
<polygon fill="none" stroke="#000000" points="8.5,-257.7 8.5,-279.7 179.5,-279.7 179.5,-257.7 8.5,-257.7"/>
<text text-anchor="start" x="28.5" y="-264.8" font-family="Helvetica,sans-Serif" font-size="11.00" fill="#000000">tenant_id_</text>
<polygon fill="none" stroke="#000000" points="8.5,-238.7 8.5,-257.7 179.5,-257.7 179.5,-238.7 8.5,-238.7"/>
<text text-anchor="start" x="11.5" y="-244.8" font-family="Helvetica,sans-Serif" font-size="11.00" fill="#000000">...</text>
<polygon fill="#ffffff" stroke="transparent" points="8.5,-219.7 8.5,-238.7 83.5,-238.7 83.5,-219.7 8.5,-219.7"/>
<polygon fill="none" stroke="#000000" points="8.5,-219.7 8.5,-238.7 83.5,-238.7 83.5,-219.7 8.5,-219.7"/>
<text text-anchor="start" x="11.5" y="-225.8" font-family="Helvetica,sans-Serif" font-size="11.00" fill="#000000"> &#160;</text>
<polygon fill="#ffffff" stroke="transparent" points="83.5,-219.7 83.5,-238.7 126.5,-238.7 126.5,-219.7 83.5,-219.7"/>
<polygon fill="none" stroke="#000000" points="83.5,-219.7 83.5,-238.7 126.5,-238.7 126.5,-219.7 83.5,-219.7"/>
<text text-anchor="start" x="117.3862" y="-225.8" font-family="Helvetica,sans-Serif" font-size="11.00" fill="#000000"> &#160;</text>
<polygon fill="#ffffff" stroke="transparent" points="126.5,-219.7 126.5,-238.7 179.5,-238.7 179.5,-219.7 126.5,-219.7"/>
<polygon fill="none" stroke="#000000" points="126.5,-219.7 126.5,-238.7 179.5,-238.7 179.5,-219.7 126.5,-219.7"/>
<text text-anchor="start" x="160.9053" y="-225.8" font-family="Helvetica,sans-Serif" font-size="11.00" fill="#000000">2 &gt;</text>
</a>
</g>
</g>
<!-- act_ru_case_execution&#45;&gt;act_re_case_def -->
<g id="edge1" class="edge">
<title>act_ru_case_execution:w&#45;&gt;act_re_case_def:e</title>
<path fill="none" stroke="#000000" d="M216.2198,-373.5038C194.1537,-356.1252 218.2708,-290.7 179.5,-290.7"/>
<polygon fill="#000000" stroke="#000000" points="222.347,-375.3695 228.9513,-381.1439 226.1735,-376.5348 230,-377.7 230,-377.7 230,-377.7 226.1735,-376.5348 231.0487,-374.2561 222.347,-375.3695 222.347,-375.3695"/>
<ellipse fill="none" stroke="#000000" cx="219.2857" cy="-374.4373" rx="3.2" ry="3.2"/>
</g>
<!-- act_ru_case_sentry_part -->
<g id="node3" class="node">
<title>act_ru_case_sentry_part</title>
<g id="a_node3"><a xlink:href="../../tables/act_ru_case_sentry_part.html" xlink:title="act_ru_case_sentry_part" target="_top">
<polygon fill="#ffffff" stroke="transparent" points="519,-708.2 519,-835.2 719,-835.2 719,-708.2 519,-708.2"/>
<polygon fill="#f5f5f5" stroke="transparent" points="519,-811.7 519,-834.7 719,-834.7 719,-811.7 519,-811.7"/>
<polygon fill="none" stroke="#000000" points="519,-811.7 519,-834.7 719,-834.7 719,-811.7 519,-811.7"/>
<text text-anchor="start" x="524" y="-820.3" font-family="Helvetica,sans-Serif" font-weight="bold" font-size="11.00" fill="#000000">act_ru_case_sentry_part</text>
<text text-anchor="start" x="684.5219" y="-819.8" font-family="Helvetica,sans-Serif" font-size="11.00" fill="#000000">[table]</text>
<polygon fill="none" stroke="#000000" points="519,-789.7 519,-811.7 719,-811.7 719,-789.7 519,-789.7"/>
<image xlink:href="../../images/primaryKeys.png" width="11px" height="12px" preserveAspectRatio="xMinYMin meet" x="524" y="-806.7"/>
<text text-anchor="start" x="548" y="-796.8" font-family="Helvetica,sans-Serif" font-size="11.00" fill="#000000">id_</text>
<polygon fill="#ffffff" stroke="transparent" points="519,-767.7 519,-789.7 719,-789.7 719,-767.7 519,-767.7"/>
<polygon fill="none" stroke="#000000" points="519,-767.7 519,-789.7 719,-789.7 719,-767.7 519,-767.7"/>
<image xlink:href="../../images/foreignKeys.png" width="11px" height="12px" preserveAspectRatio="xMinYMin meet" x="524" y="-784.7"/>
<text text-anchor="start" x="548" y="-774.8" font-family="Helvetica,sans-Serif" font-size="11.00" fill="#000000">case_inst_id_</text>
<polygon fill="#ffffff" stroke="transparent" points="519,-745.7 519,-767.7 719,-767.7 719,-745.7 519,-745.7"/>
<polygon fill="none" stroke="#000000" points="519,-745.7 519,-767.7 719,-767.7 719,-745.7 519,-745.7"/>
<image xlink:href="../../images/foreignKeys.png" width="11px" height="12px" preserveAspectRatio="xMinYMin meet" x="524" y="-762.7"/>
<text text-anchor="start" x="548" y="-752.8" font-family="Helvetica,sans-Serif" font-size="11.00" fill="#000000">case_exec_id_</text>
<polygon fill="none" stroke="#000000" points="519,-726.7 519,-745.7 719,-745.7 719,-726.7 519,-726.7"/>
<text text-anchor="start" x="522" y="-732.8" font-family="Helvetica,sans-Serif" font-size="11.00" fill="#000000">...</text>
<polygon fill="#ffffff" stroke="transparent" points="519,-707.7 519,-726.7 617,-726.7 617,-707.7 519,-707.7"/>
<polygon fill="none" stroke="#000000" points="519,-707.7 519,-726.7 617,-726.7 617,-707.7 519,-707.7"/>
<text text-anchor="start" x="522" y="-713.8" font-family="Helvetica,sans-Serif" font-size="11.00" fill="#000000">&lt; 2</text>
<polygon fill="#ffffff" stroke="transparent" points="617,-707.7 617,-726.7 668,-726.7 668,-707.7 617,-707.7"/>
<polygon fill="none" stroke="#000000" points="617,-707.7 617,-726.7 668,-726.7 668,-707.7 617,-707.7"/>
<text text-anchor="start" x="658.8862" y="-713.8" font-family="Helvetica,sans-Serif" font-size="11.00" fill="#000000"> &#160;</text>
<polygon fill="#ffffff" stroke="transparent" points="668,-707.7 668,-726.7 719,-726.7 719,-707.7 668,-707.7"/>
<polygon fill="none" stroke="#000000" points="668,-707.7 668,-726.7 719,-726.7 719,-707.7 668,-707.7"/>
<text text-anchor="start" x="709.8862" y="-713.8" font-family="Helvetica,sans-Serif" font-size="11.00" fill="#000000"> &#160;</text>
</a>
</g>
</g>
<!-- act_ru_case_sentry_part&#45;&gt;act_ru_case_execution -->
<g id="edge4" class="edge">
<title>act_ru_case_sentry_part:w&#45;&gt;act_ru_case_execution:e</title>
<path fill="none" stroke="#000000" d="M504.396,-754.7549C432.5476,-732.7635 564.9292,-531.7 468,-531.7"/>
<polygon fill="#000000" stroke="#000000" points="511.07,-755.6437 518.5247,-760.2685 515.035,-756.1719 519,-756.7 519,-756.7 519,-756.7 515.035,-756.1719 519.4753,-753.1315 511.07,-755.6437 511.07,-755.6437"/>
<ellipse fill="none" stroke="#000000" cx="507.898" cy="-755.2212" rx="3.2" ry="3.2"/>
</g>
<!-- act_ru_case_sentry_part&#45;&gt;act_ru_case_execution -->
<g id="edge5" class="edge">
<title>act_ru_case_sentry_part:w&#45;&gt;act_ru_case_execution:e</title>
<path fill="none" stroke="#000000" d="M504.5541,-776.9908C423.1392,-755.1678 574.6201,-531.7 468,-531.7"/>
<polygon fill="#000000" stroke="#000000" points="511.0554,-777.76 518.577,-782.2751 515.0277,-778.23 519,-778.7 519,-778.7 519,-778.7 515.0277,-778.23 519.423,-775.1249 511.0554,-777.76 511.0554,-777.76"/>
<ellipse fill="none" stroke="#000000" cx="507.8776" cy="-777.384" rx="3.2" ry="3.2"/>
</g>
<!-- act_ru_task -->
<g id="node4" class="node">
<title>act_ru_task</title>
<g id="a_node4"><a xlink:href="../../tables/act_ru_task.html" xlink:title="act_ru_task" target="_top">
<polygon fill="#ffffff" stroke="transparent" points="545,-38.2 545,-341.2 693,-341.2 693,-38.2 545,-38.2"/>
<polygon fill="#f5f5f5" stroke="transparent" points="545,-317.7 545,-340.7 693,-340.7 693,-317.7 545,-317.7"/>
<polygon fill="none" stroke="#000000" points="545,-317.7 545,-340.7 693,-340.7 693,-317.7 545,-317.7"/>
<text text-anchor="start" x="550" y="-326.3" font-family="Helvetica,sans-Serif" font-weight="bold" font-size="11.00" fill="#000000">act_ru_task</text>
<text text-anchor="start" x="658.0437" y="-325.8" font-family="Helvetica,sans-Serif" font-size="11.00" fill="#000000">[table]</text>
<polygon fill="none" stroke="#000000" points="545,-295.7 545,-317.7 693,-317.7 693,-295.7 545,-295.7"/>
<image xlink:href="../../images/primaryKeys.png" width="11px" height="12px" preserveAspectRatio="xMinYMin meet" x="550" y="-312.7"/>
<text text-anchor="start" x="565" y="-302.8" font-family="Helvetica,sans-Serif" font-size="11.00" fill="#000000">id_</text>
<polygon fill="#ffffff" stroke="transparent" points="545,-273.7 545,-295.7 693,-295.7 693,-273.7 545,-273.7"/>
<polygon fill="none" stroke="#000000" points="545,-273.7 545,-295.7 693,-295.7 693,-273.7 545,-273.7"/>
<image xlink:href="../../images/foreignKeys.png" width="11px" height="12px" preserveAspectRatio="xMinYMin meet" x="550" y="-290.7"/>
<text text-anchor="start" x="565" y="-280.8" font-family="Helvetica,sans-Serif" font-size="11.00" fill="#000000">execution_id_</text>
<polygon fill="#ffffff" stroke="transparent" points="545,-251.7 545,-273.7 693,-273.7 693,-251.7 545,-251.7"/>
<polygon fill="none" stroke="#000000" points="545,-251.7 545,-273.7 693,-273.7 693,-251.7 545,-251.7"/>
<image xlink:href="../../images/foreignKeys.png" width="11px" height="12px" preserveAspectRatio="xMinYMin meet" x="550" y="-268.7"/>
<text text-anchor="start" x="565" y="-258.8" font-family="Helvetica,sans-Serif" font-size="11.00" fill="#000000">proc_inst_id_</text>
<polygon fill="#ffffff" stroke="transparent" points="545,-229.7 545,-251.7 693,-251.7 693,-229.7 545,-229.7"/>
<polygon fill="none" stroke="#000000" points="545,-229.7 545,-251.7 693,-251.7 693,-229.7 545,-229.7"/>
<image xlink:href="../../images/foreignKeys.png" width="11px" height="12px" preserveAspectRatio="xMinYMin meet" x="550" y="-246.7"/>
<text text-anchor="start" x="565" y="-236.8" font-family="Helvetica,sans-Serif" font-size="11.00" fill="#000000">proc_def_id_</text>
<polygon fill="#ffffff" stroke="transparent" points="545,-207.7 545,-229.7 693,-229.7 693,-207.7 545,-207.7"/>
<polygon fill="none" stroke="#000000" points="545,-207.7 545,-229.7 693,-229.7 693,-207.7 545,-207.7"/>
<image xlink:href="../../images/foreignKeys.png" width="11px" height="12px" preserveAspectRatio="xMinYMin meet" x="550" y="-224.7"/>
<text text-anchor="start" x="565" y="-214.8" font-family="Helvetica,sans-Serif" font-size="11.00" fill="#000000">case_execution_id_</text>
<polygon fill="#ffffff" stroke="transparent" points="545,-185.7 545,-207.7 693,-207.7 693,-185.7 545,-185.7"/>
<polygon fill="none" stroke="#000000" points="545,-185.7 545,-207.7 693,-207.7 693,-185.7 545,-185.7"/>
<image xlink:href="../../images/foreignKeys.png" width="11px" height="12px" preserveAspectRatio="xMinYMin meet" x="550" y="-202.7"/>
<text text-anchor="start" x="565" y="-192.8" font-family="Helvetica,sans-Serif" font-size="11.00" fill="#000000">case_def_id_</text>
<polygon fill="#ffffff" stroke="transparent" points="545,-163.7 545,-185.7 693,-185.7 693,-163.7 545,-163.7"/>
<polygon fill="none" stroke="#000000" points="545,-163.7 545,-185.7 693,-185.7 693,-163.7 545,-163.7"/>
<text text-anchor="start" x="565" y="-170.8" font-family="Helvetica,sans-Serif" font-size="11.00" fill="#000000">owner_</text>
<polygon fill="#ffffff" stroke="transparent" points="545,-141.7 545,-163.7 693,-163.7 693,-141.7 545,-141.7"/>
<polygon fill="none" stroke="#000000" points="545,-141.7 545,-163.7 693,-163.7 693,-141.7 545,-141.7"/>
<text text-anchor="start" x="565" y="-148.8" font-family="Helvetica,sans-Serif" font-size="11.00" fill="#000000">assignee_</text>
<polygon fill="#ffffff" stroke="transparent" points="545,-119.7 545,-141.7 693,-141.7 693,-119.7 545,-119.7"/>
<polygon fill="none" stroke="#000000" points="545,-119.7 545,-141.7 693,-141.7 693,-119.7 545,-119.7"/>
<text text-anchor="start" x="565" y="-126.8" font-family="Helvetica,sans-Serif" font-size="11.00" fill="#000000">create_time_</text>
<polygon fill="#ffffff" stroke="transparent" points="545,-97.7 545,-119.7 693,-119.7 693,-97.7 545,-97.7"/>
<polygon fill="none" stroke="#000000" points="545,-97.7 545,-119.7 693,-119.7 693,-97.7 545,-97.7"/>
<text text-anchor="start" x="565" y="-104.8" font-family="Helvetica,sans-Serif" font-size="11.00" fill="#000000">last_updated_</text>
<polygon fill="#ffffff" stroke="transparent" points="545,-75.7 545,-97.7 693,-97.7 693,-75.7 545,-75.7"/>
<polygon fill="none" stroke="#000000" points="545,-75.7 545,-97.7 693,-97.7 693,-75.7 545,-75.7"/>
<text text-anchor="start" x="565" y="-82.8" font-family="Helvetica,sans-Serif" font-size="11.00" fill="#000000">tenant_id_</text>
<polygon fill="none" stroke="#000000" points="545,-56.7 545,-75.7 693,-75.7 693,-56.7 545,-56.7"/>
<text text-anchor="start" x="548" y="-62.8" font-family="Helvetica,sans-Serif" font-size="11.00" fill="#000000">...</text>
<polygon fill="#ffffff" stroke="transparent" points="545,-37.7 545,-56.7 613,-56.7 613,-37.7 545,-37.7"/>
<polygon fill="none" stroke="#000000" points="545,-37.7 545,-56.7 613,-56.7 613,-37.7 545,-37.7"/>
<text text-anchor="start" x="548" y="-43.8" font-family="Helvetica,sans-Serif" font-size="11.00" fill="#000000">&lt; 5</text>
<polygon fill="#ffffff" stroke="transparent" points="613,-37.7 613,-56.7 648,-56.7 648,-37.7 613,-37.7"/>
<polygon fill="none" stroke="#000000" points="613,-37.7 613,-56.7 648,-56.7 648,-37.7 613,-37.7"/>
<text text-anchor="start" x="638.8862" y="-43.8" font-family="Helvetica,sans-Serif" font-size="11.00" fill="#000000"> &#160;</text>
<polygon fill="#ffffff" stroke="transparent" points="648,-37.7 648,-56.7 693,-56.7 693,-37.7 648,-37.7"/>
<polygon fill="none" stroke="#000000" points="648,-37.7 648,-56.7 693,-56.7 693,-37.7 648,-37.7"/>
<text text-anchor="start" x="674.4053" y="-43.8" font-family="Helvetica,sans-Serif" font-size="11.00" fill="#000000">1 &gt;</text>
</a>
</g>
</g>
<!-- act_ru_task&#45;&gt;act_ru_case_execution -->
<g id="edge7" class="edge">
<title>act_ru_task:w&#45;&gt;act_ru_case_execution:e</title>
<path fill="none" stroke="#000000" d="M531.2172,-223.6165C482.4464,-263.4368 534.3131,-531.7 468,-531.7"/>
<polygon fill="#000000" stroke="#000000" points="537.465,-221.3878 546.2095,-222.0907 541.2325,-220.0439 545,-218.7 545,-218.7 545,-218.7 541.2325,-220.0439 543.7905,-215.3093 537.465,-221.3878 537.465,-221.3878"/>
<ellipse fill="none" stroke="#000000" cx="534.451" cy="-222.463" rx="3.2" ry="3.2"/>
</g>
<!-- act_ru_task&#45;&gt;act_re_case_def -->
<g id="edge6" class="edge">
<title>act_ru_task:w&#45;&gt;act_re_case_def:e</title>
<path fill="none" stroke="#000000" d="M530.4342,-196.5422C396.0446,-193.6335 339.3116,-152.3378 220,-225.7 191.0049,-243.5285 213.5377,-290.7 179.5,-290.7"/>
<polygon fill="#000000" stroke="#000000" points="537.0005,-196.6133 544.961,-200.2998 541.0002,-196.6566 545,-196.7 545,-196.7 545,-196.7 541.0002,-196.6566 545.039,-193.1002 537.0005,-196.6133 537.0005,-196.6133"/>
<ellipse fill="none" stroke="#000000" cx="533.8007" cy="-196.5786" rx="3.2" ry="3.2"/>
</g>
<!-- act_ru_variable -->
<g id="node5" class="node">
<title>act_ru_variable</title>
<g id="a_node5"><a xlink:href="../../tables/act_ru_variable.html" xlink:title="act_ru_variable" target="_top">
<polygon fill="#ffffff" stroke="transparent" points="541.5,-362.2 541.5,-687.2 696.5,-687.2 696.5,-362.2 541.5,-362.2"/>
<polygon fill="#f5f5f5" stroke="transparent" points="542,-663.7 542,-686.7 697,-686.7 697,-663.7 542,-663.7"/>
<polygon fill="none" stroke="#000000" points="542,-663.7 542,-686.7 697,-686.7 697,-663.7 542,-663.7"/>
<text text-anchor="start" x="547" y="-672.3" font-family="Helvetica,sans-Serif" font-weight="bold" font-size="11.00" fill="#000000">act_ru_variable</text>
<text text-anchor="start" x="662.0437" y="-671.8" font-family="Helvetica,sans-Serif" font-size="11.00" fill="#000000">[table]</text>
<polygon fill="none" stroke="#000000" points="542,-641.7 542,-663.7 697,-663.7 697,-641.7 542,-641.7"/>
<image xlink:href="../../images/primaryKeys.png" width="11px" height="12px" preserveAspectRatio="xMinYMin meet" x="547" y="-658.7"/>
<text text-anchor="start" x="562" y="-648.8" font-family="Helvetica,sans-Serif" font-size="11.00" fill="#000000">id_</text>
<polygon fill="#ffffff" stroke="transparent" points="542,-619.7 542,-641.7 697,-641.7 697,-619.7 542,-619.7"/>
<polygon fill="none" stroke="#000000" points="542,-619.7 542,-641.7 697,-641.7 697,-619.7 542,-619.7"/>
<text text-anchor="start" x="562" y="-626.8" font-family="Helvetica,sans-Serif" font-size="11.00" fill="#000000">type_</text>
<polygon fill="#ffffff" stroke="transparent" points="542,-597.7 542,-619.7 697,-619.7 697,-597.7 542,-597.7"/>
<polygon fill="none" stroke="#000000" points="542,-597.7 542,-619.7 697,-619.7 697,-597.7 542,-597.7"/>
<text text-anchor="start" x="562" y="-604.8" font-family="Helvetica,sans-Serif" font-size="11.00" fill="#000000">name_</text>
<polygon fill="#ffffff" stroke="transparent" points="542,-575.7 542,-597.7 697,-597.7 697,-575.7 542,-575.7"/>
<polygon fill="none" stroke="#000000" points="542,-575.7 542,-597.7 697,-597.7 697,-575.7 542,-575.7"/>
<image xlink:href="../../images/foreignKeys.png" width="11px" height="12px" preserveAspectRatio="xMinYMin meet" x="547" y="-592.7"/>
<text text-anchor="start" x="562" y="-582.8" font-family="Helvetica,sans-Serif" font-size="11.00" fill="#000000">execution_id_</text>
<polygon fill="#ffffff" stroke="transparent" points="542,-553.7 542,-575.7 697,-575.7 697,-553.7 542,-553.7"/>
<polygon fill="none" stroke="#000000" points="542,-553.7 542,-575.7 697,-575.7 697,-553.7 542,-553.7"/>
<image xlink:href="../../images/foreignKeys.png" width="11px" height="12px" preserveAspectRatio="xMinYMin meet" x="547" y="-570.7"/>
<text text-anchor="start" x="562" y="-560.8" font-family="Helvetica,sans-Serif" font-size="11.00" fill="#000000">proc_inst_id_</text>
<polygon fill="#ffffff" stroke="transparent" points="542,-531.7 542,-553.7 697,-553.7 697,-531.7 542,-531.7"/>
<polygon fill="none" stroke="#000000" points="542,-531.7 542,-553.7 697,-553.7 697,-531.7 542,-531.7"/>
<image xlink:href="../../images/foreignKeys.png" width="11px" height="12px" preserveAspectRatio="xMinYMin meet" x="547" y="-548.7"/>
<text text-anchor="start" x="562" y="-538.8" font-family="Helvetica,sans-Serif" font-size="11.00" fill="#000000">case_execution_id_</text>
<polygon fill="#ffffff" stroke="transparent" points="542,-509.7 542,-531.7 697,-531.7 697,-509.7 542,-509.7"/>
<polygon fill="none" stroke="#000000" points="542,-509.7 542,-531.7 697,-531.7 697,-509.7 542,-509.7"/>
<image xlink:href="../../images/foreignKeys.png" width="11px" height="12px" preserveAspectRatio="xMinYMin meet" x="547" y="-526.7"/>
<text text-anchor="start" x="562" y="-516.8" font-family="Helvetica,sans-Serif" font-size="11.00" fill="#000000">case_inst_id_</text>
<polygon fill="#ffffff" stroke="transparent" points="542,-487.7 542,-509.7 697,-509.7 697,-487.7 542,-487.7"/>
<polygon fill="none" stroke="#000000" points="542,-487.7 542,-509.7 697,-509.7 697,-487.7 542,-487.7"/>
<text text-anchor="start" x="562" y="-494.8" font-family="Helvetica,sans-Serif" font-size="11.00" fill="#000000">task_id_</text>
<polygon fill="#ffffff" stroke="transparent" points="542,-465.7 542,-487.7 697,-487.7 697,-465.7 542,-465.7"/>
<polygon fill="none" stroke="#000000" points="542,-465.7 542,-487.7 697,-487.7 697,-465.7 542,-465.7"/>
<image xlink:href="../../images/foreignKeys.png" width="11px" height="12px" preserveAspectRatio="xMinYMin meet" x="547" y="-482.7"/>
<text text-anchor="start" x="562" y="-472.8" font-family="Helvetica,sans-Serif" font-size="11.00" fill="#000000">batch_id_</text>
<polygon fill="#ffffff" stroke="transparent" points="542,-443.7 542,-465.7 697,-465.7 697,-443.7 542,-443.7"/>
<polygon fill="none" stroke="#000000" points="542,-443.7 542,-465.7 697,-465.7 697,-443.7 542,-443.7"/>
<image xlink:href="../../images/foreignKeys.png" width="11px" height="12px" preserveAspectRatio="xMinYMin meet" x="547" y="-460.7"/>
<text text-anchor="start" x="562" y="-450.8" font-family="Helvetica,sans-Serif" font-size="11.00" fill="#000000">bytearray_id_</text>
<polygon fill="#ffffff" stroke="transparent" points="542,-421.7 542,-443.7 697,-443.7 697,-421.7 542,-421.7"/>
<polygon fill="none" stroke="#000000" points="542,-421.7 542,-443.7 697,-443.7 697,-421.7 542,-421.7"/>
<text text-anchor="start" x="562" y="-428.8" font-family="Helvetica,sans-Serif" font-size="11.00" fill="#000000">var_scope_</text>
<polygon fill="#ffffff" stroke="transparent" points="542,-399.7 542,-421.7 697,-421.7 697,-399.7 542,-399.7"/>
<polygon fill="none" stroke="#000000" points="542,-399.7 542,-421.7 697,-421.7 697,-399.7 542,-399.7"/>
<text text-anchor="start" x="562" y="-406.8" font-family="Helvetica,sans-Serif" font-size="11.00" fill="#000000">tenant_id_</text>
<polygon fill="none" stroke="#000000" points="542,-380.7 542,-399.7 697,-399.7 697,-380.7 542,-380.7"/>
<text text-anchor="start" x="545" y="-386.8" font-family="Helvetica,sans-Serif" font-size="11.00" fill="#000000">...</text>
<polygon fill="#ffffff" stroke="transparent" points="542,-361.7 542,-380.7 618,-380.7 618,-361.7 542,-361.7"/>
<polygon fill="none" stroke="#000000" points="542,-361.7 542,-380.7 618,-380.7 618,-361.7 542,-361.7"/>
<text text-anchor="start" x="545" y="-367.8" font-family="Helvetica,sans-Serif" font-size="11.00" fill="#000000">&lt; 6</text>
<polygon fill="#ffffff" stroke="transparent" points="618,-361.7 618,-380.7 657,-380.7 657,-361.7 618,-361.7"/>
<polygon fill="none" stroke="#000000" points="618,-361.7 618,-380.7 657,-380.7 657,-361.7 618,-361.7"/>
<text text-anchor="start" x="647.8862" y="-367.8" font-family="Helvetica,sans-Serif" font-size="11.00" fill="#000000"> &#160;</text>
<polygon fill="#ffffff" stroke="transparent" points="657,-361.7 657,-380.7 697,-380.7 697,-361.7 657,-361.7"/>
<polygon fill="none" stroke="#000000" points="657,-361.7 657,-380.7 697,-380.7 697,-361.7 657,-361.7"/>
<text text-anchor="start" x="687.8862" y="-367.8" font-family="Helvetica,sans-Serif" font-size="11.00" fill="#000000"> &#160;</text>
</a>
</g>
</g>
<!-- act_ru_variable&#45;&gt;act_ru_case_execution -->
<g id="edge8" class="edge">
<title>act_ru_variable:w&#45;&gt;act_ru_case_execution:e</title>
<path fill="none" stroke="#000000" d="M527.4866,-541.9089C505.5958,-539.3867 495.7951,-531.7 468,-531.7"/>
<polygon fill="#000000" stroke="#000000" points="534.0119,-542.2645 541.804,-546.2947 538.0059,-542.4823 542,-542.7 542,-542.7 542,-542.7 538.0059,-542.4823 542.196,-539.1053 534.0119,-542.2645 534.0119,-542.2645"/>
<ellipse fill="none" stroke="#000000" cx="530.8166" cy="-542.0903" rx="3.2" ry="3.2"/>
</g>
<!-- act_ru_variable&#45;&gt;act_ru_case_execution -->
<g id="edge9" class="edge">
<title>act_ru_variable:w&#45;&gt;act_ru_case_execution:e</title>
<path fill="none" stroke="#000000" d="M527.4866,-521.4911C505.5958,-524.0133 495.7951,-531.7 468,-531.7"/>
<polygon fill="#000000" stroke="#000000" points="534.0119,-521.1355 542.196,-524.2947 538.0059,-520.9177 542,-520.7 542,-520.7 542,-520.7 538.0059,-520.9177 541.804,-517.1053 534.0119,-521.1355 534.0119,-521.1355"/>
<ellipse fill="none" stroke="#000000" cx="530.8166" cy="-521.3097" rx="3.2" ry="3.2"/>
</g>
</g>
</svg>
