<?xml version="1.0" encoding="UTF-8" standalone="no"?>
<!DOCTYPE svg PUBLIC "-//W3C//DTD SVG 1.1//EN"
 "http://www.w3.org/Graphics/SVG/1.1/DTD/svg11.dtd">
<!-- Generated by graphviz version 2.40.1 (20161225.0304)
 -->
<!-- Title: oneDegreeRelationshipsDiagram Pages: 1 -->
<svg width="694pt" height="869pt"
 viewBox="0.00 0.00 694.00 869.20" xmlns="http://www.w3.org/2000/svg" xmlns:xlink="http://www.w3.org/1999/xlink">
<g id="graph0" class="graph" transform="scale(1 1) rotate(0) translate(4 865.2)">
<title>oneDegreeRelationshipsDiagram</title>
<polygon fill="#ffffff" stroke="transparent" points="-4,4 -4,-865.2 690,-865.2 690,4 -4,4"/>
<text text-anchor="middle" x="72.4936" y="-7.3" font-family="Helvetica,sans-Serif" font-size="11.00" fill="#000000">Generated by SchemaSpy</text>
<!-- act_ge_bytearray -->
<g id="node1" class="node">
<title>act_ge_bytearray</title>
<g id="a_node1"><a xlink:href="../../tables/act_ge_bytearray.html" xlink:title="act_ge_bytearray" target="_top">
<polygon fill="#ffffff" stroke="transparent" points="223,-268.7 223,-556.7 468,-556.7 468,-268.7 223,-268.7"/>
<polygon fill="#f5f5f5" stroke="transparent" points="225.5,-531.7 225.5,-554.7 466.5,-554.7 466.5,-531.7 225.5,-531.7"/>
<polygon fill="none" stroke="#000000" points="225.5,-531.7 225.5,-554.7 466.5,-554.7 466.5,-531.7 225.5,-531.7"/>
<text text-anchor="start" x="230.5" y="-540.3" font-family="Helvetica,sans-Serif" font-weight="bold" font-size="11.00" fill="#000000">act_ge_bytearray</text>
<text text-anchor="start" x="431.5437" y="-539.8" font-family="Helvetica,sans-Serif" font-size="11.00" fill="#000000">[table]</text>
<polygon fill="none" stroke="#000000" points="225.5,-509.7 225.5,-531.7 366.5,-531.7 366.5,-509.7 225.5,-509.7"/>
<image xlink:href="../../images/primaryKeys.png" width="11px" height="12px" preserveAspectRatio="xMinYMin meet" x="230.5" y="-526.7"/>
<text text-anchor="start" x="245.5" y="-516.8" font-family="Helvetica,sans-Serif" font-size="11.00" fill="#000000">id_</text>
<polygon fill="none" stroke="#000000" points="366.5,-509.7 366.5,-531.7 466.5,-531.7 466.5,-509.7 366.5,-509.7"/>
<text text-anchor="start" x="369.5" y="-517.4" font-family="Helvetica,sans-Serif" font-size="11.00" fill="#000000">varchar[64]</text>
<polygon fill="none" stroke="#000000" points="225.5,-487.7 225.5,-509.7 366.5,-509.7 366.5,-487.7 225.5,-487.7"/>
<text text-anchor="start" x="245.5" y="-494.8" font-family="Helvetica,sans-Serif" font-size="11.00" fill="#000000">rev_</text>
<polygon fill="none" stroke="#000000" points="366.5,-487.7 366.5,-509.7 466.5,-509.7 466.5,-487.7 366.5,-487.7"/>
<text text-anchor="start" x="369.5" y="-495.4" font-family="Helvetica,sans-Serif" font-size="11.00" fill="#000000">int4[10]</text>
<polygon fill="#ffffff" stroke="transparent" points="225.5,-465.7 225.5,-487.7 366.5,-487.7 366.5,-465.7 225.5,-465.7"/>
<polygon fill="none" stroke="#000000" points="225.5,-465.7 225.5,-487.7 366.5,-487.7 366.5,-465.7 225.5,-465.7"/>
<text text-anchor="start" x="245.5" y="-472.8" font-family="Helvetica,sans-Serif" font-size="11.00" fill="#000000">name_</text>
<polygon fill="none" stroke="#000000" points="366.5,-465.7 366.5,-487.7 466.5,-487.7 466.5,-465.7 366.5,-465.7"/>
<text text-anchor="start" x="369.5" y="-473.4" font-family="Helvetica,sans-Serif" font-size="11.00" fill="#000000">varchar[255]</text>
<polygon fill="#ffffff" stroke="transparent" points="225.5,-443.7 225.5,-465.7 366.5,-465.7 366.5,-443.7 225.5,-443.7"/>
<polygon fill="none" stroke="#000000" points="225.5,-443.7 225.5,-465.7 366.5,-465.7 366.5,-443.7 225.5,-443.7"/>
<image xlink:href="../../images/foreignKeys.png" width="11px" height="12px" preserveAspectRatio="xMinYMin meet" x="230.5" y="-460.7"/>
<text text-anchor="start" x="245.5" y="-450.8" font-family="Helvetica,sans-Serif" font-size="11.00" fill="#000000">deployment_id_</text>
<polygon fill="none" stroke="#000000" points="366.5,-443.7 366.5,-465.7 466.5,-465.7 466.5,-443.7 366.5,-443.7"/>
<text text-anchor="start" x="369.5" y="-451.4" font-family="Helvetica,sans-Serif" font-size="11.00" fill="#000000">varchar[64]</text>
<polygon fill="none" stroke="#000000" points="225.5,-421.7 225.5,-443.7 366.5,-443.7 366.5,-421.7 225.5,-421.7"/>
<text text-anchor="start" x="245.5" y="-428.8" font-family="Helvetica,sans-Serif" font-size="11.00" fill="#000000">bytes_</text>
<polygon fill="none" stroke="#000000" points="366.5,-421.7 366.5,-443.7 466.5,-443.7 466.5,-421.7 366.5,-421.7"/>
<text text-anchor="start" x="369.4178" y="-429.4" font-family="Helvetica,sans-Serif" font-size="11.00" fill="#000000">bytea[2147483647]</text>
<polygon fill="none" stroke="#000000" points="225.5,-399.7 225.5,-421.7 366.5,-421.7 366.5,-399.7 225.5,-399.7"/>
<text text-anchor="start" x="245.5" y="-406.8" font-family="Helvetica,sans-Serif" font-size="11.00" fill="#000000">generated_</text>
<polygon fill="none" stroke="#000000" points="366.5,-399.7 366.5,-421.7 466.5,-421.7 466.5,-399.7 366.5,-399.7"/>
<text text-anchor="start" x="369.5" y="-407.4" font-family="Helvetica,sans-Serif" font-size="11.00" fill="#000000">bool[1]</text>
<polygon fill="none" stroke="#000000" points="225.5,-377.7 225.5,-399.7 366.5,-399.7 366.5,-377.7 225.5,-377.7"/>
<text text-anchor="start" x="245.5" y="-384.8" font-family="Helvetica,sans-Serif" font-size="11.00" fill="#000000">tenant_id_</text>
<polygon fill="none" stroke="#000000" points="366.5,-377.7 366.5,-399.7 466.5,-399.7 466.5,-377.7 366.5,-377.7"/>
<text text-anchor="start" x="369.5" y="-385.4" font-family="Helvetica,sans-Serif" font-size="11.00" fill="#000000">varchar[64]</text>
<polygon fill="none" stroke="#000000" points="225.5,-355.7 225.5,-377.7 366.5,-377.7 366.5,-355.7 225.5,-355.7"/>
<text text-anchor="start" x="245.5" y="-362.8" font-family="Helvetica,sans-Serif" font-size="11.00" fill="#000000">type_</text>
<polygon fill="none" stroke="#000000" points="366.5,-355.7 366.5,-377.7 466.5,-377.7 466.5,-355.7 366.5,-355.7"/>
<text text-anchor="start" x="369.5" y="-363.4" font-family="Helvetica,sans-Serif" font-size="11.00" fill="#000000">int4[10]</text>
<polygon fill="none" stroke="#000000" points="225.5,-333.7 225.5,-355.7 366.5,-355.7 366.5,-333.7 225.5,-333.7"/>
<text text-anchor="start" x="245.5" y="-340.8" font-family="Helvetica,sans-Serif" font-size="11.00" fill="#000000">create_time_</text>
<polygon fill="none" stroke="#000000" points="366.5,-333.7 366.5,-355.7 466.5,-355.7 466.5,-333.7 366.5,-333.7"/>
<text text-anchor="start" x="369.5" y="-341.4" font-family="Helvetica,sans-Serif" font-size="11.00" fill="#000000">timestamp[29,6]</text>
<polygon fill="#ffffff" stroke="transparent" points="225.5,-311.7 225.5,-333.7 366.5,-333.7 366.5,-311.7 225.5,-311.7"/>
<polygon fill="none" stroke="#000000" points="225.5,-311.7 225.5,-333.7 366.5,-333.7 366.5,-311.7 225.5,-311.7"/>
<text text-anchor="start" x="245.5" y="-318.8" font-family="Helvetica,sans-Serif" font-size="11.00" fill="#000000">root_proc_inst_id_</text>
<polygon fill="none" stroke="#000000" points="366.5,-311.7 366.5,-333.7 466.5,-333.7 466.5,-311.7 366.5,-311.7"/>
<text text-anchor="start" x="369.5" y="-319.4" font-family="Helvetica,sans-Serif" font-size="11.00" fill="#000000">varchar[64]</text>
<polygon fill="#ffffff" stroke="transparent" points="225.5,-289.7 225.5,-311.7 366.5,-311.7 366.5,-289.7 225.5,-289.7"/>
<polygon fill="none" stroke="#000000" points="225.5,-289.7 225.5,-311.7 366.5,-311.7 366.5,-289.7 225.5,-289.7"/>
<text text-anchor="start" x="245.5" y="-296.8" font-family="Helvetica,sans-Serif" font-size="11.00" fill="#000000">removal_time_</text>
<polygon fill="none" stroke="#000000" points="366.5,-289.7 366.5,-311.7 466.5,-311.7 466.5,-289.7 366.5,-289.7"/>
<text text-anchor="start" x="369.5" y="-297.4" font-family="Helvetica,sans-Serif" font-size="11.00" fill="#000000">timestamp[29,6]</text>
<polygon fill="#ffffff" stroke="transparent" points="225.5,-270.7 225.5,-289.7 300.5,-289.7 300.5,-270.7 225.5,-270.7"/>
<polygon fill="none" stroke="#000000" points="225.5,-270.7 225.5,-289.7 300.5,-289.7 300.5,-270.7 225.5,-270.7"/>
<text text-anchor="start" x="228.5" y="-276.8" font-family="Helvetica,sans-Serif" font-size="11.00" fill="#000000">&lt; 1</text>
<polygon fill="#ffffff" stroke="transparent" points="300.5,-270.7 300.5,-289.7 366.5,-289.7 366.5,-270.7 300.5,-270.7"/>
<polygon fill="none" stroke="#000000" points="300.5,-270.7 300.5,-289.7 366.5,-289.7 366.5,-270.7 300.5,-270.7"/>
<text text-anchor="start" x="357.3862" y="-276.8" font-family="Helvetica,sans-Serif" font-size="11.00" fill="#000000"> &#160;</text>
<polygon fill="#ffffff" stroke="transparent" points="366.5,-270.7 366.5,-289.7 466.5,-289.7 466.5,-270.7 366.5,-270.7"/>
<polygon fill="none" stroke="#000000" points="366.5,-270.7 366.5,-289.7 466.5,-289.7 466.5,-270.7 366.5,-270.7"/>
<text text-anchor="start" x="447.9053" y="-276.8" font-family="Helvetica,sans-Serif" font-size="11.00" fill="#000000">3 &gt;</text>
<polygon fill="none" stroke="#000000" stroke-width="2" points="224,-269.7 224,-555.7 467,-555.7 467,-269.7 224,-269.7"/>
</a>
</g>
</g>
<!-- act_re_deployment -->
<g id="node2" class="node">
<title>act_re_deployment</title>
<g id="a_node2"><a xlink:href="../../tables/act_re_deployment.html" xlink:title="act_re_deployment" target="_top">
<polygon fill="#ffffff" stroke="transparent" points="8,-362.2 8,-489.2 174,-489.2 174,-362.2 8,-362.2"/>
<polygon fill="#f5f5f5" stroke="transparent" points="8,-465.7 8,-488.7 174,-488.7 174,-465.7 8,-465.7"/>
<polygon fill="none" stroke="#000000" points="8,-465.7 8,-488.7 174,-488.7 174,-465.7 8,-465.7"/>
<text text-anchor="start" x="13" y="-474.3" font-family="Helvetica,sans-Serif" font-weight="bold" font-size="11.00" fill="#000000">act_re_deployment</text>
<text text-anchor="start" x="139.5219" y="-473.8" font-family="Helvetica,sans-Serif" font-size="11.00" fill="#000000">[table]</text>
<polygon fill="none" stroke="#000000" points="8,-443.7 8,-465.7 174,-465.7 174,-443.7 8,-443.7"/>
<image xlink:href="../../images/primaryKeys.png" width="11px" height="12px" preserveAspectRatio="xMinYMin meet" x="13" y="-460.7"/>
<text text-anchor="start" x="37" y="-450.8" font-family="Helvetica,sans-Serif" font-size="11.00" fill="#000000">id_</text>
<polygon fill="#ffffff" stroke="transparent" points="8,-421.7 8,-443.7 174,-443.7 174,-421.7 8,-421.7"/>
<polygon fill="none" stroke="#000000" points="8,-421.7 8,-443.7 174,-443.7 174,-421.7 8,-421.7"/>
<text text-anchor="start" x="37" y="-428.8" font-family="Helvetica,sans-Serif" font-size="11.00" fill="#000000">name_</text>
<polygon fill="#ffffff" stroke="transparent" points="8,-399.7 8,-421.7 174,-421.7 174,-399.7 8,-399.7"/>
<polygon fill="none" stroke="#000000" points="8,-399.7 8,-421.7 174,-421.7 174,-399.7 8,-399.7"/>
<text text-anchor="start" x="37" y="-406.8" font-family="Helvetica,sans-Serif" font-size="11.00" fill="#000000">tenant_id_</text>
<polygon fill="none" stroke="#000000" points="8,-380.7 8,-399.7 174,-399.7 174,-380.7 8,-380.7"/>
<text text-anchor="start" x="11" y="-386.8" font-family="Helvetica,sans-Serif" font-size="11.00" fill="#000000">...</text>
<polygon fill="#ffffff" stroke="transparent" points="8,-361.7 8,-380.7 80,-380.7 80,-361.7 8,-361.7"/>
<polygon fill="none" stroke="#000000" points="8,-361.7 8,-380.7 80,-380.7 80,-361.7 8,-361.7"/>
<text text-anchor="start" x="11" y="-367.8" font-family="Helvetica,sans-Serif" font-size="11.00" fill="#000000"> &#160;</text>
<polygon fill="#ffffff" stroke="transparent" points="80,-361.7 80,-380.7 122,-380.7 122,-361.7 80,-361.7"/>
<polygon fill="none" stroke="#000000" points="80,-361.7 80,-380.7 122,-380.7 122,-361.7 80,-361.7"/>
<text text-anchor="start" x="112.8862" y="-367.8" font-family="Helvetica,sans-Serif" font-size="11.00" fill="#000000"> &#160;</text>
<polygon fill="#ffffff" stroke="transparent" points="122,-361.7 122,-380.7 174,-380.7 174,-361.7 122,-361.7"/>
<polygon fill="none" stroke="#000000" points="122,-361.7 122,-380.7 174,-380.7 174,-361.7 122,-361.7"/>
<text text-anchor="start" x="155.4053" y="-367.8" font-family="Helvetica,sans-Serif" font-size="11.00" fill="#000000">1 &gt;</text>
</a>
</g>
</g>
<!-- act_ge_bytearray&#45;&gt;act_re_deployment -->
<g id="edge1" class="edge">
<title>act_ge_bytearray:w&#45;&gt;act_re_deployment:e</title>
<path fill="none" stroke="#000000" d="M211.0156,-454.7C198.6771,-454.7 191.1667,-454.7 174,-454.7"/>
<polygon fill="#000000" stroke="#000000" points="217.5,-454.7001 225.5,-458.3 221.5,-454.7 225.5,-454.7 225.5,-454.7 225.5,-454.7 221.5,-454.7 225.5,-451.1 217.5,-454.7001 217.5,-454.7001"/>
<ellipse fill="none" stroke="#000000" cx="214.3" cy="-454.7001" rx="3.2" ry="3.2"/>
</g>
<!-- act_ru_ext_task -->
<g id="node3" class="node">
<title>act_ru_ext_task</title>
<g id="a_node3"><a xlink:href="../../tables/act_ru_ext_task.html" xlink:title="act_ru_ext_task" target="_top">
<polygon fill="#ffffff" stroke="transparent" points="524,-664.2 524,-857.2 671,-857.2 671,-664.2 524,-664.2"/>
<polygon fill="#f5f5f5" stroke="transparent" points="524.5,-833.7 524.5,-856.7 671.5,-856.7 671.5,-833.7 524.5,-833.7"/>
<polygon fill="none" stroke="#000000" points="524.5,-833.7 524.5,-856.7 671.5,-856.7 671.5,-833.7 524.5,-833.7"/>
<text text-anchor="start" x="529.5" y="-842.3" font-family="Helvetica,sans-Serif" font-weight="bold" font-size="11.00" fill="#000000">act_ru_ext_task</text>
<text text-anchor="start" x="636.5437" y="-841.8" font-family="Helvetica,sans-Serif" font-size="11.00" fill="#000000">[table]</text>
<polygon fill="none" stroke="#000000" points="524.5,-811.7 524.5,-833.7 671.5,-833.7 671.5,-811.7 524.5,-811.7"/>
<image xlink:href="../../images/primaryKeys.png" width="11px" height="12px" preserveAspectRatio="xMinYMin meet" x="529.5" y="-828.7"/>
<text text-anchor="start" x="544.5" y="-818.8" font-family="Helvetica,sans-Serif" font-size="11.00" fill="#000000">id_</text>
<polygon fill="#ffffff" stroke="transparent" points="524.5,-789.7 524.5,-811.7 671.5,-811.7 671.5,-789.7 524.5,-789.7"/>
<polygon fill="none" stroke="#000000" points="524.5,-789.7 524.5,-811.7 671.5,-811.7 671.5,-789.7 524.5,-789.7"/>
<text text-anchor="start" x="544.5" y="-796.8" font-family="Helvetica,sans-Serif" font-size="11.00" fill="#000000">topic_name_</text>
<polygon fill="#ffffff" stroke="transparent" points="524.5,-767.7 524.5,-789.7 671.5,-789.7 671.5,-767.7 524.5,-767.7"/>
<polygon fill="none" stroke="#000000" points="524.5,-767.7 524.5,-789.7 671.5,-789.7 671.5,-767.7 524.5,-767.7"/>
<image xlink:href="../../images/foreignKeys.png" width="11px" height="12px" preserveAspectRatio="xMinYMin meet" x="529.5" y="-784.7"/>
<text text-anchor="start" x="544.5" y="-774.8" font-family="Helvetica,sans-Serif" font-size="11.00" fill="#000000">error_details_id_</text>
<polygon fill="#ffffff" stroke="transparent" points="524.5,-745.7 524.5,-767.7 671.5,-767.7 671.5,-745.7 524.5,-745.7"/>
<polygon fill="none" stroke="#000000" points="524.5,-745.7 524.5,-767.7 671.5,-767.7 671.5,-745.7 524.5,-745.7"/>
<image xlink:href="../../images/foreignKeys.png" width="11px" height="12px" preserveAspectRatio="xMinYMin meet" x="529.5" y="-762.7"/>
<text text-anchor="start" x="544.5" y="-752.8" font-family="Helvetica,sans-Serif" font-size="11.00" fill="#000000">execution_id_</text>
<polygon fill="#ffffff" stroke="transparent" points="524.5,-723.7 524.5,-745.7 671.5,-745.7 671.5,-723.7 524.5,-723.7"/>
<polygon fill="none" stroke="#000000" points="524.5,-723.7 524.5,-745.7 671.5,-745.7 671.5,-723.7 524.5,-723.7"/>
<text text-anchor="start" x="544.5" y="-730.8" font-family="Helvetica,sans-Serif" font-size="11.00" fill="#000000">tenant_id_</text>
<polygon fill="#ffffff" stroke="transparent" points="524.5,-701.7 524.5,-723.7 671.5,-723.7 671.5,-701.7 524.5,-701.7"/>
<polygon fill="none" stroke="#000000" points="524.5,-701.7 524.5,-723.7 671.5,-723.7 671.5,-701.7 524.5,-701.7"/>
<text text-anchor="start" x="544.5" y="-708.8" font-family="Helvetica,sans-Serif" font-size="11.00" fill="#000000">priority_</text>
<polygon fill="none" stroke="#000000" points="524.5,-682.7 524.5,-701.7 671.5,-701.7 671.5,-682.7 524.5,-682.7"/>
<text text-anchor="start" x="527.5" y="-688.8" font-family="Helvetica,sans-Serif" font-size="11.00" fill="#000000">...</text>
<polygon fill="#ffffff" stroke="transparent" points="524.5,-663.7 524.5,-682.7 596.5,-682.7 596.5,-663.7 524.5,-663.7"/>
<polygon fill="none" stroke="#000000" points="524.5,-663.7 524.5,-682.7 596.5,-682.7 596.5,-663.7 524.5,-663.7"/>
<text text-anchor="start" x="527.5" y="-669.8" font-family="Helvetica,sans-Serif" font-size="11.00" fill="#000000">&lt; 2</text>
<polygon fill="#ffffff" stroke="transparent" points="596.5,-663.7 596.5,-682.7 633.5,-682.7 633.5,-663.7 596.5,-663.7"/>
<polygon fill="none" stroke="#000000" points="596.5,-663.7 596.5,-682.7 633.5,-682.7 633.5,-663.7 596.5,-663.7"/>
<text text-anchor="start" x="624.3862" y="-669.8" font-family="Helvetica,sans-Serif" font-size="11.00" fill="#000000"> &#160;</text>
<polygon fill="#ffffff" stroke="transparent" points="633.5,-663.7 633.5,-682.7 671.5,-682.7 671.5,-663.7 633.5,-663.7"/>
<polygon fill="none" stroke="#000000" points="633.5,-663.7 633.5,-682.7 671.5,-682.7 671.5,-663.7 633.5,-663.7"/>
<text text-anchor="start" x="662.3862" y="-669.8" font-family="Helvetica,sans-Serif" font-size="11.00" fill="#000000"> &#160;</text>
</a>
</g>
</g>
<!-- act_ru_ext_task&#45;&gt;act_ge_bytearray -->
<g id="edge2" class="edge">
<title>act_ru_ext_task:w&#45;&gt;act_ge_bytearray:e</title>
<path fill="none" stroke="#000000" d="M510.1217,-777.1193C422.6042,-755.5599 578.6341,-520.7 466.5,-520.7"/>
<polygon fill="#000000" stroke="#000000" points="516.5479,-777.8257 524.1066,-782.2784 520.524,-778.2629 524.5,-778.7 524.5,-778.7 524.5,-778.7 520.524,-778.2629 524.8934,-775.1216 516.5479,-777.8257 516.5479,-777.8257"/>
<ellipse fill="none" stroke="#000000" cx="513.3671" cy="-777.476" rx="3.2" ry="3.2"/>
</g>
<!-- act_ru_job -->
<g id="node4" class="node">
<title>act_ru_job</title>
<g id="a_node4"><a xlink:href="../../tables/act_ru_job.html" xlink:title="act_ru_job" target="_top">
<polygon fill="#ffffff" stroke="transparent" points="517,-384.2 517,-643.2 678,-643.2 678,-384.2 517,-384.2"/>
<polygon fill="#f5f5f5" stroke="transparent" points="517.5,-619.7 517.5,-642.7 678.5,-642.7 678.5,-619.7 517.5,-619.7"/>
<polygon fill="none" stroke="#000000" points="517.5,-619.7 517.5,-642.7 678.5,-642.7 678.5,-619.7 517.5,-619.7"/>
<text text-anchor="start" x="522.5" y="-628.3" font-family="Helvetica,sans-Serif" font-weight="bold" font-size="11.00" fill="#000000">act_ru_job</text>
<text text-anchor="start" x="643.5437" y="-627.8" font-family="Helvetica,sans-Serif" font-size="11.00" fill="#000000">[table]</text>
<polygon fill="none" stroke="#000000" points="517.5,-597.7 517.5,-619.7 678.5,-619.7 678.5,-597.7 517.5,-597.7"/>
<image xlink:href="../../images/primaryKeys.png" width="11px" height="12px" preserveAspectRatio="xMinYMin meet" x="522.5" y="-614.7"/>
<text text-anchor="start" x="537.5" y="-604.8" font-family="Helvetica,sans-Serif" font-size="11.00" fill="#000000">id_</text>
<polygon fill="#ffffff" stroke="transparent" points="517.5,-575.7 517.5,-597.7 678.5,-597.7 678.5,-575.7 517.5,-575.7"/>
<polygon fill="none" stroke="#000000" points="517.5,-575.7 517.5,-597.7 678.5,-597.7 678.5,-575.7 517.5,-575.7"/>
<text text-anchor="start" x="537.5" y="-582.8" font-family="Helvetica,sans-Serif" font-size="11.00" fill="#000000">execution_id_</text>
<polygon fill="#ffffff" stroke="transparent" points="517.5,-553.7 517.5,-575.7 678.5,-575.7 678.5,-553.7 517.5,-553.7"/>
<polygon fill="none" stroke="#000000" points="517.5,-553.7 517.5,-575.7 678.5,-575.7 678.5,-553.7 517.5,-553.7"/>
<text text-anchor="start" x="537.5" y="-560.8" font-family="Helvetica,sans-Serif" font-size="11.00" fill="#000000">root_proc_inst_id_</text>
<polygon fill="#ffffff" stroke="transparent" points="517.5,-531.7 517.5,-553.7 678.5,-553.7 678.5,-531.7 517.5,-531.7"/>
<polygon fill="none" stroke="#000000" points="517.5,-531.7 517.5,-553.7 678.5,-553.7 678.5,-531.7 517.5,-531.7"/>
<text text-anchor="start" x="537.5" y="-538.8" font-family="Helvetica,sans-Serif" font-size="11.00" fill="#000000">process_instance_id_</text>
<polygon fill="#ffffff" stroke="transparent" points="517.5,-509.7 517.5,-531.7 678.5,-531.7 678.5,-509.7 517.5,-509.7"/>
<polygon fill="none" stroke="#000000" points="517.5,-509.7 517.5,-531.7 678.5,-531.7 678.5,-509.7 517.5,-509.7"/>
<image xlink:href="../../images/foreignKeys.png" width="11px" height="12px" preserveAspectRatio="xMinYMin meet" x="522.5" y="-526.7"/>
<text text-anchor="start" x="537.5" y="-516.8" font-family="Helvetica,sans-Serif" font-size="11.00" fill="#000000">exception_stack_id_</text>
<polygon fill="#ffffff" stroke="transparent" points="517.5,-487.7 517.5,-509.7 678.5,-509.7 678.5,-487.7 517.5,-487.7"/>
<polygon fill="none" stroke="#000000" points="517.5,-487.7 517.5,-509.7 678.5,-509.7 678.5,-487.7 517.5,-487.7"/>
<text text-anchor="start" x="537.5" y="-494.8" font-family="Helvetica,sans-Serif" font-size="11.00" fill="#000000">handler_type_</text>
<polygon fill="#ffffff" stroke="transparent" points="517.5,-465.7 517.5,-487.7 678.5,-487.7 678.5,-465.7 517.5,-465.7"/>
<polygon fill="none" stroke="#000000" points="517.5,-465.7 517.5,-487.7 678.5,-487.7 678.5,-465.7 517.5,-465.7"/>
<text text-anchor="start" x="537.5" y="-472.8" font-family="Helvetica,sans-Serif" font-size="11.00" fill="#000000">handler_cfg_</text>
<polygon fill="#ffffff" stroke="transparent" points="517.5,-443.7 517.5,-465.7 678.5,-465.7 678.5,-443.7 517.5,-443.7"/>
<polygon fill="none" stroke="#000000" points="517.5,-443.7 517.5,-465.7 678.5,-465.7 678.5,-443.7 517.5,-443.7"/>
<text text-anchor="start" x="537.5" y="-450.8" font-family="Helvetica,sans-Serif" font-size="11.00" fill="#000000">job_def_id_</text>
<polygon fill="#ffffff" stroke="transparent" points="517.5,-421.7 517.5,-443.7 678.5,-443.7 678.5,-421.7 517.5,-421.7"/>
<polygon fill="none" stroke="#000000" points="517.5,-421.7 517.5,-443.7 678.5,-443.7 678.5,-421.7 517.5,-421.7"/>
<text text-anchor="start" x="537.5" y="-428.8" font-family="Helvetica,sans-Serif" font-size="11.00" fill="#000000">tenant_id_</text>
<polygon fill="none" stroke="#000000" points="517.5,-402.7 517.5,-421.7 678.5,-421.7 678.5,-402.7 517.5,-402.7"/>
<text text-anchor="start" x="520.5" y="-408.8" font-family="Helvetica,sans-Serif" font-size="11.00" fill="#000000">...</text>
<polygon fill="#ffffff" stroke="transparent" points="517.5,-383.7 517.5,-402.7 596.5,-402.7 596.5,-383.7 517.5,-383.7"/>
<polygon fill="none" stroke="#000000" points="517.5,-383.7 517.5,-402.7 596.5,-402.7 596.5,-383.7 517.5,-383.7"/>
<text text-anchor="start" x="520.5" y="-389.8" font-family="Helvetica,sans-Serif" font-size="11.00" fill="#000000">&lt; 1</text>
<polygon fill="#ffffff" stroke="transparent" points="596.5,-383.7 596.5,-402.7 637.5,-402.7 637.5,-383.7 596.5,-383.7"/>
<polygon fill="none" stroke="#000000" points="596.5,-383.7 596.5,-402.7 637.5,-402.7 637.5,-383.7 596.5,-383.7"/>
<text text-anchor="start" x="628.3862" y="-389.8" font-family="Helvetica,sans-Serif" font-size="11.00" fill="#000000"> &#160;</text>
<polygon fill="#ffffff" stroke="transparent" points="637.5,-383.7 637.5,-402.7 678.5,-402.7 678.5,-383.7 637.5,-383.7"/>
<polygon fill="none" stroke="#000000" points="637.5,-383.7 637.5,-402.7 678.5,-402.7 678.5,-383.7 637.5,-383.7"/>
<text text-anchor="start" x="669.3862" y="-389.8" font-family="Helvetica,sans-Serif" font-size="11.00" fill="#000000"> &#160;</text>
</a>
</g>
</g>
<!-- act_ru_job&#45;&gt;act_ge_bytearray -->
<g id="edge3" class="edge">
<title>act_ru_job:w&#45;&gt;act_ge_bytearray:e</title>
<path fill="none" stroke="#000000" d="M502.776,-520.7C490.7815,-520.7 483.3229,-520.7 466.5,-520.7"/>
<polygon fill="#000000" stroke="#000000" points="509.5,-520.7001 517.5,-524.3 513.5,-520.7 517.5,-520.7 517.5,-520.7 517.5,-520.7 513.5,-520.7 517.5,-517.1 509.5,-520.7001 509.5,-520.7001"/>
<ellipse fill="none" stroke="#000000" cx="506.3" cy="-520.7001" rx="3.2" ry="3.2"/>
</g>
<!-- act_ru_variable -->
<g id="node5" class="node">
<title>act_ru_variable</title>
<g id="a_node5"><a xlink:href="../../tables/act_ru_variable.html" xlink:title="act_ru_variable" target="_top">
<polygon fill="#ffffff" stroke="transparent" points="520,-38.2 520,-363.2 675,-363.2 675,-38.2 520,-38.2"/>
<polygon fill="#f5f5f5" stroke="transparent" points="520.5,-339.7 520.5,-362.7 675.5,-362.7 675.5,-339.7 520.5,-339.7"/>
<polygon fill="none" stroke="#000000" points="520.5,-339.7 520.5,-362.7 675.5,-362.7 675.5,-339.7 520.5,-339.7"/>
<text text-anchor="start" x="525.5" y="-348.3" font-family="Helvetica,sans-Serif" font-weight="bold" font-size="11.00" fill="#000000">act_ru_variable</text>
<text text-anchor="start" x="640.5437" y="-347.8" font-family="Helvetica,sans-Serif" font-size="11.00" fill="#000000">[table]</text>
<polygon fill="none" stroke="#000000" points="520.5,-317.7 520.5,-339.7 675.5,-339.7 675.5,-317.7 520.5,-317.7"/>
<image xlink:href="../../images/primaryKeys.png" width="11px" height="12px" preserveAspectRatio="xMinYMin meet" x="525.5" y="-334.7"/>
<text text-anchor="start" x="540.5" y="-324.8" font-family="Helvetica,sans-Serif" font-size="11.00" fill="#000000">id_</text>
<polygon fill="#ffffff" stroke="transparent" points="520.5,-295.7 520.5,-317.7 675.5,-317.7 675.5,-295.7 520.5,-295.7"/>
<polygon fill="none" stroke="#000000" points="520.5,-295.7 520.5,-317.7 675.5,-317.7 675.5,-295.7 520.5,-295.7"/>
<text text-anchor="start" x="540.5" y="-302.8" font-family="Helvetica,sans-Serif" font-size="11.00" fill="#000000">type_</text>
<polygon fill="#ffffff" stroke="transparent" points="520.5,-273.7 520.5,-295.7 675.5,-295.7 675.5,-273.7 520.5,-273.7"/>
<polygon fill="none" stroke="#000000" points="520.5,-273.7 520.5,-295.7 675.5,-295.7 675.5,-273.7 520.5,-273.7"/>
<text text-anchor="start" x="540.5" y="-280.8" font-family="Helvetica,sans-Serif" font-size="11.00" fill="#000000">name_</text>
<polygon fill="#ffffff" stroke="transparent" points="520.5,-251.7 520.5,-273.7 675.5,-273.7 675.5,-251.7 520.5,-251.7"/>
<polygon fill="none" stroke="#000000" points="520.5,-251.7 520.5,-273.7 675.5,-273.7 675.5,-251.7 520.5,-251.7"/>
<image xlink:href="../../images/foreignKeys.png" width="11px" height="12px" preserveAspectRatio="xMinYMin meet" x="525.5" y="-268.7"/>
<text text-anchor="start" x="540.5" y="-258.8" font-family="Helvetica,sans-Serif" font-size="11.00" fill="#000000">execution_id_</text>
<polygon fill="#ffffff" stroke="transparent" points="520.5,-229.7 520.5,-251.7 675.5,-251.7 675.5,-229.7 520.5,-229.7"/>
<polygon fill="none" stroke="#000000" points="520.5,-229.7 520.5,-251.7 675.5,-251.7 675.5,-229.7 520.5,-229.7"/>
<image xlink:href="../../images/foreignKeys.png" width="11px" height="12px" preserveAspectRatio="xMinYMin meet" x="525.5" y="-246.7"/>
<text text-anchor="start" x="540.5" y="-236.8" font-family="Helvetica,sans-Serif" font-size="11.00" fill="#000000">proc_inst_id_</text>
<polygon fill="#ffffff" stroke="transparent" points="520.5,-207.7 520.5,-229.7 675.5,-229.7 675.5,-207.7 520.5,-207.7"/>
<polygon fill="none" stroke="#000000" points="520.5,-207.7 520.5,-229.7 675.5,-229.7 675.5,-207.7 520.5,-207.7"/>
<image xlink:href="../../images/foreignKeys.png" width="11px" height="12px" preserveAspectRatio="xMinYMin meet" x="525.5" y="-224.7"/>
<text text-anchor="start" x="540.5" y="-214.8" font-family="Helvetica,sans-Serif" font-size="11.00" fill="#000000">case_execution_id_</text>
<polygon fill="#ffffff" stroke="transparent" points="520.5,-185.7 520.5,-207.7 675.5,-207.7 675.5,-185.7 520.5,-185.7"/>
<polygon fill="none" stroke="#000000" points="520.5,-185.7 520.5,-207.7 675.5,-207.7 675.5,-185.7 520.5,-185.7"/>
<image xlink:href="../../images/foreignKeys.png" width="11px" height="12px" preserveAspectRatio="xMinYMin meet" x="525.5" y="-202.7"/>
<text text-anchor="start" x="540.5" y="-192.8" font-family="Helvetica,sans-Serif" font-size="11.00" fill="#000000">case_inst_id_</text>
<polygon fill="#ffffff" stroke="transparent" points="520.5,-163.7 520.5,-185.7 675.5,-185.7 675.5,-163.7 520.5,-163.7"/>
<polygon fill="none" stroke="#000000" points="520.5,-163.7 520.5,-185.7 675.5,-185.7 675.5,-163.7 520.5,-163.7"/>
<text text-anchor="start" x="540.5" y="-170.8" font-family="Helvetica,sans-Serif" font-size="11.00" fill="#000000">task_id_</text>
<polygon fill="#ffffff" stroke="transparent" points="520.5,-141.7 520.5,-163.7 675.5,-163.7 675.5,-141.7 520.5,-141.7"/>
<polygon fill="none" stroke="#000000" points="520.5,-141.7 520.5,-163.7 675.5,-163.7 675.5,-141.7 520.5,-141.7"/>
<image xlink:href="../../images/foreignKeys.png" width="11px" height="12px" preserveAspectRatio="xMinYMin meet" x="525.5" y="-158.7"/>
<text text-anchor="start" x="540.5" y="-148.8" font-family="Helvetica,sans-Serif" font-size="11.00" fill="#000000">batch_id_</text>
<polygon fill="#ffffff" stroke="transparent" points="520.5,-119.7 520.5,-141.7 675.5,-141.7 675.5,-119.7 520.5,-119.7"/>
<polygon fill="none" stroke="#000000" points="520.5,-119.7 520.5,-141.7 675.5,-141.7 675.5,-119.7 520.5,-119.7"/>
<image xlink:href="../../images/foreignKeys.png" width="11px" height="12px" preserveAspectRatio="xMinYMin meet" x="525.5" y="-136.7"/>
<text text-anchor="start" x="540.5" y="-126.8" font-family="Helvetica,sans-Serif" font-size="11.00" fill="#000000">bytearray_id_</text>
<polygon fill="#ffffff" stroke="transparent" points="520.5,-97.7 520.5,-119.7 675.5,-119.7 675.5,-97.7 520.5,-97.7"/>
<polygon fill="none" stroke="#000000" points="520.5,-97.7 520.5,-119.7 675.5,-119.7 675.5,-97.7 520.5,-97.7"/>
<text text-anchor="start" x="540.5" y="-104.8" font-family="Helvetica,sans-Serif" font-size="11.00" fill="#000000">var_scope_</text>
<polygon fill="#ffffff" stroke="transparent" points="520.5,-75.7 520.5,-97.7 675.5,-97.7 675.5,-75.7 520.5,-75.7"/>
<polygon fill="none" stroke="#000000" points="520.5,-75.7 520.5,-97.7 675.5,-97.7 675.5,-75.7 520.5,-75.7"/>
<text text-anchor="start" x="540.5" y="-82.8" font-family="Helvetica,sans-Serif" font-size="11.00" fill="#000000">tenant_id_</text>
<polygon fill="none" stroke="#000000" points="520.5,-56.7 520.5,-75.7 675.5,-75.7 675.5,-56.7 520.5,-56.7"/>
<text text-anchor="start" x="523.5" y="-62.8" font-family="Helvetica,sans-Serif" font-size="11.00" fill="#000000">...</text>
<polygon fill="#ffffff" stroke="transparent" points="520.5,-37.7 520.5,-56.7 596.5,-56.7 596.5,-37.7 520.5,-37.7"/>
<polygon fill="none" stroke="#000000" points="520.5,-37.7 520.5,-56.7 596.5,-56.7 596.5,-37.7 520.5,-37.7"/>
<text text-anchor="start" x="523.5" y="-43.8" font-family="Helvetica,sans-Serif" font-size="11.00" fill="#000000">&lt; 6</text>
<polygon fill="#ffffff" stroke="transparent" points="596.5,-37.7 596.5,-56.7 635.5,-56.7 635.5,-37.7 596.5,-37.7"/>
<polygon fill="none" stroke="#000000" points="596.5,-37.7 596.5,-56.7 635.5,-56.7 635.5,-37.7 596.5,-37.7"/>
<text text-anchor="start" x="626.3862" y="-43.8" font-family="Helvetica,sans-Serif" font-size="11.00" fill="#000000"> &#160;</text>
<polygon fill="#ffffff" stroke="transparent" points="635.5,-37.7 635.5,-56.7 675.5,-56.7 675.5,-37.7 635.5,-37.7"/>
<polygon fill="none" stroke="#000000" points="635.5,-37.7 635.5,-56.7 675.5,-56.7 675.5,-37.7 635.5,-37.7"/>
<text text-anchor="start" x="666.3862" y="-43.8" font-family="Helvetica,sans-Serif" font-size="11.00" fill="#000000"> &#160;</text>
</a>
</g>
</g>
<!-- act_ru_variable&#45;&gt;act_ge_bytearray -->
<g id="edge4" class="edge">
<title>act_ru_variable:w&#45;&gt;act_ge_bytearray:e</title>
<path fill="none" stroke="#000000" d="M506.4363,-135.0799C447.3155,-177.9266 548.5251,-520.7 466.5,-520.7"/>
<polygon fill="#000000" stroke="#000000" points="512.8618,-133.0788 521.5705,-134.1372 516.6809,-131.8894 520.5,-130.7 520.5,-130.7 520.5,-130.7 516.6809,-131.8894 519.4295,-127.2628 512.8618,-133.0788 512.8618,-133.0788"/>
<ellipse fill="none" stroke="#000000" cx="509.8066" cy="-134.0303" rx="3.2" ry="3.2"/>
</g>
</g>
</svg>
