<?xml version="1.0" encoding="UTF-8" standalone="no"?>
<!DOCTYPE svg PUBLIC "-//W3C//DTD SVG 1.1//EN"
 "http://www.w3.org/Graphics/SVG/1.1/DTD/svg11.dtd">
<!-- Generated by graphviz version 2.40.1 (20161225.0304)
 -->
<!-- Title: twoDegreesRelationshipsDiagram Pages: 1 -->
<svg width="733pt" height="399pt"
 viewBox="0.00 0.00 733.00 398.70" xmlns="http://www.w3.org/2000/svg" xmlns:xlink="http://www.w3.org/1999/xlink">
<g id="graph0" class="graph" transform="scale(1 1) rotate(0) translate(4 394.7)">
<title>twoDegreesRelationshipsDiagram</title>
<polygon fill="#ffffff" stroke="transparent" points="-4,4 -4,-394.7 729,-394.7 729,4 -4,4"/>
<text text-anchor="middle" x="72.4936" y="-7.3" font-family="Helvetica,sans-Serif" font-size="11.00" fill="#000000">Generated by SchemaSpy</text>
<!-- tms_rsrv_action -->
<g id="node1" class="node">
<title>tms_rsrv_action</title>
<g id="a_node1"><a xlink:href="../../tables/tms_rsrv_action.html" xlink:title="tms_rsrv_action" target="_top">
<polygon fill="#ffffff" stroke="transparent" points="514,-325.7 514,-386.7 659,-386.7 659,-325.7 514,-325.7"/>
<polygon fill="#f5f5f5" stroke="transparent" points="514.5,-363.2 514.5,-386.2 659.5,-386.2 659.5,-363.2 514.5,-363.2"/>
<polygon fill="none" stroke="#000000" points="514.5,-363.2 514.5,-386.2 659.5,-386.2 659.5,-363.2 514.5,-363.2"/>
<text text-anchor="start" x="519.5" y="-371.8" font-family="Helvetica,sans-Serif" font-weight="bold" font-size="11.00" fill="#000000">tms_rsrv_action</text>
<text text-anchor="start" x="625.0219" y="-371.3" font-family="Helvetica,sans-Serif" font-size="11.00" fill="#000000">[table]</text>
<polygon fill="none" stroke="#000000" points="514.5,-344.2 514.5,-363.2 659.5,-363.2 659.5,-344.2 514.5,-344.2"/>
<text text-anchor="start" x="517.5" y="-350.3" font-family="Helvetica,sans-Serif" font-size="11.00" fill="#000000">...</text>
<polygon fill="#ffffff" stroke="transparent" points="514.5,-325.2 514.5,-344.2 585.5,-344.2 585.5,-325.2 514.5,-325.2"/>
<polygon fill="none" stroke="#000000" points="514.5,-325.2 514.5,-344.2 585.5,-344.2 585.5,-325.2 514.5,-325.2"/>
<text text-anchor="start" x="517.5" y="-331.3" font-family="Helvetica,sans-Serif" font-size="11.00" fill="#000000">&lt; 1</text>
<polygon fill="#ffffff" stroke="transparent" points="585.5,-325.2 585.5,-344.2 622.5,-344.2 622.5,-325.2 585.5,-325.2"/>
<polygon fill="none" stroke="#000000" points="585.5,-325.2 585.5,-344.2 622.5,-344.2 622.5,-325.2 585.5,-325.2"/>
<text text-anchor="start" x="613.3862" y="-331.3" font-family="Helvetica,sans-Serif" font-size="11.00" fill="#000000"> &#160;</text>
<polygon fill="#ffffff" stroke="transparent" points="622.5,-325.2 622.5,-344.2 659.5,-344.2 659.5,-325.2 622.5,-325.2"/>
<polygon fill="none" stroke="#000000" points="622.5,-325.2 622.5,-344.2 659.5,-344.2 659.5,-325.2 622.5,-325.2"/>
<text text-anchor="start" x="650.3862" y="-331.3" font-family="Helvetica,sans-Serif" font-size="11.00" fill="#000000"> &#160;</text>
</a>
</g>
</g>
<!-- tms_rsrv_route -->
<g id="node2" class="node">
<title>tms_rsrv_route</title>
<g id="a_node2"><a xlink:href="../../tables/tms_rsrv_route.html" xlink:title="tms_rsrv_route" target="_top">
<polygon fill="#ffffff" stroke="transparent" points="214,-74.7 214,-245.7 407,-245.7 407,-74.7 214,-74.7"/>
<polygon fill="#f5f5f5" stroke="transparent" points="214.5,-222.2 214.5,-245.2 407.5,-245.2 407.5,-222.2 214.5,-222.2"/>
<polygon fill="none" stroke="#000000" points="214.5,-222.2 214.5,-245.2 407.5,-245.2 407.5,-222.2 214.5,-222.2"/>
<text text-anchor="start" x="219.5" y="-230.8" font-family="Helvetica,sans-Serif" font-weight="bold" font-size="11.00" fill="#000000">tms_rsrv_route</text>
<text text-anchor="start" x="372.5437" y="-230.3" font-family="Helvetica,sans-Serif" font-size="11.00" fill="#000000">[table]</text>
<polygon fill="none" stroke="#000000" points="214.5,-200.2 214.5,-222.2 407.5,-222.2 407.5,-200.2 214.5,-200.2"/>
<image xlink:href="../../images/primaryKeys.png" width="11px" height="12px" preserveAspectRatio="xMinYMin meet" x="219.5" y="-217.2"/>
<text text-anchor="start" x="234.5" y="-207.3" font-family="Helvetica,sans-Serif" font-size="11.00" fill="#000000">c_pk</text>
<polygon fill="#ffffff" stroke="transparent" points="214.5,-178.2 214.5,-200.2 407.5,-200.2 407.5,-178.2 214.5,-178.2"/>
<polygon fill="none" stroke="#000000" points="214.5,-178.2 214.5,-200.2 407.5,-200.2 407.5,-178.2 214.5,-178.2"/>
<text text-anchor="start" x="234.5" y="-185.3" font-family="Helvetica,sans-Serif" font-size="11.00" fill="#000000">c_pid</text>
<polygon fill="#ffffff" stroke="transparent" points="214.5,-156.2 214.5,-178.2 407.5,-178.2 407.5,-156.2 214.5,-156.2"/>
<polygon fill="none" stroke="#000000" points="214.5,-156.2 214.5,-178.2 407.5,-178.2 407.5,-156.2 214.5,-156.2"/>
<text text-anchor="start" x="234.5" y="-163.3" font-family="Helvetica,sans-Serif" font-size="11.00" fill="#000000">c_name</text>
<polygon fill="none" stroke="#000000" points="214.5,-134.2 214.5,-156.2 407.5,-156.2 407.5,-134.2 214.5,-134.2"/>
<image xlink:href="../../images/foreignKeys.png" width="11px" height="12px" preserveAspectRatio="xMinYMin meet" x="219.5" y="-151.2"/>
<text text-anchor="start" x="234.5" y="-141.3" font-family="Helvetica,sans-Serif" font-size="11.00" fill="#000000">c_source_location</text>
<polygon fill="none" stroke="#000000" points="214.5,-112.2 214.5,-134.2 407.5,-134.2 407.5,-112.2 214.5,-112.2"/>
<image xlink:href="../../images/foreignKeys.png" width="11px" height="12px" preserveAspectRatio="xMinYMin meet" x="219.5" y="-129.2"/>
<text text-anchor="start" x="234.5" y="-119.3" font-family="Helvetica,sans-Serif" font-size="11.00" fill="#000000">c_target_location</text>
<polygon fill="none" stroke="#000000" points="214.5,-93.2 214.5,-112.2 407.5,-112.2 407.5,-93.2 214.5,-93.2"/>
<text text-anchor="start" x="217.5" y="-99.3" font-family="Helvetica,sans-Serif" font-size="11.00" fill="#000000">...</text>
<polygon fill="#ffffff" stroke="transparent" points="214.5,-74.2 214.5,-93.2 304.5,-93.2 304.5,-74.2 214.5,-74.2"/>
<polygon fill="none" stroke="#000000" points="214.5,-74.2 214.5,-93.2 304.5,-93.2 304.5,-74.2 214.5,-74.2"/>
<text text-anchor="start" x="217.5" y="-80.3" font-family="Helvetica,sans-Serif" font-size="11.00" fill="#000000">&lt; 2</text>
<polygon fill="#ffffff" stroke="transparent" points="304.5,-74.2 304.5,-93.2 351.5,-93.2 351.5,-74.2 304.5,-74.2"/>
<polygon fill="none" stroke="#000000" points="304.5,-74.2 304.5,-93.2 351.5,-93.2 351.5,-74.2 304.5,-74.2"/>
<text text-anchor="start" x="342.3862" y="-80.3" font-family="Helvetica,sans-Serif" font-size="11.00" fill="#000000"> &#160;</text>
<polygon fill="#ffffff" stroke="transparent" points="351.5,-74.2 351.5,-93.2 407.5,-93.2 407.5,-74.2 351.5,-74.2"/>
<polygon fill="none" stroke="#000000" points="351.5,-74.2 351.5,-93.2 407.5,-93.2 407.5,-74.2 351.5,-74.2"/>
<text text-anchor="start" x="388.9053" y="-80.3" font-family="Helvetica,sans-Serif" font-size="11.00" fill="#000000">2 &gt;</text>
</a>
</g>
</g>
<!-- tms_rsrv_action&#45;&gt;tms_rsrv_route -->
<g id="edge1" class="edge">
<title>tms_rsrv_action:w&#45;&gt;tms_rsrv_route:e</title>
<path fill="none" stroke="#000000" d="M499.8295,-352.2543C476.8743,-348.9384 466.6677,-336.8526 448,-315.2 415.6104,-277.6313 457.1034,-211.2 407.5,-211.2"/>
<polygon fill="#000000" stroke="#000000" points="506.5166,-352.6853 514.2684,-356.7925 510.5083,-352.9427 514.5,-353.2 514.5,-353.2 514.5,-353.2 510.5083,-352.9427 514.7316,-349.6075 506.5166,-352.6853 506.5166,-352.6853"/>
<ellipse fill="none" stroke="#000000" cx="503.3232" cy="-352.4794" rx="3.2" ry="3.2"/>
</g>
<!-- tms_rsrv_location -->
<g id="node3" class="node">
<title>tms_rsrv_location</title>
<g id="a_node3"><a xlink:href="../../tables/tms_rsrv_location.html" xlink:title="tms_rsrv_location" target="_top">
<polygon fill="#ffffff" stroke="transparent" points="8,-106.7 8,-167.7 165,-167.7 165,-106.7 8,-106.7"/>
<polygon fill="#f5f5f5" stroke="transparent" points="8.5,-144.2 8.5,-167.2 165.5,-167.2 165.5,-144.2 8.5,-144.2"/>
<polygon fill="none" stroke="#000000" points="8.5,-144.2 8.5,-167.2 165.5,-167.2 165.5,-144.2 8.5,-144.2"/>
<text text-anchor="start" x="13.5" y="-152.8" font-family="Helvetica,sans-Serif" font-weight="bold" font-size="11.00" fill="#000000">tms_rsrv_location</text>
<text text-anchor="start" x="131.0219" y="-152.3" font-family="Helvetica,sans-Serif" font-size="11.00" fill="#000000">[table]</text>
<polygon fill="none" stroke="#000000" points="8.5,-125.2 8.5,-144.2 165.5,-144.2 165.5,-125.2 8.5,-125.2"/>
<text text-anchor="start" x="11.5" y="-131.3" font-family="Helvetica,sans-Serif" font-size="11.00" fill="#000000">...</text>
<polygon fill="#ffffff" stroke="transparent" points="8.5,-106.2 8.5,-125.2 76.5,-125.2 76.5,-106.2 8.5,-106.2"/>
<polygon fill="none" stroke="#000000" points="8.5,-106.2 8.5,-125.2 76.5,-125.2 76.5,-106.2 8.5,-106.2"/>
<text text-anchor="start" x="11.5" y="-112.3" font-family="Helvetica,sans-Serif" font-size="11.00" fill="#000000"> &#160;</text>
<polygon fill="#ffffff" stroke="transparent" points="76.5,-106.2 76.5,-125.2 116.5,-125.2 116.5,-106.2 76.5,-106.2"/>
<polygon fill="none" stroke="#000000" points="76.5,-106.2 76.5,-125.2 116.5,-125.2 116.5,-106.2 76.5,-106.2"/>
<text text-anchor="start" x="107.3862" y="-112.3" font-family="Helvetica,sans-Serif" font-size="11.00" fill="#000000"> &#160;</text>
<polygon fill="#ffffff" stroke="transparent" points="116.5,-106.2 116.5,-125.2 165.5,-125.2 165.5,-106.2 116.5,-106.2"/>
<polygon fill="none" stroke="#000000" points="116.5,-106.2 116.5,-125.2 165.5,-125.2 165.5,-106.2 116.5,-106.2"/>
<text text-anchor="start" x="146.9053" y="-112.3" font-family="Helvetica,sans-Serif" font-size="11.00" fill="#000000">2 &gt;</text>
</a>
</g>
</g>
<!-- tms_rsrv_route&#45;&gt;tms_rsrv_location -->
<g id="edge2" class="edge">
<title>tms_rsrv_route:w&#45;&gt;tms_rsrv_location:e</title>
<path fill="none" stroke="#000000" d="M200.2027,-143.3836C188.7382,-140.2593 182.0655,-134.2 165.5,-134.2"/>
<polygon fill="#000000" stroke="#000000" points="206.5638,-144.1917 214.0463,-148.7713 210.5319,-144.6958 214.5,-145.2 214.5,-145.2 214.5,-145.2 210.5319,-144.6958 214.9537,-141.6287 206.5638,-144.1917 206.5638,-144.1917"/>
<ellipse fill="none" stroke="#000000" cx="203.3893" cy="-143.7884" rx="3.2" ry="3.2"/>
</g>
<!-- tms_rsrv_route&#45;&gt;tms_rsrv_location -->
<g id="edge3" class="edge">
<title>tms_rsrv_route:w&#45;&gt;tms_rsrv_location:e</title>
<path fill="none" stroke="#000000" d="M200.2027,-125.0164C188.7382,-128.1407 182.0655,-134.2 165.5,-134.2"/>
<polygon fill="#000000" stroke="#000000" points="206.5638,-124.2083 214.9537,-126.7713 210.5319,-123.7042 214.5,-123.2 214.5,-123.2 214.5,-123.2 210.5319,-123.7042 214.0463,-119.6287 206.5638,-124.2083 206.5638,-124.2083"/>
<ellipse fill="none" stroke="#000000" cx="203.3893" cy="-124.6116" rx="3.2" ry="3.2"/>
</g>
<!-- tms_rsrv_route_details -->
<g id="node4" class="node">
<title>tms_rsrv_route_details</title>
<g id="a_node4"><a xlink:href="../../tables/tms_rsrv_route_details.html" xlink:title="tms_rsrv_route_details" target="_top">
<polygon fill="#ffffff" stroke="transparent" points="456,-38.2 456,-304.2 717,-304.2 717,-38.2 456,-38.2"/>
<polygon fill="#f5f5f5" stroke="transparent" points="458.5,-279.2 458.5,-302.2 715.5,-302.2 715.5,-279.2 458.5,-279.2"/>
<polygon fill="none" stroke="#000000" points="458.5,-279.2 458.5,-302.2 715.5,-302.2 715.5,-279.2 458.5,-279.2"/>
<text text-anchor="start" x="463.5" y="-287.8" font-family="Helvetica,sans-Serif" font-weight="bold" font-size="11.00" fill="#000000">tms_rsrv_route_details</text>
<text text-anchor="start" x="680.5437" y="-287.3" font-family="Helvetica,sans-Serif" font-size="11.00" fill="#000000">[table]</text>
<polygon fill="none" stroke="#000000" points="458.5,-257.2 458.5,-279.2 631.5,-279.2 631.5,-257.2 458.5,-257.2"/>
<image xlink:href="../../images/primaryKeys.png" width="11px" height="12px" preserveAspectRatio="xMinYMin meet" x="463.5" y="-274.2"/>
<text text-anchor="start" x="478.5" y="-264.3" font-family="Helvetica,sans-Serif" font-size="11.00" fill="#000000">c_pk</text>
<polygon fill="none" stroke="#000000" points="631.5,-257.2 631.5,-279.2 715.5,-279.2 715.5,-257.2 631.5,-257.2"/>
<text text-anchor="start" x="634.5" y="-264.9" font-family="Helvetica,sans-Serif" font-size="11.00" fill="#000000">int8[19]</text>
<polygon fill="none" stroke="#000000" points="458.5,-235.2 458.5,-257.2 631.5,-257.2 631.5,-235.2 458.5,-235.2"/>
<text text-anchor="start" x="478.5" y="-242.3" font-family="Helvetica,sans-Serif" font-size="11.00" fill="#000000">c_created</text>
<polygon fill="none" stroke="#000000" points="631.5,-235.2 631.5,-257.2 715.5,-257.2 715.5,-235.2 631.5,-235.2"/>
<text text-anchor="start" x="634.3807" y="-242.9" font-family="Helvetica,sans-Serif" font-size="11.00" fill="#000000">timestamp[29,6]</text>
<polygon fill="none" stroke="#000000" points="458.5,-213.2 458.5,-235.2 631.5,-235.2 631.5,-213.2 458.5,-213.2"/>
<text text-anchor="start" x="478.5" y="-220.3" font-family="Helvetica,sans-Serif" font-size="11.00" fill="#000000">c_created_by</text>
<polygon fill="none" stroke="#000000" points="631.5,-213.2 631.5,-235.2 715.5,-235.2 715.5,-213.2 631.5,-213.2"/>
<text text-anchor="start" x="634.5" y="-220.9" font-family="Helvetica,sans-Serif" font-size="11.00" fill="#000000">varchar[255]</text>
<polygon fill="none" stroke="#000000" points="458.5,-191.2 458.5,-213.2 631.5,-213.2 631.5,-191.2 458.5,-191.2"/>
<text text-anchor="start" x="478.5" y="-198.3" font-family="Helvetica,sans-Serif" font-size="11.00" fill="#000000">c_updated_by</text>
<polygon fill="none" stroke="#000000" points="631.5,-191.2 631.5,-213.2 715.5,-213.2 715.5,-191.2 631.5,-191.2"/>
<text text-anchor="start" x="634.5" y="-198.9" font-family="Helvetica,sans-Serif" font-size="11.00" fill="#000000">varchar[255]</text>
<polygon fill="none" stroke="#000000" points="458.5,-169.2 458.5,-191.2 631.5,-191.2 631.5,-169.2 458.5,-169.2"/>
<text text-anchor="start" x="478.5" y="-176.3" font-family="Helvetica,sans-Serif" font-size="11.00" fill="#000000">c_updated</text>
<polygon fill="none" stroke="#000000" points="631.5,-169.2 631.5,-191.2 715.5,-191.2 715.5,-169.2 631.5,-169.2"/>
<text text-anchor="start" x="634.3807" y="-176.9" font-family="Helvetica,sans-Serif" font-size="11.00" fill="#000000">timestamp[29,6]</text>
<polygon fill="none" stroke="#000000" points="458.5,-147.2 458.5,-169.2 631.5,-169.2 631.5,-147.2 458.5,-147.2"/>
<text text-anchor="start" x="478.5" y="-154.3" font-family="Helvetica,sans-Serif" font-size="11.00" fill="#000000">c_ol</text>
<polygon fill="none" stroke="#000000" points="631.5,-147.2 631.5,-169.2 715.5,-169.2 715.5,-147.2 631.5,-147.2"/>
<text text-anchor="start" x="634.5" y="-154.9" font-family="Helvetica,sans-Serif" font-size="11.00" fill="#000000">int8[19]</text>
<polygon fill="none" stroke="#000000" points="458.5,-125.2 458.5,-147.2 631.5,-147.2 631.5,-125.2 458.5,-125.2"/>
<text text-anchor="start" x="478.5" y="-132.3" font-family="Helvetica,sans-Serif" font-size="11.00" fill="#000000">c_next_location</text>
<polygon fill="none" stroke="#000000" points="631.5,-125.2 631.5,-147.2 715.5,-147.2 715.5,-125.2 631.5,-125.2"/>
<text text-anchor="start" x="634.5" y="-132.9" font-family="Helvetica,sans-Serif" font-size="11.00" fill="#000000">varchar[255]</text>
<polygon fill="#ffffff" stroke="transparent" points="458.5,-103.2 458.5,-125.2 631.5,-125.2 631.5,-103.2 458.5,-103.2"/>
<polygon fill="none" stroke="#000000" points="458.5,-103.2 458.5,-125.2 631.5,-125.2 631.5,-103.2 458.5,-103.2"/>
<text text-anchor="start" x="478.5" y="-110.3" font-family="Helvetica,sans-Serif" font-size="11.00" fill="#000000">c_pos</text>
<polygon fill="none" stroke="#000000" points="631.5,-103.2 631.5,-125.2 715.5,-125.2 715.5,-103.2 631.5,-103.2"/>
<text text-anchor="start" x="634.5" y="-110.9" font-family="Helvetica,sans-Serif" font-size="11.00" fill="#000000">int4[10]</text>
<polygon fill="none" stroke="#000000" points="458.5,-81.2 458.5,-103.2 631.5,-103.2 631.5,-81.2 458.5,-81.2"/>
<text text-anchor="start" x="478.5" y="-88.3" font-family="Helvetica,sans-Serif" font-size="11.00" fill="#000000">c_source_location</text>
<polygon fill="none" stroke="#000000" points="631.5,-81.2 631.5,-103.2 715.5,-103.2 715.5,-81.2 631.5,-81.2"/>
<text text-anchor="start" x="634.5" y="-88.9" font-family="Helvetica,sans-Serif" font-size="11.00" fill="#000000">varchar[255]</text>
<polygon fill="#ffffff" stroke="transparent" points="458.5,-59.2 458.5,-81.2 631.5,-81.2 631.5,-59.2 458.5,-59.2"/>
<polygon fill="none" stroke="#000000" points="458.5,-59.2 458.5,-81.2 631.5,-81.2 631.5,-59.2 458.5,-59.2"/>
<image xlink:href="../../images/foreignKeys.png" width="11px" height="12px" preserveAspectRatio="xMinYMin meet" x="463.5" y="-76.2"/>
<text text-anchor="start" x="478.5" y="-66.3" font-family="Helvetica,sans-Serif" font-size="11.00" fill="#000000">c_route_id</text>
<polygon fill="none" stroke="#000000" points="631.5,-59.2 631.5,-81.2 715.5,-81.2 715.5,-59.2 631.5,-59.2"/>
<text text-anchor="start" x="634.5" y="-66.9" font-family="Helvetica,sans-Serif" font-size="11.00" fill="#000000">int8[19]</text>
<polygon fill="#ffffff" stroke="transparent" points="458.5,-40.2 458.5,-59.2 549.5,-59.2 549.5,-40.2 458.5,-40.2"/>
<polygon fill="none" stroke="#000000" points="458.5,-40.2 458.5,-59.2 549.5,-59.2 549.5,-40.2 458.5,-40.2"/>
<text text-anchor="start" x="461.5" y="-46.3" font-family="Helvetica,sans-Serif" font-size="11.00" fill="#000000">&lt; 1</text>
<polygon fill="#ffffff" stroke="transparent" points="549.5,-40.2 549.5,-59.2 631.5,-59.2 631.5,-40.2 549.5,-40.2"/>
<polygon fill="none" stroke="#000000" points="549.5,-40.2 549.5,-59.2 631.5,-59.2 631.5,-40.2 549.5,-40.2"/>
<text text-anchor="start" x="622.3862" y="-46.3" font-family="Helvetica,sans-Serif" font-size="11.00" fill="#000000"> &#160;</text>
<polygon fill="#ffffff" stroke="transparent" points="631.5,-40.2 631.5,-59.2 715.5,-59.2 715.5,-40.2 631.5,-40.2"/>
<polygon fill="none" stroke="#000000" points="631.5,-40.2 631.5,-59.2 715.5,-59.2 715.5,-40.2 631.5,-40.2"/>
<text text-anchor="start" x="696.9053" y="-46.3" font-family="Helvetica,sans-Serif" font-size="11.00" fill="#000000">0 &gt;</text>
<polygon fill="none" stroke="#000000" stroke-width="2" points="457,-39.2 457,-303.2 716,-303.2 716,-39.2 457,-39.2"/>
</a>
</g>
</g>
<!-- tms_rsrv_route_details&#45;&gt;tms_rsrv_route -->
<g id="edge4" class="edge">
<title>tms_rsrv_route_details:w&#45;&gt;tms_rsrv_route:e</title>
<path fill="none" stroke="#000000" d="M444.1778,-73.2761C405.1729,-93.896 468.283,-211.2 407.5,-211.2"/>
<polygon fill="#000000" stroke="#000000" points="450.6784,-71.88 459.256,-73.7197 454.5892,-71.04 458.5,-70.2 458.5,-70.2 458.5,-70.2 454.5892,-71.04 457.744,-66.6803 450.6784,-71.88 450.6784,-71.88"/>
<ellipse fill="none" stroke="#000000" cx="447.5497" cy="-72.552" rx="3.2" ry="3.2"/>
</g>
</g>
</svg>
