<?xml version="1.0" encoding="UTF-8" standalone="no"?>
<!DOCTYPE svg PUBLIC "-//W3C//DTD SVG 1.1//EN"
 "http://www.w3.org/Graphics/SVG/1.1/DTD/svg11.dtd">
<!-- Generated by graphviz version 2.40.1 (20161225.0304)
 -->
<!-- Title: twoDegreesRelationshipsDiagram Pages: 1 -->
<svg width="737pt" height="685pt"
 viewBox="0.00 0.00 737.00 684.70" xmlns="http://www.w3.org/2000/svg" xmlns:xlink="http://www.w3.org/1999/xlink">
<g id="graph0" class="graph" transform="scale(1 1) rotate(0) translate(4 680.7)">
<title>twoDegreesRelationshipsDiagram</title>
<polygon fill="#ffffff" stroke="transparent" points="-4,4 -4,-680.7 733,-680.7 733,4 -4,4"/>
<text text-anchor="middle" x="72.4936" y="-7.3" font-family="Helvetica,sans-Serif" font-size="11.00" fill="#000000">Generated by SchemaSpy</text>
<!-- tms_rsrv_action -->
<g id="node1" class="node">
<title>tms_rsrv_action</title>
<g id="a_node1"><a xlink:href="../../tables/tms_rsrv_action.html" xlink:title="tms_rsrv_action" target="_top">
<polygon fill="#ffffff" stroke="transparent" points="456,-186.7 456,-672.7 721,-672.7 721,-186.7 456,-186.7"/>
<polygon fill="#f5f5f5" stroke="transparent" points="458.5,-647.7 458.5,-670.7 719.5,-670.7 719.5,-647.7 458.5,-647.7"/>
<polygon fill="none" stroke="#000000" points="458.5,-647.7 458.5,-670.7 719.5,-670.7 719.5,-647.7 458.5,-647.7"/>
<text text-anchor="start" x="463.5" y="-656.3" font-family="Helvetica,sans-Serif" font-weight="bold" font-size="11.00" fill="#000000">tms_rsrv_action</text>
<text text-anchor="start" x="684.5437" y="-655.8" font-family="Helvetica,sans-Serif" font-size="11.00" fill="#000000">[table]</text>
<polygon fill="none" stroke="#000000" points="458.5,-625.7 458.5,-647.7 635.5,-647.7 635.5,-625.7 458.5,-625.7"/>
<image xlink:href="../../images/primaryKeys.png" width="11px" height="12px" preserveAspectRatio="xMinYMin meet" x="463.5" y="-642.7"/>
<text text-anchor="start" x="478.5" y="-632.8" font-family="Helvetica,sans-Serif" font-size="11.00" fill="#000000">c_pk</text>
<polygon fill="none" stroke="#000000" points="635.5,-625.7 635.5,-647.7 719.5,-647.7 719.5,-625.7 635.5,-625.7"/>
<text text-anchor="start" x="638.5" y="-633.4" font-family="Helvetica,sans-Serif" font-size="11.00" fill="#000000">int8[19]</text>
<polygon fill="none" stroke="#000000" points="458.5,-603.7 458.5,-625.7 635.5,-625.7 635.5,-603.7 458.5,-603.7"/>
<text text-anchor="start" x="478.5" y="-610.8" font-family="Helvetica,sans-Serif" font-size="11.00" fill="#000000">c_created</text>
<polygon fill="none" stroke="#000000" points="635.5,-603.7 635.5,-625.7 719.5,-625.7 719.5,-603.7 635.5,-603.7"/>
<text text-anchor="start" x="638.3807" y="-611.4" font-family="Helvetica,sans-Serif" font-size="11.00" fill="#000000">timestamp[29,6]</text>
<polygon fill="none" stroke="#000000" points="458.5,-581.7 458.5,-603.7 635.5,-603.7 635.5,-581.7 458.5,-581.7"/>
<text text-anchor="start" x="478.5" y="-588.8" font-family="Helvetica,sans-Serif" font-size="11.00" fill="#000000">c_created_by</text>
<polygon fill="none" stroke="#000000" points="635.5,-581.7 635.5,-603.7 719.5,-603.7 719.5,-581.7 635.5,-581.7"/>
<text text-anchor="start" x="638.5" y="-589.4" font-family="Helvetica,sans-Serif" font-size="11.00" fill="#000000">varchar[255]</text>
<polygon fill="none" stroke="#000000" points="458.5,-559.7 458.5,-581.7 635.5,-581.7 635.5,-559.7 458.5,-559.7"/>
<text text-anchor="start" x="478.5" y="-566.8" font-family="Helvetica,sans-Serif" font-size="11.00" fill="#000000">c_updated_by</text>
<polygon fill="none" stroke="#000000" points="635.5,-559.7 635.5,-581.7 719.5,-581.7 719.5,-559.7 635.5,-559.7"/>
<text text-anchor="start" x="638.5" y="-567.4" font-family="Helvetica,sans-Serif" font-size="11.00" fill="#000000">varchar[255]</text>
<polygon fill="none" stroke="#000000" points="458.5,-537.7 458.5,-559.7 635.5,-559.7 635.5,-537.7 458.5,-537.7"/>
<text text-anchor="start" x="478.5" y="-544.8" font-family="Helvetica,sans-Serif" font-size="11.00" fill="#000000">c_updated</text>
<polygon fill="none" stroke="#000000" points="635.5,-537.7 635.5,-559.7 719.5,-559.7 719.5,-537.7 635.5,-537.7"/>
<text text-anchor="start" x="638.3807" y="-545.4" font-family="Helvetica,sans-Serif" font-size="11.00" fill="#000000">timestamp[29,6]</text>
<polygon fill="none" stroke="#000000" points="458.5,-515.7 458.5,-537.7 635.5,-537.7 635.5,-515.7 458.5,-515.7"/>
<text text-anchor="start" x="478.5" y="-522.8" font-family="Helvetica,sans-Serif" font-size="11.00" fill="#000000">c_ol</text>
<polygon fill="none" stroke="#000000" points="635.5,-515.7 635.5,-537.7 719.5,-537.7 719.5,-515.7 635.5,-515.7"/>
<text text-anchor="start" x="638.5" y="-523.4" font-family="Helvetica,sans-Serif" font-size="11.00" fill="#000000">int8[19]</text>
<polygon fill="#ffffff" stroke="transparent" points="458.5,-493.7 458.5,-515.7 635.5,-515.7 635.5,-493.7 458.5,-493.7"/>
<polygon fill="none" stroke="#000000" points="458.5,-493.7 458.5,-515.7 635.5,-515.7 635.5,-493.7 458.5,-493.7"/>
<text text-anchor="start" x="478.5" y="-500.8" font-family="Helvetica,sans-Serif" font-size="11.00" fill="#000000">c_pid</text>
<polygon fill="none" stroke="#000000" points="635.5,-493.7 635.5,-515.7 719.5,-515.7 719.5,-493.7 635.5,-493.7"/>
<text text-anchor="start" x="638.5" y="-501.4" font-family="Helvetica,sans-Serif" font-size="11.00" fill="#000000">varchar[255]</text>
<polygon fill="none" stroke="#000000" points="458.5,-471.7 458.5,-493.7 635.5,-493.7 635.5,-471.7 458.5,-471.7"/>
<text text-anchor="start" x="478.5" y="-478.8" font-family="Helvetica,sans-Serif" font-size="11.00" fill="#000000">c_action_type</text>
<polygon fill="none" stroke="#000000" points="635.5,-471.7 635.5,-493.7 719.5,-493.7 719.5,-471.7 635.5,-471.7"/>
<text text-anchor="start" x="638.5" y="-479.4" font-family="Helvetica,sans-Serif" font-size="11.00" fill="#000000">varchar[255]</text>
<polygon fill="none" stroke="#000000" points="458.5,-449.7 458.5,-471.7 635.5,-471.7 635.5,-449.7 458.5,-449.7"/>
<text text-anchor="start" x="478.5" y="-456.8" font-family="Helvetica,sans-Serif" font-size="11.00" fill="#000000">c_description</text>
<polygon fill="none" stroke="#000000" points="635.5,-449.7 635.5,-471.7 719.5,-471.7 719.5,-449.7 635.5,-449.7"/>
<text text-anchor="start" x="638.5" y="-457.4" font-family="Helvetica,sans-Serif" font-size="11.00" fill="#000000">varchar[255]</text>
<polygon fill="none" stroke="#000000" points="458.5,-427.7 458.5,-449.7 635.5,-449.7 635.5,-427.7 458.5,-427.7"/>
<text text-anchor="start" x="478.5" y="-434.8" font-family="Helvetica,sans-Serif" font-size="11.00" fill="#000000">c_enabled</text>
<polygon fill="none" stroke="#000000" points="635.5,-427.7 635.5,-449.7 719.5,-449.7 719.5,-427.7 635.5,-427.7"/>
<text text-anchor="start" x="638.5" y="-435.4" font-family="Helvetica,sans-Serif" font-size="11.00" fill="#000000">bool[1]</text>
<polygon fill="none" stroke="#000000" points="458.5,-405.7 458.5,-427.7 635.5,-427.7 635.5,-405.7 458.5,-405.7"/>
<text text-anchor="start" x="478.5" y="-412.8" font-family="Helvetica,sans-Serif" font-size="11.00" fill="#000000">c_flex_1</text>
<polygon fill="none" stroke="#000000" points="635.5,-405.7 635.5,-427.7 719.5,-427.7 719.5,-405.7 635.5,-405.7"/>
<text text-anchor="start" x="638.5" y="-413.4" font-family="Helvetica,sans-Serif" font-size="11.00" fill="#000000">varchar[255]</text>
<polygon fill="none" stroke="#000000" points="458.5,-383.7 458.5,-405.7 635.5,-405.7 635.5,-383.7 458.5,-383.7"/>
<text text-anchor="start" x="478.5" y="-390.8" font-family="Helvetica,sans-Serif" font-size="11.00" fill="#000000">c_flex_2</text>
<polygon fill="none" stroke="#000000" points="635.5,-383.7 635.5,-405.7 719.5,-405.7 719.5,-383.7 635.5,-383.7"/>
<text text-anchor="start" x="638.5" y="-391.4" font-family="Helvetica,sans-Serif" font-size="11.00" fill="#000000">varchar[255]</text>
<polygon fill="none" stroke="#000000" points="458.5,-361.7 458.5,-383.7 635.5,-383.7 635.5,-361.7 458.5,-361.7"/>
<text text-anchor="start" x="478.5" y="-368.8" font-family="Helvetica,sans-Serif" font-size="11.00" fill="#000000">c_flex_3</text>
<polygon fill="none" stroke="#000000" points="635.5,-361.7 635.5,-383.7 719.5,-383.7 719.5,-361.7 635.5,-361.7"/>
<text text-anchor="start" x="638.5" y="-369.4" font-family="Helvetica,sans-Serif" font-size="11.00" fill="#000000">varchar[255]</text>
<polygon fill="none" stroke="#000000" points="458.5,-339.7 458.5,-361.7 635.5,-361.7 635.5,-339.7 458.5,-339.7"/>
<text text-anchor="start" x="478.5" y="-346.8" font-family="Helvetica,sans-Serif" font-size="11.00" fill="#000000">c_flex_4</text>
<polygon fill="none" stroke="#000000" points="635.5,-339.7 635.5,-361.7 719.5,-361.7 719.5,-339.7 635.5,-339.7"/>
<text text-anchor="start" x="638.5" y="-347.4" font-family="Helvetica,sans-Serif" font-size="11.00" fill="#000000">varchar[255]</text>
<polygon fill="none" stroke="#000000" points="458.5,-317.7 458.5,-339.7 635.5,-339.7 635.5,-317.7 458.5,-317.7"/>
<text text-anchor="start" x="478.5" y="-324.8" font-family="Helvetica,sans-Serif" font-size="11.00" fill="#000000">c_flex_5</text>
<polygon fill="none" stroke="#000000" points="635.5,-317.7 635.5,-339.7 719.5,-339.7 719.5,-317.7 635.5,-317.7"/>
<text text-anchor="start" x="638.5" y="-325.4" font-family="Helvetica,sans-Serif" font-size="11.00" fill="#000000">varchar[255]</text>
<polygon fill="none" stroke="#000000" points="458.5,-295.7 458.5,-317.7 635.5,-317.7 635.5,-295.7 458.5,-295.7"/>
<text text-anchor="start" x="478.5" y="-302.8" font-family="Helvetica,sans-Serif" font-size="11.00" fill="#000000">c_location_group_name</text>
<polygon fill="none" stroke="#000000" points="635.5,-295.7 635.5,-317.7 719.5,-317.7 719.5,-295.7 635.5,-295.7"/>
<text text-anchor="start" x="638.5" y="-303.4" font-family="Helvetica,sans-Serif" font-size="11.00" fill="#000000">varchar[255]</text>
<polygon fill="none" stroke="#000000" points="458.5,-273.7 458.5,-295.7 635.5,-295.7 635.5,-273.7 458.5,-273.7"/>
<text text-anchor="start" x="478.5" y="-280.8" font-family="Helvetica,sans-Serif" font-size="11.00" fill="#000000">c_location_key</text>
<polygon fill="none" stroke="#000000" points="635.5,-273.7 635.5,-295.7 719.5,-295.7 719.5,-273.7 635.5,-273.7"/>
<text text-anchor="start" x="638.5" y="-281.4" font-family="Helvetica,sans-Serif" font-size="11.00" fill="#000000">varchar[255]</text>
<polygon fill="#ffffff" stroke="transparent" points="458.5,-251.7 458.5,-273.7 635.5,-273.7 635.5,-251.7 458.5,-251.7"/>
<polygon fill="none" stroke="#000000" points="458.5,-251.7 458.5,-273.7 635.5,-273.7 635.5,-251.7 458.5,-251.7"/>
<text text-anchor="start" x="478.5" y="-258.8" font-family="Helvetica,sans-Serif" font-size="11.00" fill="#000000">c_name</text>
<polygon fill="none" stroke="#000000" points="635.5,-251.7 635.5,-273.7 719.5,-273.7 719.5,-251.7 635.5,-251.7"/>
<text text-anchor="start" x="638.5" y="-259.4" font-family="Helvetica,sans-Serif" font-size="11.00" fill="#000000">varchar[255]</text>
<polygon fill="none" stroke="#000000" points="458.5,-229.7 458.5,-251.7 635.5,-251.7 635.5,-229.7 458.5,-229.7"/>
<text text-anchor="start" x="478.5" y="-236.8" font-family="Helvetica,sans-Serif" font-size="11.00" fill="#000000">c_program_name</text>
<polygon fill="none" stroke="#000000" points="635.5,-229.7 635.5,-251.7 719.5,-251.7 719.5,-229.7 635.5,-229.7"/>
<text text-anchor="start" x="638.5" y="-237.4" font-family="Helvetica,sans-Serif" font-size="11.00" fill="#000000">varchar[255]</text>
<polygon fill="none" stroke="#000000" points="458.5,-207.7 458.5,-229.7 635.5,-229.7 635.5,-207.7 458.5,-207.7"/>
<image xlink:href="../../images/foreignKeys.png" width="11px" height="12px" preserveAspectRatio="xMinYMin meet" x="463.5" y="-224.7"/>
<text text-anchor="start" x="478.5" y="-214.8" font-family="Helvetica,sans-Serif" font-size="11.00" fill="#000000">c_route_id</text>
<polygon fill="none" stroke="#000000" points="635.5,-207.7 635.5,-229.7 719.5,-229.7 719.5,-207.7 635.5,-207.7"/>
<text text-anchor="start" x="638.5" y="-215.4" font-family="Helvetica,sans-Serif" font-size="11.00" fill="#000000">int8[19]</text>
<polygon fill="#ffffff" stroke="transparent" points="458.5,-188.7 458.5,-207.7 551.5,-207.7 551.5,-188.7 458.5,-188.7"/>
<polygon fill="none" stroke="#000000" points="458.5,-188.7 458.5,-207.7 551.5,-207.7 551.5,-188.7 458.5,-188.7"/>
<text text-anchor="start" x="461.5" y="-194.8" font-family="Helvetica,sans-Serif" font-size="11.00" fill="#000000">&lt; 1</text>
<polygon fill="#ffffff" stroke="transparent" points="551.5,-188.7 551.5,-207.7 635.5,-207.7 635.5,-188.7 551.5,-188.7"/>
<polygon fill="none" stroke="#000000" points="551.5,-188.7 551.5,-207.7 635.5,-207.7 635.5,-188.7 551.5,-188.7"/>
<text text-anchor="start" x="626.3862" y="-194.8" font-family="Helvetica,sans-Serif" font-size="11.00" fill="#000000"> &#160;</text>
<polygon fill="#ffffff" stroke="transparent" points="635.5,-188.7 635.5,-207.7 719.5,-207.7 719.5,-188.7 635.5,-188.7"/>
<polygon fill="none" stroke="#000000" points="635.5,-188.7 635.5,-207.7 719.5,-207.7 719.5,-188.7 635.5,-188.7"/>
<text text-anchor="start" x="700.9053" y="-194.8" font-family="Helvetica,sans-Serif" font-size="11.00" fill="#000000">0 &gt;</text>
<polygon fill="none" stroke="#000000" stroke-width="2" points="457,-187.7 457,-671.7 720,-671.7 720,-187.7 457,-187.7"/>
</a>
</g>
</g>
<!-- tms_rsrv_route -->
<g id="node2" class="node">
<title>tms_rsrv_route</title>
<g id="a_node2"><a xlink:href="../../tables/tms_rsrv_route.html" xlink:title="tms_rsrv_route" target="_top">
<polygon fill="#ffffff" stroke="transparent" points="214,-38.2 214,-209.2 407,-209.2 407,-38.2 214,-38.2"/>
<polygon fill="#f5f5f5" stroke="transparent" points="214.5,-185.7 214.5,-208.7 407.5,-208.7 407.5,-185.7 214.5,-185.7"/>
<polygon fill="none" stroke="#000000" points="214.5,-185.7 214.5,-208.7 407.5,-208.7 407.5,-185.7 214.5,-185.7"/>
<text text-anchor="start" x="219.5" y="-194.3" font-family="Helvetica,sans-Serif" font-weight="bold" font-size="11.00" fill="#000000">tms_rsrv_route</text>
<text text-anchor="start" x="372.5437" y="-193.8" font-family="Helvetica,sans-Serif" font-size="11.00" fill="#000000">[table]</text>
<polygon fill="none" stroke="#000000" points="214.5,-163.7 214.5,-185.7 407.5,-185.7 407.5,-163.7 214.5,-163.7"/>
<image xlink:href="../../images/primaryKeys.png" width="11px" height="12px" preserveAspectRatio="xMinYMin meet" x="219.5" y="-180.7"/>
<text text-anchor="start" x="234.5" y="-170.8" font-family="Helvetica,sans-Serif" font-size="11.00" fill="#000000">c_pk</text>
<polygon fill="#ffffff" stroke="transparent" points="214.5,-141.7 214.5,-163.7 407.5,-163.7 407.5,-141.7 214.5,-141.7"/>
<polygon fill="none" stroke="#000000" points="214.5,-141.7 214.5,-163.7 407.5,-163.7 407.5,-141.7 214.5,-141.7"/>
<text text-anchor="start" x="234.5" y="-148.8" font-family="Helvetica,sans-Serif" font-size="11.00" fill="#000000">c_pid</text>
<polygon fill="#ffffff" stroke="transparent" points="214.5,-119.7 214.5,-141.7 407.5,-141.7 407.5,-119.7 214.5,-119.7"/>
<polygon fill="none" stroke="#000000" points="214.5,-119.7 214.5,-141.7 407.5,-141.7 407.5,-119.7 214.5,-119.7"/>
<text text-anchor="start" x="234.5" y="-126.8" font-family="Helvetica,sans-Serif" font-size="11.00" fill="#000000">c_name</text>
<polygon fill="none" stroke="#000000" points="214.5,-97.7 214.5,-119.7 407.5,-119.7 407.5,-97.7 214.5,-97.7"/>
<image xlink:href="../../images/foreignKeys.png" width="11px" height="12px" preserveAspectRatio="xMinYMin meet" x="219.5" y="-114.7"/>
<text text-anchor="start" x="234.5" y="-104.8" font-family="Helvetica,sans-Serif" font-size="11.00" fill="#000000">c_source_location</text>
<polygon fill="none" stroke="#000000" points="214.5,-75.7 214.5,-97.7 407.5,-97.7 407.5,-75.7 214.5,-75.7"/>
<image xlink:href="../../images/foreignKeys.png" width="11px" height="12px" preserveAspectRatio="xMinYMin meet" x="219.5" y="-92.7"/>
<text text-anchor="start" x="234.5" y="-82.8" font-family="Helvetica,sans-Serif" font-size="11.00" fill="#000000">c_target_location</text>
<polygon fill="none" stroke="#000000" points="214.5,-56.7 214.5,-75.7 407.5,-75.7 407.5,-56.7 214.5,-56.7"/>
<text text-anchor="start" x="217.5" y="-62.8" font-family="Helvetica,sans-Serif" font-size="11.00" fill="#000000">...</text>
<polygon fill="#ffffff" stroke="transparent" points="214.5,-37.7 214.5,-56.7 304.5,-56.7 304.5,-37.7 214.5,-37.7"/>
<polygon fill="none" stroke="#000000" points="214.5,-37.7 214.5,-56.7 304.5,-56.7 304.5,-37.7 214.5,-37.7"/>
<text text-anchor="start" x="217.5" y="-43.8" font-family="Helvetica,sans-Serif" font-size="11.00" fill="#000000">&lt; 2</text>
<polygon fill="#ffffff" stroke="transparent" points="304.5,-37.7 304.5,-56.7 351.5,-56.7 351.5,-37.7 304.5,-37.7"/>
<polygon fill="none" stroke="#000000" points="304.5,-37.7 304.5,-56.7 351.5,-56.7 351.5,-37.7 304.5,-37.7"/>
<text text-anchor="start" x="342.3862" y="-43.8" font-family="Helvetica,sans-Serif" font-size="11.00" fill="#000000"> &#160;</text>
<polygon fill="#ffffff" stroke="transparent" points="351.5,-37.7 351.5,-56.7 407.5,-56.7 407.5,-37.7 351.5,-37.7"/>
<polygon fill="none" stroke="#000000" points="351.5,-37.7 351.5,-56.7 407.5,-56.7 407.5,-37.7 351.5,-37.7"/>
<text text-anchor="start" x="388.9053" y="-43.8" font-family="Helvetica,sans-Serif" font-size="11.00" fill="#000000">2 &gt;</text>
</a>
</g>
</g>
<!-- tms_rsrv_action&#45;&gt;tms_rsrv_route -->
<g id="edge1" class="edge">
<title>tms_rsrv_action:w&#45;&gt;tms_rsrv_route:e</title>
<path fill="none" stroke="#000000" d="M444.4107,-213.9912C430.5669,-202.6404 431.3557,-174.7 407.5,-174.7"/>
<polygon fill="#000000" stroke="#000000" points="450.9125,-216.1642 457.3589,-222.1144 454.7063,-217.4321 458.5,-218.7 458.5,-218.7 458.5,-218.7 454.7063,-217.4321 459.6411,-215.2856 450.9125,-216.1642 450.9125,-216.1642"/>
<ellipse fill="none" stroke="#000000" cx="447.8775" cy="-215.1498" rx="3.2" ry="3.2"/>
</g>
<!-- tms_rsrv_location -->
<g id="node3" class="node">
<title>tms_rsrv_location</title>
<g id="a_node3"><a xlink:href="../../tables/tms_rsrv_location.html" xlink:title="tms_rsrv_location" target="_top">
<polygon fill="#ffffff" stroke="transparent" points="8,-70.2 8,-131.2 165,-131.2 165,-70.2 8,-70.2"/>
<polygon fill="#f5f5f5" stroke="transparent" points="8.5,-107.7 8.5,-130.7 165.5,-130.7 165.5,-107.7 8.5,-107.7"/>
<polygon fill="none" stroke="#000000" points="8.5,-107.7 8.5,-130.7 165.5,-130.7 165.5,-107.7 8.5,-107.7"/>
<text text-anchor="start" x="13.5" y="-116.3" font-family="Helvetica,sans-Serif" font-weight="bold" font-size="11.00" fill="#000000">tms_rsrv_location</text>
<text text-anchor="start" x="131.0219" y="-115.8" font-family="Helvetica,sans-Serif" font-size="11.00" fill="#000000">[table]</text>
<polygon fill="none" stroke="#000000" points="8.5,-88.7 8.5,-107.7 165.5,-107.7 165.5,-88.7 8.5,-88.7"/>
<text text-anchor="start" x="11.5" y="-94.8" font-family="Helvetica,sans-Serif" font-size="11.00" fill="#000000">...</text>
<polygon fill="#ffffff" stroke="transparent" points="8.5,-69.7 8.5,-88.7 76.5,-88.7 76.5,-69.7 8.5,-69.7"/>
<polygon fill="none" stroke="#000000" points="8.5,-69.7 8.5,-88.7 76.5,-88.7 76.5,-69.7 8.5,-69.7"/>
<text text-anchor="start" x="11.5" y="-75.8" font-family="Helvetica,sans-Serif" font-size="11.00" fill="#000000"> &#160;</text>
<polygon fill="#ffffff" stroke="transparent" points="76.5,-69.7 76.5,-88.7 116.5,-88.7 116.5,-69.7 76.5,-69.7"/>
<polygon fill="none" stroke="#000000" points="76.5,-69.7 76.5,-88.7 116.5,-88.7 116.5,-69.7 76.5,-69.7"/>
<text text-anchor="start" x="107.3862" y="-75.8" font-family="Helvetica,sans-Serif" font-size="11.00" fill="#000000"> &#160;</text>
<polygon fill="#ffffff" stroke="transparent" points="116.5,-69.7 116.5,-88.7 165.5,-88.7 165.5,-69.7 116.5,-69.7"/>
<polygon fill="none" stroke="#000000" points="116.5,-69.7 116.5,-88.7 165.5,-88.7 165.5,-69.7 116.5,-69.7"/>
<text text-anchor="start" x="146.9053" y="-75.8" font-family="Helvetica,sans-Serif" font-size="11.00" fill="#000000">2 &gt;</text>
</a>
</g>
</g>
<!-- tms_rsrv_route&#45;&gt;tms_rsrv_location -->
<g id="edge2" class="edge">
<title>tms_rsrv_route:w&#45;&gt;tms_rsrv_location:e</title>
<path fill="none" stroke="#000000" d="M200.2027,-106.8836C188.7382,-103.7593 182.0655,-97.7 165.5,-97.7"/>
<polygon fill="#000000" stroke="#000000" points="206.5638,-107.6917 214.0463,-112.2713 210.5319,-108.1958 214.5,-108.7 214.5,-108.7 214.5,-108.7 210.5319,-108.1958 214.9537,-105.1287 206.5638,-107.6917 206.5638,-107.6917"/>
<ellipse fill="none" stroke="#000000" cx="203.3893" cy="-107.2884" rx="3.2" ry="3.2"/>
</g>
<!-- tms_rsrv_route&#45;&gt;tms_rsrv_location -->
<g id="edge3" class="edge">
<title>tms_rsrv_route:w&#45;&gt;tms_rsrv_location:e</title>
<path fill="none" stroke="#000000" d="M200.2027,-88.5164C188.7382,-91.6407 182.0655,-97.7 165.5,-97.7"/>
<polygon fill="#000000" stroke="#000000" points="206.5638,-87.7083 214.9537,-90.2713 210.5319,-87.2042 214.5,-86.7 214.5,-86.7 214.5,-86.7 210.5319,-87.2042 214.0463,-83.1287 206.5638,-87.7083 206.5638,-87.7083"/>
<ellipse fill="none" stroke="#000000" cx="203.3893" cy="-88.1116" rx="3.2" ry="3.2"/>
</g>
<!-- tms_rsrv_route_details -->
<g id="node4" class="node">
<title>tms_rsrv_route_details</title>
<g id="a_node4"><a xlink:href="../../tables/tms_rsrv_route_details.html" xlink:title="tms_rsrv_route_details" target="_top">
<polygon fill="#ffffff" stroke="transparent" points="493,-104.2 493,-165.2 684,-165.2 684,-104.2 493,-104.2"/>
<polygon fill="#f5f5f5" stroke="transparent" points="493.5,-141.7 493.5,-164.7 684.5,-164.7 684.5,-141.7 493.5,-141.7"/>
<polygon fill="none" stroke="#000000" points="493.5,-141.7 493.5,-164.7 684.5,-164.7 684.5,-141.7 493.5,-141.7"/>
<text text-anchor="start" x="498.5" y="-150.3" font-family="Helvetica,sans-Serif" font-weight="bold" font-size="11.00" fill="#000000">tms_rsrv_route_details</text>
<text text-anchor="start" x="650.0219" y="-149.8" font-family="Helvetica,sans-Serif" font-size="11.00" fill="#000000">[table]</text>
<polygon fill="none" stroke="#000000" points="493.5,-122.7 493.5,-141.7 684.5,-141.7 684.5,-122.7 493.5,-122.7"/>
<text text-anchor="start" x="496.5" y="-128.8" font-family="Helvetica,sans-Serif" font-size="11.00" fill="#000000">...</text>
<polygon fill="#ffffff" stroke="transparent" points="493.5,-103.7 493.5,-122.7 587.5,-122.7 587.5,-103.7 493.5,-103.7"/>
<polygon fill="none" stroke="#000000" points="493.5,-103.7 493.5,-122.7 587.5,-122.7 587.5,-103.7 493.5,-103.7"/>
<text text-anchor="start" x="496.5" y="-109.8" font-family="Helvetica,sans-Serif" font-size="11.00" fill="#000000">&lt; 1</text>
<polygon fill="#ffffff" stroke="transparent" points="587.5,-103.7 587.5,-122.7 635.5,-122.7 635.5,-103.7 587.5,-103.7"/>
<polygon fill="none" stroke="#000000" points="587.5,-103.7 587.5,-122.7 635.5,-122.7 635.5,-103.7 587.5,-103.7"/>
<text text-anchor="start" x="626.3862" y="-109.8" font-family="Helvetica,sans-Serif" font-size="11.00" fill="#000000"> &#160;</text>
<polygon fill="#ffffff" stroke="transparent" points="635.5,-103.7 635.5,-122.7 684.5,-122.7 684.5,-103.7 635.5,-103.7"/>
<polygon fill="none" stroke="#000000" points="635.5,-103.7 635.5,-122.7 684.5,-122.7 684.5,-103.7 635.5,-103.7"/>
<text text-anchor="start" x="675.3862" y="-109.8" font-family="Helvetica,sans-Serif" font-size="11.00" fill="#000000"> &#160;</text>
</a>
</g>
</g>
<!-- tms_rsrv_route_details&#45;&gt;tms_rsrv_route -->
<g id="edge4" class="edge">
<title>tms_rsrv_route_details:w&#45;&gt;tms_rsrv_route:e</title>
<path fill="none" stroke="#000000" d="M478.897,-133.6594C449.9277,-142.0714 444.7251,-174.7 407.5,-174.7"/>
<polygon fill="#000000" stroke="#000000" points="485.5711,-132.7639 493.9788,-135.268 489.5355,-132.232 493.5,-131.7 493.5,-131.7 493.5,-131.7 489.5355,-132.232 493.0212,-128.132 485.5711,-132.7639 485.5711,-132.7639"/>
<ellipse fill="none" stroke="#000000" cx="482.3995" cy="-133.1895" rx="3.2" ry="3.2"/>
</g>
</g>
</svg>
