<?xml version="1.0" encoding="UTF-8" standalone="no"?>
<!DOCTYPE svg PUBLIC "-//W3C//DTD SVG 1.1//EN"
 "http://www.w3.org/Graphics/SVG/1.1/DTD/svg11.dtd">
<!-- Generated by graphviz version 2.40.1 (20161225.0304)
 -->
<!-- Title: oneDegreeRelationshipsDiagram Pages: 1 -->
<svg width="531pt" height="414pt"
 viewBox="0.00 0.00 531.00 413.70" xmlns="http://www.w3.org/2000/svg" xmlns:xlink="http://www.w3.org/1999/xlink">
<g id="graph0" class="graph" transform="scale(1 1) rotate(0) translate(4 409.7)">
<title>oneDegreeRelationshipsDiagram</title>
<polygon fill="#ffffff" stroke="transparent" points="-4,4 -4,-409.7 527,-409.7 527,4 -4,4"/>
<text text-anchor="middle" x="72.4936" y="-7.3" font-family="Helvetica,sans-Serif" font-size="11.00" fill="#000000">Generated by SchemaSpy</text>
<!-- tms_rsrv_route -->
<g id="node1" class="node">
<title>tms_rsrv_route</title>
<g id="a_node1"><a xlink:href="../../tables/tms_rsrv_route.html" xlink:title="tms_rsrv_route" target="_top">
<polygon fill="#ffffff" stroke="transparent" points="322,-230.7 322,-401.7 515,-401.7 515,-230.7 322,-230.7"/>
<polygon fill="#f5f5f5" stroke="transparent" points="322.5,-378.2 322.5,-401.2 515.5,-401.2 515.5,-378.2 322.5,-378.2"/>
<polygon fill="none" stroke="#000000" points="322.5,-378.2 322.5,-401.2 515.5,-401.2 515.5,-378.2 322.5,-378.2"/>
<text text-anchor="start" x="327.5" y="-386.8" font-family="Helvetica,sans-Serif" font-weight="bold" font-size="11.00" fill="#000000">tms_rsrv_route</text>
<text text-anchor="start" x="480.5437" y="-386.3" font-family="Helvetica,sans-Serif" font-size="11.00" fill="#000000">[table]</text>
<polygon fill="none" stroke="#000000" points="322.5,-356.2 322.5,-378.2 515.5,-378.2 515.5,-356.2 322.5,-356.2"/>
<image xlink:href="../../images/primaryKeys.png" width="11px" height="12px" preserveAspectRatio="xMinYMin meet" x="327.5" y="-373.2"/>
<text text-anchor="start" x="342.5" y="-363.3" font-family="Helvetica,sans-Serif" font-size="11.00" fill="#000000">c_pk</text>
<polygon fill="#ffffff" stroke="transparent" points="322.5,-334.2 322.5,-356.2 515.5,-356.2 515.5,-334.2 322.5,-334.2"/>
<polygon fill="none" stroke="#000000" points="322.5,-334.2 322.5,-356.2 515.5,-356.2 515.5,-334.2 322.5,-334.2"/>
<text text-anchor="start" x="342.5" y="-341.3" font-family="Helvetica,sans-Serif" font-size="11.00" fill="#000000">c_pid</text>
<polygon fill="#ffffff" stroke="transparent" points="322.5,-312.2 322.5,-334.2 515.5,-334.2 515.5,-312.2 322.5,-312.2"/>
<polygon fill="none" stroke="#000000" points="322.5,-312.2 322.5,-334.2 515.5,-334.2 515.5,-312.2 322.5,-312.2"/>
<text text-anchor="start" x="342.5" y="-319.3" font-family="Helvetica,sans-Serif" font-size="11.00" fill="#000000">c_name</text>
<polygon fill="none" stroke="#000000" points="322.5,-290.2 322.5,-312.2 515.5,-312.2 515.5,-290.2 322.5,-290.2"/>
<image xlink:href="../../images/foreignKeys.png" width="11px" height="12px" preserveAspectRatio="xMinYMin meet" x="327.5" y="-307.2"/>
<text text-anchor="start" x="342.5" y="-297.3" font-family="Helvetica,sans-Serif" font-size="11.00" fill="#000000">c_source_location</text>
<polygon fill="none" stroke="#000000" points="322.5,-268.2 322.5,-290.2 515.5,-290.2 515.5,-268.2 322.5,-268.2"/>
<image xlink:href="../../images/foreignKeys.png" width="11px" height="12px" preserveAspectRatio="xMinYMin meet" x="327.5" y="-285.2"/>
<text text-anchor="start" x="342.5" y="-275.3" font-family="Helvetica,sans-Serif" font-size="11.00" fill="#000000">c_target_location</text>
<polygon fill="none" stroke="#000000" points="322.5,-249.2 322.5,-268.2 515.5,-268.2 515.5,-249.2 322.5,-249.2"/>
<text text-anchor="start" x="325.5" y="-255.3" font-family="Helvetica,sans-Serif" font-size="11.00" fill="#000000">...</text>
<polygon fill="#ffffff" stroke="transparent" points="322.5,-230.2 322.5,-249.2 412.5,-249.2 412.5,-230.2 322.5,-230.2"/>
<polygon fill="none" stroke="#000000" points="322.5,-230.2 322.5,-249.2 412.5,-249.2 412.5,-230.2 322.5,-230.2"/>
<text text-anchor="start" x="325.5" y="-236.3" font-family="Helvetica,sans-Serif" font-size="11.00" fill="#000000">&lt; 2</text>
<polygon fill="#ffffff" stroke="transparent" points="412.5,-230.2 412.5,-249.2 459.5,-249.2 459.5,-230.2 412.5,-230.2"/>
<polygon fill="none" stroke="#000000" points="412.5,-230.2 412.5,-249.2 459.5,-249.2 459.5,-230.2 412.5,-230.2"/>
<text text-anchor="start" x="450.3862" y="-236.3" font-family="Helvetica,sans-Serif" font-size="11.00" fill="#000000"> &#160;</text>
<polygon fill="#ffffff" stroke="transparent" points="459.5,-230.2 459.5,-249.2 515.5,-249.2 515.5,-230.2 459.5,-230.2"/>
<polygon fill="none" stroke="#000000" points="459.5,-230.2 459.5,-249.2 515.5,-249.2 515.5,-230.2 459.5,-230.2"/>
<text text-anchor="start" x="496.9053" y="-236.3" font-family="Helvetica,sans-Serif" font-size="11.00" fill="#000000">2 &gt;</text>
</a>
</g>
</g>
<!-- tms_rsrv_location -->
<g id="node2" class="node">
<title>tms_rsrv_location</title>
<g id="a_node2"><a xlink:href="../../tables/tms_rsrv_location.html" xlink:title="tms_rsrv_location" target="_top">
<polygon fill="#ffffff" stroke="transparent" points="8,-38.2 8,-326.2 273,-326.2 273,-38.2 8,-38.2"/>
<polygon fill="#f5f5f5" stroke="transparent" points="10.5,-301.2 10.5,-324.2 271.5,-324.2 271.5,-301.2 10.5,-301.2"/>
<polygon fill="none" stroke="#000000" points="10.5,-301.2 10.5,-324.2 271.5,-324.2 271.5,-301.2 10.5,-301.2"/>
<text text-anchor="start" x="15.5" y="-309.8" font-family="Helvetica,sans-Serif" font-weight="bold" font-size="11.00" fill="#000000">tms_rsrv_location</text>
<text text-anchor="start" x="236.5437" y="-309.3" font-family="Helvetica,sans-Serif" font-size="11.00" fill="#000000">[table]</text>
<polygon fill="none" stroke="#000000" points="10.5,-279.2 10.5,-301.2 187.5,-301.2 187.5,-279.2 10.5,-279.2"/>
<image xlink:href="../../images/primaryKeys.png" width="11px" height="12px" preserveAspectRatio="xMinYMin meet" x="15.5" y="-296.2"/>
<text text-anchor="start" x="30.5" y="-286.3" font-family="Helvetica,sans-Serif" font-size="11.00" fill="#000000">c_pk</text>
<polygon fill="none" stroke="#000000" points="187.5,-279.2 187.5,-301.2 271.5,-301.2 271.5,-279.2 187.5,-279.2"/>
<text text-anchor="start" x="190.5" y="-286.9" font-family="Helvetica,sans-Serif" font-size="11.00" fill="#000000">int8[19]</text>
<polygon fill="none" stroke="#000000" points="10.5,-257.2 10.5,-279.2 187.5,-279.2 187.5,-257.2 10.5,-257.2"/>
<text text-anchor="start" x="30.5" y="-264.3" font-family="Helvetica,sans-Serif" font-size="11.00" fill="#000000">c_created</text>
<polygon fill="none" stroke="#000000" points="187.5,-257.2 187.5,-279.2 271.5,-279.2 271.5,-257.2 187.5,-257.2"/>
<text text-anchor="start" x="190.3807" y="-264.9" font-family="Helvetica,sans-Serif" font-size="11.00" fill="#000000">timestamp[29,6]</text>
<polygon fill="none" stroke="#000000" points="10.5,-235.2 10.5,-257.2 187.5,-257.2 187.5,-235.2 10.5,-235.2"/>
<text text-anchor="start" x="30.5" y="-242.3" font-family="Helvetica,sans-Serif" font-size="11.00" fill="#000000">c_created_by</text>
<polygon fill="none" stroke="#000000" points="187.5,-235.2 187.5,-257.2 271.5,-257.2 271.5,-235.2 187.5,-235.2"/>
<text text-anchor="start" x="190.5" y="-242.9" font-family="Helvetica,sans-Serif" font-size="11.00" fill="#000000">varchar[255]</text>
<polygon fill="none" stroke="#000000" points="10.5,-213.2 10.5,-235.2 187.5,-235.2 187.5,-213.2 10.5,-213.2"/>
<text text-anchor="start" x="30.5" y="-220.3" font-family="Helvetica,sans-Serif" font-size="11.00" fill="#000000">c_updated_by</text>
<polygon fill="none" stroke="#000000" points="187.5,-213.2 187.5,-235.2 271.5,-235.2 271.5,-213.2 187.5,-213.2"/>
<text text-anchor="start" x="190.5" y="-220.9" font-family="Helvetica,sans-Serif" font-size="11.00" fill="#000000">varchar[255]</text>
<polygon fill="none" stroke="#000000" points="10.5,-191.2 10.5,-213.2 187.5,-213.2 187.5,-191.2 10.5,-191.2"/>
<text text-anchor="start" x="30.5" y="-198.3" font-family="Helvetica,sans-Serif" font-size="11.00" fill="#000000">c_updated</text>
<polygon fill="none" stroke="#000000" points="187.5,-191.2 187.5,-213.2 271.5,-213.2 271.5,-191.2 187.5,-191.2"/>
<text text-anchor="start" x="190.3807" y="-198.9" font-family="Helvetica,sans-Serif" font-size="11.00" fill="#000000">timestamp[29,6]</text>
<polygon fill="none" stroke="#000000" points="10.5,-169.2 10.5,-191.2 187.5,-191.2 187.5,-169.2 10.5,-169.2"/>
<text text-anchor="start" x="30.5" y="-176.3" font-family="Helvetica,sans-Serif" font-size="11.00" fill="#000000">c_ol</text>
<polygon fill="none" stroke="#000000" points="187.5,-169.2 187.5,-191.2 271.5,-191.2 271.5,-169.2 187.5,-169.2"/>
<text text-anchor="start" x="190.5" y="-176.9" font-family="Helvetica,sans-Serif" font-size="11.00" fill="#000000">int8[19]</text>
<polygon fill="#ffffff" stroke="transparent" points="10.5,-147.2 10.5,-169.2 187.5,-169.2 187.5,-147.2 10.5,-147.2"/>
<polygon fill="none" stroke="#000000" points="10.5,-147.2 10.5,-169.2 187.5,-169.2 187.5,-147.2 10.5,-147.2"/>
<text text-anchor="start" x="30.5" y="-154.3" font-family="Helvetica,sans-Serif" font-size="11.00" fill="#000000">c_pid</text>
<polygon fill="none" stroke="#000000" points="187.5,-147.2 187.5,-169.2 271.5,-169.2 271.5,-147.2 187.5,-147.2"/>
<text text-anchor="start" x="190.5" y="-154.9" font-family="Helvetica,sans-Serif" font-size="11.00" fill="#000000">varchar[255]</text>
<polygon fill="none" stroke="#000000" points="10.5,-125.2 10.5,-147.2 187.5,-147.2 187.5,-125.2 10.5,-125.2"/>
<text text-anchor="start" x="30.5" y="-132.3" font-family="Helvetica,sans-Serif" font-size="11.00" fill="#000000">c_foreign_pid</text>
<polygon fill="none" stroke="#000000" points="187.5,-125.2 187.5,-147.2 271.5,-147.2 271.5,-125.2 187.5,-125.2"/>
<text text-anchor="start" x="190.5" y="-132.9" font-family="Helvetica,sans-Serif" font-size="11.00" fill="#000000">varchar[255]</text>
<polygon fill="none" stroke="#000000" points="10.5,-103.2 10.5,-125.2 187.5,-125.2 187.5,-103.2 10.5,-103.2"/>
<text text-anchor="start" x="30.5" y="-110.3" font-family="Helvetica,sans-Serif" font-size="11.00" fill="#000000">c_location_group_name</text>
<polygon fill="none" stroke="#000000" points="187.5,-103.2 187.5,-125.2 271.5,-125.2 271.5,-103.2 187.5,-103.2"/>
<text text-anchor="start" x="190.5" y="-110.9" font-family="Helvetica,sans-Serif" font-size="11.00" fill="#000000">varchar[255]</text>
<polygon fill="none" stroke="#000000" points="10.5,-81.2 10.5,-103.2 187.5,-103.2 187.5,-81.2 10.5,-81.2"/>
<text text-anchor="start" x="30.5" y="-88.3" font-family="Helvetica,sans-Serif" font-size="11.00" fill="#000000">c_location_id</text>
<polygon fill="none" stroke="#000000" points="187.5,-81.2 187.5,-103.2 271.5,-103.2 271.5,-81.2 187.5,-81.2"/>
<text text-anchor="start" x="190.5" y="-88.9" font-family="Helvetica,sans-Serif" font-size="11.00" fill="#000000">varchar[255]</text>
<polygon fill="none" stroke="#000000" points="10.5,-59.2 10.5,-81.2 187.5,-81.2 187.5,-59.2 10.5,-59.2"/>
<text text-anchor="start" x="30.5" y="-66.3" font-family="Helvetica,sans-Serif" font-size="11.00" fill="#000000">c_marked_deletion</text>
<polygon fill="none" stroke="#000000" points="187.5,-59.2 187.5,-81.2 271.5,-81.2 271.5,-59.2 187.5,-59.2"/>
<text text-anchor="start" x="190.5" y="-66.9" font-family="Helvetica,sans-Serif" font-size="11.00" fill="#000000">bool[1]</text>
<polygon fill="#ffffff" stroke="transparent" points="10.5,-40.2 10.5,-59.2 103.5,-59.2 103.5,-40.2 10.5,-40.2"/>
<polygon fill="none" stroke="#000000" points="10.5,-40.2 10.5,-59.2 103.5,-59.2 103.5,-40.2 10.5,-40.2"/>
<text text-anchor="start" x="13.5" y="-46.3" font-family="Helvetica,sans-Serif" font-size="11.00" fill="#000000">&lt; 0</text>
<polygon fill="#ffffff" stroke="transparent" points="103.5,-40.2 103.5,-59.2 187.5,-59.2 187.5,-40.2 103.5,-40.2"/>
<polygon fill="none" stroke="#000000" points="103.5,-40.2 103.5,-59.2 187.5,-59.2 187.5,-40.2 103.5,-40.2"/>
<text text-anchor="start" x="178.3862" y="-46.3" font-family="Helvetica,sans-Serif" font-size="11.00" fill="#000000"> &#160;</text>
<polygon fill="#ffffff" stroke="transparent" points="187.5,-40.2 187.5,-59.2 271.5,-59.2 271.5,-40.2 187.5,-40.2"/>
<polygon fill="none" stroke="#000000" points="187.5,-40.2 187.5,-59.2 271.5,-59.2 271.5,-40.2 187.5,-40.2"/>
<text text-anchor="start" x="252.9053" y="-46.3" font-family="Helvetica,sans-Serif" font-size="11.00" fill="#000000">2 &gt;</text>
<polygon fill="none" stroke="#000000" stroke-width="2" points="9,-39.2 9,-325.2 272,-325.2 272,-39.2 9,-39.2"/>
</a>
</g>
</g>
<!-- tms_rsrv_route&#45;&gt;tms_rsrv_location -->
<g id="edge1" class="edge">
<title>tms_rsrv_route:w&#45;&gt;tms_rsrv_location:e</title>
<path fill="none" stroke="#000000" d="M308.0097,-299.4813C295.8398,-296.3875 288.8909,-290.2 271.5,-290.2"/>
<polygon fill="#000000" stroke="#000000" points="314.5557,-300.2576 322.0759,-304.7749 318.5278,-300.7288 322.5,-301.2 322.5,-301.2 322.5,-301.2 318.5278,-300.7288 322.9241,-297.6251 314.5557,-300.2576 314.5557,-300.2576"/>
<ellipse fill="none" stroke="#000000" cx="311.378" cy="-299.8807" rx="3.2" ry="3.2"/>
</g>
<!-- tms_rsrv_route&#45;&gt;tms_rsrv_location -->
<g id="edge2" class="edge">
<title>tms_rsrv_route:w&#45;&gt;tms_rsrv_location:e</title>
<path fill="none" stroke="#000000" d="M308.0097,-280.9188C295.8398,-284.0125 288.8909,-290.2 271.5,-290.2"/>
<polygon fill="#000000" stroke="#000000" points="314.5557,-280.1424 322.9241,-282.7749 318.5278,-279.6712 322.5,-279.2 322.5,-279.2 322.5,-279.2 318.5278,-279.6712 322.0759,-275.6251 314.5557,-280.1424 314.5557,-280.1424"/>
<ellipse fill="none" stroke="#000000" cx="311.378" cy="-280.5193" rx="3.2" ry="3.2"/>
</g>
</g>
</svg>
