<?xml version="1.0" encoding="UTF-8" standalone="no"?>
<!DOCTYPE svg PUBLIC "-//W3C//DTD SVG 1.1//EN"
 "http://www.w3.org/Graphics/SVG/1.1/DTD/svg11.dtd">
<!-- Generated by graphviz version 2.40.1 (20161225.0304)
 -->
<!-- Title: oneDegreeRelationshipsDiagram Pages: 1 -->
<svg width="552pt" height="316pt"
 viewBox="0.00 0.00 552.00 316.20" xmlns="http://www.w3.org/2000/svg" xmlns:xlink="http://www.w3.org/1999/xlink">
<g id="graph0" class="graph" transform="scale(1 1) rotate(0) translate(4 312.2)">
<title>oneDegreeRelationshipsDiagram</title>
<polygon fill="#ffffff" stroke="transparent" points="-4,4 -4,-312.2 548,-312.2 548,4 -4,4"/>
<text text-anchor="middle" x="72.4936" y="-7.3" font-family="Helvetica,sans-Serif" font-size="11.00" fill="#000000">Generated by SchemaSpy</text>
<!-- tms_rsrv_timer_config_vars -->
<g id="node1" class="node">
<title>tms_rsrv_timer_config_vars</title>
<g id="a_node1"><a xlink:href="../../tables/tms_rsrv_timer_config_vars.html" xlink:title="tms_rsrv_timer_config_vars" target="_top">
<polygon fill="#ffffff" stroke="transparent" points="314,-197.7 314,-302.7 536,-302.7 536,-197.7 314,-197.7"/>
<polygon fill="#f5f5f5" stroke="transparent" points="314,-279.2 314,-302.2 536,-302.2 536,-279.2 314,-279.2"/>
<polygon fill="none" stroke="#000000" points="314,-279.2 314,-302.2 536,-302.2 536,-279.2 314,-279.2"/>
<text text-anchor="start" x="319" y="-287.8" font-family="Helvetica,sans-Serif" font-weight="bold" font-size="11.00" fill="#000000">tms_rsrv_timer_config_vars</text>
<text text-anchor="start" x="501.5219" y="-287.3" font-family="Helvetica,sans-Serif" font-size="11.00" fill="#000000">[table]</text>
<polygon fill="none" stroke="#000000" points="314,-257.2 314,-279.2 536,-279.2 536,-257.2 314,-257.2"/>
<image xlink:href="../../images/primaryKeys.png" width="11px" height="12px" preserveAspectRatio="xMinYMin meet" x="319" y="-274.2"/>
<text text-anchor="start" x="343" y="-264.3" font-family="Helvetica,sans-Serif" font-size="11.00" fill="#000000">c_tc_pk</text>
<polygon fill="none" stroke="#000000" points="314,-235.2 314,-257.2 536,-257.2 536,-235.2 314,-235.2"/>
<image xlink:href="../../images/primaryKeys.png" width="11px" height="12px" preserveAspectRatio="xMinYMin meet" x="319" y="-252.2"/>
<text text-anchor="start" x="343" y="-242.3" font-family="Helvetica,sans-Serif" font-size="11.00" fill="#000000">c_key</text>
<polygon fill="none" stroke="#000000" points="314,-216.2 314,-235.2 536,-235.2 536,-216.2 314,-216.2"/>
<text text-anchor="start" x="317" y="-222.3" font-family="Helvetica,sans-Serif" font-size="11.00" fill="#000000">...</text>
<polygon fill="#ffffff" stroke="transparent" points="314,-197.2 314,-216.2 423,-216.2 423,-197.2 314,-197.2"/>
<polygon fill="none" stroke="#000000" points="314,-197.2 314,-216.2 423,-216.2 423,-197.2 314,-197.2"/>
<text text-anchor="start" x="317" y="-203.3" font-family="Helvetica,sans-Serif" font-size="11.00" fill="#000000">&lt; 1</text>
<polygon fill="#ffffff" stroke="transparent" points="423,-197.2 423,-216.2 479,-216.2 479,-197.2 423,-197.2"/>
<polygon fill="none" stroke="#000000" points="423,-197.2 423,-216.2 479,-216.2 479,-197.2 423,-197.2"/>
<text text-anchor="start" x="469.8862" y="-203.3" font-family="Helvetica,sans-Serif" font-size="11.00" fill="#000000"> &#160;</text>
<polygon fill="#ffffff" stroke="transparent" points="479,-197.2 479,-216.2 536,-216.2 536,-197.2 479,-197.2"/>
<polygon fill="none" stroke="#000000" points="479,-197.2 479,-216.2 536,-216.2 536,-197.2 479,-197.2"/>
<text text-anchor="start" x="526.8862" y="-203.3" font-family="Helvetica,sans-Serif" font-size="11.00" fill="#000000"> &#160;</text>
</a>
</g>
</g>
<!-- tms_rsrv_timer_config -->
<g id="node2" class="node">
<title>tms_rsrv_timer_config</title>
<g id="a_node2"><a xlink:href="../../tables/tms_rsrv_timer_config.html" xlink:title="tms_rsrv_timer_config" target="_top">
<polygon fill="#ffffff" stroke="transparent" points="8,-38.2 8,-304.2 265,-304.2 265,-38.2 8,-38.2"/>
<polygon fill="#f5f5f5" stroke="transparent" points="10.5,-279.2 10.5,-302.2 263.5,-302.2 263.5,-279.2 10.5,-279.2"/>
<polygon fill="none" stroke="#000000" points="10.5,-279.2 10.5,-302.2 263.5,-302.2 263.5,-279.2 10.5,-279.2"/>
<text text-anchor="start" x="15.5" y="-287.8" font-family="Helvetica,sans-Serif" font-weight="bold" font-size="11.00" fill="#000000">tms_rsrv_timer_config</text>
<text text-anchor="start" x="228.5437" y="-287.3" font-family="Helvetica,sans-Serif" font-size="11.00" fill="#000000">[table]</text>
<polygon fill="none" stroke="#000000" points="10.5,-257.2 10.5,-279.2 179.5,-279.2 179.5,-257.2 10.5,-257.2"/>
<image xlink:href="../../images/primaryKeys.png" width="11px" height="12px" preserveAspectRatio="xMinYMin meet" x="15.5" y="-274.2"/>
<text text-anchor="start" x="30.5" y="-264.3" font-family="Helvetica,sans-Serif" font-size="11.00" fill="#000000">c_pk</text>
<polygon fill="none" stroke="#000000" points="179.5,-257.2 179.5,-279.2 263.5,-279.2 263.5,-257.2 179.5,-257.2"/>
<text text-anchor="start" x="182.5" y="-264.9" font-family="Helvetica,sans-Serif" font-size="11.00" fill="#000000">int8[19]</text>
<polygon fill="none" stroke="#000000" points="10.5,-235.2 10.5,-257.2 179.5,-257.2 179.5,-235.2 10.5,-235.2"/>
<text text-anchor="start" x="30.5" y="-242.3" font-family="Helvetica,sans-Serif" font-size="11.00" fill="#000000">c_created</text>
<polygon fill="none" stroke="#000000" points="179.5,-235.2 179.5,-257.2 263.5,-257.2 263.5,-235.2 179.5,-235.2"/>
<text text-anchor="start" x="182.3807" y="-242.9" font-family="Helvetica,sans-Serif" font-size="11.00" fill="#000000">timestamp[29,6]</text>
<polygon fill="none" stroke="#000000" points="10.5,-213.2 10.5,-235.2 179.5,-235.2 179.5,-213.2 10.5,-213.2"/>
<text text-anchor="start" x="30.5" y="-220.3" font-family="Helvetica,sans-Serif" font-size="11.00" fill="#000000">c_created_by</text>
<polygon fill="none" stroke="#000000" points="179.5,-213.2 179.5,-235.2 263.5,-235.2 263.5,-213.2 179.5,-213.2"/>
<text text-anchor="start" x="182.5" y="-220.9" font-family="Helvetica,sans-Serif" font-size="11.00" fill="#000000">varchar[255]</text>
<polygon fill="none" stroke="#000000" points="10.5,-191.2 10.5,-213.2 179.5,-213.2 179.5,-191.2 10.5,-191.2"/>
<text text-anchor="start" x="30.5" y="-198.3" font-family="Helvetica,sans-Serif" font-size="11.00" fill="#000000">c_updated_by</text>
<polygon fill="none" stroke="#000000" points="179.5,-191.2 179.5,-213.2 263.5,-213.2 263.5,-191.2 179.5,-191.2"/>
<text text-anchor="start" x="182.5" y="-198.9" font-family="Helvetica,sans-Serif" font-size="11.00" fill="#000000">varchar[255]</text>
<polygon fill="none" stroke="#000000" points="10.5,-169.2 10.5,-191.2 179.5,-191.2 179.5,-169.2 10.5,-169.2"/>
<text text-anchor="start" x="30.5" y="-176.3" font-family="Helvetica,sans-Serif" font-size="11.00" fill="#000000">c_updated</text>
<polygon fill="none" stroke="#000000" points="179.5,-169.2 179.5,-191.2 263.5,-191.2 263.5,-169.2 179.5,-169.2"/>
<text text-anchor="start" x="182.3807" y="-176.9" font-family="Helvetica,sans-Serif" font-size="11.00" fill="#000000">timestamp[29,6]</text>
<polygon fill="none" stroke="#000000" points="10.5,-147.2 10.5,-169.2 179.5,-169.2 179.5,-147.2 10.5,-147.2"/>
<text text-anchor="start" x="30.5" y="-154.3" font-family="Helvetica,sans-Serif" font-size="11.00" fill="#000000">c_ol</text>
<polygon fill="none" stroke="#000000" points="179.5,-147.2 179.5,-169.2 263.5,-169.2 263.5,-147.2 179.5,-147.2"/>
<text text-anchor="start" x="182.5" y="-154.9" font-family="Helvetica,sans-Serif" font-size="11.00" fill="#000000">int8[19]</text>
<polygon fill="#ffffff" stroke="transparent" points="10.5,-125.2 10.5,-147.2 179.5,-147.2 179.5,-125.2 10.5,-125.2"/>
<polygon fill="none" stroke="#000000" points="10.5,-125.2 10.5,-147.2 179.5,-147.2 179.5,-125.2 10.5,-125.2"/>
<text text-anchor="start" x="30.5" y="-132.3" font-family="Helvetica,sans-Serif" font-size="11.00" fill="#000000">c_pid</text>
<polygon fill="none" stroke="#000000" points="179.5,-125.2 179.5,-147.2 263.5,-147.2 263.5,-125.2 179.5,-125.2"/>
<text text-anchor="start" x="182.5" y="-132.9" font-family="Helvetica,sans-Serif" font-size="11.00" fill="#000000">varchar[255]</text>
<polygon fill="none" stroke="#000000" points="10.5,-103.2 10.5,-125.2 179.5,-125.2 179.5,-103.2 10.5,-103.2"/>
<text text-anchor="start" x="30.5" y="-110.3" font-family="Helvetica,sans-Serif" font-size="11.00" fill="#000000">c_cron_expression</text>
<polygon fill="none" stroke="#000000" points="179.5,-103.2 179.5,-125.2 263.5,-125.2 263.5,-103.2 179.5,-103.2"/>
<text text-anchor="start" x="182.5" y="-110.9" font-family="Helvetica,sans-Serif" font-size="11.00" fill="#000000">varchar[255]</text>
<polygon fill="none" stroke="#000000" points="10.5,-81.2 10.5,-103.2 179.5,-103.2 179.5,-81.2 10.5,-81.2"/>
<text text-anchor="start" x="30.5" y="-88.3" font-family="Helvetica,sans-Serif" font-size="11.00" fill="#000000">c_description</text>
<polygon fill="none" stroke="#000000" points="179.5,-81.2 179.5,-103.2 263.5,-103.2 263.5,-81.2 179.5,-81.2"/>
<text text-anchor="start" x="182.5" y="-88.9" font-family="Helvetica,sans-Serif" font-size="11.00" fill="#000000">varchar[255]</text>
<polygon fill="none" stroke="#000000" points="10.5,-59.2 10.5,-81.2 179.5,-81.2 179.5,-59.2 10.5,-59.2"/>
<text text-anchor="start" x="30.5" y="-66.3" font-family="Helvetica,sans-Serif" font-size="11.00" fill="#000000">c_name</text>
<polygon fill="none" stroke="#000000" points="179.5,-59.2 179.5,-81.2 263.5,-81.2 263.5,-59.2 179.5,-59.2"/>
<text text-anchor="start" x="182.5" y="-66.9" font-family="Helvetica,sans-Serif" font-size="11.00" fill="#000000">varchar[255]</text>
<polygon fill="#ffffff" stroke="transparent" points="10.5,-40.2 10.5,-59.2 99.5,-59.2 99.5,-40.2 10.5,-40.2"/>
<polygon fill="none" stroke="#000000" points="10.5,-40.2 10.5,-59.2 99.5,-59.2 99.5,-40.2 10.5,-40.2"/>
<text text-anchor="start" x="13.5" y="-46.3" font-family="Helvetica,sans-Serif" font-size="11.00" fill="#000000">&lt; 0</text>
<polygon fill="#ffffff" stroke="transparent" points="99.5,-40.2 99.5,-59.2 179.5,-59.2 179.5,-40.2 99.5,-40.2"/>
<polygon fill="none" stroke="#000000" points="99.5,-40.2 99.5,-59.2 179.5,-59.2 179.5,-40.2 99.5,-40.2"/>
<text text-anchor="start" x="170.3862" y="-46.3" font-family="Helvetica,sans-Serif" font-size="11.00" fill="#000000"> &#160;</text>
<polygon fill="#ffffff" stroke="transparent" points="179.5,-40.2 179.5,-59.2 263.5,-59.2 263.5,-40.2 179.5,-40.2"/>
<polygon fill="none" stroke="#000000" points="179.5,-40.2 179.5,-59.2 263.5,-59.2 263.5,-40.2 179.5,-40.2"/>
<text text-anchor="start" x="244.9053" y="-46.3" font-family="Helvetica,sans-Serif" font-size="11.00" fill="#000000">1 &gt;</text>
<polygon fill="none" stroke="#000000" stroke-width="2" points="9,-39.2 9,-303.2 264,-303.2 264,-39.2 9,-39.2"/>
</a>
</g>
</g>
<!-- tms_rsrv_timer_config_vars&#45;&gt;tms_rsrv_timer_config -->
<g id="edge1" class="edge">
<title>tms_rsrv_timer_config_vars:w&#45;&gt;tms_rsrv_timer_config:e</title>
<path fill="none" stroke="#000000" d="M299.4203,-268.2C287.5435,-268.2 280.158,-268.2 263.5,-268.2"/>
<polygon fill="#000000" stroke="#000000" points="306,-268.2001 314,-271.8 310,-268.2 314,-268.2 314,-268.2 314,-268.2 310,-268.2 314,-264.6 306,-268.2001 306,-268.2001"/>
<ellipse fill="none" stroke="#000000" cx="302.8" cy="-268.2001" rx="3.2" ry="3.2"/>
</g>
</g>
</svg>
