<?xml version="1.0" encoding="UTF-8" standalone="no"?>
<!DOCTYPE svg PUBLIC "-//W3C//DTD SVG 1.1//EN"
 "http://www.w3.org/Graphics/SVG/1.1/DTD/svg11.dtd">
<!-- Generated by graphviz version 2.40.1 (20161225.0304)
 -->
<!-- Title: oneDegreeRelationshipsDiagram Pages: 1 -->
<svg width="771pt" height="570pt"
 viewBox="0.00 0.00 771.00 570.20" xmlns="http://www.w3.org/2000/svg" xmlns:xlink="http://www.w3.org/1999/xlink">
<g id="graph0" class="graph" transform="scale(1 1) rotate(0) translate(4 566.2)">
<title>oneDegreeRelationshipsDiagram</title>
<polygon fill="#ffffff" stroke="transparent" points="-4,4 -4,-566.2 767,-566.2 767,4 -4,4"/>
<text text-anchor="middle" x="72.4936" y="-7.3" font-family="Helvetica,sans-Serif" font-size="11.00" fill="#000000">Generated by SchemaSpy</text>
<!-- tms_rsrv_action -->
<g id="node1" class="node">
<title>tms_rsrv_action</title>
<g id="a_node1"><a xlink:href="../../tables/tms_rsrv_action.html" xlink:title="tms_rsrv_action" target="_top">
<polygon fill="#ffffff" stroke="transparent" points="571,-409.2 571,-558.2 748,-558.2 748,-409.2 571,-409.2"/>
<polygon fill="#f5f5f5" stroke="transparent" points="571.5,-534.7 571.5,-557.7 748.5,-557.7 748.5,-534.7 571.5,-534.7"/>
<polygon fill="none" stroke="#000000" points="571.5,-534.7 571.5,-557.7 748.5,-557.7 748.5,-534.7 571.5,-534.7"/>
<text text-anchor="start" x="576.5" y="-543.3" font-family="Helvetica,sans-Serif" font-weight="bold" font-size="11.00" fill="#000000">tms_rsrv_action</text>
<text text-anchor="start" x="713.5437" y="-542.8" font-family="Helvetica,sans-Serif" font-size="11.00" fill="#000000">[table]</text>
<polygon fill="none" stroke="#000000" points="571.5,-512.7 571.5,-534.7 748.5,-534.7 748.5,-512.7 571.5,-512.7"/>
<image xlink:href="../../images/primaryKeys.png" width="11px" height="12px" preserveAspectRatio="xMinYMin meet" x="576.5" y="-529.7"/>
<text text-anchor="start" x="591.5" y="-519.8" font-family="Helvetica,sans-Serif" font-size="11.00" fill="#000000">c_pk</text>
<polygon fill="#ffffff" stroke="transparent" points="571.5,-490.7 571.5,-512.7 748.5,-512.7 748.5,-490.7 571.5,-490.7"/>
<polygon fill="none" stroke="#000000" points="571.5,-490.7 571.5,-512.7 748.5,-512.7 748.5,-490.7 571.5,-490.7"/>
<text text-anchor="start" x="591.5" y="-497.8" font-family="Helvetica,sans-Serif" font-size="11.00" fill="#000000">c_pid</text>
<polygon fill="#ffffff" stroke="transparent" points="571.5,-468.7 571.5,-490.7 748.5,-490.7 748.5,-468.7 571.5,-468.7"/>
<polygon fill="none" stroke="#000000" points="571.5,-468.7 571.5,-490.7 748.5,-490.7 748.5,-468.7 571.5,-468.7"/>
<text text-anchor="start" x="591.5" y="-475.8" font-family="Helvetica,sans-Serif" font-size="11.00" fill="#000000">c_name</text>
<polygon fill="none" stroke="#000000" points="571.5,-446.7 571.5,-468.7 748.5,-468.7 748.5,-446.7 571.5,-446.7"/>
<image xlink:href="../../images/foreignKeys.png" width="11px" height="12px" preserveAspectRatio="xMinYMin meet" x="576.5" y="-463.7"/>
<text text-anchor="start" x="591.5" y="-453.8" font-family="Helvetica,sans-Serif" font-size="11.00" fill="#000000">c_route_id</text>
<polygon fill="none" stroke="#000000" points="571.5,-427.7 571.5,-446.7 748.5,-446.7 748.5,-427.7 571.5,-427.7"/>
<text text-anchor="start" x="574.5" y="-433.8" font-family="Helvetica,sans-Serif" font-size="11.00" fill="#000000">...</text>
<polygon fill="#ffffff" stroke="transparent" points="571.5,-408.7 571.5,-427.7 658.5,-427.7 658.5,-408.7 571.5,-408.7"/>
<polygon fill="none" stroke="#000000" points="571.5,-408.7 571.5,-427.7 658.5,-427.7 658.5,-408.7 571.5,-408.7"/>
<text text-anchor="start" x="574.5" y="-414.8" font-family="Helvetica,sans-Serif" font-size="11.00" fill="#000000">&lt; 1</text>
<polygon fill="#ffffff" stroke="transparent" points="658.5,-408.7 658.5,-427.7 703.5,-427.7 703.5,-408.7 658.5,-408.7"/>
<polygon fill="none" stroke="#000000" points="658.5,-408.7 658.5,-427.7 703.5,-427.7 703.5,-408.7 658.5,-408.7"/>
<text text-anchor="start" x="694.3862" y="-414.8" font-family="Helvetica,sans-Serif" font-size="11.00" fill="#000000"> &#160;</text>
<polygon fill="#ffffff" stroke="transparent" points="703.5,-408.7 703.5,-427.7 748.5,-427.7 748.5,-408.7 703.5,-408.7"/>
<polygon fill="none" stroke="#000000" points="703.5,-408.7 703.5,-427.7 748.5,-427.7 748.5,-408.7 703.5,-408.7"/>
<text text-anchor="start" x="739.3862" y="-414.8" font-family="Helvetica,sans-Serif" font-size="11.00" fill="#000000"> &#160;</text>
</a>
</g>
</g>
<!-- tms_rsrv_route -->
<g id="node2" class="node">
<title>tms_rsrv_route</title>
<g id="a_node2"><a xlink:href="../../tables/tms_rsrv_route.html" xlink:title="tms_rsrv_route" target="_top">
<polygon fill="#ffffff" stroke="transparent" points="234,-65.7 234,-419.7 515,-419.7 515,-65.7 234,-65.7"/>
<polygon fill="#f5f5f5" stroke="transparent" points="236.5,-394.7 236.5,-417.7 513.5,-417.7 513.5,-394.7 236.5,-394.7"/>
<polygon fill="none" stroke="#000000" points="236.5,-394.7 236.5,-417.7 513.5,-417.7 513.5,-394.7 236.5,-394.7"/>
<text text-anchor="start" x="241.5" y="-403.3" font-family="Helvetica,sans-Serif" font-weight="bold" font-size="11.00" fill="#000000">tms_rsrv_route</text>
<text text-anchor="start" x="478.5437" y="-402.8" font-family="Helvetica,sans-Serif" font-size="11.00" fill="#000000">[table]</text>
<polygon fill="none" stroke="#000000" points="236.5,-372.7 236.5,-394.7 429.5,-394.7 429.5,-372.7 236.5,-372.7"/>
<image xlink:href="../../images/primaryKeys.png" width="11px" height="12px" preserveAspectRatio="xMinYMin meet" x="241.5" y="-389.7"/>
<text text-anchor="start" x="256.5" y="-379.8" font-family="Helvetica,sans-Serif" font-size="11.00" fill="#000000">c_pk</text>
<polygon fill="none" stroke="#000000" points="429.5,-372.7 429.5,-394.7 513.5,-394.7 513.5,-372.7 429.5,-372.7"/>
<text text-anchor="start" x="432.5" y="-380.4" font-family="Helvetica,sans-Serif" font-size="11.00" fill="#000000">int8[19]</text>
<polygon fill="none" stroke="#000000" points="236.5,-350.7 236.5,-372.7 429.5,-372.7 429.5,-350.7 236.5,-350.7"/>
<text text-anchor="start" x="256.5" y="-357.8" font-family="Helvetica,sans-Serif" font-size="11.00" fill="#000000">c_created</text>
<polygon fill="none" stroke="#000000" points="429.5,-350.7 429.5,-372.7 513.5,-372.7 513.5,-350.7 429.5,-350.7"/>
<text text-anchor="start" x="432.3807" y="-358.4" font-family="Helvetica,sans-Serif" font-size="11.00" fill="#000000">timestamp[29,6]</text>
<polygon fill="none" stroke="#000000" points="236.5,-328.7 236.5,-350.7 429.5,-350.7 429.5,-328.7 236.5,-328.7"/>
<text text-anchor="start" x="256.5" y="-335.8" font-family="Helvetica,sans-Serif" font-size="11.00" fill="#000000">c_created_by</text>
<polygon fill="none" stroke="#000000" points="429.5,-328.7 429.5,-350.7 513.5,-350.7 513.5,-328.7 429.5,-328.7"/>
<text text-anchor="start" x="432.5" y="-336.4" font-family="Helvetica,sans-Serif" font-size="11.00" fill="#000000">varchar[255]</text>
<polygon fill="none" stroke="#000000" points="236.5,-306.7 236.5,-328.7 429.5,-328.7 429.5,-306.7 236.5,-306.7"/>
<text text-anchor="start" x="256.5" y="-313.8" font-family="Helvetica,sans-Serif" font-size="11.00" fill="#000000">c_updated_by</text>
<polygon fill="none" stroke="#000000" points="429.5,-306.7 429.5,-328.7 513.5,-328.7 513.5,-306.7 429.5,-306.7"/>
<text text-anchor="start" x="432.5" y="-314.4" font-family="Helvetica,sans-Serif" font-size="11.00" fill="#000000">varchar[255]</text>
<polygon fill="none" stroke="#000000" points="236.5,-284.7 236.5,-306.7 429.5,-306.7 429.5,-284.7 236.5,-284.7"/>
<text text-anchor="start" x="256.5" y="-291.8" font-family="Helvetica,sans-Serif" font-size="11.00" fill="#000000">c_updated</text>
<polygon fill="none" stroke="#000000" points="429.5,-284.7 429.5,-306.7 513.5,-306.7 513.5,-284.7 429.5,-284.7"/>
<text text-anchor="start" x="432.3807" y="-292.4" font-family="Helvetica,sans-Serif" font-size="11.00" fill="#000000">timestamp[29,6]</text>
<polygon fill="none" stroke="#000000" points="236.5,-262.7 236.5,-284.7 429.5,-284.7 429.5,-262.7 236.5,-262.7"/>
<text text-anchor="start" x="256.5" y="-269.8" font-family="Helvetica,sans-Serif" font-size="11.00" fill="#000000">c_ol</text>
<polygon fill="none" stroke="#000000" points="429.5,-262.7 429.5,-284.7 513.5,-284.7 513.5,-262.7 429.5,-262.7"/>
<text text-anchor="start" x="432.5" y="-270.4" font-family="Helvetica,sans-Serif" font-size="11.00" fill="#000000">int8[19]</text>
<polygon fill="#ffffff" stroke="transparent" points="236.5,-240.7 236.5,-262.7 429.5,-262.7 429.5,-240.7 236.5,-240.7"/>
<polygon fill="none" stroke="#000000" points="236.5,-240.7 236.5,-262.7 429.5,-262.7 429.5,-240.7 236.5,-240.7"/>
<text text-anchor="start" x="256.5" y="-247.8" font-family="Helvetica,sans-Serif" font-size="11.00" fill="#000000">c_pid</text>
<polygon fill="none" stroke="#000000" points="429.5,-240.7 429.5,-262.7 513.5,-262.7 513.5,-240.7 429.5,-240.7"/>
<text text-anchor="start" x="432.5" y="-248.4" font-family="Helvetica,sans-Serif" font-size="11.00" fill="#000000">varchar[255]</text>
<polygon fill="none" stroke="#000000" points="236.5,-218.7 236.5,-240.7 429.5,-240.7 429.5,-218.7 236.5,-218.7"/>
<text text-anchor="start" x="256.5" y="-225.8" font-family="Helvetica,sans-Serif" font-size="11.00" fill="#000000">c_description</text>
<polygon fill="none" stroke="#000000" points="429.5,-218.7 429.5,-240.7 513.5,-240.7 513.5,-218.7 429.5,-218.7"/>
<text text-anchor="start" x="432.5" y="-226.4" font-family="Helvetica,sans-Serif" font-size="11.00" fill="#000000">varchar[255]</text>
<polygon fill="none" stroke="#000000" points="236.5,-196.7 236.5,-218.7 429.5,-218.7 429.5,-196.7 236.5,-196.7"/>
<text text-anchor="start" x="256.5" y="-203.8" font-family="Helvetica,sans-Serif" font-size="11.00" fill="#000000">c_enabled</text>
<polygon fill="none" stroke="#000000" points="429.5,-196.7 429.5,-218.7 513.5,-218.7 513.5,-196.7 429.5,-196.7"/>
<text text-anchor="start" x="432.5" y="-204.4" font-family="Helvetica,sans-Serif" font-size="11.00" fill="#000000">bool[1]</text>
<polygon fill="#ffffff" stroke="transparent" points="236.5,-174.7 236.5,-196.7 429.5,-196.7 429.5,-174.7 236.5,-174.7"/>
<polygon fill="none" stroke="#000000" points="236.5,-174.7 236.5,-196.7 429.5,-196.7 429.5,-174.7 236.5,-174.7"/>
<text text-anchor="start" x="256.5" y="-181.8" font-family="Helvetica,sans-Serif" font-size="11.00" fill="#000000">c_name</text>
<polygon fill="none" stroke="#000000" points="429.5,-174.7 429.5,-196.7 513.5,-196.7 513.5,-174.7 429.5,-174.7"/>
<text text-anchor="start" x="432.5" y="-182.4" font-family="Helvetica,sans-Serif" font-size="11.00" fill="#000000">varchar[255]</text>
<polygon fill="none" stroke="#000000" points="236.5,-152.7 236.5,-174.7 429.5,-174.7 429.5,-152.7 236.5,-152.7"/>
<text text-anchor="start" x="256.5" y="-159.8" font-family="Helvetica,sans-Serif" font-size="11.00" fill="#000000">c_source_loc_group_name</text>
<polygon fill="none" stroke="#000000" points="429.5,-152.7 429.5,-174.7 513.5,-174.7 513.5,-152.7 429.5,-152.7"/>
<text text-anchor="start" x="432.5" y="-160.4" font-family="Helvetica,sans-Serif" font-size="11.00" fill="#000000">varchar[255]</text>
<polygon fill="none" stroke="#000000" points="236.5,-130.7 236.5,-152.7 429.5,-152.7 429.5,-130.7 236.5,-130.7"/>
<text text-anchor="start" x="256.5" y="-137.8" font-family="Helvetica,sans-Serif" font-size="11.00" fill="#000000">c_target_loc_group_name</text>
<polygon fill="none" stroke="#000000" points="429.5,-130.7 429.5,-152.7 513.5,-152.7 513.5,-130.7 429.5,-130.7"/>
<text text-anchor="start" x="432.5" y="-138.4" font-family="Helvetica,sans-Serif" font-size="11.00" fill="#000000">varchar[255]</text>
<polygon fill="none" stroke="#000000" points="236.5,-108.7 236.5,-130.7 429.5,-130.7 429.5,-108.7 236.5,-108.7"/>
<image xlink:href="../../images/foreignKeys.png" width="11px" height="12px" preserveAspectRatio="xMinYMin meet" x="241.5" y="-125.7"/>
<text text-anchor="start" x="256.5" y="-115.8" font-family="Helvetica,sans-Serif" font-size="11.00" fill="#000000">c_source_location</text>
<polygon fill="none" stroke="#000000" points="429.5,-108.7 429.5,-130.7 513.5,-130.7 513.5,-108.7 429.5,-108.7"/>
<text text-anchor="start" x="432.5" y="-116.4" font-family="Helvetica,sans-Serif" font-size="11.00" fill="#000000">int8[19]</text>
<polygon fill="none" stroke="#000000" points="236.5,-86.7 236.5,-108.7 429.5,-108.7 429.5,-86.7 236.5,-86.7"/>
<image xlink:href="../../images/foreignKeys.png" width="11px" height="12px" preserveAspectRatio="xMinYMin meet" x="241.5" y="-103.7"/>
<text text-anchor="start" x="256.5" y="-93.8" font-family="Helvetica,sans-Serif" font-size="11.00" fill="#000000">c_target_location</text>
<polygon fill="none" stroke="#000000" points="429.5,-86.7 429.5,-108.7 513.5,-108.7 513.5,-86.7 429.5,-86.7"/>
<text text-anchor="start" x="432.5" y="-94.4" font-family="Helvetica,sans-Serif" font-size="11.00" fill="#000000">int8[19]</text>
<polygon fill="#ffffff" stroke="transparent" points="236.5,-67.7 236.5,-86.7 337.5,-86.7 337.5,-67.7 236.5,-67.7"/>
<polygon fill="none" stroke="#000000" points="236.5,-67.7 236.5,-86.7 337.5,-86.7 337.5,-67.7 236.5,-67.7"/>
<text text-anchor="start" x="239.5" y="-73.8" font-family="Helvetica,sans-Serif" font-size="11.00" fill="#000000">&lt; 2</text>
<polygon fill="#ffffff" stroke="transparent" points="337.5,-67.7 337.5,-86.7 429.5,-86.7 429.5,-67.7 337.5,-67.7"/>
<polygon fill="none" stroke="#000000" points="337.5,-67.7 337.5,-86.7 429.5,-86.7 429.5,-67.7 337.5,-67.7"/>
<text text-anchor="start" x="420.3862" y="-73.8" font-family="Helvetica,sans-Serif" font-size="11.00" fill="#000000"> &#160;</text>
<polygon fill="#ffffff" stroke="transparent" points="429.5,-67.7 429.5,-86.7 513.5,-86.7 513.5,-67.7 429.5,-67.7"/>
<polygon fill="none" stroke="#000000" points="429.5,-67.7 429.5,-86.7 513.5,-86.7 513.5,-67.7 429.5,-67.7"/>
<text text-anchor="start" x="494.9053" y="-73.8" font-family="Helvetica,sans-Serif" font-size="11.00" fill="#000000">2 &gt;</text>
<polygon fill="none" stroke="#000000" stroke-width="2" points="235,-66.7 235,-418.7 514,-418.7 514,-66.7 235,-66.7"/>
</a>
</g>
</g>
<!-- tms_rsrv_action&#45;&gt;tms_rsrv_route -->
<g id="edge1" class="edge">
<title>tms_rsrv_action:w&#45;&gt;tms_rsrv_route:e</title>
<path fill="none" stroke="#000000" d="M557.4927,-453.7214C535.5735,-438.3509 549.4109,-383.7 513.5,-383.7"/>
<polygon fill="#000000" stroke="#000000" points="563.8044,-455.5141 570.5164,-461.163 567.6522,-456.6071 571.5,-457.7 571.5,-457.7 571.5,-457.7 567.6522,-456.6071 572.4836,-454.237 563.8044,-455.5141 563.8044,-455.5141"/>
<ellipse fill="none" stroke="#000000" cx="560.7262" cy="-454.6398" rx="3.2" ry="3.2"/>
</g>
<!-- tms_rsrv_location -->
<g id="node3" class="node">
<title>tms_rsrv_location</title>
<g id="a_node3"><a xlink:href="../../tables/tms_rsrv_location.html" xlink:title="tms_rsrv_location" target="_top">
<polygon fill="#ffffff" stroke="transparent" points="8,-38.2 8,-143.2 185,-143.2 185,-38.2 8,-38.2"/>
<polygon fill="#f5f5f5" stroke="transparent" points="8.5,-119.7 8.5,-142.7 185.5,-142.7 185.5,-119.7 8.5,-119.7"/>
<polygon fill="none" stroke="#000000" points="8.5,-119.7 8.5,-142.7 185.5,-142.7 185.5,-119.7 8.5,-119.7"/>
<text text-anchor="start" x="13.5" y="-128.3" font-family="Helvetica,sans-Serif" font-weight="bold" font-size="11.00" fill="#000000">tms_rsrv_location</text>
<text text-anchor="start" x="150.5437" y="-127.8" font-family="Helvetica,sans-Serif" font-size="11.00" fill="#000000">[table]</text>
<polygon fill="none" stroke="#000000" points="8.5,-97.7 8.5,-119.7 185.5,-119.7 185.5,-97.7 8.5,-97.7"/>
<image xlink:href="../../images/primaryKeys.png" width="11px" height="12px" preserveAspectRatio="xMinYMin meet" x="13.5" y="-114.7"/>
<text text-anchor="start" x="28.5" y="-104.8" font-family="Helvetica,sans-Serif" font-size="11.00" fill="#000000">c_pk</text>
<polygon fill="#ffffff" stroke="transparent" points="8.5,-75.7 8.5,-97.7 185.5,-97.7 185.5,-75.7 8.5,-75.7"/>
<polygon fill="none" stroke="#000000" points="8.5,-75.7 8.5,-97.7 185.5,-97.7 185.5,-75.7 8.5,-75.7"/>
<text text-anchor="start" x="28.5" y="-82.8" font-family="Helvetica,sans-Serif" font-size="11.00" fill="#000000">c_pid</text>
<polygon fill="none" stroke="#000000" points="8.5,-56.7 8.5,-75.7 185.5,-75.7 185.5,-56.7 8.5,-56.7"/>
<text text-anchor="start" x="11.5" y="-62.8" font-family="Helvetica,sans-Serif" font-size="11.00" fill="#000000">...</text>
<polygon fill="#ffffff" stroke="transparent" points="8.5,-37.7 8.5,-56.7 86.5,-56.7 86.5,-37.7 8.5,-37.7"/>
<polygon fill="none" stroke="#000000" points="8.5,-37.7 8.5,-56.7 86.5,-56.7 86.5,-37.7 8.5,-37.7"/>
<text text-anchor="start" x="11.5" y="-43.8" font-family="Helvetica,sans-Serif" font-size="11.00" fill="#000000"> &#160;</text>
<polygon fill="#ffffff" stroke="transparent" points="86.5,-37.7 86.5,-56.7 131.5,-56.7 131.5,-37.7 86.5,-37.7"/>
<polygon fill="none" stroke="#000000" points="86.5,-37.7 86.5,-56.7 131.5,-56.7 131.5,-37.7 86.5,-37.7"/>
<text text-anchor="start" x="122.3862" y="-43.8" font-family="Helvetica,sans-Serif" font-size="11.00" fill="#000000"> &#160;</text>
<polygon fill="#ffffff" stroke="transparent" points="131.5,-37.7 131.5,-56.7 185.5,-56.7 185.5,-37.7 131.5,-37.7"/>
<polygon fill="none" stroke="#000000" points="131.5,-37.7 131.5,-56.7 185.5,-56.7 185.5,-37.7 131.5,-37.7"/>
<text text-anchor="start" x="166.9053" y="-43.8" font-family="Helvetica,sans-Serif" font-size="11.00" fill="#000000">2 &gt;</text>
</a>
</g>
</g>
<!-- tms_rsrv_route&#45;&gt;tms_rsrv_location -->
<g id="edge2" class="edge">
<title>tms_rsrv_route:w&#45;&gt;tms_rsrv_location:e</title>
<path fill="none" stroke="#000000" d="M222.0097,-117.9813C209.8398,-114.8875 202.8909,-108.7 185.5,-108.7"/>
<polygon fill="#000000" stroke="#000000" points="228.5557,-118.7576 236.0759,-123.2749 232.5278,-119.2288 236.5,-119.7 236.5,-119.7 236.5,-119.7 232.5278,-119.2288 236.9241,-116.1251 228.5557,-118.7576 228.5557,-118.7576"/>
<ellipse fill="none" stroke="#000000" cx="225.378" cy="-118.3807" rx="3.2" ry="3.2"/>
</g>
<!-- tms_rsrv_route&#45;&gt;tms_rsrv_location -->
<g id="edge3" class="edge">
<title>tms_rsrv_route:w&#45;&gt;tms_rsrv_location:e</title>
<path fill="none" stroke="#000000" d="M222.0097,-99.4187C209.8398,-102.5125 202.8909,-108.7 185.5,-108.7"/>
<polygon fill="#000000" stroke="#000000" points="228.5557,-98.6424 236.9241,-101.2749 232.5278,-98.1712 236.5,-97.7 236.5,-97.7 236.5,-97.7 232.5278,-98.1712 236.0759,-94.1251 228.5557,-98.6424 228.5557,-98.6424"/>
<ellipse fill="none" stroke="#000000" cx="225.378" cy="-99.0193" rx="3.2" ry="3.2"/>
</g>
<!-- tms_rsrv_route_details -->
<g id="node4" class="node">
<title>tms_rsrv_route_details</title>
<g id="a_node4"><a xlink:href="../../tables/tms_rsrv_route_details.html" xlink:title="tms_rsrv_route_details" target="_top">
<polygon fill="#ffffff" stroke="transparent" points="564,-261.2 564,-388.2 755,-388.2 755,-261.2 564,-261.2"/>
<polygon fill="#f5f5f5" stroke="transparent" points="564.5,-364.7 564.5,-387.7 755.5,-387.7 755.5,-364.7 564.5,-364.7"/>
<polygon fill="none" stroke="#000000" points="564.5,-364.7 564.5,-387.7 755.5,-387.7 755.5,-364.7 564.5,-364.7"/>
<text text-anchor="start" x="569.5" y="-373.3" font-family="Helvetica,sans-Serif" font-weight="bold" font-size="11.00" fill="#000000">tms_rsrv_route_details</text>
<text text-anchor="start" x="721.0219" y="-372.8" font-family="Helvetica,sans-Serif" font-size="11.00" fill="#000000">[table]</text>
<polygon fill="none" stroke="#000000" points="564.5,-342.7 564.5,-364.7 755.5,-364.7 755.5,-342.7 564.5,-342.7"/>
<image xlink:href="../../images/primaryKeys.png" width="11px" height="12px" preserveAspectRatio="xMinYMin meet" x="569.5" y="-359.7"/>
<text text-anchor="start" x="593.5" y="-349.8" font-family="Helvetica,sans-Serif" font-size="11.00" fill="#000000">c_pk</text>
<polygon fill="#ffffff" stroke="transparent" points="564.5,-320.7 564.5,-342.7 755.5,-342.7 755.5,-320.7 564.5,-320.7"/>
<polygon fill="none" stroke="#000000" points="564.5,-320.7 564.5,-342.7 755.5,-342.7 755.5,-320.7 564.5,-320.7"/>
<text text-anchor="start" x="593.5" y="-327.8" font-family="Helvetica,sans-Serif" font-size="11.00" fill="#000000">c_pos</text>
<polygon fill="#ffffff" stroke="transparent" points="564.5,-298.7 564.5,-320.7 755.5,-320.7 755.5,-298.7 564.5,-298.7"/>
<polygon fill="none" stroke="#000000" points="564.5,-298.7 564.5,-320.7 755.5,-320.7 755.5,-298.7 564.5,-298.7"/>
<image xlink:href="../../images/foreignKeys.png" width="11px" height="12px" preserveAspectRatio="xMinYMin meet" x="569.5" y="-315.7"/>
<text text-anchor="start" x="593.5" y="-305.8" font-family="Helvetica,sans-Serif" font-size="11.00" fill="#000000">c_route_id</text>
<polygon fill="none" stroke="#000000" points="564.5,-279.7 564.5,-298.7 755.5,-298.7 755.5,-279.7 564.5,-279.7"/>
<text text-anchor="start" x="567.5" y="-285.8" font-family="Helvetica,sans-Serif" font-size="11.00" fill="#000000">...</text>
<polygon fill="#ffffff" stroke="transparent" points="564.5,-260.7 564.5,-279.7 658.5,-279.7 658.5,-260.7 564.5,-260.7"/>
<polygon fill="none" stroke="#000000" points="564.5,-260.7 564.5,-279.7 658.5,-279.7 658.5,-260.7 564.5,-260.7"/>
<text text-anchor="start" x="567.5" y="-266.8" font-family="Helvetica,sans-Serif" font-size="11.00" fill="#000000">&lt; 1</text>
<polygon fill="#ffffff" stroke="transparent" points="658.5,-260.7 658.5,-279.7 706.5,-279.7 706.5,-260.7 658.5,-260.7"/>
<polygon fill="none" stroke="#000000" points="658.5,-260.7 658.5,-279.7 706.5,-279.7 706.5,-260.7 658.5,-260.7"/>
<text text-anchor="start" x="697.3862" y="-266.8" font-family="Helvetica,sans-Serif" font-size="11.00" fill="#000000"> &#160;</text>
<polygon fill="#ffffff" stroke="transparent" points="706.5,-260.7 706.5,-279.7 755.5,-279.7 755.5,-260.7 706.5,-260.7"/>
<polygon fill="none" stroke="#000000" points="706.5,-260.7 706.5,-279.7 755.5,-279.7 755.5,-260.7 706.5,-260.7"/>
<text text-anchor="start" x="746.3862" y="-266.8" font-family="Helvetica,sans-Serif" font-size="11.00" fill="#000000"> &#160;</text>
</a>
</g>
</g>
<!-- tms_rsrv_route_details&#45;&gt;tms_rsrv_route -->
<g id="edge4" class="edge">
<title>tms_rsrv_route_details:w&#45;&gt;tms_rsrv_route:e</title>
<path fill="none" stroke="#000000" d="M550.5503,-314.329C531.7607,-330.5294 547.3581,-383.7 513.5,-383.7"/>
<polygon fill="#000000" stroke="#000000" points="556.9071,-312.2196 565.6338,-313.1168 560.7036,-310.9598 564.5,-309.7 564.5,-309.7 564.5,-309.7 560.7036,-310.9598 563.3662,-306.2832 556.9071,-312.2196 556.9071,-312.2196"/>
<ellipse fill="none" stroke="#000000" cx="553.87" cy="-313.2275" rx="3.2" ry="3.2"/>
</g>
</g>
</svg>
