<?xml version="1.0" encoding="UTF-8" standalone="no"?>
<!DOCTYPE svg PUBLIC "-//W3C//DTD SVG 1.1//EN"
 "http://www.w3.org/Graphics/SVG/1.1/DTD/svg11.dtd">
<!-- Generated by graphviz version 2.40.1 (20161225.0304)
 -->
<!-- Title: oneDegreeRelationshipsDiagram Pages: 1 -->
<svg width="531pt" height="641pt"
 viewBox="0.00 0.00 531.00 640.70" xmlns="http://www.w3.org/2000/svg" xmlns:xlink="http://www.w3.org/1999/xlink">
<g id="graph0" class="graph" transform="scale(1 1) rotate(0) translate(4 636.7)">
<title>oneDegreeRelationshipsDiagram</title>
<polygon fill="#ffffff" stroke="transparent" points="-4,4 -4,-636.7 527,-636.7 527,4 -4,4"/>
<text text-anchor="middle" x="72.4936" y="-7.3" font-family="Helvetica,sans-Serif" font-size="11.00" fill="#000000">Generated by SchemaSpy</text>
<!-- tms_rsrv_action -->
<g id="node1" class="node">
<title>tms_rsrv_action</title>
<g id="a_node1"><a xlink:href="../../tables/tms_rsrv_action.html" xlink:title="tms_rsrv_action" target="_top">
<polygon fill="#ffffff" stroke="transparent" points="250,-142.7 250,-628.7 515,-628.7 515,-142.7 250,-142.7"/>
<polygon fill="#f5f5f5" stroke="transparent" points="252.5,-603.7 252.5,-626.7 513.5,-626.7 513.5,-603.7 252.5,-603.7"/>
<polygon fill="none" stroke="#000000" points="252.5,-603.7 252.5,-626.7 513.5,-626.7 513.5,-603.7 252.5,-603.7"/>
<text text-anchor="start" x="257.5" y="-612.3" font-family="Helvetica,sans-Serif" font-weight="bold" font-size="11.00" fill="#000000">tms_rsrv_action</text>
<text text-anchor="start" x="478.5437" y="-611.8" font-family="Helvetica,sans-Serif" font-size="11.00" fill="#000000">[table]</text>
<polygon fill="none" stroke="#000000" points="252.5,-581.7 252.5,-603.7 429.5,-603.7 429.5,-581.7 252.5,-581.7"/>
<image xlink:href="../../images/primaryKeys.png" width="11px" height="12px" preserveAspectRatio="xMinYMin meet" x="257.5" y="-598.7"/>
<text text-anchor="start" x="272.5" y="-588.8" font-family="Helvetica,sans-Serif" font-size="11.00" fill="#000000">c_pk</text>
<polygon fill="none" stroke="#000000" points="429.5,-581.7 429.5,-603.7 513.5,-603.7 513.5,-581.7 429.5,-581.7"/>
<text text-anchor="start" x="432.5" y="-589.4" font-family="Helvetica,sans-Serif" font-size="11.00" fill="#000000">int8[19]</text>
<polygon fill="none" stroke="#000000" points="252.5,-559.7 252.5,-581.7 429.5,-581.7 429.5,-559.7 252.5,-559.7"/>
<text text-anchor="start" x="272.5" y="-566.8" font-family="Helvetica,sans-Serif" font-size="11.00" fill="#000000">c_created</text>
<polygon fill="none" stroke="#000000" points="429.5,-559.7 429.5,-581.7 513.5,-581.7 513.5,-559.7 429.5,-559.7"/>
<text text-anchor="start" x="432.3807" y="-567.4" font-family="Helvetica,sans-Serif" font-size="11.00" fill="#000000">timestamp[29,6]</text>
<polygon fill="none" stroke="#000000" points="252.5,-537.7 252.5,-559.7 429.5,-559.7 429.5,-537.7 252.5,-537.7"/>
<text text-anchor="start" x="272.5" y="-544.8" font-family="Helvetica,sans-Serif" font-size="11.00" fill="#000000">c_created_by</text>
<polygon fill="none" stroke="#000000" points="429.5,-537.7 429.5,-559.7 513.5,-559.7 513.5,-537.7 429.5,-537.7"/>
<text text-anchor="start" x="432.5" y="-545.4" font-family="Helvetica,sans-Serif" font-size="11.00" fill="#000000">varchar[255]</text>
<polygon fill="none" stroke="#000000" points="252.5,-515.7 252.5,-537.7 429.5,-537.7 429.5,-515.7 252.5,-515.7"/>
<text text-anchor="start" x="272.5" y="-522.8" font-family="Helvetica,sans-Serif" font-size="11.00" fill="#000000">c_updated_by</text>
<polygon fill="none" stroke="#000000" points="429.5,-515.7 429.5,-537.7 513.5,-537.7 513.5,-515.7 429.5,-515.7"/>
<text text-anchor="start" x="432.5" y="-523.4" font-family="Helvetica,sans-Serif" font-size="11.00" fill="#000000">varchar[255]</text>
<polygon fill="none" stroke="#000000" points="252.5,-493.7 252.5,-515.7 429.5,-515.7 429.5,-493.7 252.5,-493.7"/>
<text text-anchor="start" x="272.5" y="-500.8" font-family="Helvetica,sans-Serif" font-size="11.00" fill="#000000">c_updated</text>
<polygon fill="none" stroke="#000000" points="429.5,-493.7 429.5,-515.7 513.5,-515.7 513.5,-493.7 429.5,-493.7"/>
<text text-anchor="start" x="432.3807" y="-501.4" font-family="Helvetica,sans-Serif" font-size="11.00" fill="#000000">timestamp[29,6]</text>
<polygon fill="none" stroke="#000000" points="252.5,-471.7 252.5,-493.7 429.5,-493.7 429.5,-471.7 252.5,-471.7"/>
<text text-anchor="start" x="272.5" y="-478.8" font-family="Helvetica,sans-Serif" font-size="11.00" fill="#000000">c_ol</text>
<polygon fill="none" stroke="#000000" points="429.5,-471.7 429.5,-493.7 513.5,-493.7 513.5,-471.7 429.5,-471.7"/>
<text text-anchor="start" x="432.5" y="-479.4" font-family="Helvetica,sans-Serif" font-size="11.00" fill="#000000">int8[19]</text>
<polygon fill="#ffffff" stroke="transparent" points="252.5,-449.7 252.5,-471.7 429.5,-471.7 429.5,-449.7 252.5,-449.7"/>
<polygon fill="none" stroke="#000000" points="252.5,-449.7 252.5,-471.7 429.5,-471.7 429.5,-449.7 252.5,-449.7"/>
<text text-anchor="start" x="272.5" y="-456.8" font-family="Helvetica,sans-Serif" font-size="11.00" fill="#000000">c_pid</text>
<polygon fill="none" stroke="#000000" points="429.5,-449.7 429.5,-471.7 513.5,-471.7 513.5,-449.7 429.5,-449.7"/>
<text text-anchor="start" x="432.5" y="-457.4" font-family="Helvetica,sans-Serif" font-size="11.00" fill="#000000">varchar[255]</text>
<polygon fill="none" stroke="#000000" points="252.5,-427.7 252.5,-449.7 429.5,-449.7 429.5,-427.7 252.5,-427.7"/>
<text text-anchor="start" x="272.5" y="-434.8" font-family="Helvetica,sans-Serif" font-size="11.00" fill="#000000">c_action_type</text>
<polygon fill="none" stroke="#000000" points="429.5,-427.7 429.5,-449.7 513.5,-449.7 513.5,-427.7 429.5,-427.7"/>
<text text-anchor="start" x="432.5" y="-435.4" font-family="Helvetica,sans-Serif" font-size="11.00" fill="#000000">varchar[255]</text>
<polygon fill="none" stroke="#000000" points="252.5,-405.7 252.5,-427.7 429.5,-427.7 429.5,-405.7 252.5,-405.7"/>
<text text-anchor="start" x="272.5" y="-412.8" font-family="Helvetica,sans-Serif" font-size="11.00" fill="#000000">c_description</text>
<polygon fill="none" stroke="#000000" points="429.5,-405.7 429.5,-427.7 513.5,-427.7 513.5,-405.7 429.5,-405.7"/>
<text text-anchor="start" x="432.5" y="-413.4" font-family="Helvetica,sans-Serif" font-size="11.00" fill="#000000">varchar[255]</text>
<polygon fill="none" stroke="#000000" points="252.5,-383.7 252.5,-405.7 429.5,-405.7 429.5,-383.7 252.5,-383.7"/>
<text text-anchor="start" x="272.5" y="-390.8" font-family="Helvetica,sans-Serif" font-size="11.00" fill="#000000">c_enabled</text>
<polygon fill="none" stroke="#000000" points="429.5,-383.7 429.5,-405.7 513.5,-405.7 513.5,-383.7 429.5,-383.7"/>
<text text-anchor="start" x="432.5" y="-391.4" font-family="Helvetica,sans-Serif" font-size="11.00" fill="#000000">bool[1]</text>
<polygon fill="none" stroke="#000000" points="252.5,-361.7 252.5,-383.7 429.5,-383.7 429.5,-361.7 252.5,-361.7"/>
<text text-anchor="start" x="272.5" y="-368.8" font-family="Helvetica,sans-Serif" font-size="11.00" fill="#000000">c_flex_1</text>
<polygon fill="none" stroke="#000000" points="429.5,-361.7 429.5,-383.7 513.5,-383.7 513.5,-361.7 429.5,-361.7"/>
<text text-anchor="start" x="432.5" y="-369.4" font-family="Helvetica,sans-Serif" font-size="11.00" fill="#000000">varchar[255]</text>
<polygon fill="none" stroke="#000000" points="252.5,-339.7 252.5,-361.7 429.5,-361.7 429.5,-339.7 252.5,-339.7"/>
<text text-anchor="start" x="272.5" y="-346.8" font-family="Helvetica,sans-Serif" font-size="11.00" fill="#000000">c_flex_2</text>
<polygon fill="none" stroke="#000000" points="429.5,-339.7 429.5,-361.7 513.5,-361.7 513.5,-339.7 429.5,-339.7"/>
<text text-anchor="start" x="432.5" y="-347.4" font-family="Helvetica,sans-Serif" font-size="11.00" fill="#000000">varchar[255]</text>
<polygon fill="none" stroke="#000000" points="252.5,-317.7 252.5,-339.7 429.5,-339.7 429.5,-317.7 252.5,-317.7"/>
<text text-anchor="start" x="272.5" y="-324.8" font-family="Helvetica,sans-Serif" font-size="11.00" fill="#000000">c_flex_3</text>
<polygon fill="none" stroke="#000000" points="429.5,-317.7 429.5,-339.7 513.5,-339.7 513.5,-317.7 429.5,-317.7"/>
<text text-anchor="start" x="432.5" y="-325.4" font-family="Helvetica,sans-Serif" font-size="11.00" fill="#000000">varchar[255]</text>
<polygon fill="none" stroke="#000000" points="252.5,-295.7 252.5,-317.7 429.5,-317.7 429.5,-295.7 252.5,-295.7"/>
<text text-anchor="start" x="272.5" y="-302.8" font-family="Helvetica,sans-Serif" font-size="11.00" fill="#000000">c_flex_4</text>
<polygon fill="none" stroke="#000000" points="429.5,-295.7 429.5,-317.7 513.5,-317.7 513.5,-295.7 429.5,-295.7"/>
<text text-anchor="start" x="432.5" y="-303.4" font-family="Helvetica,sans-Serif" font-size="11.00" fill="#000000">varchar[255]</text>
<polygon fill="none" stroke="#000000" points="252.5,-273.7 252.5,-295.7 429.5,-295.7 429.5,-273.7 252.5,-273.7"/>
<text text-anchor="start" x="272.5" y="-280.8" font-family="Helvetica,sans-Serif" font-size="11.00" fill="#000000">c_flex_5</text>
<polygon fill="none" stroke="#000000" points="429.5,-273.7 429.5,-295.7 513.5,-295.7 513.5,-273.7 429.5,-273.7"/>
<text text-anchor="start" x="432.5" y="-281.4" font-family="Helvetica,sans-Serif" font-size="11.00" fill="#000000">varchar[255]</text>
<polygon fill="none" stroke="#000000" points="252.5,-251.7 252.5,-273.7 429.5,-273.7 429.5,-251.7 252.5,-251.7"/>
<text text-anchor="start" x="272.5" y="-258.8" font-family="Helvetica,sans-Serif" font-size="11.00" fill="#000000">c_location_group_name</text>
<polygon fill="none" stroke="#000000" points="429.5,-251.7 429.5,-273.7 513.5,-273.7 513.5,-251.7 429.5,-251.7"/>
<text text-anchor="start" x="432.5" y="-259.4" font-family="Helvetica,sans-Serif" font-size="11.00" fill="#000000">varchar[255]</text>
<polygon fill="none" stroke="#000000" points="252.5,-229.7 252.5,-251.7 429.5,-251.7 429.5,-229.7 252.5,-229.7"/>
<text text-anchor="start" x="272.5" y="-236.8" font-family="Helvetica,sans-Serif" font-size="11.00" fill="#000000">c_location_key</text>
<polygon fill="none" stroke="#000000" points="429.5,-229.7 429.5,-251.7 513.5,-251.7 513.5,-229.7 429.5,-229.7"/>
<text text-anchor="start" x="432.5" y="-237.4" font-family="Helvetica,sans-Serif" font-size="11.00" fill="#000000">varchar[255]</text>
<polygon fill="#ffffff" stroke="transparent" points="252.5,-207.7 252.5,-229.7 429.5,-229.7 429.5,-207.7 252.5,-207.7"/>
<polygon fill="none" stroke="#000000" points="252.5,-207.7 252.5,-229.7 429.5,-229.7 429.5,-207.7 252.5,-207.7"/>
<text text-anchor="start" x="272.5" y="-214.8" font-family="Helvetica,sans-Serif" font-size="11.00" fill="#000000">c_name</text>
<polygon fill="none" stroke="#000000" points="429.5,-207.7 429.5,-229.7 513.5,-229.7 513.5,-207.7 429.5,-207.7"/>
<text text-anchor="start" x="432.5" y="-215.4" font-family="Helvetica,sans-Serif" font-size="11.00" fill="#000000">varchar[255]</text>
<polygon fill="none" stroke="#000000" points="252.5,-185.7 252.5,-207.7 429.5,-207.7 429.5,-185.7 252.5,-185.7"/>
<text text-anchor="start" x="272.5" y="-192.8" font-family="Helvetica,sans-Serif" font-size="11.00" fill="#000000">c_program_name</text>
<polygon fill="none" stroke="#000000" points="429.5,-185.7 429.5,-207.7 513.5,-207.7 513.5,-185.7 429.5,-185.7"/>
<text text-anchor="start" x="432.5" y="-193.4" font-family="Helvetica,sans-Serif" font-size="11.00" fill="#000000">varchar[255]</text>
<polygon fill="none" stroke="#000000" points="252.5,-163.7 252.5,-185.7 429.5,-185.7 429.5,-163.7 252.5,-163.7"/>
<image xlink:href="../../images/foreignKeys.png" width="11px" height="12px" preserveAspectRatio="xMinYMin meet" x="257.5" y="-180.7"/>
<text text-anchor="start" x="272.5" y="-170.8" font-family="Helvetica,sans-Serif" font-size="11.00" fill="#000000">c_route_id</text>
<polygon fill="none" stroke="#000000" points="429.5,-163.7 429.5,-185.7 513.5,-185.7 513.5,-163.7 429.5,-163.7"/>
<text text-anchor="start" x="432.5" y="-171.4" font-family="Helvetica,sans-Serif" font-size="11.00" fill="#000000">int8[19]</text>
<polygon fill="#ffffff" stroke="transparent" points="252.5,-144.7 252.5,-163.7 345.5,-163.7 345.5,-144.7 252.5,-144.7"/>
<polygon fill="none" stroke="#000000" points="252.5,-144.7 252.5,-163.7 345.5,-163.7 345.5,-144.7 252.5,-144.7"/>
<text text-anchor="start" x="255.5" y="-150.8" font-family="Helvetica,sans-Serif" font-size="11.00" fill="#000000">&lt; 1</text>
<polygon fill="#ffffff" stroke="transparent" points="345.5,-144.7 345.5,-163.7 429.5,-163.7 429.5,-144.7 345.5,-144.7"/>
<polygon fill="none" stroke="#000000" points="345.5,-144.7 345.5,-163.7 429.5,-163.7 429.5,-144.7 345.5,-144.7"/>
<text text-anchor="start" x="420.3862" y="-150.8" font-family="Helvetica,sans-Serif" font-size="11.00" fill="#000000"> &#160;</text>
<polygon fill="#ffffff" stroke="transparent" points="429.5,-144.7 429.5,-163.7 513.5,-163.7 513.5,-144.7 429.5,-144.7"/>
<polygon fill="none" stroke="#000000" points="429.5,-144.7 429.5,-163.7 513.5,-163.7 513.5,-144.7 429.5,-144.7"/>
<text text-anchor="start" x="494.9053" y="-150.8" font-family="Helvetica,sans-Serif" font-size="11.00" fill="#000000">0 &gt;</text>
<polygon fill="none" stroke="#000000" stroke-width="2" points="251,-143.7 251,-627.7 514,-627.7 514,-143.7 251,-143.7"/>
</a>
</g>
</g>
<!-- tms_rsrv_route -->
<g id="node2" class="node">
<title>tms_rsrv_route</title>
<g id="a_node2"><a xlink:href="../../tables/tms_rsrv_route.html" xlink:title="tms_rsrv_route" target="_top">
<polygon fill="#ffffff" stroke="transparent" points="8,-38.2 8,-209.2 201,-209.2 201,-38.2 8,-38.2"/>
<polygon fill="#f5f5f5" stroke="transparent" points="8.5,-185.7 8.5,-208.7 201.5,-208.7 201.5,-185.7 8.5,-185.7"/>
<polygon fill="none" stroke="#000000" points="8.5,-185.7 8.5,-208.7 201.5,-208.7 201.5,-185.7 8.5,-185.7"/>
<text text-anchor="start" x="13.5" y="-194.3" font-family="Helvetica,sans-Serif" font-weight="bold" font-size="11.00" fill="#000000">tms_rsrv_route</text>
<text text-anchor="start" x="166.5437" y="-193.8" font-family="Helvetica,sans-Serif" font-size="11.00" fill="#000000">[table]</text>
<polygon fill="none" stroke="#000000" points="8.5,-163.7 8.5,-185.7 201.5,-185.7 201.5,-163.7 8.5,-163.7"/>
<image xlink:href="../../images/primaryKeys.png" width="11px" height="12px" preserveAspectRatio="xMinYMin meet" x="13.5" y="-180.7"/>
<text text-anchor="start" x="28.5" y="-170.8" font-family="Helvetica,sans-Serif" font-size="11.00" fill="#000000">c_pk</text>
<polygon fill="#ffffff" stroke="transparent" points="8.5,-141.7 8.5,-163.7 201.5,-163.7 201.5,-141.7 8.5,-141.7"/>
<polygon fill="none" stroke="#000000" points="8.5,-141.7 8.5,-163.7 201.5,-163.7 201.5,-141.7 8.5,-141.7"/>
<text text-anchor="start" x="28.5" y="-148.8" font-family="Helvetica,sans-Serif" font-size="11.00" fill="#000000">c_pid</text>
<polygon fill="#ffffff" stroke="transparent" points="8.5,-119.7 8.5,-141.7 201.5,-141.7 201.5,-119.7 8.5,-119.7"/>
<polygon fill="none" stroke="#000000" points="8.5,-119.7 8.5,-141.7 201.5,-141.7 201.5,-119.7 8.5,-119.7"/>
<text text-anchor="start" x="28.5" y="-126.8" font-family="Helvetica,sans-Serif" font-size="11.00" fill="#000000">c_name</text>
<polygon fill="none" stroke="#000000" points="8.5,-97.7 8.5,-119.7 201.5,-119.7 201.5,-97.7 8.5,-97.7"/>
<image xlink:href="../../images/foreignKeys.png" width="11px" height="12px" preserveAspectRatio="xMinYMin meet" x="13.5" y="-114.7"/>
<text text-anchor="start" x="28.5" y="-104.8" font-family="Helvetica,sans-Serif" font-size="11.00" fill="#000000">c_source_location</text>
<polygon fill="none" stroke="#000000" points="8.5,-75.7 8.5,-97.7 201.5,-97.7 201.5,-75.7 8.5,-75.7"/>
<image xlink:href="../../images/foreignKeys.png" width="11px" height="12px" preserveAspectRatio="xMinYMin meet" x="13.5" y="-92.7"/>
<text text-anchor="start" x="28.5" y="-82.8" font-family="Helvetica,sans-Serif" font-size="11.00" fill="#000000">c_target_location</text>
<polygon fill="none" stroke="#000000" points="8.5,-56.7 8.5,-75.7 201.5,-75.7 201.5,-56.7 8.5,-56.7"/>
<text text-anchor="start" x="11.5" y="-62.8" font-family="Helvetica,sans-Serif" font-size="11.00" fill="#000000">...</text>
<polygon fill="#ffffff" stroke="transparent" points="8.5,-37.7 8.5,-56.7 98.5,-56.7 98.5,-37.7 8.5,-37.7"/>
<polygon fill="none" stroke="#000000" points="8.5,-37.7 8.5,-56.7 98.5,-56.7 98.5,-37.7 8.5,-37.7"/>
<text text-anchor="start" x="11.5" y="-43.8" font-family="Helvetica,sans-Serif" font-size="11.00" fill="#000000">&lt; 2</text>
<polygon fill="#ffffff" stroke="transparent" points="98.5,-37.7 98.5,-56.7 145.5,-56.7 145.5,-37.7 98.5,-37.7"/>
<polygon fill="none" stroke="#000000" points="98.5,-37.7 98.5,-56.7 145.5,-56.7 145.5,-37.7 98.5,-37.7"/>
<text text-anchor="start" x="136.3862" y="-43.8" font-family="Helvetica,sans-Serif" font-size="11.00" fill="#000000"> &#160;</text>
<polygon fill="#ffffff" stroke="transparent" points="145.5,-37.7 145.5,-56.7 201.5,-56.7 201.5,-37.7 145.5,-37.7"/>
<polygon fill="none" stroke="#000000" points="145.5,-37.7 145.5,-56.7 201.5,-56.7 201.5,-37.7 145.5,-37.7"/>
<text text-anchor="start" x="182.9053" y="-43.8" font-family="Helvetica,sans-Serif" font-size="11.00" fill="#000000">2 &gt;</text>
</a>
</g>
</g>
<!-- tms_rsrv_action&#45;&gt;tms_rsrv_route -->
<g id="edge1" class="edge">
<title>tms_rsrv_action:w&#45;&gt;tms_rsrv_route:e</title>
<path fill="none" stroke="#000000" d="M237.776,-174.7C225.7815,-174.7 218.3229,-174.7 201.5,-174.7"/>
<polygon fill="#000000" stroke="#000000" points="244.5,-174.7001 252.5,-178.3 248.5,-174.7 252.5,-174.7 252.5,-174.7 252.5,-174.7 248.5,-174.7 252.5,-171.1 244.5,-174.7001 244.5,-174.7001"/>
<ellipse fill="none" stroke="#000000" cx="241.3" cy="-174.7001" rx="3.2" ry="3.2"/>
</g>
</g>
</svg>
