<?xml version="1.0" encoding="UTF-8" standalone="no"?>
<!DOCTYPE svg PUBLIC "-//W3C//DTD SVG 1.1//EN"
 "http://www.w3.org/Graphics/SVG/1.1/DTD/svg11.dtd">
<!-- Generated by graphviz version 2.40.1 (20161225.0304)
 -->
<!-- Title: oneDegreeRelationshipsDiagram Pages: 1 -->
<svg width="535pt" height="162pt"
 viewBox="0.00 0.00 535.00 162.20" xmlns="http://www.w3.org/2000/svg" xmlns:xlink="http://www.w3.org/1999/xlink">
<g id="graph0" class="graph" transform="scale(1 1) rotate(0) translate(4 158.2)">
<title>oneDegreeRelationshipsDiagram</title>
<polygon fill="#ffffff" stroke="transparent" points="-4,4 -4,-158.2 531,-158.2 531,4 -4,4"/>
<text text-anchor="middle" x="72.4936" y="-7.3" font-family="Helvetica,sans-Serif" font-size="11.00" fill="#000000">Generated by SchemaSpy</text>
<!-- tms_rsrv_timer_config_vars -->
<g id="node1" class="node">
<title>tms_rsrv_timer_config_vars</title>
<g id="a_node1"><a xlink:href="../../tables/tms_rsrv_timer_config_vars.html" xlink:title="tms_rsrv_timer_config_vars" target="_top">
<polygon fill="#ffffff" stroke="transparent" points="244,-38.2 244,-150.2 519,-150.2 519,-38.2 244,-38.2"/>
<polygon fill="#f5f5f5" stroke="transparent" points="246.5,-125.2 246.5,-148.2 517.5,-148.2 517.5,-125.2 246.5,-125.2"/>
<polygon fill="none" stroke="#000000" points="246.5,-125.2 246.5,-148.2 517.5,-148.2 517.5,-125.2 246.5,-125.2"/>
<text text-anchor="start" x="251.5" y="-133.8" font-family="Helvetica,sans-Serif" font-weight="bold" font-size="11.00" fill="#000000">tms_rsrv_timer_config_vars</text>
<text text-anchor="start" x="482.5437" y="-133.3" font-family="Helvetica,sans-Serif" font-size="11.00" fill="#000000">[table]</text>
<polygon fill="none" stroke="#000000" points="246.5,-103.2 246.5,-125.2 450.5,-125.2 450.5,-103.2 246.5,-103.2"/>
<image xlink:href="../../images/primaryKeys.png" width="11px" height="12px" preserveAspectRatio="xMinYMin meet" x="251.5" y="-120.2"/>
<text text-anchor="start" x="266.5" y="-110.3" font-family="Helvetica,sans-Serif" font-size="11.00" fill="#000000">c_tc_pk</text>
<polygon fill="none" stroke="#000000" points="450.5,-103.2 450.5,-125.2 517.5,-125.2 517.5,-103.2 450.5,-103.2"/>
<text text-anchor="start" x="453.5" y="-110.9" font-family="Helvetica,sans-Serif" font-size="11.00" fill="#000000">int8[19]</text>
<polygon fill="none" stroke="#000000" points="246.5,-81.2 246.5,-103.2 450.5,-103.2 450.5,-81.2 246.5,-81.2"/>
<text text-anchor="start" x="266.5" y="-88.3" font-family="Helvetica,sans-Serif" font-size="11.00" fill="#000000">c_value</text>
<polygon fill="none" stroke="#000000" points="450.5,-81.2 450.5,-103.2 517.5,-103.2 517.5,-81.2 450.5,-81.2"/>
<text text-anchor="start" x="453.4365" y="-88.9" font-family="Helvetica,sans-Serif" font-size="11.00" fill="#000000">varchar[255]</text>
<polygon fill="none" stroke="#000000" points="246.5,-59.2 246.5,-81.2 450.5,-81.2 450.5,-59.2 246.5,-59.2"/>
<image xlink:href="../../images/primaryKeys.png" width="11px" height="12px" preserveAspectRatio="xMinYMin meet" x="251.5" y="-76.2"/>
<text text-anchor="start" x="266.5" y="-66.3" font-family="Helvetica,sans-Serif" font-size="11.00" fill="#000000">c_key</text>
<polygon fill="none" stroke="#000000" points="450.5,-59.2 450.5,-81.2 517.5,-81.2 517.5,-59.2 450.5,-59.2"/>
<text text-anchor="start" x="453.4365" y="-66.9" font-family="Helvetica,sans-Serif" font-size="11.00" fill="#000000">varchar[255]</text>
<polygon fill="#ffffff" stroke="transparent" points="246.5,-40.2 246.5,-59.2 352.5,-59.2 352.5,-40.2 246.5,-40.2"/>
<polygon fill="none" stroke="#000000" points="246.5,-40.2 246.5,-59.2 352.5,-59.2 352.5,-40.2 246.5,-40.2"/>
<text text-anchor="start" x="249.5" y="-46.3" font-family="Helvetica,sans-Serif" font-size="11.00" fill="#000000">&lt; 1</text>
<polygon fill="#ffffff" stroke="transparent" points="352.5,-40.2 352.5,-59.2 450.5,-59.2 450.5,-40.2 352.5,-40.2"/>
<polygon fill="none" stroke="#000000" points="352.5,-40.2 352.5,-59.2 450.5,-59.2 450.5,-40.2 352.5,-40.2"/>
<text text-anchor="start" x="441.3862" y="-46.3" font-family="Helvetica,sans-Serif" font-size="11.00" fill="#000000"> &#160;</text>
<polygon fill="#ffffff" stroke="transparent" points="450.5,-40.2 450.5,-59.2 517.5,-59.2 517.5,-40.2 450.5,-40.2"/>
<polygon fill="none" stroke="#000000" points="450.5,-40.2 450.5,-59.2 517.5,-59.2 517.5,-40.2 450.5,-40.2"/>
<text text-anchor="start" x="498.9053" y="-46.3" font-family="Helvetica,sans-Serif" font-size="11.00" fill="#000000">0 &gt;</text>
<polygon fill="none" stroke="#000000" stroke-width="2" points="245,-39.2 245,-149.2 518,-149.2 518,-39.2 245,-39.2"/>
</a>
</g>
</g>
<!-- tms_rsrv_timer_config -->
<g id="node2" class="node">
<title>tms_rsrv_timer_config</title>
<g id="a_node2"><a xlink:href="../../tables/tms_rsrv_timer_config.html" xlink:title="tms_rsrv_timer_config" target="_top">
<polygon fill="#ffffff" stroke="transparent" points="8,-43.7 8,-148.7 195,-148.7 195,-43.7 8,-43.7"/>
<polygon fill="#f5f5f5" stroke="transparent" points="8.5,-125.2 8.5,-148.2 195.5,-148.2 195.5,-125.2 8.5,-125.2"/>
<polygon fill="none" stroke="#000000" points="8.5,-125.2 8.5,-148.2 195.5,-148.2 195.5,-125.2 8.5,-125.2"/>
<text text-anchor="start" x="13.5" y="-133.8" font-family="Helvetica,sans-Serif" font-weight="bold" font-size="11.00" fill="#000000">tms_rsrv_timer_config</text>
<text text-anchor="start" x="161.0219" y="-133.3" font-family="Helvetica,sans-Serif" font-size="11.00" fill="#000000">[table]</text>
<polygon fill="none" stroke="#000000" points="8.5,-103.2 8.5,-125.2 195.5,-125.2 195.5,-103.2 8.5,-103.2"/>
<image xlink:href="../../images/primaryKeys.png" width="11px" height="12px" preserveAspectRatio="xMinYMin meet" x="13.5" y="-120.2"/>
<text text-anchor="start" x="37.5" y="-110.3" font-family="Helvetica,sans-Serif" font-size="11.00" fill="#000000">c_pk</text>
<polygon fill="#ffffff" stroke="transparent" points="8.5,-81.2 8.5,-103.2 195.5,-103.2 195.5,-81.2 8.5,-81.2"/>
<polygon fill="none" stroke="#000000" points="8.5,-81.2 8.5,-103.2 195.5,-103.2 195.5,-81.2 8.5,-81.2"/>
<text text-anchor="start" x="37.5" y="-88.3" font-family="Helvetica,sans-Serif" font-size="11.00" fill="#000000">c_pid</text>
<polygon fill="none" stroke="#000000" points="8.5,-62.2 8.5,-81.2 195.5,-81.2 195.5,-62.2 8.5,-62.2"/>
<text text-anchor="start" x="11.5" y="-68.3" font-family="Helvetica,sans-Serif" font-size="11.00" fill="#000000">...</text>
<polygon fill="#ffffff" stroke="transparent" points="8.5,-43.2 8.5,-62.2 91.5,-62.2 91.5,-43.2 8.5,-43.2"/>
<polygon fill="none" stroke="#000000" points="8.5,-43.2 8.5,-62.2 91.5,-62.2 91.5,-43.2 8.5,-43.2"/>
<text text-anchor="start" x="11.5" y="-49.3" font-family="Helvetica,sans-Serif" font-size="11.00" fill="#000000"> &#160;</text>
<polygon fill="#ffffff" stroke="transparent" points="91.5,-43.2 91.5,-62.2 138.5,-62.2 138.5,-43.2 91.5,-43.2"/>
<polygon fill="none" stroke="#000000" points="91.5,-43.2 91.5,-62.2 138.5,-62.2 138.5,-43.2 91.5,-43.2"/>
<text text-anchor="start" x="129.3862" y="-49.3" font-family="Helvetica,sans-Serif" font-size="11.00" fill="#000000"> &#160;</text>
<polygon fill="#ffffff" stroke="transparent" points="138.5,-43.2 138.5,-62.2 195.5,-62.2 195.5,-43.2 138.5,-43.2"/>
<polygon fill="none" stroke="#000000" points="138.5,-43.2 138.5,-62.2 195.5,-62.2 195.5,-43.2 138.5,-43.2"/>
<text text-anchor="start" x="176.9053" y="-49.3" font-family="Helvetica,sans-Serif" font-size="11.00" fill="#000000">1 &gt;</text>
</a>
</g>
</g>
<!-- tms_rsrv_timer_config_vars&#45;&gt;tms_rsrv_timer_config -->
<g id="edge1" class="edge">
<title>tms_rsrv_timer_config_vars:w&#45;&gt;tms_rsrv_timer_config:e</title>
<path fill="none" stroke="#000000" d="M231.776,-114.2C219.7815,-114.2 212.3229,-114.2 195.5,-114.2"/>
<polygon fill="#000000" stroke="#000000" points="238.5,-114.2001 246.5,-117.8 242.5,-114.2 246.5,-114.2 246.5,-114.2 246.5,-114.2 242.5,-114.2 246.5,-110.6 238.5,-114.2001 238.5,-114.2001"/>
<ellipse fill="none" stroke="#000000" cx="235.3" cy="-114.2001" rx="3.2" ry="3.2"/>
</g>
</g>
</svg>
